<svg width="258" height="75" viewBox="0 0 258 75" fill="none" xmlns="http://www.w3.org/2000/svg">
<path d="M256.567 65.9377C256.567 69.9096 253.282 73.127 249.22 73.127H8.79008C4.72954 73.127 1.43359 69.9096 1.43359 65.9377V8.60498C1.43359 4.63489 4.72954 1.40625 8.79008 1.40625H249.218C253.283 1.40625 256.565 4.63489 256.565 8.60498L256.567 65.9377Z" fill="black"/>
<path d="M248.444 1.49287C252.869 1.49287 256.469 5.00293 256.469 9.31654V65.2165C256.469 69.5302 252.869 73.0402 248.444 73.0402H9.55556C5.13133 73.0402 1.53128 69.5302 1.53128 65.2165V9.31654C1.53128 5.00293 5.13133 1.49287 9.55556 1.49287H248.444ZM248.444 -0.00012207H9.55556C4.30239 -0.00012207 0 4.19471 0 9.31654V65.2165C0 70.3384 4.30239 74.5332 9.55556 74.5332H248.444C253.698 74.5332 258 70.3384 258 65.2165V9.31654C258 4.19471 253.698 -0.00012207 248.444 -0.00012207Z" fill="#A6A6A6"/>
<path d="M57.5785 36.8638C57.523 30.8583 62.6219 27.9366 62.855 27.8006C59.9674 23.6956 55.4915 23.1348 53.9187 23.0901C50.1595 22.7044 46.5131 25.2832 44.5982 25.2832C42.645 25.2832 39.6962 23.1273 36.518 23.1907C32.4282 23.2522 28.6022 25.5608 26.5038 29.1459C22.1732 36.4558 25.403 47.1979 29.552 53.1065C31.6275 56.0003 34.0527 59.2313 37.227 59.1176C40.3326 58.9928 41.4926 57.1872 45.2403 57.1872C48.9536 57.1872 50.043 59.1176 53.2804 59.0449C56.6134 58.9928 58.7118 56.1381 60.7146 53.2183C63.113 49.9016 64.0762 46.6351 64.1145 46.4674C64.0361 46.4414 57.6415 44.0619 57.5785 36.8638Z" fill="white"/>
<path d="M51.4629 19.2032C53.1332 17.1665 54.2761 14.3958 53.9588 11.584C51.5413 11.6883 48.5179 13.2144 46.7769 15.2063C45.2365 16.9616 43.8605 19.8386 44.216 22.5441C46.9317 22.7416 49.72 21.2081 51.4629 19.2032Z" fill="white"/>
<path d="M93.741 18.6486C93.741 20.8418 93.0664 22.4927 91.7191 23.6013C90.4711 24.6243 88.6976 25.1367 86.4004 25.1367C85.2614 25.1367 84.2867 25.0883 83.4707 24.9914V13.0083C84.5352 12.8406 85.6819 12.7549 86.9203 12.7549C89.1085 12.7549 90.7578 13.2189 91.87 14.1468C93.1161 15.1958 93.741 16.6958 93.741 18.6486ZM91.6292 18.7026C91.6292 17.2809 91.2432 16.1909 90.4711 15.4306C89.699 14.6723 88.5715 14.2921 87.0865 14.2921C86.4559 14.2921 85.9188 14.3331 85.4735 14.4188V23.5287C85.7201 23.5659 86.1711 23.5827 86.8266 23.5827C88.3593 23.5827 89.5423 23.1672 90.3756 22.3361C91.2088 21.5051 91.6292 20.2939 91.6292 18.7026Z" fill="white"/>
<path d="M104.939 20.5645C104.939 21.9154 104.543 23.0222 103.752 23.8905C102.923 24.7831 101.824 25.2284 100.452 25.2284C99.1291 25.2284 98.076 24.8017 97.2906 23.9446C96.507 23.0893 96.1152 22.0104 96.1152 20.7098C96.1152 19.3496 96.5185 18.2335 97.3288 17.367C98.1391 16.5006 99.2284 16.0664 100.601 16.0664C101.923 16.0664 102.986 16.4931 103.79 17.3484C104.555 18.1794 104.939 19.2527 104.939 20.5645ZM102.861 20.6278C102.861 19.8173 102.682 19.1223 102.324 18.5428C101.904 17.8422 101.306 17.4919 100.528 17.4919C99.7234 17.4919 99.1119 17.8422 98.6914 18.5428C98.3321 19.1223 98.1544 19.8285 98.1544 20.6632C98.1544 21.4738 98.334 22.1688 98.6914 22.7483C99.1252 23.4489 99.7291 23.7992 100.509 23.7992C101.273 23.7992 101.873 23.4433 102.305 22.7297C102.676 22.139 102.861 21.4384 102.861 20.6278Z" fill="white"/>
<path d="M119.951 16.2451L117.132 25.0289H115.298L114.13 21.2146C113.834 20.2625 113.593 19.3159 113.406 18.3768H113.369C113.196 19.342 112.955 20.2867 112.645 21.2146L111.405 25.0289H109.549L106.898 16.2451H108.957L109.975 20.4208C110.222 21.4084 110.424 22.3494 110.587 23.2401H110.623C110.772 22.5059 111.019 21.5705 111.367 20.4395L112.645 16.247H114.277L115.502 20.35C115.798 21.3507 116.039 22.314 116.225 23.2419H116.28C116.416 22.3382 116.62 21.3749 116.892 20.35L117.985 16.247H119.951V16.2451Z" fill="white"/>
<path d="M130.336 25.0288H128.333V19.9978C128.333 18.4475 127.729 17.6723 126.518 17.6723C125.923 17.6723 125.444 17.8848 125.071 18.3115C124.702 18.7382 124.515 19.2413 124.515 19.817V25.0269H122.512V18.7549C122.512 17.9835 122.487 17.1469 122.439 16.2413H124.2L124.293 17.6146H124.349C124.582 17.1879 124.93 16.8357 125.386 16.5543C125.929 16.2264 126.537 16.0605 127.202 16.0605C128.043 16.0605 128.742 16.3251 129.298 16.8562C129.99 17.5065 130.336 18.4773 130.336 19.7667V25.0288Z" fill="white"/>
<path d="M135.858 25.029H133.857V12.2148H135.858V25.029Z" fill="white"/>
<path d="M147.65 20.5645C147.65 21.9154 147.254 23.0222 146.463 23.8905C145.634 24.7831 144.533 25.2284 143.162 25.2284C141.838 25.2284 140.785 24.8017 140.002 23.9446C139.218 23.0893 138.826 22.0104 138.826 20.7098C138.826 19.3496 139.229 18.2335 140.04 17.367C140.85 16.5006 141.939 16.0664 143.31 16.0664C144.634 16.0664 145.695 16.4931 146.501 17.3484C147.266 18.1794 147.65 19.2527 147.65 20.5645ZM145.57 20.6278C145.57 19.8173 145.391 19.1223 145.033 18.5428C144.615 17.8422 144.015 17.4919 143.239 17.4919C142.432 17.4919 141.821 17.8422 141.402 18.5428C141.043 19.1223 140.865 19.8285 140.865 20.6632C140.865 21.4738 141.045 22.1688 141.402 22.7483C141.836 23.4489 142.44 23.7992 143.22 23.7992C143.984 23.7992 144.582 23.4433 145.014 22.7297C145.387 22.139 145.57 21.4384 145.57 20.6278Z" fill="white"/>
<path d="M157.343 25.029H155.545L155.396 24.0172H155.34C154.725 24.8241 153.848 25.2284 152.709 25.2284C151.858 25.2284 151.17 24.962 150.652 24.4328C150.182 23.952 149.947 23.3539 149.947 22.644C149.947 21.5707 150.406 20.7527 151.329 20.1862C152.25 19.6198 153.546 19.3421 155.214 19.3552V19.1912C155.214 18.0341 154.591 17.4565 153.343 17.4565C152.455 17.4565 151.671 17.6745 150.995 18.1068L150.587 16.8248C151.425 16.3198 152.458 16.0664 153.678 16.0664C156.032 16.0664 157.213 17.2776 157.213 19.6999V22.9347C157.213 23.8123 157.257 24.511 157.343 25.029ZM155.264 22.0104V20.6558C153.055 20.6185 151.95 21.2092 151.95 22.426C151.95 22.8843 152.076 23.2272 152.334 23.4564C152.592 23.6856 152.921 23.7992 153.313 23.7992C153.752 23.7992 154.163 23.6632 154.538 23.393C154.914 23.121 155.145 22.7763 155.231 22.3533C155.252 22.2583 155.264 22.1427 155.264 22.0104Z" fill="white"/>
<path d="M168.723 25.029H166.946L166.852 23.6184H166.797C166.229 24.6917 165.262 25.2284 163.903 25.2284C162.818 25.2284 161.914 24.8128 161.197 23.9818C160.48 23.1507 160.123 22.0719 160.123 20.747C160.123 19.3253 160.511 18.1738 161.291 17.2943C162.046 16.4744 162.971 16.0645 164.071 16.0645C165.281 16.0645 166.128 16.4614 166.609 17.257H166.648V12.2148H168.652V22.6626C168.652 23.5178 168.675 24.306 168.723 25.029ZM166.648 21.3247V19.8601C166.648 19.6067 166.628 19.4017 166.592 19.2452C166.479 18.7756 166.237 18.3806 165.868 18.062C165.495 17.7434 165.046 17.5831 164.528 17.5831C163.781 17.5831 163.196 17.8719 162.766 18.4514C162.34 19.0309 162.124 19.7707 162.124 20.6744C162.124 21.5427 162.328 22.247 162.739 22.7893C163.173 23.3669 163.758 23.6557 164.49 23.6557C165.147 23.6557 165.673 23.4153 166.072 22.9327C166.458 22.4874 166.648 21.9508 166.648 21.3247Z" fill="white"/>
<path d="M185.853 20.5645C185.853 21.9154 185.457 23.0222 184.666 23.8905C183.837 24.7831 182.74 25.2284 181.366 25.2284C180.045 25.2284 178.992 24.8017 178.205 23.9446C177.421 23.0893 177.029 22.0104 177.029 20.7098C177.029 19.3496 177.433 18.2335 178.243 17.367C179.053 16.5006 180.142 16.0664 181.517 16.0664C182.837 16.0664 183.902 16.4931 184.704 17.3484C185.469 18.1794 185.853 19.2527 185.853 20.5645ZM183.777 20.6278C183.777 19.8173 183.598 19.1223 183.24 18.5428C182.818 17.8422 182.222 17.4919 181.442 17.4919C180.639 17.4919 180.028 17.8422 179.605 18.5428C179.246 19.1223 179.068 19.8285 179.068 20.6632C179.068 21.4738 179.248 22.1688 179.605 22.7483C180.039 23.4489 180.643 23.7992 181.423 23.7992C182.187 23.7992 182.789 23.4433 183.221 22.7297C183.59 22.139 183.777 21.4384 183.777 20.6278Z" fill="white"/>
<path d="M196.621 25.0288H194.62V19.9978C194.62 18.4475 194.017 17.6723 192.803 17.6723C192.209 17.6723 191.729 17.8848 191.358 18.3115C190.987 18.7382 190.802 19.2413 190.802 19.817V25.0269H188.797V18.7549C188.797 17.9835 188.774 17.1469 188.727 16.2413H190.485L190.578 17.6146H190.634C190.869 17.1879 191.217 16.8357 191.672 16.5543C192.216 16.2264 192.822 16.0605 193.489 16.0605C194.328 16.0605 195.027 16.3251 195.584 16.8562C196.277 17.5065 196.621 18.4773 196.621 19.7667V25.0288Z" fill="white"/>
<path d="M210.102 17.7079H207.897V21.9749C207.897 23.0594 208.288 23.6016 209.064 23.6016C209.424 23.6016 209.722 23.5718 209.957 23.5103L210.008 24.9917C209.613 25.137 209.093 25.2097 208.453 25.2097C207.662 25.2097 207.046 24.9749 206.601 24.5053C206.154 24.0358 205.932 23.2457 205.932 22.137V17.7079H204.615V16.2452H205.932V14.6353L207.895 14.0576V16.2433H210.1V17.7079H210.102Z" fill="white"/>
<path d="M220.703 25.029H218.698V20.0353C218.698 18.4607 218.094 17.6725 216.885 17.6725C215.956 17.6725 215.321 18.1291 214.973 19.0421C214.914 19.234 214.88 19.4688 214.88 19.7446V25.0271H212.879V12.2148H214.88V17.5086H214.918C215.549 16.5452 216.453 16.0645 217.624 16.0645C218.454 16.0645 219.14 16.3291 219.684 16.8601C220.363 17.5216 220.703 18.5055 220.703 19.8061V25.029Z" fill="white"/>
<path d="M231.64 20.2208C231.64 20.5711 231.614 20.8655 231.566 21.1059H225.559C225.586 21.9742 225.873 22.6357 226.429 23.0941C226.937 23.504 227.593 23.709 228.395 23.709C229.284 23.709 230.094 23.5711 230.824 23.2935L231.138 24.65C230.283 25.0115 229.278 25.1922 228.114 25.1922C226.719 25.1922 225.62 24.7916 224.825 23.9904C224.026 23.1891 223.631 22.114 223.631 20.7649C223.631 19.4401 224 18.337 224.743 17.4575C225.519 16.5184 226.568 16.0488 227.893 16.0488C229.188 16.0488 230.173 16.5184 230.838 17.4575C231.375 18.2028 231.64 19.1252 231.64 20.2208ZM229.729 19.7159C229.745 19.1364 229.613 18.637 229.341 18.2159C228.993 17.6737 228.464 17.4016 227.747 17.4016C227.094 17.4016 226.561 17.6662 226.154 18.1973C225.821 18.6202 225.624 19.1252 225.559 19.7159H229.729Z" fill="white"/>
<path d="M102.522 58.7025H98.182L95.8046 51.4187H87.5409L85.2762 58.7025H81.0508L89.238 33.9053H94.2948L102.522 58.7025ZM95.0879 48.3629L92.9379 41.8878C92.7105 41.2263 92.2843 39.6686 91.6555 37.2164H91.5791C91.3287 38.2711 90.9255 39.8288 90.3713 41.8878L88.2595 48.3629H95.0879Z" fill="white"/>
<path d="M123.577 49.5426C123.577 52.5835 122.734 54.9872 121.048 56.7518C119.538 58.3226 117.664 59.107 115.426 59.107C113.01 59.107 111.275 58.2611 110.218 56.5692H110.141V65.9883H106.067V46.7084C106.067 44.7966 106.015 42.8346 105.916 40.8222H109.499L109.727 43.6563H109.803C111.162 41.5209 113.224 40.4551 115.991 40.4551C118.155 40.4551 119.961 41.288 121.406 42.9557C122.854 44.6252 123.577 46.8202 123.577 49.5426ZM119.426 49.6879C119.426 47.9475 119.024 46.5128 118.218 45.3836C117.337 44.206 116.154 43.6172 114.671 43.6172C113.666 43.6172 112.752 43.9451 111.936 44.5917C111.118 45.2438 110.583 46.0954 110.333 47.15C110.206 47.642 110.143 48.0444 110.143 48.3612V51.3425C110.143 52.6431 110.552 53.7406 111.37 54.6369C112.188 55.5332 113.251 55.9804 114.558 55.9804C116.093 55.9804 117.287 55.4027 118.141 54.2512C118.998 53.0978 119.426 51.5773 119.426 49.6879Z" fill="white"/>
<path d="M144.67 49.5426C144.67 52.5835 143.828 54.9872 142.14 56.7518C140.632 58.3226 138.757 59.107 136.519 59.107C134.104 59.107 132.369 58.2611 131.314 56.5692H131.237V65.9883H127.163V46.7084C127.163 44.7966 127.111 42.8346 127.012 40.8222H130.595L130.822 43.6563H130.899C132.256 41.5209 134.318 40.4551 137.087 40.4551C139.249 40.4551 141.055 41.288 142.503 42.9557C143.946 44.6252 144.67 46.8202 144.67 49.5426ZM140.519 49.6879C140.519 47.9475 140.116 46.5128 139.31 45.3836C138.429 44.206 137.25 43.6172 135.765 43.6172C134.757 43.6172 133.846 43.9451 133.028 44.5917C132.21 45.2438 131.677 46.0954 131.426 47.15C131.302 47.642 131.237 48.0444 131.237 48.3612V51.3425C131.237 52.6431 131.646 53.7406 132.46 54.6369C133.278 55.5313 134.341 55.9804 135.652 55.9804C137.186 55.9804 138.381 55.4027 139.235 54.2512C140.091 53.0978 140.519 51.5773 140.519 49.6879Z" fill="white"/>
<path d="M168.253 51.7486C168.253 53.8579 167.502 55.574 165.994 56.8989C164.337 58.3467 162.03 59.0697 159.066 59.0697C156.329 59.0697 154.135 58.5554 152.475 57.525L153.419 54.2138C155.208 55.2685 157.17 55.7976 159.309 55.7976C160.843 55.7976 162.038 55.4585 162.896 54.784C163.75 54.1095 164.176 53.2039 164.176 52.0747C164.176 51.0685 163.825 50.2207 163.119 49.5331C162.418 48.8456 161.247 48.2064 159.611 47.6158C155.158 45.9965 152.933 43.6245 152.933 40.5053C152.933 38.4668 153.713 36.7954 155.274 35.4948C156.83 34.1923 158.905 33.542 161.501 33.542C163.815 33.542 165.738 33.9352 167.272 34.7196L166.254 37.9581C164.82 37.1979 163.2 36.8177 161.386 36.8177C159.953 36.8177 158.833 37.1625 158.03 37.8482C157.352 38.4612 157.012 39.2084 157.012 40.0935C157.012 41.0736 157.4 41.8841 158.179 42.5214C158.858 43.1102 160.09 43.7475 161.879 44.435C164.067 45.294 165.675 46.2984 166.709 47.4499C167.739 48.5977 168.253 50.0344 168.253 51.7486Z" fill="white"/>
<path d="M181.725 43.8028H177.234V52.484C177.234 54.6921 178.025 55.7952 179.611 55.7952C180.34 55.7952 180.944 55.7337 181.421 55.6107L181.534 58.6275C180.731 58.92 179.675 59.0672 178.365 59.0672C176.756 59.0672 175.499 58.5883 174.591 57.6324C173.687 56.6747 173.232 55.0685 173.232 52.812V43.799H170.557V40.8177H173.232V37.5438L177.234 36.3662V40.8177H181.725V43.8028Z" fill="white"/>
<path d="M201.988 49.6153C201.988 52.3637 201.181 54.6202 199.572 56.3848C197.885 58.2016 195.645 59.1071 192.853 59.1071C190.162 59.1071 188.02 58.237 186.422 56.4966C184.824 54.7563 184.025 52.5594 184.025 49.9116C184.025 47.1408 184.847 44.8713 186.496 43.1067C188.142 41.3403 190.363 40.457 193.155 40.457C195.846 40.457 198.011 41.3272 199.645 43.0694C201.208 44.7595 201.988 46.9414 201.988 49.6153ZM197.761 49.7439C197.761 48.0948 197.399 46.6806 196.667 45.5011C195.813 44.0738 194.592 43.362 193.01 43.362C191.372 43.362 190.128 44.0756 189.273 45.5011C188.541 46.6824 188.18 48.1191 188.18 49.8184C188.18 51.4675 188.541 52.8817 189.273 54.0594C190.154 55.4867 191.385 56.1985 192.973 56.1985C194.529 56.1985 195.75 55.4718 196.631 54.0221C197.382 52.8202 197.761 51.3911 197.761 49.7439Z" fill="white"/>
<path d="M215.232 44.3159C214.828 44.2432 214.398 44.206 213.947 44.206C212.514 44.206 211.406 44.7333 210.626 45.7898C209.947 46.7215 209.607 47.8991 209.607 49.3208V58.7027H205.535L205.573 46.4531C205.573 44.3923 205.521 42.5159 205.42 40.824H208.969L209.118 44.2451H209.231C209.661 43.0693 210.339 42.1228 211.268 41.4128C212.176 40.7737 213.156 40.4551 214.213 40.4551C214.589 40.4551 214.93 40.4812 215.232 40.5277V44.3159Z" fill="white"/>
<path d="M233.454 48.9158C233.454 49.6276 233.406 50.2276 233.305 50.7177H221.082C221.129 52.4841 221.72 53.835 222.855 54.7667C223.885 55.5996 225.217 56.017 226.853 56.017C228.663 56.017 230.314 55.7356 231.799 55.171L232.437 57.9288C230.702 58.6667 228.653 59.0337 226.289 59.0337C223.446 59.0337 221.214 58.2176 219.589 56.5872C217.968 54.9568 217.156 52.7673 217.156 50.0208C217.156 47.3245 217.911 45.0792 219.423 43.2886C221.005 41.3768 223.144 40.4209 225.835 40.4209C228.478 40.4209 230.479 41.3768 231.837 43.2886C232.913 44.8072 233.454 46.6854 233.454 48.9158ZM229.569 47.8854C229.596 46.7078 229.33 45.6904 228.778 44.8314C228.073 43.7264 226.989 43.1749 225.531 43.1749C224.199 43.1749 223.115 43.7134 222.288 44.7941C221.609 45.6531 221.206 46.6836 221.082 47.8835H229.569V47.8854Z" fill="white"/>
</svg>
