<svg width="137" height="32" viewBox="0 0 137 32" fill="none" xmlns="http://www.w3.org/2000/svg">
<g clip-path="url(#clip0_1587_3736)">
<path d="M9.68182 13.0908C9.61057 13.1448 8.35258 13.8372 8.35258 15.3768C8.35258 17.1576 9.95332 17.7876 10.0012 17.8032C9.99386 17.8416 9.74693 18.666 9.15725 19.506C8.63145 20.2452 8.08231 20.9832 7.24693 20.9832C6.41155 20.9832 6.19656 20.5092 5.23219 20.5092C4.29238 20.5092 3.95823 20.9988 3.1941 20.9988C2.42998 20.9988 1.89681 20.3148 1.28378 19.4748C0.57371 18.4884 0 16.956 0 15.5016C0 13.1688 1.55283 11.9316 3.08108 11.9316C3.89312 11.9316 4.57002 12.4524 5.07985 12.4524C5.56511 12.4524 6.32187 11.9004 7.2457 11.9004C7.59582 11.9004 8.85381 11.9316 9.68182 13.0908ZM6.80713 10.9128C7.18919 10.47 7.45946 9.8556 7.45946 9.2412C7.45946 9.156 7.45209 9.0696 7.43612 9C6.8145 9.0228 6.07494 9.4044 5.62899 9.9096C5.27887 10.2984 4.95209 10.9128 4.95209 11.5356C4.95209 11.6292 4.96806 11.7228 4.97543 11.7528C5.01474 11.76 5.07862 11.7684 5.14251 11.7684C5.70025 11.7684 6.40172 11.4036 6.80713 10.9128Z" fill="black"/>
</g>
<path d="M17.207 12.7637L14.7754 20H13.0703L16.2578 11.4688H17.3477L17.207 12.7637ZM19.2402 20L16.7969 12.7637L16.6504 11.4688H17.7461L20.9512 20H19.2402ZM19.1289 16.8301V18.1016H14.5527V16.8301H19.1289ZM23.1074 14.8789V22.4375H21.5547V13.6602H22.9902L23.1074 14.8789ZM27.1797 16.7656V16.8887C27.1797 17.3496 27.125 17.7773 27.0156 18.1719C26.9102 18.5625 26.7539 18.9043 26.5469 19.1973C26.3398 19.4863 26.082 19.7129 25.7734 19.877C25.4688 20.0371 25.1172 20.1172 24.7188 20.1172C24.3281 20.1172 23.9883 20.043 23.6992 19.8945C23.4102 19.7422 23.166 19.5273 22.9668 19.25C22.7676 18.9727 22.6074 18.6504 22.4863 18.2832C22.3691 17.9121 22.2812 17.5078 22.2227 17.0703V16.6777C22.2812 16.2129 22.3691 15.791 22.4863 15.4121C22.6074 15.0293 22.7676 14.6992 22.9668 14.4219C23.166 14.1406 23.4082 13.9238 23.6934 13.7715C23.9824 13.6191 24.3203 13.543 24.707 13.543C25.1094 13.543 25.4629 13.6191 25.7676 13.7715C26.0762 13.9238 26.3359 14.1426 26.5469 14.4277C26.7578 14.7129 26.916 15.0527 27.0215 15.4473C27.127 15.8418 27.1797 16.2812 27.1797 16.7656ZM25.627 16.8887V16.7656C25.627 16.4844 25.6016 16.2246 25.5508 15.9863C25.5 15.7441 25.4219 15.5332 25.3164 15.3535C25.2109 15.1699 25.0742 15.0273 24.9062 14.9258C24.7383 14.8242 24.5352 14.7734 24.2969 14.7734C24.0586 14.7734 23.8535 14.8125 23.6816 14.8906C23.5098 14.9688 23.3691 15.0801 23.2598 15.2246C23.1504 15.3691 23.0645 15.541 23.002 15.7402C22.9434 15.9355 22.9043 16.1523 22.8848 16.3906V17.3633C22.9199 17.6523 22.9883 17.9121 23.0898 18.1426C23.1914 18.373 23.3398 18.5566 23.5352 18.6934C23.7344 18.8301 23.9922 18.8984 24.3086 18.8984C24.5469 18.8984 24.75 18.8457 24.918 18.7402C25.0859 18.6348 25.2227 18.4902 25.3281 18.3066C25.4336 18.1191 25.5098 17.9043 25.5566 17.6621C25.6035 17.4199 25.627 17.1621 25.627 16.8887ZM29.8574 14.8789V22.4375H28.3047V13.6602H29.7402L29.8574 14.8789ZM33.9297 16.7656V16.8887C33.9297 17.3496 33.875 17.7773 33.7656 18.1719C33.6602 18.5625 33.5039 18.9043 33.2969 19.1973C33.0898 19.4863 32.832 19.7129 32.5234 19.877C32.2188 20.0371 31.8672 20.1172 31.4688 20.1172C31.0781 20.1172 30.7383 20.043 30.4492 19.8945C30.1602 19.7422 29.916 19.5273 29.7168 19.25C29.5176 18.9727 29.3574 18.6504 29.2363 18.2832C29.1191 17.9121 29.0312 17.5078 28.9727 17.0703V16.6777C29.0312 16.2129 29.1191 15.791 29.2363 15.4121C29.3574 15.0293 29.5176 14.6992 29.7168 14.4219C29.916 14.1406 30.1582 13.9238 30.4434 13.7715C30.7324 13.6191 31.0703 13.543 31.457 13.543C31.8594 13.543 32.2129 13.6191 32.5176 13.7715C32.8262 13.9238 33.0859 14.1426 33.2969 14.4277C33.5078 14.7129 33.666 15.0527 33.7715 15.4473C33.877 15.8418 33.9297 16.2812 33.9297 16.7656ZM32.377 16.8887V16.7656C32.377 16.4844 32.3516 16.2246 32.3008 15.9863C32.25 15.7441 32.1719 15.5332 32.0664 15.3535C31.9609 15.1699 31.8242 15.0273 31.6562 14.9258C31.4883 14.8242 31.2852 14.7734 31.0469 14.7734C30.8086 14.7734 30.6035 14.8125 30.4316 14.8906C30.2598 14.9688 30.1191 15.0801 30.0098 15.2246C29.9004 15.3691 29.8145 15.541 29.752 15.7402C29.6934 15.9355 29.6543 16.1523 29.6348 16.3906V17.3633C29.6699 17.6523 29.7383 17.9121 29.8398 18.1426C29.9414 18.373 30.0898 18.5566 30.2852 18.6934C30.4844 18.8301 30.7422 18.8984 31.0586 18.8984C31.2969 18.8984 31.5 18.8457 31.668 18.7402C31.8359 18.6348 31.9727 18.4902 32.0781 18.3066C32.1836 18.1191 32.2598 17.9043 32.3066 17.6621C32.3535 17.4199 32.377 17.1621 32.377 16.8887ZM38.5469 18.2656C38.5469 18.1328 38.5117 18.0137 38.4414 17.9082C38.3711 17.8027 38.2383 17.707 38.043 17.6211C37.8516 17.5312 37.5703 17.4473 37.1992 17.3691C36.8711 17.2988 36.5684 17.2109 36.291 17.1055C36.0137 17 35.7754 16.873 35.5762 16.7246C35.377 16.5723 35.2207 16.3945 35.1074 16.1914C34.998 15.9844 34.9434 15.7461 34.9434 15.4766C34.9434 15.2148 35 14.9688 35.1133 14.7383C35.2266 14.5039 35.3906 14.2988 35.6055 14.123C35.8203 13.9434 36.082 13.8027 36.3906 13.7012C36.6992 13.5957 37.0469 13.543 37.4336 13.543C37.9727 13.543 38.4355 13.6309 38.8223 13.8066C39.2129 13.9824 39.5117 14.2246 39.7188 14.5332C39.9258 14.8379 40.0293 15.1816 40.0293 15.5645H38.4824C38.4824 15.3965 38.4434 15.2441 38.3652 15.1074C38.291 14.9707 38.1758 14.8613 38.0195 14.7793C37.8633 14.6934 37.666 14.6504 37.4277 14.6504C37.2129 14.6504 37.0312 14.6855 36.8828 14.7559C36.7383 14.8262 36.6289 14.918 36.5547 15.0312C36.4805 15.1445 36.4434 15.2695 36.4434 15.4062C36.4434 15.5078 36.4629 15.5996 36.502 15.6816C36.5449 15.7598 36.6133 15.832 36.707 15.8984C36.8008 15.9648 36.9277 16.0254 37.0879 16.0801C37.252 16.1348 37.4531 16.1875 37.6914 16.2383C38.1641 16.332 38.5762 16.457 38.9277 16.6133C39.2832 16.7656 39.5605 16.9688 39.7598 17.2227C39.959 17.4766 40.0586 17.8008 40.0586 18.1953C40.0586 18.4766 39.998 18.7344 39.877 18.9688C39.7559 19.1992 39.5801 19.4004 39.3496 19.5723C39.1191 19.7441 38.8438 19.8789 38.5234 19.9766C38.2031 20.0703 37.8418 20.1172 37.4395 20.1172C36.8574 20.1172 36.3652 20.0137 35.9629 19.8066C35.5605 19.5957 35.2559 19.3301 35.0488 19.0098C34.8418 18.6855 34.7383 18.3496 34.7383 18.002H36.2207C36.2324 18.248 36.2988 18.4453 36.4199 18.5938C36.541 18.7422 36.6934 18.8496 36.877 18.916C37.0645 18.9785 37.2617 19.0098 37.4688 19.0098C37.7031 19.0098 37.9004 18.9785 38.0605 18.916C38.2207 18.8496 38.3418 18.7617 38.4238 18.6523C38.5059 18.5391 38.5469 18.4102 38.5469 18.2656ZM44.2363 13.6602V14.7734H40.6035V13.6602H44.2363ZM41.5762 12.1016H43.1289V18.1719C43.1289 18.3594 43.1543 18.5039 43.2051 18.6055C43.2559 18.707 43.332 18.7754 43.4336 18.8105C43.5352 18.8457 43.6562 18.8633 43.7969 18.8633C43.8984 18.8633 43.9922 18.8574 44.0781 18.8457C44.1641 18.834 44.2363 18.8223 44.2949 18.8105L44.3008 19.9707C44.1719 20.0137 44.0254 20.0488 43.8613 20.0762C43.7012 20.1035 43.5195 20.1172 43.3164 20.1172C42.9688 20.1172 42.6641 20.0586 42.4023 19.9414C42.1406 19.8203 41.9375 19.627 41.793 19.3613C41.6484 19.0918 41.5762 18.7363 41.5762 18.2949V12.1016ZM44.8398 16.8945V16.7715C44.8398 16.3066 44.9062 15.8789 45.0391 15.4883C45.1719 15.0938 45.3652 14.752 45.6191 14.4629C45.873 14.1738 46.1836 13.9492 46.5508 13.7891C46.918 13.625 47.3359 13.543 47.8047 13.543C48.2812 13.543 48.7031 13.625 49.0703 13.7891C49.4414 13.9492 49.7539 14.1738 50.0078 14.4629C50.2617 14.752 50.4551 15.0938 50.5879 15.4883C50.7207 15.8789 50.7871 16.3066 50.7871 16.7715V16.8945C50.7871 17.3555 50.7207 17.7832 50.5879 18.1777C50.4551 18.5684 50.2617 18.9102 50.0078 19.2031C49.7539 19.4922 49.4434 19.7168 49.0762 19.877C48.709 20.0371 48.2891 20.1172 47.8164 20.1172C47.3477 20.1172 46.9277 20.0371 46.5566 19.877C46.1855 19.7168 45.873 19.4922 45.6191 19.2031C45.3652 18.9102 45.1719 18.5684 45.0391 18.1777C44.9062 17.7832 44.8398 17.3555 44.8398 16.8945ZM46.3867 16.7715V16.8945C46.3867 17.1719 46.4141 17.4316 46.4688 17.6738C46.5234 17.916 46.6074 18.1289 46.7207 18.3125C46.834 18.4961 46.9805 18.6406 47.1602 18.7461C47.3438 18.8477 47.5625 18.8984 47.8164 18.8984C48.0664 18.8984 48.2812 18.8477 48.4609 18.7461C48.6406 18.6406 48.7871 18.4961 48.9004 18.3125C49.0176 18.1289 49.1035 17.916 49.1582 17.6738C49.2129 17.4316 49.2402 17.1719 49.2402 16.8945V16.7715C49.2402 16.498 49.2129 16.2422 49.1582 16.0039C49.1035 15.7617 49.0176 15.5488 48.9004 15.3652C48.7871 15.1777 48.6387 15.0312 48.4551 14.9258C48.2754 14.8164 48.0586 14.7617 47.8047 14.7617C47.5547 14.7617 47.3398 14.8164 47.1602 14.9258C46.9805 15.0312 46.834 15.1777 46.7207 15.3652C46.6074 15.5488 46.5234 15.7617 46.4688 16.0039C46.4141 16.2422 46.3867 16.498 46.3867 16.7715ZM53.459 14.9551V20H51.9121V13.6602H53.377L53.459 14.9551ZM55.3867 13.6191L55.3633 15.0605C55.2773 15.0449 55.1797 15.0332 55.0703 15.0254C54.9648 15.0176 54.8652 15.0137 54.7715 15.0137C54.5332 15.0137 54.3242 15.0469 54.1445 15.1133C53.9648 15.1758 53.8145 15.2676 53.6934 15.3887C53.5762 15.5098 53.4863 15.6582 53.4238 15.834C53.3613 16.0059 53.3262 16.2012 53.3184 16.4199L52.9844 16.3789C52.9844 15.9766 53.0254 15.6035 53.1074 15.2598C53.1895 14.916 53.3086 14.6152 53.4648 14.3574C53.6211 14.0996 53.8164 13.9004 54.0508 13.7598C54.2891 13.6152 54.5625 13.543 54.8711 13.543C54.957 13.543 55.0488 13.5508 55.1465 13.5664C55.248 13.5781 55.3281 13.5957 55.3867 13.6191ZM58.9668 20.1172C58.4863 20.1172 58.0547 20.0391 57.6719 19.8828C57.2891 19.7266 56.9629 19.5098 56.6934 19.2324C56.4277 18.9512 56.2227 18.625 56.0781 18.2539C55.9375 17.8789 55.8672 17.4766 55.8672 17.0469V16.8125C55.8672 16.3242 55.9375 15.8809 56.0781 15.4824C56.2188 15.0801 56.418 14.7344 56.6758 14.4453C56.9336 14.1562 57.2422 13.9336 57.6016 13.7773C57.9609 13.6211 58.3574 13.543 58.791 13.543C59.2402 13.543 59.6367 13.6191 59.9805 13.7715C60.3242 13.9199 60.6113 14.1309 60.8418 14.4043C61.0723 14.6777 61.2461 15.0059 61.3633 15.3887C61.4805 15.7676 61.5391 16.1875 61.5391 16.6484V17.2988H56.5703V16.2324H60.0156V16.1152C60.0078 15.8691 59.9609 15.6445 59.875 15.4414C59.7891 15.2344 59.6562 15.0703 59.4766 14.9492C59.2969 14.8242 59.0645 14.7617 58.7793 14.7617C58.5488 14.7617 58.3477 14.8125 58.1758 14.9141C58.0078 15.0117 57.8672 15.1523 57.7539 15.3359C57.6445 15.5156 57.5625 15.7305 57.5078 15.9805C57.4531 16.2305 57.4258 16.5078 57.4258 16.8125V17.0469C57.4258 17.3125 57.4609 17.5586 57.5312 17.7852C57.6055 18.0117 57.7129 18.209 57.8535 18.377C57.998 18.541 58.1699 18.6699 58.3691 18.7637C58.5723 18.8535 58.8027 18.8984 59.0605 18.8984C59.3848 18.8984 59.6777 18.8359 59.9395 18.7109C60.2051 18.582 60.4355 18.3926 60.6309 18.1426L61.4102 18.9512C61.2773 19.1465 61.0977 19.334 60.8711 19.5137C60.6484 19.6934 60.3789 19.8398 60.0625 19.9531C59.7461 20.0625 59.3809 20.1172 58.9668 20.1172Z" fill="black"/>
<path d="M73.6676 10.6018C73.8662 10.312 74.2938 10.312 74.4924 10.6018L76.1237 12.982C76.1887 13.0769 76.2845 13.1465 76.3948 13.179L79.1626 13.9949C79.4996 14.0942 79.6318 14.501 79.4175 14.7794L77.6579 17.0664C77.5877 17.1575 77.5512 17.2701 77.5543 17.385L77.6337 20.2695C77.6433 20.6207 77.2973 20.8721 76.9663 20.7544L74.2475 19.7876C74.1392 19.749 74.0208 19.749 73.9125 19.7876L71.1937 20.7544C70.8627 20.8721 70.5167 20.6207 70.5263 20.2695L70.6057 17.385C70.6088 17.2701 70.5723 17.1575 70.5021 17.0664L68.7425 14.7794C68.5282 14.501 68.6604 14.0942 68.9974 13.9949L71.7652 13.179C71.8755 13.1465 71.9713 13.0769 72.0363 12.982L73.6676 10.6018Z" fill="#FFB802"/>
<path d="M87.8238 10.6018C88.0224 10.312 88.4501 10.312 88.6487 10.6018L90.28 12.982C90.345 13.0769 90.4407 13.1465 90.551 13.179L93.3189 13.9949C93.6559 14.0942 93.788 14.501 93.5738 14.7794L91.8141 17.0664C91.744 17.1575 91.7074 17.2701 91.7106 17.385L91.7899 20.2695C91.7996 20.6207 91.4536 20.8721 91.1226 20.7544L88.4038 19.7876C88.2954 19.749 88.1771 19.749 88.0687 19.7876L85.3499 20.7544C85.0189 20.8721 84.6729 20.6207 84.6826 20.2695L84.7619 17.385C84.7651 17.2701 84.7285 17.1575 84.6584 17.0664L82.8987 14.7794C82.6845 14.501 82.8166 14.0942 83.1536 13.9949L85.9215 13.179C86.0318 13.1465 86.1275 13.0769 86.1925 12.982L87.8238 10.6018Z" fill="#FFB802"/>
<path d="M101.98 10.6018C102.179 10.312 102.606 10.312 102.805 10.6018L104.436 12.982C104.501 13.0769 104.597 13.1465 104.707 13.179L107.475 13.9949C107.812 14.0942 107.944 14.501 107.73 14.7794L105.97 17.0664C105.9 17.1575 105.864 17.2701 105.867 17.385L105.946 20.2695C105.956 20.6207 105.61 20.8721 105.279 20.7544L102.56 19.7876C102.452 19.749 102.333 19.749 102.225 19.7876L99.5062 20.7544C99.1752 20.8721 98.8292 20.6207 98.8388 20.2695L98.9182 17.385C98.9213 17.2701 98.8848 17.1575 98.8146 17.0664L97.055 14.7794C96.8407 14.501 96.9729 14.0942 97.3099 13.9949L100.078 13.179C100.188 13.1465 100.284 13.0769 100.349 12.982L101.98 10.6018Z" fill="#FFB802"/>
<path d="M116.136 10.6018C116.335 10.312 116.763 10.312 116.961 10.6018L118.592 12.982C118.657 13.0769 118.753 13.1465 118.864 13.179L121.631 13.9949C121.968 14.0942 122.101 14.501 121.886 14.7794L120.127 17.0664C120.056 17.1575 120.02 17.2701 120.023 17.385L120.102 20.2695C120.112 20.6207 119.766 20.8721 119.435 20.7544L116.716 19.7876C116.608 19.749 116.49 19.749 116.381 19.7876L113.662 20.7544C113.331 20.8721 112.985 20.6207 112.995 20.2695L113.074 17.385C113.078 17.2701 113.041 17.1575 112.971 17.0664L111.211 14.7794C110.997 14.501 111.129 14.0942 111.466 13.9949L114.234 13.179C114.344 13.1465 114.44 13.0769 114.505 12.982L116.136 10.6018Z" fill="#FFB802"/>
<path opacity="0.8" d="M130.293 10.6018C130.491 10.312 130.919 10.312 131.117 10.6018L132.749 12.982C132.814 13.0769 132.909 13.1465 133.02 13.179L135.788 13.9949C136.125 14.0942 136.257 14.501 136.043 14.7794L134.283 17.0664C134.213 17.1575 134.176 17.2701 134.179 17.385L134.259 20.2695C134.268 20.6207 133.922 20.8721 133.591 20.7544L130.873 19.7876C130.764 19.749 130.646 19.749 130.537 19.7876L127.819 20.7544C127.488 20.8721 127.142 20.6207 127.151 20.2695L127.231 17.385C127.234 17.2701 127.197 17.1575 127.127 17.0664L125.367 14.7794C125.153 14.501 125.285 14.0942 125.622 13.9949L128.39 13.179C128.501 13.1465 128.596 13.0769 128.661 12.982L130.293 10.6018Z" fill="#FFB802"/>
<defs>
<clipPath id="clip0_1587_3736">
<rect width="10" height="12" fill="white" transform="translate(0 9)"/>
</clipPath>
</defs>
</svg>
