<svg width="18" height="21" viewBox="0 0 18 21" fill="none" xmlns="http://www.w3.org/2000/svg">
<g clip-path="url(#clip0_2979_3673)">
<path d="M16.6205 7.02254C16.4981 7.11524 14.3386 8.30386 14.3386 10.9468C14.3386 14.0039 17.0865 15.0854 17.1688 15.1122C17.1561 15.1781 16.7322 16.5933 15.7199 18.0353C14.8173 19.3043 13.8746 20.5712 12.4406 20.5712C11.0065 20.5712 10.6374 19.7575 8.98192 19.7575C7.36859 19.7575 6.79496 20.5979 5.48321 20.5979C4.17146 20.5979 3.25618 19.4237 2.20383 17.9817C0.984869 16.2884 0 13.6578 0 11.1611C0 7.15644 2.66568 5.03258 5.28919 5.03258C6.68319 5.03258 7.84521 5.92662 8.72042 5.92662C9.55344 5.92662 10.8525 4.97902 12.4385 4.97902C13.0395 4.97902 15.199 5.03258 16.6205 7.02254ZM11.6856 3.28364C12.3414 2.5235 12.8054 1.46878 12.8054 0.41406C12.8054 0.2678 12.7928 0.11948 12.7653 0C11.6982 0.03914 10.4286 0.69422 9.66311 1.56148C9.06206 2.22892 8.50109 3.28364 8.50109 4.35278C8.50109 4.51346 8.5285 4.67414 8.54116 4.72564C8.60864 4.738 8.71831 4.75242 8.82797 4.75242C9.78542 4.75242 10.9896 4.12618 11.6856 3.28364Z" fill="black"/>
</g>
<defs>
<clipPath id="clip0_2979_3673">
<rect width="17.1667" height="20.6" fill="white"/>
</clipPath>
</defs>
</svg>
