<svg width="24" height="24" viewBox="0 0 24 24" fill="none" xmlns="http://www.w3.org/2000/svg">
<path d="M21.0006 12.0004C21.0006 12.4146 20.6648 12.7504 20.2506 12.7504H5.5609L11.0312 18.2198C11.2208 18.4094 11.2948 18.6857 11.2254 18.9446C11.156 19.2036 10.9538 19.4059 10.6948 19.4753C10.4358 19.5447 10.1595 19.4706 9.96996 19.281L3.21996 12.531C3.07913 12.3904 3 12.1995 3 12.0004C3 11.8014 3.07913 11.6105 3.21996 11.4698L9.96996 4.71979C10.263 4.42674 10.7382 4.42674 11.0312 4.71979C11.3243 5.01285 11.3243 5.48799 11.0312 5.78104L5.5609 11.2504H20.2506C20.6648 11.2504 21.0006 11.5862 21.0006 12.0004Z" fill="black"/>
</svg>
