<svg width="4" height="6" viewBox="0 0 4 6" fill="none" xmlns="http://www.w3.org/2000/svg">
<path d="M2.56299 2.98851L2.59799 2.95201L2.63549 2.98851L2.59749 3.02451L2.56299 2.98851ZM3.10649 2.47101L3.14099 2.50751L3.10599 2.54051L3.07199 2.50751L3.10649 2.47101ZM3.10849 2.46901L3.07399 2.43301L3.10899 2.40001L3.14299 2.43301L3.10849 2.46901ZM3.65199 2.98601L3.68649 2.95001L3.72449 2.98601L3.68649 3.02251L3.65199 2.98601ZM0.581494 4.94401C0.55087 4.97242 0.526441 5.00684 0.509735 5.04513C0.493029 5.08341 0.484406 5.12473 0.484406 5.16651C0.484406 5.20828 0.493029 5.2496 0.509735 5.28789C0.526441 5.32617 0.55087 5.3606 0.581494 5.38901L0.512494 5.46151C0.472038 5.42375 0.439781 5.37808 0.417726 5.32733C0.39567 5.27658 0.384289 5.22184 0.384289 5.16651C0.384289 5.11117 0.39567 5.05643 0.417726 5.00568C0.439781 4.95493 0.472038 4.90926 0.512494 4.87151L0.581494 4.94401ZM2.59749 3.02451L0.581994 4.94451L0.512494 4.87151L2.52799 2.95201L2.59749 3.02451ZM0.572994 1.02451L2.59699 2.95201L2.52799 3.02451L0.504994 1.09701L0.573494 1.02451H0.572994ZM0.572994 0.579506C0.54237 0.607915 0.517941 0.642341 0.501235 0.680626C0.484529 0.718912 0.475906 0.760234 0.475906 0.802006C0.475906 0.843778 0.484529 0.8851 0.501235 0.923386C0.517941 0.961672 0.54237 0.996097 0.572994 1.02451L0.504494 1.09701C0.464118 1.05926 0.431928 1.01362 0.40992 0.962915C0.387912 0.912213 0.376556 0.857529 0.376556 0.802256C0.376556 0.746983 0.387912 0.6923 0.40992 0.641597C0.431928 0.590894 0.464118 0.545254 0.504494 0.507506L0.572994 0.579506ZM1.04749 0.580006C0.983076 0.519976 0.898296 0.486097 0.810244 0.486097C0.722191 0.486097 0.637412 0.519476 0.572994 0.579506L0.504494 0.507506C0.587485 0.429895 0.696867 0.386719 0.810494 0.386719C0.924121 0.386719 1.0335 0.429895 1.11649 0.507506L1.04749 0.580006ZM3.07149 2.50751L1.04749 0.580006L1.11699 0.507506L3.14099 2.43501L3.07199 2.50751H3.07149ZM3.14249 2.50501L3.14099 2.50751L3.07149 2.43501L3.07399 2.43301L3.14249 2.50501ZM3.61699 3.02251L3.07349 2.50501L3.14249 2.43301L3.68599 2.95001L3.61699 3.02251ZM1.05599 5.38901L3.61699 2.95001L3.68599 3.02251L1.12449 5.46151L1.05599 5.38901ZM0.581494 5.38901C0.645912 5.44904 0.730691 5.48242 0.818744 5.48242C0.906797 5.48242 0.991576 5.44904 1.05599 5.38901L1.12449 5.46151C1.04156 5.53923 0.932156 5.58248 0.818494 5.58248C0.704832 5.58248 0.595429 5.53923 0.512494 5.46151L0.581494 5.38901Z" fill="#EA749B"/>
<path fill-rule="evenodd" clip-rule="evenodd" d="M0.547507 5.42499C0.512047 5.39192 0.483772 5.3519 0.464439 5.30743C0.445106 5.26296 0.43513 5.21499 0.43513 5.16649C0.43513 5.118 0.445106 5.07003 0.464439 5.02556C0.483772 4.98109 0.512047 4.94107 0.547507 4.90799L2.56301 2.98799L0.539007 1.06099C0.503468 1.02791 0.475124 0.987865 0.455744 0.943348C0.436363 0.89883 0.426361 0.850797 0.426361 0.802244C0.426361 0.753691 0.436363 0.705658 0.455744 0.661141C0.475124 0.616623 0.503468 0.576576 0.539007 0.543494C0.612725 0.474602 0.709858 0.436279 0.810757 0.436279C0.911656 0.436279 1.00879 0.474602 1.08251 0.543494L3.10651 2.47099L3.10851 2.46899L3.65201 2.98599L1.09051 5.42499C1.01687 5.49385 0.919822 5.53216 0.819007 5.53216C0.718192 5.53216 0.621143 5.49385 0.547507 5.42499Z" fill="#EA749B"/>
</svg>
