<svg width="15" height="15" viewBox="0 0 15 15" fill="none" xmlns="http://www.w3.org/2000/svg">
<path d="M4.67548 7.45323C4.70437 7.44854 4.73361 7.44638 4.76287 7.44676H9.74458L9.63596 7.39623C9.52978 7.34598 9.43318 7.27758 9.35049 7.19414L7.9535 5.79714C7.76951 5.6215 7.73859 5.33896 7.88023 5.12769C8.04509 4.90256 8.36123 4.85368 8.58638 5.01853C8.60456 5.03185 8.62185 5.04638 8.6381 5.06201L11.1643 7.58823C11.3617 7.78543 11.3619 8.10533 11.1647 8.30275C11.1646 8.30288 11.1644 8.30302 11.1643 8.30315L8.6381 10.8294C8.44052 11.0264 8.12062 11.026 7.92358 10.8284C7.90807 10.8128 7.89359 10.7963 7.88023 10.7788C7.73859 10.5676 7.76951 10.285 7.9535 10.1094L9.34797 8.70987C9.4221 8.63566 9.50732 8.57344 9.60059 8.52545L9.75216 8.45725H4.79067C4.53257 8.46683 4.30613 8.28654 4.25764 8.03284C4.21297 7.7574 4.40004 7.49791 4.67548 7.45323Z" fill="#919CA4"/>
</svg>
