<svg width="38" height="38" viewBox="0 0 38 38" fill="none" xmlns="http://www.w3.org/2000/svg">
<path d="M37.6742 18.1539L26.2748 5.48789C26.0316 5.21937 25.6922 5.06738 25.3325 5.06738H17.7329C17.2338 5.06738 16.7804 5.36123 16.5752 5.81721C16.3725 6.27572 16.4561 6.81022 16.7905 7.18007L27.4274 19L16.7905 30.8173C16.4561 31.1897 16.37 31.7242 16.5752 32.1802C16.7804 32.6387 17.2338 32.9325 17.7329 32.9325H25.3325C25.6922 32.9325 26.0316 32.778 26.2748 32.5146L37.6742 19.8486C38.1074 19.3673 38.1074 18.6326 37.6742 18.1539Z" fill="#1BDA72"/>
<path d="M21.2093 18.1539L9.80996 5.48789C9.56677 5.21937 9.22732 5.06738 8.86761 5.06738H1.26802C0.768983 5.06738 0.315541 5.36123 0.110352 5.81721C-0.0923039 6.27572 -0.00870844 6.81022 0.325673 7.18007L10.9626 19L0.325673 30.8173C-0.00870844 31.1897 -0.0948371 31.7242 0.110352 32.1802C0.315541 32.6387 0.768983 32.9325 1.26802 32.9325H8.86761C9.22732 32.9325 9.56677 32.778 9.80996 32.5146L21.2093 19.8486C21.6425 19.3673 21.6425 18.6326 21.2093 18.1539Z" fill="#1BDA72"/>
</svg>
