<svg width="24" height="24" viewBox="0 0 24 24" fill="none" xmlns="http://www.w3.org/2000/svg">
<rect width="24" height="24" rx="12" fill="#13D16A"/>
<path fill-rule="evenodd" clip-rule="evenodd" d="M12.0005 4.5C11.034 4.5 10.2505 5.2835 10.2505 6.25C10.2505 7.2165 11.034 8 12.0005 8C12.967 8 13.7505 7.2165 13.7505 6.25C13.7505 5.2835 12.967 4.5 12.0005 4.5ZM14.6362 9.5925L17.4643 12.7987H17.4668C17.8489 13.1897 17.8462 13.8151 17.4608 14.2028C17.0753 14.5905 16.45 14.5967 16.0568 14.2169L14.438 12.9187L15.6668 17.6031C15.8897 18.1036 15.6684 18.6903 15.1705 18.9188C14.6726 19.1474 14.0835 18.9328 13.8493 18.4375L12.0005 15.25L10.1493 18.4331C9.91509 18.9284 9.32596 19.143 8.82805 18.9145C8.33014 18.6859 8.10886 18.0992 8.33179 17.5988L9.56304 12.9187L7.94679 14.2169C7.55362 14.5967 6.92828 14.5905 6.54282 14.2028C6.15736 13.8151 6.15467 13.1897 6.53679 12.7987L9.36492 9.5925C9.69712 9.21581 10.1752 9 10.6774 9H13.3237C13.8259 9 14.304 9.21581 14.6362 9.5925Z" fill="white"/>
</svg>
