<svg width="20" height="20" viewBox="0 0 20 20" fill="none" xmlns="http://www.w3.org/2000/svg">
<path d="M12.0827 8.33325C12.0827 7.67364 12.96 7.4988 13.1928 8.11598C13.7558 9.60892 14.166 10.9445 14.166 11.6665C14.166 13.9677 12.3005 15.8332 9.99935 15.8332C7.69816 15.8332 5.83268 13.9677 5.83268 11.6665C5.83268 10.8908 6.3062 9.40689 6.93398 7.78049C7.7472 5.67367 8.15382 4.62025 8.65574 4.56351C8.81635 4.54536 8.99156 4.578 9.13486 4.65277C9.58268 4.88645 9.58268 6.03538 9.58268 8.33325C9.58268 9.02361 10.1423 9.58325 10.8327 9.58325C11.523 9.58325 12.0827 9.02361 12.0827 8.33325Z" stroke="white"/>
<path d="M9.16732 15.8337L8.94833 15.2862C8.56865 14.337 8.72869 13.2569 9.36733 12.4586V12.4586C9.69201 12.0528 10.3093 12.0528 10.634 12.4586V12.4586C11.2726 13.2569 11.4327 14.337 11.053 15.2862L10.834 15.8337" stroke="white"/>
</svg>
