<svg width="20" height="20" viewBox="0 0 20 20" fill="none" xmlns="http://www.w3.org/2000/svg">
<path d="M10 3.33366L9.35219 4.41335C8.44978 5.91737 7.99857 6.66937 7.99857 7.50033C7.99857 8.33128 8.44978 9.08328 9.35219 10.5873L9.57125 10.9524C9.76272 11.2715 9.85845 11.4311 10 11.4311C10.1415 11.4311 10.2373 11.2715 10.4287 10.9524L10.6478 10.5873C11.5502 9.08329 12.0014 8.33128 12.0014 7.50033C12.0014 6.66937 11.5502 5.91737 10.6478 4.41335L10 3.33366ZM10 3.33366V1.66699" stroke="white"/>
<path d="M16.8008 10.4984L15.5418 10.4772C13.7881 10.4477 12.9112 10.433 12.1916 10.8484C11.472 11.2639 11.0463 12.0307 10.195 13.5642L9.98836 13.9365C9.80773 14.2618 9.71742 14.4245 9.78819 14.5471C9.85897 14.6697 10.045 14.6728 10.4171 14.6791L10.8428 14.6862C12.5966 14.7157 13.4734 14.7305 14.193 14.315C14.9127 13.8995 15.3383 13.1328 16.1896 11.5993L16.8008 10.4984ZM16.8008 10.4984L18.2441 9.66506" stroke="white"/>
<path d="M3.19924 10.4984L4.45818 10.4772C6.2119 10.4477 7.08876 10.433 7.80839 10.8484C8.52801 11.2639 8.95367 12.0307 9.80498 13.5642L10.0116 13.9365C10.1923 14.2618 10.2826 14.4245 10.2118 14.5471C10.141 14.6697 9.95499 14.6728 9.5829 14.6791L9.15717 14.6862C7.40345 14.7157 6.52659 14.7305 5.80696 14.315C5.08733 13.8995 4.66168 13.1328 3.81037 11.5993L3.19924 10.4984ZM3.19924 10.4984L1.75586 9.66506" stroke="white"/>
<path d="M10 12.5V18.75" stroke="white"/>
</svg>
