<svg width="12" height="12" viewBox="0 0 12 12" fill="none" xmlns="http://www.w3.org/2000/svg">
<path d="M3.15999 3.15999C2.94667 3.37331 2.94667 3.71916 3.15999 3.93247L5.47751 6.25001L3.16008 8.56744C2.94676 8.78074 2.94676 9.1266 3.16008 9.33994C3.37339 9.55324 3.71925 9.55324 3.93255 9.33994L6.25001 7.02247L8.56744 9.33994C8.78074 9.55324 9.1266 9.55324 9.33994 9.33994C9.55324 9.1266 9.55324 8.78074 9.33994 8.56744L7.02247 6.25001L9.34001 3.93247C9.55331 3.71916 9.55331 3.3733 9.34001 3.15999C9.12671 2.94667 8.78085 2.94667 8.56751 3.15999L6.25001 5.47751L3.93247 3.15999C3.71916 2.94667 3.3733 2.94667 3.15999 3.15999Z" fill="white"/>
</svg>
