<svg width="12" height="12" viewBox="0 0 12 12" fill="none" xmlns="http://www.w3.org/2000/svg">
<path fill-rule="evenodd" clip-rule="evenodd" d="M6 2C4.93913 2 3.92172 2.42143 3.17157 3.17157C2.42143 3.92172 2 4.93913 2 6C2 7.06087 2.42143 8.07828 3.17157 8.82843C3.92172 9.57857 4.93913 10 6 10C7.06087 10 8.07828 9.57857 8.82843 8.82843C9.57857 8.07828 10 7.06087 10 6C10 4.93913 9.57857 3.92172 8.82843 3.17157C8.07828 2.42143 7.06087 2 6 2ZM1 6C1 3.2385 3.2385 1 6 1C8.7615 1 11 3.2385 11 6C11 8.7615 8.7615 11 6 11C3.2385 11 1 8.7615 1 6ZM5.375 7.875C5.375 7.70924 5.44085 7.55027 5.55806 7.43306C5.67527 7.31585 5.83424 7.25 6 7.25C6.16576 7.25 6.32473 7.31585 6.44194 7.43306C6.55915 7.55027 6.625 7.70924 6.625 7.875C6.625 8.04076 6.55915 8.19973 6.44194 8.31694C6.32473 8.43415 6.16576 8.5 6 8.5C5.83424 8.5 5.67527 8.43415 5.55806 8.31694C5.44085 8.19973 5.375 8.04076 5.375 7.875ZM6 6.5C6.13261 6.5 6.25979 6.44732 6.35355 6.35355C6.44732 6.25979 6.5 6.13261 6.5 6V4C6.5 3.86739 6.44732 3.74021 6.35355 3.64645C6.25979 3.55268 6.13261 3.5 6 3.5C5.86739 3.5 5.74021 3.55268 5.64645 3.64645C5.55268 3.74021 5.5 3.86739 5.5 4V6C5.5 6.13261 5.55268 6.25979 5.64645 6.35355C5.74021 6.44732 5.86739 6.5 6 6.5Z" fill="#EE505A"/>
</svg>
