<svg width="24" height="24" viewBox="0 0 24 24" fill="none" xmlns="http://www.w3.org/2000/svg">
<rect width="24" height="24" rx="12" fill="#EF3B2E"/>
<path fill-rule="evenodd" clip-rule="evenodd" d="M18.8007 15.7557L13.335 6.26379C13.0571 5.79061 12.5494 5.5 12.0007 5.5C11.4519 5.5 10.9442 5.79061 10.6663 6.26379L5.20067 15.7557C4.93311 16.2136 4.93311 16.7802 5.20067 17.2382C5.47519 17.7145 5.98529 18.0058 6.53505 18H17.4663C18.0156 18.0053 18.5251 17.7141 18.7994 17.2382C19.0674 16.7804 19.0678 16.2138 18.8007 15.7557ZM11.5007 10.5C11.5007 10.2239 11.7245 10 12.0007 10C12.2768 10 12.5007 10.2239 12.5007 10.5V13C12.5007 13.2762 12.2768 13.5 12.0007 13.5C11.7245 13.5 11.5007 13.2762 11.5007 13V10.5ZM12.0007 16C11.5865 16 11.2507 15.6643 11.2507 15.25C11.2507 14.8358 11.5865 14.5 12.0007 14.5C12.4149 14.5 12.7507 14.8358 12.7507 15.25C12.7507 15.6643 12.4149 16 12.0007 16Z" fill="white"/>
</svg>
