<svg width="124" height="22" viewBox="0 0 124 22" fill="none" xmlns="http://www.w3.org/2000/svg">
<path d="M29.3434 1.20018C29.4681 0.578068 30.0145 0.130371 30.6489 0.130371H34.9217C35.7622 0.130371 36.3924 0.899501 36.2272 1.72359L32.463 20.5019C32.3383 21.124 31.7919 21.5717 31.1574 21.5717H26.8847C26.0442 21.5717 25.4139 20.8026 25.5791 19.9785L29.3434 1.20018Z" fill="#11E372"/>
<path d="M55.5325 0.130371C56.3727 0.130371 57.0029 0.89903 56.8382 1.72294L56.1825 5.00221C56.0581 5.62463 55.5116 6.07268 54.8769 6.07268H51.2937C50.6593 6.07268 50.113 6.52024 49.9882 7.14224L47.3074 20.5021C47.1826 21.1241 46.6363 21.5717 46.0019 21.5717H41.7293C40.8887 21.5717 40.2584 20.8024 40.4238 19.9782L42.8943 7.66615C43.0597 6.84199 42.4294 6.07268 41.5888 6.07268H39.0724C38.2322 6.07268 37.602 5.30402 37.7667 4.48011L38.4224 1.20083C38.5468 0.578415 39.0933 0.130371 39.728 0.130371H55.5325Z" fill="#11E372"/>
<rect x="2.96484" y="0.0595703" width="23.5869" height="6.08241" rx="3.0412" fill="#11E372"/>
<rect x="1.34766" y="7.69287" width="15.7695" height="6.08241" rx="3.0412" fill="#11E372"/>
<rect y="15.3257" width="7.00868" height="6.08241" rx="3.0412" fill="#11E372"/>
<path d="M73.2428 12.9252C73.8769 12.9252 74.3522 13.5055 74.2273 14.1272L73.5549 17.4741C73.4361 18.0655 72.9166 18.4911 72.3133 18.4911H71.9432C71.3393 18.4911 70.8194 18.9175 70.7013 19.5098L70.4786 20.6263C70.3605 21.2186 69.8406 21.645 69.2366 21.645H64.97C64.1712 21.645 63.5719 20.9144 63.7281 20.131L63.7532 20.0051C63.9094 19.2217 63.3101 18.4911 62.5113 18.4911H55.3274C54.5278 18.4911 53.9283 17.7592 54.0858 16.9752L54.8466 13.1885C54.8815 13.0149 54.9524 12.8505 55.0548 12.706L63.6766 0.534373C63.914 0.199205 64.2993 0 64.71 0H69.6569C70.6888 0 71.2875 1.16801 70.685 2.00577L63.7935 11.5883C63.3919 12.1467 63.791 12.9252 64.4788 12.9252C64.8823 12.9252 65.2294 12.6395 65.307 12.2435L65.567 10.9176C65.6834 10.3235 66.2042 9.89488 66.8097 9.89488H71.078C71.8752 9.89488 72.4741 10.6226 72.3207 11.4049L72.2574 11.7278C72.1358 12.3481 72.6107 12.9252 73.2428 12.9252Z" fill="black"/>
<path d="M102.916 0C103.715 0 104.314 0.729893 104.158 1.51304L100.363 20.6253C100.245 21.2181 99.7251 21.645 99.1208 21.645H94.7129C93.9148 21.645 93.3157 20.9158 93.4706 20.1329L94.2981 15.9505C94.5508 14.6732 92.9431 13.8919 92.0949 14.8797L88.5564 19.0013C88.4469 19.1289 88.2872 19.2022 88.119 19.2022C87.8966 19.2022 87.694 19.0742 87.5985 18.8733L85.4167 14.2839C84.8927 13.1817 83.2663 13.3855 83.0304 14.5829L81.8407 20.6234C81.7237 21.217 81.2032 21.645 80.5982 21.645H76.193C75.3945 21.645 74.7953 20.9152 74.9508 20.132L78.7462 1.01972C78.8639 0.426983 79.384 0 79.9883 0H85.0909C85.6034 0 86.0654 0.308895 86.2612 0.782508L88.8129 6.95401C89.1753 7.83042 90.3369 8.01222 90.9497 7.28841L96.7408 0.448114C96.9814 0.163902 97.3349 0 97.7073 0H102.916Z" fill="black"/>
<path d="M122.94 4.60814C122.823 5.20081 122.303 5.62771 121.698 5.62771H114.796C114.233 5.62771 113.75 6.02699 113.643 6.57971C113.503 7.3047 114.058 7.97775 114.796 7.97775H119.864C120.663 7.97775 121.263 8.70964 121.105 9.49357L120.496 12.5267C120.377 13.1181 119.858 13.5436 119.254 13.5436H113.24C112.666 13.5436 112.172 13.9477 112.058 14.5098C111.907 15.257 112.478 15.9555 113.24 15.9555H119.311C120.109 15.9555 120.708 16.6836 120.554 17.4661L119.933 20.6229C119.817 21.2168 119.296 21.645 118.691 21.645H105.2C104.402 21.645 103.803 20.9152 103.958 20.132L107.753 1.01972C107.871 0.426983 108.391 0 108.996 0H122.313C123.112 0 123.711 0.73 123.555 1.51319L122.94 4.60814Z" fill="black"/>
</svg>
