<svg width="24" height="24" viewBox="0 0 24 24" fill="none" xmlns="http://www.w3.org/2000/svg">
<g clip-path="url(#clip0_1910_2399)">
<path d="M19.1 7.2L22.16 3.12C22.2934 2.94163 22.3745 2.72969 22.3944 2.50785C22.4142 2.28601 22.372 2.06302 22.2724 1.86381C22.1728 1.6646 22.0197 1.49701 21.8304 1.37978C21.641 1.26256 21.4227 1.20031 21.2 1.2H6.8C6.8 0.88174 6.67357 0.576515 6.44853 0.351472C6.22348 0.126428 5.91826 0 5.6 0C5.28174 0 4.97652 0.126428 4.75147 0.351472C4.52643 0.576515 4.4 0.88174 4.4 1.2V21.6H3.2C2.88174 21.6 2.57652 21.7264 2.35147 21.9515C2.12643 22.1765 2 22.4817 2 22.8C2 23.1183 2.12643 23.4235 2.35147 23.6485C2.57652 23.8736 2.88174 24 3.2 24H8C8.31826 24 8.62348 23.8736 8.84853 23.6485C9.07357 23.4235 9.2 23.1183 9.2 22.8C9.2 22.4817 9.07357 22.1765 8.84853 21.9515C8.62348 21.7264 8.31826 21.6 8 21.6H6.8V13.2H21.2C21.4227 13.1997 21.641 13.1374 21.8304 13.0202C22.0197 12.903 22.1728 12.7354 22.2724 12.5362C22.372 12.337 22.4142 12.114 22.3944 11.8922C22.3745 11.6703 22.2934 11.4584 22.16 11.28L19.1 7.2Z" fill="#13D16A"/>
</g>
<defs>
<clipPath id="clip0_1910_2399">
<rect width="24" height="24" fill="white"/>
</clipPath>
</defs>
</svg>
