<svg width="12" height="12" viewBox="0 0 12 12" fill="none" xmlns="http://www.w3.org/2000/svg">
<path fill-rule="evenodd" clip-rule="evenodd" d="M2 6C2 4.93913 2.42143 3.92172 3.17157 3.17157C3.92172 2.42143 4.93913 2 6 2C7.06087 2 8.07828 2.42143 8.82843 3.17157C9.57857 3.92172 10 4.93913 10 6C10 7.06087 9.57857 8.07828 8.82843 8.82843C8.07828 9.57857 7.06087 10 6 10C4.93913 10 3.92172 9.57857 3.17157 8.82843C2.42143 8.07828 2 7.06087 2 6ZM6 1C3.2385 1 1 3.2385 1 6C1 8.7615 3.2385 11 6 11C8.7615 11 11 8.7615 11 6C11 3.2385 8.7615 1 6 1ZM8.384 4.82C8.4279 4.76982 8.46132 4.71137 8.48229 4.64808C8.50327 4.5848 8.51137 4.51796 8.50614 4.45149C8.5009 4.38503 8.48242 4.32028 8.45179 4.26106C8.42116 4.20185 8.37899 4.14935 8.32777 4.10667C8.27656 4.06399 8.21732 4.03198 8.15355 4.01253C8.08978 3.99308 8.02276 3.98658 7.95644 3.99341C7.89012 4.00025 7.82584 4.02027 7.76737 4.05232C7.70891 4.08436 7.65744 4.12777 7.616 4.18L5.466 6.7595L4.3535 5.6465C4.2592 5.55542 4.1329 5.50502 4.0018 5.50616C3.8707 5.5073 3.74529 5.55989 3.65259 5.65259C3.55989 5.74529 3.5073 5.8707 3.50616 6.0018C3.50502 6.1329 3.55542 6.2592 3.6465 6.3535L5.1465 7.8535C5.19563 7.9026 5.25445 7.94092 5.31921 7.96603C5.38397 7.99114 5.45325 8.00248 5.52263 7.99932C5.59202 7.99617 5.65999 7.9786 5.72221 7.94772C5.78442 7.91685 5.83953 7.87335 5.884 7.82L8.384 4.82Z" fill="#3AAE92"/>
</svg>
