<svg width="24" height="24" viewBox="0 0 24 24" fill="none" xmlns="http://www.w3.org/2000/svg">
<rect width="24" height="24" rx="12" fill="#47DEAB"/>
<path d="M6.44466 11.4077C6.16852 11.4085 5.89825 11.4875 5.6651 11.6354C5.43195 11.7834 5.24547 11.9944 5.12721 12.2439C5.00896 12.4934 4.96377 12.7713 4.99688 13.0455C5.02998 13.3196 5.14003 13.5788 5.31429 13.793L9.02906 18.3436C9.16151 18.5081 9.33129 18.6386 9.5243 18.7242C9.7173 18.8099 9.92796 18.8483 10.1388 18.8362C10.5897 18.812 10.9968 18.5708 11.2563 18.1742L18.9728 5.74675C18.9741 5.74469 18.9754 5.74263 18.9768 5.7406C19.0492 5.62943 19.0257 5.40912 18.8762 5.27072C18.8352 5.23272 18.7868 5.20352 18.734 5.18492C18.6812 5.16633 18.6252 5.15873 18.5694 5.1626C18.5136 5.16647 18.4592 5.18173 18.4095 5.20743C18.3598 5.23313 18.3159 5.26873 18.2805 5.31205C18.2777 5.31545 18.2749 5.3188 18.2719 5.32211L10.4897 14.1148C10.4601 14.1483 10.4241 14.1755 10.3839 14.195C10.3437 14.2144 10.3 14.2257 10.2554 14.2281C10.2107 14.2305 10.1661 14.224 10.124 14.209C10.0819 14.1941 10.0432 14.1709 10.0102 14.1408L7.4274 11.7904C7.15916 11.5445 6.80855 11.408 6.44466 11.4077Z" fill="white"/>
</svg>
