<svg width="258" height="75" viewBox="0 0 258 75" fill="none" xmlns="http://www.w3.org/2000/svg">
<path d="M248.444 74.6367H9.55556C4.30239 74.6367 0 70.4361 0 65.3072V9.33029C0 4.2014 4.30239 0.000797761 9.55556 0.000797761H248.444C253.698 0.000797761 258 4.2014 258 9.33029V65.3072C258 70.4361 253.698 74.6367 248.444 74.6367Z" fill="black"/>
<path d="M248.444 1.49585C252.869 1.49585 256.469 5.01073 256.469 9.33029V65.3072C256.469 69.6268 252.869 73.1417 248.444 73.1417H9.55556C5.13133 73.1417 1.53128 69.6268 1.53128 65.3072V9.33029C1.53128 5.01073 5.13133 1.49585 9.55556 1.49585H248.444ZM248.444 0.000797761H9.55556C4.30239 0.000797761 0 4.2014 0 9.33029V65.3072C0 70.4361 4.30239 74.6367 9.55556 74.6367H248.444C253.698 74.6367 258 70.4361 258 65.3072V9.33029C258 4.2014 253.698 0.000797761 248.444 0.000797761Z" fill="#A6A6A6"/>
<path d="M90.6202 19.1149C90.6202 20.673 90.1424 21.9208 89.2012 22.8514C88.119 23.9546 86.7096 24.5097 84.9824 24.5097C83.3317 24.5097 81.9222 23.9453 80.766 22.8327C79.6074 21.7039 79.0293 20.3185 79.0293 18.6601C79.0293 17.0018 79.6074 15.6164 80.766 14.4969C81.9222 13.375 83.3317 12.8105 84.9824 12.8105C85.8042 12.8105 86.5877 12.9761 87.3355 13.284C88.0808 13.5942 88.6876 14.0141 89.1271 14.5318L88.1286 15.5161C87.3617 14.6321 86.3178 14.196 84.9824 14.196C83.7784 14.196 82.7345 14.6065 81.8482 15.4345C80.9715 16.2648 80.5319 17.34 80.5319 18.6601C80.5319 19.9803 80.9715 21.0648 81.8482 21.8951C82.7345 22.7138 83.7784 23.1336 84.9824 23.1336C86.2605 23.1336 87.3355 22.7138 88.1835 21.8858C88.7425 21.3377 89.0602 20.582 89.1439 19.6164H84.9824V18.2683H90.5342C90.6011 18.5598 90.6202 18.8421 90.6202 19.1149Z" fill="white" stroke="white" stroke-width="0.202403" stroke-miterlimit="10"/>
<path d="M99.4276 14.4411H94.2127V17.9864H98.914V19.3345H94.2127V22.8797H99.4276V24.2534H92.7363V13.0674H99.4276V14.4411Z" fill="white" stroke="white" stroke-width="0.202403" stroke-miterlimit="10"/>
<path d="M105.644 24.2534H104.167V14.4411H100.969V13.0674H108.845V14.4411H105.644V24.2534Z" fill="white" stroke="white" stroke-width="0.202403" stroke-miterlimit="10"/>
<path d="M114.547 24.2534V13.0674H116.021V24.2534H114.547Z" fill="white" stroke="white" stroke-width="0.202403" stroke-miterlimit="10"/>
<path d="M122.55 24.2534H121.086V14.4411H117.875V13.0674H125.761V14.4411H122.55V24.2534Z" fill="white" stroke="white" stroke-width="0.202403" stroke-miterlimit="10"/>
<path d="M140.674 22.8141C139.544 23.9453 138.144 24.5097 136.474 24.5097C134.795 24.5097 133.395 23.9453 132.265 22.8141C131.138 21.6852 130.576 20.2998 130.576 18.6601C130.576 17.0205 131.138 15.635 132.265 14.5062C133.395 13.375 134.795 12.8105 136.474 12.8105C138.135 12.8105 139.535 13.375 140.664 14.5155C141.802 15.6537 142.363 17.0298 142.363 18.6601C142.363 20.2998 141.802 21.6852 140.674 22.8141ZM133.357 21.8765C134.207 22.7138 135.242 23.1336 136.474 23.1336C137.697 23.1336 138.741 22.7138 139.582 21.8765C140.43 21.0392 140.86 19.9639 140.86 18.6601C140.86 17.3563 140.43 16.2811 139.582 15.4438C138.741 14.6065 137.697 14.1866 136.474 14.1866C135.242 14.1866 134.207 14.6065 133.357 15.4438C132.509 16.2811 132.079 17.3563 132.079 18.6601C132.079 19.9639 132.509 21.0392 133.357 21.8765Z" fill="white" stroke="white" stroke-width="0.202403" stroke-miterlimit="10"/>
<path d="M144.436 24.2534V13.0674H146.227L151.798 21.7671H151.863L151.798 19.6167V13.0674H153.272V24.2534H151.734L145.9 15.1245H145.835L145.9 17.2843V24.2534H144.436Z" fill="white" stroke="white" stroke-width="0.202403" stroke-miterlimit="10"/>
<path d="M130.213 40.5888C125.724 40.5888 122.058 43.924 122.058 48.5258C122.058 53.0903 125.724 56.4605 130.213 56.4605C134.711 56.4605 138.378 53.0903 138.378 48.5258C138.378 43.924 134.711 40.5888 130.213 40.5888ZM130.213 53.3352C127.75 53.3352 125.631 51.3503 125.631 48.5258C125.631 45.664 127.75 43.7141 130.213 43.7141C132.676 43.7141 134.805 45.664 134.805 48.5258C134.805 51.3503 132.676 53.3352 130.213 53.3352ZM112.418 40.5888C107.92 40.5888 104.263 43.924 104.263 48.5258C104.263 53.0903 107.92 56.4605 112.418 56.4605C116.914 56.4605 120.574 53.0903 120.574 48.5258C120.574 43.924 116.914 40.5888 112.418 40.5888ZM112.418 53.3352C109.953 53.3352 107.827 51.3503 107.827 48.5258C107.827 45.664 109.953 43.7141 112.418 43.7141C114.881 43.7141 117 45.664 117 48.5258C117 51.3503 114.881 53.3352 112.418 53.3352ZM91.2432 43.0214V46.394H99.4921C99.2508 48.2786 98.6058 49.664 97.6168 50.6296C96.4128 51.7958 94.5375 53.0903 91.2432 53.0903C86.1669 53.0903 82.1917 49.0902 82.1917 44.134C82.1917 39.1777 86.1669 35.1776 91.2432 35.1776C93.9881 35.1776 95.9852 36.2249 97.4591 37.5823L99.8934 35.2056C97.8318 33.2838 95.0894 31.8074 91.2432 31.8074C84.282 31.8074 78.4316 37.3374 78.4316 44.134C78.4316 50.9305 84.282 56.4605 91.2432 56.4605C95.0057 56.4605 97.8318 55.257 100.053 52.9993C102.33 50.7766 103.04 47.6512 103.04 45.1275C103.04 44.3439 102.973 43.6232 102.853 43.0214H91.2432ZM177.831 45.636C177.16 43.8611 175.088 40.5888 170.87 40.5888C166.689 40.5888 163.209 43.8051 163.209 48.5258C163.209 52.9713 166.653 56.4605 171.271 56.4605C175.005 56.4605 177.16 54.2378 178.046 52.9433L175.275 51.1404C174.35 52.4605 173.091 53.3352 171.271 53.3352C169.463 53.3352 168.165 52.5258 167.334 50.9305L178.206 46.5386L177.831 45.636ZM166.746 48.2786C166.653 45.2185 169.181 43.6512 170.992 43.6512C172.411 43.6512 173.615 44.3439 174.016 45.3351L166.746 48.2786ZM157.91 55.9777H161.484V32.654H157.91V55.9777ZM152.057 42.3567H151.938C151.135 41.4284 149.604 40.5888 147.664 40.5888C143.593 40.5888 139.871 44.078 139.871 48.5515C139.871 52.9993 143.593 56.4605 147.664 56.4605C149.604 56.4605 151.135 55.6139 151.938 54.6576H152.057V55.7958C152.057 58.8302 150.397 60.4606 147.719 60.4606C145.536 60.4606 144.181 58.9212 143.622 57.6267L140.514 58.8932C141.41 60.997 143.782 63.5859 147.719 63.5859C151.909 63.5859 155.445 61.1789 155.445 55.3223V41.0716H152.057V42.3567ZM147.97 53.3352C145.507 53.3352 143.445 51.3223 143.445 48.5515C143.445 45.755 145.507 43.7141 147.97 43.7141C150.397 43.7141 152.31 45.755 152.31 48.5515C152.31 51.3223 150.397 53.3352 147.97 53.3352ZM194.563 32.654H186.015V55.9777H189.579V47.1404H194.563C198.521 47.1404 202.403 44.3439 202.403 39.896C202.403 35.4505 198.511 32.654 194.563 32.654ZM194.656 43.8961H189.579V35.8984H194.656C197.317 35.8984 198.836 38.0558 198.836 39.896C198.836 41.7013 197.317 43.8961 194.656 43.8961ZM216.689 40.5444C214.113 40.5444 211.435 41.6546 210.334 44.1153L213.497 45.4098C214.178 44.1153 215.43 43.6955 216.753 43.6955C218.602 43.6955 220.477 44.78 220.506 46.6949V46.9398C219.861 46.5759 218.48 46.0372 216.782 46.0372C213.375 46.0372 209.904 47.8681 209.904 51.285C209.904 54.4104 212.694 56.4232 215.831 56.4232C218.229 56.4232 219.553 55.3667 220.384 54.1375H220.506V55.9404H223.948V46.9934C223.948 42.8581 220.785 40.5444 216.689 40.5444ZM216.259 53.3258C215.093 53.3258 213.468 52.7614 213.468 51.3503C213.468 49.5451 215.494 48.8523 217.248 48.8523C218.817 48.8523 219.553 49.1905 220.506 49.636C220.226 51.7958 218.323 53.3258 216.259 53.3258ZM236.49 41.0552L232.393 51.1661H232.271L228.036 41.0552H224.192L230.556 55.1847L226.925 63.0472H230.649L240.456 41.0552H236.49ZM204.362 55.9777H207.936V32.654H204.362V55.9777Z" fill="white"/>
<path d="M19.9429 14.0669C19.3815 14.6407 19.0566 15.534 19.0566 16.6909V57.9552C19.0566 59.1121 19.3815 60.0054 19.9429 60.5791L20.0815 60.7051L43.7649 37.5913V37.0455L20.0815 13.9317L19.9429 14.0669Z" fill="url(#paint0_linear_3443_3965)"/>
<path d="M51.6494 45.3008L43.7637 37.5923V37.0465L51.6589 29.338L51.8357 29.4383L61.1858 34.6325C63.8542 36.1066 63.8542 38.5322 61.1858 40.0156L51.8357 45.2005L51.6494 45.3008Z" fill="url(#paint1_linear_3443_3965)"/>
<path d="M51.8355 45.2002L43.7634 37.3191L19.9414 60.5798C20.8277 61.4895 22.273 61.5991 23.9165 60.6895L51.8355 45.2002Z" fill="url(#paint2_linear_3443_3965)"/>
<path d="M51.8355 29.4373L23.9165 13.948C22.273 13.0477 20.8277 13.1573 19.9414 14.0669L43.7634 37.3184L51.8355 29.4373Z" fill="url(#paint3_linear_3443_3965)"/>
<defs>
<linearGradient id="paint0_linear_3443_3965" x1="41.6621" y1="58.3849" x2="10.3568" y2="26.3211" gradientUnits="userSpaceOnUse">
<stop stop-color="#00A0FF"/>
<stop offset="0.0066" stop-color="#00A1FF"/>
<stop offset="0.2601" stop-color="#00BEFF"/>
<stop offset="0.5122" stop-color="#00D2FF"/>
<stop offset="0.7604" stop-color="#00DFFF"/>
<stop offset="1" stop-color="#00E3FF"/>
</linearGradient>
<linearGradient id="paint1_linear_3443_3965" x1="64.6605" y1="37.3168" x2="18.4176" y2="37.3168" gradientUnits="userSpaceOnUse">
<stop stop-color="#FFE000"/>
<stop offset="0.4087" stop-color="#FFBD00"/>
<stop offset="0.7754" stop-color="#FFA500"/>
<stop offset="1" stop-color="#FF9C00"/>
</linearGradient>
<linearGradient id="paint2_linear_3443_3965" x1="47.4461" y1="33.0348" x2="4.99362" y2="-10.4464" gradientUnits="userSpaceOnUse">
<stop stop-color="#FF3A44"/>
<stop offset="1" stop-color="#C31162"/>
</linearGradient>
<linearGradient id="paint3_linear_3443_3965" x1="13.9449" y1="74.3076" x2="32.9019" y2="54.8914" gradientUnits="userSpaceOnUse">
<stop stop-color="#32A071"/>
<stop offset="0.0685" stop-color="#2DA771"/>
<stop offset="0.4762" stop-color="#15CF74"/>
<stop offset="0.8009" stop-color="#06E775"/>
<stop offset="1" stop-color="#00F076"/>
</linearGradient>
</defs>
</svg>
