<svg width="69" height="36" viewBox="0 0 69 36" fill="none" xmlns="http://www.w3.org/2000/svg">
<g clip-path="url(#clip0_152_169)">
<path d="M9.68182 4.0908C9.61057 4.1448 8.35258 4.8372 8.35258 6.3768C8.35258 8.1576 9.95332 8.7876 10.0012 8.8032C9.99386 8.8416 9.74693 9.666 9.15725 10.506C8.63145 11.2452 8.08231 11.9832 7.24693 11.9832C6.41155 11.9832 6.19656 11.5092 5.23219 11.5092C4.29238 11.5092 3.95823 11.9988 3.1941 11.9988C2.42998 11.9988 1.89681 11.3148 1.28378 10.4748C0.57371 9.4884 0 7.956 0 6.5016C0 4.1688 1.55283 2.9316 3.08108 2.9316C3.89312 2.9316 4.57002 3.4524 5.07985 3.4524C5.56511 3.4524 6.32187 2.9004 7.2457 2.9004C7.59582 2.9004 8.85381 2.9316 9.68182 4.0908ZM6.80713 1.9128C7.18919 1.47 7.45946 0.8556 7.45946 0.2412C7.45946 0.156 7.45209 0.0696 7.43612 0C6.8145 0.0228 6.07494 0.4044 5.62899 0.9096C5.27887 1.2984 4.95209 1.9128 4.95209 2.5356C4.95209 2.6292 4.96806 2.7228 4.97543 2.7528C5.01474 2.76 5.07862 2.7684 5.14251 2.7684C5.70025 2.7684 6.40172 2.4036 6.80713 1.9128Z" fill="black"/>
</g>
<path d="M17.207 3.76367L14.7754 11H13.0703L16.2578 2.46875H17.3477L17.207 3.76367ZM19.2402 11L16.7969 3.76367L16.6504 2.46875H17.7461L20.9512 11H19.2402ZM19.1289 7.83008V9.10156H14.5527V7.83008H19.1289ZM23.1074 5.87891V13.4375H21.5547V4.66016H22.9902L23.1074 5.87891ZM27.1797 7.76562V7.88867C27.1797 8.34961 27.125 8.77734 27.0156 9.17188C26.9102 9.5625 26.7539 9.9043 26.5469 10.1973C26.3398 10.4863 26.082 10.7129 25.7734 10.877C25.4688 11.0371 25.1172 11.1172 24.7188 11.1172C24.3281 11.1172 23.9883 11.043 23.6992 10.8945C23.4102 10.7422 23.166 10.5273 22.9668 10.25C22.7676 9.97266 22.6074 9.65039 22.4863 9.2832C22.3691 8.91211 22.2812 8.50781 22.2227 8.07031V7.67773C22.2812 7.21289 22.3691 6.79102 22.4863 6.41211C22.6074 6.0293 22.7676 5.69922 22.9668 5.42188C23.166 5.14062 23.4082 4.92383 23.6934 4.77148C23.9824 4.61914 24.3203 4.54297 24.707 4.54297C25.1094 4.54297 25.4629 4.61914 25.7676 4.77148C26.0762 4.92383 26.3359 5.14258 26.5469 5.42773C26.7578 5.71289 26.916 6.05273 27.0215 6.44727C27.127 6.8418 27.1797 7.28125 27.1797 7.76562ZM25.627 7.88867V7.76562C25.627 7.48438 25.6016 7.22461 25.5508 6.98633C25.5 6.74414 25.4219 6.5332 25.3164 6.35352C25.2109 6.16992 25.0742 6.02734 24.9062 5.92578C24.7383 5.82422 24.5352 5.77344 24.2969 5.77344C24.0586 5.77344 23.8535 5.8125 23.6816 5.89062C23.5098 5.96875 23.3691 6.08008 23.2598 6.22461C23.1504 6.36914 23.0645 6.54102 23.002 6.74023C22.9434 6.93555 22.9043 7.15234 22.8848 7.39062V8.36328C22.9199 8.65234 22.9883 8.91211 23.0898 9.14258C23.1914 9.37305 23.3398 9.55664 23.5352 9.69336C23.7344 9.83008 23.9922 9.89844 24.3086 9.89844C24.5469 9.89844 24.75 9.8457 24.918 9.74023C25.0859 9.63477 25.2227 9.49023 25.3281 9.30664C25.4336 9.11914 25.5098 8.9043 25.5566 8.66211C25.6035 8.41992 25.627 8.16211 25.627 7.88867ZM29.8574 5.87891V13.4375H28.3047V4.66016H29.7402L29.8574 5.87891ZM33.9297 7.76562V7.88867C33.9297 8.34961 33.875 8.77734 33.7656 9.17188C33.6602 9.5625 33.5039 9.9043 33.2969 10.1973C33.0898 10.4863 32.832 10.7129 32.5234 10.877C32.2188 11.0371 31.8672 11.1172 31.4688 11.1172C31.0781 11.1172 30.7383 11.043 30.4492 10.8945C30.1602 10.7422 29.916 10.5273 29.7168 10.25C29.5176 9.97266 29.3574 9.65039 29.2363 9.2832C29.1191 8.91211 29.0312 8.50781 28.9727 8.07031V7.67773C29.0312 7.21289 29.1191 6.79102 29.2363 6.41211C29.3574 6.0293 29.5176 5.69922 29.7168 5.42188C29.916 5.14062 30.1582 4.92383 30.4434 4.77148C30.7324 4.61914 31.0703 4.54297 31.457 4.54297C31.8594 4.54297 32.2129 4.61914 32.5176 4.77148C32.8262 4.92383 33.0859 5.14258 33.2969 5.42773C33.5078 5.71289 33.666 6.05273 33.7715 6.44727C33.877 6.8418 33.9297 7.28125 33.9297 7.76562ZM32.377 7.88867V7.76562C32.377 7.48438 32.3516 7.22461 32.3008 6.98633C32.25 6.74414 32.1719 6.5332 32.0664 6.35352C31.9609 6.16992 31.8242 6.02734 31.6562 5.92578C31.4883 5.82422 31.2852 5.77344 31.0469 5.77344C30.8086 5.77344 30.6035 5.8125 30.4316 5.89062C30.2598 5.96875 30.1191 6.08008 30.0098 6.22461C29.9004 6.36914 29.8145 6.54102 29.752 6.74023C29.6934 6.93555 29.6543 7.15234 29.6348 7.39062V8.36328C29.6699 8.65234 29.7383 8.91211 29.8398 9.14258C29.9414 9.37305 30.0898 9.55664 30.2852 9.69336C30.4844 9.83008 30.7422 9.89844 31.0586 9.89844C31.2969 9.89844 31.5 9.8457 31.668 9.74023C31.8359 9.63477 31.9727 9.49023 32.0781 9.30664C32.1836 9.11914 32.2598 8.9043 32.3066 8.66211C32.3535 8.41992 32.377 8.16211 32.377 7.88867ZM38.5469 9.26562C38.5469 9.13281 38.5117 9.01367 38.4414 8.9082C38.3711 8.80273 38.2383 8.70703 38.043 8.62109C37.8516 8.53125 37.5703 8.44727 37.1992 8.36914C36.8711 8.29883 36.5684 8.21094 36.291 8.10547C36.0137 8 35.7754 7.87305 35.5762 7.72461C35.377 7.57227 35.2207 7.39453 35.1074 7.19141C34.998 6.98438 34.9434 6.74609 34.9434 6.47656C34.9434 6.21484 35 5.96875 35.1133 5.73828C35.2266 5.50391 35.3906 5.29883 35.6055 5.12305C35.8203 4.94336 36.082 4.80273 36.3906 4.70117C36.6992 4.5957 37.0469 4.54297 37.4336 4.54297C37.9727 4.54297 38.4355 4.63086 38.8223 4.80664C39.2129 4.98242 39.5117 5.22461 39.7188 5.5332C39.9258 5.83789 40.0293 6.18164 40.0293 6.56445H38.4824C38.4824 6.39648 38.4434 6.24414 38.3652 6.10742C38.291 5.9707 38.1758 5.86133 38.0195 5.7793C37.8633 5.69336 37.666 5.65039 37.4277 5.65039C37.2129 5.65039 37.0312 5.68555 36.8828 5.75586C36.7383 5.82617 36.6289 5.91797 36.5547 6.03125C36.4805 6.14453 36.4434 6.26953 36.4434 6.40625C36.4434 6.50781 36.4629 6.59961 36.502 6.68164C36.5449 6.75977 36.6133 6.83203 36.707 6.89844C36.8008 6.96484 36.9277 7.02539 37.0879 7.08008C37.252 7.13477 37.4531 7.1875 37.6914 7.23828C38.1641 7.33203 38.5762 7.45703 38.9277 7.61328C39.2832 7.76562 39.5605 7.96875 39.7598 8.22266C39.959 8.47656 40.0586 8.80078 40.0586 9.19531C40.0586 9.47656 39.998 9.73438 39.877 9.96875C39.7559 10.1992 39.5801 10.4004 39.3496 10.5723C39.1191 10.7441 38.8438 10.8789 38.5234 10.9766C38.2031 11.0703 37.8418 11.1172 37.4395 11.1172C36.8574 11.1172 36.3652 11.0137 35.9629 10.8066C35.5605 10.5957 35.2559 10.3301 35.0488 10.0098C34.8418 9.68555 34.7383 9.34961 34.7383 9.00195H36.2207C36.2324 9.24805 36.2988 9.44531 36.4199 9.59375C36.541 9.74219 36.6934 9.84961 36.877 9.91602C37.0645 9.97852 37.2617 10.0098 37.4688 10.0098C37.7031 10.0098 37.9004 9.97852 38.0605 9.91602C38.2207 9.84961 38.3418 9.76172 38.4238 9.65234C38.5059 9.53906 38.5469 9.41016 38.5469 9.26562ZM44.2363 4.66016V5.77344H40.6035V4.66016H44.2363ZM41.5762 3.10156H43.1289V9.17188C43.1289 9.35938 43.1543 9.50391 43.2051 9.60547C43.2559 9.70703 43.332 9.77539 43.4336 9.81055C43.5352 9.8457 43.6562 9.86328 43.7969 9.86328C43.8984 9.86328 43.9922 9.85742 44.0781 9.8457C44.1641 9.83398 44.2363 9.82227 44.2949 9.81055L44.3008 10.9707C44.1719 11.0137 44.0254 11.0488 43.8613 11.0762C43.7012 11.1035 43.5195 11.1172 43.3164 11.1172C42.9688 11.1172 42.6641 11.0586 42.4023 10.9414C42.1406 10.8203 41.9375 10.627 41.793 10.3613C41.6484 10.0918 41.5762 9.73633 41.5762 9.29492V3.10156ZM44.8398 7.89453V7.77148C44.8398 7.30664 44.9062 6.87891 45.0391 6.48828C45.1719 6.09375 45.3652 5.75195 45.6191 5.46289C45.873 5.17383 46.1836 4.94922 46.5508 4.78906C46.918 4.625 47.3359 4.54297 47.8047 4.54297C48.2812 4.54297 48.7031 4.625 49.0703 4.78906C49.4414 4.94922 49.7539 5.17383 50.0078 5.46289C50.2617 5.75195 50.4551 6.09375 50.5879 6.48828C50.7207 6.87891 50.7871 7.30664 50.7871 7.77148V7.89453C50.7871 8.35547 50.7207 8.7832 50.5879 9.17773C50.4551 9.56836 50.2617 9.91016 50.0078 10.2031C49.7539 10.4922 49.4434 10.7168 49.0762 10.877C48.709 11.0371 48.2891 11.1172 47.8164 11.1172C47.3477 11.1172 46.9277 11.0371 46.5566 10.877C46.1855 10.7168 45.873 10.4922 45.6191 10.2031C45.3652 9.91016 45.1719 9.56836 45.0391 9.17773C44.9062 8.7832 44.8398 8.35547 44.8398 7.89453ZM46.3867 7.77148V7.89453C46.3867 8.17188 46.4141 8.43164 46.4688 8.67383C46.5234 8.91602 46.6074 9.12891 46.7207 9.3125C46.834 9.49609 46.9805 9.64062 47.1602 9.74609C47.3438 9.84766 47.5625 9.89844 47.8164 9.89844C48.0664 9.89844 48.2812 9.84766 48.4609 9.74609C48.6406 9.64062 48.7871 9.49609 48.9004 9.3125C49.0176 9.12891 49.1035 8.91602 49.1582 8.67383C49.2129 8.43164 49.2402 8.17188 49.2402 7.89453V7.77148C49.2402 7.49805 49.2129 7.24219 49.1582 7.00391C49.1035 6.76172 49.0176 6.54883 48.9004 6.36523C48.7871 6.17773 48.6387 6.03125 48.4551 5.92578C48.2754 5.81641 48.0586 5.76172 47.8047 5.76172C47.5547 5.76172 47.3398 5.81641 47.1602 5.92578C46.9805 6.03125 46.834 6.17773 46.7207 6.36523C46.6074 6.54883 46.5234 6.76172 46.4688 7.00391C46.4141 7.24219 46.3867 7.49805 46.3867 7.77148ZM53.459 5.95508V11H51.9121V4.66016H53.377L53.459 5.95508ZM55.3867 4.61914L55.3633 6.06055C55.2773 6.04492 55.1797 6.0332 55.0703 6.02539C54.9648 6.01758 54.8652 6.01367 54.7715 6.01367C54.5332 6.01367 54.3242 6.04688 54.1445 6.11328C53.9648 6.17578 53.8145 6.26758 53.6934 6.38867C53.5762 6.50977 53.4863 6.6582 53.4238 6.83398C53.3613 7.00586 53.3262 7.20117 53.3184 7.41992L52.9844 7.37891C52.9844 6.97656 53.0254 6.60352 53.1074 6.25977C53.1895 5.91602 53.3086 5.61523 53.4648 5.35742C53.6211 5.09961 53.8164 4.90039 54.0508 4.75977C54.2891 4.61523 54.5625 4.54297 54.8711 4.54297C54.957 4.54297 55.0488 4.55078 55.1465 4.56641C55.248 4.57812 55.3281 4.5957 55.3867 4.61914ZM58.9668 11.1172C58.4863 11.1172 58.0547 11.0391 57.6719 10.8828C57.2891 10.7266 56.9629 10.5098 56.6934 10.2324C56.4277 9.95117 56.2227 9.625 56.0781 9.25391C55.9375 8.87891 55.8672 8.47656 55.8672 8.04688V7.8125C55.8672 7.32422 55.9375 6.88086 56.0781 6.48242C56.2188 6.08008 56.418 5.73438 56.6758 5.44531C56.9336 5.15625 57.2422 4.93359 57.6016 4.77734C57.9609 4.62109 58.3574 4.54297 58.791 4.54297C59.2402 4.54297 59.6367 4.61914 59.9805 4.77148C60.3242 4.91992 60.6113 5.13086 60.8418 5.4043C61.0723 5.67773 61.2461 6.00586 61.3633 6.38867C61.4805 6.76758 61.5391 7.1875 61.5391 7.64844V8.29883H56.5703V7.23242H60.0156V7.11523C60.0078 6.86914 59.9609 6.64453 59.875 6.44141C59.7891 6.23438 59.6562 6.07031 59.4766 5.94922C59.2969 5.82422 59.0645 5.76172 58.7793 5.76172C58.5488 5.76172 58.3477 5.8125 58.1758 5.91406C58.0078 6.01172 57.8672 6.15234 57.7539 6.33594C57.6445 6.51562 57.5625 6.73047 57.5078 6.98047C57.4531 7.23047 57.4258 7.50781 57.4258 7.8125V8.04688C57.4258 8.3125 57.4609 8.55859 57.5312 8.78516C57.6055 9.01172 57.7129 9.20898 57.8535 9.37695C57.998 9.54102 58.1699 9.66992 58.3691 9.76367C58.5723 9.85352 58.8027 9.89844 59.0605 9.89844C59.3848 9.89844 59.6777 9.83594 59.9395 9.71094C60.2051 9.58203 60.4355 9.39258 60.6309 9.14258L61.4102 9.95117C61.2773 10.1465 61.0977 10.334 60.8711 10.5137C60.6484 10.6934 60.3789 10.8398 60.0625 10.9531C59.7461 11.0625 59.3809 11.1172 58.9668 11.1172Z" fill="black"/>
<path d="M5.66756 23.6018C5.86617 23.312 6.29383 23.312 6.49243 23.6018L8.12372 25.982C8.18874 26.0769 8.28447 26.1465 8.39478 26.179L11.1626 26.9949C11.4996 27.0942 11.6318 27.501 11.4175 27.7794L9.65788 30.0664C9.58775 30.1575 9.55118 30.2701 9.55434 30.385L9.63368 33.2695C9.64333 33.6207 9.29735 33.8721 8.96634 33.7544L6.24752 32.7876C6.13916 32.749 6.02083 32.749 5.91248 32.7876L3.19366 33.7544C2.86265 33.8721 2.51666 33.6207 2.52632 33.2695L2.60566 30.385C2.60882 30.2701 2.57225 30.1575 2.50212 30.0664L0.742466 27.7794C0.528235 27.501 0.660391 27.0942 0.997365 26.9949L3.76521 26.179C3.87553 26.1465 3.97126 26.0769 4.03627 25.982L5.66756 23.6018Z" fill="#FFB802"/>
<path d="M19.8238 23.6018C20.0224 23.312 20.4501 23.312 20.6487 23.6018L22.28 25.982C22.345 26.0769 22.4407 26.1465 22.551 26.179L25.3189 26.9949C25.6559 27.0942 25.788 27.501 25.5738 27.7794L23.8141 30.0664C23.744 30.1575 23.7074 30.2701 23.7106 30.385L23.7899 33.2695C23.7996 33.6207 23.4536 33.8721 23.1226 33.7544L20.4038 32.7876C20.2954 32.749 20.1771 32.749 20.0687 32.7876L17.3499 33.7544C17.0189 33.8721 16.6729 33.6207 16.6826 33.2695L16.7619 30.385C16.7651 30.2701 16.7285 30.1575 16.6584 30.0664L14.8987 27.7794C14.6845 27.501 14.8166 27.0942 15.1536 26.9949L17.9215 26.179C18.0318 26.1465 18.1275 26.0769 18.1925 25.982L19.8238 23.6018Z" fill="#FFB802"/>
<path d="M33.9801 23.6018C34.1787 23.312 34.6063 23.312 34.8049 23.6018L36.4362 25.982C36.5012 26.0769 36.597 26.1465 36.7073 26.179L39.4751 26.9949C39.8121 27.0942 39.9443 27.501 39.73 27.7794L37.9704 30.0664C37.9002 30.1575 37.8637 30.2701 37.8668 30.385L37.9462 33.2695C37.9558 33.6207 37.6098 33.8721 37.2788 33.7544L34.56 32.7876C34.4517 32.749 34.3333 32.749 34.225 32.7876L31.5062 33.7544C31.1752 33.8721 30.8292 33.6207 30.8388 33.2695L30.9182 30.385C30.9213 30.2701 30.8848 30.1575 30.8146 30.0664L29.055 27.7794C28.8407 27.501 28.9729 27.0942 29.3099 26.9949L32.0777 26.179C32.188 26.1465 32.2838 26.0769 32.3488 25.982L33.9801 23.6018Z" fill="#FFB802"/>
<path d="M48.1363 23.6018C48.3349 23.312 48.7626 23.312 48.9612 23.6018L50.5925 25.982C50.6575 26.0769 50.7532 26.1465 50.8635 26.179L53.6314 26.9949C53.9684 27.0942 54.1005 27.501 53.8863 27.7794L52.1266 30.0664C52.0565 30.1575 52.0199 30.2701 52.0231 30.385L52.1024 33.2695C52.1121 33.6207 51.7661 33.8721 51.4351 33.7544L48.7163 32.7876C48.6079 32.749 48.4896 32.749 48.3812 32.7876L45.6624 33.7544C45.3314 33.8721 44.9854 33.6207 44.9951 33.2695L45.0744 30.385C45.0776 30.2701 45.041 30.1575 44.9709 30.0664L43.2112 27.7794C42.997 27.501 43.1291 27.0942 43.4661 26.9949L46.234 26.179C46.3443 26.1465 46.44 26.0769 46.505 25.982L48.1363 23.6018Z" fill="#FFB802"/>
<path opacity="0.8" d="M62.2926 23.6018C62.4912 23.312 62.9188 23.312 63.1174 23.6018L64.7487 25.982C64.8137 26.0769 64.9095 26.1465 65.0198 26.179L67.7876 26.9949C68.1246 27.0942 68.2568 27.501 68.0425 27.7794L66.2829 30.0664C66.2127 30.1575 66.1762 30.2701 66.1793 30.385L66.2587 33.2695C66.2683 33.6207 65.9223 33.8721 65.5913 33.7544L62.8725 32.7876C62.7642 32.749 62.6458 32.749 62.5375 32.7876L59.8187 33.7544C59.4877 33.8721 59.1417 33.6207 59.1513 33.2695L59.2307 30.385C59.2338 30.2701 59.1973 30.1575 59.1271 30.0664L57.3675 27.7794C57.1532 27.501 57.2854 27.0942 57.6224 26.9949L60.3902 26.179C60.5005 26.1465 60.5963 26.0769 60.6613 25.982L62.2926 23.6018Z" fill="#FFB802"/>
<defs>
<clipPath id="clip0_152_169">
<rect width="10" height="12" fill="white"/>
</clipPath>
</defs>
</svg>
