<svg width="24" height="24" viewBox="0 0 24 24" fill="none" xmlns="http://www.w3.org/2000/svg">
<g clip-path="url(#clip0_1910_2391)">
<path d="M22.9938 22.5873L20.4458 8.37145C20.3433 7.79915 19.8453 7.38255 19.2638 7.38255H15.0262C15.8207 6.59994 16.3145 5.51273 16.3145 4.31201C16.3145 1.93434 14.3801 0 12.0025 0C9.62479 0 7.69037 1.93434 7.69037 4.31201C7.69037 5.51273 8.18414 6.59994 8.97868 7.38255H4.74104C4.15953 7.38255 3.66167 7.79915 3.55905 8.37145L1.01102 22.5873C0.948337 22.9373 1.04384 23.2971 1.27207 23.5697C1.50023 23.8424 1.83749 23.9999 2.19301 23.9999H21.8118C22.1674 23.9999 22.5046 23.8424 22.7328 23.5697C22.9609 23.2971 23.0565 22.9373 22.9938 22.5873ZM12.0025 2.40161C13.0559 2.40161 13.9129 3.25858 13.9129 4.31201C13.9129 5.36543 13.0559 6.22249 12.0025 6.22249C10.949 6.22249 10.092 5.36543 10.092 4.31201C10.092 3.25858 10.949 2.40161 12.0025 2.40161ZM11.6887 18.5825C11.6261 18.6978 11.5054 18.7696 11.3743 18.7696H10.8078C10.6809 18.7696 10.5633 18.7023 10.4991 18.5927L9.09724 16.1995L8.20072 17.1147V18.2168C8.20072 18.5221 7.95319 18.7696 7.64787 18.7696C7.34254 18.7696 7.09502 18.5221 7.09502 18.2168V13.8461C7.09502 13.5408 7.34254 13.2932 7.64787 13.2932C7.95319 13.2932 8.20072 13.5408 8.20072 13.8461V15.725L10.3285 13.4089C10.3962 13.3352 10.4918 13.2932 10.5918 13.2932H11.078C11.2216 13.2932 11.3512 13.379 11.4073 13.5112C11.4634 13.6434 11.435 13.7963 11.3352 13.8995L9.85935 15.4261L11.6742 18.2168C11.7457 18.3269 11.7513 18.4672 11.6887 18.5825ZM17.1357 17.8532C17.1357 17.962 17.0861 18.0652 17.0012 18.133C16.7805 18.3091 16.4899 18.4671 16.1291 18.607C15.6895 18.7776 15.2443 18.8629 14.7936 18.8629C14.2207 18.8629 13.7216 18.7428 13.2956 18.5024C12.8698 18.2622 12.5497 17.9185 12.3356 17.4714C12.1213 17.0244 12.0143 16.5382 12.0143 16.0126C12.0143 15.4424 12.1338 14.9355 12.373 14.4923C12.612 14.049 12.9619 13.7092 13.4227 13.4725C13.7737 13.2907 14.2108 13.1997 14.7338 13.1997C15.4137 13.1997 15.9447 13.3424 16.327 13.6275C16.4927 13.7511 16.6327 13.8951 16.7471 14.0595C16.8564 14.2166 16.8786 14.4185 16.8061 14.5955C16.7336 14.7727 16.5762 14.9012 16.388 14.9364L16.3868 14.9366C16.1663 14.9779 15.9428 14.8802 15.8234 14.6903C15.7471 14.5688 15.6496 14.4648 15.5314 14.3783C15.3184 14.2226 15.0525 14.1448 14.7338 14.1448C14.2506 14.1448 13.8664 14.2981 13.5814 14.6043C13.2963 14.9107 13.1537 15.3652 13.1537 15.9678C13.1537 16.6179 13.2981 17.1053 13.587 17.4303C13.8759 17.7553 14.2544 17.9178 14.7227 17.9178C14.9542 17.9178 15.1864 17.8724 15.4193 17.7814C15.652 17.6905 15.8519 17.5803 16.0188 17.4509V16.7559H15.2139C14.9591 16.7559 14.7526 16.5494 14.7526 16.2947C14.7526 16.0399 14.9592 15.8334 15.2139 15.8334H16.7781C16.9756 15.8334 17.1357 15.9936 17.1357 16.1911V17.8532Z" fill="#13D16A"/>
</g>
<defs>
<clipPath id="clip0_1910_2391">
<rect width="24" height="24" fill="white"/>
</clipPath>
</defs>
</svg>
