<svg width="40" height="40" viewBox="0 0 40 40" fill="none" xmlns="http://www.w3.org/2000/svg">
<g clip-path="url(#clip0_3616_4218)">
<path d="M40 20C40 8.9543 31.0457 0 20 0C8.9543 0 0 8.9543 0 20C0 31.0457 8.9543 40 20 40C31.0457 40 40 31.0457 40 20Z" fill="#F6F7F9"/>
<path fill-rule="evenodd" clip-rule="evenodd" d="M21.4572 8.86424C21.5382 8.85478 21.62 8.85478 21.701 8.86424C21.8015 8.87597 21.9512 8.92233 22.2495 9.15901C22.5632 9.4079 22.9395 9.78221 23.5149 10.3576L29.6424 16.4851C30.2178 17.0605 30.5921 17.4368 30.841 17.7505C31.0777 18.0488 31.124 18.1985 31.1358 18.299C31.1452 18.38 31.1452 18.4618 31.1358 18.5428C31.124 18.6433 31.0777 18.793 30.841 19.0913C30.5921 19.405 30.2178 19.7813 29.6424 20.3567C29.067 20.9321 28.6907 21.3064 28.377 21.5553C28.0787 21.792 27.929 21.8383 27.8285 21.85C27.7475 21.8595 27.6657 21.8595 27.5847 21.85C27.4842 21.8383 27.3345 21.792 27.0362 21.5553C26.7225 21.3064 26.3462 20.9321 25.7708 20.3567L19.6433 14.2292C19.0679 13.6538 18.6936 13.2775 18.4447 12.9638C18.208 12.6655 18.1617 12.5158 18.15 12.4153C18.1405 12.3343 18.1405 12.2525 18.15 12.1715C18.1617 12.071 18.208 11.9213 18.4447 11.623C18.6936 11.3093 19.0679 10.933 19.6433 10.3576C20.2187 9.78221 20.595 9.4079 20.9087 9.15901C21.207 8.92233 21.3567 8.87597 21.4572 8.86424ZM21.9165 7.01964C21.6923 6.99345 21.4659 6.99345 21.2417 7.01964C20.6586 7.08774 20.1867 7.36117 19.7544 7.70418C19.3469 8.02747 18.8952 8.4792 18.3671 9.00741L18.3301 9.04438L18.2932 9.08129C17.765 9.60948 17.3132 10.0612 16.9899 10.4687C16.6469 10.901 16.3735 11.3729 16.3053 11.956C16.2792 12.1802 16.2792 12.4066 16.3053 12.6308C16.3735 13.2139 16.6469 13.6858 16.9899 14.1181C17.3132 14.5256 17.7649 14.9773 18.2932 15.5055L18.6352 15.8475L15.8475 18.6352L15.5055 18.2932C14.9773 17.7649 14.5256 17.3132 14.1181 16.9899C13.6858 16.6469 13.2139 16.3735 12.6308 16.3053C12.4066 16.2792 12.1802 16.2792 11.956 16.3053C11.3729 16.3735 10.901 16.6469 10.4687 16.9899C10.0612 17.3132 9.60948 17.765 9.08129 18.2932L9.04438 18.3301L9.00747 18.367C8.47924 18.8952 8.02748 19.3469 7.70418 19.7544C7.36117 20.1867 7.08774 20.6586 7.01964 21.2417C6.99345 21.4659 6.99345 21.6923 7.01964 21.9165C7.08774 22.4996 7.36117 22.9715 7.70418 23.4038C8.02748 23.8113 8.47924 24.263 9.00747 24.7912L15.2088 30.9925C15.737 31.5208 16.1887 31.9725 16.5962 32.2958C17.0285 32.6388 17.5004 32.9123 18.0835 32.9804C18.3077 33.0065 18.5341 33.0065 18.7583 32.9804C19.3414 32.9123 19.8133 32.6388 20.2456 32.2958C20.6531 31.9725 21.1048 31.5208 21.633 30.9925L21.7068 30.9187C22.2351 30.3905 22.6868 29.9388 23.0101 29.5313C23.3531 29.099 23.6265 28.6271 23.6947 28.044C23.7208 27.8198 23.7208 27.5934 23.6947 27.3692C23.6265 26.7861 23.3531 26.3142 23.0101 25.8819C22.6868 25.4745 22.2351 25.0228 21.707 24.4947L20.9077 23.6954L23.6954 20.9077L24.4945 21.7068C25.0227 22.2351 25.4744 22.6868 25.8819 23.0101C26.3142 23.3531 26.7861 23.6265 27.3692 23.6947C27.5934 23.7208 27.8198 23.7208 28.044 23.6947C28.6271 23.6265 29.099 23.3531 29.5313 23.0101C29.9388 22.6868 30.3905 22.2351 30.9187 21.7068L30.9925 21.633C31.5208 21.1048 31.9725 20.6531 32.2958 20.2456C32.6388 19.8133 32.9123 19.3414 32.9804 18.7583C33.0065 18.5341 33.0065 18.3077 32.9804 18.0835C32.9123 17.5004 32.6388 17.0285 32.2958 16.5962C31.9726 16.1888 31.5209 15.7371 30.9927 15.209L24.7912 9.00747C24.263 8.47925 23.8113 8.02748 23.4038 7.70418C22.9715 7.36117 22.4996 7.08774 21.9165 7.01964ZM22.3822 19.5945L19.9484 17.1607L17.1607 19.9484L19.5945 22.3822L22.3822 19.5945ZM12.4153 18.15C12.3343 18.1405 12.2525 18.1405 12.1715 18.15C12.071 18.1617 11.9213 18.208 11.623 18.4447C11.3093 18.6936 10.933 19.0679 10.3576 19.6433C9.78221 20.2187 9.4079 20.595 9.15901 20.9087C8.92233 21.207 8.87597 21.3567 8.86424 21.4572C8.85478 21.5382 8.85478 21.62 8.86424 21.701C8.87597 21.8015 8.92233 21.9512 9.15902 22.2495C9.4079 22.5632 9.78221 22.9395 10.3576 23.5149L16.4851 29.6424C17.0605 30.2178 17.4368 30.5921 17.7505 30.841C18.0488 31.0777 18.1985 31.124 18.299 31.1358C18.38 31.1452 18.4618 31.1452 18.5428 31.1358C18.6433 31.124 18.793 31.0777 19.0913 30.841C19.405 30.5921 19.7813 30.2178 20.3567 29.6424C20.9321 29.067 21.3064 28.6907 21.5553 28.377C21.792 28.0787 21.8383 27.929 21.85 27.8285C21.8595 27.7475 21.8595 27.6657 21.85 27.5847C21.8383 27.4842 21.792 27.3345 21.5553 27.0362C21.3064 26.7225 20.9321 26.3462 20.3567 25.7708L14.2292 19.6433C13.6538 19.0679 13.2775 18.6936 12.9638 18.4447C12.6655 18.208 12.5158 18.1617 12.4153 18.15ZM26.609 7.87319C26.9716 7.51056 27.5596 7.51056 27.9222 7.87319L31.6692 11.6202C32.0318 11.9828 32.0318 12.5707 31.6692 12.9334C31.3066 13.296 30.7186 13.296 30.356 12.9334L26.609 9.18638C26.2464 8.82375 26.2464 8.23582 26.609 7.87319ZM9.18584 26.6078C8.82321 26.2452 8.23528 26.2452 7.87265 26.6078C7.51002 26.9705 7.51002 27.5584 7.87265 27.921L11.6196 31.668C11.9823 32.0307 12.5702 32.0307 12.9328 31.668C13.2955 31.3054 13.2955 30.7175 12.9328 30.3548L9.18584 26.6078Z" fill="#171717" fill-opacity="0.72"/>
</g>
<defs>
<clipPath id="clip0_3616_4218">
<rect width="40" height="40" fill="white"/>
</clipPath>
</defs>
</svg>
