<svg width="40" height="40" viewBox="0 0 40 40" fill="none" xmlns="http://www.w3.org/2000/svg">
<g clip-path="url(#clip0_3616_4213)">
<path d="M40 20C40 8.9543 31.0457 0 20 0C8.9543 0 0 8.9543 0 20C0 31.0457 8.9543 40 20 40C31.0457 40 40 31.0457 40 20Z" fill="#F6F7F9"/>
<path fill-rule="evenodd" clip-rule="evenodd" d="M19.4468 8.24762C19.7394 7.11306 21.0829 6.6297 22.0313 7.31781L29.7594 12.9251C30.4089 13.3964 30.8684 14.0844 31.0548 14.8649C31.456 16.5445 30.8739 18.3066 29.551 19.4166L14.7969 31.7967C13.186 33.1485 10.9144 33.3833 9.06101 32.3896C8.17369 31.9138 7.77496 30.8552 8.12795 29.9123L13.8154 14.7199C14.2004 13.6915 15.1086 12.9493 16.1931 12.7768L18.0945 12.4745C18.2605 12.4481 18.395 12.3258 18.4369 12.1631L19.4468 8.24762ZM21.2194 9.11807L20.3095 12.646C20.0753 13.5543 19.3246 14.237 18.3983 14.3843L16.4969 14.6867C16.0999 14.7499 15.7675 15.0215 15.6266 15.398L9.93908 30.5903C9.92556 30.6264 9.94084 30.667 9.97483 30.6852C11.1313 31.3052 12.5487 31.1587 13.5539 30.3153L28.308 17.9352C29.0696 17.296 29.4049 16.2814 29.1738 15.3143C29.0947 14.9828 28.8995 14.6905 28.6236 14.4904L21.2194 9.11807Z" fill="#171717" fill-opacity="0.72"/>
<path d="M21.0039 30.4971C21.0039 29.963 21.4368 29.5301 21.9709 29.5301H29.8389C30.3729 29.5301 30.8058 29.963 30.8058 30.4971C30.8058 31.0311 30.3729 31.464 29.8389 31.464H21.9709C21.4368 31.464 21.0039 31.0311 21.0039 30.4971Z" fill="#171717" fill-opacity="0.72"/>
<path d="M25.4298 25.8699C24.8958 25.8699 24.4629 26.3029 24.4629 26.8369C24.4629 27.3709 24.8958 27.8038 25.4298 27.8038H29.2956C29.8296 27.8038 30.2625 27.3709 30.2625 26.8369C30.2625 26.3029 29.8296 25.8699 29.2956 25.8699H25.4298Z" fill="#171717" fill-opacity="0.72"/>
</g>
<defs>
<clipPath id="clip0_3616_4213">
<rect width="40" height="40" fill="white"/>
</clipPath>
</defs>
</svg>
