<svg width="110" height="22" viewBox="0 0 110 22" fill="none" xmlns="http://www.w3.org/2000/svg">
<path d="M26.1704 0.584167C26.2169 0.3221 26.4447 0.131149 26.7109 0.131149H31.8028C32.1443 0.131149 32.4029 0.439651 32.3432 0.775892L28.7208 21.1984C28.6743 21.4605 28.4465 21.6515 28.1803 21.6515H23.0884C22.7469 21.6515 22.4883 21.343 22.548 21.0067L26.1704 0.584167Z" fill="#11E372"/>
<path d="M50.1071 0.131149C50.4485 0.131149 50.7071 0.43948 50.6476 0.77565L49.7867 5.64209C49.7403 5.90427 49.5125 6.09535 49.2462 6.09535H45.0459C44.7798 6.09535 44.552 6.28625 44.5055 6.54827L41.9043 21.1985C41.8577 21.4606 41.63 21.6515 41.3638 21.6515H36.2719C35.9304 21.6515 35.6718 21.3429 35.7315 21.0066L38.2646 6.74018C38.3243 6.40391 38.0657 6.09535 37.7241 6.09535H33.9129C33.5715 6.09535 33.313 5.78702 33.3725 5.45085L34.2334 0.58441C34.2798 0.322231 34.5076 0.131149 34.7739 0.131149H50.1071Z" fill="#11E372"/>
<rect x="2.63281" y="0.0608673" width="20.9479" height="6.10481" rx="3.05241" fill="#11E372"/>
<rect x="1.19531" y="7.72137" width="14.0052" height="6.10481" rx="3.05241" fill="#11E372"/>
<rect y="15.3825" width="6.22452" height="6.10481" rx="3.05241" fill="#11E372"/>
<path d="M65.5156 12.9729C65.8404 12.9729 66.0864 13.2664 66.0295 13.5863L65.222 18.1286C65.1777 18.3777 64.9611 18.5592 64.708 18.5592H63.411C63.1576 18.5592 62.9409 18.7411 62.8969 18.9905L62.4905 21.2935C62.4464 21.543 62.2297 21.7249 61.9764 21.7249H56.9536C56.629 21.7249 56.3831 21.4318 56.4395 21.1121L56.7819 19.172C56.8383 18.8523 56.5924 18.5592 56.2678 18.5592H48.3886C48.0638 18.5592 47.8178 18.2657 47.8747 17.9458L48.741 13.0728C48.7527 13.0068 48.7771 12.9437 48.8126 12.8869L56.7366 0.244845C56.8321 0.092539 56.9992 6.10352e-05 57.1789 6.10352e-05H63.1083C63.5202 6.10352e-05 63.7698 0.454827 63.5487 0.802354L56.3143 12.1706C56.0932 12.5181 56.3428 12.9729 56.7548 12.9729H57.4439C57.6978 12.9729 57.9149 12.7902 57.9583 12.5401L58.3357 10.3642C58.3791 10.1141 58.5962 9.93139 58.85 9.93139H63.8733C64.1973 9.93139 64.4431 10.2234 64.3877 10.5426L64.0721 12.3616C64.0168 12.6808 64.2625 12.9729 64.5865 12.9729H65.5156Z" fill="black"/>
<path d="M92.1513 6.10352e-05C92.4757 6.10352e-05 92.7216 0.292887 92.6654 0.612434L89.0315 21.2932C88.9877 21.5428 88.7708 21.7249 88.5174 21.7249H83.37C83.0457 21.7249 82.7998 21.4323 82.8558 21.1128L84.2089 13.3839C84.3033 12.8448 83.6101 12.5423 83.279 12.978L78.6412 19.0829C78.5502 19.2027 78.4084 19.2731 78.2579 19.2731C78.0641 19.2731 77.8892 19.1569 77.8141 18.9783L75.09 12.5026C74.8879 12.0222 74.184 12.102 74.0946 12.6154L72.5823 21.2925C72.5387 21.5424 72.3217 21.7249 72.068 21.7249H66.9216C66.5971 21.7249 66.3513 21.432 66.4074 21.1125L70.0413 0.431747C70.0852 0.182117 70.302 6.10352e-05 70.5555 6.10352e-05H75.9594C76.1785 6.10352e-05 76.3743 0.136929 76.4496 0.34273L79.2522 8.00304C79.3946 8.39219 79.9118 8.4683 80.1602 8.13667L86.099 0.209105C86.1976 0.0775183 86.3524 6.10352e-05 86.5168 6.10352e-05H92.1513Z" fill="black"/>
<path d="M109.083 5.21688C109.039 5.46648 108.822 5.64851 108.569 5.64851H101.533C101.279 5.64851 101.062 5.83181 101.019 6.08252L100.794 7.39715C100.739 7.71601 100.985 8.0072 101.308 8.0072H107.205C107.529 8.0072 107.775 8.30075 107.719 8.6206L106.911 13.1629C106.867 13.4121 106.65 13.5936 106.397 13.5936H100.133C99.8803 13.5936 99.6639 13.7746 99.6192 14.0234L99.3721 15.4001C99.3147 15.7202 99.5607 16.0143 99.8859 16.0143H106.71C107.034 16.0143 107.28 16.3065 107.225 16.6258L106.413 21.2923C106.37 21.5423 106.153 21.7249 105.899 21.7249H92.6834C92.359 21.7249 92.1131 21.432 92.1693 21.1125L95.8032 0.431747C95.847 0.182117 96.0639 6.10352e-05 96.3173 6.10352e-05H109.378C109.703 6.10352e-05 109.949 0.292926 109.892 0.612489L109.083 5.21688Z" fill="black"/>
</svg>
