<svg width="40" height="40" viewBox="0 0 40 40" fill="none" xmlns="http://www.w3.org/2000/svg">
<g clip-path="url(#clip0_3616_4221)">
<path d="M40 20C40 8.9543 31.0457 0 20 0C8.9543 0 0 8.9543 0 20C0 31.0457 8.9543 40 20 40C31.0457 40 40 31.0457 40 20Z" fill="#F6F7F9"/>
<path fill-rule="evenodd" clip-rule="evenodd" d="M23.9079 7.59068C22.872 6.81865 21.6546 6.84622 20.7199 7.42531C19.8073 7.99065 19.2024 9.05 19.2024 10.2772V10.6924C19.2024 11.5109 19.0318 12.7098 18.6184 13.8568C18.2008 15.0156 17.5797 16.0011 16.7625 16.5484C16.6549 16.6204 16.584 16.626 16.5401 16.6226C16.4872 16.6185 16.4051 16.5943 16.3025 16.5144C16.084 16.344 15.8724 15.9921 15.8299 15.5645L15.7231 14.4898C15.6328 13.582 15.1329 12.8018 14.4085 12.3942C13.6564 11.971 12.7046 11.9826 11.9145 12.6038C10.0118 14.0996 8 16.7441 8 20.6693C8 25.4835 9.75095 28.6063 12.0381 30.5077C14.2876 32.378 16.9742 33 18.7947 33C18.9796 33 19.1728 32.995 19.3731 32.9844C19.5232 32.995 19.6661 33 19.8 33C20.3393 33 21.0258 32.9011 21.7247 32.6417C23.246 32.2832 24.8983 31.6264 26.3859 30.5443C28.9739 28.6617 31 25.5324 31 20.6693C31 14.4507 27.2208 10.0598 23.9079 7.59068ZM24.7817 29.3963C24.9603 29.2833 25.1367 29.1638 25.3101 29.0377C27.4243 27.4997 29.16 24.9279 29.16 20.6693C29.16 15.2742 25.8825 11.3709 22.8149 9.08466C22.4088 8.78199 22.0066 8.80721 21.6824 9.00809C21.3359 9.22271 21.0424 9.6705 21.0424 10.2772V10.6924C21.0424 11.7233 20.8356 13.1373 20.3476 14.4916C19.8637 15.8343 19.0592 17.2389 17.7798 18.0958C16.8664 18.7076 15.8788 18.5306 15.1779 17.9842C14.5182 17.4701 14.0867 16.6311 13.9991 15.7499L13.8923 14.6752C13.8583 14.3335 13.6788 14.1098 13.5126 14.0163C13.4318 13.9709 13.3575 13.9565 13.2939 13.9607C13.234 13.9645 13.1497 13.9868 13.0451 14.0689C11.4663 15.3101 9.84 17.4583 9.84 20.6693C9.84 24.9767 11.3806 27.5551 13.2079 29.0743C13.6083 29.4071 14.0264 29.6924 14.4508 29.9352C14.1662 29.3104 14 28.578 14 27.728C14 25.1681 15.6878 23.3699 17.1474 22.3594C17.8241 21.8909 18.6484 21.9034 19.2734 22.2638C19.8695 22.6075 20.2353 23.2305 20.2353 23.9171C20.2353 24.2046 20.2362 24.5316 20.277 24.8567L20.2829 24.9015C20.4961 24.5096 20.8478 24.1988 21.2689 24.0249C21.8269 23.7944 22.5384 23.8011 23.125 24.2213C24.0326 24.8716 25 26.0265 25 27.728C25 28.3436 24.9222 28.8985 24.7817 29.3963ZM21.1612 30.8666C20.4831 31.0179 19.8385 31.101 19.2656 31.1305C18.6803 31.0552 17.9768 30.8554 17.3804 30.4658C16.638 29.9808 16 29.1674 16 27.728C16 26.0265 17.0827 24.737 18.2351 23.9056L18.2353 23.9171V23.9301C18.2353 24.2091 18.2353 24.6293 18.2901 25.0663C18.3446 25.5001 18.4617 26.0329 18.7504 26.5021C18.9505 26.8271 19.2648 27.114 19.7058 27.2377C20.1421 27.3602 20.5568 27.282 20.8747 27.1389C21.4597 26.8756 21.8696 26.3414 22.0504 25.786C22.5504 26.1945 23 26.8259 23 27.728C23 29.2162 22.4175 30.0356 21.7935 30.5015C21.5922 30.6518 21.3772 30.772 21.1612 30.8666Z" fill="#171717" fill-opacity="0.72"/>
</g>
<defs>
<clipPath id="clip0_3616_4221">
<rect width="40" height="40" fill="white"/>
</clipPath>
</defs>
</svg>
