<svg width="12" height="12" viewBox="0 0 12 12" fill="none" xmlns="http://www.w3.org/2000/svg">
<path fill-rule="evenodd" clip-rule="evenodd" d="M1 2.5C1 2.10218 1.15804 1.72064 1.43934 1.43934C1.72064 1.15804 2.10218 1 2.5 1H9.5C9.89782 1 10.2794 1.15804 10.5607 1.43934C10.842 1.72064 11 2.10218 11 2.5V9.5C11 9.89782 10.842 10.2794 10.5607 10.5607C10.2794 10.842 9.89782 11 9.5 11H2.5C2.10218 11 1.72064 10.842 1.43934 10.5607C1.15804 10.2794 1 9.89782 1 9.5V2.5ZM2.5 2C2.36739 2 2.24021 2.05268 2.14645 2.14645C2.05268 2.24021 2 2.36739 2 2.5V9.5C2 9.63261 2.05268 9.75979 2.14645 9.85355C2.24021 9.94732 2.36739 10 2.5 10H9.5C9.63261 10 9.75979 9.94732 9.85355 9.85355C9.94732 9.75979 10 9.63261 10 9.5V2.5C10 2.36739 9.94732 2.24021 9.85355 2.14645C9.75979 2.05268 9.63261 2 9.5 2H2.5ZM3.3295 2.9915C5.05125 2.33548 6.95424 2.33619 8.6755 2.9935C8.79932 3.04076 8.89931 3.13524 8.9535 3.25618C9.00769 3.37713 9.01165 3.51464 8.9645 3.6385L8.0905 5.9275C8.0671 5.98887 8.03184 6.04503 7.98674 6.09276C7.94163 6.1405 7.88756 6.17889 7.82762 6.20572C7.76768 6.23256 7.70303 6.24733 7.63738 6.24918C7.57173 6.25102 7.50636 6.23992 7.445 6.2165C6.51546 5.86154 5.48778 5.86118 4.558 6.2155C4.43414 6.26265 4.29663 6.25869 4.17568 6.2045C4.05474 6.15031 3.96026 6.05032 3.913 5.9265L3.04 3.6365C2.99288 3.51258 2.99691 3.37501 3.0512 3.25406C3.10549 3.1331 3.20559 3.03866 3.3295 2.9915ZM4.1595 3.766L4.678 5.126C4.948 5.053 5.223 5.0025 5.5 4.975V4.5C5.5 4.36739 5.55268 4.24021 5.64645 4.14645C5.74021 4.05268 5.86739 4 6 4C6.13261 4 6.25979 4.05268 6.35355 4.14645C6.44732 4.24021 6.5 4.36739 6.5 4.5V4.975C6.77891 5.00267 7.05503 5.05351 7.3255 5.127L7.845 3.767C6.64248 3.4112 5.36221 3.41085 4.1595 3.766Z" fill="#171717" fill-opacity="0.72"/>
</svg>
