<svg width="40" height="40" viewBox="0 0 40 40" fill="none" xmlns="http://www.w3.org/2000/svg">
<g clip-path="url(#clip0_3616_4209)">
<path d="M40 20C40 8.9543 31.0457 0 20 0C8.9543 0 0 8.9543 0 20C0 31.0457 8.9543 40 20 40C31.0457 40 40 31.0457 40 20Z" fill="#F6F7F9"/>
<path d="M20 18C23.0376 18 25.5 15.5376 25.5 12.5C25.5 9.46243 23.0376 7 20 7C16.9624 7 14.5 9.46243 14.5 12.5C14.5 15.5376 16.9624 18 20 18Z" stroke="#171717" stroke-opacity="0.72" stroke-width="2"/>
<path d="M20 33C25.5228 33 30 30.5376 30 27.5C30 24.4624 25.5228 22 20 22C14.4772 22 10 24.4624 10 27.5C10 30.5376 14.4772 33 20 33Z" stroke="#171717" stroke-opacity="0.72" stroke-width="2"/>
</g>
<defs>
<clipPath id="clip0_3616_4209">
<rect width="40" height="40" fill="white"/>
</clipPath>
</defs>
</svg>
