<svg width="108" height="20" viewBox="0 0 108 20" fill="none" xmlns="http://www.w3.org/2000/svg">
<path d="M9.58756 0.601794C9.78617 0.312008 10.2138 0.312007 10.4124 0.601793L13.4262 4.99924C13.4912 5.0941 13.5869 5.16365 13.6973 5.19617L18.8108 6.70354C19.1477 6.80288 19.2799 7.20961 19.0657 7.48804L15.8148 11.7132C15.7446 11.8043 15.7081 11.9169 15.7112 12.0318L15.8578 17.3609C15.8675 17.7121 15.5215 17.9634 15.1905 17.8457L10.1675 16.0596C10.0592 16.021 9.94083 16.021 9.83248 16.0596L4.80954 17.8457C4.47854 17.9634 4.13255 17.7121 4.14221 17.3609L4.28877 12.0318C4.29193 11.9169 4.25537 11.8043 4.18524 11.7132L0.934325 7.48804C0.720094 7.20961 0.852249 6.80288 1.18922 6.70355L6.30274 5.19617C6.41306 5.16365 6.50879 5.0941 6.5738 4.99924L9.58756 0.601794Z" fill="#FFB802"/>
<path d="M31.5876 0.601794C31.7862 0.312008 32.2138 0.312007 32.4124 0.601793L35.4262 4.99924C35.4912 5.0941 35.5869 5.16365 35.6973 5.19617L40.8108 6.70354C41.1477 6.80288 41.2799 7.20961 41.0657 7.48804L37.8148 11.7132C37.7446 11.8043 37.7081 11.9169 37.7112 12.0318L37.8578 17.3609C37.8675 17.7121 37.5215 17.9634 37.1905 17.8457L32.1675 16.0596C32.0592 16.021 31.9408 16.021 31.8325 16.0596L26.8095 17.8457C26.4785 17.9634 26.1325 17.7121 26.1422 17.3609L26.2888 12.0318C26.2919 11.9169 26.2554 11.8043 26.1852 11.7132L22.9343 7.48804C22.7201 7.20961 22.8522 6.80288 23.1892 6.70355L28.3027 5.19617C28.4131 5.16365 28.5088 5.0941 28.5738 4.99924L31.5876 0.601794Z" fill="#FFB802"/>
<path d="M53.5876 0.601794C53.7862 0.312008 54.2138 0.312007 54.4124 0.601793L57.4262 4.99924C57.4912 5.0941 57.5869 5.16365 57.6973 5.19617L62.8108 6.70354C63.1477 6.80288 63.2799 7.20961 63.0657 7.48804L59.8148 11.7132C59.7446 11.8043 59.7081 11.9169 59.7112 12.0318L59.8578 17.3609C59.8675 17.7121 59.5215 17.9634 59.1905 17.8457L54.1675 16.0596C54.0592 16.021 53.9408 16.021 53.8325 16.0596L48.8095 17.8457C48.4785 17.9634 48.1325 17.7121 48.1422 17.3609L48.2888 12.0318C48.2919 11.9169 48.2554 11.8043 48.1852 11.7132L44.9343 7.48804C44.7201 7.20961 44.8522 6.80288 45.1892 6.70355L50.3027 5.19617C50.4131 5.16365 50.5088 5.0941 50.5738 4.99924L53.5876 0.601794Z" fill="#FFB802"/>
<path d="M75.5876 0.601794C75.7862 0.312008 76.2138 0.312007 76.4124 0.601793L79.4262 4.99924C79.4912 5.0941 79.5869 5.16365 79.6973 5.19617L84.8108 6.70354C85.1477 6.80288 85.2799 7.20961 85.0657 7.48804L81.8148 11.7132C81.7446 11.8043 81.7081 11.9169 81.7112 12.0318L81.8578 17.3609C81.8675 17.7121 81.5215 17.9634 81.1905 17.8457L76.1675 16.0596C76.0592 16.021 75.9408 16.021 75.8325 16.0596L70.8095 17.8457C70.4785 17.9634 70.1325 17.7121 70.1422 17.3609L70.2888 12.0318C70.2919 11.9169 70.2554 11.8043 70.1852 11.7132L66.9343 7.48804C66.7201 7.20961 66.8522 6.80288 67.1892 6.70355L72.3027 5.19617C72.4131 5.16365 72.5088 5.0941 72.5738 4.99924L75.5876 0.601794Z" fill="#FFB802"/>
<path d="M97.5876 0.601794C97.7862 0.312008 98.2138 0.312007 98.4124 0.601793L101.426 4.99924C101.491 5.0941 101.587 5.16365 101.697 5.19617L106.811 6.70354C107.148 6.80288 107.28 7.20961 107.066 7.48804L103.815 11.7132C103.745 11.8043 103.708 11.9169 103.711 12.0318L103.858 17.3609C103.867 17.7121 103.521 17.9634 103.19 17.8457L98.1675 16.0596C98.0592 16.021 97.9408 16.021 97.8325 16.0596L92.8095 17.8457C92.4785 17.9634 92.1325 17.7121 92.1422 17.3609L92.2888 12.0318C92.2919 11.9169 92.2554 11.8043 92.1852 11.7132L88.9343 7.48804C88.7201 7.20961 88.8522 6.80288 89.1892 6.70355L94.3027 5.19617C94.4131 5.16365 94.5088 5.0941 94.5738 4.99924L97.5876 0.601794Z" fill="#FFB802"/>
</svg>
