<svg width="107" height="21" viewBox="0 0 107 21" fill="none" xmlns="http://www.w3.org/2000/svg">
<path d="M20.0444 0H0V20.0593H20.0444V0Z" fill="#00B67A"/>
<path d="M41.5444 0H21.5V20.0593H41.5444V0Z" fill="#00B67A"/>
<path d="M63.2651 0H43.2207V20.0593H63.2651V0Z" fill="#00B67A"/>
<path d="M84.7651 0H64.7207V20.0593H84.7651V0Z" fill="#00B67A"/>
<path d="M106.486 0H86.4414V20.0593H106.486V0Z" fill="#DCDCE6"/>
<path d="M86.4414 0H106.5V10.5V20.0683H96.5H86.4414V0Z" fill="#00B67A"/>
<path d="M9.81019 13.3722L12.9421 12.5364L14.1949 16.5064L9.81019 13.3722ZM16.9092 8.35735H11.4806L9.81019 3.34253L8.13982 8.35735H2.91992L7.30464 11.4916L5.63427 16.5064L10.019 13.3722L12.7333 11.4916L16.9092 8.35735Z" fill="white"/>
<path d="M31.5286 13.3722L34.6605 12.5364L35.9133 16.5064L31.5286 13.3722ZM38.4188 8.35735H32.9901L31.3198 3.34253L29.6494 8.35735H24.2207L28.6054 11.4916L26.935 16.5064L31.3198 13.3722L34.0341 11.4916L38.4188 8.35735Z" fill="white"/>
<path d="M53.2395 13.3722L56.3714 12.5364L57.6242 16.5064L53.2395 13.3722ZM60.1298 8.35735H54.7011L53.0307 3.34253L51.3603 8.35735H45.9316L50.3164 11.4916L48.8548 16.5064L53.2395 13.3722L55.9538 11.4916L60.1298 8.35735Z" fill="white"/>
<path d="M74.7514 13.3722L77.8833 12.5364L79.1361 16.5064L74.7514 13.3722ZM81.8505 8.35735H76.4218L74.7514 3.34253L73.081 8.35735H67.6523L72.0371 11.4916L70.3667 16.5064L74.7514 13.3722L77.4658 11.4916L81.8505 8.35735Z" fill="white"/>
<path d="M96.4604 13.3722L99.5923 12.5364L100.845 16.5064L96.4604 13.3722ZM103.351 8.35735H97.922L96.2516 3.34253L94.79 8.35735H89.3613L93.746 11.4916L92.0757 16.5064L96.4604 13.3722L99.1747 11.4916L103.351 8.35735Z" fill="white"/>
</svg>
