<svg width="97" height="32" viewBox="0 0 97 32" fill="none" xmlns="http://www.w3.org/2000/svg">
<path d="M21.9995 13.9672H13.8373L11.406 6.14648L8.80106 13.9672H0.8125L7.23808 18.6596L4.80678 26.4803L11.406 21.6141L17.8316 26.4803L15.4003 18.6596L21.9995 13.9672Z" fill="#00B67A"/>
<path d="M15.9176 20.3971L15.3966 18.6592L11.4023 21.6137L15.9176 20.3971Z" fill="#005128"/>
<path d="M37.44 10.8V13.008H34.144V22H31.936V13.008H28.64V10.8H37.44ZM38.093 22L38.085 14H40.293L40.301 14.592C40.5677 14.336 40.8797 14.136 41.237 13.992C41.5997 13.848 41.981 13.776 42.381 13.776C42.6743 13.776 42.9677 13.8187 43.261 13.904L42.389 16.136C42.197 16.056 42.0023 16.016 41.805 16.016C41.5277 16.016 41.2743 16.0827 41.045 16.216C40.8157 16.3493 40.6343 16.5307 40.501 16.76C40.3677 16.984 40.301 17.2373 40.301 17.52V22H38.093ZM43.9056 19.072V14H46.1136V18.464C46.1136 18.7467 46.1803 19.0027 46.3136 19.232C46.4523 19.456 46.6363 19.6347 46.8656 19.768C47.095 19.9013 47.3456 19.968 47.6176 19.968C47.895 19.968 48.1483 19.9013 48.3776 19.768C48.607 19.6347 48.7883 19.456 48.9216 19.232C49.055 19.0027 49.1216 18.7467 49.1216 18.464V14H51.3296L51.3376 22H49.1296L49.1216 21.392C48.855 21.648 48.5403 21.848 48.1776 21.992C47.8203 22.136 47.4416 22.208 47.0416 22.208C46.4656 22.208 45.9403 22.0667 45.4656 21.784C44.991 21.5013 44.6123 21.1253 44.3296 20.656C44.047 20.1813 43.9056 19.6533 43.9056 19.072ZM55.2724 22.144C54.8617 22.112 54.467 22.0267 54.0884 21.888C53.7097 21.744 53.371 21.552 53.0724 21.312C52.779 21.0667 52.5497 20.7733 52.3844 20.432L54.2404 19.632C54.299 19.7173 54.387 19.8107 54.5044 19.912C54.6217 20.008 54.763 20.0933 54.9284 20.168C55.099 20.2427 55.2964 20.28 55.5204 20.28C55.6857 20.28 55.8457 20.2613 56.0004 20.224C56.155 20.1813 56.2804 20.1147 56.3764 20.024C56.4724 19.928 56.5204 19.8027 56.5204 19.648C56.5204 19.4773 56.459 19.3467 56.3364 19.256C56.2137 19.1653 56.0644 19.0987 55.8884 19.056C55.7177 19.008 55.5524 18.968 55.3924 18.936C54.9017 18.8507 54.4377 18.6987 54.0004 18.48C53.5684 18.256 53.2164 17.968 52.9444 17.616C52.6724 17.264 52.5364 16.8427 52.5364 16.352C52.5364 15.8133 52.6777 15.3493 52.9604 14.96C53.243 14.5653 53.611 14.2613 54.0644 14.048C54.5177 13.8347 55.0084 13.728 55.5364 13.728C56.1604 13.728 56.739 13.8587 57.2724 14.12C57.8057 14.3813 58.235 14.7493 58.5604 15.224L56.8164 16.256C56.747 16.1547 56.6564 16.0587 56.5444 15.968C56.4377 15.872 56.3124 15.792 56.1684 15.728C56.0297 15.6587 55.8804 15.6187 55.7204 15.608C55.5124 15.592 55.323 15.6053 55.1524 15.648C54.9817 15.6853 54.8457 15.7573 54.7444 15.864C54.6484 15.9707 54.6004 16.1147 54.6004 16.296C54.6004 16.472 54.6777 16.6027 54.8324 16.688C54.987 16.768 55.1657 16.8293 55.3684 16.872C55.571 16.9093 55.7497 16.9547 55.9044 17.008C56.3684 17.1573 56.803 17.3493 57.2084 17.584C57.619 17.8133 57.9497 18.096 58.2004 18.432C58.451 18.768 58.5684 19.1627 58.5524 19.616C58.5524 20.144 58.395 20.608 58.0804 21.008C57.7657 21.4027 57.3577 21.704 56.8564 21.912C56.3604 22.1147 55.8324 22.192 55.2724 22.144ZM64.2651 16.208H62.8251V22H60.6171V16.208H59.5131V14H60.6171V11.488H62.8251V14H64.2651V16.208ZM67.6836 26H65.4756V14H67.6836V14.864C67.9396 14.5493 68.2436 14.2933 68.5956 14.096C68.9476 13.8933 69.3583 13.792 69.8276 13.792C70.409 13.792 70.953 13.9013 71.4596 14.12C71.9716 14.3387 72.4196 14.6427 72.8036 15.032C73.1876 15.416 73.489 15.8613 73.7076 16.368C73.9263 16.8747 74.0356 17.4187 74.0356 18C74.0356 18.5813 73.9263 19.128 73.7076 19.64C73.489 20.152 73.1876 20.6027 72.8036 20.992C72.4196 21.376 71.9716 21.6773 71.4596 21.896C70.953 22.1147 70.409 22.224 69.8276 22.224C69.3583 22.224 68.9476 22.1227 68.5956 21.92C68.2436 21.7173 67.9396 21.4613 67.6836 21.152V26ZM69.7956 15.912C69.433 15.912 69.105 16.008 68.8116 16.2C68.5236 16.3867 68.2943 16.6373 68.1236 16.952C67.9583 17.2667 67.8756 17.616 67.8756 18C67.8756 18.384 67.9583 18.736 68.1236 19.056C68.2943 19.3707 68.5236 19.6213 68.8116 19.808C69.105 19.9947 69.433 20.088 69.7956 20.088C70.1583 20.088 70.489 19.9947 70.7876 19.808C71.0916 19.6213 71.3316 19.3707 71.5076 19.056C71.689 18.7413 71.7796 18.3893 71.7796 18C71.7796 17.6213 71.6916 17.2747 71.5156 16.96C71.3396 16.64 71.0996 16.3867 70.7956 16.2C70.497 16.008 70.1636 15.912 69.7956 15.912ZM75.0538 14H77.2618V22H75.0538V14ZM76.1738 13.08C75.8538 13.08 75.5844 12.9733 75.3658 12.76C75.1471 12.5467 75.0378 12.2827 75.0378 11.968C75.0378 11.6533 75.1471 11.3893 75.3658 11.176C75.5844 10.9627 75.8511 10.856 76.1658 10.856C76.4804 10.856 76.7444 10.9627 76.9578 11.176C77.1764 11.3893 77.2858 11.6533 77.2858 11.968C77.2858 12.2827 77.1791 12.5467 76.9658 12.76C76.7578 12.9733 76.4938 13.08 76.1738 13.08ZM79.1944 22V10H81.4024V22H79.1944ZM86.6831 22.208C85.9471 22.208 85.2751 22.0187 84.6671 21.64C84.0645 21.2613 83.5818 20.7547 83.2191 20.12C82.8618 19.48 82.6831 18.7733 82.6831 18C82.6831 17.4133 82.7871 16.8667 82.9951 16.36C83.2031 15.848 83.4885 15.4 83.8511 15.016C84.2191 14.6267 84.6458 14.3227 85.1311 14.104C85.6165 13.8853 86.1338 13.776 86.6831 13.776C87.4191 13.776 88.0885 13.9653 88.6911 14.344C89.2991 14.7227 89.7818 15.232 90.1391 15.872C90.5018 16.512 90.6831 17.2213 90.6831 18C90.6831 18.5813 90.5791 19.1253 90.3711 19.632C90.1631 20.1387 89.8751 20.5867 89.5071 20.976C89.1445 21.36 88.7205 21.6613 88.2351 21.88C87.7551 22.0987 87.2378 22.208 86.6831 22.208ZM86.6831 20C87.0245 20 87.3311 19.9093 87.6031 19.728C87.8751 19.5413 88.0885 19.296 88.2431 18.992C88.3978 18.688 88.4751 18.3573 88.4751 18C88.4751 17.632 88.3925 17.296 88.2271 16.992C88.0671 16.6827 87.8511 16.4373 87.5791 16.256C87.3071 16.0747 87.0085 15.984 86.6831 15.984C86.3471 15.984 86.0431 16.0773 85.7711 16.264C85.4991 16.4507 85.2831 16.696 85.1231 17C84.9685 17.304 84.8911 17.6373 84.8911 18C84.8911 18.3787 84.9711 18.72 85.1311 19.024C85.2965 19.3227 85.5151 19.56 85.7871 19.736C86.0591 19.912 86.3578 20 86.6831 20ZM96.2964 16.208H94.8564V22H92.6484V16.208H91.5444V14H92.6484V11.488H94.8564V14H96.2964V16.208Z" fill="#222222"/>
</svg>
