<svg width="20" height="20" viewBox="0 0 20 20" fill="none" xmlns="http://www.w3.org/2000/svg">
<path d="M10.0007 15.0003C9.63376 15.0003 9.27712 14.8793 8.98605 14.6559C8.69498 14.4326 8.48573 14.1194 8.39077 13.765" stroke="white" stroke-linecap="round"/>
<path d="M8.68757 3.89922C9.08259 3.2277 9.28009 2.89194 9.52543 2.75943C9.822 2.59926 10.1793 2.59926 10.4759 2.75943C10.7212 2.89194 10.9187 3.2277 11.3137 3.89923L12.704 6.26268C13.6756 7.91443 14.4337 9.6828 14.9602 11.5254V11.5254C15.8157 14.5197 13.5674 17.5003 10.4533 17.5003H9.54799C6.43389 17.5003 4.18559 14.5197 5.0411 11.5254V11.5254C5.56756 9.6828 6.32569 7.91443 7.29731 6.26267L8.68757 3.89922Z" stroke="white"/>
</svg>
