<svg width="12" height="12" viewBox="0 0 12 12" fill="none" xmlns="http://www.w3.org/2000/svg">
<path fill-rule="evenodd" clip-rule="evenodd" d="M1.09961 3.5C1.09961 2.86348 1.35247 2.25303 1.80255 1.80294C2.25264 1.35285 2.86309 1.1 3.49961 1.1H8.49961C9.13613 1.1 9.74658 1.35285 10.1967 1.80294C10.6468 2.25303 10.8996 2.86348 10.8996 3.5V8.5C10.8996 9.13652 10.6468 9.74697 10.1967 10.1971C9.74658 10.6471 9.13613 10.9 8.49961 10.9H3.49961C2.86309 10.9 2.25264 10.6471 1.80255 10.1971C1.35247 9.74697 1.09961 9.13652 1.09961 8.5V3.5ZM3.49961 1.9C3.07526 1.9 2.6683 2.06857 2.36824 2.36863C2.06818 2.66869 1.89961 3.07565 1.89961 3.5V8.1H8.74961C8.8557 8.1 8.95744 8.14214 9.03245 8.21716C9.10747 8.29217 9.14961 8.39391 9.14961 8.5C9.14961 8.60609 9.10747 8.70783 9.03245 8.78284C8.95744 8.85786 8.8557 8.9 8.74961 8.9H1.95011C2.0389 9.24354 2.23933 9.54783 2.51991 9.76505C2.80048 9.98227 3.14528 10.1001 3.50011 10.1H8.50011C8.92446 10.1 9.33142 9.93143 9.63148 9.63137C9.93154 9.33131 10.1001 8.92434 10.1001 8.5V3.5C10.1001 3.28984 10.0587 3.08174 9.97827 2.88759C9.89783 2.69344 9.77993 2.51703 9.6313 2.36845C9.48268 2.21987 9.30623 2.10203 9.11206 2.02165C8.91788 1.94127 8.70977 1.89993 8.49961 1.9H3.49961ZM4.49961 3.9C4.35516 3.9 4.21212 3.92845 4.07866 3.98373C3.9452 4.03901 3.82394 4.12004 3.72179 4.22218C3.61965 4.32433 3.53862 4.44559 3.48334 4.57905C3.42806 4.7125 3.39961 4.85554 3.39961 5C3.39961 5.14445 3.42806 5.28749 3.48334 5.42095C3.53862 5.55441 3.61965 5.67567 3.72179 5.77782C3.82394 5.87996 3.9452 5.96099 4.07866 6.01627C4.21212 6.07155 4.35516 6.1 4.49961 6.1C4.79135 6.1 5.07114 5.98411 5.27743 5.77782C5.48372 5.57153 5.59961 5.29174 5.59961 5C5.59961 4.70826 5.48372 4.42847 5.27743 4.22218C5.07114 4.01589 4.79135 3.9 4.49961 3.9ZM2.59961 5C2.59961 4.75049 2.64875 4.50342 2.74424 4.2729C2.83972 4.04238 2.97968 3.83293 3.15611 3.6565C3.33254 3.48006 3.54199 3.34011 3.77251 3.24463C4.00303 3.14914 4.2501 3.1 4.49961 3.1C4.74912 3.1 4.99619 3.14914 5.22671 3.24463C5.45723 3.34011 5.66668 3.48006 5.84311 3.6565C6.01954 3.83293 6.1595 4.04238 6.25498 4.2729C6.35046 4.50342 6.39961 4.75049 6.39961 5C6.39961 5.50391 6.19943 5.98718 5.84311 6.3435C5.48679 6.69982 5.00352 6.9 4.49961 6.9C3.9957 6.9 3.51243 6.69982 3.15611 6.3435C2.79979 5.98718 2.59961 5.50391 2.59961 5ZM6.84961 4C6.84961 3.89391 6.89175 3.79217 6.96677 3.71716C7.04178 3.64214 7.14352 3.6 7.24961 3.6H8.74961C8.8557 3.6 8.95744 3.64214 9.03245 3.71716C9.10747 3.79217 9.14961 3.89391 9.14961 4C9.14961 4.10609 9.10747 4.20783 9.03245 4.28284C8.95744 4.35786 8.8557 4.4 8.74961 4.4H7.24961C7.14352 4.4 7.04178 4.35786 6.96677 4.28284C6.89175 4.20783 6.84961 4.10609 6.84961 4ZM6.84961 6C6.84961 5.89391 6.89175 5.79217 6.96677 5.71716C7.04178 5.64214 7.14352 5.6 7.24961 5.6H8.74961C8.8557 5.6 8.95744 5.64214 9.03245 5.71716C9.10747 5.79217 9.14961 5.89391 9.14961 6C9.14961 6.10609 9.10747 6.20783 9.03245 6.28284C8.95744 6.35786 8.8557 6.4 8.74961 6.4H7.24961C7.14352 6.4 7.04178 6.35786 6.96677 6.28284C6.89175 6.20783 6.84961 6.10609 6.84961 6Z" fill="black" fill-opacity="0.72"/>
</svg>
