<svg width="40" height="40" viewBox="0 0 40 40" fill="none" xmlns="http://www.w3.org/2000/svg">
<g clip-path="url(#clip0_3616_4221)">
<path d="M40 20C40 8.9543 31.0457 0 20 0C8.9543 0 0 8.9543 0 20C0 31.0457 8.9543 40 20 40C31.0457 40 40 31.0457 40 20Z" fill="#F6F7F9"/>
<path d="M20.17 11.56C15.98 11.56 12.57 14.97 12.57 19.16C12.57 21.66 13.81 24 15.9 25.42V27.5C15.9 29.85 17.81 31.76 20.17 31.76C22.53 31.76 24.43 29.85 24.43 27.5V25.42C25.4555 24.7285 26.296 23.7965 26.8783 22.7052C27.4605 21.614 27.7666 20.3968 27.77 19.16C27.77 14.97 24.36 11.56 20.17 11.56ZM23.03 24.1H23.02L22.99 24.13C22.73 24.3 22.57 24.59 22.57 24.91V27.5C22.57 28.82 21.49 29.9 20.17 29.9C18.85 29.9 17.77 28.82 17.77 27.5V24.91C17.7714 24.7453 17.7285 24.5832 17.6458 24.4407C17.5631 24.2982 17.4437 24.1806 17.3 24.1C15.51 23.05 14.43 21.21 14.43 19.16C14.43 16 17.01 13.43 20.17 13.43C23.33 13.43 25.9 16 25.9 19.16C25.9 21.21 24.83 23.05 23.03 24.1ZM33.5 18.33H31.83C31.37 18.33 31 18.7 31 19.16C31 19.62 31.37 19.99 31.83 19.99H33.5C33.96 19.99 34.33 19.62 34.33 19.16C34.33 18.7 33.96 18.33 33.5 18.33ZM8.5 18.33H6.83C6.37 18.33 6 18.7 6 19.16C6 19.62 6.37 19.99 6.83 19.99H8.5C8.96 19.99 9.33 19.62 9.33 19.16C9.33 18.7 8.96 18.33 8.5 18.33ZM20.17 8.33C20.63 8.33 21 7.96 21 7.5V5.83C21 5.37 20.63 5 20.17 5C19.71 5 19.34 5.37 19.34 5.83V7.5C19.34 7.96 19.71 8.33 20.17 8.33ZM12.51 10.33L11.33 9.15C11.253 9.07163 11.1612 9.00938 11.0599 8.96689C10.9586 8.92439 10.8499 8.90251 10.74 8.90251C10.6301 8.90251 10.5214 8.92439 10.4201 8.96689C10.3188 9.00938 10.227 9.07163 10.15 9.15C9.82 9.47 9.82 10 10.15 10.33L11.33 11.51C11.49 11.67 11.71 11.75 11.92 11.75C12.13 11.75 12.35 11.67 12.51 11.51C12.83 11.18 12.83 10.66 12.51 10.33ZM29.01 9.15L27.83 10.33C27.51 10.66 27.51 11.18 27.83 11.51C27.99 11.67 28.21 11.75 28.42 11.75C28.63 11.75 28.85 11.67 29.01 11.51L30.19 10.33C30.52 10.01 30.52 9.48 30.19 9.15C30.113 9.07163 30.0212 9.00938 29.9199 8.96689C29.8186 8.92439 29.7099 8.90251 29.6 8.90251C29.4901 8.90251 29.3814 8.92439 29.2801 8.96689C29.1788 9.00938 29.087 9.07163 29.01 9.15ZM21.83 33.33H18.5C18.04 33.33 17.67 33.7 17.67 34.16C17.67 34.62 18.04 34.99 18.5 34.99H21.83C22.29 34.99 22.66 34.62 22.66 34.16C22.66 33.7 22.29 33.33 21.83 33.33Z" fill="#171717" fill-opacity="0.72"/>
</g>
<defs>
<clipPath id="clip0_3616_4221">
<rect width="40" height="40" fill="white"/>
</clipPath>
</defs>
</svg>
