<svg width="71" height="36" viewBox="0 0 71 36" xmlns="http://www.w3.org/2000/svg" class="featured-in-universal_usaToday__XIQHY"><path d="M41.0159 21.8603L40.8959 21.5803H40.3959L40.2759 21.8603H40.0559L40.6359 20.5803H40.6759L41.2559 21.8603H41.0159ZM40.6359 20.9803L40.4559 21.4003H40.8159L40.6359 20.9803Z"></path><path d="M52.836 21.8803C52.436 21.8803 52.156 21.6003 52.156 21.2403C52.156 20.8603 52.436 20.6003 52.836 20.6003C52.996 20.6003 53.136 20.6403 53.236 20.7203L53.156 20.9003C53.056 20.8403 52.936 20.8003 52.816 20.8003C52.536 20.8003 52.376 20.9803 52.376 21.2403C52.376 21.5003 52.556 21.6803 52.816 21.6803C52.936 21.6803 53.056 21.6403 53.156 21.5803L53.216 21.7603C53.156 21.8403 52.996 21.8803 52.836 21.8803Z"></path><path d="M54.1159 21.8803C53.7559 21.8803 53.4958 21.6003 53.4958 21.2403C53.4958 20.8603 53.7759 20.6003 54.1359 20.6003C54.4959 20.6003 54.7559 20.8803 54.7559 21.2403C54.7559 21.6003 54.4759 21.8803 54.1159 21.8803ZM54.1159 20.7803C53.8759 20.7803 53.7159 20.9803 53.7159 21.2403C53.7159 21.5003 53.8759 21.7003 54.1159 21.7003C54.3559 21.7003 54.5159 21.5003 54.5159 21.2403C54.5359 20.9803 54.3559 20.7803 54.1159 20.7803Z"></path><path d="M56.0959 21.8603L56.0759 21.1203L55.6959 21.7203H55.6559L55.2559 21.1203V21.8603H55.0359L55.0959 20.6003H55.1159L55.6759 21.4203L56.2159 20.6003H56.2559L56.3159 21.8603H56.0959Z"></path><path d="M57.0558 21.4603C57.0158 21.4603 56.9758 21.4603 56.9358 21.4603V21.8603H56.7358V20.6203C56.8558 20.6003 56.9558 20.6003 57.0558 20.6003C57.3958 20.6003 57.5758 20.7803 57.5758 21.0203C57.5558 21.2803 57.3758 21.4603 57.0558 21.4603ZM57.0758 20.8003C57.0358 20.8003 56.9758 20.8003 56.9358 20.8003V21.2603C56.9758 21.2603 57.0158 21.2603 57.0558 21.2603C57.2558 21.2603 57.3358 21.1603 57.3358 21.0203C57.3358 20.9003 57.2558 20.8003 57.0758 20.8003Z"></path><path d="M61.1358 21.3403V21.8603H60.9158V21.3403L60.4758 20.6003H60.7358L61.0358 21.1403L61.3358 20.6003H61.5758L61.1358 21.3403Z"></path><path d="M58.6158 21.8603L58.4958 21.5803H57.9958L57.8758 21.8603H57.6558L58.2358 20.5803H58.2758L58.8558 21.8603H58.6158ZM58.2358 20.9803L58.0558 21.4003H58.4158L58.2358 20.9803Z"></path><path d="M60.1558 21.8803L59.3758 21.0603V21.8603H59.1558V20.6003L59.1958 20.5803L59.9758 21.4003V20.6003H60.1758V21.8803H60.1558Z"></path><path d="M43.1959 21.2003V21.7403C43.0559 21.8203 42.9159 21.8803 42.7359 21.8803C42.3759 21.8803 42.0759 21.6203 42.0759 21.2403C42.0759 20.8403 42.3959 20.6003 42.7359 20.6003C42.9159 20.6003 43.0559 20.6603 43.1759 20.7203L43.0759 20.9003C42.9759 20.8403 42.8559 20.8003 42.7359 20.8003C42.4559 20.8003 42.2959 21.0003 42.2959 21.2603C42.2959 21.5203 42.4959 21.7203 42.7359 21.7203C42.8359 21.7203 42.9159 21.7003 42.9959 21.6603V21.4203H42.6959V21.2003H43.1959Z"></path><path d="M44.3958 21.8603L44.2758 21.5803H43.7758L43.6558 21.8603H43.4358L44.0158 20.5803H44.0558L44.6358 21.8603H44.3958ZM44.0158 20.9803L43.8358 21.4003H44.1958L44.0158 20.9803Z"></path><path d="M45.9358 21.8803L45.1558 21.0603V21.8603H44.9358V20.6003L44.9758 20.5803L45.7558 21.4003V20.6003H45.9558V21.8803H45.9358Z"></path><path d="M47.396 21.8803L46.596 21.0603V21.8603H46.396V20.6003L46.416 20.5803L47.196 21.4003V20.6003H47.416V21.8803H47.396Z"></path><path d="M47.8359 21.8603V20.6003H48.5959V20.8003H48.0559V21.1403H48.5559V21.3203H48.0559V21.6603H48.5959V21.8603H47.8359Z"></path><path d="M49.5358 20.8003V21.8603H49.3358V20.8003H48.9358V20.6003H49.9358V20.8003H49.5358Z"></path><path d="M50.8158 20.8003V21.8603H50.5958V20.8003H50.1958V20.6003H51.2158V20.8003H50.8158Z"></path><path d="M68.7558 18.0003V17.2603H68.4758V17.1603H69.1358V17.2603H68.8558V18.0003H68.7558Z"></path><path d="M69.2559 18.0003V17.1603H69.4159L69.6159 17.7603C69.6359 17.8203 69.6559 17.8603 69.6559 17.8803C69.6759 17.8403 69.6759 17.8003 69.6959 17.7403L69.8959 17.1603H70.0359V18.0003H69.9359V17.3003L69.6959 18.0003H69.5959L69.3559 17.2803V18.0003H69.2559Z"></path><path d="M36.7358 18C36.7358 27.94 28.6758 36 18.7358 36C8.79584 36 0.73584 27.94 0.73584 18C0.73584 8.06 8.79584 0 18.7358 0C28.6758 0 36.7358 8.06 36.7358 18Z" fill="var(--neutral500Color)"></path><path d="M39.2759 7.94023V3.86023H41.1159V7.42023C41.1159 8.12023 41.1959 8.82023 42.1159 8.82023C43.0359 8.82023 43.1159 8.14023 43.1159 7.42023V3.86023H44.9559V7.96023C44.9559 9.54023 43.9359 10.4202 42.1159 10.4202C40.2559 10.4202 39.2759 9.54023 39.2759 7.94023Z"></path><path d="M45.4558 9.4806L46.3358 8.2606C46.6558 8.6606 47.2158 9.0206 47.8558 9.0206C48.3358 9.0206 48.6158 8.8206 48.6158 8.4406C48.6158 8.0006 48.1958 7.8606 47.5158 7.6606C46.5758 7.3806 45.7558 6.9006 45.7558 5.7806C45.7558 4.5606 46.7558 3.7406 48.1758 3.7406C49.1558 3.7406 49.8958 4.0406 50.3758 4.4806L49.5358 5.7006C49.2758 5.4006 48.8158 5.1406 48.2758 5.1406C47.7958 5.1406 47.5958 5.3406 47.5958 5.5806C47.5958 5.9806 48.0758 6.1006 48.6158 6.2606C49.6558 6.5806 50.4758 7.0606 50.4758 8.2406C50.4758 9.4806 49.5958 10.4006 47.9758 10.4006C46.7758 10.4206 45.8558 9.9006 45.4558 9.4806Z"></path><path d="M52.9159 3.86023H54.9359L57.3359 10.3002H55.4159L55.1159 9.38023H52.6959L52.3959 10.3002H50.5359L52.9159 3.86023ZM54.6559 7.90023L54.1559 6.36023C54.0559 6.06023 53.9759 5.68023 53.9359 5.40023H53.8759C53.8359 5.68023 53.7559 6.06023 53.6559 6.36023L53.1559 7.90023H54.6559Z"></path><path d="M40.8959 13.0598H39.3159V11.5598H44.3359V13.0598H42.7359V17.9998H40.8959V13.0598Z"></path><path d="M44.4558 14.8002C44.4558 13.2202 45.5958 11.4402 47.9758 11.4402C50.3758 11.4402 51.5158 13.2002 51.5158 14.8002C51.5158 16.3802 50.3758 18.1402 47.9758 18.1402C45.5958 18.1202 44.4558 16.3602 44.4558 14.8002ZM49.6158 14.8002C49.6158 13.6402 48.8558 13.0402 47.9758 13.0402C47.0958 13.0402 46.3358 13.6402 46.3358 14.8002C46.3358 15.9402 47.0958 16.5402 47.9758 16.5402C48.8758 16.5202 49.6158 15.9402 49.6158 14.8002Z"></path><path d="M52.1758 11.5598H54.5558C56.8358 11.5598 58.1358 12.7598 58.1358 14.7798C58.1358 16.7598 56.7958 17.9998 54.5558 17.9998H52.1758V11.5598ZM54.0158 16.5198H54.4158C55.5958 16.5198 56.2358 15.9598 56.2358 14.7798C56.2358 13.6198 55.5958 13.0398 54.4158 13.0398H54.0158V16.5198Z"></path><path d="M60.276 11.5598H62.296L64.696 17.9998H62.776L62.476 17.0798H60.056L59.736 17.9998H57.876L60.276 11.5598ZM61.996 15.5998L61.496 14.0598C61.396 13.7598 61.316 13.3798 61.276 13.0998H61.216C61.176 13.3798 61.096 13.7598 60.996 14.0598L60.496 15.5998H61.996Z"></path><path d="M65.816 15.6998L63.416 11.5598H65.436L66.316 13.1398C66.496 13.4798 66.756 13.9998 66.816 14.3398H66.856C66.916 13.9998 67.176 13.4798 67.356 13.1398L68.236 11.5598H70.196L67.796 15.6998V17.9998H65.856V15.6998"></path></svg>