<svg width="28" height="28" viewBox="0 0 28 28" fill="none" xmlns="http://www.w3.org/2000/svg">
    <path d="M25.6666 9.52268V9.6073C25.6666 10.6115 25.6666 11.1136 25.4249 11.5244C25.1831 11.9352 24.7442 12.179 23.8664 12.6667L22.9409 13.1809C23.5786 11.0248 23.7914 8.70811 23.8702 6.72691C23.8734 6.64197 23.8773 6.55597 23.8811 6.46908L23.8838 6.4082C24.6437 6.67207 25.0702 6.86879 25.3363 7.23804C25.6667 7.69635 25.6667 8.30513 25.6666 9.52268Z" fill="#8F9AA4"/>
    <path d="M2.3335 9.52283V9.60745C2.33353 10.6116 2.33354 11.1137 2.57527 11.5245C2.81699 11.9353 3.2559 12.1792 4.13372 12.6668L5.05978 13.1813C4.42191 11.0251 4.20911 8.70836 4.13046 6.72706C4.12708 6.64212 4.12328 6.55612 4.11944 6.46923L4.11675 6.4082C3.35668 6.67215 2.92997 6.86887 2.66378 7.23819C2.33345 7.69651 2.33346 8.30528 2.3335 9.52283Z" fill="#8F9AA4"/>
    <path fill-rule="evenodd" clip-rule="evenodd" d="M19.1065 2.73778C17.7952 2.51652 16.0809 2.33325 14.0002 2.33325C11.9193 2.33325 10.205 2.51652 8.89363 2.73778C7.56511 2.96193 6.90084 3.07402 6.34585 3.75755C5.79084 4.4411 5.82017 5.1799 5.87883 6.65747C6.08022 11.7301 7.17487 18.0659 13.1249 18.6266V22.7499H11.4564C10.9002 22.7499 10.4214 23.1425 10.3123 23.6878L10.0916 24.7916H6.99992C6.51667 24.7916 6.12492 25.1834 6.12492 25.6666C6.12492 26.1498 6.51667 26.5416 6.99992 26.5416H20.9999C21.4831 26.5416 21.8749 26.1498 21.8749 25.6666C21.8749 25.1834 21.4831 24.7916 20.9999 24.7916H17.9082L17.6875 23.6878C17.5784 23.1425 17.0996 22.7499 16.5435 22.7499H14.8749V18.6266C20.8253 18.0661 21.92 11.7302 22.1213 6.65747C22.18 5.1799 22.2094 4.4411 21.6543 3.75755C21.0993 3.07402 20.4351 2.96193 19.1065 2.73778Z" fill="#8F9AA4"/>
</svg>