<svg width="48" height="48" viewBox="0 0 48 48" fill="none" xmlns="http://www.w3.org/2000/svg">
<path d="M14.1562 18.3749L20.3325 27.0205C20.5867 27.3765 20.9192 27.6694 21.3044 27.8768C21.6895 28.0841 22.1171 28.2004 22.5542 28.2167C22.9913 28.233 23.4263 28.1489 23.8258 27.9708C24.2253 27.7927 24.5787 27.5253 24.8588 27.1893L45.0938 2.9043" stroke="#13D16A" stroke-width="2" stroke-linecap="round" stroke-linejoin="round"/>
<path d="M32.9681 8.66941C28.9575 6.18744 24.1884 5.22973 19.5305 5.97094C14.8727 6.71215 10.6364 9.10289 7.59431 12.7072C4.55222 16.3114 2.90701 20.8891 2.9587 25.6053C3.0104 30.3214 4.75556 34.8619 7.87592 38.3986C10.9963 41.9354 15.2839 44.2327 19.9569 44.8716C24.6299 45.5105 29.3769 44.4485 33.3321 41.8792C37.2873 39.3099 40.1873 35.4046 41.5031 30.8754C42.8189 26.3462 42.4629 21.4949 40.5 17.2063" stroke="#13D16A" stroke-width="2" stroke-linecap="round" stroke-linejoin="round"/>
</svg>
