<svg width="76" height="107" viewBox="0 0 76 107" fill="none" xmlns="http://www.w3.org/2000/svg">
<g clip-path="url(#clip0_4042_26881)">
<g filter="url(#filter0_dddd_4042_26881)">
<rect x="9" y="3" width="56" height="56" rx="28" fill="white"/>
<rect x="7.5" y="1.5" width="59" height="59" rx="29.5" stroke="#E2E2E6" stroke-width="3"/>
</g>
<rect x="27" y="52" width="20" height="20" rx="10" fill="#EDF1F5"/>
<path d="M37.6667 63.6667C37.6667 63.2985 37.3682 63 37 63C36.6318 63 36.3333 63.2985 36.3333 63.6667C36.3333 64.0349 36.6318 64.3333 37 64.3333C37.3682 64.3333 37.6667 64.0349 37.6667 63.6667ZM39.6667 60.3333C40.403 60.3333 41 60.9303 41 61.6667V65C41 66.1027 40.1027 67 39 67H35C33.8973 67 33 66.1027 33 65V61.6667C33 60.9303 33.597 60.3333 34.3333 60.3333V59.6667C34.3333 58.196 35.5293 57 37 57C38.4707 57 39.6667 58.196 39.6667 59.6667V60.3333ZM35.6667 60.3333H38.3333V59.6667C38.3333 58.9313 37.7353 58.3333 37 58.3333C36.2647 58.3333 35.6667 58.9313 35.6667 59.6667V60.3333ZM39.6667 62.6667C39.6667 62.1144 39.219 61.6667 38.6667 61.6667H35.3333C34.781 61.6667 34.3333 62.1144 34.3333 62.6667V65C34.3333 65.368 34.632 65.6667 35 65.6667H39C39.368 65.6667 39.6667 65.368 39.6667 65V62.6667Z" fill="#B7BABE"/>
</g>
<defs>
<filter id="filter0_dddd_4042_26881" x="-17" y="-4" width="108" height="146" filterUnits="userSpaceOnUse" color-interpolation-filters="sRGB">
<feFlood flood-opacity="0" result="BackgroundImageFix"/>
<feColorMatrix in="SourceAlpha" type="matrix" values="0 0 0 0 0 0 0 0 0 0 0 0 0 0 0 0 0 0 127 0" result="hardAlpha"/>
<feOffset dy="4"/>
<feGaussianBlur stdDeviation="4"/>
<feColorMatrix type="matrix" values="0 0 0 0 0.733333 0 0 0 0 0.733333 0 0 0 0 0.733333 0 0 0 0.2 0"/>
<feBlend mode="normal" in2="BackgroundImageFix" result="effect1_dropShadow_4042_26881"/>
<feColorMatrix in="SourceAlpha" type="matrix" values="0 0 0 0 0 0 0 0 0 0 0 0 0 0 0 0 0 0 127 0" result="hardAlpha"/>
<feOffset dy="14"/>
<feGaussianBlur stdDeviation="7"/>
<feColorMatrix type="matrix" values="0 0 0 0 0.775 0 0 0 0 0.775 0 0 0 0 0.775 0 0 0 0.17 0"/>
<feBlend mode="normal" in2="effect1_dropShadow_4042_26881" result="effect2_dropShadow_4042_26881"/>
<feColorMatrix in="SourceAlpha" type="matrix" values="0 0 0 0 0 0 0 0 0 0 0 0 0 0 0 0 0 0 127 0" result="hardAlpha"/>
<feOffset dy="32"/>
<feGaussianBlur stdDeviation="9.5"/>
<feColorMatrix type="matrix" values="0 0 0 0 0.783333 0 0 0 0 0.783333 0 0 0 0 0.783333 0 0 0 0.1 0"/>
<feBlend mode="normal" in2="effect2_dropShadow_4042_26881" result="effect3_dropShadow_4042_26881"/>
<feColorMatrix in="SourceAlpha" type="matrix" values="0 0 0 0 0 0 0 0 0 0 0 0 0 0 0 0 0 0 127 0" result="hardAlpha"/>
<feOffset dy="57"/>
<feGaussianBlur stdDeviation="11.5"/>
<feColorMatrix type="matrix" values="0 0 0 0 0.745833 0 0 0 0 0.745833 0 0 0 0 0.745833 0 0 0 0.03 0"/>
<feBlend mode="normal" in2="effect3_dropShadow_4042_26881" result="effect4_dropShadow_4042_26881"/>
<feBlend mode="normal" in="SourceGraphic" in2="effect4_dropShadow_4042_26881" result="shape"/>
</filter>
<clipPath id="clip0_4042_26881">
<rect width="76" height="107" fill="white"/>
</clipPath>
</defs>
</svg>
