<svg width="108" height="108" viewBox="0 0 108 108" fill="none" xmlns="http://www.w3.org/2000/svg">
<path d="M69.2002 1C75.6241 1 80.5023 0.998964 84.3877 1.31641C88.2848 1.63481 91.2711 2.27901 93.8955 3.61621C98.4114 5.91717 102.083 9.5886 104.384 14.1045C105.721 16.7289 106.365 19.7152 106.684 23.6123C107.001 27.4977 107 32.3759 107 38.7998V69.2002C107 75.6241 107.001 80.5023 106.684 84.3877C106.365 88.2848 105.721 91.2711 104.384 93.8955C102.083 98.4114 98.4114 102.083 93.8955 104.384C91.2711 105.721 88.2848 106.365 84.3877 106.684C80.5023 107.001 75.6241 107 69.2002 107H38.7998C32.3759 107 27.4977 107.001 23.6123 106.684C19.7152 106.365 16.7289 105.721 14.1045 104.384C9.5886 102.083 5.91717 98.4114 3.61621 93.8955C2.27901 91.2711 1.63481 88.2848 1.31641 84.3877C0.998964 80.5023 1 75.6241 1 69.2002V38.7998C1 32.3759 0.998964 27.4977 1.31641 23.6123C1.63481 19.7152 2.27901 16.7289 3.61621 14.1045C5.91717 9.5886 9.5886 5.91717 14.1045 3.61621C16.7289 2.27901 19.7152 1.63481 23.6123 1.31641C27.4977 0.998964 32.3759 1 38.7998 1H69.2002Z" fill="url(#paint0_linear_1253_40113)"/>
<path d="M69.2002 1C75.6241 1 80.5023 0.998964 84.3877 1.31641C88.2848 1.63481 91.2711 2.27901 93.8955 3.61621C98.4114 5.91717 102.083 9.5886 104.384 14.1045C105.721 16.7289 106.365 19.7152 106.684 23.6123C107.001 27.4977 107 32.3759 107 38.7998V69.2002C107 75.6241 107.001 80.5023 106.684 84.3877C106.365 88.2848 105.721 91.2711 104.384 93.8955C102.083 98.4114 98.4114 102.083 93.8955 104.384C91.2711 105.721 88.2848 106.365 84.3877 106.684C80.5023 107.001 75.6241 107 69.2002 107H38.7998C32.3759 107 27.4977 107.001 23.6123 106.684C19.7152 106.365 16.7289 105.721 14.1045 104.384C9.5886 102.083 5.91717 98.4114 3.61621 93.8955C2.27901 91.2711 1.63481 88.2848 1.31641 84.3877C0.998964 80.5023 1 75.6241 1 69.2002V38.7998C1 32.3759 0.998964 27.4977 1.31641 23.6123C1.63481 19.7152 2.27901 16.7289 3.61621 14.1045C5.91717 9.5886 9.5886 5.91717 14.1045 3.61621C16.7289 2.27901 19.7152 1.63481 23.6123 1.31641C27.4977 0.998964 32.3759 1 38.7998 1H69.2002Z" stroke="#FFECEC" stroke-width="2"/>
<path d="M35.3333 42.334H72.6666" stroke="#FF3B30" stroke-width="2" stroke-linecap="round" stroke-linejoin="round"/>
<path d="M37.6667 42.334L40.0001 70.334C40.0001 71.5717 40.4917 72.7586 41.3669 73.6338C42.2421 74.509 43.4291 75.0007 44.6667 75.0007H63.3334C64.5711 75.0007 65.7581 74.509 66.6332 73.6338C67.5084 72.7586 68.0001 71.5717 68.0001 70.334L70.3334 42.334" stroke="#FF3B30" stroke-width="2" stroke-linecap="round" stroke-linejoin="round"/>
<path d="M47 42.3333V35.3333C47 34.7145 47.2458 34.121 47.6834 33.6834C48.121 33.2458 48.7145 33 49.3333 33H58.6667C59.2855 33 59.879 33.2458 60.3166 33.6834C60.7542 34.121 61 34.7145 61 35.3333V42.3333" stroke="#FF3B30" stroke-width="2" stroke-linecap="round" stroke-linejoin="round"/>
<path d="M49.3333 54L58.6666 63.3333M58.6666 54L49.3333 63.3333" stroke="#FF3B30" stroke-width="2" stroke-linecap="round" stroke-linejoin="round"/>
<defs>
<linearGradient id="paint0_linear_1253_40113" x1="18.9944" y1="34.5" x2="67.8079" y2="45.2133" gradientUnits="userSpaceOnUse">
<stop stop-color="white"/>
<stop offset="1" stop-color="#FFF8F8"/>
</linearGradient>
</defs>
</svg>
