<svg width="108" height="108" viewBox="0 0 108 108" fill="none" xmlns="http://www.w3.org/2000/svg">
<path d="M69.2002 1C75.6241 1 80.5023 0.998964 84.3877 1.31641C88.2848 1.63481 91.2711 2.27901 93.8955 3.61621C98.4114 5.91717 102.083 9.5886 104.384 14.1045C105.721 16.7289 106.365 19.7152 106.684 23.6123C107.001 27.4977 107 32.3759 107 38.7998V69.2002C107 75.6241 107.001 80.5023 106.684 84.3877C106.365 88.2848 105.721 91.2711 104.384 93.8955C102.083 98.4114 98.4114 102.083 93.8955 104.384C91.2711 105.721 88.2848 106.365 84.3877 106.684C80.5023 107.001 75.6241 107 69.2002 107H38.7998C32.3759 107 27.4977 107.001 23.6123 106.684C19.7152 106.365 16.7289 105.721 14.1045 104.384C9.5886 102.083 5.91717 98.4114 3.61621 93.8955C2.27901 91.2711 1.63481 88.2848 1.31641 84.3877C0.998964 80.5023 1 75.6241 1 69.2002V38.7998C1 32.3759 0.998964 27.4977 1.31641 23.6123C1.63481 19.7152 2.27901 16.7289 3.61621 14.1045C5.91717 9.5886 9.5886 5.91717 14.1045 3.61621C16.7289 2.27901 19.7152 1.63481 23.6123 1.31641C27.4977 0.998964 32.3759 1 38.7998 1H69.2002Z" fill="white"/>
<path d="M69.2002 1C75.6241 1 80.5023 0.998964 84.3877 1.31641C88.2848 1.63481 91.2711 2.27901 93.8955 3.61621C98.4114 5.91717 102.083 9.5886 104.384 14.1045C105.721 16.7289 106.365 19.7152 106.684 23.6123C107.001 27.4977 107 32.3759 107 38.7998V69.2002C107 75.6241 107.001 80.5023 106.684 84.3877C106.365 88.2848 105.721 91.2711 104.384 93.8955C102.083 98.4114 98.4114 102.083 93.8955 104.384C91.2711 105.721 88.2848 106.365 84.3877 106.684C80.5023 107.001 75.6241 107 69.2002 107H38.7998C32.3759 107 27.4977 107.001 23.6123 106.684C19.7152 106.365 16.7289 105.721 14.1045 104.384C9.5886 102.083 5.91717 98.4114 3.61621 93.8955C2.27901 91.2711 1.63481 88.2848 1.31641 84.3877C0.998964 80.5023 1 75.6241 1 69.2002V38.7998C1 32.3759 0.998964 27.4977 1.31641 23.6123C1.63481 19.7152 2.27901 16.7289 3.61621 14.1045C5.91717 9.5886 9.5886 5.91717 14.1045 3.61621C16.7289 2.27901 19.7152 1.63481 23.6123 1.31641C27.4977 0.998964 32.3759 1 38.7998 1H69.2002Z" fill="url(#paint0_linear_4002_44526)"/>
<path d="M69.2002 1C75.6241 1 80.5023 0.998964 84.3877 1.31641C88.2848 1.63481 91.2711 2.27901 93.8955 3.61621C98.4114 5.91717 102.083 9.5886 104.384 14.1045C105.721 16.7289 106.365 19.7152 106.684 23.6123C107.001 27.4977 107 32.3759 107 38.7998V69.2002C107 75.6241 107.001 80.5023 106.684 84.3877C106.365 88.2848 105.721 91.2711 104.384 93.8955C102.083 98.4114 98.4114 102.083 93.8955 104.384C91.2711 105.721 88.2848 106.365 84.3877 106.684C80.5023 107.001 75.6241 107 69.2002 107H38.7998C32.3759 107 27.4977 107.001 23.6123 106.684C19.7152 106.365 16.7289 105.721 14.1045 104.384C9.5886 102.083 5.91717 98.4114 3.61621 93.8955C2.27901 91.2711 1.63481 88.2848 1.31641 84.3877C0.998964 80.5023 1 75.6241 1 69.2002V38.7998C1 32.3759 0.998964 27.4977 1.31641 23.6123C1.63481 19.7152 2.27901 16.7289 3.61621 14.1045C5.91717 9.5886 9.5886 5.91717 14.1045 3.61621C16.7289 2.27901 19.7152 1.63481 23.6123 1.31641C27.4977 0.998964 32.3759 1 38.7998 1H69.2002Z" stroke="#D0F5E1" stroke-width="2"/>
<mask id="mask0_4002_44526" style="mask-type:luminance" maskUnits="userSpaceOnUse" x="26" y="26" width="56" height="56">
<path d="M26 26H82V82H26V26Z" fill="white"/>
</mask>
<g mask="url(#mask0_4002_44526)">
<path d="M47.8711 54V47.875C47.8711 45.95 49.4461 44.375 51.3711 44.375H60.1211" stroke="#13D16A" stroke-width="2" stroke-miterlimit="10" stroke-linecap="round" stroke-linejoin="round"/>
<path d="M73.3091 48.5669L65.3081 32.6904C64.8615 31.8377 63.7307 30.955 62.7951 30.7286L50.5817 27.7747C49.6983 27.5224 48.751 27.6276 47.9442 28.0674L33.8749 35.625C33.8749 35.625 34.2508 36.479 35.1763 38.176C36.102 39.8729 38.2282 40.4981 39.9249 39.5727L50.0374 34.8993L58.9054 37.4331L61.8711 51.8572C61.8711 55.3572 59.6121 58.8505 55.7461 58.8569C49.6307 58.8672 43.4961 48.3672 38.2461 48.3672C34.9922 48.3672 33.8711 51.8672 33.8711 51.8672C33.8711 51.8672 38.2461 57.1172 41.7461 61.4922C46.0192 66.8336 42.6211 68.5021 49.6211 74.6172V80.3594H70.6211V74.6172C70.6211 67.6172 74.0927 51.8497 74.0927 51.8497C74.2611 50.6689 73.8758 49.6492 73.3091 48.5669Z" stroke="#13D16A" stroke-width="2" stroke-miterlimit="10" stroke-linecap="round" stroke-linejoin="round"/>
</g>
<defs>
<linearGradient id="paint0_linear_4002_44526" x1="18.9944" y1="34.5" x2="67.8079" y2="45.2133" gradientUnits="userSpaceOnUse">
<stop stop-color="white"/>
<stop offset="1" stop-color="#F4FFF8"/>
</linearGradient>
</defs>
</svg>
