<svg width="104" height="104" viewBox="0 0 104 104" fill="none" xmlns="http://www.w3.org/2000/svg">
<rect width="104" height="104" rx="23" fill="white"/>
<rect width="104" height="104" rx="23" fill="url(#paint0_linear_1354_40512)"/>
<path d="M53.251 81.75C57.0521 81.7499 60.8505 80.2258 63.4814 77.5879L63.4824 77.5869C65.3494 75.736 67.3718 72.6387 68.7334 69.3086C70.0977 65.9718 70.7771 62.4531 70.0234 59.7441L70.0225 59.7422C69.3612 57.3211 67.6626 55.1513 65.4062 53.9512L65.4053 53.9502C65.2343 53.8582 65.0761 53.7655 64.959 53.6885C64.9014 53.6506 64.8491 53.6132 64.8086 53.5801C64.7891 53.5641 64.7657 53.5435 64.7451 53.5205C64.735 53.5092 64.7196 53.4909 64.7061 53.4678C64.695 53.4489 64.669 53.4001 64.6689 53.333C64.6689 53.2981 64.6763 53.2694 64.6777 53.2637C64.6806 53.2525 64.6839 53.2422 64.6865 53.2344C64.6919 53.2183 64.6989 53.1997 64.7061 53.1816C64.7205 53.1449 64.7408 53.0963 64.7656 53.0391C64.8157 52.9239 64.8877 52.7649 64.9756 52.5742L65.6621 51.126C67.8661 46.5337 70.0107 41.9268 72.2061 37.3271V37.3262C73.3569 34.8975 73.9084 33.511 74.1133 32.4912L74.1143 32.4873C74.2715 31.7702 74.2984 30.9015 74.1611 30.0684C74.0236 29.2335 73.725 28.4556 73.251 27.9004L73.249 27.8984C71.7453 26.0981 70.338 25.4593 69.0576 25.5127C67.7649 25.5666 66.5269 26.3277 65.373 27.4922C63.3519 29.532 61.6924 32.7019 60.5625 34.9844L60.1113 35.9023C59.5401 37.0736 58.8548 38.4061 58.2988 39.4463C58.021 39.9661 57.7746 40.4148 57.5898 40.7344C57.4978 40.8935 57.4196 41.0242 57.3594 41.1162C57.3299 41.1612 57.3011 41.2024 57.2754 41.2344C57.2632 41.2495 57.2458 41.2697 57.2256 41.2881C57.2155 41.2972 57.1983 41.3119 57.1758 41.3252C57.1665 41.3306 57.1497 41.3398 57.127 41.3477L57.043 41.3623C56.9037 41.3623 56.8376 41.2576 56.8281 41.2422C56.8104 41.2133 56.8032 41.1872 56.8008 41.1787C56.7949 41.1584 56.7929 41.1408 56.792 41.1338C56.7899 41.1169 56.7887 41.0985 56.7881 41.084C56.7867 41.0528 56.7855 41.0101 56.7852 40.959C56.7846 40.8556 56.7857 40.7051 56.7881 40.5156C56.7928 40.1358 56.8028 39.5913 56.8145 38.9346C56.8378 37.6204 56.8689 35.8517 56.8809 34.0312C56.8929 32.2105 56.8861 30.3404 56.835 28.8223C56.8094 28.063 56.7722 27.3946 56.7217 26.8662C56.67 26.3267 56.6063 25.9632 56.5381 25.792V25.791C55.6051 23.433 53.0776 22.0273 50.5215 22.2793H50.5205C48.3061 22.4892 46.5314 23.8386 45.7383 25.917H45.7393C45.4638 26.6476 45.3416 27.6205 45.2607 30.1328V30.1348L45.1309 32.7236C45.0832 33.5861 45.0327 34.4481 44.9814 35.3096C44.9302 36.1712 44.8787 37.0326 44.8301 37.8936L44.6963 40.4775C44.6408 41.7599 44.5922 42.7194 44.5479 43.375C44.5257 43.7021 44.5047 43.9569 44.4834 44.1396C44.4728 44.2307 44.4611 44.3082 44.4492 44.3691C44.4433 44.3995 44.4369 44.4296 44.4287 44.457C44.4219 44.48 44.4088 44.5166 44.3867 44.5527H44.3877L44.3857 44.5547V44.5557H44.3848C44.3501 44.6109 44.3041 44.6377 44.292 44.6445C44.2729 44.6553 44.2554 44.6623 44.2451 44.666C44.2239 44.6736 44.2026 44.679 44.1865 44.6826C44.1524 44.6903 44.1094 44.6973 44.0635 44.7041C43.9702 44.7178 43.842 44.7334 43.6924 44.75C43.4024 44.7822 42.9791 44.825 42.5781 44.8691C42.1647 44.9147 41.7409 44.965 41.3916 45.0195C41.217 45.0468 41.0636 45.0747 40.9414 45.1025C40.8136 45.1317 40.7394 45.1569 40.708 45.1729H40.707C39.3414 45.865 38.2251 47.1694 37.6143 48.583L37.499 48.8672C37.486 48.9021 37.4653 48.9515 37.4297 48.9961C37.3876 49.0487 37.3172 49.1037 37.2178 49.1123C37.1319 49.1197 37.0628 49.0887 37.0254 49.0684C36.9853 49.0466 36.9481 49.0183 36.917 48.9932L36.9141 48.9912C36.4548 48.6109 35.6925 48.5001 34.8584 48.5732C34.1385 48.6363 33.4158 48.8317 32.8945 49.0488L32.6846 49.1426C30.8679 50.0193 29.7403 51.9615 29.75 54.2666V54.2676C29.7501 55.8036 30.3053 57.2212 30.7969 58.7344L30.8203 58.8076L30.7988 58.8809C30.2735 60.6936 29.8521 62.4267 29.8008 64.2969V64.2979C29.7211 67.0171 30.0577 68.6556 31.1055 70.7412C33.0245 74.5639 36.6966 77.3183 40.8379 79.1182C44.9773 80.9171 49.5586 81.75 53.251 81.75ZM50.8359 53.9385C50.8136 53.9383 50.7145 53.937 50.6348 53.8584L50.624 53.8486L50.6162 53.8379C50.5965 53.8136 50.5829 53.7885 50.5781 53.7793C50.5711 53.7658 50.5639 53.7514 50.5576 53.7373C50.5447 53.7084 50.5298 53.672 50.5137 53.6309C50.4812 53.5481 50.44 53.4368 50.3936 53.3057C50.347 53.1743 50.2947 53.0216 50.2393 52.8555L50.0674 52.3242C49.2864 49.8721 48.69 47.6924 46.958 45.8682L46.8828 45.79L46.8896 45.6816C47.2054 40.2117 47.6036 34.7372 47.7666 29.2715V29.2695C47.807 28.1803 47.8776 27.4258 48.0322 26.8633C48.1911 26.2857 48.4394 25.9083 48.8193 25.5723V25.5713C50.4989 24.0899 52.8908 24.6031 54.0615 26.3438L54.1709 26.5156L54.1748 26.5215C54.2301 26.6202 54.2806 26.7177 54.3193 26.8447C54.3574 26.9698 54.3813 27.1131 54.3965 27.3066C54.4264 27.6881 54.4287 28.3149 54.4287 29.4775C54.4287 33.6085 54.273 37.7424 54.1758 41.8633V41.8643C54.095 45.0235 54.0548 46.697 54.0586 47.627C54.0624 48.5688 54.114 48.7 54.1777 48.8223H54.1787C54.3399 49.132 54.542 49.3145 54.751 49.4102C54.9614 49.5064 55.198 49.5239 55.4385 49.4717C55.927 49.3655 56.4069 48.9762 56.6328 48.4678L56.6338 48.4658C59.5044 42.1931 62.8183 36.0919 65.916 29.9424L65.9336 29.9062L65.9629 29.8779C66.3588 29.4821 66.7756 29.0124 67.249 28.6729C67.7363 28.3234 68.3065 28.0916 69.0283 28.165H69.0293C69.9282 28.2574 70.5687 28.5744 70.9883 29.0615C71.405 29.5455 71.5768 30.1666 71.6035 30.8154C71.6565 32.1033 71.1412 33.5933 70.6631 34.6514H70.6641C69.6309 36.9643 68.5277 39.2452 67.4258 41.5215C66.3233 43.799 65.2222 46.072 64.1895 48.374L64.1875 48.376L63.6738 49.46C63.4753 49.8719 63.2591 50.314 63.0566 50.7256C62.8541 51.1375 62.6646 51.5201 62.5176 51.8105C62.4442 51.9555 62.3808 52.0782 62.332 52.1709C62.2867 52.2571 62.2454 52.3326 62.2207 52.3691C62.1923 52.4122 62.1504 52.4647 62.0859 52.5039C62.0154 52.5467 61.9406 52.5608 61.8701 52.5596C61.7508 52.5573 61.6128 52.508 61.4688 52.4512L61.4648 52.4492C60.0082 51.842 58.2476 51.7577 56.4951 52.0166C54.7446 52.2752 53.0217 52.874 51.6543 53.6123C51.4703 53.7205 51.29 53.8076 51.1455 53.8633C51.0732 53.8911 51.0023 53.914 50.9414 53.9268C50.9121 53.9329 50.8748 53.9388 50.8359 53.9385ZM46.0176 60.4541C44.1692 60.4377 42.9477 58.9281 42.0889 57.2441C41.6542 56.3918 41.2988 55.4683 40.9941 54.6152C40.687 53.7552 40.4361 52.9817 40.2012 52.3936C39.9431 51.7626 39.8018 51.2293 39.7949 50.7168C39.788 50.2003 39.9179 49.7244 40.167 49.207C40.5309 48.4529 41.1483 47.777 41.8955 47.3857C42.6476 46.992 43.5385 46.8842 44.4189 47.2881L44.4199 47.2891C45.3349 47.7136 45.9005 48.3989 46.3066 49.1709C46.7066 49.9313 46.9643 50.8033 47.2432 51.5879V51.5889C48.1688 54.2127 48.6563 55.6192 48.873 56.4941C48.9822 56.9349 49.0267 57.2559 49.0205 57.5391C49.0143 57.8246 48.9566 58.0575 48.8818 58.3145C48.687 58.9814 48.3281 59.52 47.832 59.8906C47.336 60.2612 46.7169 60.4541 46.0195 60.4541H46.0176ZM37.4102 63.9619C36.6444 63.878 36.0494 63.6504 35.5391 63.1514C35.0404 62.6637 34.6409 61.9351 34.2197 60.8945V60.8926C33.864 59.9958 33.3909 58.6427 32.998 57.4346C32.8015 56.8301 32.6238 56.2596 32.4912 55.7988C32.3938 55.4604 32.3166 55.1686 32.2754 54.9648L32.2471 54.792C32.1278 53.7141 32.5323 52.565 33.2617 51.8232C33.6288 51.45 34.0844 51.1742 34.6035 51.0693C35.1251 50.964 35.6942 51.0355 36.2783 51.3301C37.1163 51.7266 37.6719 52.621 38.082 53.5254C38.2905 53.9851 38.4682 54.4629 38.6279 54.9043C38.789 55.3494 38.9284 55.7517 39.0674 56.0771L39.0684 56.0762C39.4781 57.0117 40.0358 58.0475 40.3516 59.083C40.6723 60.1348 40.7637 61.2412 40.2236 62.3594H40.2246C39.7568 63.342 38.5486 64.0865 37.4102 63.9619ZM55.2539 79.1533C51.0174 79.966 46.0287 79.1764 41.7588 77.1348C37.4904 75.0938 33.9044 71.7832 32.5205 67.5225C32.114 66.3198 32.2051 64.9121 32.2051 63.7334V63.0508L32.6455 63.5723C33.6515 64.7625 34.7442 65.7249 36.2402 66.1377L36.2412 66.1367C36.8701 66.3058 37.6475 66.3437 38.4023 66.2617C39.1575 66.1796 39.867 65.9815 40.3672 65.6963V65.6953C41.3587 65.1162 42.2638 64.0388 42.5957 63.0479L42.5967 63.0449C42.6562 62.8737 42.7914 62.7631 42.9307 62.6934C43.0703 62.6234 43.2391 62.5804 43.416 62.5547C43.7713 62.5032 44.2144 62.5135 44.6592 62.5615C45.1064 62.6098 45.5694 62.6976 45.9688 62.8096C46.3589 62.919 46.7192 63.0599 46.9375 63.2266L46.9365 63.2275C49.421 65.0628 53.0967 65.1177 56.1934 64.2646L56.8047 64.082C57.1453 63.9727 57.4513 63.9508 57.7275 64.0078C58.0043 64.065 58.2339 64.1977 58.4277 64.3711C58.803 64.7069 59.0657 65.2174 59.3027 65.6631C59.5528 66.1333 59.7767 66.5378 60.0742 66.7803C60.2162 66.8959 60.3716 66.9712 60.5527 66.9961C60.7357 67.0212 60.9626 66.9971 61.251 66.8896V66.8906C61.6876 66.7268 61.8645 66.4897 61.9229 66.2344C61.9864 65.9564 61.9217 65.6042 61.7598 65.2021C61.6 64.8057 61.3597 64.3942 61.1143 64.0117C60.8799 63.6466 60.6148 63.2706 60.46 63.0195C60.2136 62.6201 59.9553 62.1074 59.6133 61.668C59.2711 61.2285 58.9089 60.9512 58.5049 60.9512C57.7054 60.9512 56.9062 61.2446 56.0625 61.5898C55.2356 61.9282 54.3595 62.319 53.4678 62.4492L53.4668 62.4502C53.2036 62.4872 52.1539 62.5439 51.3057 62.4385C51.0919 62.4119 50.8846 62.3735 50.7021 62.3203C50.5234 62.2682 50.3484 62.196 50.2168 62.0889C50.0782 61.9759 49.974 61.8106 49.9902 61.5977C50.0052 61.4036 50.1178 61.2222 50.2754 61.0557L50.2764 61.0547C50.3379 60.9902 50.4365 60.8491 50.5576 60.6445C50.6753 60.4456 50.8047 60.2033 50.9287 59.9521C51.1807 59.4416 51.3948 58.9238 51.4531 58.6582L51.4541 58.6533C51.6013 58.0487 51.5586 57.4046 51.5586 56.7236V56.5947L51.6631 56.5195L52.0967 56.2119C54.3872 54.5765 57.6682 54.0887 60.3789 54.6289H60.3799C62.6388 55.0845 65.2693 56.2244 66.5801 58.2168L66.5791 58.2178C68.2935 60.8014 68.0816 64.1937 66.9922 67.3818C65.9002 70.5773 63.9083 73.6282 61.9697 75.583L61.9678 75.5859L61.5947 75.9404C59.7248 77.6644 57.7406 78.6689 55.2549 79.1533H55.2539Z" fill="#13D16A" stroke="white" stroke-width="0.5"/>
<defs>
<linearGradient id="paint0_linear_1354_40512" x1="16.9944" y1="32.5" x2="65.8079" y2="43.2133" gradientUnits="userSpaceOnUse">
<stop stop-color="white"/>
<stop offset="1" stop-color="#F4FFF8"/>
</linearGradient>
</defs>
</svg>
