<svg width="108" height="108" viewBox="0 0 108 108" fill="none" xmlns="http://www.w3.org/2000/svg">
<path d="M69.2002 1C75.6241 1 80.5023 0.998964 84.3877 1.31641C88.2848 1.63481 91.2711 2.27901 93.8955 3.61621C98.4114 5.91717 102.083 9.5886 104.384 14.1045C105.721 16.7289 106.365 19.7152 106.684 23.6123C107.001 27.4977 107 32.3759 107 38.7998V69.2002C107 75.6241 107.001 80.5023 106.684 84.3877C106.365 88.2848 105.721 91.2711 104.384 93.8955C102.083 98.4114 98.4114 102.083 93.8955 104.384C91.2711 105.721 88.2848 106.365 84.3877 106.684C80.5023 107.001 75.6241 107 69.2002 107H38.7998C32.3759 107 27.4977 107.001 23.6123 106.684C19.7152 106.365 16.7289 105.721 14.1045 104.384C9.5886 102.083 5.91717 98.4114 3.61621 93.8955C2.27901 91.2711 1.63481 88.2848 1.31641 84.3877C0.998964 80.5023 1 75.6241 1 69.2002V38.7998C1 32.3759 0.998964 27.4977 1.31641 23.6123C1.63481 19.7152 2.27901 16.7289 3.61621 14.1045C5.91717 9.5886 9.5886 5.91717 14.1045 3.61621C16.7289 2.27901 19.7152 1.63481 23.6123 1.31641C27.4977 0.998964 32.3759 1 38.7998 1H69.2002Z" fill="white"/>
<path d="M69.2002 1C75.6241 1 80.5023 0.998964 84.3877 1.31641C88.2848 1.63481 91.2711 2.27901 93.8955 3.61621C98.4114 5.91717 102.083 9.5886 104.384 14.1045C105.721 16.7289 106.365 19.7152 106.684 23.6123C107.001 27.4977 107 32.3759 107 38.7998V69.2002C107 75.6241 107.001 80.5023 106.684 84.3877C106.365 88.2848 105.721 91.2711 104.384 93.8955C102.083 98.4114 98.4114 102.083 93.8955 104.384C91.2711 105.721 88.2848 106.365 84.3877 106.684C80.5023 107.001 75.6241 107 69.2002 107H38.7998C32.3759 107 27.4977 107.001 23.6123 106.684C19.7152 106.365 16.7289 105.721 14.1045 104.384C9.5886 102.083 5.91717 98.4114 3.61621 93.8955C2.27901 91.2711 1.63481 88.2848 1.31641 84.3877C0.998964 80.5023 1 75.6241 1 69.2002V38.7998C1 32.3759 0.998964 27.4977 1.31641 23.6123C1.63481 19.7152 2.27901 16.7289 3.61621 14.1045C5.91717 9.5886 9.5886 5.91717 14.1045 3.61621C16.7289 2.27901 19.7152 1.63481 23.6123 1.31641C27.4977 0.998964 32.3759 1 38.7998 1H69.2002Z" fill="url(#paint0_linear_1_36310)"/>
<path d="M69.2002 1C75.6241 1 80.5023 0.998964 84.3877 1.31641C88.2848 1.63481 91.2711 2.27901 93.8955 3.61621C98.4114 5.91717 102.083 9.5886 104.384 14.1045C105.721 16.7289 106.365 19.7152 106.684 23.6123C107.001 27.4977 107 32.3759 107 38.7998V69.2002C107 75.6241 107.001 80.5023 106.684 84.3877C106.365 88.2848 105.721 91.2711 104.384 93.8955C102.083 98.4114 98.4114 102.083 93.8955 104.384C91.2711 105.721 88.2848 106.365 84.3877 106.684C80.5023 107.001 75.6241 107 69.2002 107H38.7998C32.3759 107 27.4977 107.001 23.6123 106.684C19.7152 106.365 16.7289 105.721 14.1045 104.384C9.5886 102.083 5.91717 98.4114 3.61621 93.8955C2.27901 91.2711 1.63481 88.2848 1.31641 84.3877C0.998964 80.5023 1 75.6241 1 69.2002V38.7998C1 32.3759 0.998964 27.4977 1.31641 23.6123C1.63481 19.7152 2.27901 16.7289 3.61621 14.1045C5.91717 9.5886 9.5886 5.91717 14.1045 3.61621C16.7289 2.27901 19.7152 1.63481 23.6123 1.31641C27.4977 0.998964 32.3759 1 38.7998 1H69.2002Z" stroke="#D0F5E1" stroke-width="2"/>
<path d="M76.9684 31.1777L72.2477 31.7027C68.5451 32.1143 65.0928 33.7737 62.4587 36.408L41.0059 57.8609L50.2809 67.1402L71.738 45.6874C74.3733 43.0539 76.0328 39.6013 76.4434 35.8984L76.9684 31.1777Z" stroke="#13D16A" stroke-width="2" stroke-linecap="round" stroke-linejoin="round"/>
<path d="M41.0061 57.8602L33.083 55.2177C32.8176 55.1296 32.5793 54.975 32.3905 54.7687C32.2018 54.5625 32.069 54.3113 32.0048 54.0392C31.9405 53.7671 31.947 53.4831 32.0235 53.2142C32.1001 52.9453 32.2441 52.7005 32.442 52.503L32.9495 51.9955C34.673 50.2717 36.8423 49.062 39.2146 48.5018C41.5869 47.9415 44.0683 48.053 46.3808 48.8236L49.1261 49.738L41.0061 57.8602Z" stroke="#13D16A" stroke-width="2" stroke-linecap="round" stroke-linejoin="round"/>
<path d="M41.0061 57.8602L33.083 55.2177C32.8176 55.1296 32.5793 54.975 32.3905 54.7687C32.2018 54.5625 32.069 54.3113 32.0048 54.0392C31.9405 53.7671 31.947 53.4831 32.0235 53.2142C32.1001 52.9453 32.2441 52.7005 32.442 52.503L32.9495 51.9955C34.673 50.2717 36.8423 49.062 39.2146 48.5018C41.5869 47.9415 44.0683 48.053 46.3808 48.8236L49.1261 49.738L41.0061 57.8602Z" stroke="#13D16A" stroke-width="2" stroke-linecap="round" stroke-linejoin="round"/>
<path d="M50.2812 67.1403L52.9238 75.0634C53.0119 75.3288 53.1664 75.5671 53.3727 75.7559C53.579 75.9446 53.8301 76.0774 54.1022 76.1416C54.3743 76.2059 54.6583 76.1994 54.9272 76.1229C55.1961 76.0463 55.441 75.9023 55.6384 75.7044L56.1481 75.1969C57.8715 73.4732 59.0809 71.3037 59.6407 68.9315C60.2005 66.5592 60.0887 64.0779 59.3178 61.7656L58.4078 59.0312L50.2812 67.1403Z" stroke="#13D16A" stroke-width="2" stroke-linecap="round" stroke-linejoin="round"/>
<path d="M50.2812 67.1403L52.9238 75.0634C53.0119 75.3288 53.1664 75.5671 53.3727 75.7559C53.579 75.9446 53.8301 76.0774 54.1022 76.1416C54.3743 76.2059 54.6583 76.1994 54.9272 76.1229C55.1961 76.0463 55.441 75.9023 55.6384 75.7044L56.1481 75.1969C57.8715 73.4732 59.0809 71.3037 59.6407 68.9315C60.2005 66.5592 60.0887 64.0779 59.3178 61.7656L58.4078 59.0312L50.2812 67.1403Z" stroke="#13D16A" stroke-width="2" stroke-linecap="round" stroke-linejoin="round"/>
<path d="M44.7668 68.3011C44.7676 68.9476 44.6407 69.5878 44.3933 70.1851C44.1459 70.7824 43.7829 71.3249 43.3252 71.7814C41.4046 73.702 31.7314 76.4211 31.7314 76.4211C31.7314 76.4211 34.4505 66.7414 36.3711 64.8273C37.2148 63.9816 38.3378 63.4722 39.5299 63.3945" stroke="#13D16A" stroke-width="2" stroke-linecap="round" stroke-linejoin="round"/>
<defs>
<linearGradient id="paint0_linear_1_36310" x1="18.9944" y1="34.5" x2="67.8079" y2="45.2133" gradientUnits="userSpaceOnUse">
<stop stop-color="white"/>
<stop offset="1" stop-color="#F4FFF8"/>
</linearGradient>
</defs>
</svg>
