<svg width="48" height="48" viewBox="0 0 48 48" fill="none" xmlns="http://www.w3.org/2000/svg">
<path d="M27.3992 18.0899C27.3992 18.0899 31.3467 19.0789 31.1036 23.5773C30.9778 25.9047 30.8961 29.2271 33.4274 31.1571C37.1017 33.9586 42.8609 30.6431 44.3593 38.6922L45.1823 43.2263C45.1823 43.2263 40.6988 46.5937 33.5397 46.5937C26.961 46.5937 22.8957 45.9192 17.5067 38.8118C12.1176 31.7043 6.16068 29.76 3.25828 28.8097C2.00062 26.5674 2.72784 22.0256 6.28387 20.7113C6.28387 20.7113 8.60071 12.5862 16.1306 11.2363C16.372 11.3748 16.5773 11.53 16.7541 11.6991C18.4687 13.3395 17.5071 16.297 20.8982 18.0899C24.3112 19.8946 27.3992 18.0899 27.3992 18.0899Z" stroke="#13D16A" stroke-width="1.71429" stroke-miterlimit="10"/>
<path d="M12.8267 24.8818C14.939 22.0839 17.822 18.2763 16.1309 11.2363" stroke="#13D16A" stroke-width="1.71429" stroke-miterlimit="10"/>
<path d="M6.28418 20.7109C8.90205 21.6976 14.4488 25.0298 19.415 30.9851C24.9396 37.6098 29.8317 43.5608 44.3594 38.6919" stroke="#13D16A" stroke-width="1.71429" stroke-miterlimit="10"/>
<path d="M27.3994 18.09L38.1835 1.40625H22.4422L16.1309 11.2364" stroke="#13D16A" stroke-width="1.71429" stroke-miterlimit="10"/>
<path d="M26.604 25.2148H31.0663" stroke="#13D16A" stroke-width="1.71429" stroke-miterlimit="10"/>
<path d="M27.8638 30.9746H33.1776" stroke="#13D16A" stroke-width="1.71429" stroke-miterlimit="10"/>
</svg>
