<svg width="36" height="36" viewBox="0 0 36 36" fill="none" xmlns="http://www.w3.org/2000/svg">
<rect width="36" height="36" rx="10" fill="#13A2D1"/>
<g clip-path="url(#clip0_2610_4430)">
<path d="M17.9546 22.1164V17.3747C17.9546 17.195 17.8833 17.0227 17.7562 16.8957C17.6292 16.7686 17.4569 16.6973 17.2772 16.6973H16.5999" stroke="white" stroke-width="2" stroke-linecap="round" stroke-linejoin="round"/>
<path d="M17.6158 14.695C17.4287 14.695 17.2771 14.5433 17.2771 14.3563C17.2771 14.1692 17.4287 14.0176 17.6158 14.0176" stroke="white" stroke-width="2" stroke-linecap="round" stroke-linejoin="round"/>
<path d="M17.616 14.695C17.8031 14.695 17.9547 14.5433 17.9547 14.3563C17.9547 14.1692 17.8031 14.0176 17.616 14.0176" stroke="white" stroke-width="2" stroke-linecap="round" stroke-linejoin="round"/>
<path d="M17.9999 26.6878C22.7985 26.6878 26.6886 22.7978 26.6886 17.9992C26.6886 13.2006 22.7985 9.31055 17.9999 9.31055C13.2013 9.31055 9.31128 13.2006 9.31128 17.9992C9.31128 22.7978 13.2013 26.6878 17.9999 26.6878Z" stroke="white" stroke-width="2" stroke-linecap="round" stroke-linejoin="round"/>
<path d="M16.5999 22.1172H19.4003" stroke="white" stroke-width="2" stroke-miterlimit="10" stroke-linecap="round" stroke-linejoin="round"/>
</g>
<defs>
<clipPath id="clip0_2610_4430">
<rect width="20" height="20" fill="white" transform="translate(8 8)"/>
</clipPath>
</defs>
</svg>
