<svg width="14" height="14" viewBox="0 0 14 14" fill="none" xmlns="http://www.w3.org/2000/svg">
<path fill-rule="evenodd" clip-rule="evenodd" d="M0.5 7C0.5 3.41015 3.41015 0.5 7 0.5C10.5883 0.503789 13.4962 3.41172 13.5 7C13.5 10.5899 10.5899 13.5 7 13.5C3.41015 13.5 0.5 10.5899 0.5 7ZM6.35375 9.35375L9.85375 5.85375C9.98013 5.72737 10.0295 5.54316 9.98323 5.37052C9.93697 5.19788 9.80212 5.06303 9.62948 5.01677C9.45684 4.97051 9.27263 5.01987 9.14625 5.14625L6 8.29313L4.85375 7.14625C4.65838 6.95088 4.34162 6.95088 4.14625 7.14625C3.95088 7.34162 3.95088 7.65838 4.14625 7.85375L5.64625 9.35375C5.74003 9.44764 5.8673 9.50039 6 9.50039C6.1327 9.50039 6.25997 9.44764 6.35375 9.35375Z" fill="#13D16A"/>
</svg>
