<svg width="23" height="23" viewBox="0 0 23 23" fill="none" xmlns="http://www.w3.org/2000/svg">
<path d="M15.6189 7.94267L16.9644 9.30829L11.4128 14.7775C11.0419 15.1484 10.5541 15.3333 10.0644 15.3333C9.57471 15.3333 9.08213 15.1465 8.70742 14.7727L6.04133 12.189L7.37629 10.8119L10.0529 13.4061L15.6189 7.94267ZM23 11.5C23 17.8413 17.8413 23 11.5 23C5.15871 23 0 17.8413 0 11.5C0 5.15871 5.15871 0 11.5 0C17.8413 0 23 5.15871 23 11.5ZM21.0833 11.5C21.0833 6.21575 16.7843 1.91667 11.5 1.91667C6.21575 1.91667 1.91667 6.21575 1.91667 11.5C1.91667 16.7843 6.21575 21.0833 11.5 21.0833C16.7843 21.0833 21.0833 16.7843 21.0833 11.5Z" fill="#13D16A"/>
</svg>
