<svg width="24" height="24" viewBox="0 0 24 24" fill="none" xmlns="http://www.w3.org/2000/svg">
<path d="M22 12C22 17.523 17.523 22 12 22C6.477 22 2 17.523 2 12C2 6.477 6.477 2 12 2C17.523 2 22 6.477 22 12ZM12 10C11.655 10 11.375 10.28 11.375 10.625V16.875C11.375 17.0408 11.4408 17.1997 11.5581 17.3169C11.6753 17.4342 11.8342 17.5 12 17.5C12.1658 17.5 12.3247 17.4342 12.4419 17.3169C12.5592 17.1997 12.625 17.0408 12.625 16.875V10.625C12.625 10.28 12.345 10 12 10ZM12 8.5C12.2652 8.5 12.5196 8.39464 12.7071 8.20711C12.8946 8.01957 13 7.76522 13 7.5C13 7.23478 12.8946 6.98043 12.7071 6.79289C12.5196 6.60536 12.2652 6.5 12 6.5C11.7348 6.5 11.4804 6.60536 11.2929 6.79289C11.1054 6.98043 11 7.23478 11 7.5C11 7.76522 11.1054 8.01957 11.2929 8.20711C11.4804 8.39464 11.7348 8.5 12 8.5Z" fill="#CCCFD1"/>
</svg>
