<svg width="48" height="48" viewBox="0 0 48 48" fill="none" xmlns="http://www.w3.org/2000/svg">
<rect x="0.5" y="0.5" width="47" height="47" rx="23.5" fill="#FFFEF1"/>
<rect x="0.5" y="0.5" width="47" height="47" rx="23.5" stroke="#F4E1BC"/>
<g clip-path="url(#clip0_6634_11086)">
<path d="M34.536 20.4582L27.537 13.4572C26.592 12.5132 25.337 11.9922 24.001 11.9922C22.665 11.9922 21.409 12.5132 20.465 13.4572L13.466 20.4582C11.517 22.4072 11.517 25.5782 13.466 27.5272L20.465 34.5282C21.409 35.4722 22.665 35.9932 24.001 35.9932C25.337 35.9932 26.592 35.4722 27.537 34.5282L34.536 27.5272C35.48 26.5832 36 25.3282 36 23.9932C36 22.6582 35.48 21.4022 34.536 20.4582ZM33.122 26.1132L26.123 33.1142C24.989 34.2472 23.013 34.2472 21.879 33.1142L14.88 26.1132C13.711 24.9442 13.711 23.0412 14.88 21.8722L21.879 14.8712C22.446 14.3052 23.199 13.9922 24.001 13.9922C24.803 13.9922 25.556 14.3042 26.123 14.8712L33.122 21.8722C33.688 22.4382 34 23.1912 34 23.9932C34 24.7952 33.688 25.5472 33.122 26.1132ZM25.5 28.4982C25.5 29.3262 24.828 29.9982 24 29.9982C23.172 29.9982 22.5 29.3262 22.5 28.4982C22.5 27.6702 23.172 26.9982 24 26.9982C24.828 26.9982 25.5 27.6702 25.5 28.4982ZM23 24.4982V18.9982C23 18.4452 23.448 17.9982 24 17.9982C24.552 17.9982 25 18.4452 25 18.9982V24.4982C25 25.0512 24.552 25.4982 24 25.4982C23.448 25.4982 23 25.0512 23 24.4982Z" fill="#ED8000"/>
</g>
<defs>
<clipPath id="clip0_6634_11086">
<rect width="24" height="24" fill="white" transform="translate(12 12)"/>
</clipPath>
</defs>
</svg>
