<svg width="16" height="16" viewBox="0 0 16 16" fill="none" xmlns="http://www.w3.org/2000/svg">
<path d="M10.7354 2.00693C10.9484 1.78967 11.2024 1.61679 11.4826 1.49827C11.7628 1.37975 12.0637 1.31795 12.368 1.31643C12.6722 1.31492 12.9738 1.37373 13.2551 1.48945C13.5365 1.60518 13.7922 1.77553 14.0073 1.99066C14.2225 2.20579 14.3929 2.46143 14.5086 2.7428C14.6244 3.02418 14.6832 3.3257 14.6817 3.62995C14.6803 3.9342 14.6185 4.23514 14.5 4.51537C14.3815 4.7956 14.2086 5.04957 13.9914 5.2626L13.2567 5.9986L10.0001 2.74193L10.7351 2.0066L10.7354 2.00693ZM9.41107 3.33193L2.6794 10.0643C2.42546 10.3182 2.24447 10.6357 2.1554 10.9836L1.3464 14.1453C1.32855 14.2153 1.32923 14.2888 1.34836 14.3585C1.36749 14.4282 1.40443 14.4917 1.45553 14.5428C1.50664 14.5939 1.57016 14.6308 1.63986 14.65C1.70956 14.6691 1.78303 14.6698 1.85307 14.6519L5.0154 13.8439C5.36354 13.755 5.68132 13.574 5.9354 13.3199L12.6671 6.58726L9.41107 3.33193Z" fill="#CCCFD1"/>
</svg>
