<svg width="36" height="36" viewBox="0 0 36 36" fill="none" xmlns="http://www.w3.org/2000/svg">
<circle cx="18" cy="18" r="17" fill="white" stroke="#13D16A" stroke-width="2"/>
<path d="M15.7281 14.1446C13.9093 14.1335 12.8342 15.2354 12.6817 16.2912C12.3454 18.8423 12.0769 21.1137 13.7207 21.8213C14.2389 22.0444 17.1299 19.4751 19.1689 18.9112C19.4191 17.3551 19.4059 16.5853 19.2545 15.076C19.2545 15.076 19.1753 14.6171 18.8254 14.5405C18.1031 14.3823 16.853 14.1413 15.728 14.1446L15.7281 14.1446ZM22.2673 14.3963C21.5268 14.3941 20.6598 14.4832 19.9398 14.6282C19.7766 14.661 19.6797 15.0017 19.6978 15.0925C19.8393 16.5376 19.8565 17.2287 19.6393 18.7408C23.6902 17.0506 24.0424 15.8997 23.9965 15.4032C23.9241 14.6184 23.1876 14.3991 22.2673 14.3963ZM18.9138 19.4207C17.9532 19.7775 16.9624 20.4184 16.1394 20.9958C16.6296 21.1409 17.5226 21.1578 17.9582 20.9129C18.4044 20.5264 18.7993 20.0003 18.9137 19.4207H18.9138Z" fill="#13D16A"/>
</svg>
