<svg width="68" height="68" viewBox="0 0 68 68" fill="none" xmlns="http://www.w3.org/2000/svg">
<circle cx="34" cy="34" r="34" fill="white"/>
<path d="M33.499 22.0244C36.1132 24.3854 38.3577 26.9651 39.9492 29.4219C41.5435 31.8829 42.4814 34.2187 42.4814 36.0859C42.4814 38.9999 41.5569 41.4737 39.9727 43.2188C38.3885 44.9637 36.1434 45.9814 33.5 45.9814C30.8566 45.9814 28.6115 44.9637 27.0273 43.2188C25.4431 41.4737 24.5186 38.9999 24.5186 36.0859C24.5186 34.2257 25.4507 31.895 27.042 29.4346C28.6304 26.9787 30.8735 24.3946 33.499 22.0244ZM33.4863 30.9873C29.2003 35.6625 28.9814 37.9173 28.9814 38.5566C28.9815 39.8688 29.4464 40.9847 30.2441 41.7725C31.0419 42.5601 32.1715 43.0186 33.5 43.0186C34.8285 43.0186 35.9581 42.5601 36.7559 41.7725C37.5536 40.9847 38.0185 39.8688 38.0186 38.5566C38.0186 37.9173 37.7997 35.6625 33.5137 30.9873L33.5 30.9727L33.4863 30.9873Z" fill="#B9B9B9" stroke="#B9B9B9" stroke-width="0.0375"/>
</svg>
