<svg width="156" height="156" viewBox="0 0 156 156" fill="none" xmlns="http://www.w3.org/2000/svg">
<circle cx="78" cy="78" r="78" fill="#13D16A"/>
<mask id="path-2-outside-1_6634_11205" maskUnits="userSpaceOnUse" x="31.9999" y="87" width="92" height="21" fill="black">
<rect fill="white" x="31.9999" y="87" width="92" height="21"/>
<path d="M42.7664 97.264C44.3184 98.192 45.0944 99.544 45.0944 101.32C45.0944 102.872 44.5504 104.096 43.4624 104.992C42.3904 105.888 40.9264 106.336 39.0704 106.336C37.1984 106.336 35.7264 105.888 34.6544 104.992C33.5824 104.096 33.0464 102.872 33.0464 101.32C33.0464 99.544 33.8144 98.192 35.3504 97.264C34.1824 96.416 33.5984 95.256 33.5984 93.784C33.5984 92.232 34.1184 91.024 35.1584 90.16C36.2144 89.296 37.5184 88.864 39.0704 88.864C40.6224 88.864 41.9184 89.296 42.9584 90.16C43.9984 91.024 44.5184 92.232 44.5184 93.784C44.5184 95.272 43.9344 96.432 42.7664 97.264ZM40.6304 92.512C40.2304 92.16 39.7104 91.984 39.0704 91.984C38.4304 91.984 37.9104 92.16 37.5104 92.512C37.1104 92.864 36.9104 93.344 36.9104 93.952C36.9104 94.56 37.1104 95.048 37.5104 95.416C37.9104 95.768 38.4304 95.944 39.0704 95.944C39.7104 95.944 40.2304 95.768 40.6304 95.416C41.0304 95.048 41.2304 94.56 41.2304 93.952C41.2304 93.344 41.0304 92.864 40.6304 92.512ZM37.0784 102.616C37.5904 103.016 38.2544 103.216 39.0704 103.216C39.8864 103.216 40.5424 103.016 41.0384 102.616C41.5504 102.2 41.8064 101.624 41.8064 100.888C41.8064 100.168 41.5504 99.608 41.0384 99.208C40.5424 98.792 39.8864 98.584 39.0704 98.584C38.2544 98.584 37.5904 98.792 37.0784 99.208C36.5824 99.608 36.3344 100.168 36.3344 100.888C36.3344 101.624 36.5824 102.2 37.0784 102.616ZM53.683 93.664C54.995 93.664 56.075 94.104 56.923 94.984C57.787 95.864 58.219 97.08 58.219 98.632V106H55.123V99.016C55.123 98.216 54.907 97.608 54.475 97.192C54.043 96.76 53.467 96.544 52.747 96.544C51.947 96.544 51.307 96.792 50.827 97.288C50.347 97.784 50.107 98.528 50.107 99.52V106H47.011V89.2H50.107V95.344C50.859 94.224 52.051 93.664 53.683 93.664ZM66.4065 100.24V97.264H81.1665V100.24H66.4065ZM92.8094 89.2H95.6894V106H92.3774V92.704L89.2094 93.592L88.3934 90.76L92.8094 89.2ZM97.7586 106V103.528L103.495 97.624C104.775 96.28 105.415 95.16 105.415 94.264C105.415 93.608 105.207 93.08 104.791 92.68C104.391 92.28 103.871 92.08 103.231 92.08C101.967 92.08 101.031 92.736 100.423 94.048L97.6386 92.416C98.1666 91.264 98.9266 90.384 99.9186 89.776C100.911 89.168 101.999 88.864 103.183 88.864C104.703 88.864 106.007 89.344 107.095 90.304C108.183 91.248 108.727 92.528 108.727 94.144C108.727 95.888 107.807 97.68 105.967 99.52L102.679 102.808H108.991V106H97.7586ZM117.649 93.664C118.961 93.664 120.041 94.104 120.889 94.984C121.753 95.864 122.185 97.08 122.185 98.632V106H119.089V99.016C119.089 98.216 118.873 97.608 118.441 97.192C118.009 96.76 117.433 96.544 116.713 96.544C115.913 96.544 115.273 96.792 114.793 97.288C114.313 97.784 114.073 98.528 114.073 99.52V106H110.977V89.2H114.073V95.344C114.825 94.224 116.017 93.664 117.649 93.664Z"/>
</mask>
<path d="M42.7664 97.264C44.3184 98.192 45.0944 99.544 45.0944 101.32C45.0944 102.872 44.5504 104.096 43.4624 104.992C42.3904 105.888 40.9264 106.336 39.0704 106.336C37.1984 106.336 35.7264 105.888 34.6544 104.992C33.5824 104.096 33.0464 102.872 33.0464 101.32C33.0464 99.544 33.8144 98.192 35.3504 97.264C34.1824 96.416 33.5984 95.256 33.5984 93.784C33.5984 92.232 34.1184 91.024 35.1584 90.16C36.2144 89.296 37.5184 88.864 39.0704 88.864C40.6224 88.864 41.9184 89.296 42.9584 90.16C43.9984 91.024 44.5184 92.232 44.5184 93.784C44.5184 95.272 43.9344 96.432 42.7664 97.264ZM40.6304 92.512C40.2304 92.16 39.7104 91.984 39.0704 91.984C38.4304 91.984 37.9104 92.16 37.5104 92.512C37.1104 92.864 36.9104 93.344 36.9104 93.952C36.9104 94.56 37.1104 95.048 37.5104 95.416C37.9104 95.768 38.4304 95.944 39.0704 95.944C39.7104 95.944 40.2304 95.768 40.6304 95.416C41.0304 95.048 41.2304 94.56 41.2304 93.952C41.2304 93.344 41.0304 92.864 40.6304 92.512ZM37.0784 102.616C37.5904 103.016 38.2544 103.216 39.0704 103.216C39.8864 103.216 40.5424 103.016 41.0384 102.616C41.5504 102.2 41.8064 101.624 41.8064 100.888C41.8064 100.168 41.5504 99.608 41.0384 99.208C40.5424 98.792 39.8864 98.584 39.0704 98.584C38.2544 98.584 37.5904 98.792 37.0784 99.208C36.5824 99.608 36.3344 100.168 36.3344 100.888C36.3344 101.624 36.5824 102.2 37.0784 102.616ZM53.683 93.664C54.995 93.664 56.075 94.104 56.923 94.984C57.787 95.864 58.219 97.08 58.219 98.632V106H55.123V99.016C55.123 98.216 54.907 97.608 54.475 97.192C54.043 96.76 53.467 96.544 52.747 96.544C51.947 96.544 51.307 96.792 50.827 97.288C50.347 97.784 50.107 98.528 50.107 99.52V106H47.011V89.2H50.107V95.344C50.859 94.224 52.051 93.664 53.683 93.664ZM66.4065 100.24V97.264H81.1665V100.24H66.4065ZM92.8094 89.2H95.6894V106H92.3774V92.704L89.2094 93.592L88.3934 90.76L92.8094 89.2ZM97.7586 106V103.528L103.495 97.624C104.775 96.28 105.415 95.16 105.415 94.264C105.415 93.608 105.207 93.08 104.791 92.68C104.391 92.28 103.871 92.08 103.231 92.08C101.967 92.08 101.031 92.736 100.423 94.048L97.6386 92.416C98.1666 91.264 98.9266 90.384 99.9186 89.776C100.911 89.168 101.999 88.864 103.183 88.864C104.703 88.864 106.007 89.344 107.095 90.304C108.183 91.248 108.727 92.528 108.727 94.144C108.727 95.888 107.807 97.68 105.967 99.52L102.679 102.808H108.991V106H97.7586ZM117.649 93.664C118.961 93.664 120.041 94.104 120.889 94.984C121.753 95.864 122.185 97.08 122.185 98.632V106H119.089V99.016C119.089 98.216 118.873 97.608 118.441 97.192C118.009 96.76 117.433 96.544 116.713 96.544C115.913 96.544 115.273 96.792 114.793 97.288C114.313 97.784 114.073 98.528 114.073 99.52V106H110.977V89.2H114.073V95.344C114.825 94.224 116.017 93.664 117.649 93.664Z" fill="white"/>
<path d="M42.7664 97.264L42.1862 96.4495L40.9401 97.3371L42.2532 98.1223L42.7664 97.264ZM43.4624 104.992L42.8266 104.22L42.8211 104.225L43.4624 104.992ZM34.6544 104.992L34.0131 105.759V105.759L34.6544 104.992ZM35.3504 97.264L35.8675 98.1199L37.1577 97.3404L35.9379 96.4548L35.3504 97.264ZM35.1584 90.16L34.5251 89.386L34.5193 89.3908L35.1584 90.16ZM42.9584 90.16L42.3193 90.9292H42.3193L42.9584 90.16ZM37.5104 95.416L36.8333 96.1519L36.8414 96.1594L36.8497 96.1667L37.5104 95.416ZM40.6304 95.416L41.291 96.1667L41.2993 96.1594L41.3074 96.1519L40.6304 95.416ZM37.0784 102.616L36.4357 103.382L36.449 103.393L36.4627 103.404L37.0784 102.616ZM41.0384 102.616L41.6661 103.394L41.669 103.392L41.0384 102.616ZM41.0384 99.208L40.3957 99.9742L40.409 99.9853L40.4227 99.996L41.0384 99.208ZM37.0784 99.208L37.7061 99.9864L37.709 99.9841L37.0784 99.208ZM42.2532 98.1223C43.51 98.8738 44.0944 99.9036 44.0944 101.32H46.0944C46.0944 99.1844 45.1267 97.5102 43.2796 96.4057L42.2532 98.1223ZM44.0944 101.32C44.0944 102.607 43.6588 103.535 42.8267 104.22L44.0981 105.764C45.442 104.657 46.0944 103.137 46.0944 101.32H44.0944ZM42.8211 104.225C41.9806 104.927 40.7695 105.336 39.0704 105.336V107.336C41.0832 107.336 42.8001 106.849 44.1037 105.759L42.8211 104.225ZM39.0704 105.336C37.3527 105.336 36.1347 104.926 35.2957 104.225L34.0131 105.759C35.3181 106.85 37.044 107.336 39.0704 107.336V105.336ZM35.2957 104.225C34.478 103.541 34.0464 102.613 34.0464 101.32H32.0464C32.0464 103.131 32.6867 104.651 34.0131 105.759L35.2957 104.225ZM34.0464 101.32C34.0464 99.8987 34.6273 98.8692 35.8675 98.1199L34.8332 96.4081C33.0014 97.5148 32.0464 99.1893 32.0464 101.32H34.0464ZM35.9379 96.4548C35.035 95.7993 34.5984 94.9433 34.5984 93.784H32.5984C32.5984 95.5687 33.3297 97.0327 34.7628 98.0732L35.9379 96.4548ZM34.5984 93.784C34.5984 92.4801 35.0214 91.5739 35.7974 90.9292L34.5193 89.3908C33.2153 90.4741 32.5984 91.9839 32.5984 93.784H34.5984ZM35.7916 90.934C36.6446 90.2361 37.7157 89.864 39.0704 89.864V87.864C37.3211 87.864 35.7841 88.3559 34.5251 89.386L35.7916 90.934ZM39.0704 89.864C40.4254 89.864 41.4851 90.2361 42.3193 90.9292L43.5974 89.3908C42.3517 88.3559 40.8193 87.864 39.0704 87.864V89.864ZM42.3193 90.9292C43.0953 91.5739 43.5184 92.4801 43.5184 93.784H45.5184C45.5184 91.9839 44.9014 90.4741 43.5974 89.3908L42.3193 90.9292ZM43.5184 93.784C43.5184 94.963 43.0792 95.8134 42.1862 96.4495L43.3465 98.0785C44.7895 97.0506 45.5184 95.581 45.5184 93.784H43.5184ZM41.291 91.7613C40.6732 91.2177 39.9022 90.984 39.0704 90.984V92.984C39.5185 92.984 39.7875 93.1023 39.9697 93.2627L41.291 91.7613ZM39.0704 90.984C38.2385 90.984 37.4675 91.2177 36.8497 91.7613L38.171 93.2627C38.3532 93.1023 38.6222 92.984 39.0704 92.984V90.984ZM36.8497 91.7613C36.2024 92.331 35.9104 93.1016 35.9104 93.952H37.9104C37.9104 93.5864 38.0184 93.397 38.171 93.2627L36.8497 91.7613ZM35.9104 93.952C35.9104 94.8029 36.2019 95.571 36.8333 96.1519L38.1874 94.6801C38.0188 94.525 37.9104 94.3171 37.9104 93.952H35.9104ZM36.8497 96.1667C37.4675 96.7103 38.2385 96.944 39.0704 96.944V94.944C38.6222 94.944 38.3532 94.8257 38.171 94.6653L36.8497 96.1667ZM39.0704 96.944C39.9022 96.944 40.6732 96.7103 41.291 96.1667L39.9697 94.6653C39.7875 94.8257 39.5185 94.944 39.0704 94.944V96.944ZM41.3074 96.1519C41.9388 95.571 42.2304 94.8029 42.2304 93.952H40.2304C40.2304 94.3171 40.1219 94.525 39.9533 94.6801L41.3074 96.1519ZM42.2304 93.952C42.2304 93.1016 41.9384 92.331 41.291 91.7613L39.9697 93.2627C40.1224 93.397 40.2304 93.5864 40.2304 93.952H42.2304ZM36.4627 103.404C37.1915 103.973 38.0894 104.216 39.0704 104.216V102.216C38.4193 102.216 37.9893 102.059 37.694 101.828L36.4627 103.404ZM39.0704 104.216C40.0497 104.216 40.9475 103.974 41.6661 103.394L40.4106 101.838C40.1372 102.058 39.7231 102.216 39.0704 102.216V104.216ZM41.669 103.392C42.4437 102.763 42.8064 101.886 42.8064 100.888H40.8064C40.8064 101.362 40.6571 101.637 40.4078 101.84L41.669 103.392ZM42.8064 100.888C42.8064 99.8982 42.4371 99.0318 41.654 98.42L40.4227 99.996C40.6636 100.184 40.8064 100.438 40.8064 100.888H42.8064ZM41.681 98.4418C40.962 97.8388 40.0585 97.584 39.0704 97.584V99.584C39.7142 99.584 40.1227 99.7452 40.3957 99.9742L41.681 98.4418ZM39.0704 97.584C38.0807 97.584 37.1771 97.8393 36.4478 98.4319L37.709 99.9841C38.0036 99.7447 38.428 99.584 39.0704 99.584V97.584ZM36.4506 98.4296C35.6867 99.0457 35.3344 99.91 35.3344 100.888H37.3344C37.3344 100.426 37.478 100.17 37.7061 99.9864L36.4506 98.4296ZM35.3344 100.888C35.3344 101.874 35.6806 102.749 36.4357 103.382L37.721 101.85C37.4841 101.651 37.3344 101.374 37.3344 100.888H35.3344ZM56.923 94.984L56.2029 95.6779L56.2094 95.6846L56.923 94.984ZM58.219 106V107H59.219V106H58.219ZM55.123 106H54.123V107H55.123V106ZM54.475 97.192L53.7679 97.8991L53.7745 97.9058L53.7813 97.9123L54.475 97.192ZM50.827 97.288L51.5456 97.9834V97.9834L50.827 97.288ZM50.107 106V107H51.107V106H50.107ZM47.011 106H46.011V107H47.011V106ZM47.011 89.2V88.2H46.011V89.2H47.011ZM50.107 89.2H51.107V88.2H50.107V89.2ZM50.107 95.344H49.107V98.6273L50.9372 95.9014L50.107 95.344ZM53.683 94.664C54.7456 94.664 55.5583 95.0089 56.2029 95.6779L57.6431 94.2901C56.5917 93.1991 55.2444 92.664 53.683 92.664V94.664ZM56.2094 95.6846C56.8454 96.3323 57.219 97.2709 57.219 98.632H59.219C59.219 96.8891 58.7286 95.3957 57.6366 94.2834L56.2094 95.6846ZM57.219 98.632V106H59.219V98.632H57.219ZM58.219 105H55.123V107H58.219V105ZM56.123 106V99.016H54.123V106H56.123ZM56.123 99.016C56.123 98.0385 55.8552 97.1329 55.1686 96.4717L53.7813 97.9123C53.9587 98.0831 54.123 98.3935 54.123 99.016H56.123ZM55.1821 96.4849C54.5294 95.8322 53.6812 95.544 52.747 95.544V97.544C53.2527 97.544 53.5566 97.6878 53.7679 97.8991L55.1821 96.4849ZM52.747 95.544C51.7229 95.544 50.807 95.8706 50.1084 96.5926L51.5456 97.9834C51.8069 97.7134 52.171 97.544 52.747 97.544V95.544ZM50.1084 96.5926C49.382 97.3432 49.107 98.3819 49.107 99.52H51.107C51.107 98.6741 51.312 98.2248 51.5456 97.9834L50.1084 96.5926ZM49.107 99.52V106H51.107V99.52H49.107ZM50.107 105H47.011V107H50.107V105ZM48.011 106V89.2H46.011V106H48.011ZM47.011 90.2H50.107V88.2H47.011V90.2ZM49.107 89.2V95.344H51.107V89.2H49.107ZM50.9372 95.9014C51.4629 95.1184 52.3042 94.664 53.683 94.664V92.664C51.7978 92.664 50.255 93.3296 49.2768 94.7866L50.9372 95.9014ZM66.4065 100.24H65.4065V101.24H66.4065V100.24ZM66.4065 97.264V96.264H65.4065V97.264H66.4065ZM81.1665 97.264H82.1665V96.264H81.1665V97.264ZM81.1665 100.24V101.24H82.1665V100.24H81.1665ZM67.4065 100.24V97.264H65.4065V100.24H67.4065ZM66.4065 98.264H81.1665V96.264H66.4065V98.264ZM80.1665 97.264V100.24H82.1665V97.264H80.1665ZM81.1665 99.24H66.4065V101.24H81.1665V99.24ZM92.8094 89.2V88.2H92.6379L92.4763 88.2571L92.8094 89.2ZM95.6894 89.2H96.6894V88.2H95.6894V89.2ZM95.6894 106V107H96.6894V106H95.6894ZM92.3774 106H91.3774V107H92.3774V106ZM92.3774 92.704H93.3774V91.3852L92.1075 91.7411L92.3774 92.704ZM89.2094 93.592L88.2485 93.8689L88.5233 94.8228L89.4793 94.5549L89.2094 93.592ZM88.3934 90.76L88.0603 89.8171L87.1715 90.1311L87.4325 91.0369L88.3934 90.76ZM92.8094 90.2H95.6894V88.2H92.8094V90.2ZM94.6894 89.2V106H96.6894V89.2H94.6894ZM95.6894 105H92.3774V107H95.6894V105ZM93.3774 106V92.704H91.3774V106H93.3774ZM92.1075 91.7411L88.9395 92.6291L89.4793 94.5549L92.6473 93.6669L92.1075 91.7411ZM90.1703 93.3151L89.3543 90.4831L87.4325 91.0369L88.2485 93.8689L90.1703 93.3151ZM88.7265 91.7029L93.1425 90.1429L92.4763 88.2571L88.0603 89.8171L88.7265 91.7029ZM97.7586 106H96.7586V107H97.7586V106ZM97.7586 103.528L97.0414 102.831L96.7586 103.122V103.528H97.7586ZM103.495 97.624L104.212 98.3209L104.219 98.3137L103.495 97.624ZM104.791 92.68L104.084 93.3871L104.09 93.394L104.098 93.4008L104.791 92.68ZM100.423 94.048L99.9169 94.9107L100.867 95.4676L101.33 94.4685L100.423 94.048ZM97.6386 92.416L96.7295 91.9993L96.3528 92.8214L97.1329 93.2787L97.6386 92.416ZM99.9186 89.776L99.396 88.9234V88.9234L99.9186 89.776ZM107.095 90.304L106.433 91.0539L106.439 91.0593L107.095 90.304ZM102.679 102.808L101.972 102.101L100.264 103.808H102.679V102.808ZM108.991 102.808H109.991V101.808H108.991V102.808ZM108.991 106V107H109.991V106H108.991ZM98.7586 106V103.528H96.7586V106H98.7586ZM98.4758 104.225L104.212 98.3208L102.777 96.9272L97.0414 102.831L98.4758 104.225ZM104.219 98.3137C104.892 97.6064 105.43 96.9254 105.803 96.2721C106.174 95.6235 106.415 94.946 106.415 94.264H104.415C104.415 94.478 104.336 94.8085 104.066 95.2799C103.8 95.7466 103.377 96.2976 102.77 96.9343L104.219 98.3137ZM106.415 94.264C106.415 93.3767 106.123 92.5742 105.484 91.9592L104.098 93.4008C104.29 93.5858 104.415 93.8393 104.415 94.264H106.415ZM105.498 91.9729C104.885 91.3601 104.098 91.08 103.231 91.08V93.08C103.643 93.08 103.896 93.1999 104.084 93.3871L105.498 91.9729ZM103.231 91.08C102.416 91.08 101.661 91.2948 101.007 91.7531C100.361 92.2057 99.874 92.8534 99.5153 93.6275L101.33 94.4685C101.579 93.9306 101.864 93.5943 102.155 93.3909C102.437 93.1932 102.781 93.08 103.231 93.08V91.08ZM100.928 93.1853L98.1443 91.5533L97.1329 93.2787L99.9169 94.9107L100.928 93.1853ZM98.5477 92.8327C99.0007 91.8443 99.6335 91.1236 100.441 90.6286L99.396 88.9234C98.2197 89.6444 97.3326 90.6837 96.7295 91.9993L98.5477 92.8327ZM100.441 90.6286C101.273 90.1188 102.18 89.864 103.183 89.864V87.864C101.818 87.864 100.548 88.2172 99.396 88.9234L100.441 90.6286ZM103.183 89.864C104.472 89.864 105.537 90.2632 106.433 91.0538L107.756 89.5542C106.476 88.4248 104.934 87.864 103.183 87.864V89.864ZM106.439 91.0593C107.28 91.7889 107.727 92.7783 107.727 94.144H109.727C109.727 92.2777 109.085 90.7071 107.75 89.5487L106.439 91.0593ZM107.727 94.144C107.727 95.5167 107.003 97.069 105.26 98.8129L106.674 100.227C108.61 98.291 109.727 96.2593 109.727 94.144H107.727ZM105.26 98.8129L101.972 102.101L103.386 103.515L106.674 100.227L105.26 98.8129ZM102.679 103.808H108.991V101.808H102.679V103.808ZM107.991 102.808V106H109.991V102.808H107.991ZM108.991 105H97.7586V107H108.991V105ZM120.889 94.984L120.169 95.6779L120.175 95.6846L120.889 94.984ZM122.185 106V107H123.185V106H122.185ZM119.089 106H118.089V107H119.089V106ZM118.441 97.192L117.733 97.8991L117.74 97.9058L117.747 97.9123L118.441 97.192ZM114.793 97.288L115.511 97.9834V97.9834L114.793 97.288ZM114.073 106V107H115.073V106H114.073ZM110.977 106H109.977V107H110.977V106ZM110.977 89.2V88.2H109.977V89.2H110.977ZM114.073 89.2H115.073V88.2H114.073V89.2ZM114.073 95.344H113.073V98.6273L114.903 95.9014L114.073 95.344ZM117.649 94.664C118.711 94.664 119.524 95.0089 120.169 95.6779L121.609 94.2901C120.557 93.1991 119.21 92.664 117.649 92.664V94.664ZM120.175 95.6846C120.811 96.3323 121.185 97.2709 121.185 98.632H123.185C123.185 96.8891 122.694 95.3957 121.602 94.2834L120.175 95.6846ZM121.185 98.632V106H123.185V98.632H121.185ZM122.185 105H119.089V107H122.185V105ZM120.089 106V99.016H118.089V106H120.089ZM120.089 99.016C120.089 98.0385 119.821 97.1329 119.134 96.4717L117.747 97.9123C117.924 98.0831 118.089 98.3935 118.089 99.016H120.089ZM119.148 96.4849C118.495 95.8322 117.647 95.544 116.713 95.544V97.544C117.218 97.544 117.522 97.6878 117.733 97.8991L119.148 96.4849ZM116.713 95.544C115.689 95.544 114.773 95.8706 114.074 96.5926L115.511 97.9834C115.773 97.7134 116.137 97.544 116.713 97.544V95.544ZM114.074 96.5926C113.348 97.3432 113.073 98.3819 113.073 99.52H115.073C115.073 98.6741 115.278 98.2248 115.511 97.9834L114.074 96.5926ZM113.073 99.52V106H115.073V99.52H113.073ZM114.073 105H110.977V107H114.073V105ZM111.977 106V89.2H109.977V106H111.977ZM110.977 90.2H114.073V88.2H110.977V90.2ZM113.073 89.2V95.344H115.073V89.2H113.073ZM114.903 95.9014C115.429 95.1184 116.27 94.664 117.649 94.664V92.664C115.763 92.664 114.221 93.3296 113.242 94.7866L114.903 95.9014Z" fill="white" fill-opacity="0.1" mask="url(#path-2-outside-1_6634_11205)"/>
<path d="M78.5 30C69.4341 38.1119 63 47.6893 63 54.0635C63 64.0332 69.3776 71 78.5 71C87.6224 71 94 64.0332 94 54.0635C94 47.6652 87.5255 38.0799 78.5 30ZM78.5 65.875C73.9388 65.875 70.75 62.752 70.75 58.2836C70.75 57.2025 71.1214 53.3588 78.5 45.375C85.8786 53.3588 86.25 57.2025 86.25 58.2836C86.25 62.752 83.0612 65.875 78.5 65.875Z" fill="white"/>
</svg>
