<svg width="40" height="40" viewBox="0 0 40 40" fill="none" xmlns="http://www.w3.org/2000/svg">
<circle cx="20" cy="20" r="20" fill="#13D16A"/>
<path d="M17.4757 15.7149C15.4548 15.7026 14.2603 16.9269 14.0908 18.1C13.7172 20.9346 13.4188 23.4584 15.2452 24.2446C15.8211 24.4925 19.0333 21.6377 21.2988 21.0111C21.5768 19.2821 21.5621 18.4269 21.3939 16.7498C21.3939 16.7498 21.3059 16.24 20.9171 16.1548C20.1145 15.979 18.7256 15.7113 17.4756 15.715L17.4757 15.7149ZM24.7415 15.9946C23.9187 15.9921 22.9554 16.0911 22.1553 16.2522C21.974 16.2887 21.8664 16.6672 21.8864 16.7681C22.0437 18.3739 22.0628 19.1417 21.8215 20.8218C26.3225 18.9439 26.7138 17.665 26.6628 17.1133C26.5824 16.2414 25.764 15.9977 24.7415 15.9946ZM21.0153 21.5772C19.948 21.9737 18.8472 22.6858 17.9327 23.3274C18.4774 23.4886 19.4695 23.5074 19.9536 23.2353C20.4493 22.8058 20.8882 22.2213 21.0153 21.5772H21.0153Z" fill="white"/>
</svg>
