<svg width="68" height="68" viewBox="0 0 68 68" fill="none" xmlns="http://www.w3.org/2000/svg">
<circle cx="34" cy="34" r="34" fill="white"/>
<path d="M28.903 25.5547C30.8516 25.5479 33.0588 26.0498 34.4186 26.4072C34.435 26.4319 34.4575 26.4705 34.4811 26.5264C34.5141 26.6044 34.5387 26.6859 34.5544 26.751C34.5599 26.7741 34.5633 26.7935 34.5661 26.8076C34.8281 29.9787 34.859 31.6581 34.4782 34.7305C33.5709 35.1133 32.637 35.669 31.7429 36.2744C30.6396 37.0214 29.539 37.8815 28.5534 38.665C27.5504 39.4624 26.6897 40.1609 26.0114 40.6377C25.7155 40.8457 25.4889 40.9839 25.3268 41.0664C24.4025 40.4506 23.8811 39.2476 23.7204 37.2783C23.5478 35.1637 23.8179 32.5101 24.1384 29.5684C24.3793 27.5939 26.0377 25.5358 28.8874 25.5547H28.903ZM41.2468 26.1299C42.0514 26.1328 42.6176 26.2561 42.9694 26.4678C43.2499 26.6367 43.4742 26.9046 43.5202 27.5068C43.5526 27.9311 43.4687 29.9655 37.4714 33.2988C37.6732 30.9393 37.6128 29.347 37.3952 26.6562C37.3958 26.6523 37.3963 26.6477 37.3972 26.6426C37.4014 26.6169 37.4107 26.5876 37.4186 26.5566C38.6352 26.2885 40.0431 26.1256 41.2468 26.1299Z" fill="#B9B9B9" stroke="#B9B9B9" stroke-width="2"/>
</svg>
