<svg width="40" height="40" viewBox="0 0 40 40" fill="none" xmlns="http://www.w3.org/2000/svg">
<circle cx="20" cy="20" r="20" fill="#13D16A"/>
<path fill-rule="evenodd" clip-rule="evenodd" d="M20 10C14.4772 10 10 14.4771 10 20C10 25.5228 14.4772 30 20 30C25.5229 30 30 25.5228 30 20C30 14.4771 25.5228 10 20 10ZM11.4344 20C11.4344 15.2694 15.2694 11.4344 20 11.4344C24.7306 11.4344 28.5656 15.2694 28.5656 20C28.5656 24.7305 24.7306 28.5656 20 28.5656C15.2694 28.5656 11.4344 24.7305 11.4344 20ZM20.7548 15.4705C20.7548 15.0535 20.4168 14.7155 19.9999 14.7155C19.5829 14.7155 19.2449 15.0535 19.2449 15.4705V20.0002C19.2449 20.2005 19.3245 20.3925 19.466 20.5341L22.4859 23.5539C22.7807 23.8487 23.2587 23.8487 23.5536 23.5539C23.8484 23.2591 23.8484 22.7811 23.5536 22.4862L20.7548 19.6875V15.4705Z" fill="white"/>
</svg>
