<svg width="156" height="156" viewBox="0 0 156 156" fill="none" xmlns="http://www.w3.org/2000/svg">
<circle cx="78" cy="78" r="78" fill="#13D16A"/>
<mask id="path-2-outside-1_6634_11174" maskUnits="userSpaceOnUse" x="35" y="87" width="86" height="21" fill="black">
<rect fill="white" x="35" y="87" width="86" height="21"/>
<path d="M42.9808 106.336C40.8848 106.336 39.2368 105.544 38.0368 103.96C36.8528 102.36 36.2608 100.24 36.2608 97.6C36.2608 94.96 36.8528 92.848 38.0368 91.264C39.2368 89.664 40.8848 88.864 42.9808 88.864C45.0928 88.864 46.7408 89.664 47.9248 91.264C49.1088 92.848 49.7008 94.96 49.7008 97.6C49.7008 100.24 49.1088 102.36 47.9248 103.96C46.7408 105.544 45.0928 106.336 42.9808 106.336ZM40.4368 101.704C41.0128 102.632 41.8608 103.096 42.9808 103.096C44.1008 103.096 44.9488 102.624 45.5248 101.68C46.1168 100.736 46.4128 99.376 46.4128 97.6C46.4128 95.808 46.1168 94.44 45.5248 93.496C44.9488 92.552 44.1008 92.08 42.9808 92.08C41.8608 92.08 41.0128 92.552 40.4368 93.496C39.8608 94.44 39.5728 95.808 39.5728 97.6C39.5728 99.392 39.8608 100.76 40.4368 101.704ZM58.326 93.664C59.638 93.664 60.718 94.104 61.566 94.984C62.43 95.864 62.862 97.08 62.862 98.632V106H59.766V99.016C59.766 98.216 59.55 97.608 59.118 97.192C58.686 96.76 58.11 96.544 57.39 96.544C56.59 96.544 55.95 96.792 55.47 97.288C54.99 97.784 54.75 98.528 54.75 99.52V106H51.654V89.2H54.75V95.344C55.502 94.224 56.694 93.664 58.326 93.664ZM71.0496 100.24V97.264H85.8096V100.24H71.0496ZM106.356 100.072V103.144H104.556V106H101.22V103.144H93.2764V100.072L98.8684 89.2H102.42L96.8524 100.072H101.22V96.088H104.556V100.072H106.356ZM114.482 93.664C115.794 93.664 116.874 94.104 117.722 94.984C118.586 95.864 119.018 97.08 119.018 98.632V106H115.922V99.016C115.922 98.216 115.706 97.608 115.274 97.192C114.842 96.76 114.266 96.544 113.546 96.544C112.746 96.544 112.106 96.792 111.626 97.288C111.146 97.784 110.906 98.528 110.906 99.52V106H107.81V89.2H110.906V95.344C111.658 94.224 112.85 93.664 114.482 93.664Z"/>
</mask>
<path d="M42.9808 106.336C40.8848 106.336 39.2368 105.544 38.0368 103.96C36.8528 102.36 36.2608 100.24 36.2608 97.6C36.2608 94.96 36.8528 92.848 38.0368 91.264C39.2368 89.664 40.8848 88.864 42.9808 88.864C45.0928 88.864 46.7408 89.664 47.9248 91.264C49.1088 92.848 49.7008 94.96 49.7008 97.6C49.7008 100.24 49.1088 102.36 47.9248 103.96C46.7408 105.544 45.0928 106.336 42.9808 106.336ZM40.4368 101.704C41.0128 102.632 41.8608 103.096 42.9808 103.096C44.1008 103.096 44.9488 102.624 45.5248 101.68C46.1168 100.736 46.4128 99.376 46.4128 97.6C46.4128 95.808 46.1168 94.44 45.5248 93.496C44.9488 92.552 44.1008 92.08 42.9808 92.08C41.8608 92.08 41.0128 92.552 40.4368 93.496C39.8608 94.44 39.5728 95.808 39.5728 97.6C39.5728 99.392 39.8608 100.76 40.4368 101.704ZM58.326 93.664C59.638 93.664 60.718 94.104 61.566 94.984C62.43 95.864 62.862 97.08 62.862 98.632V106H59.766V99.016C59.766 98.216 59.55 97.608 59.118 97.192C58.686 96.76 58.11 96.544 57.39 96.544C56.59 96.544 55.95 96.792 55.47 97.288C54.99 97.784 54.75 98.528 54.75 99.52V106H51.654V89.2H54.75V95.344C55.502 94.224 56.694 93.664 58.326 93.664ZM71.0496 100.24V97.264H85.8096V100.24H71.0496ZM106.356 100.072V103.144H104.556V106H101.22V103.144H93.2764V100.072L98.8684 89.2H102.42L96.8524 100.072H101.22V96.088H104.556V100.072H106.356ZM114.482 93.664C115.794 93.664 116.874 94.104 117.722 94.984C118.586 95.864 119.018 97.08 119.018 98.632V106H115.922V99.016C115.922 98.216 115.706 97.608 115.274 97.192C114.842 96.76 114.266 96.544 113.546 96.544C112.746 96.544 112.106 96.792 111.626 97.288C111.146 97.784 110.906 98.528 110.906 99.52V106H107.81V89.2H110.906V95.344C111.658 94.224 112.85 93.664 114.482 93.664Z" fill="white"/>
<path d="M38.0368 103.96L37.2329 104.555L37.2397 104.564L38.0368 103.96ZM38.0368 91.264L37.2368 90.664L37.2359 90.6653L38.0368 91.264ZM47.9248 91.264L47.121 91.8588L47.1239 91.8627L47.9248 91.264ZM47.9248 103.96L48.7258 104.559L48.7287 104.555L47.9248 103.96ZM40.4368 101.704L39.5832 102.225L39.5872 102.231L40.4368 101.704ZM45.5248 101.68L44.6776 101.149L44.6712 101.159L45.5248 101.68ZM45.5248 93.496L44.6711 94.0169L44.6776 94.0273L45.5248 93.496ZM42.9808 105.336C41.1779 105.336 39.8331 104.675 38.8339 103.356L37.2397 104.564C38.6405 106.413 40.5917 107.336 42.9808 107.336V105.336ZM38.8407 103.365C37.82 101.986 37.2608 100.095 37.2608 97.6H35.2608C35.2608 100.385 35.8857 102.734 37.233 104.555L38.8407 103.365ZM37.2608 97.6C37.2608 95.1041 37.8202 93.2241 38.8378 91.8627L37.2359 90.6653C35.8855 92.4719 35.2608 94.8159 35.2608 97.6H37.2608ZM38.8368 91.864C39.8376 90.5296 41.1819 89.864 42.9808 89.864V87.864C40.5877 87.864 38.636 88.7984 37.2368 90.664L38.8368 91.864ZM42.9808 89.864C44.7984 89.864 46.1386 90.5313 47.121 91.8588L48.7287 90.6692C47.343 88.7967 45.3872 87.864 42.9808 87.864V89.864ZM47.1239 91.8627C48.1415 93.2241 48.7008 95.1041 48.7008 97.6H50.7008C50.7008 94.8159 50.0762 92.4719 48.7258 90.6653L47.1239 91.8627ZM48.7008 97.6C48.7008 100.095 48.1417 101.986 47.121 103.365L48.7287 104.555C50.076 102.734 50.7008 100.385 50.7008 97.6H48.7008ZM47.1239 103.361C46.1431 104.673 44.8025 105.336 42.9808 105.336V107.336C45.3832 107.336 47.3386 106.415 48.7258 104.559L47.1239 103.361ZM39.5872 102.231C40.3512 103.462 41.5257 104.096 42.9808 104.096V102.096C42.196 102.096 41.6745 101.802 41.2865 101.177L39.5872 102.231ZM42.9808 104.096C44.444 104.096 45.6181 103.447 46.3785 102.201L44.6712 101.159C44.2796 101.801 43.7577 102.096 42.9808 102.096V104.096ZM46.372 102.211C47.1068 101.04 47.4128 99.4623 47.4128 97.6H45.4128C45.4128 99.2896 45.1269 100.432 44.6776 101.149L46.372 102.211ZM47.4128 97.6C47.4128 95.7237 47.1075 94.1374 46.372 92.9647L44.6776 94.0273C45.1262 94.7426 45.4128 95.8923 45.4128 97.6H47.4128ZM46.3785 92.9751C45.6181 91.7289 44.444 91.08 42.9808 91.08V93.08C43.7577 93.08 44.2796 93.3751 44.6712 94.0169L46.3785 92.9751ZM42.9808 91.08C41.5177 91.08 40.3436 91.7289 39.5832 92.9751L41.2905 94.0169C41.6821 93.3751 42.204 93.08 42.9808 93.08V91.08ZM39.5832 92.9751C38.8692 94.1452 38.5728 95.727 38.5728 97.6H40.5728C40.5728 95.889 40.8524 94.7348 41.2905 94.0169L39.5832 92.9751ZM38.5728 97.6C38.5728 99.473 38.8692 101.055 39.5832 102.225L41.2905 101.183C40.8524 100.465 40.5728 99.311 40.5728 97.6H38.5728ZM61.566 94.984L60.8459 95.6779L60.8525 95.6846L61.566 94.984ZM62.862 106V107H63.862V106H62.862ZM59.766 106H58.766V107H59.766V106ZM59.118 97.192L58.4109 97.8991L58.4176 97.9058L58.4244 97.9123L59.118 97.192ZM55.47 97.288L56.1886 97.9834V97.9834L55.47 97.288ZM54.75 106V107H55.75V106H54.75ZM51.654 106H50.654V107H51.654V106ZM51.654 89.2V88.2H50.654V89.2H51.654ZM54.75 89.2H55.75V88.2H54.75V89.2ZM54.75 95.344H53.75V98.6273L55.5802 95.9014L54.75 95.344ZM58.326 94.664C59.3886 94.664 60.2013 95.0089 60.8459 95.6779L62.2861 94.2901C61.2347 93.1991 59.8874 92.664 58.326 92.664V94.664ZM60.8525 95.6846C61.4884 96.3323 61.862 97.2709 61.862 98.632H63.862C63.862 96.8891 63.3716 95.3957 62.2796 94.2834L60.8525 95.6846ZM61.862 98.632V106H63.862V98.632H61.862ZM62.862 105H59.766V107H62.862V105ZM60.766 106V99.016H58.766V106H60.766ZM60.766 99.016C60.766 98.0385 60.4983 97.1329 59.8117 96.4717L58.4244 97.9123C58.6018 98.0831 58.766 98.3935 58.766 99.016H60.766ZM59.8251 96.4849C59.1724 95.8322 58.3243 95.544 57.39 95.544V97.544C57.8958 97.544 58.1996 97.6878 58.4109 97.8991L59.8251 96.4849ZM57.39 95.544C56.366 95.544 55.4501 95.8706 54.7514 96.5926L56.1886 97.9834C56.45 97.7134 56.8141 97.544 57.39 97.544V95.544ZM54.7514 96.5926C54.025 97.3432 53.75 98.3819 53.75 99.52H55.75C55.75 98.6741 55.955 98.2248 56.1886 97.9834L54.7514 96.5926ZM53.75 99.52V106H55.75V99.52H53.75ZM54.75 105H51.654V107H54.75V105ZM52.654 106V89.2H50.654V106H52.654ZM51.654 90.2H54.75V88.2H51.654V90.2ZM53.75 89.2V95.344H55.75V89.2H53.75ZM55.5802 95.9014C56.106 95.1184 56.9472 94.664 58.326 94.664V92.664C56.4408 92.664 54.8981 93.3296 53.9198 94.7866L55.5802 95.9014ZM71.0496 100.24H70.0496V101.24H71.0496V100.24ZM71.0496 97.264V96.264H70.0496V97.264H71.0496ZM85.8096 97.264H86.8096V96.264H85.8096V97.264ZM85.8096 100.24V101.24H86.8096V100.24H85.8096ZM72.0496 100.24V97.264H70.0496V100.24H72.0496ZM71.0496 98.264H85.8096V96.264H71.0496V98.264ZM84.8096 97.264V100.24H86.8096V97.264H84.8096ZM85.8096 99.24H71.0496V101.24H85.8096V99.24ZM106.356 100.072H107.356V99.072H106.356V100.072ZM106.356 103.144V104.144H107.356V103.144H106.356ZM104.556 103.144V102.144H103.556V103.144H104.556ZM104.556 106V107H105.556V106H104.556ZM101.22 106H100.22V107H101.22V106ZM101.22 103.144H102.22V102.144H101.22V103.144ZM93.2764 103.144H92.2764V104.144H93.2764V103.144ZM93.2764 100.072L92.3871 99.6146L92.2764 99.8299V100.072H93.2764ZM98.8684 89.2V88.2H98.2582L97.9791 88.7426L98.8684 89.2ZM102.42 89.2L103.31 89.6558L104.056 88.2H102.42V89.2ZM96.8524 100.072L95.9623 99.6162L95.2167 101.072H96.8524V100.072ZM101.22 100.072V101.072H102.22V100.072H101.22ZM101.22 96.088V95.088H100.22V96.088H101.22ZM104.556 96.088H105.556V95.088H104.556V96.088ZM104.556 100.072H103.556V101.072H104.556V100.072ZM105.356 100.072V103.144H107.356V100.072H105.356ZM106.356 102.144H104.556V104.144H106.356V102.144ZM103.556 103.144V106H105.556V103.144H103.556ZM104.556 105H101.22V107H104.556V105ZM102.22 106V103.144H100.22V106H102.22ZM101.22 102.144H93.2764V104.144H101.22V102.144ZM94.2764 103.144V100.072H92.2764V103.144H94.2764ZM94.1657 100.529L99.7577 89.6574L97.9791 88.7426L92.3871 99.6146L94.1657 100.529ZM98.8684 90.2H102.42V88.2H98.8684V90.2ZM101.53 88.7442L95.9623 99.6162L97.7425 100.528L103.31 89.6558L101.53 88.7442ZM96.8524 101.072H101.22V99.072H96.8524V101.072ZM102.22 100.072V96.088H100.22V100.072H102.22ZM101.22 97.088H104.556V95.088H101.22V97.088ZM103.556 96.088V100.072H105.556V96.088H103.556ZM104.556 101.072H106.356V99.072H104.556V101.072ZM117.722 94.984L117.002 95.6779L117.009 95.6846L117.722 94.984ZM119.018 106V107H120.018V106H119.018ZM115.922 106H114.922V107H115.922V106ZM115.274 97.192L114.567 97.8991L114.574 97.9058L114.581 97.9123L115.274 97.192ZM111.626 97.288L112.345 97.9834V97.9834L111.626 97.288ZM110.906 106V107H111.906V106H110.906ZM107.81 106H106.81V107H107.81V106ZM107.81 89.2V88.2H106.81V89.2H107.81ZM110.906 89.2H111.906V88.2H110.906V89.2ZM110.906 95.344H109.906V98.6273L111.736 95.9014L110.906 95.344ZM114.482 94.664C115.545 94.664 116.358 95.0089 117.002 95.6779L118.442 94.2901C117.391 93.1991 116.044 92.664 114.482 92.664V94.664ZM117.009 95.6846C117.645 96.3323 118.018 97.2709 118.018 98.632H120.018C120.018 96.8891 119.528 95.3957 118.436 94.2834L117.009 95.6846ZM118.018 98.632V106H120.018V98.632H118.018ZM119.018 105H115.922V107H119.018V105ZM116.922 106V99.016H114.922V106H116.922ZM116.922 99.016C116.922 98.0385 116.655 97.1329 115.968 96.4717L114.581 97.9123C114.758 98.0831 114.922 98.3935 114.922 99.016H116.922ZM115.981 96.4849C115.329 95.8322 114.481 95.544 113.546 95.544V97.544C114.052 97.544 114.356 97.6878 114.567 97.8991L115.981 96.4849ZM113.546 95.544C112.522 95.544 111.606 95.8706 110.908 96.5926L112.345 97.9834C112.606 97.7134 112.97 97.544 113.546 97.544V95.544ZM110.908 96.5926C110.181 97.3432 109.906 98.3819 109.906 99.52H111.906C111.906 98.6741 112.111 98.2248 112.345 97.9834L110.908 96.5926ZM109.906 99.52V106H111.906V99.52H109.906ZM110.906 105H107.81V107H110.906V105ZM108.81 106V89.2H106.81V106H108.81ZM107.81 90.2H110.906V88.2H107.81V90.2ZM109.906 89.2V95.344H111.906V89.2H109.906ZM111.736 95.9014C112.262 95.1184 113.103 94.664 114.482 94.664V92.664C112.597 92.664 111.054 93.3296 110.076 94.7866L111.736 95.9014Z" fill="white" fill-opacity="0.1" mask="url(#path-2-outside-1_6634_11174)"/>
<path d="M64.5017 49.1039L77.7267 35.8789L90.9517 49.1039M77.7267 37.7157V64.5331" stroke="white" stroke-width="6.66148" stroke-linecap="round" stroke-linejoin="round"/>
</svg>
