<svg width="156" height="156" viewBox="0 0 156 156" fill="none" xmlns="http://www.w3.org/2000/svg">
<circle cx="78" cy="78" r="78" fill="#13D16A"/>
<path d="M68.8662 37.5928C71.9421 37.5819 75.445 38.2896 77.9854 38.9189C78.4121 44.2103 78.4741 47.2362 77.9062 52.1973C76.3294 52.9483 74.77 53.9044 73.3135 54.8906C71.1569 56.3509 69.0202 58.0218 67.1436 59.5137C65.2046 61.0551 63.6265 62.3366 62.3896 63.2061C62.34 63.241 62.2906 63.2726 62.2441 63.3047C61.4911 62.3751 60.9112 60.7897 60.6885 58.0615C60.3766 54.2409 60.8641 49.3808 61.4766 43.7568C61.838 40.7306 64.3645 37.5663 68.8135 37.5928H68.8662ZM92.332 38.6865C93.7528 38.6917 94.4614 38.9178 94.7412 39.0859C94.8312 39.1401 94.8432 39.1674 94.8486 39.1768C94.86 39.1959 94.9451 39.3443 94.9756 39.7441C94.9798 39.7993 94.9912 40.003 94.8516 40.3867C94.7044 40.7911 94.3593 41.4754 93.5361 42.4248C92.3934 43.7426 90.4143 45.4713 87.0469 47.5645C87.1462 44.8552 87.0408 42.4095 86.7979 39.1875C88.6403 38.8669 90.6119 38.6803 92.332 38.6865Z" fill="white" stroke="white" stroke-width="7.18494"/>
<mask id="path-3-outside-1_6634_11213" maskUnits="userSpaceOnUse" x="49" y="87" width="56" height="20" fill="black">
<rect fill="white" x="49" y="87" width="56" height="20"/>
<path d="M55.5157 89.2H58.3957V106H55.0837V92.704L51.9157 93.592L51.0997 90.76L55.5157 89.2ZM60.4649 106V103.528L66.2009 97.624C67.4809 96.28 68.1209 95.16 68.1209 94.264C68.1209 93.608 67.9129 93.08 67.4969 92.68C67.0969 92.28 66.5769 92.08 65.9369 92.08C64.6729 92.08 63.7369 92.736 63.1289 94.048L60.3449 92.416C60.8729 91.264 61.6329 90.384 62.6249 89.776C63.6169 89.168 64.7049 88.864 65.8889 88.864C67.4089 88.864 68.7129 89.344 69.8009 90.304C70.8889 91.248 71.4329 92.528 71.4329 94.144C71.4329 95.888 70.5129 97.68 68.6729 99.52L65.3849 102.808H71.6969V106H60.4649ZM80.3549 93.664C81.6669 93.664 82.7469 94.104 83.5949 94.984C84.4589 95.864 84.8909 97.08 84.8909 98.632V106H81.7949V99.016C81.7949 98.216 81.5789 97.608 81.1469 97.192C80.7149 96.76 80.1389 96.544 79.4189 96.544C78.6189 96.544 77.9789 96.792 77.4989 97.288C77.0189 97.784 76.7789 98.528 76.7789 99.52V106H73.6829V89.2H76.7789V95.344C77.5309 94.224 78.7229 93.664 80.3549 93.664ZM103.59 96.136V99.04H99.6305V103H96.7265V99.04H92.7905V96.136H96.7265V92.2H99.6305V96.136H103.59Z"/>
</mask>
<path d="M55.5157 89.2H58.3957V106H55.0837V92.704L51.9157 93.592L51.0997 90.76L55.5157 89.2ZM60.4649 106V103.528L66.2009 97.624C67.4809 96.28 68.1209 95.16 68.1209 94.264C68.1209 93.608 67.9129 93.08 67.4969 92.68C67.0969 92.28 66.5769 92.08 65.9369 92.08C64.6729 92.08 63.7369 92.736 63.1289 94.048L60.3449 92.416C60.8729 91.264 61.6329 90.384 62.6249 89.776C63.6169 89.168 64.7049 88.864 65.8889 88.864C67.4089 88.864 68.7129 89.344 69.8009 90.304C70.8889 91.248 71.4329 92.528 71.4329 94.144C71.4329 95.888 70.5129 97.68 68.6729 99.52L65.3849 102.808H71.6969V106H60.4649ZM80.3549 93.664C81.6669 93.664 82.7469 94.104 83.5949 94.984C84.4589 95.864 84.8909 97.08 84.8909 98.632V106H81.7949V99.016C81.7949 98.216 81.5789 97.608 81.1469 97.192C80.7149 96.76 80.1389 96.544 79.4189 96.544C78.6189 96.544 77.9789 96.792 77.4989 97.288C77.0189 97.784 76.7789 98.528 76.7789 99.52V106H73.6829V89.2H76.7789V95.344C77.5309 94.224 78.7229 93.664 80.3549 93.664ZM103.59 96.136V99.04H99.6305V103H96.7265V99.04H92.7905V96.136H96.7265V92.2H99.6305V96.136H103.59Z" fill="white"/>
<path d="M55.5157 89.2V88.2H55.3442L55.1826 88.2571L55.5157 89.2ZM58.3957 89.2H59.3957V88.2H58.3957V89.2ZM58.3957 106V107H59.3957V106H58.3957ZM55.0837 106H54.0837V107H55.0837V106ZM55.0837 92.704H56.0837V91.3852L54.8138 91.7411L55.0837 92.704ZM51.9157 93.592L50.9548 93.8689L51.2296 94.8228L52.1856 94.5549L51.9157 93.592ZM51.0997 90.76L50.7666 89.8171L49.8778 90.1311L50.1388 91.0369L51.0997 90.76ZM55.5157 90.2H58.3957V88.2H55.5157V90.2ZM57.3957 89.2V106H59.3957V89.2H57.3957ZM58.3957 105H55.0837V107H58.3957V105ZM56.0837 106V92.704H54.0837V106H56.0837ZM54.8138 91.7411L51.6458 92.6291L52.1856 94.5549L55.3536 93.6669L54.8138 91.7411ZM52.8766 93.3151L52.0606 90.4831L50.1388 91.0369L50.9548 93.8689L52.8766 93.3151ZM51.4328 91.7029L55.8488 90.1429L55.1826 88.2571L50.7666 89.8171L51.4328 91.7029ZM60.4649 106H59.4649V107H60.4649V106ZM60.4649 103.528L59.7477 102.831L59.4649 103.122V103.528H60.4649ZM66.2009 97.624L66.9182 98.3209L66.9251 98.3137L66.2009 97.624ZM67.4969 92.68L66.7898 93.3871L66.7967 93.394L66.8038 93.4008L67.4969 92.68ZM63.1289 94.048L62.6232 94.9107L63.5732 95.4676L64.0362 94.4685L63.1289 94.048ZM60.3449 92.416L59.4359 91.9993L59.0591 92.8214L59.8392 93.2787L60.3449 92.416ZM62.6249 89.776L62.1024 88.9234V88.9234L62.6249 89.776ZM69.8009 90.304L69.1393 91.0539L69.1456 91.0593L69.8009 90.304ZM65.3849 102.808L64.6778 102.101L62.9707 103.808H65.3849V102.808ZM71.6969 102.808H72.6969V101.808H71.6969V102.808ZM71.6969 106V107H72.6969V106H71.6969ZM61.4649 106V103.528H59.4649V106H61.4649ZM61.1822 104.225L66.9182 98.3208L65.4837 96.9272L59.7477 102.831L61.1822 104.225ZM66.9251 98.3137C67.5987 97.6064 68.1359 96.9254 68.5092 96.2721C68.8798 95.6235 69.1209 94.946 69.1209 94.264H67.1209C67.1209 94.478 67.042 94.8085 66.7727 95.2799C66.506 95.7466 66.0832 96.2976 65.4768 96.9343L66.9251 98.3137ZM69.1209 94.264C69.1209 93.3767 68.8296 92.5742 68.19 91.9592L66.8038 93.4008C66.9962 93.5858 67.1209 93.8393 67.1209 94.264H69.1209ZM68.204 91.9729C67.5913 91.3601 66.8042 91.08 65.9369 91.08V93.08C66.3497 93.08 66.6026 93.1999 66.7898 93.3871L68.204 91.9729ZM65.9369 91.08C65.1223 91.08 64.3669 91.2948 63.713 91.7531C63.0672 92.2057 62.5804 92.8534 62.2216 93.6275L64.0362 94.4685C64.2855 93.9306 64.5706 93.5943 64.8609 93.3909C65.143 93.1932 65.4876 93.08 65.9369 93.08V91.08ZM63.6346 93.1853L60.8506 91.5533L59.8392 93.2787L62.6232 94.9107L63.6346 93.1853ZM61.254 92.8327C61.707 91.8443 62.3398 91.1236 63.1475 90.6286L62.1024 88.9234C60.926 89.6444 60.0389 90.6837 59.4359 91.9993L61.254 92.8327ZM63.1475 90.6286C63.9793 90.1188 64.8859 89.864 65.8889 89.864V87.864C64.5239 87.864 63.2545 88.2172 62.1024 88.9234L63.1475 90.6286ZM65.8889 89.864C67.1779 89.864 68.2433 90.2632 69.1393 91.0538L70.4625 89.5542C69.1826 88.4248 67.6399 87.864 65.8889 87.864V89.864ZM69.1456 91.0593C69.9865 91.7889 70.4329 92.7783 70.4329 94.144H72.4329C72.4329 92.2777 71.7914 90.7071 70.4563 89.5487L69.1456 91.0593ZM70.4329 94.144C70.4329 95.5167 69.7097 97.069 67.9658 98.8129L69.38 100.227C71.3162 98.291 72.4329 96.2593 72.4329 94.144H70.4329ZM67.9658 98.8129L64.6778 102.101L66.092 103.515L69.38 100.227L67.9658 98.8129ZM65.3849 103.808H71.6969V101.808H65.3849V103.808ZM70.6969 102.808V106H72.6969V102.808H70.6969ZM71.6969 105H60.4649V107H71.6969V105ZM83.5949 94.984L82.8748 95.6779L82.8814 95.6846L83.5949 94.984ZM84.8909 106V107H85.8909V106H84.8909ZM81.7949 106H80.7949V107H81.7949V106ZM81.1469 97.192L80.4398 97.8991L80.4465 97.9058L80.4533 97.9123L81.1469 97.192ZM77.4989 97.288L78.2175 97.9834V97.9834L77.4989 97.288ZM76.7789 106V107H77.7789V106H76.7789ZM73.6829 106H72.6829V107H73.6829V106ZM73.6829 89.2V88.2H72.6829V89.2H73.6829ZM76.7789 89.2H77.7789V88.2H76.7789V89.2ZM76.7789 95.344H75.7789V98.6273L77.6091 95.9014L76.7789 95.344ZM80.3549 94.664C81.4175 94.664 82.2302 95.0089 82.8748 95.6779L84.315 94.2901C83.2636 93.1991 81.9163 92.664 80.3549 92.664V94.664ZM82.8814 95.6846C83.5173 96.3323 83.8909 97.2709 83.8909 98.632H85.8909C85.8909 96.8891 85.4005 95.3957 84.3085 94.2834L82.8814 95.6846ZM83.8909 98.632V106H85.8909V98.632H83.8909ZM84.8909 105H81.7949V107H84.8909V105ZM82.7949 106V99.016H80.7949V106H82.7949ZM82.7949 99.016C82.7949 98.0385 82.5272 97.1329 81.8406 96.4717L80.4533 97.9123C80.6307 98.0831 80.7949 98.3935 80.7949 99.016H82.7949ZM81.854 96.4849C81.2013 95.8322 80.3532 95.544 79.4189 95.544V97.544C79.9247 97.544 80.2286 97.6878 80.4398 97.8991L81.854 96.4849ZM79.4189 95.544C78.3949 95.544 77.479 95.8706 76.7803 96.5926L78.2175 97.9834C78.4789 97.7134 78.843 97.544 79.4189 97.544V95.544ZM76.7803 96.5926C76.0539 97.3432 75.7789 98.3819 75.7789 99.52H77.7789C77.7789 98.6741 77.9839 98.2248 78.2175 97.9834L76.7803 96.5926ZM75.7789 99.52V106H77.7789V99.52H75.7789ZM76.7789 105H73.6829V107H76.7789V105ZM74.6829 106V89.2H72.6829V106H74.6829ZM73.6829 90.2H76.7789V88.2H73.6829V90.2ZM75.7789 89.2V95.344H77.7789V89.2H75.7789ZM77.6091 95.9014C78.1349 95.1184 78.9761 94.664 80.3549 94.664V92.664C78.4697 92.664 76.927 93.3296 75.9487 94.7866L77.6091 95.9014ZM103.59 96.136H104.59V95.136H103.59V96.136ZM103.59 99.04V100.04H104.59V99.04H103.59ZM99.6305 99.04V98.04H98.6305V99.04H99.6305ZM99.6305 103V104H100.63V103H99.6305ZM96.7265 103H95.7265V104H96.7265V103ZM96.7265 99.04H97.7265V98.04H96.7265V99.04ZM92.7905 99.04H91.7905V100.04H92.7905V99.04ZM92.7905 96.136V95.136H91.7905V96.136H92.7905ZM96.7265 96.136V97.136H97.7265V96.136H96.7265ZM96.7265 92.2V91.2H95.7265V92.2H96.7265ZM99.6305 92.2H100.63V91.2H99.6305V92.2ZM99.6305 96.136H98.6305V97.136H99.6305V96.136ZM102.59 96.136V99.04H104.59V96.136H102.59ZM103.59 98.04H99.6305V100.04H103.59V98.04ZM98.6305 99.04V103H100.63V99.04H98.6305ZM99.6305 102H96.7265V104H99.6305V102ZM97.7265 103V99.04H95.7265V103H97.7265ZM96.7265 98.04H92.7905V100.04H96.7265V98.04ZM93.7905 99.04V96.136H91.7905V99.04H93.7905ZM92.7905 97.136H96.7265V95.136H92.7905V97.136ZM97.7265 96.136V92.2H95.7265V96.136H97.7265ZM96.7265 93.2H99.6305V91.2H96.7265V93.2ZM98.6305 92.2V96.136H100.63V92.2H98.6305ZM99.6305 97.136H103.59V95.136H99.6305V97.136Z" fill="white" fill-opacity="0.1" mask="url(#path-3-outside-1_6634_11213)"/>
</svg>
