<svg width="156" height="156" viewBox="0 0 156 156" fill="none" xmlns="http://www.w3.org/2000/svg">
<circle cx="78" cy="78" r="78" fill="#13D16A"/>
<mask id="path-2-outside-1_6634_11209" maskUnits="userSpaceOnUse" x="41" y="87" width="73" height="21" fill="black">
<rect fill="white" x="41" y="87" width="73" height="21"/>
<path d="M55.4759 100.072V103.144H53.6759V106H50.3399V103.144H42.3959V100.072L47.9879 89.2H51.5399L45.9719 100.072H50.3399V96.088H53.6759V100.072H55.4759ZM63.6018 93.664C64.9138 93.664 65.9938 94.104 66.8418 94.984C67.7058 95.864 68.1378 97.08 68.1378 98.632V106H65.0418V99.016C65.0418 98.216 64.8258 97.608 64.3938 97.192C63.9618 96.76 63.3858 96.544 62.6658 96.544C61.8658 96.544 61.2258 96.792 60.7458 97.288C60.2658 97.784 60.0258 98.528 60.0258 99.52V106H56.9298V89.2H60.0258V95.344C60.7778 94.224 61.9698 93.664 63.6018 93.664ZM76.3254 100.24V97.264H85.3254V100.24H76.3254ZM97.0946 97.264C98.6466 98.192 99.4226 99.544 99.4226 101.32C99.4226 102.872 98.8786 104.096 97.7906 104.992C96.7186 105.888 95.2546 106.336 93.3986 106.336C91.5266 106.336 90.0546 105.888 88.9826 104.992C87.9106 104.096 87.3746 102.872 87.3746 101.32C87.3746 99.544 88.1426 98.192 89.6786 97.264C88.5106 96.416 87.9266 95.256 87.9266 93.784C87.9266 92.232 88.4466 91.024 89.4866 90.16C90.5426 89.296 91.8466 88.864 93.3986 88.864C94.9506 88.864 96.2466 89.296 97.2866 90.16C98.3266 91.024 98.8466 92.232 98.8466 93.784C98.8466 95.272 98.2626 96.432 97.0946 97.264ZM94.9586 92.512C94.5586 92.16 94.0386 91.984 93.3986 91.984C92.7586 91.984 92.2386 92.16 91.8386 92.512C91.4386 92.864 91.2386 93.344 91.2386 93.952C91.2386 94.56 91.4386 95.048 91.8386 95.416C92.2386 95.768 92.7586 95.944 93.3986 95.944C94.0386 95.944 94.5586 95.768 94.9586 95.416C95.3586 95.048 95.5586 94.56 95.5586 93.952C95.5586 93.344 95.3586 92.864 94.9586 92.512ZM91.4066 102.616C91.9186 103.016 92.5826 103.216 93.3986 103.216C94.2146 103.216 94.8706 103.016 95.3666 102.616C95.8786 102.2 96.1346 101.624 96.1346 100.888C96.1346 100.168 95.8786 99.608 95.3666 99.208C94.8706 98.792 94.2146 98.584 93.3986 98.584C92.5826 98.584 91.9186 98.792 91.4066 99.208C90.9106 99.608 90.6626 100.168 90.6626 100.888C90.6626 101.624 90.9106 102.2 91.4066 102.616ZM108.011 93.664C109.323 93.664 110.403 94.104 111.251 94.984C112.115 95.864 112.547 97.08 112.547 98.632V106H109.451V99.016C109.451 98.216 109.235 97.608 108.803 97.192C108.371 96.76 107.795 96.544 107.075 96.544C106.275 96.544 105.635 96.792 105.155 97.288C104.675 97.784 104.435 98.528 104.435 99.52V106H101.339V89.2H104.435V95.344C105.187 94.224 106.379 93.664 108.011 93.664Z"/>
</mask>
<path d="M55.4759 100.072V103.144H53.6759V106H50.3399V103.144H42.3959V100.072L47.9879 89.2H51.5399L45.9719 100.072H50.3399V96.088H53.6759V100.072H55.4759ZM63.6018 93.664C64.9138 93.664 65.9938 94.104 66.8418 94.984C67.7058 95.864 68.1378 97.08 68.1378 98.632V106H65.0418V99.016C65.0418 98.216 64.8258 97.608 64.3938 97.192C63.9618 96.76 63.3858 96.544 62.6658 96.544C61.8658 96.544 61.2258 96.792 60.7458 97.288C60.2658 97.784 60.0258 98.528 60.0258 99.52V106H56.9298V89.2H60.0258V95.344C60.7778 94.224 61.9698 93.664 63.6018 93.664ZM76.3254 100.24V97.264H85.3254V100.24H76.3254ZM97.0946 97.264C98.6466 98.192 99.4226 99.544 99.4226 101.32C99.4226 102.872 98.8786 104.096 97.7906 104.992C96.7186 105.888 95.2546 106.336 93.3986 106.336C91.5266 106.336 90.0546 105.888 88.9826 104.992C87.9106 104.096 87.3746 102.872 87.3746 101.32C87.3746 99.544 88.1426 98.192 89.6786 97.264C88.5106 96.416 87.9266 95.256 87.9266 93.784C87.9266 92.232 88.4466 91.024 89.4866 90.16C90.5426 89.296 91.8466 88.864 93.3986 88.864C94.9506 88.864 96.2466 89.296 97.2866 90.16C98.3266 91.024 98.8466 92.232 98.8466 93.784C98.8466 95.272 98.2626 96.432 97.0946 97.264ZM94.9586 92.512C94.5586 92.16 94.0386 91.984 93.3986 91.984C92.7586 91.984 92.2386 92.16 91.8386 92.512C91.4386 92.864 91.2386 93.344 91.2386 93.952C91.2386 94.56 91.4386 95.048 91.8386 95.416C92.2386 95.768 92.7586 95.944 93.3986 95.944C94.0386 95.944 94.5586 95.768 94.9586 95.416C95.3586 95.048 95.5586 94.56 95.5586 93.952C95.5586 93.344 95.3586 92.864 94.9586 92.512ZM91.4066 102.616C91.9186 103.016 92.5826 103.216 93.3986 103.216C94.2146 103.216 94.8706 103.016 95.3666 102.616C95.8786 102.2 96.1346 101.624 96.1346 100.888C96.1346 100.168 95.8786 99.608 95.3666 99.208C94.8706 98.792 94.2146 98.584 93.3986 98.584C92.5826 98.584 91.9186 98.792 91.4066 99.208C90.9106 99.608 90.6626 100.168 90.6626 100.888C90.6626 101.624 90.9106 102.2 91.4066 102.616ZM108.011 93.664C109.323 93.664 110.403 94.104 111.251 94.984C112.115 95.864 112.547 97.08 112.547 98.632V106H109.451V99.016C109.451 98.216 109.235 97.608 108.803 97.192C108.371 96.76 107.795 96.544 107.075 96.544C106.275 96.544 105.635 96.792 105.155 97.288C104.675 97.784 104.435 98.528 104.435 99.52V106H101.339V89.2H104.435V95.344C105.187 94.224 106.379 93.664 108.011 93.664Z" fill="white"/>
<path d="M55.4759 100.072H56.4759V99.072H55.4759V100.072ZM55.4759 103.144V104.144H56.4759V103.144H55.4759ZM53.6759 103.144V102.144H52.6759V103.144H53.6759ZM53.6759 106V107H54.6759V106H53.6759ZM50.3399 106H49.3399V107H50.3399V106ZM50.3399 103.144H51.3399V102.144H50.3399V103.144ZM42.3959 103.144H41.3959V104.144H42.3959V103.144ZM42.3959 100.072L41.5067 99.6146L41.3959 99.8299V100.072H42.3959ZM47.9879 89.2V88.2H47.3777L47.0987 88.7426L47.9879 89.2ZM51.5399 89.2L52.43 89.6558L53.1756 88.2H51.5399V89.2ZM45.9719 100.072L45.0819 99.6162L44.3363 101.072H45.9719V100.072ZM50.3399 100.072V101.072H51.3399V100.072H50.3399ZM50.3399 96.088V95.088H49.3399V96.088H50.3399ZM53.6759 96.088H54.6759V95.088H53.6759V96.088ZM53.6759 100.072H52.6759V101.072H53.6759V100.072ZM54.4759 100.072V103.144H56.4759V100.072H54.4759ZM55.4759 102.144H53.6759V104.144H55.4759V102.144ZM52.6759 103.144V106H54.6759V103.144H52.6759ZM53.6759 105H50.3399V107H53.6759V105ZM51.3399 106V103.144H49.3399V106H51.3399ZM50.3399 102.144H42.3959V104.144H50.3399V102.144ZM43.3959 103.144V100.072H41.3959V103.144H43.3959ZM43.2852 100.529L48.8772 89.6574L47.0987 88.7426L41.5067 99.6146L43.2852 100.529ZM47.9879 90.2H51.5399V88.2H47.9879V90.2ZM50.6499 88.7442L45.0819 99.6162L46.862 100.528L52.43 89.6558L50.6499 88.7442ZM45.9719 101.072H50.3399V99.072H45.9719V101.072ZM51.3399 100.072V96.088H49.3399V100.072H51.3399ZM50.3399 97.088H53.6759V95.088H50.3399V97.088ZM52.6759 96.088V100.072H54.6759V96.088H52.6759ZM53.6759 101.072H55.4759V99.072H53.6759V101.072ZM66.8418 94.984L66.1217 95.6779L66.1282 95.6846L66.8418 94.984ZM68.1378 106V107H69.1378V106H68.1378ZM65.0418 106H64.0418V107H65.0418V106ZM64.3938 97.192L63.6867 97.8991L63.6934 97.9058L63.7002 97.9123L64.3938 97.192ZM60.7458 97.288L61.4644 97.9834V97.9834L60.7458 97.288ZM60.0258 106V107H61.0258V106H60.0258ZM56.9298 106H55.9298V107H56.9298V106ZM56.9298 89.2V88.2H55.9298V89.2H56.9298ZM60.0258 89.2H61.0258V88.2H60.0258V89.2ZM60.0258 95.344H59.0258V98.6273L60.856 95.9014L60.0258 95.344ZM63.6018 94.664C64.6644 94.664 65.4771 95.0089 66.1217 95.6779L67.5619 94.2901C66.5105 93.1991 65.1632 92.664 63.6018 92.664V94.664ZM66.1282 95.6846C66.7642 96.3323 67.1378 97.2709 67.1378 98.632H69.1378C69.1378 96.8891 68.6474 95.3957 67.5554 94.2834L66.1282 95.6846ZM67.1378 98.632V106H69.1378V98.632H67.1378ZM68.1378 105H65.0418V107H68.1378V105ZM66.0418 106V99.016H64.0418V106H66.0418ZM66.0418 99.016C66.0418 98.0385 65.7741 97.1329 65.0874 96.4717L63.7002 97.9123C63.8775 98.0831 64.0418 98.3935 64.0418 99.016H66.0418ZM65.1009 96.4849C64.4482 95.8322 63.6001 95.544 62.6658 95.544V97.544C63.1715 97.544 63.4754 97.6878 63.6867 97.8991L65.1009 96.4849ZM62.6658 95.544C61.6418 95.544 60.7259 95.8706 60.0272 96.5926L61.4644 97.9834C61.7257 97.7134 62.0898 97.544 62.6658 97.544V95.544ZM60.0272 96.5926C59.3008 97.3432 59.0258 98.3819 59.0258 99.52H61.0258C61.0258 98.6741 61.2308 98.2248 61.4644 97.9834L60.0272 96.5926ZM59.0258 99.52V106H61.0258V99.52H59.0258ZM60.0258 105H56.9298V107H60.0258V105ZM57.9298 106V89.2H55.9298V106H57.9298ZM56.9298 90.2H60.0258V88.2H56.9298V90.2ZM59.0258 89.2V95.344H61.0258V89.2H59.0258ZM60.856 95.9014C61.3817 95.1184 62.223 94.664 63.6018 94.664V92.664C61.7166 92.664 60.1739 93.3296 59.1956 94.7866L60.856 95.9014ZM76.3254 100.24H75.3254V101.24H76.3254V100.24ZM76.3254 97.264V96.264H75.3254V97.264H76.3254ZM85.3254 97.264H86.3254V96.264H85.3254V97.264ZM85.3254 100.24V101.24H86.3254V100.24H85.3254ZM77.3254 100.24V97.264H75.3254V100.24H77.3254ZM76.3254 98.264H85.3254V96.264H76.3254V98.264ZM84.3254 97.264V100.24H86.3254V97.264H84.3254ZM85.3254 99.24H76.3254V101.24H85.3254V99.24ZM97.0946 97.264L96.5144 96.4495L95.2683 97.3371L96.5814 98.1223L97.0946 97.264ZM97.7906 104.992L97.1548 104.22L97.1492 104.225L97.7906 104.992ZM88.9826 104.992L88.3412 105.759V105.759L88.9826 104.992ZM89.6786 97.264L90.1957 98.1199L91.4859 97.3404L90.2661 96.4548L89.6786 97.264ZM89.4865 90.16L88.8533 89.386L88.8475 89.3908L89.4865 90.16ZM97.2866 90.16L96.6475 90.9292V90.9292L97.2866 90.16ZM91.8385 95.416L91.1615 96.1519L91.1696 96.1594L91.1779 96.1667L91.8385 95.416ZM94.9585 95.416L95.6192 96.1667L95.6275 96.1594L95.6356 96.1519L94.9585 95.416ZM91.4065 102.616L90.7639 103.382L90.7772 103.393L90.7909 103.404L91.4065 102.616ZM95.3666 102.616L95.9943 103.394L95.9971 103.392L95.3666 102.616ZM95.3666 99.208L94.7239 99.9742L94.7372 99.9853L94.7509 99.996L95.3666 99.208ZM91.4065 99.208L92.0343 99.9864L92.0371 99.9841L91.4065 99.208ZM96.5814 98.1223C97.8382 98.8738 98.4226 99.9036 98.4226 101.32H100.423C100.423 99.1844 99.4549 97.5102 97.6077 96.4057L96.5814 98.1223ZM98.4226 101.32C98.4226 102.607 97.987 103.535 97.1548 104.22L98.4263 105.764C99.7701 104.657 100.423 103.137 100.423 101.32H98.4226ZM97.1492 104.225C96.3088 104.927 95.0977 105.336 93.3986 105.336V107.336C95.4114 107.336 97.1283 106.849 98.4319 105.759L97.1492 104.225ZM93.3986 105.336C91.6809 105.336 90.4629 104.926 89.6239 104.225L88.3412 105.759C89.6462 106.85 91.3722 107.336 93.3986 107.336V105.336ZM89.6239 104.225C88.8062 103.541 88.3745 102.613 88.3745 101.32H86.3745C86.3745 103.131 87.0149 104.651 88.3412 105.759L89.6239 104.225ZM88.3745 101.32C88.3745 99.8987 88.9555 98.8692 90.1957 98.1199L89.1614 96.4081C87.3296 97.5148 86.3745 99.1893 86.3745 101.32H88.3745ZM90.2661 96.4548C89.3632 95.7993 88.9266 94.9433 88.9266 93.784H86.9266C86.9266 95.5687 87.6579 97.0327 89.091 98.0732L90.2661 96.4548ZM88.9266 93.784C88.9266 92.4801 89.3496 91.5739 90.1256 90.9292L88.8475 89.3908C87.5435 90.4741 86.9266 91.9839 86.9266 93.784H88.9266ZM90.1198 90.934C90.9728 90.2361 92.0439 89.864 93.3986 89.864V87.864C91.6492 87.864 90.1123 88.3559 88.8533 89.386L90.1198 90.934ZM93.3986 89.864C94.7536 89.864 95.8132 90.2361 96.6475 90.9292L97.9256 89.3908C96.6799 88.3559 95.1475 87.864 93.3986 87.864V89.864ZM96.6475 90.9292C97.4235 91.5739 97.8465 92.4801 97.8465 93.784H99.8465C99.8465 91.9839 99.2296 90.4741 97.9256 89.3908L96.6475 90.9292ZM97.8465 93.784C97.8465 94.963 97.4074 95.8134 96.5144 96.4495L97.6747 98.0785C99.1177 97.0506 99.8465 95.581 99.8465 93.784H97.8465ZM95.6192 91.7613C95.0014 91.2177 94.2304 90.984 93.3986 90.984V92.984C93.8467 92.984 94.1157 93.1023 94.2979 93.2627L95.6192 91.7613ZM93.3986 90.984C92.5667 90.984 91.7957 91.2177 91.1779 91.7613L92.4992 93.2627C92.6814 93.1023 92.9504 92.984 93.3986 92.984V90.984ZM91.1779 91.7613C90.5306 92.331 90.2385 93.1016 90.2385 93.952H92.2385C92.2385 93.5864 92.3465 93.397 92.4992 93.2627L91.1779 91.7613ZM90.2385 93.952C90.2385 94.8029 90.5301 95.571 91.1615 96.1519L92.5156 94.6801C92.347 94.525 92.2385 94.3171 92.2385 93.952H90.2385ZM91.1779 96.1667C91.7957 96.7103 92.5667 96.944 93.3986 96.944V94.944C92.9504 94.944 92.6814 94.8257 92.4992 94.6653L91.1779 96.1667ZM93.3986 96.944C94.2304 96.944 95.0014 96.7103 95.6192 96.1667L94.2979 94.6653C94.1157 94.8257 93.8467 94.944 93.3986 94.944V96.944ZM95.6356 96.1519C96.267 95.571 96.5585 94.8029 96.5585 93.952H94.5585C94.5585 94.3171 94.4501 94.525 94.2815 94.6801L95.6356 96.1519ZM96.5585 93.952C96.5585 93.1016 96.2665 92.331 95.6192 91.7613L94.2979 93.2627C94.4506 93.397 94.5585 93.5864 94.5585 93.952H96.5585ZM90.7909 103.404C91.5196 103.973 92.4176 104.216 93.3986 104.216V102.216C92.7475 102.216 92.3175 102.059 92.0222 101.828L90.7909 103.404ZM93.3986 104.216C94.3778 104.216 95.2757 103.974 95.9943 103.394L94.7388 101.838C94.4654 102.058 94.0513 102.216 93.3986 102.216V104.216ZM95.9971 103.392C96.7719 102.763 97.1346 101.886 97.1346 100.888H95.1346C95.1346 101.362 94.9853 101.637 94.736 101.84L95.9971 103.392ZM97.1346 100.888C97.1346 99.8982 96.7653 99.0318 95.9822 98.42L94.7509 99.996C94.9918 100.184 95.1346 100.438 95.1346 100.888H97.1346ZM96.0092 98.4418C95.2902 97.8388 94.3867 97.584 93.3986 97.584V99.584C94.0424 99.584 94.4509 99.7452 94.7239 99.9742L96.0092 98.4418ZM93.3986 97.584C92.4089 97.584 91.5053 97.8393 90.776 98.4319L92.0371 99.9841C92.3318 99.7447 92.7562 99.584 93.3986 99.584V97.584ZM90.7788 98.4296C90.0149 99.0457 89.6626 99.91 89.6626 100.888H91.6626C91.6626 100.426 91.8062 100.17 92.0343 99.9864L90.7788 98.4296ZM89.6626 100.888C89.6626 101.874 90.0088 102.749 90.7639 103.382L92.0492 101.85C91.8123 101.651 91.6626 101.374 91.6626 100.888H89.6626ZM111.251 94.984L110.531 95.6779L110.538 95.6846L111.251 94.984ZM112.547 106V107H113.547V106H112.547ZM109.451 106H108.451V107H109.451V106ZM108.803 97.192L108.096 97.8991L108.103 97.9058L108.11 97.9123L108.803 97.192ZM105.155 97.288L105.874 97.9834V97.9834L105.155 97.288ZM104.435 106V107H105.435V106H104.435ZM101.339 106H100.339V107H101.339V106ZM101.339 89.2V88.2H100.339V89.2H101.339ZM104.435 89.2H105.435V88.2H104.435V89.2ZM104.435 95.344H103.435V98.6273L105.265 95.9014L104.435 95.344ZM108.011 94.664C109.074 94.664 109.886 95.0089 110.531 95.6779L111.971 94.2901C110.92 93.1991 109.573 92.664 108.011 92.664V94.664ZM110.538 95.6846C111.174 96.3323 111.547 97.2709 111.547 98.632H113.547C113.547 96.8891 113.057 95.3957 111.965 94.2834L110.538 95.6846ZM111.547 98.632V106H113.547V98.632H111.547ZM112.547 105H109.451V107H112.547V105ZM110.451 106V99.016H108.451V106H110.451ZM110.451 99.016C110.451 98.0385 110.183 97.1329 109.497 96.4717L108.11 97.9123C108.287 98.0831 108.451 98.3935 108.451 99.016H110.451ZM109.51 96.4849C108.858 95.8322 108.009 95.544 107.075 95.544V97.544C107.581 97.544 107.885 97.6878 108.096 97.8991L109.51 96.4849ZM107.075 95.544C106.051 95.544 105.135 95.8706 104.437 96.5926L105.874 97.9834C106.135 97.7134 106.499 97.544 107.075 97.544V95.544ZM104.437 96.5926C103.71 97.3432 103.435 98.3819 103.435 99.52H105.435C105.435 98.6741 105.64 98.2248 105.874 97.9834L104.437 96.5926ZM103.435 99.52V106H105.435V99.52H103.435ZM104.435 105H101.339V107H104.435V105ZM102.339 106V89.2H100.339V106H102.339ZM101.339 90.2H104.435V88.2H101.339V90.2ZM103.435 89.2V95.344H105.435V89.2H103.435ZM105.265 95.9014C105.791 95.1184 106.632 94.664 108.011 94.664V92.664C106.126 92.664 104.583 93.3296 103.605 94.7866L105.265 95.9014Z" fill="white" fill-opacity="0.1" mask="url(#path-2-outside-1_6634_11209)"/>
<path d="M93.5498 41.7822L72.3486 62.9844L61.9551 52.5908L64.7832 49.7637L72.3486 57.3291L90.7227 38.9551L93.5498 41.7822Z" fill="white" stroke="white" stroke-width="1.35104"/>
</svg>
