<svg width="76" height="30" viewBox="0 0 76 30" fill="none" xmlns="http://www.w3.org/2000/svg">
<g clip-path="url(#clip0_1943_2936)">
<path d="M14.7188 28.9445V16.9707H27.3211L28.6732 18.7439L30.07 16.9707H75.8134V28.1187C75.8134 28.1187 74.6171 28.9325 73.2336 28.9445H47.9045L46.3801 27.057V28.9445H41.3846V25.7225C41.3846 25.7225 40.7022 26.1723 39.227 26.1723H37.5266V28.9445H29.9631L28.6129 27.1333L27.242 28.9445H14.7188Z" fill="white"/>
<path d="M0 7.94646L2.84188 1.28125H7.75661L9.36941 5.01483V1.28125H15.4789L16.439 3.97977L17.3698 1.28125H44.7949V2.63789C44.7949 2.63789 46.2366 1.28125 48.606 1.28125L57.5044 1.31253L59.0894 4.99725V1.28125H64.2021L65.6093 3.39782V1.28125H70.7689V13.255H65.6093L64.2608 11.1316V13.255H56.749L55.9936 11.3675H53.9742L53.2311 13.255H48.1369C46.0982 13.255 44.7949 11.9261 44.7949 11.9261V13.255H37.1141L35.5897 11.3675V13.255H7.02852L6.27363 11.3675H4.26067L3.51112 13.255H0V7.94646Z" fill="white"/>
<path d="M3.8487 2.75684L0.015625 11.7224H2.51115L3.2184 9.92712H7.32998L8.03356 11.7224H10.5841L6.75465 2.75684H3.8487ZM5.26686 4.8434L6.52012 7.98064H4.00994L5.26686 4.8434Z" fill="#016FD0"/>
<path d="M10.8477 11.7215V2.75586L14.3939 2.76911L16.4566 8.54957L18.4698 2.75586H21.9878V11.7215H19.7597V5.11523L17.398 11.7215H15.444L13.0757 5.11523V11.7215H10.8477Z" fill="#016FD0"/>
<path d="M23.5117 11.7215V2.75586H30.7821V4.76133H25.7632V6.29491H30.6648V8.18241H25.7632V9.77499H30.7821V11.7215H23.5117Z" fill="#016FD0"/>
<path d="M32.0703 2.75684V11.7224H34.2983V8.53729H35.2364L37.9079 11.7224H40.6306L37.699 8.41933C38.9021 8.31719 40.1432 7.27835 40.1432 5.66551C40.1432 3.77883 38.6712 2.75684 37.0284 2.75684H32.0703ZM34.2983 4.7623H36.8452C37.4561 4.7623 37.9005 5.24307 37.9005 5.70605C37.9005 6.30168 37.3247 6.6498 36.8781 6.6498H34.2983V4.7623Z" fill="#016FD0"/>
<path d="M43.3296 11.7215H41.0547V2.75586H43.3296V11.7215Z" fill="#016FD0"/>
<path d="M48.7235 11.7215H48.2325C45.8566 11.7215 44.4141 9.8384 44.4141 7.27553C44.4141 4.64934 45.8404 2.75586 48.8408 2.75586H51.3033V4.87929H48.7508C47.5328 4.87929 46.6714 5.83551 46.6714 7.29765C46.6714 9.03394 47.6563 9.76319 49.0753 9.76319H49.6616L48.7235 11.7215Z" fill="#016FD0"/>
<path d="M53.5714 2.75684L49.7383 11.7224H52.2338L52.9411 9.92712H57.0526L57.7562 11.7224H60.3067L56.4773 2.75684H53.5714ZM54.9895 4.8434L56.2428 7.98064H53.7326L54.9895 4.8434Z" fill="#016FD0"/>
<path d="M60.5664 11.7215V2.75586H63.3991L67.0159 8.38886V2.75586H69.244V11.7215H66.5029L62.7944 5.94101V11.7215H60.5664Z" fill="#016FD0"/>
<path d="M16.2422 27.4109V18.4453H23.5126V20.4508H18.4937V21.9844H23.3953V23.8719H18.4937V25.4644H23.5126V27.4109H16.2422Z" fill="#016FD0"/>
<path d="M51.8672 27.4109V18.4453H59.1376V20.4508H54.1187V21.9844H58.9969V23.8719H54.1187V25.4644H59.1376V27.4109H51.8672Z" fill="#016FD0"/>
<path d="M23.7952 27.4109L27.3351 22.9834L23.7109 18.4453H26.5179L28.6763 21.2507L30.8421 18.4453H33.5391L29.9626 22.9281L33.509 27.4109H30.7024L28.6067 24.6497L26.5619 27.4109H23.7952Z" fill="#016FD0"/>
<path d="M33.7734 18.4473V27.4129H36.0601V24.5816H38.4054C40.3898 24.5816 41.894 23.5225 41.894 21.4628C41.894 19.7566 40.7143 18.4473 38.6949 18.4473H33.7734ZM36.0601 20.4748H38.53C39.1711 20.4748 39.6293 20.8701 39.6293 21.5071C39.6293 22.1054 39.1734 22.5393 38.5226 22.5393H36.0601V20.4748Z" fill="#016FD0"/>
<path d="M42.8594 18.4453V27.4109H45.0874V24.2258H46.0255L48.6969 27.4109H51.4197L48.4881 24.1078C49.6912 24.0057 50.9323 22.9668 50.9323 21.354C50.9323 19.4673 49.4603 18.4453 47.8175 18.4453H42.8594ZM45.0874 20.4508H47.6342C48.2452 20.4508 48.6896 20.9316 48.6896 21.3945C48.6896 21.9902 48.1138 22.3383 47.6672 22.3383H45.0874V20.4508Z" fill="#016FD0"/>
<path d="M60.1657 27.4109V25.4644H64.6247C65.2845 25.4644 65.5701 25.1058 65.5701 24.7124C65.5701 24.3355 65.2854 23.9544 64.6247 23.9544H62.6097C60.8583 23.9544 59.8828 22.8809 59.8828 21.2692C59.8828 19.8316 60.7761 18.4453 63.3788 18.4453H67.7175L66.7794 20.4626H63.027C62.3097 20.4626 62.0888 20.8412 62.0888 21.2028C62.0888 21.5745 62.3617 21.9844 62.9097 21.9844H65.0204C66.9729 21.9844 67.8201 23.0985 67.8201 24.5576C67.8201 26.1262 66.8761 27.4109 64.9142 27.4109H60.1657Z" fill="#016FD0"/>
<path d="M68.3454 27.4109V25.4644H72.8044C73.4641 25.4644 73.7498 25.1058 73.7498 24.7124C73.7498 24.3355 73.465 23.9544 72.8044 23.9544H70.7894C69.0379 23.9544 68.0625 22.8809 68.0625 21.2692C68.0625 19.8316 68.9558 18.4453 71.5584 18.4453H75.8972L74.9591 20.4626H71.2066C70.4893 20.4626 70.2685 20.8412 70.2685 21.2028C70.2685 21.5745 70.5414 21.9844 71.0894 21.9844H73.2001C75.1526 21.9844 75.9998 23.0985 75.9998 24.5576C75.9998 26.1262 75.0557 27.4109 73.0938 27.4109H68.3454Z" fill="#016FD0"/>
</g>
<defs>
<clipPath id="clip0_1943_2936">
<rect width="76" height="30" fill="white"/>
</clipPath>
</defs>
</svg>
