<svg width="57" height="24" viewBox="0 0 57 24" fill="none" xmlns="http://www.w3.org/2000/svg">
<g clip-path="url(#clip0_1943_2917)">
<path d="M10.4216 3.0942C9.75363 3.90485 8.68488 4.54424 7.61613 4.4529C7.48253 3.3568 8.00577 2.1922 8.61808 1.47288C9.28605 0.639391 10.455 0.0456708 11.4013 0C11.5126 1.14177 11.0784 2.2607 10.4216 3.0942ZM11.3901 4.66984C9.84269 4.5785 8.51788 5.57184 7.78312 5.57184C7.03722 5.57184 5.91281 4.71551 4.6882 4.73834C3.0962 4.76118 1.61554 5.68601 0.802845 7.1589C-0.867077 10.1047 0.368665 14.4662 1.98292 16.8639C2.77335 18.0514 3.71964 19.353 4.96652 19.3073C6.14659 19.2617 6.61417 18.5195 8.03917 18.5195C9.4753 18.5195 9.88722 19.3073 11.1341 19.2845C12.4255 19.2617 13.2382 18.0971 14.0286 16.9096C14.9304 15.5623 15.2978 14.2493 15.32 14.1808C15.2978 14.1579 12.8263 13.1874 12.804 10.2645C12.7818 7.82112 14.7523 6.65652 14.8413 6.58801C13.728 4.89819 11.9913 4.71551 11.3901 4.66984ZM20.3298 1.35871V19.1589H23.0239V13.0733H26.7534C30.1601 13.0733 32.5536 10.6755 32.5536 7.20457C32.5536 3.73359 30.2046 1.35871 26.8425 1.35871H20.3298ZM23.0239 3.68792H26.13C28.4679 3.68792 29.8038 4.9667 29.8038 7.21598C29.8038 9.46527 28.4679 10.7555 26.1189 10.7555H23.0239V3.68792ZM37.4743 19.2959C39.1665 19.2959 40.7362 18.4167 41.4487 17.0238H41.5044V19.1589H43.9982V10.2988C43.9982 7.72978 41.9942 6.07421 38.9105 6.07421C36.0493 6.07421 33.9341 7.75262 33.8562 10.059H36.2831C36.4835 8.96289 37.4743 8.24358 38.8325 8.24358C40.4802 8.24358 41.4042 9.0314 41.4042 10.4814V11.4634L38.0421 11.6689C34.9138 11.863 33.2216 13.176 33.2216 15.4596C33.2216 17.7659 34.9694 19.2959 37.4743 19.2959ZM38.198 17.1836C36.7618 17.1836 35.8489 16.4757 35.8489 15.3911C35.8489 14.2721 36.7284 13.6213 38.4095 13.5186L41.4042 13.3245V14.3292C41.4042 15.9962 40.0237 17.1836 38.198 17.1836ZM47.3269 24C49.9542 24 51.19 22.9724 52.2698 19.8554L57.0013 6.24548H54.2626L51.0898 16.7612H51.0341L47.8612 6.24548H45.0446L49.6091 19.2046L49.3642 19.9924C48.9523 21.3283 48.2843 21.8421 47.0931 21.8421C46.8816 21.8421 46.4696 21.8192 46.3026 21.7964V23.9315C46.4585 23.9772 47.1265 24 47.3269 24Z" fill="black"/>
</g>
<defs>
<clipPath id="clip0_1943_2917">
<rect width="57" height="24" fill="white"/>
</clipPath>
</defs>
</svg>
