<svg width="61" height="29" viewBox="0 0 61 29" fill="none" xmlns="http://www.w3.org/2000/svg">
<g clip-path="url(#clip0_1943_2919)">
<path d="M28.8227 14.9952V22.0739H26.5352V4.56738H32.4827C33.9314 4.56738 35.3039 5.10019 36.3714 6.08969C37.4389 7.00308 37.9727 8.37316 37.9727 9.81935C37.9727 11.2655 37.4389 12.5595 36.3714 13.549C35.3039 14.5385 34.0077 15.0713 32.4827 15.0713L28.8227 14.9952ZM28.8227 6.69862V12.7879H32.6352C33.4739 12.7879 34.3127 12.4834 34.8464 11.8745C36.0664 10.7327 36.0664 8.82985 34.9227 7.68812L34.8464 7.612C34.2364 7.00308 33.4739 6.6225 32.6352 6.69862H28.8227Z" fill="#5F6368"/>
<path d="M43.2339 9.74316C44.9114 9.74316 46.2077 10.1999 47.1989 11.1132C48.1902 12.0266 48.6477 13.2445 48.6477 14.7668V22.0739H46.5127V20.3993H46.4364C45.5214 21.7694 44.2252 22.4545 42.7002 22.4545C41.4039 22.4545 40.2602 22.0739 39.3452 21.3127C38.5064 20.5516 37.9727 19.4859 37.9727 18.3442C37.9727 17.1264 38.4302 16.1369 39.3452 15.3757C40.2602 14.6146 41.5564 14.3101 43.0814 14.3101C44.4539 14.3101 45.5214 14.5384 46.3602 15.0712V14.5384C46.3602 13.7773 46.0552 13.0161 45.4452 12.5594C44.8352 12.0266 44.0727 11.7222 43.2339 11.7222C41.9377 11.7222 40.9464 12.255 40.2602 13.3206L38.2777 12.1027C39.4977 10.5043 41.0989 9.74316 43.2339 9.74316ZM40.3364 18.4203C40.3364 19.0293 40.6414 19.5621 41.0989 19.8665C41.6327 20.2471 42.2427 20.4754 42.8527 20.4754C43.7677 20.4754 44.6827 20.0949 45.3689 19.4098C46.1314 18.7248 46.5127 17.8875 46.5127 16.9741C45.8264 16.4413 44.8352 16.1369 43.5389 16.1369C42.6239 16.1369 41.8614 16.3652 41.2514 16.8219C40.6414 17.2025 40.3364 17.7353 40.3364 18.4203Z" fill="#5F6368"/>
<path d="M61.0025 10.123L53.4537 27.4013H51.1662L53.9875 21.3881L49.0312 10.1992H51.4712L55.055 18.8002H55.1312L58.6387 10.1992H61.0025V10.123Z" fill="#5F6368"/>
<path d="M19.7463 13.4721C19.7463 12.7871 19.67 12.102 19.5938 11.417H10.0625V15.2989H15.4762C15.2475 16.5167 14.5613 17.6585 13.4938 18.3435V20.8553H16.7725C18.6788 19.1047 19.7463 16.5167 19.7463 13.4721Z" fill="#4285F4"/>
<path d="M10.0678 23.2908C12.8128 23.2908 15.1003 22.3775 16.7778 20.8551L13.4991 18.3433C12.5841 18.9523 11.4403 19.3328 10.0678 19.3328C7.47531 19.3328 5.18781 17.5822 4.42531 15.1465H1.07031V17.7344C2.82406 21.1596 6.25531 23.2908 10.0678 23.2908Z" fill="#34A853"/>
<path d="M4.42203 15.1466C3.96453 13.9287 3.96453 12.5586 4.42203 11.2647V8.67676H1.06703C-0.381719 11.493 -0.381719 14.8421 1.06703 17.7345L4.42203 15.1466Z" fill="#FBBC04"/>
<path d="M10.0658 7.15448C11.5145 7.15448 12.887 7.68729 13.9545 8.67679L16.852 5.7844C15.022 4.10986 12.582 3.12036 10.142 3.19648C6.32953 3.19648 2.82203 5.32771 1.14453 8.75291L4.49953 11.3408C5.18578 8.90514 7.47328 7.15448 10.0658 7.15448Z" fill="#EA4335"/>
</g>
<defs>
<clipPath id="clip0_1943_2919">
<rect width="61" height="29" fill="white"/>
</clipPath>
</defs>
</svg>
