<svg width="35" height="22" viewBox="0 0 35 22" fill="none" xmlns="http://www.w3.org/2000/svg">
<path d="M22.0505 2.29785H12.6523V19.1826H22.0505V2.29785Z" fill="#FF5A00"/>
<path d="M13.277 10.7398C13.277 7.30932 14.8897 4.26464 17.3644 2.29741C15.5432 0.86544 13.2458 0 10.7398 0C4.80337 0 0 4.80337 0 10.7398C0 16.6762 4.80337 21.4796 10.7398 21.4796C13.2458 21.4796 15.5432 20.6142 17.3644 19.1822C14.8863 17.2428 13.277 14.1703 13.277 10.7398Z" fill="#EB001B"/>
<path d="M34.7316 10.7398C34.7316 16.6762 29.9282 21.4796 23.9918 21.4796C21.4858 21.4796 19.1884 20.6142 17.3672 19.1822C19.8731 17.2115 21.4546 14.1703 21.4546 10.7398C21.4546 7.30932 19.8419 4.26464 17.3672 2.29741C19.185 0.86544 21.4824 0 23.9883 0C29.9282 0 34.7316 4.83465 34.7316 10.7398Z" fill="#F79E1B"/>
</svg>
