<svg width="89" height="24" viewBox="0 0 89 24" fill="none" xmlns="http://www.w3.org/2000/svg">
<g clip-path="url(#clip0_1943_2907)">
<path d="M28.4605 4.79883C28.2774 4.79883 28.1218 4.93408 28.0931 5.11826L25.9729 18.7949C25.9652 18.8449 25.9682 18.8959 25.9818 18.9446C25.9953 18.9932 26.0191 19.0383 26.0514 19.0768C26.0837 19.1152 26.1238 19.1461 26.169 19.1672C26.2141 19.1884 26.2632 19.1993 26.313 19.1993H28.8274C29.0103 19.1993 29.1661 19.0638 29.1948 18.8799L29.8176 14.8637C29.846 14.6798 30.0018 14.5442 30.185 14.5442H32.471C35.1421 14.5442 37.4095 12.5619 37.8237 9.87575C38.2412 7.16688 36.1607 4.80471 33.2119 4.79883H28.4605ZM30.9048 7.85198H32.7338C34.2396 7.85198 34.73 8.75574 34.575 9.7552C34.4199 10.7568 33.6584 11.4945 32.2017 11.4945H30.34L30.9048 7.85198ZM42.9376 8.78167C42.3027 8.78408 41.5722 8.91639 40.752 9.26389C38.8706 10.0615 37.9671 11.71 37.5835 12.9118C37.5835 12.9118 36.3623 16.5784 39.1213 18.5928C39.1213 18.5928 41.6802 20.5321 44.5607 18.4733L44.511 18.7949C44.5033 18.8448 44.5063 18.8958 44.5198 18.9445C44.5333 18.9931 44.557 19.0381 44.5893 19.0766C44.6216 19.115 44.6616 19.1459 44.7067 19.1671C44.7518 19.1882 44.8008 19.1993 44.8505 19.1993H47.2375C47.4207 19.1993 47.5762 19.0638 47.6049 18.8799L49.0568 9.51409C49.0646 9.46413 49.0617 9.41306 49.0482 9.36437C49.0347 9.31569 49.011 9.27055 48.9787 9.23207C48.9465 9.19358 48.9064 9.16267 48.8613 9.14144C48.8161 9.12022 48.767 9.10919 48.7173 9.10912H46.3303C46.1472 9.10912 45.9913 9.24464 45.9629 9.42855L45.8849 9.93268C45.8849 9.93268 44.8426 8.77445 42.9376 8.78167ZM43.0157 11.7399C43.2898 11.7399 43.5405 11.7784 43.7654 11.8519C44.7953 12.1882 45.3793 13.1946 45.2103 14.2855C45.0019 15.6287 43.9189 16.6177 42.5301 16.6177C42.2562 16.6177 42.0055 16.5795 41.7803 16.506C40.7507 16.1697 40.1631 15.1633 40.332 14.0724C40.5404 12.7292 41.6268 11.7399 43.0157 11.7399Z" fill="#003087"/>
<path d="M62.8355 4.79883C62.6524 4.79883 62.4968 4.93408 62.4681 5.11826L60.3479 18.7949C60.3402 18.8449 60.3432 18.8959 60.3568 18.9446C60.3703 18.9932 60.3941 19.0383 60.4264 19.0768C60.4587 19.1152 60.4988 19.1461 60.544 19.1672C60.5891 19.1884 60.6382 19.1993 60.688 19.1993H63.2024C63.3853 19.1993 63.5411 19.0638 63.5698 18.8799L64.1926 14.8637C64.221 14.6798 64.3768 14.5442 64.56 14.5442H66.846C69.5171 14.5442 71.7842 12.5619 72.1981 9.87575C72.616 7.16688 70.5357 4.80471 67.5869 4.79883H62.8355ZM65.2798 7.85198H67.1088C68.6146 7.85198 69.105 8.75574 68.95 9.7552C68.7949 10.7568 68.0336 11.4945 66.5767 11.4945H64.715L65.2798 7.85198ZM77.3124 8.78167C76.6775 8.78408 75.9469 8.91639 75.1267 9.26389C73.2454 10.0615 72.3419 11.71 71.9582 12.9118C71.9582 12.9118 70.7375 16.5784 73.4966 18.5928C73.4966 18.5928 76.0549 20.5321 78.9357 18.4733L78.886 18.7949C78.8783 18.8449 78.8813 18.8959 78.8949 18.9446C78.9084 18.9932 78.9322 19.0383 78.9645 19.0768C78.9968 19.1152 79.0369 19.1461 79.0821 19.1672C79.1272 19.1884 79.1763 19.1993 79.2261 19.1993H81.6128C81.7959 19.1993 81.9515 19.0638 81.9802 18.8799L83.4326 9.51409C83.4404 9.46409 83.4374 9.41296 83.4239 9.36424C83.4104 9.31552 83.3867 9.27036 83.3544 9.23186C83.3221 9.19337 83.2819 9.16247 83.2367 9.14127C83.1915 9.12008 83.1423 9.10911 83.0926 9.10912H80.7056C80.5224 9.10912 80.3666 9.24464 80.3382 9.42855L80.2601 9.93268C80.2601 9.93268 79.2174 8.77445 77.3124 8.78167ZM77.3904 11.7399C77.6645 11.7399 77.9152 11.7784 78.1402 11.8519C79.1701 12.1882 79.754 13.1946 79.585 14.2855C79.3766 15.6287 78.2937 16.6177 76.9048 16.6177C76.6309 16.6177 76.3803 16.5795 76.155 16.506C75.1254 16.1697 74.5378 15.1633 74.7068 14.0724C74.9152 12.7292 76.0016 11.7399 77.3904 11.7399Z" fill="#2499E8"/>
<path d="M50.1857 9.10964C49.9965 9.10964 49.862 9.29756 49.9198 9.48066L52.5367 17.7406L50.1705 21.6331C50.0557 21.8221 50.1892 22.0662 50.4075 22.0662H53.2042C53.2842 22.0661 53.3628 22.0451 53.4324 22.0051C53.5021 21.9651 53.5604 21.9075 53.6018 21.8379L60.9104 9.54C61.0226 9.35102 60.8886 9.10938 60.6715 9.10938H57.8751C57.7944 9.10945 57.715 9.1309 57.6449 9.17163C57.5747 9.21236 57.5163 9.27096 57.4751 9.34166L54.5983 14.282L53.138 9.37828C53.0904 9.2187 52.9456 9.10938 52.7819 9.10938L50.1857 9.10964Z" fill="#003087"/>
<path d="M86.1408 4.79883C85.9579 4.79883 85.8021 4.93435 85.7734 5.11826L83.6527 18.7944C83.6449 18.8444 83.6479 18.8955 83.6614 18.9442C83.6749 18.9929 83.6986 19.0381 83.7309 19.0766C83.7633 19.1151 83.8034 19.146 83.8486 19.1672C83.8938 19.1884 83.943 19.1993 83.9927 19.1993H86.5072C86.6901 19.1993 86.8459 19.0638 86.8745 18.8799L88.9948 5.20326C89.0025 5.15335 88.9995 5.10233 88.986 5.05371C88.9724 5.00509 88.9487 4.96002 88.9165 4.9216C88.8842 4.88318 88.8442 4.85231 88.7991 4.83112C88.754 4.80993 88.7049 4.79891 88.6552 4.79883H86.1408Z" fill="#2499E8"/>
<path d="M7.49873 4.79883C7.33675 4.79896 7.18014 4.85785 7.05702 4.9649C6.93391 5.07196 6.85234 5.22016 6.82701 5.38289L5.71094 12.583C5.76297 12.2467 6.04783 11.999 6.38263 11.999H9.65312C12.9446 11.999 15.7376 9.55659 16.248 6.24682C16.2859 5.99972 16.3075 5.75029 16.3124 5.50024C15.4759 5.0541 14.4933 4.79883 13.4166 4.79883H7.49873Z" fill="#001C64"/>
<path d="M16.3085 5.50098C16.3036 5.75103 16.2821 6.00046 16.2441 6.24756C15.7338 9.55733 12.9406 11.9997 9.64931 11.9997H6.37882C6.04428 11.9997 5.75916 12.2472 5.70712 12.5838L4.6809 19.2001L4.03811 23.3508C4.02556 23.431 4.03027 23.513 4.0519 23.5912C4.07354 23.6693 4.1116 23.7418 4.16344 23.8035C4.21528 23.8653 4.27968 23.9149 4.35218 23.9488C4.42469 23.9828 4.50358 24.0004 4.58341 24.0003H8.13325C8.29522 24.0002 8.45183 23.9413 8.57495 23.8343C8.69807 23.7272 8.77961 23.579 8.80494 23.4163L9.73996 17.384C9.7653 17.2212 9.84694 17.0729 9.97016 16.9659C10.0934 16.8588 10.2501 16.8 10.4122 16.8H12.5022C15.7937 16.8 18.5867 14.3576 19.097 11.0478C19.4594 8.69874 18.2963 6.56111 16.3085 5.50098Z" fill="#2499E8"/>
<path d="M3.46419 0C3.12965 0 2.84453 0.247524 2.79249 0.583527L0.00685586 18.5507C-0.0459659 18.8918 0.213157 19.2002 0.552688 19.2002H4.68356L5.70925 12.5839L6.82533 5.38379C6.85066 5.22106 6.93222 5.07286 7.05534 4.9658C7.17846 4.85875 7.33507 4.79986 7.49704 4.79973H13.4149C14.4919 4.79973 15.4742 5.05527 16.3107 5.50113C16.368 2.48781 13.9234 0 10.5625 0H3.46419Z" fill="#003087"/>
</g>
<defs>
<clipPath id="clip0_1943_2907">
<rect width="89" height="24" fill="white"/>
</clipPath>
</defs>
</svg>
