<svg width="63" height="38" viewBox="0 0 63 38" fill="none" xmlns="http://www.w3.org/2000/svg">
<path d="M53.6979 24.7118L56.924 23.6965L55.876 21.3711C55.1063 22.3373 54.3366 23.5819 53.6979 24.7118ZM52.6007 14.0836L46.2794 0L0 2.62021L12.8226 37.6L37.5017 29.8212C35.9296 27.5613 35.3564 24.8756 37.1742 23.5655C39.2049 22.0916 42.2672 23.7948 44.216 26.2021C46.0993 23.0578 51.3888 15.7376 52.6007 14.0836Z" fill="#225E63"/>
<path d="M44.8327 10.1776C46.7651 10.1776 48.3372 8.70368 48.3372 6.86954C48.3372 5.03539 46.7651 3.56152 44.8327 3.56152C42.9003 3.56152 41.3281 5.03539 41.3281 6.86954C41.3281 8.68731 42.9003 10.1776 44.8327 10.1776ZM41.9668 11.6023H47.6985V26.5866H41.9668V11.6023Z" fill="#FEFEFE"/>
<path d="M39.1362 15.9746C39.1853 15.9909 39.2181 15.9746 39.2181 15.9254V12.1261C39.2181 12.077 39.1853 12.0279 39.1362 11.9951C39.1362 11.9951 38.3829 11.5038 36.0902 11.3728C35.9756 11.3073 33.9613 11.2909 33.4209 11.3728C25.069 12.0443 24.7578 18.0871 24.7578 18.3491V19.823C24.7578 20.0031 24.7578 26.177 33.4209 26.7174C34.2724 26.7829 35.9265 26.7174 36.0902 26.7174C38.0881 26.7174 39.4637 26.1115 39.4637 26.1115C39.5129 26.0951 39.5456 26.046 39.5456 25.9969V22.4432C39.5456 22.3941 39.5129 22.3777 39.4801 22.4105C39.4801 22.4105 38.8578 22.9017 36.1393 23.1801C35.3697 23.262 34.993 23.2293 34.7146 23.1801C30.8498 22.5251 30.6697 19.7084 30.6697 19.7084C30.6697 19.6592 30.6533 19.5773 30.6533 19.5446V18.4638C30.6533 18.4146 30.6533 18.3328 30.6697 18.3C30.6697 18.3 30.9317 15.2704 34.7146 14.9429H36.1393C37.7934 15.1558 39.1362 15.9746 39.1362 15.9746Z" fill="#FEFEFE"/>
<path d="M8.83984 26.5375C8.83984 26.5866 8.8726 26.6194 8.92173 26.6194H14.506C14.5552 26.6194 14.5879 26.5866 14.5879 26.5375V22.1814C14.5879 22.1323 14.6207 22.0995 14.6698 22.0995C14.6698 22.0995 23.5949 22.7382 23.5949 16.7608C23.5949 12.0281 17.9942 11.5204 16.1601 11.6023C16.1273 11.6023 8.92173 11.6023 8.92173 11.6023C8.8726 11.6023 8.83984 11.6351 8.83984 11.6842V26.5375ZM14.4897 18.7751V14.8612H15.8653C15.8653 14.8612 17.8468 14.9431 18.0106 16.3023C18.0433 16.4006 18.0433 17.072 18.0106 17.1048C17.7486 18.6933 16.029 18.7751 16.029 18.7751H14.4897Z" fill="#FEFEFE"/>
<path d="M45.0016 33.8174C45.4601 33.8174 45.8204 33.8174 46.41 33.5553C48.4406 32.4909 55.3023 15.7379 62.5406 10.5794C62.5898 10.5466 62.6389 10.4975 62.6716 10.4484C62.7208 10.3829 62.7208 10.3174 62.7208 10.3174C62.7208 10.3174 62.7208 9.97346 61.6563 9.97346C55.2204 9.79332 48.5225 23.3038 45.0016 28.6424C44.9525 28.708 44.7232 28.6424 44.7232 28.6424C44.7232 28.6424 42.365 25.8585 40.318 24.794C40.2689 24.7776 40.0396 24.6958 39.7939 24.7121C39.6302 24.7121 38.6804 24.9087 38.2382 25.3672C37.7142 25.924 37.7305 26.2351 37.7305 26.9066C37.7305 26.9557 37.7633 27.185 37.8288 27.2996C38.3364 28.1839 40.6128 31.3282 42.496 33.064C42.7744 33.2769 43.2166 33.8174 45.0016 33.8174Z" fill="#2BBC5D"/>
</svg>
