<svg width="46" height="15" viewBox="0 0 46 15" fill="none" xmlns="http://www.w3.org/2000/svg">
<g clip-path="url(#clip0_1943_2901)">
<path d="M29.9552 0.0234375C26.6924 0.0234375 23.7765 1.72219 23.7765 4.86005C23.7765 8.45897 28.9478 8.70753 28.9478 10.5158C28.9478 11.2771 28.0793 11.9586 26.5953 11.9586C24.4899 11.9586 22.9163 11.0064 22.9163 11.0064L22.2428 14.1734C22.2428 14.1734 24.0557 14.9777 26.4624 14.9777C30.0297 14.9777 32.8371 13.1958 32.8371 10.0039C32.8371 6.20075 27.6441 5.95959 27.6441 4.28163C27.6441 3.6852 28.3571 3.03194 29.8365 3.03194C31.5058 3.03194 32.8674 3.72447 32.8674 3.72447L33.5266 0.66607C33.5266 0.66607 32.0445 0.0234375 29.9547 0.0234375H29.9552ZM0.102558 0.254434L0.0234375 0.715966C0.0234375 0.715966 1.39608 0.968214 2.63256 1.47179C4.22462 2.04882 4.33778 2.38515 4.60596 3.42833L7.52742 14.7393H11.4439L17.4772 0.254434H13.57L9.6931 10.1027L8.11116 1.75453C7.96626 0.799124 7.23118 0.253972 6.33188 0.253972H0.103018L0.102558 0.254434ZM19.0486 0.254434L15.9836 14.7393H19.7096L22.7635 0.254434H19.0486ZM39.8295 0.254434C38.9312 0.254434 38.4551 0.737679 38.1059 1.58174L32.6471 14.7393H36.5543L37.3101 12.5462H42.0702L42.5297 14.7393H45.9774L42.97 0.254434H39.8295ZM40.3378 4.16798L41.4961 9.60333H38.3934L40.3383 4.16798H40.3378Z" fill="#304999"/>
</g>
<defs>
<clipPath id="clip0_1943_2901">
<rect width="46" height="15" fill="white"/>
</clipPath>
</defs>
</svg>
