<svg width="20" height="20" viewBox="0 0 20 20" fill="none" xmlns="http://www.w3.org/2000/svg">
<rect width="20" height="20" rx="10" fill="#E6E6E6"/>
<path d="M10.6667 10.5H9.33333V11.8333H10.6667V10.5ZM12.6667 7.83333H14V12.5C14 13.6027 13.1027 14.5 12 14.5H8C6.89733 14.5 6 13.6027 6 12.5V7.83333H7.33333V7.16667C7.33333 5.696 8.52933 4.5 10 4.5C11.4707 4.5 12.6667 5.696 12.6667 7.16667V7.83333ZM8.66667 7.83333H11.3333V7.16667C11.3333 6.43133 10.7353 5.83333 10 5.83333C9.26467 5.83333 8.66667 6.43133 8.66667 7.16667V7.83333ZM12.6667 9.16667H7.33333V12.5C7.33333 12.868 7.632 13.1667 8 13.1667H12C12.368 13.1667 12.6667 12.868 12.6667 12.5V9.16667Z" fill="#AFAFAF"/>
</svg>
