<svg width="48" height="48" viewBox="0 0 48 48" fill="none" xmlns="http://www.w3.org/2000/svg">
<path d="M14.1562 18.375L20.3325 27.0206C20.5867 27.3765 20.9192 27.6695 21.3044 27.8768C21.6895 28.0842 22.1171 28.2005 22.5542 28.2168C22.9913 28.2331 23.4263 28.1489 23.8258 27.9708C24.2253 27.7927 24.5787 27.5254 24.8588 27.1894L45.0938 2.90436" stroke="#1AC760" stroke-width="2" stroke-linecap="round" stroke-linejoin="round"/>
<path d="M32.9681 8.67002C28.9575 6.18805 24.1884 5.23034 19.5306 5.97155C14.8727 6.71276 10.6364 9.1035 7.59436 12.7078C4.55227 16.312 2.90705 20.8897 2.95875 25.6059C3.01044 30.322 4.75561 34.8625 7.87597 38.3993C10.9963 41.936 15.284 44.2333 19.957 44.8722C24.63 45.5111 29.3769 44.4491 33.3321 41.8798C37.2874 39.3105 40.1873 35.4052 41.5031 30.876C42.8189 26.3468 42.4629 21.4955 40.5 17.2069" stroke="#1AC760" stroke-width="2" stroke-linecap="round" stroke-linejoin="round"/>
</svg>
