<svg width="24" height="24" viewBox="0 0 24 24" fill="none" xmlns="http://www.w3.org/2000/svg">
<path d="M13.4294 4.19879C15.2376 2.51575 18.0675 2.61723 19.7507 4.42536C21.4339 6.23358 21.3323 9.06343 19.5241 10.7466C17.9983 12.1669 15.7451 12.317 14.0671 11.2427L11.4059 13.7203C12.3573 15.4708 12.0459 17.7082 10.5202 19.1285C8.71199 20.8114 5.88203 20.7099 4.1989 18.9019C2.51568 17.0937 2.61724 14.2629 4.42546 12.5797C5.95093 11.16 8.20375 11.0101 9.88152 12.0836L12.5436 9.60504C11.5932 7.85473 11.9041 5.61865 13.4294 4.19879Z" fill="#B3C1CD"/>
<path d="M13.4294 4.19879C15.2376 2.51575 18.0675 2.61723 19.7507 4.42536C21.4339 6.23358 21.3323 9.06343 19.5241 10.7466C17.9983 12.1669 15.7451 12.317 14.0671 11.2427L11.4059 13.7203C12.3573 15.4708 12.0459 17.7082 10.5202 19.1285C8.71199 20.8114 5.88203 20.7099 4.1989 18.9019C2.51568 17.0937 2.61724 14.2629 4.42546 12.5797C5.95093 11.16 8.20375 11.0101 9.88152 12.0836L12.5436 9.60504C11.5932 7.85473 11.9041 5.61865 13.4294 4.19879Z" fill="black" fill-opacity="0.2"/>
</svg>
