<svg width="300" height="300" viewBox="0 0 300 300" fill="none" xmlns="http://www.w3.org/2000/svg">
<rect width="300" height="300" fill="white"/>
<g clip-path="url(#clip0_4087_46088)">
<path d="M89.6896 128.23C89.7867 127.678 90.2629 127.276 90.819 127.276H101.46C102.173 127.276 102.713 127.926 102.589 128.634L95.0189 171.656C94.9218 172.208 94.446 172.61 93.8896 172.61H83.2488C82.5353 172.61 81.9951 171.96 82.1194 171.252L89.6896 128.23Z" fill="#11E372"/>
<path d="M139.71 127.276C140.424 127.276 140.964 127.926 140.84 128.634L139.041 138.885C138.944 139.438 138.468 139.84 137.911 139.84H129.134C128.578 139.84 128.102 140.242 128.005 140.794L122.569 171.656C122.471 172.208 121.996 172.61 121.44 172.61H110.799C110.085 172.61 109.545 171.96 109.669 171.252L114.963 141.198C115.087 140.49 114.547 139.84 113.833 139.84H105.869C105.156 139.84 104.615 139.191 104.74 138.482L106.539 128.231C106.636 127.679 107.112 127.276 107.668 127.276H139.71Z" fill="#11E372"/>
<path d="M77.899 127.128H46.8812C43.3584 127.128 40.5026 130.007 40.5026 133.558C40.5026 137.109 43.3584 139.988 46.8812 139.988H77.899C81.4218 139.988 84.2776 137.109 84.2776 133.558C84.2776 130.007 81.4218 127.128 77.899 127.128Z" fill="#11E372"/>
<path d="M60.3878 143.265H43.8783C40.3555 143.265 37.4996 146.144 37.4996 149.695C37.4996 153.247 40.3555 156.126 43.8783 156.126H60.3878C63.9106 156.126 66.7664 153.247 66.7664 149.695C66.7664 146.144 63.9106 143.265 60.3878 143.265Z" fill="#11E372"/>
<path d="M41.6288 159.404H41.3787C37.8558 159.404 35 162.283 35 165.834C35 169.385 37.8558 172.264 41.3787 172.264H41.6288C45.1516 172.264 48.0074 169.385 48.0074 165.834C48.0074 162.283 45.1516 159.404 41.6288 159.404Z" fill="#11E372"/>
<path d="M171.909 154.328C172.587 154.328 173.102 154.946 172.983 155.62L171.295 165.189C171.203 165.714 170.75 166.096 170.221 166.096H167.511C166.981 166.096 166.528 166.479 166.436 167.005L165.587 171.856C165.495 172.382 165.042 172.765 164.512 172.765H154.016C153.338 172.765 152.824 172.147 152.942 171.474L153.658 167.387C153.776 166.714 153.262 166.096 152.583 166.096H136.118C135.439 166.096 134.925 165.478 135.044 164.804L136.854 154.538C136.879 154.4 136.93 154.267 137.004 154.147L153.563 127.516C153.762 127.195 154.112 127 154.487 127H166.878C167.739 127 168.261 127.958 167.798 128.69L152.681 152.638C152.218 153.37 152.74 154.328 153.601 154.328H155.041C155.572 154.328 156.025 153.943 156.116 153.416L156.905 148.833C156.995 148.306 157.449 147.921 157.979 147.921H168.477C169.154 147.921 169.667 148.536 169.551 149.209L168.892 153.04C168.776 153.713 169.29 154.328 169.967 154.328H171.909Z" fill="#17181D"/>
<path d="M227.57 127C228.247 127 228.761 127.617 228.644 128.29L221.05 171.855C220.958 172.381 220.505 172.765 219.976 172.765H209.219C208.541 172.765 208.028 172.148 208.144 171.475L210.972 155.194C211.169 154.058 209.721 153.421 209.029 154.339L199.337 167.199C199.147 167.451 198.851 167.6 198.536 167.6C198.131 167.6 197.766 167.355 197.609 166.979L191.916 153.337C191.494 152.325 190.023 152.493 189.836 153.575L186.676 171.854C186.585 172.38 186.131 172.765 185.601 172.765H174.847C174.169 172.765 173.655 172.148 173.772 171.475L181.366 127.909C181.458 127.384 181.911 127 182.441 127H193.733C194.191 127 194.6 127.288 194.758 127.722L200.614 143.859C200.912 144.679 201.992 144.839 202.512 144.14L214.922 127.44C215.128 127.163 215.451 127 215.795 127H227.57Z" fill="#17181D"/>
<path d="M262.952 137.99C262.86 138.515 262.407 138.899 261.877 138.899H247.175C246.644 138.899 246.19 139.285 246.1 139.813L245.63 142.582C245.516 143.254 246.029 143.868 246.705 143.868H259.027C259.706 143.868 260.22 144.486 260.101 145.16L258.413 154.728C258.321 155.253 257.868 155.636 257.339 155.636H244.249C243.721 155.636 243.268 156.017 243.175 156.541L242.659 159.441C242.539 160.115 243.053 160.735 243.733 160.735H257.994C258.671 160.735 259.185 161.351 259.069 162.023L257.373 171.853C257.282 172.38 256.829 172.765 256.298 172.765H228.681C228.003 172.765 227.49 172.148 227.607 171.475L235.201 127.909C235.292 127.384 235.746 127 236.275 127H263.569C264.247 127 264.761 127.617 264.643 128.29L262.952 137.99Z" fill="#17181D"/>
</g>
<defs>
<clipPath id="clip0_4087_46088">
<rect width="230" height="46" fill="white" transform="translate(35 127)"/>
</clipPath>
</defs>
</svg>
