<svg width="56" height="56" viewBox="0 0 56 56" fill="none" xmlns="http://www.w3.org/2000/svg">
<path d="M20.0593 36.75L37.5593 19.25" stroke="#13D16A" stroke-width="2" stroke-linecap="round" stroke-linejoin="round"/>
<path d="M17.8718 20.8906C17.8718 21.9059 18.2751 22.8796 18.9931 23.5975C19.711 24.3154 20.6847 24.7187 21.7 24.7188C22.7152 24.7187 23.6889 24.3154 24.4068 23.5975C25.1248 22.8796 25.5281 21.9059 25.5281 20.8906C25.5281 19.8753 25.1248 18.9016 24.4068 18.1837C23.6889 17.4658 22.7152 17.0625 21.7 17.0625C20.6847 17.0625 19.711 17.4658 18.9931 18.1837C18.2751 18.9016 17.8718 19.8753 17.8718 20.8906Z" stroke="#13D16A" stroke-width="2" stroke-linecap="round" stroke-linejoin="round"/>
<path d="M32.0906 35.1094C32.0906 36.1247 32.4939 37.0984 33.2118 37.8163C33.9297 38.5342 34.9034 38.9375 35.9187 38.9375C36.934 38.9375 37.9077 38.5342 38.6256 37.8163C39.3435 37.0984 39.7468 36.1247 39.7468 35.1094C39.7468 34.0941 39.3435 33.1204 38.6256 32.4025C37.9077 31.6846 36.934 31.2812 35.9187 31.2812C34.9034 31.2812 33.9297 31.6846 33.2118 32.4025C32.4939 33.1204 32.0906 34.0941 32.0906 35.1094Z" stroke="#13D16A" stroke-width="2" stroke-linecap="round" stroke-linejoin="round"/>
<path d="M52.6094 28C52.6114 26.2547 52.0567 24.5543 51.026 23.146C49.9953 21.7376 48.5422 20.6946 46.8781 20.1687C47.6092 18.638 47.8477 16.9183 47.5609 15.2463C47.274 13.5744 46.4759 12.0325 45.2764 10.833C44.0769 9.63349 42.535 8.83536 40.863 8.5485C39.1911 8.26164 37.4714 8.50017 35.9406 9.23124C35.4081 7.57278 34.3629 6.12619 32.9555 5.0999C31.5481 4.07361 29.8512 3.52063 28.1094 3.52063C26.3675 3.52063 24.6706 4.07361 23.2632 5.0999C21.8558 6.12619 20.8106 7.57278 20.2781 9.23124C18.7362 8.47675 16.9964 8.22501 15.3038 8.51147C13.6113 8.79792 12.0512 9.60815 10.8434 10.828C9.63565 12.0479 8.84099 13.6159 8.57138 15.3112C8.30178 17.0066 8.57082 18.7438 9.34062 20.2781C7.68216 20.8106 6.23556 21.8558 5.20927 23.2632C4.18299 24.6706 3.63 26.3675 3.63 28.1094C3.63 29.8512 4.18299 31.5481 5.20927 32.9555C6.23556 34.3629 7.68216 35.4081 9.34062 35.9406C8.58613 37.4826 8.33438 39.2223 8.62084 40.9149C8.9073 42.6075 9.71753 44.1675 10.9374 45.3753C12.1573 46.5831 13.7253 47.3777 15.4206 47.6474C17.1159 47.917 18.8531 47.6479 20.3875 46.8781C20.92 48.5366 21.9652 49.9832 23.3726 51.0095C24.78 52.0357 26.4769 52.5887 28.2187 52.5887C29.9606 52.5887 31.6575 52.0357 33.0649 51.0095C34.4723 49.9832 35.5175 48.5366 36.05 46.8781C37.5807 47.6092 39.3005 47.8477 40.9724 47.5609C42.6443 47.274 44.1862 46.4759 45.3857 45.2764C46.5852 44.0769 47.3834 42.535 47.6702 40.863C47.9571 39.1911 47.7186 37.4714 46.9875 35.9406C48.6492 35.3901 50.0912 34.3224 51.1027 32.8937C52.1142 31.465 52.6422 29.7502 52.6094 28Z" stroke="#13D16A" stroke-width="2" stroke-linecap="round" stroke-linejoin="round"/>
</svg>
