<svg width="108" height="108" viewBox="0 0 108 108" fill="none" xmlns="http://www.w3.org/2000/svg">
<rect x="1" y="1" width="106" height="106" rx="24" fill="url(#paint0_linear_1_5986)"/>
<rect x="1" y="1" width="106" height="106" rx="24" stroke="#FFECEC" stroke-width="2"/>
<path d="M65.375 73.5C64.9263 73.5 64.5625 73.1362 64.5625 72.6875C64.5625 72.2388 64.9263 71.875 65.375 71.875" stroke="#FF3B30" stroke-width="2" stroke-linecap="round" stroke-linejoin="round"/>
<path d="M65.375 73.5C65.8237 73.5 66.1875 73.1362 66.1875 72.6875C66.1875 72.2388 65.8237 71.875 65.375 71.875" stroke="#FF3B30" stroke-width="2" stroke-linecap="round" stroke-linejoin="round"/>
<path d="M65.375 67V60.5" stroke="#FF3B30" stroke-width="2" stroke-linecap="round" stroke-linejoin="round"/>
<path d="M77.9701 72.8131C78.2628 73.399 78.401 74.0503 78.3716 74.7046C78.3419 75.3592 78.1456 75.9951 77.8011 76.5523C77.4566 77.1096 76.9754 77.5696 76.4032 77.8885C75.8309 78.2075 75.1866 78.3749 74.5316 78.3749H56.2189C55.5637 78.3749 54.9194 78.2075 54.3471 77.8885C53.7749 77.5696 53.2937 77.1096 52.9492 76.5523C52.6047 75.9951 52.4084 75.3592 52.3789 74.7046C52.3493 74.0503 52.4875 73.399 52.7804 72.8131L61.9368 54.5004C62.2557 53.8615 62.7464 53.3244 63.3538 52.9489C63.9613 52.5734 64.6611 52.3745 65.3753 52.3745C66.0892 52.3745 66.7892 52.5734 67.3965 52.9489C68.0039 53.3244 68.4946 53.8615 68.8138 54.5004L77.9701 72.8131Z" stroke="#FF3B30" stroke-width="2" stroke-linecap="round" stroke-linejoin="round"/>
<path d="M59.8957 48.1237C59.5943 47.8504 59.3549 47.5155 59.1942 47.1417C59.0334 46.7678 58.955 46.3638 58.9641 45.957C58.9578 45.5505 59.0375 45.1474 59.198 44.774C59.3586 44.4005 59.5965 44.0653 59.8957 43.7903L61.4124 42.447C61.8462 42.0547 62.148 41.538 62.2767 40.9676C62.4056 40.3972 62.3551 39.801 62.1321 39.2604C61.9094 38.7198 61.525 38.2612 61.0315 37.9473C60.5381 37.6335 59.9599 37.4797 59.3757 37.507L57.3391 37.6153C56.9436 37.6372 56.5478 37.5755 56.1777 37.4341C55.8077 37.2927 55.4716 37.0748 55.1915 36.7947C54.9113 36.5145 54.6933 36.1784 54.5521 35.8084C54.4106 35.4383 54.3488 35.0425 54.3707 34.647V32.632C54.4106 32.0455 54.2656 31.4613 53.9567 30.9612C53.6479 30.4612 53.1901 30.0703 52.648 29.8434C52.1057 29.6164 51.5059 29.5648 50.9331 29.6958C50.36 29.8268 49.8422 30.1337 49.4524 30.5737L48.0874 32.0903C47.8214 32.3834 47.497 32.6176 47.135 32.7779C46.7731 32.9382 46.3816 33.021 45.9858 33.021C45.5899 33.021 45.1984 32.9382 44.8365 32.7779C44.4746 32.6176 44.1501 32.3834 43.8841 32.0903L42.5191 30.5737C42.1293 30.1337 41.6115 29.8268 41.0385 29.6958C40.4655 29.5648 39.8658 29.6164 39.3236 29.8434C38.7814 30.0703 38.3237 30.4612 38.0147 30.9612C37.7058 31.4613 37.561 32.0455 37.6008 32.632V34.647C37.6227 35.0425 37.561 35.4383 37.4195 35.8084C37.2781 36.1784 37.0602 36.5145 36.7801 36.7947C36.5 37.0748 36.1639 37.2927 35.7938 37.4341C35.4237 37.5755 35.028 37.6372 34.6324 37.6153L32.5958 37.507C32.0116 37.4797 31.4334 37.6335 30.94 37.9473C30.4466 38.2612 30.0622 38.7198 29.8393 39.2604C29.6164 39.801 29.5659 40.3972 29.6948 40.9676C29.8236 41.538 30.1255 42.0547 30.5591 42.447L32.0758 43.7903C32.3751 44.0653 32.6128 44.4005 32.7734 44.774C32.934 45.1474 33.0137 45.5505 33.0074 45.957C33.0165 46.3638 32.938 46.7678 32.7773 47.1417C32.6165 47.5155 32.3773 47.8504 32.0758 48.1237L30.5591 49.4887C30.1266 49.8814 29.8259 50.3981 29.6979 50.9682C29.57 51.538 29.621 52.1336 29.8441 52.6736C30.0673 53.2116 30.4517 53.6672 30.9445 53.9775C31.4373 54.2879 32.0142 54.4381 32.5958 54.4069H34.6324C35.028 54.385 35.4237 54.4468 35.7938 54.5882C36.1639 54.7295 36.5 54.9475 36.7801 55.2276C37.0602 55.5078 37.2781 55.8438 37.4195 56.2139C37.561 56.584 37.6227 56.9798 37.6008 57.3752V59.3902C37.566 59.9748 37.7144 60.5557 38.0252 61.0521C38.336 61.5485 38.7938 61.9356 39.3349 62.1597C39.8759 62.3837 40.4733 62.4335 41.0441 62.3022C41.6148 62.1709 42.1304 61.865 42.5191 61.4269L43.8841 59.9319C44.1501 59.639 44.4746 59.4048 44.8365 59.2444C45.1984 59.0841 45.5899 59.0013 45.9858 59.0013C46.3816 59.0013 46.7731 59.0841 47.135 59.2444C47.497 59.4048 47.8214 59.639 48.0874 59.9319L49.4524 61.4269C49.8411 61.865 50.3568 62.1709 50.9275 62.3022" stroke="#FF3B30" stroke-width="2" stroke-linecap="round" stroke-linejoin="round"/>
<path d="M45.9858 51.2198C48.9282 51.2198 51.3135 48.8345 51.3135 45.8921C51.3135 42.9497 48.9282 40.5645 45.9858 40.5645C43.0435 40.5645 40.6582 42.9497 40.6582 45.8921C40.6582 48.8345 43.0435 51.2198 45.9858 51.2198Z" stroke="#FF3B30" stroke-width="2" stroke-linecap="round" stroke-linejoin="round"/>
<defs>
<linearGradient id="paint0_linear_1_5986" x1="18.9944" y1="34.5" x2="67.8079" y2="45.2133" gradientUnits="userSpaceOnUse">
<stop stop-color="white"/>
<stop offset="1" stop-color="#FFF8F8"/>
</linearGradient>
</defs>
</svg>
