<svg width="24" height="24" viewBox="0 0 24 24" fill="none" xmlns="http://www.w3.org/2000/svg">
<g clip-path="url(#clip0_4078_46058)">
<path d="M11.9997 0.333984C5.57134 0.333984 0.333008 5.57232 0.333008 12.0007C0.333008 18.429 5.57134 23.6673 11.9997 23.6673C18.428 23.6673 23.6663 18.429 23.6663 12.0007C23.6663 5.57232 18.428 0.333984 11.9997 0.333984ZM17.0747 16.1657C16.9113 16.4457 16.6197 16.5973 16.3163 16.5973C16.1647 16.5973 16.013 16.5623 15.873 16.469L12.2563 14.3107C11.358 13.774 10.693 12.5957 10.693 11.5573V6.77398C10.693 6.29565 11.0897 5.89898 11.568 5.89898C12.0463 5.89898 12.443 6.29565 12.443 6.77398V11.5573C12.443 11.9773 12.793 12.5957 13.1547 12.8057L16.7713 14.964C17.1913 15.209 17.3313 15.7457 17.0747 16.1657Z" fill="#B3C1CD"/>
<path d="M11.9997 0.333984C5.57134 0.333984 0.333008 5.57232 0.333008 12.0007C0.333008 18.429 5.57134 23.6673 11.9997 23.6673C18.428 23.6673 23.6663 18.429 23.6663 12.0007C23.6663 5.57232 18.428 0.333984 11.9997 0.333984ZM17.0747 16.1657C16.9113 16.4457 16.6197 16.5973 16.3163 16.5973C16.1647 16.5973 16.013 16.5623 15.873 16.469L12.2563 14.3107C11.358 13.774 10.693 12.5957 10.693 11.5573V6.77398C10.693 6.29565 11.0897 5.89898 11.568 5.89898C12.0463 5.89898 12.443 6.29565 12.443 6.77398V11.5573C12.443 11.9773 12.793 12.5957 13.1547 12.8057L16.7713 14.964C17.1913 15.209 17.3313 15.7457 17.0747 16.1657Z" fill="black" fill-opacity="0.2"/>
</g>
<defs>
<clipPath id="clip0_4078_46058">
<rect width="24" height="24" fill="white"/>
</clipPath>
</defs>
</svg>
