<svg width="32" height="32" viewBox="0 0 32 32" fill="none" xmlns="http://www.w3.org/2000/svg">
<rect width="32" height="32" rx="16" fill="#13D16A"/>
<g clip-path="url(#clip0_6083_13617)">
<path d="M18 10C18 9.46957 17.7893 8.96086 17.4142 8.58579C17.0391 8.21071 16.5304 8 16 8H8V24H9.33333V16.6667H14.6667V17.3333C14.6667 17.8638 14.8774 18.3725 15.2525 18.7475C15.6275 19.1226 16.1362 19.3333 16.6667 19.3333H24V10.6667H18V10ZM9.33333 9.33333H16C16.1768 9.33333 16.3464 9.40357 16.4714 9.5286C16.5964 9.65362 16.6667 9.82319 16.6667 10V15.3333H9.33333V9.33333ZM22.6667 12V18H16.6667C16.4899 18 16.3203 17.9298 16.1953 17.8047C16.0702 17.6797 16 17.5101 16 17.3333V16.6667H18V12H22.6667Z" fill="#FDFDFD"/>
</g>
<defs>
<clipPath id="clip0_6083_13617">
<rect width="16" height="16" fill="white" transform="translate(8 8)"/>
</clipPath>
</defs>
</svg>
