<svg width="24" height="24" viewBox="0 0 24 24" fill="none" xmlns="http://www.w3.org/2000/svg">
<path d="M6.77734 21C5.57641 21 4.65514 19.9345 4.82813 18.7461L5.99805 10.7051C6.00478 10.6589 6.01783 10.6147 6.03125 10.5713C4.29616 10.2979 3 9.14145 3 6.83594C3.00016 4.16521 4.73963 2.00024 6.88574 2C9.03202 2 10.7723 4.16506 10.7725 6.83594C10.7725 9.14829 9.46842 10.3053 7.72559 10.5742C7.7405 10.6232 7.75147 10.6741 7.75781 10.7266L8.7334 18.7939C8.87497 19.967 7.95896 21 6.77734 21Z" fill="#B3C1CD"/>
<path d="M6.77734 21C5.57641 21 4.65514 19.9345 4.82813 18.7461L5.99805 10.7051C6.00478 10.6589 6.01783 10.6147 6.03125 10.5713C4.29616 10.2979 3 9.14145 3 6.83594C3.00016 4.16521 4.73963 2.00024 6.88574 2C9.03202 2 10.7723 4.16506 10.7725 6.83594C10.7725 9.14829 9.46842 10.3053 7.72559 10.5742C7.7405 10.6232 7.75147 10.6741 7.75781 10.7266L8.7334 18.7939C8.87497 19.967 7.95896 21 6.77734 21Z" fill="black" fill-opacity="0.2"/>
<path d="M17.0029 2C15.9311 2 15.0927 2.92565 15.1992 3.99219L16.1572 13.582C16.201 14.0207 16.5709 14.3555 17.0117 14.3555C17.4529 14.3552 17.8221 14.0201 17.8652 13.5811L18.8057 3.98828C18.9099 2.92318 18.0731 2.00028 17.0029 2Z" fill="#B3C1CD"/>
<path d="M17.0029 2C15.9311 2 15.0927 2.92565 15.1992 3.99219L16.1572 13.582C16.201 14.0207 16.5709 14.3555 17.0117 14.3555C17.4529 14.3552 17.8221 14.0201 17.8652 13.5811L18.8057 3.98828C18.9099 2.92318 18.0731 2.00028 17.0029 2Z" fill="black" fill-opacity="0.2"/>
<path d="M17.0625 12C19.2371 12 21 13.7629 21 15.9375V20.2129C20.9998 20.6476 20.6467 21 20.2119 21C19.7773 20.9998 19.425 20.6475 19.4248 20.2129V17.7876C19.4248 17.3526 19.0722 17 18.6372 17C18.2022 17 17.8496 17.3526 17.8496 17.7876V20.2129C17.8494 20.6476 17.4963 21 17.0615 21C16.6269 20.9998 16.2746 20.6475 16.2744 20.2129V17.7871C16.2744 17.3524 15.922 17 15.4873 17C15.0526 17 14.7002 17.3524 14.7002 17.7871V20.2129C14.7 20.6476 14.3469 21 13.9121 21C13.4775 20.9998 13.1252 20.6475 13.125 20.2129V15.9375C13.125 13.7629 14.8879 12 17.0625 12Z" fill="#B3C1CD"/>
<path d="M17.0625 12C19.2371 12 21 13.7629 21 15.9375V20.2129C20.9998 20.6476 20.6467 21 20.2119 21C19.7773 20.9998 19.425 20.6475 19.4248 20.2129V17.7876C19.4248 17.3526 19.0722 17 18.6372 17C18.2022 17 17.8496 17.3526 17.8496 17.7876V20.2129C17.8494 20.6476 17.4963 21 17.0615 21C16.6269 20.9998 16.2746 20.6475 16.2744 20.2129V17.7871C16.2744 17.3524 15.922 17 15.4873 17C15.0526 17 14.7002 17.3524 14.7002 17.7871V20.2129C14.7 20.6476 14.3469 21 13.9121 21C13.4775 20.9998 13.1252 20.6475 13.125 20.2129V15.9375C13.125 13.7629 14.8879 12 17.0625 12Z" fill="black" fill-opacity="0.2"/>
</svg>
