<svg width="28" height="28" viewBox="0 0 28 28" fill="none" xmlns="http://www.w3.org/2000/svg">
<g >
<path d="M7.875 0.875V27.125" stroke="currentColor" stroke-width="1.5" stroke-linecap="round" stroke-linejoin="round"/>
<path d="M11.375 0.875V8.75C11.3722 9.67741 11.0026 10.566 10.3468 11.2218C9.69104 11.8776 8.80241 12.2472 7.875 12.25C6.94759 12.2472 6.05896 11.8776 5.40319 11.2218C4.74741 10.566 4.37777 9.67741 4.375 8.75V0.875" stroke="currentColor" stroke-width="1.5" stroke-linecap="round" stroke-linejoin="round"/>
<path d="M20.125 12.25V27.125" stroke="currentColor" stroke-width="1.5" stroke-linecap="round" stroke-linejoin="round"/>
<path d="M18.9583 0.875H21.2917C21.2917 0.875 23.625 0.875 23.625 3.20833V9.91667C23.625 9.91667 23.625 12.25 21.2917 12.25H18.9583C18.9583 12.25 16.625 12.25 16.625 9.91667V3.20833C16.625 3.20833 16.625 0.875 18.9583 0.875Z" stroke="currentColor" stroke-width="1.5" stroke-linecap="round" stroke-linejoin="round"/>
</g>
</svg>
