<svg width="28" height="28" viewBox="0 0 28 28" fill="none" xmlns="http://www.w3.org/2000/svg">
<g >
<path d="M6.4165 5.54169H11.3748C11.3748 5.54169 12.2498 5.54169 12.2498 6.41669V13.125C12.2498 13.125 12.2498 14 11.3748 14H6.4165C6.4165 14 5.5415 14 5.5415 13.125V6.41669C5.5415 6.41669 5.5415 5.54169 6.4165 5.54169Z" stroke="currentColor" stroke-width="1.5" stroke-linecap="round" stroke-linejoin="round"/>
<path d="M6.4165 17.5H11.3748C11.3748 17.5 12.2498 17.5 12.2498 18.375V21.5833C12.2498 21.5833 12.2498 22.4583 11.3748 22.4583H6.4165C6.4165 22.4583 5.5415 22.4583 5.5415 21.5833V18.375C5.5415 18.375 5.5415 17.5 6.4165 17.5Z" stroke="currentColor" stroke-width="1.5" stroke-linecap="round" stroke-linejoin="round"/>
<path d="M16.625 14H21.5833C21.5833 14 22.4583 14 22.4583 14.875V21.5833C22.4583 21.5833 22.4583 22.4583 21.5833 22.4583H16.625C16.625 22.4583 15.75 22.4583 15.75 21.5833V14.875C15.75 14.875 15.75 14 16.625 14Z" stroke="currentColor" stroke-width="1.5" stroke-linecap="round" stroke-linejoin="round"/>
<path d="M16.625 5.54169H21.5833C21.5833 5.54169 22.4583 5.54169 22.4583 6.41669V9.62502C22.4583 9.62502 22.4583 10.5 21.5833 10.5H16.625C16.625 10.5 15.75 10.5 15.75 9.62502V6.41669C15.75 6.41669 15.75 5.54169 16.625 5.54169Z" stroke="currentColor" stroke-width="1.5" stroke-linecap="round" stroke-linejoin="round"/>
<path d="M2.625 0.875H25.375C25.375 0.875 27.125 0.875 27.125 2.625V25.375C27.125 25.375 27.125 27.125 25.375 27.125H2.625C2.625 27.125 0.875 27.125 0.875 25.375V2.625C0.875 2.625 0.875 0.875 2.625 0.875Z" stroke="currentColor" stroke-width="1.5" stroke-linecap="round" stroke-linejoin="round"/>
</g>
</svg>
