<svg width="24" height="24" viewBox="0 0 24 24" fill="none" xmlns="http://www.w3.org/2000/svg">
    <path
            d="M8.578 2.427C9.364 -0.81 13.969 -0.809 14.754 2.428L14.783 2.523C14.818 2.616 14.869 2.703 14.934 2.779C15.02 2.88 15.129 2.958 15.252 3.009C15.375 3.06 15.508 3.082 15.641 3.072C15.773 3.061 15.901 3.02 16.015 2.951L16.283 2.802C19.059 1.421 22.061 4.561 20.384 7.318V7.319C20.315 7.432 20.273 7.561 20.263 7.693C20.253 7.825 20.273 7.959 20.324 8.082C20.375 8.204 20.455 8.314 20.556 8.4C20.656 8.486 20.777 8.547 20.905 8.579H20.904C24.041 9.339 24.139 13.685 21.198 14.669L20.904 14.754C20.775 14.786 20.655 14.848 20.554 14.934C20.453 15.02 20.374 15.13 20.323 15.252C20.272 15.375 20.25 15.509 20.261 15.641C20.271 15.773 20.313 15.902 20.382 16.015C22.115 18.86 18.86 22.116 16.015 20.384H16.014C15.9 20.315 15.772 20.273 15.64 20.263C15.507 20.253 15.374 20.274 15.251 20.325C15.128 20.376 15.019 20.455 14.933 20.556C14.847 20.657 14.785 20.777 14.754 20.906C13.992 24.041 9.648 24.139 8.663 21.199L8.578 20.905C8.547 20.776 8.485 20.655 8.398 20.554C8.312 20.453 8.203 20.375 8.08 20.324C7.957 20.273 7.824 20.251 7.691 20.261C7.559 20.272 7.431 20.313 7.317 20.382C4.473 22.114 1.217 18.86 2.948 16.015V16.014C3.017 15.901 3.059 15.773 3.069 15.64C3.08 15.508 3.059 15.374 3.008 15.252C2.957 15.129 2.877 15.019 2.776 14.933C2.676 14.847 2.556 14.786 2.427 14.754V14.753C-0.809 13.967 -0.809 9.364 2.428 8.579L2.522 8.549C2.615 8.515 2.703 8.464 2.778 8.399C2.879 8.313 2.958 8.203 3.009 8.081C3.06 7.958 3.081 7.824 3.071 7.692C3.061 7.56 3.019 7.431 2.95 7.318C1.217 4.473 4.472 1.217 7.317 2.949L7.411 2.999C7.887 3.214 8.451 2.949 8.578 2.427ZM11.666 7C10.429 7 9.241 7.492 8.366 8.367C7.491 9.242 6.999 10.429 6.999 11.667C6.999 12.904 7.491 14.091 8.366 14.966C9.241 15.841 10.429 16.333 11.666 16.333C12.903 16.333 14.091 15.841 14.966 14.966C15.841 14.091 16.333 12.904 16.333 11.667C16.333 10.429 15.841 9.242 14.966 8.367C14.091 7.492 12.904 7 11.666 7ZM11.666 9.333C12.285 9.333 12.879 9.579 13.316 10.016C13.754 10.454 13.999 11.048 13.999 11.667C13.999 12.285 13.754 12.879 13.316 13.317C12.879 13.754 12.285 14 11.666 14C11.047 13.999 10.453 13.754 10.016 13.317C9.578 12.879 9.333 12.285 9.333 11.667C9.333 11.048 9.578 10.454 10.016 10.016C10.453 9.579 11.047 9.334 11.666 9.333Z"
            fill="#89939B"
    />
</svg>