<svg width="32" height="32" viewBox="0 0 32 32" fill="none" xmlns="http://www.w3.org/2000/svg">
<rect width="32" height="32" rx="16" fill="#13D16A"/>
<g clip-path="url(#clip0_6083_13624)">
<path d="M24 16C24 20.4133 20.4133 24 16 24C11.5867 24 8 20.4133 8 16C8 11.5867 11.5867 8 16 8C16.4867 8 16.98 8.04667 17.4533 8.13333C17.8133 8.2 18.0533 8.54667 17.9867 8.90667C17.92 9.26667 17.5733 9.50667 17.2133 9.44C16.82 9.36667 16.4067 9.33333 16 9.33333C12.3267 9.33333 9.33333 12.3267 9.33333 16C9.33333 19.6733 12.3267 22.6667 16 22.6667C19.6733 22.6667 22.6667 19.6733 22.6667 16C22.6667 15.5933 22.6267 15.1867 22.56 14.7867C22.4933 14.4267 22.7333 14.08 23.0933 14.0133C23.46 13.9467 23.8 14.1867 23.8667 14.5467C23.9533 15.02 24 15.5133 24 16ZM16.5733 12.04C16.94 12.0933 17.2733 11.84 17.3267 11.4733C17.38 11.1067 17.1267 10.7733 16.76 10.72C16.5067 10.6867 16.2533 10.6667 16 10.6667C13.06 10.6667 10.6667 13.06 10.6667 16C10.6667 18.94 13.06 21.3333 16 21.3333C18.94 21.3333 21.3333 18.94 21.3333 16C21.3333 15.7467 21.3133 15.4933 21.28 15.24C21.2267 14.8733 20.8933 14.62 20.5267 14.6733C20.16 14.7267 19.9067 15.06 19.96 15.4267C19.9867 15.6133 20 15.8067 20 16C20 18.2067 18.2067 20 16 20C13.7933 20 12 18.2067 12 16C12 13.7933 13.7933 12 16 12C16.1933 12 16.3867 12.0133 16.5733 12.04ZM15.1133 15.0067C15.3867 14.76 15.4133 14.34 15.1667 14.0667C14.92 13.7933 14.5 13.7667 14.2267 14.0133C13.66 14.52 13.34 15.2467 13.34 16C13.34 17.4733 14.5333 18.6667 16.0067 18.6667C16.7667 18.6667 17.4867 18.34 17.9933 17.78C18.24 17.5067 18.2133 17.0867 17.94 16.84C17.6667 16.5933 17.2467 16.62 17 16.8933C16.7467 17.1733 16.3867 17.34 16.0067 17.34C15.2733 17.34 14.6733 16.74 14.6733 16.0067C14.6733 15.6267 14.8333 15.2667 15.12 15.0133L15.1133 15.0067ZM16.2 14.86C15.94 15.12 15.94 15.54 16.2 15.8C16.3333 15.9333 16.5 15.9933 16.6733 15.9933C16.8467 15.9933 17.0133 15.9267 17.1467 15.8L20.2867 12.66H22.0133C22.1933 12.66 22.36 12.5867 22.4867 12.4667L23.82 11.1333C24.0133 10.94 24.0667 10.6533 23.9667 10.4067C23.8667 10.16 23.62 9.99333 23.3533 9.99333H22.02V8.66667C22.02 8.4 21.86 8.15333 21.6067 8.05333C21.3533 7.94667 21.0733 8.00667 20.88 8.2L19.5467 9.53333C19.42 9.66 19.3533 9.82667 19.3533 10.0067V11.7333L16.2133 14.8733L16.2 14.86Z" fill="white"/>
</g>
<defs>
<clipPath id="clip0_6083_13624">
<rect width="16" height="16" fill="white" transform="translate(8 8)"/>
</clipPath>
</defs>
</svg>
