<svg width="28" height="28" viewBox="0 0 28 28" fill="none" xmlns="http://www.w3.org/2000/svg">
<g>
<path d="M6.22998 12.2224C8.16297 12.2224 9.72998 10.6554 9.72998 8.72241C9.72998 6.78941 8.16297 5.22241 6.22998 5.22241C4.29698 5.22241 2.72998 6.78941 2.72998 8.72241C2.72998 10.6554 4.29698 12.2224 6.22998 12.2224Z" stroke="currentColor" stroke-width="1.5" stroke-miterlimit="10" stroke-linecap="round" stroke-linejoin="round"/>
<path d="M13.9541 18.4665L10.8645 23.5762C10.2704 24.5268 10.508 25.834 11.4587 26.4281C12.5281 27.1411 13.8353 26.7846 14.4294 25.7151L18.1132 19.6547C19.5391 21.6749 20.4898 23.9326 20.9651 25.5963C21.3215 26.7846 22.6288 27.3787 23.6981 27.0222C24.8865 26.6658 25.5995 25.4774 25.2429 24.2892C24.7676 22.1502 23.6981 18.7041 21.4404 15.7334C18.3508 11.6931 14.786 9.91069 14.786 9.91069L18.4696 3.85035C18.945 3.01854 18.5885 1.59258 17.7567 1.11726C16.9248 0.641935 15.4989 0.879595 14.9047 1.71141L3.25939 20.7242C2.69803 21.6562 3.2594 22.982 4.09121 23.4573C4.92302 23.9326 6.34898 23.695 6.8243 22.8632L10.508 16.9217" stroke="currentColor" stroke-width="1.5" stroke-miterlimit="10" stroke-linecap="round" stroke-linejoin="round"/>
</g>
</svg>
