<svg width="32" height="32" viewBox="0 0 32 32" fill="none" xmlns="http://www.w3.org/2000/svg">
<rect width="32" height="32" rx="16" fill="#13D16A"/>
<path d="M16.3773 24H13.8126L15.146 18.6667H12.3906C12.1244 18.6666 11.8618 18.6042 11.6239 18.4845C11.3861 18.3648 11.1795 18.1911 11.0207 17.9773C10.8619 17.7636 10.7554 17.5156 10.7095 17.2533C10.6637 16.991 10.6798 16.7216 10.7566 16.4667L13.3173 8H19.6286L17.6286 13.3333H20.3106C20.6158 13.3335 20.9152 13.4164 21.177 13.5731C21.4388 13.7299 21.6533 13.9546 21.7975 14.2235C21.9418 14.4924 22.0106 14.7954 21.9964 15.1002C21.9823 15.405 21.8858 15.7003 21.7173 15.9547L16.3773 24ZM15.5206 22.6667H15.662L20.606 15.2173C20.6414 15.1639 20.6617 15.1019 20.6647 15.0379C20.6677 14.9738 20.6532 14.9102 20.6229 14.8537C20.5926 14.7972 20.5476 14.75 20.4926 14.7171C20.4376 14.6841 20.3747 14.6667 20.3106 14.6667H15.7046L17.7046 9.33333H14.3066L12.0326 16.8507C12.0157 16.9066 12.012 16.9657 12.022 17.0232C12.032 17.0808 12.0553 17.1352 12.0901 17.1821C12.1249 17.2291 12.1702 17.2672 12.2224 17.2934C12.2746 17.3197 12.3322 17.3334 12.3906 17.3333H16.8573L15.5206 22.6667Z" fill="white"/>
</svg>
