<svg width="24" height="24" viewBox="0 0 24 24" fill="none" xmlns="http://www.w3.org/2000/svg">
<path d="M4.66812 16.0992H0.813513C0.813513 16.0992 -0.217087 5.00195 0.813513 5.00195C1.84411 5.00195 3.85459 5.83779 3.85459 5.83779C4.34352 6.01835 4.66812 6.48293 4.66812 7.00432V16.0992Z" fill="#A65F3E"/>
<path d="M23.7464 15.2451H1.64734V5.82367C1.64734 5.36923 1.27811 5 0.823669 5C0.369231 5 0 5.36923 0 5.82367V18.9902H1.21724L2.19104 17.0467H21.809L22.7828 18.9902H24V15.4967C23.998 15.3587 23.8864 15.2451 23.7464 15.2451Z" fill="#C87D5E"/>
<path d="M1.80467 13.3306H3.68734V10.7115C3.1477 10.677 2.59791 10.8048 2.1597 11.1173C1.47196 11.6103 1.65455 12.4928 1.64846 13.2393C1.64846 13.2393 1.70932 13.2759 1.80467 13.3306Z" fill="#784D30"/>
<path d="M23.4484 15.841L2.31497 15.8613C2.01269 15.8613 1.72461 15.703 1.72461 15.3906C1.72461 15.3906 23.3368 15.2344 23.5823 15.2344C23.8277 15.2344 23.9921 15.2445 23.9921 15.4717C23.9921 15.6949 23.9596 15.841 23.4484 15.841Z" fill="#784D30"/>
<path d="M21.4266 15.5515L2.02984 15.5718C1.72756 15.5718 1.64844 15.2776 1.64844 14.9408V13.3361C1.64844 13.1028 1.81885 12.9121 2.02781 12.9121H21.2461C21.6478 12.9121 21.9744 13.2753 21.9744 13.7236V14.9408C21.9724 15.2776 21.7289 15.5515 21.4266 15.5515Z" fill="#E0F7FA"/>
<path d="M21.8086 17.0454H22.7824V18.5365V18.9889L21.8086 17.0454Z" fill="#784D30"/>
<path d="M2.19059 17.0454H1.2168V18.5365V18.9889L2.19059 17.0454Z" fill="#784D30"/>
<path d="M4.55625 12.916C2.2516 12.916 1.8418 11.7069 1.8418 11.7069C1.8418 11.7069 2.562 10.374 4.50148 10.374C6.44095 10.374 7.44721 11.5669 7.50604 11.9646C7.63182 12.8207 6.8609 12.916 4.55625 12.916Z" fill="#E0F7FA"/>
<path d="M1.8418 11.7075C2.0041 12.097 2.61475 12.9166 4.55625 12.9166C5.49962 12.9166 5.90942 12.9166 5.90942 12.9166L6.79192 11.7948C6.79192 11.7948 6.20156 12.093 4.5035 12.1417C3.34915 12.1741 2.35101 11.9875 1.8418 11.7075Z" fill="#94D1E0"/>
<path d="M23.1378 15.5719C23.7261 15.5719 24.0629 14.9978 23.933 14.3506C23.505 12.2103 22.8821 11.0884 21.2429 11.0884H9.91645C8.31172 11.0884 6.90783 11.8999 6.50614 13.5229C6.30935 14.3141 6.24849 14.8923 6.26675 15.5719H23.1378Z" fill="#3DAAE0"/>
<path d="M23.4425 15.684C23.9801 15.684 23.9943 15.2234 23.9395 14.7406C23.7549 13.1176 22.3875 12.8315 21.6592 12.8315H8.10115C8.10115 12.8315 7.79887 13.2799 7.65889 14.2577C7.52093 15.2356 7.667 15.684 7.667 15.684H23.4425Z" fill="#188AD6"/>
<path d="M8.09819 13.5229C8.50394 11.8999 9.92406 11.0884 11.5471 11.0884H9.11257C7.48957 11.0884 6.06945 11.8999 5.66371 13.5229C5.3736 14.6813 7.69245 15.1459 8.09819 13.5229Z" fill="#B0E0FF"/>
<path d="M7.89754 15.6833C7.89348 14.9184 7.9726 13.2792 8.62383 12.421C8.62383 12.421 7.99898 12.3013 7.28486 12.2993C6.4409 12.2993 6.1934 12.3764 6.1934 12.3764C5.90937 12.7375 5.79576 13.0155 5.66998 13.5226C5.57057 13.9162 5.50363 14.5188 5.46914 15.245C5.45899 15.4824 5.64969 15.6812 5.88706 15.6812H7.89754V15.6833Z" fill="#7DBBE3"/>
</svg>
