<svg width="24" height="24" viewBox="0 0 24 24" fill="none" xmlns="http://www.w3.org/2000/svg">
<g clip-path="url(#clip0_1560_4650)">
<path d="M15.4083 3.31721L11.9313 5.1157L8.49414 3.31721L8.77391 0H15.3284L15.4083 3.31721Z" fill="url(#paint0_linear_1560_4650)"/>
<path opacity="0.2" d="M14.7289 0.599496L14.7889 2.9775L11.9313 4.45626L9.11362 2.9775L9.31345 0.599496H14.7289ZM15.3284 0H8.77391L8.49414 3.31721L11.9512 5.1157L15.4283 3.31721C15.4083 3.31721 15.3284 0 15.3284 0Z" fill="#424242"/>
<path d="M18.1664 10.2117L18.5461 10.9111L21.9832 8.37323L19.7251 3.5373C18.9658 2.55812 15.5486 1.75879 15.5486 1.75879L13.4504 4.21672L12.0116 3.73713L10.5528 4.21672L8.45458 1.75879C8.45458 1.75879 5.01747 2.55812 4.2581 3.5373L2 8.37323L5.41713 10.9311L5.79681 10.2317C5.65693 11.7504 6.17649 13.2491 5.95668 14.7479C5.65693 16.7062 4.2581 20.603 4.2581 20.603C4.19815 21.4023 8.79429 23.8402 12.0116 23.8802C15.2089 23.8402 19.7851 21.4023 19.7251 20.603C19.7251 20.603 18.3063 16.7262 18.0265 14.7479C17.7867 13.2292 18.3063 11.7304 18.1664 10.2117Z" fill="url(#paint1_linear_1560_4650)"/>
<mask id="mask0_1560_4650" style="mask-type:luminance" maskUnits="userSpaceOnUse" x="2" y="1" width="20" height="24">
<path d="M18.5061 10.9328L21.9433 8.37494L19.6851 3.539C18.9258 2.55983 15.5087 1.7605 15.5087 1.7605L13.4504 4.19845L12.0516 3.73884L10.5328 4.23842L8.4346 1.7605C8.4346 1.7605 4.99748 2.55983 4.2581 3.539L2 8.37494L5.41713 10.9328L5.79681 10.2334C5.65693 11.7121 6.19648 13.1909 5.97666 14.6497C5.67691 16.668 4.59782 18.6663 4.21814 20.6446C4.15819 21.5639 8.87423 24.0018 11.9916 24.0018C15.109 24.0018 19.825 21.5639 19.7651 20.6446C19.3654 18.5864 18.2863 16.4881 17.9666 14.4099C17.7668 13.091 18.3263 11.7721 18.2064 10.4332C18.2264 10.4132 18.5061 10.9328 18.5061 10.9328Z" fill="white"/>
</mask>
<g mask="url(#mask0_1560_4650)">
<path opacity="0.1" d="M18.2855 9.09312C17.5661 6.91495 17.6261 6.19556 17.6261 6.19556C17.3463 9.45282 14.189 10.372 12.0508 8.97322C9.91258 10.372 6.75523 9.43284 6.49545 6.19556C6.49545 6.19556 6.53541 6.91495 5.836 9.07314C5.13659 11.2313 4.79688 13.1097 4.79688 13.1097C4.79688 13.1097 6.59537 10.9915 12.0508 10.9715C17.5062 10.9715 19.3047 13.1097 19.3047 13.1097C19.3047 13.1097 19.0049 11.2513 18.2855 9.09312Z" fill="#0D47A1"/>
</g>
<path opacity="0.2" d="M8.23476 2.41824L10.0932 4.61639C10.2131 4.75627 10.373 4.8362 10.5528 4.8362C10.6128 4.8362 10.6727 4.8362 10.7327 4.81622L12.0116 4.39657L13.2705 4.81622C13.3305 4.8362 13.3904 4.8362 13.4504 4.8362C13.6302 4.8362 13.7901 4.75627 13.91 4.61639L15.7684 2.41824C17.0474 2.73797 18.7659 3.33746 19.2255 3.83704L21.2438 8.1734L18.7659 10.0318L18.726 9.93192C18.626 9.73209 18.4062 9.61219 18.2064 9.61219C18.1464 9.61219 18.0865 9.61219 18.0265 9.63218C17.7468 9.71211 17.5869 9.97189 17.6069 10.2517C17.6668 10.8911 17.5869 11.5506 17.507 12.25C17.4071 13.0693 17.3071 13.9286 17.447 14.8078C17.7068 16.5664 18.8059 19.7037 19.1056 20.563C18.5061 21.2624 14.8692 23.2208 12.0316 23.2407C9.19396 23.2008 5.51705 21.2624 4.91755 20.563C5.2173 19.7037 6.31638 16.5664 6.57616 14.8078C6.71604 13.9286 6.61612 13.0693 6.51621 12.25C6.43627 11.5506 6.35634 10.9111 6.41629 10.2517C6.43627 9.97189 6.25643 9.71211 5.99664 9.63218C5.93669 9.61219 5.87674 9.61219 5.81679 9.61219C5.59698 9.61219 5.39715 9.73209 5.29723 9.93192L5.25726 10.0318L2.77935 8.1734L4.79765 3.83704C5.2173 3.33746 6.93585 2.75795 8.23476 2.41824ZM15.5486 1.75879L13.4504 4.21672L12.0116 3.73713L10.5528 4.21672L8.45458 1.75879C8.45458 1.75879 5.01747 2.55812 4.2581 3.5373L2 8.37323L5.41713 10.9311L5.79681 10.2317C5.65693 11.7504 6.17649 13.2491 5.95668 14.7479C5.65693 16.7062 4.2581 20.603 4.2581 20.603C4.19815 21.4023 8.79429 23.8402 12.0116 23.8802C15.2089 23.8402 19.7851 21.4023 19.7251 20.603C19.7251 20.603 18.3063 16.7262 18.0265 14.7479C17.8067 13.2491 18.3263 11.7504 18.1864 10.2317L18.5661 10.9311L21.9832 8.37323L19.7251 3.5373C18.9658 2.53813 15.5486 1.75879 15.5486 1.75879Z" fill="#424242"/>
<path d="M11.9921 6.65554C12.3232 6.65554 12.5916 6.38713 12.5916 6.05604C12.5916 5.72495 12.3232 5.45654 11.9921 5.45654C11.661 5.45654 11.3926 5.72495 11.3926 6.05604C11.3926 6.38713 11.661 6.65554 11.9921 6.65554Z" fill="#3949AB"/>
<path d="M11.9921 10.4124C12.3232 10.4124 12.5916 10.144 12.5916 9.81288C12.5916 9.48178 12.3232 9.21338 11.9921 9.21338C11.661 9.21338 11.3926 9.48178 11.3926 9.81288C11.3926 10.144 11.661 10.4124 11.9921 10.4124Z" fill="#3949AB"/>
<path d="M11.9921 14.1492C12.3232 14.1492 12.5916 13.8808 12.5916 13.5497C12.5916 13.2186 12.3232 12.9502 11.9921 12.9502C11.661 12.9502 11.3926 13.2186 11.3926 13.5497C11.3926 13.8808 11.661 14.1492 11.9921 14.1492Z" fill="#3949AB"/>
<path d="M11.9921 17.9063C12.3232 17.9063 12.5916 17.6379 12.5916 17.3068C12.5916 16.9757 12.3232 16.7073 11.9921 16.7073C11.661 16.7073 11.3926 16.9757 11.3926 17.3068C11.3926 17.6379 11.661 17.9063 11.9921 17.9063Z" fill="#3949AB"/>
<path d="M11.9921 21.6428C12.3232 21.6428 12.5916 21.3744 12.5916 21.0433C12.5916 20.7123 12.3232 20.4438 11.9921 20.4438C11.661 20.4438 11.3926 20.7123 11.3926 21.0433C11.3926 21.3744 11.661 21.6428 11.9921 21.6428Z" fill="#3949AB"/>
<path d="M12.0299 3.71688L11.0107 4.73602C10.5911 5.15567 9.99157 5.07574 9.65186 4.55617L7.77344 1.75852L8.75261 0L12.0299 3.71688Z" fill="#E1F5FE"/>
<path d="M12.0117 3.71688L13.0309 4.73602C13.4505 5.15567 14.05 5.07574 14.3897 4.55617L16.2681 1.75852L15.269 0L12.0117 3.71688Z" fill="#E1F5FE"/>
<path opacity="0.2" d="M8.833 0.679429L11.4908 3.67691L10.7314 4.41629C10.6315 4.51621 10.5116 4.57616 10.3917 4.57616C10.2318 4.57616 10.072 4.47624 9.97204 4.31637L8.2335 1.73854L8.833 0.679429ZM8.75307 0L7.75391 1.75852L9.63233 4.55617C9.83216 4.85592 10.1119 4.9958 10.3917 4.9958C10.6115 4.9958 10.8313 4.91587 11.0112 4.73602L12.0303 3.71688L8.75307 0Z" fill="#424242"/>
<path opacity="0.2" d="M15.229 0.679429L15.8285 1.73854L14.09 4.31637C13.9701 4.47624 13.8302 4.57616 13.6703 4.57616C13.5504 4.57616 13.4305 4.51621 13.3306 4.41629L12.5712 3.67691L15.229 0.679429ZM15.289 0L12.0117 3.71688L13.0309 4.73602C13.2107 4.91587 13.4305 4.9958 13.6503 4.9958C13.9301 4.9958 14.2099 4.83594 14.4097 4.55617L16.2881 1.75852L15.289 0Z" fill="#424242"/>
</g>
<defs>
<linearGradient id="paint0_linear_1560_4650" x1="11.9512" y1="5.1237" x2="11.9512" y2="0" gradientUnits="userSpaceOnUse">
<stop offset="0.0198" stop-color="#1E88E5"/>
<stop offset="1" stop-color="#42A5F5"/>
</linearGradient>
<linearGradient id="paint1_linear_1560_4650" x1="11.9916" y1="23.8542" x2="11.9916" y2="1.73281" gradientUnits="userSpaceOnUse">
<stop stop-color="#42A5F5"/>
<stop offset="1" stop-color="#90CAF9"/>
</linearGradient>
<clipPath id="clip0_1560_4650">
<rect width="24" height="24" fill="white"/>
</clipPath>
</defs>
</svg>

