<svg width="24" height="24" viewBox="0 0 24 24" fill="none" xmlns="http://www.w3.org/2000/svg">
<path d="M11.9243 23.3526C6.34612 23.3526 0.328125 19.8537 0.328125 12.1763C0.328125 4.49883 6.34612 1 11.9243 1C15.0232 1 17.8823 2.01966 20.0016 3.87904C22.3008 5.91836 23.5204 8.7974 23.5204 12.1763C23.5204 15.5551 22.3008 18.4142 20.0016 20.4535C17.8823 22.3129 15.0032 23.3526 11.9243 23.3526Z" fill="url(#paint0_radial_1560_4638)"/>
<path d="M21.4981 5.53223C22.5637 7.25165 23.1196 9.29897 23.1196 11.5762C23.1196 14.9551 21.9 17.8141 19.6007 19.8535C17.4814 21.7128 14.6024 22.7525 11.5234 22.7525C7.91262 22.7525 4.12588 21.283 1.89062 18.166C4.04191 21.6968 8.08856 23.3523 11.9233 23.3523C15.0023 23.3523 17.8813 22.3126 20.0006 20.4533C22.2998 18.4139 23.5194 15.5549 23.5194 12.176C23.5194 9.62886 22.8256 7.36562 21.4981 5.53223Z" fill="#EB8F00"/>
<path d="M12.003 18.3562C9.7018 18.3562 8.05835 17.1566 7.56451 16.4088C7.37857 16.1669 7.34059 15.843 7.46454 15.5651C7.55851 15.3872 7.74445 15.2772 7.94638 15.2832C8.02036 15.2832 8.09433 15.2952 8.16431 15.3172C9.4099 15.6931 10.7035 15.881 12.003 15.873C13.3026 15.881 14.5982 15.6931 15.8418 15.3172C15.9117 15.2952 15.9857 15.2832 16.0597 15.2832C16.2616 15.2772 16.4475 15.3872 16.5415 15.5651C16.6655 15.843 16.6275 16.1669 16.4416 16.4088C15.9477 17.1606 14.3043 18.3562 12.003 18.3562Z" fill="#422B0D"/>
<path d="M24 8.68147C24 8.68147 23.1483 8.69946 23.1483 9.38124C23.1483 11.0647 23.1683 14.6775 18.7498 14.6775C15.2189 14.6775 13.5335 12.8541 13.2496 10.8408C13.1336 10.003 12.8497 9.09133 11.996 9.09133C11.1423 9.09133 10.8664 9.99703 10.7504 10.8408C10.4665 12.8541 8.78107 14.6775 5.25025 14.6775C0.83972 14.6775 0.851716 11.0647 0.851716 9.38124C0.851716 8.69946 0 8.68147 0 8.68147V7.01403C1.36954 6.83409 2.74908 6.75011 4.12862 6.76211C6.62379 6.76211 7.61746 6.76211 9.6028 6.96204C10.7764 7.07801 12.002 7.092 12.002 7.092C12.002 7.092 13.2216 7.07801 14.4012 6.96204C16.3865 6.76211 17.3802 6.76211 19.8754 6.76211C21.2549 6.75011 22.6325 6.83609 24 7.01403V8.68147Z" fill="#422B0D"/>
<path d="M3.42779 9.9968C3.40779 10.3167 3.27984 10.6126 2.96594 10.6726C2.92995 10.6786 2.89596 10.6826 2.85998 10.6826C2.57807 10.6806 2.33615 10.4766 2.29217 10.1967C2.17021 9.64492 2.30416 9.06711 2.65604 8.62526C2.97994 8.23339 3.46378 8.00746 3.97161 8.00946C4.27351 7.98147 4.54142 8.2034 4.56941 8.5053C4.56941 8.51129 4.57141 8.51729 4.57141 8.52529C4.57141 8.90116 4.27151 9.06111 3.97161 9.16508C3.64372 9.31303 3.43179 9.63692 3.42779 9.9968Z" fill="#896024"/>
<path d="M16.1388 9.9968C16.1208 10.3167 15.9909 10.6126 15.679 10.6726C15.643 10.6786 15.607 10.6826 15.571 10.6826C15.2871 10.6826 15.0452 10.4766 14.9992 10.1967C14.8772 9.64492 15.0112 9.06711 15.3631 8.62526C15.689 8.23339 16.1708 8.00746 16.6806 8.00946C16.9825 7.98147 17.2504 8.2034 17.2784 8.5053C17.2784 8.51129 17.2804 8.51729 17.2804 8.52529C17.2804 8.90116 16.9805 9.06111 16.6806 9.16508C16.3547 9.31303 16.1428 9.63692 16.1388 9.9968Z" fill="#896024"/>
<defs>
<radialGradient id="paint0_radial_1560_4638" cx="0" cy="0" r="1" gradientUnits="userSpaceOnUse" gradientTransform="translate(11.9243 12.1763) scale(11.3881)">
<stop offset="0.5" stop-color="#FDE030"/>
<stop offset="0.92" stop-color="#F7C02B"/>
<stop offset="1" stop-color="#F4A223"/>
</radialGradient>
</defs>
</svg>
