<svg width="24" height="24" viewBox="0 0 24 24" fill="none" xmlns="http://www.w3.org/2000/svg">
<path d="M13.2412 9.96983C13.2412 9.96983 18.9201 0.872311 19.0494 0.644922C19.1788 0.417533 19.2063 0 18.8495 0C18.4927 0 9.64612 9.03087 9.64612 9.03087L3.36352 12.7553C3.36352 12.7553 2.94206 13.0141 3.00675 13.3375C3.07144 13.661 3.35372 13.6747 3.48309 13.6747C3.61247 13.6747 10.3146 13.6394 10.7047 13.6277C11.1888 13.6139 11.0693 14.302 11.0693 14.302L6.82728 20.9708C6.82728 20.9708 4.97484 23.5348 4.97484 23.7092C4.97484 23.966 5.28456 24.0934 5.57272 23.9209C5.79619 23.7876 20.2432 11.5459 20.8803 10.7049C21.0528 10.4756 21.141 9.87182 20.4295 9.87182C19.7179 9.87182 14.0508 11.5224 14.0508 11.5224L13.2412 9.96983Z" fill="#FEB804"/>
<path d="M12.251 9.2465C12.0766 9.48565 12.0295 9.88554 12.4059 9.90907C12.7803 9.93063 20.4331 9.87378 20.4331 9.87378C20.4331 9.87378 14.966 14.8979 13.3115 16.3975C11.6571 17.8971 6.17819 22.7546 5.80966 23.0976C5.44897 23.4348 5.12161 23.7445 4.98831 23.7014C4.96675 23.6955 4.93931 23.5799 5.45485 22.7311C5.92531 21.9568 10.4417 14.3882 10.6182 14.102C10.7946 13.8158 10.9494 13.5728 11.0376 13.4395C11.1259 13.3062 11.4121 12.5789 10.8161 12.5789C10.2202 12.5789 3.36719 12.7553 3.36719 12.7553C3.36719 12.7553 8.10119 8.7388 9.46945 7.6587C10.8377 6.5786 18.5925 0 18.8532 0C19.1139 0 12.4275 9.00539 12.251 9.2465Z" fill="#FFC927"/>
<path d="M12.0203 13.2463C12.3732 12.7386 12.7201 12.7013 12.9299 12.8268C13.2004 12.9895 13.2278 13.3639 12.8868 13.8167C12.3497 14.5342 8.40171 19.817 8.25077 20.0033C7.96457 20.3561 7.54312 20.2012 7.81756 19.6896C8.0469 19.2662 11.6557 13.7716 12.0203 13.2463Z" fill="#FFE567"/>
<path d="M6.41627 12.2155C5.73998 12.6683 5.11074 11.992 5.56356 11.4961C6.01637 11.0001 8.98811 8.5263 9.58991 8.01468C10.1917 7.50305 13.7045 4.44702 13.977 4.22747C14.3376 3.93736 14.5611 4.23139 14.3337 4.53327C14.1083 4.83515 11.6247 7.31683 10.5289 8.3244C9.68204 9.10458 7.05923 11.7842 6.41627 12.2155Z" fill="#FFE567"/>
</svg>
