<svg width="24" height="24" viewBox="0 0 24 24" fill="none" xmlns="http://www.w3.org/2000/svg">
<path d="M10.1026 4.33927L9.57227 4.01024L9.87033 3.52637C9.87033 3.52637 10.629 3.86701 10.6929 3.99088C10.7529 4.11282 10.6136 4.2812 10.6136 4.2812C10.4277 4.54636 10.271 4.44185 10.1026 4.33927Z" fill="#E49725"/>
<path d="M14.2691 17.1914C14.0659 17.0192 13.9323 16.7792 13.8955 16.516L13.5897 14.3521C13.8375 13.6418 13.4794 11.5728 11.8014 11.5728C11.5865 11.5728 11.3485 11.6076 11.0891 11.6831C10.6691 11.805 10.1523 13.1908 10.1523 13.1908L11.7859 18.1824C11.8285 18.3411 11.9039 18.4921 12.0104 18.6295C12.1633 18.823 12.3627 18.9605 12.5794 19.0379L16.791 21.2617L17.5013 19.9069L14.2691 17.1914Z" fill="#616161"/>
<path d="M18.3305 19.8273L17.8621 19.5118C17.6743 19.384 17.3995 19.3589 17.2021 19.3589C17.0627 19.3589 16.964 19.3724 16.964 19.3724L16.1743 20.5376L15.8105 21.8208C15.7389 22.1421 15.8685 22.475 16.1395 22.6627L16.3505 22.806C16.3853 22.8292 16.424 22.8408 16.4647 22.8408C16.5285 22.8408 16.5924 22.8098 16.6311 22.7518L18.3924 20.1486C18.464 20.0421 18.4369 19.8989 18.3305 19.8273Z" fill="#325599"/>
<path d="M9.97789 12.0542L9.06435 16.3626C8.91531 17.0613 8.88822 17.7813 8.98306 18.4916L9.55402 22.7845L10.9727 22.7806C10.9727 22.7806 11.3347 17.9961 11.3385 17.9884L12.5501 14.3148L12.5946 14.251C12.9682 13.8542 13.1192 12.9097 13.1192 12.9097L9.97789 12.0542Z" fill="#7C7C7C"/>
<path d="M15.2112 5.50101L13.8854 3.08554C13.866 3.0507 13.8254 3.03135 13.7867 3.03715C13.746 3.04296 13.7151 3.07393 13.7054 3.11264L12.8499 7.13648C12.8441 7.16165 12.8499 7.18874 12.8634 7.21003C12.877 7.23132 12.9002 7.24681 12.9254 7.25261L14.675 7.60874C14.6809 7.61068 14.6886 7.61068 14.6944 7.61068C14.7389 7.61068 14.7796 7.57971 14.7892 7.53519L15.2209 5.57069C15.2247 5.54553 15.2209 5.5223 15.2112 5.50101Z" fill="#E49725"/>
<path opacity="0.4" d="M15.1699 8.3038L12.3789 6.48059C12.3789 6.48059 12.6808 6.2851 12.8608 6.29478C13.0428 6.30446 15.2008 8.03477 15.2008 8.03477L15.1699 8.3038Z" fill="#212121"/>
<path d="M10.6907 5.13447L11.0256 4.64866L8.08946 2.63384C7.95591 2.54287 7.77204 2.57577 7.68107 2.70932C7.58817 2.84287 7.62301 3.02867 7.75655 3.11964L10.6907 5.13447Z" fill="#2E2F2F"/>
<path d="M20.7087 11.3687C20.7087 11.3687 21.6106 11.8719 21.7112 12.0886C21.7848 12.2493 21.7983 12.8183 21.7577 13.1822C21.719 13.548 21.5448 13.6254 21.5448 13.6254C21.5448 13.6254 21.239 13.8286 20.9099 13.8809C20.579 13.9332 20.5635 13.6351 20.5635 13.6351C20.5635 13.6351 20.4958 13.0912 20.5287 12.9132C20.5616 12.7351 20.6893 12.408 20.8693 12.1874C20.9506 12.0886 20.819 12.0035 20.819 12.0035L20.459 11.7286L20.7087 11.3687Z" fill="#2E2F2F"/>
<path d="M11.1073 22.252H9.58991L8.22347 22.7029C7.8925 22.8326 7.67379 23.1519 7.67186 23.5061L7.66992 23.781C7.66992 23.901 7.7667 23.9997 7.88669 23.9997L11.2757 23.9958C11.4131 23.9958 11.5254 23.8836 11.5254 23.7461V23.1365C11.5273 22.7223 11.1073 22.252 11.1073 22.252Z" fill="#4568AD"/>
<path d="M20.7087 11.3687C20.7087 11.3687 21.6106 11.8719 21.7112 12.0886C21.7848 12.2493 21.7983 12.8183 21.7577 13.1822C21.719 13.548 21.5448 13.6254 21.5448 13.6254C21.5448 13.6254 21.239 13.8286 20.9099 13.8809C20.579 13.9332 20.5635 13.6351 20.5635 13.6351C20.5635 13.6351 20.4958 13.0912 20.5287 12.9132C20.5616 12.7351 20.6893 12.408 20.8693 12.1874C20.9506 12.0886 20.819 12.0035 20.819 12.0035L20.459 11.7286L20.7087 11.3687Z" fill="#504F4F"/>
<path d="M17.8891 2.69697C17.8891 2.69697 17.7537 2.79568 17.5814 2.79568C17.4808 2.79568 17.3666 2.76278 17.2601 2.65439C17.1208 2.51311 16.995 2.36214 16.8943 2.19182C16.7937 2.02149 16.6814 1.8473 16.5111 1.74666C16.4395 1.70408 16.3795 1.69053 16.3214 1.69053C16.2343 1.69053 16.1511 1.7215 16.0446 1.73117H16.0272C15.8917 1.73117 15.7698 1.59763 15.6479 1.53376C15.3421 1.38472 15.0014 1.32666 14.6627 1.32666C14.6337 1.32666 14.6027 1.32666 14.5737 1.3286C13.9292 1.34795 13.7279 1.85117 13.155 2.01762C12.7118 2.1473 12.0459 2.43181 12.0014 3.29891C11.9724 3.85245 12.3943 4.44084 12.3982 4.66922C12.4021 4.91309 12.1447 4.93632 12.0421 4.93632C12.0169 4.93632 12.0014 4.93438 12.0014 4.93438C12.1659 5.37954 12.4447 5.45309 12.6401 5.45309C12.7137 5.45309 12.7737 5.44341 12.8143 5.4376C12.8143 5.4376 12.8782 5.70276 13.1317 5.89631C13.3756 6.08212 13.5963 6.11889 13.7279 6.11889C13.8072 6.11889 13.8556 6.10534 13.8556 6.10534C13.8556 6.10534 13.995 6.44405 14.6298 6.51566C14.6763 6.52147 14.7227 6.5234 14.7672 6.5234C15.1563 6.5234 15.4098 6.33373 15.4098 6.33373C15.5163 6.4847 15.6711 6.56018 15.8375 6.56018C15.9537 6.56018 16.0756 6.5234 16.1898 6.44792C16.1898 6.44792 15.8453 5.97567 16.3775 5.66793C16.9853 5.31567 17.262 5.06406 17.3995 4.84148C17.7072 4.34213 17.5911 3.96665 17.3627 3.52536C17.6259 3.37633 17.9666 3.21762 17.8891 2.69697Z" fill="#543930"/>
<path d="M16.6501 5.50184C16.5901 5.53862 15.514 4.48572 15.5082 3.79088C15.5063 3.65153 15.5101 3.50831 15.5527 3.37476C15.5837 3.27411 15.6301 3.14637 15.7269 3.09799C16.8534 2.54444 17.3604 3.52572 17.3604 3.52572C17.9624 4.54185 17.2172 5.14959 16.6501 5.50184Z" fill="url(#paint0_radial_1560_3379)"/>
<path d="M13.8751 4.87167C13.8886 4.81167 15.1235 4.7207 15.5551 5.1465C15.6422 5.23166 15.7273 5.32263 15.7854 5.43102C15.828 5.51231 15.8841 5.61682 15.8531 5.70585C15.5009 6.74133 14.5119 6.49746 14.5119 6.49746C13.4996 6.3194 13.7415 5.43876 13.8751 4.87167Z" fill="url(#paint1_radial_1560_3379)"/>
<path d="M14.8021 4.85106C14.3434 4.78719 13.8808 4.83557 13.8731 4.87235C13.786 5.24396 13.6524 5.75105 13.8576 6.10524C13.6853 6.13621 13.5847 6.10137 13.5847 6.10137C13.5189 6.08395 13.4608 6.07428 13.4047 6.05105C12.586 5.72008 12.7408 4.88396 12.8666 4.34396C12.8802 4.28203 14.2215 4.26848 14.6627 4.70203C14.7111 4.74848 14.7595 4.7988 14.8021 4.85106Z" fill="url(#paint2_radial_1560_3379)"/>
<path d="M13.1103 5.20122C13.1703 5.23799 14.1323 3.59865 14.14 2.90381C14.142 2.76446 14.1381 2.62123 14.0955 2.48768C14.0645 2.38704 14.0161 2.26123 13.9213 2.21091C12.8723 1.65156 12.2104 2.6251 12.2104 2.6251C11.5891 3.618 12.5433 4.84896 13.1103 5.20122Z" fill="url(#paint3_radial_1560_3379)"/>
<path d="M17.3664 3.52564C18.0458 3.21209 17.889 2.74177 17.8929 2.69725C17.7032 2.82306 17.5135 2.80757 17.4303 2.76693C17.169 2.64112 16.9541 2.26758 16.9541 2.26758C16.9541 2.26758 16.5071 3.52564 17.3664 3.52564Z" fill="url(#paint4_radial_1560_3379)"/>
<path d="M12.451 5.22116C12.0426 5.2231 12.0116 4.95407 12 4.93471C12.1219 4.95213 12.2458 4.90374 12.3097 4.8631C12.5226 4.72955 12.2748 4.30762 12.2748 4.30762C12.2748 4.30762 13.1981 5.03535 12.451 5.22116Z" fill="url(#paint5_radial_1560_3379)"/>
<path d="M15.6656 6.36077C15.9675 6.63367 16.1707 6.45561 16.192 6.44786C16.0778 6.2698 16.0604 6.11883 16.1068 5.96593C16.1804 5.72593 16.5772 5.5498 16.5772 5.5498C16.5772 5.5498 15.234 5.724 15.6656 6.36077Z" fill="url(#paint6_radial_1560_3379)"/>
<path d="M16.997 2.59252C17.0601 1.66895 16.1914 0.857371 15.0567 0.779804C13.9219 0.702237 12.9509 1.38806 12.8877 2.31162C12.8246 3.23519 13.6933 4.04677 14.828 4.12433C15.9628 4.2019 16.9338 3.51608 16.997 2.59252Z" fill="#1976D2"/>
<path d="M16.4157 2.09695C17.3544 3.16533 17.1106 4.315 16.4003 5.23048C15.6435 6.20789 13.7158 5.83047 12.8912 4.87048C12.0667 3.91048 12.2525 2.66985 13.139 1.90921C14.0254 1.14856 15.5796 1.14469 16.4157 2.09695Z" fill="url(#paint7_radial_1560_3379)"/>
<path d="M15.1884 2.62057C15.2115 2.49332 15.111 2.36844 14.9637 2.34164C14.8165 2.31484 14.6784 2.39626 14.6552 2.52351C14.6321 2.65075 14.7326 2.77563 14.8799 2.80244C15.0271 2.82924 15.1652 2.74781 15.1884 2.62057Z" fill="#0665B2"/>
<path d="M9.23794 7.32783L10.1147 5.63622L8.79085 4.93945L7.6586 7.1246C7.50182 7.42654 7.50182 7.78653 7.6586 8.08847C7.85988 8.4775 8.22956 8.75233 8.65924 8.83362L12.6502 9.58652L12.9173 7.69363L9.23794 7.32783Z" fill="#ED6D23"/>
<path d="M15.0126 7.23693C14.8926 6.96984 14.7262 6.79177 14.5307 6.7221L13.381 6.35049C12.5913 6.06597 11.7707 6.85177 11.5094 7.49242C10.8436 8.69241 10.2185 10.3801 9.65523 12.5072C9.57975 12.7569 9.60685 13.0221 9.73072 13.2524C9.85459 13.4846 10.0617 13.653 10.3133 13.7285C10.3152 13.7285 10.3152 13.7285 10.3172 13.7285C10.6714 13.8214 11.732 14.0382 12.6242 14.0382C13.083 14.0382 13.4991 13.9801 13.7488 13.8195C13.8939 13.7266 13.981 13.6046 14.0062 13.4479C14.19 11.6963 14.4417 10.2253 15.0707 8.74273C15.2429 8.31693 15.2197 7.69758 15.0126 7.23693Z" fill="url(#paint8_radial_1560_3379)"/>
<path opacity="0.4" d="M15.1368 8.51212L12.1523 6.63665C12.1523 6.63665 12.6846 6.27665 12.8646 6.28632C13.0465 6.296 15.1388 7.67212 15.1968 7.74954C15.2568 7.82503 15.1368 8.51212 15.1368 8.51212Z" fill="#212121"/>
<path d="M20.4617 11.7289L20.7114 11.3689L11.0282 4.64893L10.6934 5.13473L20.4617 11.7289Z" fill="#7C7D7D"/>
<path d="M10.6907 5.13447L11.0256 4.64866L8.08946 2.63384C7.95591 2.54287 7.77204 2.57577 7.68107 2.70932C7.58817 2.84287 7.62301 3.02867 7.75655 3.11964L10.6907 5.13447Z" fill="#504F4F"/>
<path d="M11.0445 4.22358C10.9806 4.12874 10.8684 4.08035 10.7561 4.10164C10.64 4.12294 10.5626 4.22164 10.52 4.28939C10.5142 4.29713 10.4716 4.35326 10.4387 4.42487C10.3361 4.44035 10.2316 4.46551 10.1697 4.48487L9.57355 4.75196C9.53871 4.76745 9.51742 4.80035 9.51548 4.83712L9.5 5.24744C9.5 5.25906 9.50194 5.26873 9.50387 5.27841C9.53871 5.40228 9.78645 5.56873 9.91032 5.61906C9.94129 5.63067 9.98 5.64422 10.0187 5.64422C10.0419 5.64422 10.0652 5.64035 10.0884 5.6268C10.129 5.60551 10.1445 5.57067 10.2219 5.38873C10.2606 5.2997 10.3303 5.13519 10.3439 5.1139C10.5277 5.01132 10.731 4.97454 10.7445 4.97067C10.7639 4.96487 10.7832 4.95519 10.8006 4.94164C10.8432 4.92035 10.8587 4.8797 10.8587 4.87583C10.8761 4.84487 10.8877 4.80809 10.8916 4.77906L10.909 4.7268C10.9593 4.57777 11.0561 4.45777 11.0639 4.44809C11.1026 4.38809 11.0948 4.29906 11.0445 4.22358Z" fill="#E49725"/>
<path d="M10.5278 3.43028C10.3497 3.27738 10.2955 3.44383 10.1794 3.3877C10.0632 3.33157 10.1194 3.25416 10.0129 3.21158C9.83679 3.1419 9.77098 3.25416 9.67808 3.21932C9.58131 3.18448 9.62969 3.1148 9.49614 3.08577C9.34518 3.05287 9.3084 3.16319 9.20389 3.11674C9.10131 3.06835 9.11679 3.02964 9.00647 3.00448C8.88841 2.97738 8.79937 3.00642 8.68518 3.1748C8.38325 3.61802 8.2168 4.5335 8.2168 4.5335L9.52711 5.20124C9.52711 5.20124 10.369 4.15222 10.4774 3.97802C10.5839 3.80577 10.7078 3.58512 10.5278 3.43028Z" fill="url(#paint9_linear_1560_3379)"/>
<path d="M13.4741 7.8534C13.4741 8.39533 13.0677 8.79597 12.6612 8.885C12.6457 8.89662 12.429 8.90049 12.3961 8.89662L7.89802 8.74178C7.67737 8.75726 7.45479 8.68372 7.28254 8.53081C7.02125 8.30243 6.92641 7.94049 7.03867 7.61146L8.09544 4.34438C8.10318 4.31729 8.12253 4.296 8.14769 4.28632C8.17286 4.27664 8.20189 4.27471 8.22705 4.28632L9.70381 4.96761C9.75027 4.9889 9.77156 5.04116 9.75414 5.08761L9.07672 6.98437L12.3941 6.81018C12.3999 6.80824 12.4135 6.80824 12.429 6.80824C12.4967 6.80437 12.6283 6.80631 12.6399 6.81598C12.9322 6.87018 13.2264 7.08308 13.3735 7.4005C13.4373 7.53404 13.4741 7.68695 13.4741 7.8534Z" fill="#F78C1F"/>
<path opacity="0.4" d="M13.3722 7.40076L12.4277 6.80851C12.4955 6.80464 12.6271 6.80657 12.6387 6.81625C12.931 6.87045 13.2251 7.08335 13.3722 7.40076Z" fill="#212121"/>
<defs>
<radialGradient id="paint0_radial_1560_3379" cx="0" cy="0" r="1" gradientUnits="userSpaceOnUse" gradientTransform="translate(16.3978 4.47048) rotate(-74.763) scale(1.47213 1.22695)">
<stop offset="0.7247" stop-color="#6D4C41" stop-opacity="0"/>
<stop offset="1" stop-color="#6D4C41"/>
</radialGradient>
<radialGradient id="paint1_radial_1560_3379" cx="0" cy="0" r="1" gradientUnits="userSpaceOnUse" gradientTransform="translate(14.6799 4.54299) rotate(60.2381) scale(2.27396 1.89517)">
<stop offset="0.7247" stop-color="#6D4C41" stop-opacity="0"/>
<stop offset="1" stop-color="#6D4C41"/>
</radialGradient>
<radialGradient id="paint2_radial_1560_3379" cx="0" cy="0" r="1" gradientUnits="userSpaceOnUse" gradientTransform="translate(14.3931 4.28621) rotate(-85.7217) scale(2.25683 1.88092)">
<stop offset="0.7969" stop-color="#6D4C41" stop-opacity="0"/>
<stop offset="1" stop-color="#6D4C41"/>
</radialGradient>
<radialGradient id="paint3_radial_1560_3379" cx="0" cy="0" r="1" gradientUnits="userSpaceOnUse" gradientTransform="translate(13.5601 3.95924) rotate(-105.237) scale(2.09698 1.74774)">
<stop offset="0.7247" stop-color="#6D4C41" stop-opacity="0"/>
<stop offset="1" stop-color="#6D4C41"/>
</radialGradient>
<radialGradient id="paint4_radial_1560_3379" cx="0" cy="0" r="1" gradientUnits="userSpaceOnUse" gradientTransform="translate(17.3806 2.67731) rotate(119.603) scale(0.667799 0.495393)">
<stop offset="0.3031" stop-color="#6D4C41"/>
<stop offset="1" stop-color="#6D4C41" stop-opacity="0"/>
</radialGradient>
<radialGradient id="paint5_radial_1560_3379" cx="0" cy="0" r="1" gradientUnits="userSpaceOnUse" gradientTransform="translate(12.2242 4.76657) rotate(35.3525) scale(0.478406 0.354914)">
<stop offset="0.3031" stop-color="#6D4C41"/>
<stop offset="1" stop-color="#6D4C41" stop-opacity="0"/>
</radialGradient>
<radialGradient id="paint6_radial_1560_3379" cx="0" cy="0" r="1" gradientUnits="userSpaceOnUse" gradientTransform="translate(16.2613 6.08962) rotate(-173.471) scale(0.582473 0.432087)">
<stop offset="0.3031" stop-color="#6D4C41"/>
<stop offset="1" stop-color="#6D4C41" stop-opacity="0"/>
</radialGradient>
<radialGradient id="paint7_radial_1560_3379" cx="0" cy="0" r="1" gradientUnits="userSpaceOnUse" gradientTransform="translate(15.0357 2.3232) scale(2.98082)">
<stop offset="0.1701" stop-color="#42A5F5"/>
<stop offset="0.4571" stop-color="#3798EB"/>
<stop offset="0.9831" stop-color="#1976D2"/>
</radialGradient>
<radialGradient id="paint8_radial_1560_3379" cx="0" cy="0" r="1" gradientUnits="userSpaceOnUse" gradientTransform="translate(12.5877 10.6298) scale(3.37386)">
<stop offset="0.3637" stop-color="#F78C1F"/>
<stop offset="0.6778" stop-color="#F37F20"/>
<stop offset="1" stop-color="#ED6D23"/>
</radialGradient>
<linearGradient id="paint9_linear_1560_3379" x1="9.71967" y1="3.17472" x2="9.17954" y2="4.63308" gradientUnits="userSpaceOnUse">
<stop offset="0.35" stop-color="#FFCA28"/>
<stop offset="1" stop-color="#FFB300"/>
</linearGradient>
</defs>
</svg>
