<svg width="24" height="24" viewBox="0 0 24 24" fill="none" xmlns="http://www.w3.org/2000/svg">
<g clip-path="url(#clip0_1560_4620)">
<path d="M16.4873 23.5937C14.7523 23.5796 12.1489 23.5113 9.58763 23.27C7.82451 23.1032 6.0031 22.8398 4.61995 22.0557C4.22993 21.8346 3.80373 21.7803 3.42577 21.7341C3.26494 21.714 3.11416 21.6959 2.9855 21.6657C2.00442 21.4345 1.31888 20.5861 1.31486 19.6031L1.30079 13.019C1.29878 12.1083 1.94813 11.3464 2.84678 11.2056C2.86286 11.2036 2.87693 11.1996 2.89302 11.1956C3.00359 11.1594 5.64525 10.299 7.63554 8.74291C8.57238 8.01113 9.37453 6.8833 9.78264 5.72732C10.1887 4.57537 10.1867 3.31887 10.1847 2.30965C10.1847 1.65829 10.1827 0.848097 10.3596 0.729483C10.7898 0.446018 11.2643 0.30127 11.7689 0.30127C13.3209 0.30127 14.9051 1.7186 14.9674 3.16206C15.0117 4.16324 14.6759 5.34535 14.3523 6.48725C13.9703 7.84025 13.6386 9.00828 13.9381 9.80239C13.9823 9.921 14.0949 9.9974 14.2196 9.9974C14.2236 9.9974 15.6852 9.94714 15.6852 9.94714H15.6992C17.3397 9.94714 18.6746 11.282 18.6766 12.9205L18.6867 21.4064C18.6867 21.9914 18.4615 22.5402 18.0474 22.9524C17.6352 23.3645 17.0864 23.5937 16.5014 23.5937H16.4873Z" fill="url(#paint0_radial_1560_4620)"/>
<path d="M11.7697 0.603118C13.1488 0.603118 14.6104 1.90183 14.6667 3.17441C14.7089 4.12734 14.3812 5.28532 14.0635 6.40511C13.6655 7.80837 13.3237 9.02064 13.6574 9.90722C13.7459 10.1424 13.9711 10.2972 14.2224 10.2972H14.2445L15.692 10.247H15.704C17.1776 10.247 18.3778 11.4452 18.3799 12.9208L18.3899 21.4067C18.3899 21.9093 18.1949 22.3837 17.8391 22.7396C17.4832 23.0954 17.0108 23.2924 16.5062 23.2924H16.4901C14.7611 23.2783 12.1657 23.21 9.61655 22.9708C7.88761 22.8079 6.10238 22.5506 4.76949 21.7947C4.32721 21.5434 3.84873 21.4851 3.46475 21.4368C3.31196 21.4187 3.16922 21.4006 3.05664 21.3725C2.21227 21.1735 1.62122 20.4457 1.61921 19.6033L1.60312 13.0193C1.60111 12.2594 2.14392 11.6221 2.89379 11.5055C2.92395 11.5015 2.95612 11.4934 2.98426 11.4834C3.09684 11.4472 5.78675 10.5686 7.81926 8.98043C8.79832 8.21447 9.63867 7.03638 10.0649 5.82813C10.4891 4.62793 10.4871 3.34328 10.485 2.30994C10.485 1.81941 10.483 1.15598 10.5675 0.954937C10.9374 0.719721 11.3415 0.603118 11.7697 0.603118ZM11.7697 0C11.2369 0 10.6981 0.144748 10.1935 0.478474C9.54217 0.908698 10.2478 3.49809 9.49794 5.62508C9.04761 6.90168 8.18917 7.92698 7.44935 8.50396C5.47916 10.0439 2.80132 10.9084 2.80132 10.9084C1.76194 11.0712 0.997994 11.9679 1 13.0213L1.01609 19.6054C1.02011 20.7392 1.81421 21.6982 2.91792 21.9595C3.36423 22.0641 3.97338 22.0359 4.47195 22.3194C5.80484 23.0753 7.51368 23.3769 9.56026 23.5699C12.0934 23.8091 14.6667 23.8795 16.4861 23.8955H16.5062C17.8793 23.8955 18.995 22.7818 18.993 21.4067L18.983 12.9208C18.981 11.1094 17.5114 9.64587 15.704 9.64587H15.6799L14.2244 9.69613C13.7218 8.36123 15.3683 5.3577 15.2718 3.14828C15.2014 1.57816 13.5268 0 11.7697 0Z" fill="#EDA600"/>
<path d="M12.5868 11.6983C12.9648 12.7035 12.9688 14.2716 12.5868 15.2406C12.0339 16.6399 10.6809 17.8642 9.11887 18.0793C8.7369 18.1316 8.96407 18.4834 9.34404 18.4311C11.0348 18.1979 13.3226 17.5124 13.9177 15.9945C15.5501 11.823 13.6402 9.63767 12.7878 10.289C12.3777 10.6067 12.3737 11.1294 12.5868 11.6983Z" fill="#EDA600"/>
<path d="M16.64 13.1901C14.9594 13.1901 12.9389 12.8785 12.8525 11.3888C12.8283 10.9626 12.957 10.6047 13.2465 10.2972C14.0084 9.48897 15.8801 9.04468 18.5178 9.04468C19.4747 9.04468 20.1723 9.107 20.1803 9.107C20.1884 9.107 20.1984 9.10901 20.2065 9.10901H20.2246C20.2527 9.107 20.2789 9.107 20.307 9.107C21.1614 9.107 21.8751 9.87698 21.9334 10.8601C21.9937 11.8773 21.3243 12.7458 20.4417 12.7961C20.4276 12.7961 20.4115 12.7981 20.3975 12.8021C20.3794 12.8041 18.5178 13.1901 16.64 13.1901Z" fill="url(#paint1_radial_1560_4620)"/>
<path d="M18.5212 9.34653C19.462 9.34653 20.1496 9.40684 20.1556 9.40684C20.1737 9.40885 20.1918 9.40885 20.2099 9.40885C20.222 9.40885 20.234 9.40885 20.2441 9.40684C20.2662 9.40483 20.2883 9.40483 20.3084 9.40483C21.002 9.40483 21.585 10.0502 21.6333 10.8724C21.6574 11.2986 21.5368 11.7027 21.2935 12.0123C21.0663 12.3018 20.7567 12.4707 20.425 12.4908C20.3949 12.4928 20.3647 12.4968 20.3366 12.5028C20.3185 12.5069 18.483 12.8868 16.6414 12.8868C15.5719 12.8868 14.7235 12.7622 14.1224 12.5169C13.2962 12.1792 13.1735 11.7007 13.1554 11.371C13.1353 11.0272 13.2358 10.7518 13.469 10.5025C14.1626 9.76871 16.0042 9.34653 18.5212 9.34653ZM18.5212 8.74341C16.2253 8.74341 12.4176 9.09121 12.5523 11.4072C12.6508 13.0798 14.6693 13.492 16.6414 13.492C18.5734 13.492 20.4612 13.0959 20.4612 13.0959C21.5106 13.0336 22.3067 12.0244 22.2364 10.8402C22.17 9.69432 21.3176 8.80372 20.3104 8.80372C20.2762 8.80372 20.2441 8.80372 20.2099 8.80573C20.2099 8.80573 19.5042 8.74341 18.5212 8.74341Z" fill="#EDA600"/>
<path d="M17.8986 17.0158C15.7053 17.0158 13.0918 16.6479 13.0918 14.8909C13.0918 13.1338 15.7053 12.7659 17.8986 12.7659C19.7583 12.7659 21.453 13.0373 21.4691 13.0393C21.4852 13.0413 21.5013 13.0433 21.5174 13.0433C22.4039 13.0433 23.0211 13.9801 23.0211 14.8205C23.0211 15.7071 22.3637 16.7364 21.5174 16.7364C21.5013 16.7364 21.4852 16.7384 21.4691 16.7404C21.451 16.7444 19.7563 17.0158 17.8986 17.0158Z" fill="url(#paint2_radial_1560_4620)"/>
<path d="M17.8994 13.0702C19.7329 13.0702 21.4056 13.3375 21.4216 13.3396C21.4538 13.3456 21.486 13.3476 21.5181 13.3476C22.2057 13.3476 22.7203 14.1276 22.7203 14.8232C22.7203 15.549 22.1655 16.4376 21.5181 16.4376C21.486 16.4376 21.4538 16.4396 21.4216 16.4456C21.4056 16.4476 19.7309 16.715 17.8994 16.715C16.5263 16.715 15.4347 16.5703 14.6526 16.2828C13.5248 15.8686 13.3941 15.2896 13.3941 14.8916C13.3941 14.4915 13.5248 13.9145 14.6526 13.5004C15.4327 13.2149 16.5263 13.0702 17.8994 13.0702ZM17.8994 12.467C15.501 12.467 12.791 12.9073 12.791 14.8936C12.791 16.8799 15.499 17.3201 17.8994 17.3201C19.8073 17.3201 21.5181 17.0427 21.5181 17.0427C22.5555 17.0427 23.3235 15.8546 23.3235 14.8252C23.3235 13.7959 22.5555 12.7465 21.5181 12.7465C21.5181 12.7445 19.8053 12.467 17.8994 12.467Z" fill="#EDA600"/>
<path d="M19.5737 23.6982C18.7273 23.6982 14.4391 23.6318 13.1404 22.3311C12.9132 22.1039 12.8047 21.8587 12.8047 21.5812C12.8087 20.5258 14.6161 19.9207 17.7623 19.9207C18.8841 19.9207 19.7526 20.0011 19.7627 20.0011C19.7707 20.0011 19.7808 20.0031 19.7888 20.0031C20.2592 20.0051 20.7035 20.1961 21.0352 20.5439C21.371 20.8937 21.5539 21.3601 21.5539 21.8547C21.5499 22.8699 20.7558 23.6942 19.7828 23.6942C19.7687 23.6982 19.6983 23.6982 19.5737 23.6982Z" fill="url(#paint3_radial_1560_4620)"/>
<path d="M17.7651 20.2247C18.8688 20.2247 19.7272 20.3031 19.7352 20.3051C19.7533 20.3071 19.7714 20.3071 19.7895 20.3071C20.1775 20.3091 20.5434 20.468 20.8188 20.7554C21.1003 21.049 21.2551 21.441 21.2531 21.8571C21.2511 22.7055 20.5917 23.3971 19.7775 23.3971H19.7755H19.7634C19.7594 23.3971 19.691 23.3991 19.5724 23.3991C15.9235 23.3991 13.9413 22.7095 13.3522 22.1205C13.1291 21.8973 13.105 21.7084 13.105 21.5857C13.111 20.7454 14.8942 20.2247 17.7651 20.2247ZM17.7651 19.6216C15.6099 19.6216 12.5099 19.9111 12.5059 21.5817C12.4978 23.8856 18.3963 24.0002 19.5744 24.0002C19.7051 24.0002 19.7775 23.9982 19.7775 23.9982H19.7835C20.9254 23.9982 21.8522 23.0413 21.8562 21.8571C21.8602 20.671 20.9354 19.706 19.7915 19.702C19.7915 19.704 18.913 19.6216 17.7651 19.6216Z" fill="#EDA600"/>
<path d="M18.8177 20.5084C17.0103 20.5084 12.8086 20.3034 12.8086 18.4035C12.8086 16.8073 15.8383 16.5701 17.6456 16.5701C19.2439 16.5701 20.621 16.747 20.6351 16.749C20.6471 16.751 20.6612 16.751 20.6733 16.751C21.5116 16.751 22.4886 17.1651 22.4886 18.3332C22.4886 19.4389 21.6242 20.4441 20.6733 20.4441H20.6491C20.6411 20.4461 19.8671 20.5084 18.8177 20.5084Z" fill="url(#paint4_radial_1560_4620)"/>
<path d="M17.6483 16.2703V16.8734C19.2225 16.8734 20.5855 17.0483 20.5976 17.0503C20.6237 17.0543 20.6498 17.0543 20.676 17.0543C21.4078 17.0543 22.1898 17.3901 22.1898 18.3349C22.1898 19.2658 21.454 20.1443 20.676 20.1443C20.6599 20.1443 20.6438 20.1443 20.6257 20.1463C20.6177 20.1463 19.8557 20.2086 18.8184 20.2086C17.7227 20.2086 16.1566 20.1383 14.9162 19.8086C13.72 19.4889 13.1129 19.0165 13.1129 18.4073C13.1129 18.2203 13.1129 17.6514 14.3875 17.2513C15.1816 17.002 16.2772 16.8754 17.6463 16.8754L17.6483 16.2703ZM17.6483 16.2703C15.3243 16.2703 12.5098 16.6362 12.5098 18.4053C12.5098 20.4901 16.4099 20.8117 18.8204 20.8117C19.898 20.8117 20.676 20.7474 20.676 20.7474C21.8098 20.7474 22.7929 19.5754 22.7929 18.3349C22.7929 17.0945 21.8098 16.4512 20.676 16.4512C20.676 16.4512 19.2828 16.2703 17.6483 16.2703Z" fill="#EDA600"/>
<path d="M4.88068 22.2335L3.9177 18.4338L3.51562 21.8515L4.88068 22.2335Z" fill="#EDA600"/>
</g>
<defs>
<radialGradient id="paint0_radial_1560_4620" cx="0" cy="0" r="1" gradientUnits="userSpaceOnUse" gradientTransform="translate(9.70204 5.44609) rotate(90.125) scale(17.4983 13.7764)">
<stop offset="0.6" stop-color="#FFCA28"/>
<stop offset="1" stop-color="#FFB300"/>
</radialGradient>
<radialGradient id="paint1_radial_1560_4620" cx="0" cy="0" r="1" gradientUnits="userSpaceOnUse" gradientTransform="translate(19.9918 10.9419) rotate(176.727) scale(5.68371 2.78113)">
<stop offset="0.5993" stop-color="#FFCA28"/>
<stop offset="1" stop-color="#FFB300"/>
</radialGradient>
<radialGradient id="paint2_radial_1560_4620" cx="0" cy="0" r="1" gradientUnits="userSpaceOnUse" gradientTransform="translate(20.8876 14.8379) rotate(-179.936) scale(6.39672 2.56518)">
<stop offset="0.5993" stop-color="#FFCA28"/>
<stop offset="1" stop-color="#FFB300"/>
</radialGradient>
<radialGradient id="paint3_radial_1560_4620" cx="0" cy="0" r="1" gradientUnits="userSpaceOnUse" gradientTransform="translate(19.6447 21.7694) rotate(-179.726) scale(5.37201 2.79681)">
<stop offset="0.5993" stop-color="#FFCA28"/>
<stop offset="1" stop-color="#FFB300"/>
</radialGradient>
<radialGradient id="paint4_radial_1560_4620" cx="0" cy="0" r="1" gradientUnits="userSpaceOnUse" gradientTransform="translate(20.4051 18.4914) rotate(-179.934) scale(6.12042 2.54576)">
<stop offset="0.5993" stop-color="#FFCA28"/>
<stop offset="1" stop-color="#FFB300"/>
</radialGradient>
<clipPath id="clip0_1560_4620">
<rect width="24" height="24" fill="white"/>
</clipPath>
</defs>
</svg>
