<svg width="24" height="24" viewBox="0 0 24 24" fill="none" xmlns="http://www.w3.org/2000/svg">
<g clip-path="url(#clip0_1560_3441)">
<path d="M14.095 18.0866C14.2257 18.1409 14.2377 18.2937 14.2196 18.5089C14.1915 18.8507 14.3503 19.46 14.9013 19.7677C14.9013 19.7717 15.0018 19.818 15.0018 19.822L15.0823 19.7637C15.1104 19.7476 15.953 19.076 16.7955 18.4023C17.638 17.7287 18.4786 17.0531 18.4987 17.0309C18.4987 17.0309 18.5449 16.856 18.5429 16.856C18.3639 16.2508 17.8029 15.9612 17.4631 15.9129C17.2499 15.8828 17.1032 15.8385 17.077 15.6998C17.0529 15.5631 17.1957 15.4263 17.1957 15.4263C17.1957 15.4263 17.083 15.3579 16.9564 15.374C16.8397 15.3901 16.7332 15.4565 16.6628 15.5088C16.6628 15.5088 16.1098 15.3559 15.4221 15.9049L15.0401 16.2105L14.658 16.5162C13.9703 17.0651 13.9984 17.6402 13.9984 17.6402C13.9321 17.6965 13.8436 17.785 13.8034 17.8956C13.7592 18.0163 13.8014 18.1409 13.8014 18.1409C13.8014 18.1409 13.9683 18.0344 14.095 18.0866Z" fill="#543930"/>
<path d="M15.0457 16.2104L15.3694 16.6146L14.2253 17.6884L14.0041 17.6401C14.0041 17.6401 13.9759 17.065 14.6636 16.5161L15.0457 16.2104Z" fill="url(#paint0_radial_1560_3441)"/>
<path d="M14.1504 17.8144C14.5566 17.9451 14.2328 18.3734 14.2328 18.3734C14.2328 18.2286 14.2047 18.1281 14.1021 18.0858C13.9754 18.0335 13.8105 18.1421 13.8105 18.1421C13.8105 18.1421 13.8689 17.7882 14.1504 17.8144Z" fill="url(#paint1_radial_1560_3441)"/>
<path d="M14.9048 19.7688C14.37 19.4712 14.195 18.8639 14.2212 18.5281C14.2252 18.4818 14.2473 18.2968 14.2051 18.1963C14.2051 18.1963 15.0677 18.4396 15.4578 18.6749C15.5362 18.7231 15.6147 18.7734 15.675 18.8438C15.7192 18.8961 15.7635 18.9664 15.7695 19.0368C15.7755 19.1233 14.9652 19.7989 14.9652 19.7989C14.9632 19.7989 14.9048 19.7688 14.9048 19.7688Z" fill="url(#paint2_radial_1560_3441)"/>
<path d="M18.5514 16.8547C18.3784 16.2675 17.8234 15.9639 17.4917 15.9156C17.4454 15.9096 17.2604 15.8895 17.1699 15.8271C17.1699 15.8271 17.2162 16.722 17.363 17.1543C17.3931 17.2408 17.4253 17.3292 17.4796 17.4036C17.5198 17.4599 17.5801 17.5162 17.6465 17.5384C17.7289 17.5645 17.7611 17.5142 17.8255 17.4619C17.9481 17.3634 18.5132 16.9633 18.5534 16.9311C18.5554 16.9271 18.5514 16.8547 18.5514 16.8547Z" fill="url(#paint3_radial_1560_3441)"/>
<path d="M15.043 16.2116L15.3667 16.6157L16.6657 15.735L16.6677 15.5098C16.6677 15.5098 16.1147 15.357 15.427 15.9059L15.043 16.2116Z" fill="url(#paint4_radial_1560_3441)"/>
<path d="M16.8105 15.6889C16.8488 16.1132 17.3394 15.892 17.3394 15.892C17.1986 15.8618 17.1061 15.8095 17.086 15.701C17.0619 15.5642 17.2047 15.4275 17.2047 15.4275C17.2047 15.4275 16.8467 15.4094 16.8105 15.6889Z" fill="url(#paint5_radial_1560_3441)"/>
<path d="M13.9926 17.5664H12.4986L12.6655 23.1545L10.8497 23.3475C10.5602 23.4159 10.3691 23.5205 10.3691 23.6934C10.3691 23.8663 10.6024 24.001 10.8497 24.001H13.2466C13.5623 24.001 13.8157 23.7296 13.8157 23.4119V23.3978L13.9926 17.5664Z" fill="url(#paint6_linear_1560_3441)"/>
<path d="M23.5947 16.7825C23.5162 16.7443 23.0638 16.5613 22.9331 16.5111C22.8848 16.493 22.8969 16.4186 22.9572 16.4347L23.3574 16.5252C23.4559 16.5473 23.5384 16.5352 23.5746 16.4508C23.6208 16.3442 23.5605 16.2517 23.4499 16.2195L22.7964 16.0044C22.7964 16.0044 22.3801 15.8596 22.2072 15.8013C22.1127 15.7691 21.9558 15.751 21.793 15.8334L19.8063 14.8079C19.75 14.7777 19.6917 14.7516 19.6273 14.7375L16.2552 13.9272C15.851 13.8407 15.4388 14.1021 15.3543 14.5103C15.2699 14.9185 15.5192 15.3207 15.9133 15.4051L19.2815 16.0305L21.2782 16.8127C21.2983 17.1143 21.5094 17.249 21.5879 17.3556C21.6965 17.4984 21.8654 17.8161 21.8473 17.9508C21.8352 18.0373 21.978 18.1036 22.0363 18.0856C22.1067 18.0634 22.161 17.9709 22.1569 17.8362C22.1549 17.7598 22.1388 17.5728 22.0705 17.4863C22.0423 17.4501 22.0725 17.4039 22.1067 17.4139C22.1087 17.4139 22.1087 17.4139 22.1107 17.4139C22.3118 17.5326 23.0296 17.9971 23.0296 17.9971C23.1282 18.0574 23.2448 18.0413 23.291 17.9327C23.3272 17.8483 23.279 17.7578 23.1965 17.7095C23.1965 17.7095 22.7562 17.3838 22.6214 17.2772C22.5933 17.2551 22.6074 17.1988 22.6576 17.2209C22.7079 17.243 23.4237 17.5849 23.4237 17.5849C23.5102 17.6251 23.5967 17.6231 23.647 17.5446C23.7093 17.4481 23.653 17.3395 23.5484 17.2913L22.7521 16.8931C22.7139 16.871 22.726 16.7986 22.7803 16.8207C22.7803 16.8207 23.3795 17.0419 23.466 17.0741C23.5524 17.1083 23.6691 17.1083 23.7113 16.9977C23.7575 16.8911 23.6892 16.8268 23.5947 16.7825Z" fill="url(#paint7_linear_1560_3441)"/>
<path d="M16.2193 13.7553C16.1187 13.7272 16.0041 13.6608 15.9036 13.516L14.4075 11.3242L10.6875 13.8176L12.2298 16.0778C12.3464 16.2387 12.3384 16.482 12.3424 16.667L12.3846 18.352H14.1039L14.128 16.6991C14.128 16.6991 14.4236 16.5061 14.87 16.1421C15.3164 15.7782 15.7407 15.4806 15.7407 15.4806L17.4841 15.8486L17.838 14.1454L16.2193 13.7553Z" fill="url(#paint8_linear_1560_3441)"/>
<path d="M16.19 0.406375C16.194 0.211325 16.0493 0.195238 15.7979 0.173119L13.8595 0.00219937C13.5337 -0.0259521 13.2442 0.219368 13.216 0.553165L13.1376 1.29717H13.1316L12.5565 5.76522L11.2012 10.3298L13.5518 10.9471L14.5653 6.2458L14.8669 1.75161L15.0579 1.68727C15.1605 1.69732 15.4701 1.7858 15.5445 1.63901C15.6029 1.52238 15.5204 1.46206 15.4882 1.452C15.5224 1.46206 15.6551 1.48619 15.6994 1.37961C15.7557 1.24087 15.6109 1.18456 15.6109 1.18456C15.6109 1.18456 15.7999 1.23081 15.8562 1.0981C15.9186 0.953318 15.7336 0.892994 15.7336 0.892994C15.7336 0.892994 15.9648 0.945275 16.003 0.804517C16.0352 0.689901 15.9688 0.635608 15.9065 0.611479C16.0473 0.627565 16.186 0.573273 16.19 0.406375Z" fill="url(#paint9_linear_1560_3441)"/>
<path d="M6.37029 9.28088C6.37029 9.28088 2.49544 7.84917 2.11941 7.62798C1.74339 7.40679 1.52019 7.2781 1.52019 7.2781C1.21856 7.14337 0.961179 7.28212 0.826454 7.58575L0.0844601 9.39348C-0.0180918 9.62875 -0.050265 9.76548 0.120655 9.85597C0.265434 9.93439 0.380051 9.90021 0.434343 9.76347C0.424289 9.83184 0.456462 9.85195 0.571079 9.8801C0.709826 9.91428 0.780204 9.70918 0.780204 9.70918C0.780204 9.70918 0.741999 9.87608 0.896832 9.89015C1.0396 9.90222 1.09389 9.6951 1.09389 9.6951C1.09389 9.6951 1.06172 9.86401 1.21052 9.8801C1.32313 9.89217 1.36938 9.71722 1.37742 9.67902C1.37139 9.7132 1.35329 9.84793 1.48198 9.84994C1.64486 9.85396 1.67904 9.51413 1.72127 9.41761L1.79366 9.25071L5.87362 11.2475L5.87764 11.2374C5.90981 11.2515 5.93796 11.2676 5.97215 11.2776V11.2796L10.4583 12.8642L11.156 10.5135C11.152 10.5135 6.37632 9.28289 6.37029 9.28088Z" fill="url(#paint10_linear_1560_3441)"/>
<path d="M14.3843 15.5453C14.6336 15.3301 15.0096 15.3603 15.2208 15.6137L15.5747 16.0359L14.6718 16.8182L14.3179 16.3959C14.1048 16.1425 14.1349 15.7605 14.3843 15.5453Z" fill="#E59600"/>
<path d="M15.353 19.1319L15.6808 18.8765L17.4584 17.4971L17.7861 17.2417C18.0495 17.0386 18.0898 16.6385 17.8766 16.3549C17.6635 16.0714 17.2754 16.005 17.012 16.2102L16.6842 16.4655L14.9066 17.845L14.5789 18.1003C14.3155 18.3034 14.2752 18.7036 14.4884 18.9871C14.7015 19.2706 15.0896 19.337 15.353 19.1319Z" fill="#E59600"/>
<path d="M14.5509 11.5314L13.8793 10.542L14.3699 8.3985L11.7035 7.69873L10.9897 10.2263L8.68329 9.57483L7.87695 12.2412L10.1351 13.0073L10.8228 14.0248L14.5509 11.5314Z" fill="#7C7C7C"/>
<path d="M15.032 16.2025C14.2639 16.7997 13.9945 17.9257 14.9375 19.1383C15.6936 20.1115 16.7453 20.2201 17.4149 19.9989C17.5737 19.9466 17.7125 19.8742 17.819 19.7918C17.9256 19.7093 18.0282 19.5927 18.1187 19.454C18.5007 18.8608 18.6576 17.8151 17.8995 16.8399C16.9564 15.6233 15.8002 15.6053 15.032 16.2025Z" fill="#FFCA28"/>
<path d="M15.3582 17.3918C15.4346 17.1987 15.8951 16.8408 16.1002 16.8147C16.2188 16.8006 16.2429 16.6618 16.1525 16.6156C16.064 16.5694 15.6819 16.5975 15.4648 16.7664C15.2476 16.9353 15.1289 17.2953 15.1511 17.3938C15.1772 17.4943 15.316 17.5024 15.3582 17.3918Z" fill="#795548"/>
<path d="M15.8355 17.5971C15.8415 17.5951 15.8475 17.5931 15.8516 17.589L16.1632 17.3457C16.1673 17.3417 16.1713 17.3377 16.1753 17.3316C16.1954 17.2975 16.1874 17.2572 16.1492 17.2351C16.111 17.215 15.9823 17.1748 15.8556 17.2713C15.7309 17.3678 15.7369 17.5046 15.747 17.5468C15.7591 17.591 15.7993 17.6091 15.8355 17.5971Z" fill="#E59600"/>
<path d="M17.2359 17.5349C17.356 17.4416 17.375 17.2649 17.2782 17.1404C17.1815 17.0159 17.0057 16.9906 16.8855 17.0839C16.7654 17.1773 16.7464 17.3539 16.8431 17.4784C16.9399 17.603 17.1157 17.6282 17.2359 17.5349Z" fill="#404040"/>
<path d="M15.7788 18.6638C15.899 18.5705 15.918 18.3938 15.8212 18.2693C15.7245 18.1448 15.5486 18.1195 15.4285 18.2128C15.3083 18.3062 15.2894 18.4828 15.3861 18.6073C15.4829 18.7319 15.6587 18.7571 15.7788 18.6638Z" fill="#404040"/>
<path d="M17.0484 17.9671C17.1329 17.9892 17.2897 17.9953 17.4767 17.8505C17.6637 17.7057 17.6959 17.5509 17.6959 17.4644C17.6959 17.4262 17.6698 17.4021 17.6436 17.394C17.6195 17.388 17.5733 17.4001 17.5451 17.4423C17.517 17.4845 17.4727 17.5831 17.346 17.6816C17.2194 17.7781 17.1148 17.7982 17.0665 17.8143C17.0183 17.8304 16.9941 17.8726 16.9941 17.8967C16.9941 17.9269 17.0122 17.9571 17.0484 17.9671Z" fill="#6D4C41"/>
<path d="M15.5992 19.098C15.6837 19.1201 15.8405 19.1261 16.0275 18.9813C16.2145 18.8366 16.2467 18.6817 16.2467 18.5953C16.2467 18.5571 16.2206 18.5329 16.1944 18.5249C16.1703 18.5189 16.124 18.5309 16.0959 18.5732C16.0677 18.6154 16.0235 18.7139 15.8968 18.8124C15.7701 18.909 15.6656 18.9291 15.6173 18.9452C15.5691 18.9612 15.5449 19.0035 15.5449 19.0276C15.5449 19.0558 15.561 19.0879 15.5992 19.098Z" fill="#6D4C41"/>
<path d="M15.8834 20.6965C16.1307 20.7769 16.555 20.8051 16.7742 20.6462C16.9934 20.8312 17.3613 20.8332 17.6288 20.7287C18.3466 20.4472 18.5236 19.9284 18.6161 19.6509C18.6362 19.5926 18.7589 19.4176 19.0384 19.3754C19.2133 19.3493 19.3762 19.7414 19.3762 19.7414C19.3762 19.7414 19.6054 18.8888 19.1268 18.5851C19.2435 18.4766 19.3561 18.2835 19.2797 18.0241C19.1872 17.7165 18.9901 17.5616 18.8835 17.4993C18.9057 17.3123 18.8574 16.9946 18.5337 16.8056C18.2903 16.6628 17.9364 16.8035 17.9364 16.8035C17.6408 16.4255 17.3835 16.2566 17.2709 16.1943C17.2507 16.1842 17.2327 16.2023 17.2427 16.2224C17.3573 16.4376 17.7615 17.1816 17.8701 17.2781C17.8701 17.2781 17.484 17.7828 17.3453 18.5288C17.3171 18.6796 17.2709 18.8284 17.2045 18.9632C16.8486 19.6911 16.366 19.3754 16.366 19.3754C16.366 19.3754 16.0422 19.7916 15.4088 19.303C15.1716 19.12 14.8317 18.7902 14.5884 18.565C14.5723 18.5489 14.5462 18.565 14.5542 18.5851C14.6005 18.7179 14.691 18.9793 14.8458 19.1964C14.9001 19.2728 14.8056 19.5141 14.9946 19.8781C15.2439 20.3587 15.7044 20.6382 15.8834 20.6965Z" fill="#543930"/>
<path d="M14.8496 19.186C14.9039 19.2624 14.8094 19.5037 14.9984 19.8677C15.0185 19.9059 15.0406 19.9441 15.0628 19.9823C15.3201 20.4006 15.7243 20.6419 15.8892 20.6942C16.1184 20.7686 16.4985 20.7987 16.7257 20.6761C16.7438 20.664 16.7619 20.6519 16.78 20.6399C16.78 20.6399 16.6815 20.5554 16.6513 20.4468C16.6111 20.3061 16.6855 20.2015 16.6855 20.2015C15.7082 20.0869 15.3483 19.6043 14.8496 19.186Z" fill="url(#paint11_radial_1560_3441)"/>
<path d="M18.5594 19.8191C18.5836 19.7568 18.6037 19.6985 18.6218 19.6482C18.6419 19.5899 18.7645 19.4149 19.0441 19.3727C19.215 19.3466 19.3758 19.7306 19.3819 19.7367C19.3718 19.622 19.0863 18.5804 18.5997 18.9343C18.3905 19.0872 18.4308 19.3747 18.4951 19.5919C18.5192 19.6703 18.5514 19.7889 18.5594 19.8191Z" fill="url(#paint12_radial_1560_3441)"/>
<path d="M17.7056 20.6954C17.3216 20.8663 17.024 20.8241 16.7786 20.6431C16.7062 20.5889 16.1513 19.9896 17.8504 19.7644C18.4818 19.68 18.514 19.9373 18.4818 19.9957C18.3591 20.2249 18.1359 20.5044 17.7056 20.6954Z" fill="url(#paint13_radial_1560_3441)"/>
<path d="M19.3813 19.7368C19.3813 19.7368 19.3813 19.7348 19.3833 19.7328C19.4074 19.6825 19.5783 18.8661 19.1299 18.5806L18.7539 18.8018C19.3189 18.8721 19.3813 19.7388 19.3813 19.7368Z" fill="url(#paint14_radial_1560_3441)"/>
<path d="M18.8979 18.7162L19.1291 18.5795C19.1372 18.5735 19.1613 18.5473 19.1734 18.5332C19.2719 18.4206 19.3503 18.2437 19.282 18.0205C19.2076 17.7812 19.0748 17.6324 18.9663 17.55C18.9301 17.5218 18.8858 17.4937 18.8858 17.4937C18.8858 17.4937 18.8758 17.6807 18.6445 17.8878L18.8979 18.7162Z" fill="url(#paint15_radial_1560_3441)"/>
<path d="M18.8875 17.4779C18.9036 17.2989 18.8513 16.9732 18.5235 16.7942C18.2762 16.6595 17.9364 16.7982 17.9364 16.7982C17.9364 16.7982 17.868 16.8264 17.8398 16.8485L18.6422 17.8901C18.7688 17.7815 18.8553 17.6387 18.8814 17.5121C18.8814 17.5101 18.8895 17.4779 18.8875 17.4779Z" fill="url(#paint16_radial_1560_3441)"/>
</g>
<defs>
<radialGradient id="paint0_radial_1560_3441" cx="0" cy="0" r="1" gradientUnits="userSpaceOnUse" gradientTransform="translate(14.8464 17.3306) rotate(141.346) scale(1.28171 0.629597)">
<stop offset="0.7275" stop-color="#6D4C41" stop-opacity="0"/>
<stop offset="1" stop-color="#6D4C41"/>
</radialGradient>
<radialGradient id="paint1_radial_1560_3441" cx="0" cy="0" r="1" gradientUnits="userSpaceOnUse" gradientTransform="translate(14.0308 18.2194) rotate(-63.7296) scale(0.378792 0.280994)">
<stop offset="0.6628" stop-color="#6D4C41"/>
<stop offset="1" stop-color="#6D4C41" stop-opacity="0"/>
</radialGradient>
<radialGradient id="paint2_radial_1560_3441" cx="0" cy="0" r="1" gradientUnits="userSpaceOnUse" gradientTransform="translate(15.4011 18.5071) rotate(47.0626) scale(1.6638 1.38668)">
<stop offset="0.7247" stop-color="#6D4C41" stop-opacity="0"/>
<stop offset="1" stop-color="#6D4C41"/>
</radialGradient>
<radialGradient id="paint3_radial_1560_3441" cx="0" cy="0" r="1" gradientUnits="userSpaceOnUse" gradientTransform="translate(17.1306 17.1794) rotate(55.6266) scale(1.66384 1.38672)">
<stop offset="0.7247" stop-color="#6D4C41" stop-opacity="0"/>
<stop offset="1" stop-color="#6D4C41"/>
</radialGradient>
<radialGradient id="paint4_radial_1560_3441" cx="0" cy="0" r="1" gradientUnits="userSpaceOnUse" gradientTransform="translate(16.0906 16.3341) rotate(-38.6544) scale(1.28171 0.629597)">
<stop offset="0.7275" stop-color="#6D4C41" stop-opacity="0"/>
<stop offset="1" stop-color="#6D4C41"/>
</radialGradient>
<radialGradient id="paint5_radial_1560_3441" cx="0" cy="0" r="1" gradientUnits="userSpaceOnUse" gradientTransform="translate(17.2977 15.6885) rotate(166.42) scale(0.378782 0.281009)">
<stop offset="0.6628" stop-color="#6D4C41"/>
<stop offset="1" stop-color="#6D4C41" stop-opacity="0"/>
</radialGradient>
<linearGradient id="paint6_linear_1560_3441" x1="12.1812" y1="18.3616" x2="12.1812" y2="23.749" gradientUnits="userSpaceOnUse">
<stop stop-color="#FFB300"/>
<stop offset="0.5" stop-color="#FFCA28"/>
</linearGradient>
<linearGradient id="paint7_linear_1560_3441" x1="17.5132" y1="15.2902" x2="23.2931" y2="17.2543" gradientUnits="userSpaceOnUse">
<stop stop-color="#FFB300"/>
<stop offset="0.5" stop-color="#FFCA28"/>
</linearGradient>
<linearGradient id="paint8_linear_1560_3441" x1="15.0759" y1="16.1951" x2="12.5474" y2="12.5647" gradientUnits="userSpaceOnUse">
<stop stop-color="#F78C1F"/>
<stop offset="0.482" stop-color="#F47F12"/>
<stop offset="1" stop-color="#EF6C00"/>
</linearGradient>
<linearGradient id="paint9_linear_1560_3441" x1="13.6947" y1="7.68825" x2="13.6947" y2="-1.21652" gradientUnits="userSpaceOnUse">
<stop stop-color="#FFB300"/>
<stop offset="0.5" stop-color="#FFCA28"/>
</linearGradient>
<linearGradient id="paint10_linear_1560_3441" x1="5.99935" y1="10.0714" x2="-1.46405" y2="7.93899" gradientUnits="userSpaceOnUse">
<stop stop-color="#FFB300"/>
<stop offset="0.5" stop-color="#FFCA28"/>
</linearGradient>
<radialGradient id="paint11_radial_1560_3441" cx="0" cy="0" r="1" gradientUnits="userSpaceOnUse" gradientTransform="translate(16.133 19.0342) rotate(-147.546) scale(2.1278 1.45786)">
<stop offset="0.6985" stop-color="#6D4C41" stop-opacity="0"/>
<stop offset="1" stop-color="#6D4C41"/>
</radialGradient>
<radialGradient id="paint12_radial_1560_3441" cx="0" cy="0" r="1" gradientUnits="userSpaceOnUse" gradientTransform="translate(19.3066 19.8303) rotate(169.792) scale(0.653906 0.80249)">
<stop offset="0.58" stop-color="#6D4C41"/>
<stop offset="1" stop-color="#6D4C41" stop-opacity="0"/>
</radialGradient>
<radialGradient id="paint13_radial_1560_3441" cx="0" cy="0" r="1" gradientUnits="userSpaceOnUse" gradientTransform="translate(17.482 19.5881) rotate(-15.8324) scale(1.63586 0.965802)">
<stop offset="0.6985" stop-color="#6D4C41" stop-opacity="0"/>
<stop offset="1" stop-color="#6D4C41"/>
</radialGradient>
<radialGradient id="paint14_radial_1560_3441" cx="0" cy="0" r="1" gradientUnits="userSpaceOnUse" gradientTransform="translate(18.8035 19.3395) rotate(139.637) scale(0.645928 0.862547)">
<stop offset="0.7016" stop-color="#6D4C41" stop-opacity="0"/>
<stop offset="1" stop-color="#6D4C41"/>
</radialGradient>
<radialGradient id="paint15_radial_1560_3441" cx="0" cy="0" r="1" gradientUnits="userSpaceOnUse" gradientTransform="translate(18.3546 18.3716) rotate(-24.054) scale(0.892131 0.893473)">
<stop offset="0.6605" stop-color="#6D4C41" stop-opacity="0"/>
<stop offset="1" stop-color="#6D4C41"/>
</radialGradient>
<radialGradient id="paint16_radial_1560_3441" cx="0" cy="0" r="1" gradientUnits="userSpaceOnUse" gradientTransform="translate(17.9665 17.5861) rotate(148.159) scale(0.930765 1.41739)">
<stop offset="0.5981" stop-color="#6D4C41" stop-opacity="0"/>
<stop offset="1" stop-color="#6D4C41"/>
</radialGradient>
<clipPath id="clip0_1560_3441">
<rect width="24" height="24" fill="white"/>
</clipPath>
</defs>
</svg>
