<svg width="24" height="24" viewBox="0 0 24 24" fill="none" xmlns="http://www.w3.org/2000/svg">
<path d="M19.2315 22.4956C19.2315 22.4956 18.4118 22.1702 18.003 21.8569C17.6206 21.5641 17.2749 21.1654 17.0369 20.9539C16.8823 20.8135 16.746 20.7505 16.626 20.7505C16.504 20.7505 16.3962 20.8135 16.3047 20.9254L15.7799 21.5844C15.5602 21.9464 15.7474 22.4203 15.7474 22.4203C15.7474 22.4203 15.1982 23.0021 16.1135 23.2014C17.0511 23.4068 18.1739 23.5187 18.1739 23.5187C18.2328 23.5288 18.304 23.5349 18.3813 23.5349C18.7678 23.5349 19.3169 23.3946 19.4918 22.9939C19.4918 22.9939 19.7542 22.7031 19.2315 22.4956Z" fill="#4568AC"/>
<path d="M15.6985 21.4654L12.611 21.0912C12.609 21.0912 13.6544 17.8735 13.9616 16.3501C13.9616 16.3501 11.411 17.1067 10.1012 17.1067C10.1012 17.1067 9.9425 19.8322 9.88759 21.1298C9.81437 22.8465 10.3452 23.3489 11.1649 23.5319C11.352 23.5746 11.5737 23.5929 11.8178 23.5929C12.8998 23.5929 14.4456 23.239 15.6904 23.0926C16.1684 23.0356 16.0402 21.6871 15.6985 21.4654Z" fill="#616161"/>
<path d="M7.93566 23.111C7.93363 22.69 7.50447 22.21 7.50447 22.21L5.95461 22.212L4.56137 22.6757C4.22373 22.81 4.00203 23.1334 4 23.4974V23.7781C4 23.9002 4.09966 23.9998 4.2217 23.9998L7.68345 23.9897C7.8238 23.9897 7.9377 23.8758 7.9377 23.7334L7.93566 23.111Z" fill="#4568AC"/>
<path d="M14.1031 14.5608C14.097 14.5059 14.0543 14.4652 13.9953 14.4713L10.32 14.7215C10.2996 14.7235 8.22297 15.0103 6.94566 15.1201C5.43241 15.2503 5.29003 16.7493 5.35105 18.1975C5.4019 19.4097 5.73953 22.1982 5.7436 22.2267C5.74767 22.2572 5.76598 22.2857 5.79242 22.302C5.80665 22.3101 6.16259 22.5176 6.79718 22.5176C7.43583 22.5176 7.75516 22.304 7.76533 22.2938C7.78771 22.2775 7.80398 22.2511 7.80805 22.2226L8.33077 18.0104C8.59721 17.9982 9.43519 17.9595 10.1125 17.9859C11.4244 18.0388 12.7444 17.9697 13.5254 17.1195C14.0482 16.552 14.2434 15.6896 14.1031 14.5608Z" fill="#7C7C7C"/>
<path d="M12.3798 4.67527C12.6015 3.91865 12.7235 2.98101 12.6218 2.41761C12.5994 2.2915 12.5669 2.18167 12.5221 2.09828C12.394 1.87251 12.2232 1.65488 12.0218 1.45962C12.0177 1.45556 12.0137 1.45149 12.0096 1.44945C11.9648 1.40471 11.9181 1.36199 11.8692 1.32132C11.8611 1.31521 11.853 1.30708 11.8448 1.30098C11.8001 1.26233 11.7553 1.22572 11.7086 1.19114C11.6984 1.18301 11.6862 1.17487 11.676 1.16674C11.6313 1.13216 11.5845 1.09962 11.5377 1.06911C11.5255 1.06097 11.5133 1.05284 11.5011 1.0447C11.4543 1.01419 11.4055 0.983682 11.3567 0.955207C11.3445 0.947072 11.3323 0.94097 11.3201 0.932834C11.2692 0.904359 11.2184 0.877918 11.1675 0.851477C11.1574 0.845375 11.1452 0.839273 11.135 0.835205C11.0801 0.808764 11.0231 0.782323 10.9662 0.757916C10.9601 0.755882 10.9519 0.751814 10.9458 0.74978C10.6306 0.621642 10.3011 0.546387 9.98176 0.546387C9.97362 0.546387 9.96548 0.548421 9.95938 0.548421C9.8882 0.548421 9.81904 0.552488 9.74989 0.560624C8.58241 0.698932 7.92138 1.5064 7.70782 2.55591C7.63053 2.93626 7.62443 3.32067 7.67731 3.59322C7.68341 3.62576 7.73629 3.86577 7.73833 3.93899C7.76884 4.22577 7.2034 4.48408 7.12408 4.79731C7.06509 5.03121 7.55324 5.20613 7.58985 5.24884C7.77494 5.47054 7.42103 6.4692 8.7736 6.63192C9.29429 6.69497 9.3431 6.68073 9.50582 6.70311C9.82921 6.74989 9.73362 8.06177 9.73362 8.06177H9.73565L12.0787 7.59194C12.0787 7.59194 11.7676 6.07665 12.1032 5.41563C12.2028 5.21223 12.2984 4.95596 12.3798 4.67527Z" fill="#FFCA28"/>
<path d="M7.69506 5.82466C7.88218 5.84296 8.07133 5.80838 8.23608 5.69855C8.41507 5.57652 8.3032 5.42804 8.09981 5.50329C7.97777 5.55007 7.80692 5.56635 7.65234 5.52974L7.69506 5.82466Z" fill="#795548"/>
<path d="M8.81596 4.13964C8.81887 3.92848 8.71015 3.75577 8.57312 3.75388C8.43609 3.75199 8.32264 3.92163 8.31973 4.1328C8.31682 4.34396 8.42554 4.51667 8.56257 4.51856C8.6996 4.52045 8.81305 4.35081 8.81596 4.13964Z" fill="#404040"/>
<path d="M8.4016 3.56441C8.15346 3.61119 8.11278 3.44644 8.20634 3.32644C8.27549 3.23695 8.43007 3.1739 8.70669 3.25729C8.96703 3.33661 9.06262 3.49933 9.12364 3.60102C9.18466 3.70272 9.16839 3.79425 9.10534 3.79425C9.01991 3.79628 8.70872 3.50746 8.4016 3.56441Z" fill="#6D4C41"/>
<path d="M12.851 8.69697C12.4727 7.40136 11.828 7.06982 11.2646 7.06982C10.6788 7.06982 10.1825 7.43186 10.1825 7.43186C9.18588 8.1173 9.18385 9.16274 9.09232 10.5682C8.99876 11.9736 8.93164 14.8374 8.93164 14.8374C8.93164 14.8374 10.0381 15.2951 11.7202 15.2951H11.8524C13.6097 15.2706 14.2605 14.6625 14.2605 14.6625C14.2605 14.6625 13.3249 10.316 12.851 8.69697Z" fill="url(#paint0_radial_1560_3418)"/>
<path d="M12.8867 12.3807C12.7891 11.7664 12.3253 9.44976 12.3213 9.42739C12.3111 9.37654 12.2643 9.34196 12.2114 9.34603L10.1267 9.54535C10.0982 9.54739 10.0717 9.56366 10.0534 9.58807C10.0372 9.61247 10.0311 9.64095 10.0372 9.66942L10.7612 12.763C10.4053 12.9766 8.65002 14.0139 8.14764 14.1197C7.80797 14.1909 7.22627 14.2722 6.55507 14.3617C6.01811 14.4349 5.48115 15.1387 5.2086 15.5516C5.12725 15.6756 5.13538 15.8363 5.22487 15.9502C5.29199 16.0377 5.39369 16.0824 5.49539 16.0824C5.56251 16.0824 5.62963 16.0621 5.68658 16.0214L6.41269 15.5902C6.51642 15.6044 6.82151 15.6411 7.23644 15.6227C7.74899 15.6004 8.2473 15.3807 8.26357 15.3726C8.44866 15.3014 9.33342 15.1448 10.1897 14.9922C10.8284 14.8783 11.4874 14.7624 11.9328 14.6688C13.206 14.4044 12.9742 12.9339 12.8867 12.3807Z" fill="url(#paint1_linear_1560_3418)"/>
<path d="M12.5246 9.53584C12.4229 8.94397 11.9388 8.20361 11.1456 8.20361C11.0765 8.20361 11.0032 8.20972 10.928 8.22192C10.0066 8.37243 9.73406 9.35482 9.84592 9.99754L10.2364 11.9562L12.9151 11.4945L12.5246 9.53584Z" fill="#EC6E24"/>
<path d="M13.3247 2.15401C13.0603 1.41163 12.4765 1.16959 12.2854 1.10857C12.204 0.840091 11.785 -0.180944 10.1151 0.0305854C9.70836 0.0814337 9.4053 0.264488 9.13886 0.423135C9.02496 0.492288 8.91513 0.557374 8.81343 0.600087C8.73207 0.634664 8.58766 0.665173 8.47173 0.620426C8.20732 0.522798 8.30698 0.120079 8.30698 0.120079C8.30698 0.120079 7.32052 0.276692 7.70697 1.24078C7.3734 1.37298 7.20662 1.71672 7.13543 2.04215C7.03781 2.48758 7.2412 2.92081 7.66426 3.1303C7.66426 3.1303 7.60527 2.40825 8.64258 2.48758C8.96394 2.51199 9.29954 2.57504 9.6026 2.46724C9.71853 2.42453 9.82836 2.35741 9.94023 2.30656C9.96464 2.30656 9.98091 2.30656 9.98091 2.30656C10.3674 2.53232 9.81413 3.44149 10.2331 4.00082C10.3165 4.11066 10.3897 4.07405 10.3897 4.07405L10.5748 3.82184C10.7152 3.65099 10.8413 3.50048 11.006 3.54319C11.4921 3.66929 11.3701 4.53982 10.7823 4.71067C10.7233 4.72694 10.8209 5.7073 12.025 5.75204C12.6474 5.77645 12.8854 5.26593 12.8854 5.26593C12.8854 5.26593 12.6169 5.32288 12.5681 5.09508C12.5416 4.97711 12.6555 4.82253 12.8569 4.65779C13.4366 4.17981 13.2555 3.59811 13.1783 3.41709C13.2759 3.25844 13.5322 2.73368 13.3247 2.15401Z" fill="#543930"/>
<path d="M13.1858 3.41997C13.1959 3.40167 12.9966 3.85727 12.2034 3.7515C11.8759 3.7393 11.3918 4.51016 11.8495 5.04915C12.2562 5.52509 12.8908 5.27085 12.8908 5.27085C12.8908 5.27085 12.8034 5.29323 12.6793 5.24441C12.6 5.21187 12.5735 5.10407 12.5735 5.1C12.5471 4.98203 12.661 4.82745 12.8624 4.66271C13.442 4.1827 13.261 3.60099 13.1858 3.41997Z" fill="url(#paint2_radial_1560_3418)"/>
<path d="M13.3269 2.15335C13.1886 1.76284 12.9201 1.42724 12.556 1.22588C12.5032 1.19537 12.375 1.12825 12.2835 1.10791C12.3201 1.28079 12.3079 1.46181 12.2286 1.64894C12.2265 1.65504 12.133 1.93165 11.8828 2.14725C12.0496 2.39539 12.1269 2.69438 12.1981 2.98523C12.2611 3.23947 12.3201 3.52016 12.2001 3.75202C12.3527 3.74796 12.5927 3.80084 12.8652 3.69101C13.1255 3.58524 13.27 3.29642 13.3432 3.03201C13.4266 2.74319 13.4286 2.43607 13.3269 2.15335Z" fill="url(#paint3_radial_1560_3418)"/>
<path d="M12.2284 1.64931C12.4379 1.1632 12.1857 0.699467 11.787 0.380139C11.3192 0.00792893 10.6887 -0.0449534 10.1151 0.0282683C9.70836 0.0791166 9.4053 0.262171 9.13886 0.420818C9.02496 0.489971 8.91513 0.555057 8.81343 0.59777C8.73207 0.632347 8.58766 0.662856 8.47173 0.618109C8.20732 0.52048 8.30698 0.117761 8.30698 0.117761C8.30698 0.117761 7.32052 0.274374 7.70697 1.23846C7.3734 1.37066 7.20662 1.7144 7.13543 2.03983C7.03781 2.48526 7.2412 2.91849 7.66426 3.12798C7.66426 3.12798 7.60527 2.40594 8.64258 2.48526C8.96394 2.50967 9.29954 2.57272 9.6026 2.46492C9.87108 2.36729 9.96667 2.22899 10.2616 2.25543C10.5809 2.28594 11.0019 2.42221 11.3335 2.3856C12.0067 2.31034 12.2243 1.65745 12.2284 1.64931Z" fill="url(#paint4_radial_1560_3418)"/>
<path d="M11.8482 5.04843C11.6428 4.8125 11.6001 4.43622 11.2706 4.22266C11.2014 4.43825 11.0346 4.63961 10.7845 4.71283C10.7255 4.72911 10.8231 5.70946 12.0272 5.75421C12.6496 5.77862 12.8876 5.2681 12.8876 5.2681C12.8876 5.2681 12.2631 5.52234 11.8482 5.04843Z" fill="url(#paint5_radial_1560_3418)"/>
<defs>
<radialGradient id="paint0_radial_1560_3418" cx="0" cy="0" r="1" gradientUnits="userSpaceOnUse" gradientTransform="translate(10.9695 10.1239) scale(3.46503)">
<stop offset="0.3666" stop-color="#F58B21"/>
<stop offset="0.6967" stop-color="#F17E22"/>
<stop offset="1" stop-color="#EC6E24"/>
</radialGradient>
<linearGradient id="paint1_linear_1560_3418" x1="9.16688" y1="15.064" x2="8.73467" y2="12.1402" gradientUnits="userSpaceOnUse">
<stop offset="0.5" stop-color="#FFCA28"/>
<stop offset="1" stop-color="#FFB300"/>
</linearGradient>
<radialGradient id="paint2_radial_1560_3418" cx="0" cy="0" r="1" gradientUnits="userSpaceOnUse" gradientTransform="translate(11.6412 4.51302) rotate(22.4132) scale(1.57371 2.26618)">
<stop offset="0.45" stop-color="#6D4C41" stop-opacity="0"/>
<stop offset="1" stop-color="#6D4C41"/>
</radialGradient>
<radialGradient id="paint3_radial_1560_3418" cx="0" cy="0" r="1" gradientUnits="userSpaceOnUse" gradientTransform="translate(11.8874 2.93514) rotate(-5.57206) scale(1.59513 2.0128)">
<stop offset="0.45" stop-color="#6D4C41" stop-opacity="0"/>
<stop offset="1" stop-color="#6D4C41"/>
</radialGradient>
<radialGradient id="paint4_radial_1560_3418" cx="0" cy="0" r="1" gradientUnits="userSpaceOnUse" gradientTransform="translate(10.127 2.3186) rotate(-6.67302) scale(3.28293 2.46784)">
<stop offset="0.45" stop-color="#6D4C41" stop-opacity="0"/>
<stop offset="1" stop-color="#6D4C41"/>
</radialGradient>
<radialGradient id="paint5_radial_1560_3418" cx="0" cy="0" r="1" gradientUnits="userSpaceOnUse" gradientTransform="translate(11.9948 4.72018) rotate(16.4089) scale(1.76742 1.13621)">
<stop offset="0.45" stop-color="#6D4C41" stop-opacity="0"/>
<stop offset="1" stop-color="#6D4C41"/>
</radialGradient>
</defs>
</svg>
