<svg width="24" height="24" viewBox="0 0 24 24" fill="none" xmlns="http://www.w3.org/2000/svg">
<g clip-path="url(#clip0_1560_3314)">
<path d="M21.9173 14.1937C20.8472 12.2097 17.4151 10.1736 13.673 11.7076C10.769 12.8977 10.0549 15.0957 9.79692 15.5278C9.44491 16.1178 8.79489 15.9858 8.79489 15.9858C9.1809 14.7477 9.24091 13.2417 9.1029 12.1637C8.9709 11.0116 8.9729 10.0336 9.1229 9.09957C9.21091 8.55356 9.35691 8.00954 9.60892 7.51553C9.68092 7.37352 10.2989 6.4495 10.5109 6.5415C11.271 6.86751 11.937 7.01151 12.985 6.86751C13.573 6.78751 14.6871 6.5615 14.8911 6.4295C15.1431 6.26549 15.1831 6.15949 15.1831 6.15949C15.2751 5.48547 14.9471 5.04746 14.9471 5.04746C14.9471 5.04746 15.9651 4.84745 16.2671 4.01743C16.3571 3.76942 15.9871 3.1814 15.8531 2.9394C15.4031 2.12337 14.7391 0.999339 14.111 0.463324C13.805 0.199316 12.785 -0.394701 11.437 0.395322C9.47691 1.54536 6.84084 2.81739 3.54474 10.7616C2.54871 13.1617 2.0347 17.9458 2.0027 19.3099C1.9647 20.9139 2.27471 22.546 6.42883 23.338C9.54092 23.932 11.805 24 15.4611 24C16.5951 24 20.5092 23.694 21.9413 20.9859C23.2593 18.4938 22.7893 15.8118 21.9173 14.1937Z" fill="#FFCA28"/>
<path d="M15.1824 6.15843C15.2544 5.62641 15.0684 5.2464 14.9844 5.1084L13.9924 5.42841C13.9924 5.42841 13.9604 5.69641 13.9924 6.10243C14.0224 6.50844 12.9844 6.86845 12.9844 6.86845C13.5724 6.78845 14.6864 6.56244 14.8904 6.43044C15.1424 6.26643 15.1824 6.15843 15.1824 6.15843Z" fill="#FFB300"/>
<path d="M15.4527 3.67902C15.3927 3.52102 14.4407 3.29301 14.1807 3.16701C13.9087 3.02701 13.6946 2.765 13.5746 2.53299L13.5846 2.50699C13.5866 2.49899 13.8667 1.70097 13.6326 1.59897C13.5046 1.54296 13.4086 1.70497 13.3846 1.77297C13.0566 2.669 12.2326 3.05101 11.9966 4.05104L11.5866 3.73903C11.4706 3.65102 11.4026 3.68103 11.3646 3.72103C11.2146 3.88503 11.6646 4.38105 11.6706 4.38505C12.2546 5.01906 12.8586 5.67308 13.5206 5.73908C13.8267 5.77109 14.5167 5.56508 14.7487 5.49108C14.7907 5.66308 14.8027 6.1271 14.7907 6.47711C15.4987 6.2491 15.4767 5.56308 15.3307 4.92106C15.3307 4.92106 13.9587 5.40107 13.5366 5.16507C13.1386 4.97506 12.7646 4.79506 12.6066 4.52305C12.5186 4.37105 12.7926 3.77103 13.1106 3.26901C13.5246 3.48302 13.5906 3.67102 13.5646 4.27704C13.5466 4.42705 13.5046 4.65505 13.6166 4.65705C13.7826 4.67705 13.8787 4.39905 13.9067 4.24304C13.9227 4.16304 14.0107 3.93903 14.0827 3.87303C14.2527 3.71703 14.4227 3.76703 14.5027 3.78303C15.1067 3.88903 15.5387 3.92703 15.4527 3.67902Z" fill="#EDA600"/>
<path d="M9.10126 12.161C8.96925 11.009 8.97126 10.031 9.12126 9.09693C9.20926 8.55091 9.35527 8.00689 9.60727 7.51288C9.67928 7.37288 10.2833 6.46685 10.5013 6.53685L10.2473 6.21484C10.2473 6.21484 9.29126 6.77686 8.67125 7.84489C8.05323 8.91492 8.27723 10.855 8.13723 12.685C7.99723 14.5131 6.61719 16.5711 6.61719 16.5711L8.79125 15.9831C8.79325 15.9831 9.36327 14.2151 9.10126 12.161Z" fill="#FFB300"/>
<path d="M6.18917 18.0171C6.03717 18.2331 5.70116 18.0671 5.77916 17.8131C5.81716 17.6911 5.86516 17.5571 5.92516 17.4111C6.21317 16.7011 6.71119 15.883 7.46721 15.645C8.74724 15.243 8.79925 15.983 8.79925 15.983C7.57121 16.501 6.73719 17.2371 6.18917 18.0171Z" fill="#EDA600"/>
<path d="M9.95186 7.0162C9.56185 6.79019 9.33984 6.07817 9.33984 5.63016C9.33984 5.18214 9.61185 5.02014 9.73586 5.41015C9.85986 5.80016 10.1519 6.21417 10.7259 6.60218L9.95186 7.0162Z" fill="#EDA600"/>
<path d="M6.43493 23.3391C9.54702 23.9331 11.8111 24.0011 15.4672 24.0011C16.6012 24.0011 20.5153 23.6951 21.9474 20.987C23.2654 18.4949 22.6554 15.4928 22.0854 14.5168C21.9974 14.3668 21.3754 12.9028 20.5593 13.8468C20.2173 14.2408 20.7313 14.9508 20.5733 16.1828C19.8973 21.501 14.6272 20.901 14.6272 20.901C12.0951 22.927 6.04492 22.227 4.77488 22.157C4.62888 22.149 4.27287 22.053 4.16886 22.345C4.06486 22.637 4.42487 22.791 4.62888 22.865C5.13089 23.043 5.72691 23.203 6.43493 23.3391Z" fill="#FFB300"/>
<path d="M12.7132 20.1006C12.8372 19.9006 13.1312 20.0026 13.2672 20.0586C14.0492 20.3826 15.6833 21.1306 17.7133 20.1366C20.3494 18.8465 20.4754 16.5165 20.4754 16.5165C20.5054 16.2105 20.5834 16.0985 20.8114 16.0825C21.0734 16.0645 21.1854 16.3165 21.1974 16.5345C21.2414 17.4325 21.2154 19.9746 18.2773 21.2066C15.5472 22.3526 13.5872 21.1366 12.9752 20.6566C12.8312 20.5426 12.5912 20.2986 12.7132 20.1006Z" fill="#EDA600"/>
</g>
<defs>
<clipPath id="clip0_1560_3314">
<rect width="24" height="24" fill="white"/>
</clipPath>
</defs>
</svg>
