<svg width="24" height="24" viewBox="0 0 24 24" fill="none" xmlns="http://www.w3.org/2000/svg">
<g clip-path="url(#clip0_1560_3351)">
<path d="M12 0C5.38 0 0 5.38 0 12C0 18.62 5.38 24 12 24C18.62 24 24 18.62 24 12C24 5.38 18.62 0 12 0ZM22 12C22 14.4 21.16 16.6 19.74 18.32L5.68 4.26C7.4 2.84 9.6 2 12 2C17.52 2 22 6.48 22 12ZM2 12C2 9.6 2.84 7.4 4.26 5.68L18.32 19.74C16.6 21.16 14.4 22 12 22C6.48 22 2 17.52 2 12Z" fill="#CC3333"/>
<path d="M11.22 0.600098C8.6 0.600098 6.2 1.5001 4.28 3.0001L4.26 2.9801L4.04 3.2001C1.58 5.2601 0 8.3601 0 11.8201C0 18.0201 5.02 23.0401 11.22 23.0401C17.42 23.0401 22.44 18.0201 22.44 11.8201C22.44 5.6201 17.42 0.600098 11.22 0.600098ZM5.68 4.2601C7.4 2.8401 9.6 2.0001 12 2.0001C17.52 2.0001 22 6.4801 22 12.0001C22 14.4001 21.16 16.6001 19.74 18.3201L5.62 4.3201L5.68 4.2601ZM2 12.0001C2 9.6401 2.82 7.4601 4.2 5.7601L18.32 19.7401C16.6 21.1601 14.4 22.0001 12 22.0001C6.48 22.0001 2 17.5201 2 12.0001Z" fill="#F44336"/>
<path d="M8.19812 1.37924C8.53812 1.29924 9.03812 1.05924 9.37812 1.15924C9.57812 1.21924 9.75812 1.45924 9.67812 1.65924C9.61812 1.81924 9.45812 1.91924 9.27812 1.95924C8.45812 2.17924 7.73812 2.41924 7.01812 2.77924C5.59812 3.51924 4.31812 4.63924 3.39812 5.93924C3.01812 6.47924 2.71812 7.03924 2.23812 7.49924C2.19812 7.53924 2.13812 7.57924 2.07812 7.57924C2.03812 7.57924 1.99812 7.57924 1.97812 7.55924C1.73812 7.45924 1.69812 7.33924 1.73812 7.09924C1.77812 6.89924 1.83812 6.69924 1.93812 6.51924C2.11812 6.15924 2.37812 5.83924 2.59812 5.49924C2.97812 4.91924 3.41812 4.37924 3.91812 3.89924C5.27812 2.63924 7.03812 1.67924 8.19812 1.37924Z" fill="#FF8A80"/>
<path d="M5.6832 4.26025L5.2832 4.66025L19.5032 18.8803L19.8632 18.4403L5.6832 4.26025Z" fill="#CC3333"/>
</g>
<defs>
<clipPath id="clip0_1560_3351">
<rect width="24" height="24" fill="white"/>
</clipPath>
</defs>
</svg>
