<svg width="24" height="24" viewBox="0 0 24 24" fill="none" xmlns="http://www.w3.org/2000/svg">
<path d="M11.9578 23.9373C18.5619 23.9373 23.9156 18.5836 23.9156 11.9795C23.9156 5.37542 18.5619 0.0217285 11.9578 0.0217285C5.35369 0.0217285 0 5.37542 0 11.9795C0 18.5836 5.35369 23.9373 11.9578 23.9373Z" fill="url(#paint0_radial_1560_4586)"/>
<path opacity="0.2" d="M11.9578 0.621418C18.2206 0.621418 23.3159 5.71678 23.3159 11.9795C23.3159 18.2423 18.2206 23.3376 11.9578 23.3376C5.69505 23.3376 0.599689 18.2423 0.599689 11.9795C0.599689 5.71678 5.69505 0.621418 11.9578 0.621418ZM11.9578 0.0217285C5.35323 0.0217285 0 5.37695 0 11.9795C0 18.5821 5.35323 23.9373 11.9578 23.9373C18.5624 23.9373 23.9156 18.5841 23.9156 11.9795C23.9156 5.37495 18.5604 0.0217285 11.9578 0.0217285Z" fill="#434343"/>
<path d="M11.9566 20.3072C16.5558 20.3072 20.2843 16.5788 20.2843 11.9795C20.2843 7.38029 16.5558 3.65186 11.9566 3.65186C7.35734 3.65186 3.62891 7.38029 3.62891 11.9795C3.62891 16.5788 7.35734 20.3072 11.9566 20.3072Z" fill="#FEFCE9"/>
<path d="M11.9564 17.3193C14.9052 17.3193 17.2957 14.9289 17.2957 11.9801C17.2957 9.03133 14.9052 6.64087 11.9564 6.64087C9.00764 6.64087 6.61719 9.03133 6.61719 11.9801C6.61719 14.9289 9.00764 17.3193 11.9564 17.3193Z" fill="url(#paint1_radial_1560_4586)"/>
<path d="M11.9586 13.5805C12.8429 13.5805 13.5598 12.8636 13.5598 11.9793C13.5598 11.095 12.8429 10.3782 11.9586 10.3782C11.0743 10.3782 10.3574 11.095 10.3574 11.9793C10.3574 12.8636 11.0743 13.5805 11.9586 13.5805Z" fill="#FEFCE9"/>
<path d="M21.1623 2.83422L21.2323 1.14709C21.2643 0.387487 20.5886 -0.150235 19.839 0.037668L18.4477 0.383489C17.968 0.503427 17.5842 0.893224 17.4742 1.37497L15.957 8.03952L15.969 8.03352L21.1663 2.83622L21.1623 2.83422Z" fill="#09BCD4"/>
<path d="M21.1662 2.83473L22.8534 2.76476C23.613 2.73278 24.1507 3.40843 23.9628 4.15804L23.617 5.54932C23.497 6.02907 23.1072 6.41287 22.6255 6.52282L15.9609 8.04003L15.9669 8.02804L21.1642 2.83073L21.1662 2.83473Z" fill="#38A4DD"/>
<path d="M12.2234 12.2053C11.9436 12.4552 11.5538 12.0654 11.8016 11.7855L19.3038 3.49981C19.6336 3.16998 20.1693 3.16998 20.4991 3.49981C20.829 3.82964 20.829 4.36536 20.4991 4.69519L12.2234 12.2053Z" fill="#1B87C9"/>
<path opacity="0.2" d="M20.1383 0.399793C20.3362 0.399793 20.5161 0.473754 20.646 0.609684C20.7759 0.743615 20.8419 0.929518 20.8339 1.13141L20.7639 2.81454C20.76 2.8925 20.7799 2.96846 20.8179 3.03243C20.8359 3.06241 20.8559 3.0884 20.8799 3.11239C20.9539 3.18835 21.0578 3.23432 21.1657 3.23432H21.1817L22.8649 3.16436H22.8988C23.1227 3.16436 23.3186 3.25631 23.4486 3.42223C23.5845 3.59414 23.6285 3.82802 23.5705 4.0599L23.2247 5.45117C23.1427 5.781 22.8649 6.05486 22.533 6.13082L17.0079 7.39017C16.9399 7.40616 16.878 7.43814 16.828 7.48412L13.4937 10.5146L16.5122 7.18028C16.5581 7.1303 16.5901 7.06834 16.6061 7.00037L17.8674 1.46324C17.9434 1.13141 18.2153 0.853558 18.5471 0.7716L19.9384 0.425779C20.0043 0.407789 20.0723 0.399793 20.1383 0.399793ZM20.1383 0C20.0403 0 19.9404 0.0119938 19.8404 0.0379803L18.4491 0.383801C17.9694 0.503739 17.5856 0.893537 17.4757 1.37529L16.2143 6.91242L11.8026 11.7839C11.6087 12.0018 11.8006 12.2836 12.0265 12.2836C12.0924 12.2836 12.1604 12.2596 12.2224 12.2037L17.0978 7.78197L22.623 6.52262C23.1027 6.41268 23.4945 6.02888 23.6145 5.54912L23.9603 4.15785C24.1422 3.42423 23.6325 2.76457 22.9008 2.76457C22.8849 2.76457 22.8669 2.76457 22.8489 2.76657L21.1657 2.83653H21.1617V2.83253L21.2317 1.1494C21.2597 0.489746 20.76 0 20.1383 0Z" fill="#434343"/>
<defs>
<radialGradient id="paint0_radial_1560_4586" cx="0" cy="0" r="1" gradientUnits="userSpaceOnUse" gradientTransform="translate(8.54057 6.37504) scale(12.43)">
<stop offset="0.4707" stop-color="#EF5451"/>
<stop offset="0.8338" stop-color="#E53A35"/>
</radialGradient>
<radialGradient id="paint1_radial_1560_4586" cx="0" cy="0" r="1" gradientUnits="userSpaceOnUse" gradientTransform="translate(10.9246 9.91837) scale(6.12722)">
<stop offset="0.4707" stop-color="#EF5451"/>
<stop offset="0.8338" stop-color="#E53A35"/>
</radialGradient>
</defs>
</svg>
