<svg width="24" height="24" viewBox="0 0 24 24" fill="none" xmlns="http://www.w3.org/2000/svg">
<path d="M23.9791 17.3247C23.9791 17.6655 23.7386 17.9461 23.4178 17.9461L0.764485 17.9662C0.323447 17.9662 -0.0173556 17.5652 0.0227388 17.0841V15.8211C0.0227388 15.8211 0.0427859 15.5405 0.0628331 14.9792C0.143022 13.7763 0.44373 8.12302 1.50623 8.70439C2.78925 9.38599 4.11236 9.80699 5.13477 9.62656C6.45789 9.40604 7.01921 8.32349 7.68076 7.58175C8.22204 6.98033 8.8435 6.8801 9.08407 7.1808C13.3942 12.1726 19.9897 10.0275 22.6961 12.2126C24.0393 13.2551 23.9591 16.1018 23.9791 17.3247Z" fill="url(#paint0_linear_1560_4600)"/>
<path d="M23.9791 17.3444C23.9791 17.6852 23.7385 17.9659 23.4178 17.9659H16.8223C18.2657 15.4199 17.9048 12.6935 17.3234 10.8491C19.5286 11.1097 21.4933 11.23 22.6961 12.1923C24.0393 13.2748 23.9591 16.1215 23.9791 17.3444Z" fill="#E0E0E0"/>
<path d="M23.9796 17.3448C23.9796 17.6856 23.7391 17.9663 23.4183 17.9663H0.744953C0.303915 17.9663 -0.0368869 17.5653 0.0032075 17.0842V15.8212C0.0032075 15.8212 0.0032075 15.7811 0.0032075 15.6809H23.9195C23.9796 16.3224 23.9796 16.9238 23.9796 17.3448Z" fill="#B0BEC5"/>
<path d="M0.345703 11.3504C0.566222 9.78676 0.907024 8.38345 1.46835 8.68416C2.75137 9.36576 4.07448 9.78676 5.09689 9.60633C6.29972 9.40586 6.88109 8.48369 7.46245 7.74194C7.56269 7.80208 7.66293 7.92237 7.74311 8.12284C9.24665 11.3705 3.53321 12.874 0.345703 11.3504Z" fill="#E0E0E0"/>
<path d="M12.8753 9.82641C12.5144 10.1071 12.1335 10.3877 11.7526 10.6684C11.3717 10.929 10.9908 11.1896 10.5899 11.4502H10.5699C10.5498 11.4703 10.5298 11.4703 10.5097 11.4703C10.4897 11.4703 10.4897 11.4703 10.4696 11.4903C10.4295 11.5104 10.3894 11.5104 10.3493 11.5304C10.3293 11.5304 10.3293 11.5304 10.3092 11.5304C10.2892 11.5304 10.2491 11.5304 10.2291 11.5304C10.209 11.5304 10.209 11.5304 10.189 11.5304C10.1689 11.5304 10.1489 11.5304 10.1288 11.5304H10.1088C10.0687 11.5304 10.0286 11.5104 9.96844 11.4903C9.88825 11.4703 9.80806 11.4302 9.72787 11.3901C9.68778 11.37 9.64768 11.33 9.60759 11.3099C9.5675 11.2899 9.54745 11.2498 9.50735 11.2297C9.44721 11.1696 9.40712 11.0894 9.36702 11.0292C9.20665 10.6483 9.30688 10.3075 9.54745 10.0469C9.5675 10.0269 9.58754 10.0068 9.58754 10.0068C9.64768 9.94669 9.72787 9.88655 9.78801 9.84646C10.0085 9.70613 10.2291 9.5658 10.4295 9.40542C10.65 9.26509 10.8505 9.10471 11.071 8.94434C11.1913 9.02452 11.3116 9.10471 11.4319 9.16485C11.7526 9.36533 12.0734 9.5257 12.4142 9.66603C12.5746 9.70613 12.7149 9.76627 12.8753 9.82641Z" fill="white"/>
<path opacity="0.2" d="M12.4337 9.64577C11.7922 10.147 11.1106 10.6281 10.3689 11.1092C10.3288 11.1293 10.2887 11.1493 10.2285 11.1493C10.0481 11.1493 9.82759 11.009 9.7474 10.8486C9.58703 10.4878 9.88773 10.2472 10.0281 10.147C10.5092 9.84624 10.9903 9.50544 11.4514 9.14459C11.3311 9.08445 11.2108 9.00426 11.0906 8.92407C10.8901 9.08445 10.6696 9.22478 10.4491 9.38516C10.2285 9.52549 10.008 9.68587 9.80755 9.8262C9.72736 9.86629 9.66722 9.92643 9.60707 9.98657C9.58703 10.0066 9.56698 10.0066 9.56698 10.0267C9.32641 10.2873 9.22618 10.6481 9.38655 11.009C9.42665 11.0892 9.46674 11.1493 9.52689 11.2095C9.54693 11.2495 9.58703 11.2696 9.62712 11.2896C9.66722 11.3097 9.70731 11.3498 9.7474 11.3698C9.82759 11.4099 9.90778 11.45 9.98797 11.4701C10.0281 11.4901 10.0682 11.4901 10.1283 11.5102H10.1483H10.2486H10.3288H10.3689C10.409 11.5102 10.4491 11.4901 10.4892 11.4701C10.5092 11.4701 10.5092 11.4701 10.5292 11.45C10.5493 11.45 10.5693 11.43 10.5894 11.43H10.6094C11.0104 11.1694 11.3913 10.9087 11.7722 10.6481C12.1531 10.3675 12.5139 10.1069 12.8948 9.80615C12.7144 9.76605 12.5741 9.70591 12.4337 9.64577Z" fill="#424242"/>
<path d="M13.8352 10.1672C13.6347 10.4278 13.4142 10.6885 13.1937 10.929C12.8729 11.2899 12.7527 11.7911 13.1135 12.192L13.1736 12.2521C13.2137 12.2922 13.2739 12.3323 13.334 12.3724C13.3541 12.3925 13.3741 12.3925 13.3942 12.4125C13.4142 12.4326 13.4343 12.4326 13.4744 12.4326H13.4944C13.5345 12.4526 13.5746 12.4526 13.6147 12.4727H13.6347C13.6748 12.4727 13.7149 12.4927 13.755 12.4927H13.8352H13.8553H13.8953H13.9555H13.9755C14.0156 12.4927 14.0557 12.4727 14.0758 12.4727C14.1159 12.4727 14.1359 12.4526 14.176 12.4326C14.2361 12.3925 14.2963 12.3524 14.3564 12.2922C14.8376 11.751 15.2986 11.1896 15.7397 10.6083C15.5994 10.5882 15.439 10.5481 15.2986 10.5281C14.9378 10.4679 14.577 10.3878 14.2361 10.2875C14.1159 10.2474 13.9755 10.2073 13.8352 10.1672Z" fill="white"/>
<path opacity="0.2" d="M15.3167 10.5283C14.9358 11.0295 14.5149 11.5307 14.0738 12.0318C14.0137 12.112 13.8934 12.112 13.8333 12.112C13.6729 12.112 13.4924 12.0318 13.4123 11.9517C13.1516 11.6509 13.3922 11.3302 13.4924 11.2099C13.7531 10.9092 14.0137 10.6085 14.2542 10.3078C14.1139 10.2677 13.9736 10.2276 13.8333 10.1875C13.6328 10.4481 13.4123 10.7087 13.1917 10.9493C12.871 11.3101 12.7507 11.8113 13.1116 12.2323L13.1717 12.2925C13.2118 12.3325 13.2719 12.3726 13.3321 12.4127C13.3521 12.4328 13.3722 12.4328 13.3922 12.4528C13.4123 12.4528 13.4323 12.4729 13.4724 12.4729C13.4724 12.4729 13.4924 12.4729 13.4924 12.4929C13.5325 12.513 13.5726 12.513 13.6127 12.533H13.6328C13.6729 12.533 13.713 12.5531 13.7531 12.5531H13.8132H13.8333H13.9535H13.9736C14.0137 12.5531 14.0538 12.533 14.0738 12.533C14.1139 12.513 14.134 12.513 14.1741 12.4929C14.2342 12.4528 14.2943 12.4127 14.3545 12.3526C14.8356 11.8113 15.2967 11.25 15.7377 10.6686C15.6175 10.5884 15.4771 10.5484 15.3167 10.5283Z" fill="#424242"/>
<path opacity="0.2" d="M8.68117 7.60142C11.4477 10.7689 15.0963 11.1899 18.0432 11.5106C19.8475 11.7111 21.4111 11.8915 22.3533 12.6333C23.3758 13.4552 23.3958 15.8609 23.3958 17.0035V17.3243L0.762531 17.3644C0.722437 17.3644 0.70239 17.3443 0.682343 17.3243C0.662296 17.3043 0.622201 17.2441 0.622201 17.1439C0.622201 17.1238 0.622201 17.1038 0.622201 17.0837V15.8408C0.622201 15.8007 0.642248 15.5201 0.662296 15.0189C0.662296 14.9387 0.682343 14.8384 0.682343 14.6981C0.922909 10.9493 1.26371 9.72642 1.44414 9.32547C2.64697 9.94694 3.72951 10.2476 4.63164 10.2476C4.83211 10.2476 5.03258 10.2276 5.23305 10.2075C6.51607 9.98703 7.19768 9.125 7.73895 8.42335C7.85924 8.26297 7.97952 8.1026 8.11985 7.96227C8.36042 7.70165 8.58093 7.62146 8.68117 7.60142ZM8.70122 7C8.40051 7 8.03966 7.18043 7.67881 7.56132C7.01725 8.32311 6.45593 9.38562 5.13282 9.60613C4.97244 9.62618 4.81206 9.64623 4.63164 9.64623C3.68942 9.64623 2.58683 9.26533 1.50428 8.68396C1.46418 8.66392 1.40404 8.66392 1.36395 8.66392C0.401682 8.66392 0.141069 13.8361 0.06088 14.9788C0.0207856 15.5601 0.0207856 15.8208 0.0207856 15.8208V17.0837C-0.0193087 17.5448 0.321493 17.9658 0.762531 17.9658L23.4359 17.9458C23.7567 17.9458 23.9972 17.6651 23.9972 17.3243C23.9772 16.1014 24.0574 13.2547 22.7142 12.1722C20.0078 9.98703 13.4123 12.1521 9.10216 7.14033C9.00192 7.06014 8.86159 7 8.70122 7Z" fill="#424242"/>
<defs>
<linearGradient id="paint0_linear_1560_4600" x1="11.9993" y1="8.60215" x2="11.9993" y2="16.1639" gradientUnits="userSpaceOnUse">
<stop offset="0.2553" stop-color="#F44336"/>
<stop offset="0.8476" stop-color="#D32F2F"/>
</linearGradient>
</defs>
</svg>
