<svg width="24" height="24" viewBox="0 0 24 24" fill="none" xmlns="http://www.w3.org/2000/svg">
<g clip-path="url(#clip0_1560_3360)">
<path d="M20.0786 8.57445C20.3201 7.71823 20.5117 6.49278 20.2822 5.62658C19.9608 4.40712 19.5138 4.22351 19.5138 4.22351C19.5138 4.22351 19.5876 3.04995 19.3202 2.39332C18.2444 -0.253172 11.2011 -0.630386 8.64639 0.894439C6.11367 2.40729 5.58876 5.85411 5.51292 7.47074C5.43508 9.08738 6.80822 10.9196 8.48473 12.1091C9.46269 12.8036 11.4086 11.0014 12.2549 10.6581C11.0214 9.44463 9.79001 8.22916 8.55658 7.01569C8.70028 6.17544 9.03958 5.32521 9.79201 4.73644C11.1512 3.67265 16.8274 3.52496 16.6876 5.53478C16.6258 6.42492 13.8875 10.0274 12.3247 11.8416C12.3247 11.8416 12.5103 15.971 12.0054 19.8649C14.5541 20.1583 16.1967 20.0266 18.3422 19.7172C18.3143 17.8112 18.4101 18.0148 18.3821 16.1108C18.3622 14.7117 18.3322 13.2727 17.7694 11.9853C17.7275 11.8895 17.5119 11.7758 17.464 11.682C18.7613 11.0233 19.6654 10.0374 20.0786 8.57445Z" fill="#F44336"/>
<path d="M8.51771 5.17783C8.60353 4.19188 8.60752 3.1241 9.10049 2.24394C9.6274 1.34381 11.3837 1.03046 12.3378 0.920693C14.148 0.713125 17.2775 1.02847 17.505 3.32568C17.5848 4.12402 16.6847 5.53708 16.6847 5.53708C16.6847 5.53708 16.5929 5.06207 16.3235 4.92436C15.1319 4.32161 13.7708 4.06614 12.4415 4.17791C10.0725 4.41741 9.02665 5.28361 8.50573 7.61675C8.46582 6.80444 8.46981 5.98814 8.51771 5.17783Z" fill="#823B1F"/>
<path d="M18.7176 7.17756C18.4143 7.06779 18.6717 6.6786 18.7675 6.46305C19.2485 5.35735 19.482 4.14588 19.4501 2.94238C19.4521 3.03619 19.8692 3.30962 19.8932 4.86837C19.9052 5.64675 19.5858 6.48101 19.0789 7.07378C19.011 7.14962 18.8553 7.23744 18.7176 7.17756Z" fill="#823B1F"/>
<path d="M9.74388 8.88021C9.40658 8.7385 8.20509 7.67871 7.78197 7.15979C6.91777 6.1 5.95777 4.67696 6.53856 3.27588C6.86588 5.40744 8.53839 7.08594 10.0892 8.45908C10.3147 8.6427 10.0453 9.00595 9.74388 8.88021Z" fill="#823B1F"/>
<path d="M18.7756 22.9131C18.4902 21.7674 18.3984 20.5979 18.3485 19.4243C16.2649 19.7337 14.1373 19.8195 12.0476 19.562C11.8501 20.7835 11.856 21.5978 11.4928 23.0508C11.413 23.3741 11.3411 23.6675 11.6285 23.7992C11.7303 23.8451 11.866 23.8112 11.9359 23.7214C12.4428 23.0867 12.2293 21.7694 12.6125 21.7155C13.2352 21.6257 12.6244 23.3841 12.7542 23.7353C12.862 24.0307 13.2232 24.0387 13.3549 23.7513C13.4108 23.6355 13.4228 23.5038 13.4348 23.3761C13.4687 22.9709 13.4886 22.7414 13.5226 22.3363C13.5405 22.1267 13.5445 21.7135 13.8998 21.7195C14.1792 21.7235 14.1473 22.1526 14.1553 22.3961C14.1732 23.0108 14.0056 23.5896 14.0994 23.7812C14.2131 24.0148 14.4946 24.0307 14.6303 23.907C15.0155 23.438 14.8079 22.6656 14.8877 22.0948C14.8997 21.5439 15.3588 21.3922 15.5025 21.959C15.5723 22.3921 15.5384 22.8552 15.5044 23.2943C15.4526 23.5896 15.5583 24.0666 15.9415 23.9928C16.1252 23.9389 16.187 23.7134 16.207 23.5218C16.2569 23.0288 16.223 22.5298 16.2449 22.0349C16.2429 21.8852 16.2968 21.6916 16.4784 21.6716C16.9654 21.6158 16.8696 22.5039 16.9275 23.2264C16.9554 23.5797 16.9454 23.9469 17.2608 23.9549C17.5821 23.9629 17.6739 23.7373 17.646 23.5058C17.5841 22.9729 17.4544 22.464 17.4564 21.8473C17.4564 21.7614 17.4983 21.6676 17.5761 21.6337C17.7817 21.5579 17.9154 21.7974 17.9533 21.969C18.103 22.468 18.1589 22.9749 18.2946 23.4779C18.3525 23.6874 18.4842 23.9489 18.6978 23.911C19.091 23.7733 18.8215 23.2224 18.7756 22.9131Z" fill="#C62828"/>
<path d="M12.4767 17.2668C12.4767 17.2668 13.5524 14.5065 14.0354 11.7802C14.2989 10.2873 14.7958 9.06786 15.3806 8.05996C14.7938 7.80848 14.229 7.73463 13.5963 7.83044C13.3149 7.87235 13.0375 7.95019 12.7521 7.97214C12.0975 8.02004 11.6683 7.75459 10.7942 7.88432C10.1994 7.97214 9.79225 8.34337 9.46294 8.78046C9.13163 9.21755 8.92007 9.72848 8.72647 10.2414C8.21753 11.5826 7.70061 13.8459 6.81445 15.5883C8.74643 16.6541 12.4767 17.2668 12.4767 17.2668Z" fill="#FF7555"/>
<path d="M10.9293 11.6216C10.7197 11.6655 10.586 11.414 10.592 11.2663C10.6239 10.2484 11.2406 9.33433 11.8035 8.71961C12.3443 8.13083 12.9551 7.83745 13.6596 7.83545C13.1407 8.11287 12.7096 8.51404 12.3184 8.98505C11.9631 9.45607 11.7057 9.99695 11.5041 10.5518C11.3963 10.8552 11.2506 11.5557 10.9293 11.6216Z" fill="#823B1F"/>
<path d="M15.2827 12.1679C14.9434 11.7927 14.8676 11.2079 14.8796 10.683C14.9115 9.41362 15.4943 7.76904 15.4943 7.76904C15.3207 7.94268 15.161 8.20813 15.0532 8.43765C14.4225 9.77686 13.9615 11.1959 13.6861 12.6509C13.0454 15.5628 12.3888 17.7662 12.0994 18.6983C12.0774 18.7681 12.273 18.6644 12.3548 18.5406C13.4466 16.8841 13.8338 15.4471 14.5323 13.6109C14.5503 13.561 14.5702 13.5111 14.6081 13.4732C14.656 13.4233 16.8195 12.7806 17.9911 11.3815C17.1508 11.7687 16.2028 12.0801 15.2827 12.1679Z" fill="#823B1F"/>
<path d="M10.0374 16.2847C8.8499 16.0592 8.00167 15.7977 7.02171 15.189C7.02171 15.189 6.21539 16.7936 4.29339 17.8175C4.21156 17.8614 3.94013 17.9692 4.01198 18.2346C4.08383 18.4981 4.39718 18.542 4.5289 18.52C5.08375 18.4282 5.49689 17.9911 5.90204 17.6179C5.98587 17.5401 6.19144 17.4223 6.38703 17.5002C6.51876 17.554 6.47884 17.7037 6.37107 17.8255C5.88208 18.3843 5.30129 18.7735 5.29531 18.7775C5.12965 18.8773 4.962 19.1367 5.25539 19.2984C5.82221 19.6118 6.48283 18.9332 7.07959 18.1488C7.15144 18.055 7.27918 17.9372 7.48674 18.0251C7.65439 18.0969 7.59851 18.3284 7.5067 18.4602C7.13547 18.991 6.67244 19.3982 6.66845 19.4022C6.52275 19.5299 6.38903 19.8153 6.65248 19.975C6.91593 20.1367 7.38895 20.0229 8.16533 18.7396C8.2272 18.6378 8.35493 18.4422 8.58845 18.4602C8.79602 18.4761 8.85589 18.6138 8.73215 18.8813C8.4687 19.4501 8.25115 19.5778 8.04358 19.8692C7.80608 20.2025 7.90986 20.3562 8.04159 20.4959C8.13938 20.5997 8.38288 20.6217 8.67627 20.3422C8.84192 20.1846 9.00558 19.7954 9.3808 19.1866C9.54845 18.9152 9.65423 18.8394 9.87976 18.8773C10.1093 18.9172 10.0574 19.2126 9.92167 19.4641C9.68017 19.9111 9.36483 20.3183 9.34487 20.3402C9.12333 20.5797 9.14529 20.8252 9.29498 20.945C9.44067 21.0607 9.76001 21.0128 9.88175 20.8592C10.0035 20.7055 10.1233 20.6636 10.4945 19.7754C10.6322 19.4461 10.738 19.1567 10.9455 19.1507C11.2469 19.1447 11.183 19.4182 11.0972 19.7594C10.9575 20.3183 10.5723 20.8951 10.5683 20.9011C10.3987 21.2424 10.4206 21.4659 10.6502 21.5357C10.9495 21.6256 11.197 21.422 11.4325 20.9011C11.4704 20.8152 12.4085 18.2745 12.5682 16.9892C12.5662 16.9952 11.7918 16.62 10.0374 16.2847Z" fill="#F44336"/>
</g>
<defs>
<clipPath id="clip0_1560_3360">
<rect width="24" height="24" fill="white"/>
</clipPath>
</defs>
</svg>
