<svg width="24" height="24" viewBox="0 0 24 24" fill="none" xmlns="http://www.w3.org/2000/svg">
<path d="M4 22.4632V20.9792C5.48 20.5992 17.572 20.9792 20.256 20.9792V22.4632C20.256 23.3112 16.616 23.9992 12.128 23.9992C7.64 23.9992 4 23.3112 4 22.4632Z" fill="#8B5738"/>
<path d="M12.128 22.4324C16.617 22.4324 20.256 21.7447 20.256 20.8964C20.256 20.048 16.617 19.3604 12.128 19.3604C7.63903 19.3604 4 20.048 4 20.8964C4 21.7447 7.63903 22.4324 12.128 22.4324Z" fill="#FFB17A"/>
<path d="M12.128 22.4324C16.617 22.4324 20.256 21.7447 20.256 20.8964C20.256 20.048 16.617 19.3604 12.128 19.3604C7.63903 19.3604 4 20.048 4 20.8964C4 21.7447 7.63903 22.4324 12.128 22.4324Z" fill="#CC8552"/>
<path opacity="0.75" d="M13.3204 12.2989C13.1704 12.2369 13.1064 12.1149 13.1064 11.9529C13.1064 11.7909 13.1564 11.6749 13.3024 11.6249C14.2244 11.2529 18.8564 9.4789 18.8564 3.9529L18.8204 2.9889L5.42439 2.9729L5.40039 3.9869C5.40039 9.3449 10.0164 11.2369 10.9364 11.6089C11.0864 11.6709 11.1804 11.7729 11.1804 11.9549C11.1804 12.1369 11.1024 12.2329 10.9544 12.2829C10.0324 12.6549 5.40039 14.4289 5.40039 19.9549C5.42439 20.5789 5.72039 21.0689 6.46839 21.2549C7.47439 21.5049 9.34439 21.7689 12.5744 21.7689C15.3564 21.7689 16.9144 21.5649 17.7804 21.3629C18.6304 21.1649 18.8384 20.6749 18.8524 20.0429L18.8544 19.9209C18.8564 14.5629 14.2424 12.6709 13.3204 12.2989Z" fill="#81D4FA"/>
<path opacity="0.39" d="M18.8184 2.9889L5.42239 2.9729L5.40039 3.8769C5.40039 3.8769 6.85039 4.6209 12.1264 4.6209C17.4024 4.6209 18.8524 3.8769 18.8524 3.8769L18.8184 2.9889Z" fill="#1D44B3"/>
<path d="M4 2.78848V1.21448C5.436 1.02248 18.182 1.21448 20.256 1.21448V2.78848C20.256 3.46048 16.616 4.00448 12.128 4.00448C7.64 4.00448 4 3.46048 4 2.78848Z" fill="#8B5738"/>
<path d="M12.128 2.432C16.617 2.432 20.256 1.88758 20.256 1.216C20.256 0.544422 16.617 0 12.128 0C7.63903 0 4 0.544422 4 1.216C4 1.88758 7.63903 2.432 12.128 2.432Z" fill="#CC8552"/>
<path d="M11.3924 14.0812C11.6044 13.7532 11.6464 13.1792 12.2884 13.1792C12.6504 13.1792 17.8924 20.0832 17.5024 20.5392C17.3724 20.6912 17.1804 20.7532 16.9964 20.8052C13.9204 21.6732 9.22444 21.4572 7.20044 20.6112C6.39444 20.2752 7.90244 18.3452 8.27844 17.8852C8.41044 17.7252 10.6904 15.1612 11.3924 14.0812Z" fill="#FFCA28"/>
<path d="M12.4167 14.0426C13.1687 15.4746 13.3947 16.5406 13.7227 18.1586C13.8907 18.9806 14.5147 21.2566 15.2707 21.1626C15.8787 21.0746 16.4607 20.9586 16.9927 20.8066C17.1767 20.7546 17.3687 20.6926 17.4987 20.5406C17.6087 20.4106 17.5187 19.8226 16.6387 18.6126C15.8847 17.5786 14.8107 16.1346 14.6387 15.8026C13.8667 14.3146 12.6767 13.1326 12.2867 13.1806C12.0087 13.2126 12.2427 13.7106 12.4167 14.0426Z" fill="#E2A610"/>
<g opacity="0.6">
<path d="M7.90332 15.3191C7.27732 16.0511 6.80732 17.0351 6.98532 17.9851C7.17332 18.9871 8.10532 18.7111 8.42932 18.4571C9.46132 17.6471 9.17932 16.6091 9.97732 15.4431C10.1133 15.2431 10.6813 14.6171 10.6013 14.2231C10.5533 13.9891 10.0093 13.8691 9.01932 14.3651C8.58332 14.5851 8.22532 14.9451 7.90332 15.3191Z" fill="white"/>
</g>
<g opacity="0.6">
<path d="M8.49349 6.73148C8.74549 7.31948 9.20549 8.65348 8.60549 8.88148C8.00549 9.11148 7.12749 8.25948 6.71149 7.40348C6.29549 6.54748 6.33349 5.41148 6.96149 5.39348C7.58949 5.37548 8.15949 5.95348 8.49349 6.73148Z" fill="white"/>
</g>
</svg>
