<svg width="24" height="24" viewBox="0 0 24 24" fill="none" xmlns="http://www.w3.org/2000/svg">
<g clip-path="url(#clip0_1560_4522)">
<path d="M12.7029 4.6145H11.3203V18.5591H12.7029V4.6145Z" fill="#4C889B"/>
<path d="M17.6094 6.02969C18.6424 6.02969 19.7465 5.65836 20.6412 4.41006L19.5174 3.60419C18.4468 5.09544 17.0109 4.71028 15.5118 4.14341L15.334 4.07626C14.3365 3.70493 13.1534 3.49951 12.0059 3.49951V4.88212C12.9796 4.88212 14.0185 5.05989 14.8521 5.37196L15.0239 5.43714C15.6421 5.67021 16.5922 6.02969 17.6094 6.02969Z" fill="#4C889B"/>
<path d="M7.34514 21.3521C7.75005 20.9294 9.69755 20.3784 10.2111 19.9004C10.7246 19.4224 10.2052 18.8674 10.4501 17.7316C10.7622 16.2839 12.0124 16.116 12.0124 16.116C12.0124 16.116 13.2627 16.2839 13.5748 17.7316C13.8197 18.8654 13.2983 19.4224 13.8138 19.9004C14.3273 20.3784 16.2768 20.9294 16.6797 21.3521C17.1024 21.7945 17.1202 22.3812 16.6797 22.5826C16.6797 22.5826 15.2023 23.189 12.0124 23.189C8.82256 23.189 7.34514 22.5826 7.34514 22.5826C6.96789 22.4641 6.92246 21.7945 7.34514 21.3521Z" fill="#4C889B"/>
<path d="M12.6951 6.45033C12.6951 6.54712 12.7918 7.03498 12.2368 7.15151C11.7509 7.25225 11.3164 7.03893 11.3164 6.43848C11.3164 5.94469 11.3638 5.71558 11.3638 5.71558C11.3638 5.71558 12.6951 6.15406 12.6951 6.45033Z" fill="#335E68"/>
<path d="M13.6558 4.94794C13.6558 4.04135 12.921 1.58228 12.0125 1.58228C11.1039 1.58228 10.3691 4.04135 10.3691 4.94794C10.3691 5.85454 11.1039 6.59127 12.0125 6.59127C12.921 6.59127 13.6558 5.85651 13.6558 4.94794Z" fill="#4C889B"/>
<path d="M12.0082 2.17267C12.6082 2.17267 13.0945 1.6863 13.0945 1.08634C13.0945 0.486369 12.6082 0 12.0082 0C11.4082 0 10.9219 0.486369 10.9219 1.08634C10.9219 1.6863 11.4082 2.17267 12.0082 2.17267Z" fill="#4C889B"/>
<path d="M19.9496 4.81647C20.5496 4.81647 21.036 4.3301 21.036 3.73014C21.036 3.13017 20.5496 2.6438 19.9496 2.6438C19.3497 2.6438 18.8633 3.13017 18.8633 3.73014C18.8633 4.3301 19.3497 4.81647 19.9496 4.81647Z" fill="#4C889B"/>
<path d="M6.40491 6.02969C7.42212 6.02969 8.37217 5.67021 8.99039 5.43714L9.16223 5.37196C9.99772 5.06186 11.0347 4.88212 12.0084 4.88212V3.49951C10.8589 3.49951 9.67775 3.70493 8.68029 4.07626L8.50253 4.14341C7.00141 4.71028 5.56745 5.09544 4.49691 3.60419L3.37305 4.41006C4.26977 5.65836 5.37191 6.02969 6.40491 6.02969Z" fill="#4C889B"/>
<path d="M11.0518 17.1049C10.7673 17.3201 10.8009 17.7014 10.8167 17.7586C10.8562 17.8969 10.9945 17.9799 11.1268 18.0292C11.4705 18.1556 11.8616 18.126 12.1914 17.9739C12.4304 17.8633 12.9143 17.5256 12.865 17.2076C12.784 16.6841 11.3382 16.8876 11.0518 17.1049Z" fill="#81AFC1"/>
<path d="M12.5889 21.9634C11.1194 22.2972 9.57482 22.1293 8.31467 21.7007C7.7873 21.521 7.97692 21.3274 8.00655 21.3037C8.26134 21.0943 8.58527 20.9502 8.93092 20.9225C9.55902 20.8731 10.0568 21.1161 10.6592 21.2958C11.3426 21.4992 12.0675 21.5664 12.7765 21.4913C12.8773 21.4815 12.9879 21.4716 13.0728 21.5289C13.4027 21.7501 12.5889 21.9634 12.5889 21.9634Z" fill="#81AFC1"/>
<path d="M11.8382 1.12434C11.7316 1.17175 11.6091 1.1994 11.4985 1.1599C11.3425 1.10459 11.2536 0.926828 11.2694 0.76289C11.299 0.464641 11.7612 0.0597337 12.0733 0.215771C12.4861 0.423163 12.1187 0.997933 11.8382 1.12434Z" fill="#81AFC1"/>
<path d="M10.8565 4.32663C11.135 4.65846 11.7591 4.60908 12.0692 3.8447C12.2786 3.3272 12.2154 2.74256 12.1857 2.56282C12.1107 2.08088 11.684 1.9683 11.3878 2.3811C10.7656 3.24425 10.6747 4.11134 10.8565 4.32663Z" fill="#81AFC1"/>
<path d="M4.06063 4.23112C4.25807 4.23112 4.41813 4.07106 4.41813 3.87362C4.41813 3.67617 4.25807 3.51611 4.06063 3.51611C3.86318 3.51611 3.70312 3.67617 3.70312 3.87362C3.70312 4.07106 3.86318 4.23112 4.06063 4.23112Z" fill="#4C889B"/>
<path d="M0.0410156 17.1823L3.70691 3.78285C3.70691 3.78285 3.91825 3.53003 4.06836 3.53003C4.21847 3.53003 4.43772 3.78285 4.43772 3.78285L8.11348 17.2001L7.59007 17.3463L4.34093 5.44988L3.79776 5.50124L0.564432 17.3265L0.0410156 17.1823Z" fill="#4C889B"/>
<path d="M8.12975 17.2102H0C0 18.1168 2.13712 19.3434 4.06487 19.3434C5.99263 19.3434 8.12975 18.0338 8.12975 17.2102Z" fill="#81AFC1"/>
<path d="M4.06487 17.8531C6.30984 17.8531 8.12975 17.5764 8.12975 17.2349C8.12975 16.8935 6.30984 16.6167 4.06487 16.6167C1.81991 16.6167 0 16.8935 0 17.2349C0 17.5764 1.81991 17.8531 4.06487 17.8531Z" fill="#335E68"/>
<path d="M4.06487 16.8162C5.75166 16.8162 7.00193 16.9722 7.59053 17.1302C7.69521 17.1579 7.69521 17.31 7.59053 17.3376C7.00193 17.4956 5.75166 17.6517 4.06487 17.6517C2.37809 17.6517 1.12781 17.4976 0.539218 17.3396C0.434535 17.312 0.434535 17.1599 0.539218 17.1322C1.12781 16.9722 2.37809 16.8162 4.06487 16.8162ZM4.06487 16.6167C1.81912 16.6167 0 16.8932 0 17.2349C0 17.5766 1.81912 17.8531 4.06487 17.8531C6.31063 17.8531 8.12975 17.5766 8.12975 17.2349C8.12975 16.8932 6.31063 16.6167 4.06487 16.6167Z" fill="#A3CDD9"/>
<path d="M2.83367 18.643C3.21487 18.8307 3.14377 18.9492 2.9107 18.9729C2.44851 19.0203 1.69005 18.7299 1.23577 18.3389C1.10343 18.2243 0.941468 17.8332 1.37995 17.8984C2.05941 17.9971 2.01003 18.2342 2.83367 18.643Z" fill="#A3CDD9"/>
<path d="M3.79492 3.80853V3.8026C3.79492 3.65249 3.91738 3.53003 4.06749 3.53003C4.21761 3.53003 4.34007 3.65249 4.34007 3.8026V3.81248V17.8657C4.34007 18.0158 4.21761 18.1383 4.06749 18.1383C3.91738 18.1383 3.79492 18.0158 3.79492 17.8657V3.80853Z" fill="#4C889B"/>
<path d="M4.06485 4.88654C4.66482 4.88654 5.15119 4.40017 5.15119 3.8002C5.15119 3.20024 4.66482 2.71387 4.06485 2.71387C3.46488 2.71387 2.97852 3.20024 2.97852 3.8002C2.97852 4.40017 3.46488 4.88654 4.06485 4.88654Z" fill="#4C889B"/>
<path d="M4.24964 2.93556C4.51234 3.05407 4.39383 3.28121 4.3405 3.34837C4.19631 3.53206 3.96127 3.53996 3.78746 3.73747C3.7124 3.8224 3.6729 4.01795 3.50501 4.06337C3.35095 4.10485 3.28379 3.98239 3.27589 3.93104C3.20873 3.53403 3.35687 3.25751 3.61759 3.06394C3.73808 2.97309 3.98695 2.81705 4.24964 2.93556Z" fill="#81AFC1"/>
<path d="M15.9082 17.1663L19.6215 3.78065C19.6215 3.78065 19.8348 3.52783 19.9849 3.52783C20.135 3.52783 20.3543 3.78263 20.3543 3.78263L23.9826 17.2137L23.4573 17.3599L20.2476 5.44966L19.7045 5.50101L16.4296 17.3125L15.9082 17.1663Z" fill="#4C889B"/>
<path d="M23.9969 17.2279L15.8672 17.1982C15.8632 18.1048 17.9964 19.3393 19.9242 19.3452C21.8519 19.3531 23.995 18.0495 23.9969 17.2279Z" fill="#81AFC1"/>
<path d="M23.9991 17.2528C24.0003 16.9114 22.1814 16.6282 19.9364 16.6202C17.6915 16.6123 15.8706 16.8826 15.8694 17.2241C15.8682 17.5655 17.6871 17.8487 19.9321 17.8567C22.177 17.8646 23.9979 17.5943 23.9991 17.2528Z" fill="#335E68"/>
<path d="M19.934 16.82C21.6208 16.8259 22.8711 16.9859 23.4577 17.1459C23.5624 17.1736 23.5604 17.3257 23.4577 17.3533C22.8691 17.5094 21.6188 17.6614 19.9321 17.6555C18.2453 17.6496 16.995 17.4896 16.4084 17.3296C16.3037 17.302 16.3057 17.1499 16.4084 17.1222C16.995 16.9662 18.2473 16.8141 19.934 16.82ZM19.934 16.6205C17.6883 16.6126 15.8672 16.8832 15.8672 17.2249C15.8652 17.5666 17.6843 17.8491 19.9301 17.857C22.1758 17.8649 23.9969 17.5943 23.9969 17.2526C23.9989 16.9129 22.1798 16.6284 19.934 16.6205Z" fill="#A3CDD9"/>
<path d="M18.7042 18.6376C19.0854 18.8272 18.9787 18.9161 18.7457 18.9398C18.2835 18.9872 17.5902 18.6593 17.0767 18.2683C16.9384 18.1616 16.6974 17.7804 17.2544 17.887C17.9201 18.0174 17.9378 18.2564 18.7042 18.6376Z" fill="#A3CDD9"/>
<path d="M19.7115 3.80631V3.80038C19.7115 3.65027 19.8339 3.52979 19.9841 3.52979C20.1342 3.52979 20.2547 3.65224 20.2547 3.80236V3.81223L20.2053 17.8655C20.2053 18.0156 20.0828 18.1361 19.9327 18.1361C19.7826 18.1361 19.6621 18.0136 19.6621 17.8635L19.7115 3.80631Z" fill="#4C889B"/>
<path d="M20.0549 2.92598C20.3176 3.04449 20.207 3.27756 20.1458 3.33879C20.0293 3.4573 19.891 3.55211 19.7606 3.65284C19.6204 3.76147 19.5058 3.87406 19.2866 3.74567C19.0377 3.60149 19.1898 3.24991 19.411 3.084C19.5295 2.99511 19.7922 2.80945 20.0549 2.92598Z" fill="#81AFC1"/>
</g>
<defs>
<clipPath id="clip0_1560_4522">
<rect width="24" height="24" fill="white"/>
</clipPath>
</defs>
</svg>
