<svg width="390" height="412" viewBox="0 0 390 412" fill="none" xmlns="http://www.w3.org/2000/svg">
<mask id="mask0_2930_5252" style="mask-type:alpha" maskUnits="userSpaceOnUse" x="0" y="83" width="390" height="114">
<path d="M0 83L39.5 84.1204L80.5 89L136.5 105.5L184.5 120L227.5 126L258 128.5H290H332H390V197H0V83Z" fill="#F3F4F6"/>
</mask>
<g mask="url(#mask0_2930_5252)">
<rect y="82" width="390" height="115" fill="#D9D9D9"/>
</g>
<mask id="mask1_2930_5252" style="mask-type:alpha" maskUnits="userSpaceOnUse" x="0" y="82" width="390" height="115">
<rect y="82" width="390" height="115" fill="#D9D9D9"/>
</mask>
<g mask="url(#mask1_2930_5252)">
<path fill-rule="evenodd" clip-rule="evenodd" d="M42.9986 85.9565H0V84H42.9986C54.8814 84 69.1676 86.7174 84.9936 90.7572C97.3527 93.912 110.706 97.8884 124.64 102.038C128.556 103.204 132.519 104.384 136.518 105.563C173.023 116.328 212.639 127.043 248.992 127.043C265.997 127.043 283.122 126.987 299.892 126.931C332.415 126.824 363.604 126.721 390 127.044L389.975 129C363.595 128.677 332.434 128.78 299.922 128.888C283.148 128.943 266.014 129 248.992 129C212.304 129 172.422 118.194 135.941 107.437C131.927 106.253 127.955 105.07 124.033 103.902C110.106 99.755 96.8048 95.7942 84.4887 92.6504C68.6976 88.6195 54.6151 85.9565 42.9986 85.9565Z" fill="#C2C4CF"/>
</g>
<mask id="mask2_2930_5252" style="mask-type:alpha" maskUnits="userSpaceOnUse" x="0" y="83" width="390" height="265">
<path d="M0 83L39.5 84L62 88.5L94 103.5L135 134.5L177 167L196.5 177.5L217 186L247.5 194.5L280.5 197.5H324H390V347.5H0V83Z" fill="url(#paint0_linear_2930_5252)"/>
</mask>
<g mask="url(#mask2_2930_5252)">
<rect y="75" width="390" height="273" fill="url(#paint1_linear_2930_5252)"/>
</g>
<mask id="mask3_2930_5252" style="mask-type:alpha" maskUnits="userSpaceOnUse" x="0" y="83" width="390" height="115">
<path fill-rule="evenodd" clip-rule="evenodd" d="M40.9358 85H0V83H41.0732L41.1412 83.0094C78.5401 88.1678 100.6 105.711 139.417 136.578C146.1 141.893 153.279 147.602 161.119 153.711C199.421 183.556 235.208 193.007 271.539 195.5H390V197.5H271.47L271.436 197.498C234.778 194.987 198.577 185.434 159.89 155.289C152.01 149.149 144.808 143.423 138.118 138.105C99.3008 107.249 77.7146 90.0904 40.9358 85Z" fill="url(#paint2_linear_2930_5252)"/>
</mask>
<g mask="url(#mask3_2930_5252)">
<rect y="72" width="390" height="151" fill="url(#paint3_linear_2930_5252)"/>
</g>
<mask id="mask4_2930_5252" style="mask-type:alpha" maskUnits="userSpaceOnUse" x="349" y="197" width="2" height="82">
<line x1="350" y1="198" x2="350" y2="278" stroke="#56D95E" stroke-opacity="0.5" stroke-width="2" stroke-linecap="round" stroke-dasharray="5 5"/>
</mask>
<g mask="url(#mask4_2930_5252)">
<rect x="348" y="191" width="4" height="88" fill="#D9D9D9"/>
<rect x="348" y="191" width="4" height="88" fill="#56D95E" fill-opacity="0.5"/>
</g>
<mask id="mask5_2930_5252" style="mask-type:alpha" maskUnits="userSpaceOnUse" x="245" y="194" width="2" height="85">
<line x1="246" y1="195" x2="246" y2="278" stroke="#DFE845" stroke-opacity="0.8" stroke-width="2" stroke-linecap="round" stroke-dasharray="5 5"/>
</mask>
<g mask="url(#mask5_2930_5252)">
<rect x="244" y="193" width="4" height="86" fill="#DFE845" fill-opacity="0.8"/>
</g>
<mask id="mask6_2930_5252" style="mask-type:alpha" maskUnits="userSpaceOnUse" x="141" y="140" width="2" height="139">
<line x1="142" y1="141" x2="142" y2="278" stroke="#F98E38" stroke-opacity="0.5" stroke-width="2" stroke-linecap="round" stroke-dasharray="5 5"/>
</mask>
<g mask="url(#mask6_2930_5252)">
<rect x="140" y="139" width="4" height="140" fill="#F98E38" fill-opacity="0.5"/>
</g>
<mask id="mask7_2930_5252" style="mask-type:alpha" maskUnits="userSpaceOnUse" x="37" y="88" width="2" height="191">
<line x1="38" y1="89" x2="38" y2="278" stroke="#F10B2E" stroke-opacity="0.3" stroke-width="2" stroke-linecap="round" stroke-dasharray="5 5"/>
</mask>
<g mask="url(#mask7_2930_5252)">
<rect x="36" y="88" width="4" height="191" fill="#F10B2E" fill-opacity="0.3"/>
</g>
<path d="M281 175C281 170.582 284.582 167 289 167H354C358.418 167 362 170.582 362 175V207C362 211.418 358.418 215 354 215H289C284.582 215 281 211.418 281 207V175Z" fill="#13D16A"/>
<path d="M312.407 187H310.592L308.087 179.5H309.879L311.507 184.352L313.127 179.5H314.934L316.554 184.352L318.182 179.5H319.974L317.469 187H315.654L314.027 182.125L312.407 187ZM320.79 179.5H322.62V187H320.79V179.5ZM321.72 178.532C321.45 178.532 321.223 178.445 321.038 178.27C320.853 178.09 320.76 177.865 320.76 177.595C320.76 177.33 320.853 177.107 321.038 176.927C321.223 176.747 321.448 176.657 321.713 176.657C321.978 176.657 322.2 176.747 322.38 176.927C322.565 177.107 322.658 177.33 322.658 177.595C322.658 177.865 322.568 178.09 322.388 178.27C322.208 178.445 321.985 178.532 321.72 178.532ZM328.143 181.33H326.688V187H324.858V181.33H323.748V179.5H324.858V177.145H326.688V179.5H328.143V181.33ZM336.069 182.26V187H334.239V182.74C334.239 182.445 334.167 182.177 334.022 181.937C333.877 181.692 333.682 181.5 333.437 181.36C333.197 181.215 332.929 181.142 332.634 181.142C332.339 181.142 332.069 181.215 331.824 181.36C331.584 181.5 331.392 181.692 331.247 181.937C331.107 182.177 331.037 182.445 331.037 182.74V187H329.207L329.199 175.75H331.029L331.037 180.167C331.292 179.897 331.597 179.685 331.952 179.53C332.307 179.37 332.689 179.29 333.099 179.29C333.644 179.29 334.142 179.425 334.592 179.695C335.042 179.96 335.399 180.317 335.664 180.767C335.934 181.212 336.069 181.71 336.069 182.26ZM300.586 205V194.5H306.789V196.33H302.416V198.46H306.069V200.29H302.416V205H300.586ZM307.142 197.5H308.972V205H307.142V197.5ZM308.072 196.532C307.802 196.532 307.574 196.445 307.389 196.27C307.204 196.09 307.112 195.865 307.112 195.595C307.112 195.33 307.204 195.107 307.389 194.927C307.574 194.747 307.799 194.657 308.064 194.657C308.329 194.657 308.552 194.747 308.732 194.927C308.917 195.107 309.009 195.33 309.009 195.595C309.009 195.865 308.919 196.09 308.739 196.27C308.559 196.445 308.337 196.532 308.072 196.532ZM314.494 199.33H313.039V205H311.209V199.33H310.099V197.5H311.209V195.145H313.039V197.5H314.494V199.33ZM319.72 205V202.457H315.25V200.62L319.293 194.5H321.55V200.627H322.435V202.457H321.55V205H319.72ZM317.373 200.62L319.72 200.627L319.713 196.997L317.373 200.62ZM323.937 205V197.5H325.767V198.167C326.022 197.897 326.327 197.685 326.682 197.53C327.037 197.37 327.419 197.29 327.829 197.29C328.349 197.29 328.827 197.412 329.262 197.657C329.702 197.902 330.052 198.23 330.312 198.64C330.577 198.23 330.927 197.902 331.362 197.657C331.797 197.412 332.274 197.29 332.794 197.29C333.344 197.29 333.842 197.425 334.287 197.695C334.737 197.96 335.094 198.317 335.359 198.767C335.629 199.212 335.764 199.71 335.764 200.26V205H333.934V200.747C333.934 200.457 333.862 200.192 333.717 199.952C333.577 199.707 333.387 199.512 333.147 199.367C332.912 199.217 332.647 199.142 332.352 199.142C332.057 199.142 331.789 199.215 331.549 199.36C331.314 199.5 331.124 199.69 330.979 199.93C330.834 200.17 330.762 200.442 330.762 200.747V205H328.932V200.747C328.932 200.442 328.862 200.17 328.722 199.93C328.582 199.69 328.392 199.5 328.152 199.36C327.912 199.215 327.644 199.142 327.349 199.142C327.059 199.142 326.794 199.217 326.554 199.367C326.314 199.512 326.122 199.707 325.977 199.952C325.837 200.192 325.767 200.457 325.767 200.747V205H323.937ZM340.12 205.195C339.43 205.195 338.8 205.017 338.23 204.662C337.665 204.307 337.213 203.83 336.873 203.23C336.538 202.63 336.37 201.967 336.37 201.242C336.37 200.697 336.468 200.187 336.663 199.712C336.858 199.232 337.125 198.812 337.465 198.452C337.81 198.087 338.21 197.802 338.665 197.597C339.12 197.392 339.605 197.29 340.12 197.29C340.705 197.29 341.24 197.415 341.725 197.665C342.215 197.91 342.63 198.247 342.97 198.677C343.31 199.107 343.558 199.597 343.713 200.147C343.868 200.697 343.903 201.272 343.818 201.872H338.335C338.405 202.152 338.52 202.405 338.68 202.63C338.84 202.85 339.043 203.027 339.288 203.162C339.533 203.292 339.81 203.36 340.12 203.365C340.44 203.37 340.73 203.295 340.99 203.14C341.255 202.98 341.475 202.765 341.65 202.495L343.518 202.93C343.213 203.595 342.758 204.14 342.153 204.565C341.548 204.985 340.87 205.195 340.12 205.195ZM338.275 200.5H341.965C341.91 200.2 341.793 199.93 341.613 199.69C341.438 199.445 341.22 199.25 340.96 199.105C340.7 198.96 340.42 198.887 340.12 198.887C339.82 198.887 339.543 198.96 339.288 199.105C339.033 199.245 338.815 199.437 338.635 199.682C338.46 199.922 338.34 200.195 338.275 200.5Z" fill="white"/>
<path d="M233 106C233 101.582 236.582 98 241 98H306C310.418 98 314 101.582 314 106V138C314 142.418 310.418 146 306 146H241C236.582 146 233 142.418 233 138V106Z" fill="#C2C4CF"/>
<path d="M254.178 118H252.363L249.858 110.5H251.65L253.278 115.352L254.898 110.5H256.705L258.325 115.352L259.953 110.5H261.745L259.24 118H257.425L255.798 113.125L254.178 118ZM262.562 110.5H264.392V118H262.562V110.5ZM263.492 109.532C263.222 109.532 262.994 109.445 262.809 109.27C262.624 109.09 262.532 108.865 262.532 108.595C262.532 108.33 262.624 108.107 262.809 107.927C262.994 107.747 263.219 107.657 263.484 107.657C263.749 107.657 263.972 107.747 264.152 107.927C264.337 108.107 264.429 108.33 264.429 108.595C264.429 108.865 264.339 109.09 264.159 109.27C263.979 109.445 263.757 109.532 263.492 109.532ZM269.914 112.33H268.459V118H266.629V112.33H265.519V110.5H266.629V108.145H268.459V110.5H269.914V112.33ZM277.84 113.26V118H276.01V113.74C276.01 113.445 275.938 113.177 275.793 112.937C275.648 112.692 275.453 112.5 275.208 112.36C274.968 112.215 274.7 112.142 274.405 112.142C274.11 112.142 273.84 112.215 273.595 112.36C273.355 112.5 273.163 112.692 273.018 112.937C272.878 113.177 272.808 113.445 272.808 113.74V118H270.978L270.97 106.75H272.8L272.808 111.167C273.063 110.897 273.368 110.685 273.723 110.53C274.078 110.37 274.46 110.29 274.87 110.29C275.415 110.29 275.913 110.425 276.363 110.695C276.813 110.96 277.17 111.317 277.435 111.767C277.705 112.212 277.84 112.71 277.84 113.26ZM282.188 118.195C281.498 118.195 280.868 118.017 280.298 117.662C279.733 117.307 279.281 116.832 278.941 116.237C278.606 115.637 278.438 114.975 278.438 114.25C278.438 113.7 278.536 113.187 278.731 112.712C278.926 112.232 279.193 111.812 279.533 111.452C279.878 111.087 280.278 110.802 280.733 110.597C281.188 110.392 281.673 110.29 282.188 110.29C282.878 110.29 283.506 110.467 284.071 110.822C284.641 111.177 285.093 111.655 285.428 112.255C285.768 112.855 285.938 113.52 285.938 114.25C285.938 114.795 285.841 115.305 285.646 115.78C285.451 116.255 285.181 116.675 284.836 117.04C284.496 117.4 284.098 117.682 283.643 117.887C283.193 118.093 282.708 118.195 282.188 118.195ZM282.188 116.365C282.553 116.365 282.881 116.267 283.171 116.073C283.461 115.877 283.688 115.62 283.853 115.3C284.023 114.98 284.108 114.63 284.108 114.25C284.108 113.86 284.021 113.505 283.846 113.185C283.676 112.86 283.443 112.602 283.148 112.412C282.858 112.217 282.538 112.12 282.188 112.12C281.828 112.12 281.503 112.217 281.213 112.412C280.923 112.607 280.693 112.867 280.523 113.192C280.353 113.517 280.268 113.87 280.268 114.25C280.268 114.645 280.356 115.002 280.531 115.322C280.706 115.642 280.938 115.897 281.228 116.087C281.523 116.272 281.843 116.365 282.188 116.365ZM286.345 115.225V110.5H288.175V114.745C288.175 115.04 288.247 115.31 288.392 115.555C288.537 115.795 288.73 115.987 288.97 116.132C289.215 116.272 289.482 116.342 289.772 116.342C290.072 116.342 290.342 116.272 290.582 116.132C290.822 115.987 291.015 115.795 291.16 115.555C291.305 115.31 291.377 115.04 291.377 114.745V110.5H293.207L293.215 118H291.385L291.377 117.317C291.117 117.587 290.81 117.802 290.455 117.962C290.1 118.118 289.72 118.195 289.315 118.195C288.77 118.195 288.272 118.063 287.822 117.797C287.372 117.527 287.012 117.17 286.742 116.725C286.477 116.275 286.345 115.775 286.345 115.225ZM298.436 112.33H296.981V118H295.151V112.33H294.041V110.5H295.151V108.145H296.981V110.5H298.436V112.33ZM252.586 136V125.5H258.789V127.33H254.416V129.46H258.069V131.29H254.416V136H252.586ZM259.142 128.5H260.972V136H259.142V128.5ZM260.072 127.532C259.802 127.532 259.574 127.445 259.389 127.27C259.204 127.09 259.112 126.865 259.112 126.595C259.112 126.33 259.204 126.107 259.389 125.927C259.574 125.747 259.799 125.657 260.064 125.657C260.329 125.657 260.552 125.747 260.732 125.927C260.917 126.107 261.009 126.33 261.009 126.595C261.009 126.865 260.919 127.09 260.739 127.27C260.559 127.445 260.337 127.532 260.072 127.532ZM266.494 130.33H265.039V136H263.209V130.33H262.099V128.5H263.209V126.145H265.039V128.5H266.494V130.33ZM271.72 136V133.457H267.25V131.62L271.293 125.5H273.55V131.627H274.435V133.457H273.55V136H271.72ZM269.373 131.62L271.72 131.627L271.713 127.997L269.373 131.62ZM275.937 136V128.5H277.767V129.167C278.022 128.897 278.327 128.685 278.682 128.53C279.037 128.37 279.419 128.29 279.829 128.29C280.349 128.29 280.827 128.412 281.262 128.657C281.702 128.902 282.052 129.23 282.312 129.64C282.577 129.23 282.927 128.902 283.362 128.657C283.797 128.412 284.274 128.29 284.794 128.29C285.344 128.29 285.842 128.425 286.287 128.695C286.737 128.96 287.094 129.317 287.359 129.767C287.629 130.212 287.764 130.71 287.764 131.26V136H285.934V131.747C285.934 131.457 285.862 131.192 285.717 130.952C285.577 130.707 285.387 130.512 285.147 130.367C284.912 130.217 284.647 130.142 284.352 130.142C284.057 130.142 283.789 130.215 283.549 130.36C283.314 130.5 283.124 130.69 282.979 130.93C282.834 131.17 282.762 131.442 282.762 131.747V136H280.932V131.747C280.932 131.442 280.862 131.17 280.722 130.93C280.582 130.69 280.392 130.5 280.152 130.36C279.912 130.215 279.644 130.142 279.349 130.142C279.059 130.142 278.794 130.217 278.554 130.367C278.314 130.512 278.122 130.707 277.977 130.952C277.837 131.192 277.767 131.457 277.767 131.747V136H275.937ZM292.12 136.195C291.43 136.195 290.8 136.017 290.23 135.662C289.665 135.307 289.213 134.83 288.873 134.23C288.538 133.63 288.37 132.967 288.37 132.242C288.37 131.697 288.468 131.187 288.663 130.712C288.858 130.232 289.125 129.812 289.465 129.452C289.81 129.087 290.21 128.802 290.665 128.597C291.12 128.392 291.605 128.29 292.12 128.29C292.705 128.29 293.24 128.415 293.725 128.665C294.215 128.91 294.63 129.247 294.97 129.677C295.31 130.107 295.558 130.597 295.713 131.147C295.868 131.697 295.903 132.272 295.818 132.872H290.335C290.405 133.152 290.52 133.405 290.68 133.63C290.84 133.85 291.043 134.027 291.288 134.162C291.533 134.292 291.81 134.36 292.12 134.365C292.44 134.37 292.73 134.295 292.99 134.14C293.255 133.98 293.475 133.765 293.65 133.495L295.518 133.93C295.213 134.595 294.758 135.14 294.153 135.565C293.548 135.985 292.87 136.195 292.12 136.195ZM290.275 131.5H293.965C293.91 131.2 293.793 130.93 293.613 130.69C293.438 130.445 293.22 130.25 292.96 130.105C292.7 129.96 292.42 129.887 292.12 129.887C291.82 129.887 291.543 129.96 291.288 130.105C291.033 130.245 290.815 130.437 290.635 130.682C290.46 130.922 290.34 131.195 290.275 131.5Z" fill="white"/>
<circle cx="38" cy="84" r="8" fill="#F10B2E"/>
<circle cx="38" cy="84" r="12" stroke="#F10B2E" stroke-opacity="0.16" stroke-width="8"/>
<path fill-rule="evenodd" clip-rule="evenodd" d="M20 7C15.5817 7 12 10.5817 12 15V47C12 51.4183 15.5817 55 20 55H30.1041L37.8333 64.5039L45.5626 55H97C101.418 55 105 51.4183 105 47V15C105 10.5817 101.418 7 97 7H20Z" fill="#D93A52"/>
<path d="M26.5518 25.5H28.7118L25.1043 31.2675V36H23.2743V31.2675L19.6668 25.5H21.8268L24.1893 29.2725L26.5518 25.5ZM31.4664 36.195C30.7764 36.195 30.1464 36.0175 29.5764 35.6625C29.0114 35.3075 28.5589 34.8325 28.2189 34.2375C27.8839 33.6375 27.7164 32.975 27.7164 32.25C27.7164 31.7 27.8139 31.1875 28.0089 30.7125C28.2039 30.2325 28.4714 29.8125 28.8114 29.4525C29.1564 29.0875 29.5564 28.8025 30.0114 28.5975C30.4664 28.3925 30.9514 28.29 31.4664 28.29C32.1564 28.29 32.7839 28.4675 33.3489 28.8225C33.9189 29.1775 34.3714 29.655 34.7064 30.255C35.0464 30.855 35.2164 31.52 35.2164 32.25C35.2164 32.795 35.1189 33.305 34.9239 33.78C34.7289 34.255 34.4589 34.675 34.1139 35.04C33.7739 35.4 33.3764 35.6825 32.9214 35.8875C32.4714 36.0925 31.9864 36.195 31.4664 36.195ZM31.4664 34.365C31.8314 34.365 32.1589 34.2675 32.4489 34.0725C32.7389 33.8775 32.9664 33.62 33.1314 33.3C33.3014 32.98 33.3864 32.63 33.3864 32.25C33.3864 31.86 33.2989 31.505 33.1239 31.185C32.9539 30.86 32.7214 30.6025 32.4264 30.4125C32.1364 30.2175 31.8164 30.12 31.4664 30.12C31.1064 30.12 30.7814 30.2175 30.4914 30.4125C30.2014 30.6075 29.9714 30.8675 29.8014 31.1925C29.6314 31.5175 29.5464 31.87 29.5464 32.25C29.5464 32.645 29.6339 33.0025 29.8089 33.3225C29.9839 33.6425 30.2164 33.8975 30.5064 34.0875C30.8014 34.2725 31.1214 34.365 31.4664 34.365ZM35.623 33.225V28.5H37.453V32.745C37.453 33.04 37.5255 33.31 37.6705 33.555C37.8155 33.795 38.008 33.9875 38.248 34.1325C38.493 34.2725 38.7605 34.3425 39.0505 34.3425C39.3505 34.3425 39.6205 34.2725 39.8605 34.1325C40.1005 33.9875 40.293 33.795 40.438 33.555C40.583 33.31 40.6555 33.04 40.6555 32.745V28.5H42.4855L42.493 36H40.663L40.6555 35.3175C40.3955 35.5875 40.088 35.8025 39.733 35.9625C39.378 36.1175 38.998 36.195 38.593 36.195C38.048 36.195 37.5505 36.0625 37.1005 35.7975C36.6505 35.5275 36.2905 35.17 36.0205 34.725C35.7555 34.275 35.623 33.775 35.623 33.225ZM43.7018 36L43.6943 28.5H45.5243L45.5318 29.1675C45.7868 28.8975 46.0918 28.685 46.4468 28.53C46.8018 28.37 47.1843 28.29 47.5943 28.29C47.8693 28.29 48.1443 28.33 48.4193 28.41L47.6993 30.255C47.5093 30.18 47.3193 30.1425 47.1293 30.1425C46.8343 30.1425 46.5643 30.215 46.3193 30.36C46.0793 30.5 45.8868 30.6925 45.7418 30.9375C45.6018 31.1775 45.5318 31.445 45.5318 31.74V36H43.7018ZM56.3393 36H54.5243L52.0193 28.5H53.8118L55.4393 33.3525L57.0593 28.5H58.8668L60.4868 33.3525L62.1143 28.5H63.9068L61.4018 36H59.5868L57.9593 31.125L56.3393 36ZM67.7301 36.195C67.0401 36.195 66.4101 36.0175 65.8401 35.6625C65.2751 35.3075 64.8226 34.83 64.4826 34.23C64.1476 33.63 63.9801 32.9675 63.9801 32.2425C63.9801 31.6975 64.0776 31.1875 64.2726 30.7125C64.4676 30.2325 64.7351 29.8125 65.0751 29.4525C65.4201 29.0875 65.8201 28.8025 66.2751 28.5975C66.7301 28.3925 67.2151 28.29 67.7301 28.29C68.3151 28.29 68.8501 28.415 69.3351 28.665C69.8251 28.91 70.2401 29.2475 70.5801 29.6775C70.9201 30.1075 71.1676 30.5975 71.3226 31.1475C71.4776 31.6975 71.5126 32.2725 71.4276 32.8725H65.9451C66.0151 33.1525 66.1301 33.405 66.2901 33.63C66.4501 33.85 66.6526 34.0275 66.8976 34.1625C67.1426 34.2925 67.4201 34.36 67.7301 34.365C68.0501 34.37 68.3401 34.295 68.6001 34.14C68.8651 33.98 69.0851 33.765 69.2601 33.495L71.1276 33.93C70.8226 34.595 70.3676 35.14 69.7626 35.565C69.1576 35.985 68.4801 36.195 67.7301 36.195ZM65.8851 31.5H69.5751C69.5201 31.2 69.4026 30.93 69.2226 30.69C69.0476 30.445 68.8301 30.25 68.5701 30.105C68.3101 29.96 68.0301 29.8875 67.7301 29.8875C67.4301 29.8875 67.1526 29.96 66.8976 30.105C66.6426 30.245 66.4251 30.4375 66.2451 30.6825C66.0701 30.9225 65.9501 31.195 65.8851 31.5ZM72.1867 28.5H74.0167V36H72.1867V28.5ZM73.1167 27.5325C72.8467 27.5325 72.6192 27.445 72.4342 27.27C72.2492 27.09 72.1567 26.865 72.1567 26.595C72.1567 26.33 72.2492 26.1075 72.4342 25.9275C72.6192 25.7475 72.8442 25.6575 73.1092 25.6575C73.3742 25.6575 73.5967 25.7475 73.7767 25.9275C73.9617 26.1075 74.0542 26.33 74.0542 26.595C74.0542 26.865 73.9642 27.09 73.7842 27.27C73.6042 27.445 73.3817 27.5325 73.1167 27.5325ZM80.9087 28.5H82.7387V36.1425C82.7387 36.6825 82.6287 37.1725 82.4087 37.6125C82.1887 38.0575 81.8887 38.4375 81.5087 38.7525C81.1287 39.0725 80.6937 39.3175 80.2037 39.4875C79.7137 39.6625 79.1987 39.75 78.6587 39.75C78.1337 39.75 77.6287 39.6425 77.1437 39.4275C76.6587 39.2125 76.2287 38.9175 75.8537 38.5425C75.4837 38.1725 75.2012 37.75 75.0062 37.275L76.6787 36.5175C76.7787 36.7925 76.9287 37.0325 77.1287 37.2375C77.3337 37.4475 77.5687 37.61 77.8337 37.725C78.0987 37.845 78.3737 37.905 78.6587 37.905C78.9487 37.905 79.2262 37.865 79.4912 37.785C79.7612 37.705 80.0037 37.5875 80.2187 37.4325C80.4337 37.2825 80.6012 37.0975 80.7212 36.8775C80.8462 36.6625 80.9087 36.4175 80.9087 36.1425V35.085C80.6737 35.415 80.3787 35.6825 80.0237 35.8875C79.6687 36.0925 79.2587 36.195 78.7937 36.195C78.2537 36.195 77.7487 36.0925 77.2787 35.8875C76.8087 35.6825 76.3937 35.4 76.0337 35.04C75.6787 34.675 75.3987 34.255 75.1937 33.78C74.9937 33.305 74.8937 32.795 74.8937 32.25C74.8937 31.705 74.9937 31.195 75.1937 30.72C75.3987 30.245 75.6787 29.8275 76.0337 29.4675C76.3937 29.1025 76.8087 28.8175 77.2787 28.6125C77.7487 28.4075 78.2537 28.305 78.7937 28.305C79.2587 28.305 79.6687 28.4075 80.0237 28.6125C80.3787 28.8125 80.6737 29.0775 80.9087 29.4075V28.5ZM78.8162 34.4325C79.2012 34.4325 79.5412 34.335 79.8362 34.14C80.1362 33.94 80.3712 33.675 80.5412 33.345C80.7112 33.01 80.7962 32.645 80.7962 32.25C80.7962 31.85 80.7087 31.485 80.5337 31.155C80.3637 30.825 80.1287 30.56 79.8287 30.36C79.5337 30.16 79.1962 30.06 78.8162 30.06C78.4412 30.06 78.0987 30.16 77.7887 30.36C77.4787 30.555 77.2312 30.8175 77.0462 31.1475C76.8612 31.4775 76.7687 31.845 76.7687 32.25C76.7687 32.655 76.8612 33.0225 77.0462 33.3525C77.2312 33.6825 77.4787 33.945 77.7887 34.14C78.0987 34.335 78.4412 34.4325 78.8162 34.4325ZM91.113 31.26V36H89.283V31.74C89.283 31.445 89.2105 31.1775 89.0655 30.9375C88.9205 30.6925 88.7255 30.5 88.4805 30.36C88.2405 30.215 87.973 30.1425 87.678 30.1425C87.383 30.1425 87.113 30.215 86.868 30.36C86.628 30.5 86.4355 30.6925 86.2905 30.9375C86.1505 31.1775 86.0805 31.445 86.0805 31.74V36H84.2505L84.243 24.75H86.073L86.0805 29.1675C86.3355 28.8975 86.6405 28.685 86.9955 28.53C87.3505 28.37 87.733 28.29 88.143 28.29C88.688 28.29 89.1855 28.425 89.6355 28.695C90.0855 28.96 90.443 29.3175 90.708 29.7675C90.978 30.2125 91.113 30.71 91.113 31.26ZM96.3272 30.33H94.8722V36H93.0422V30.33H91.9322V28.5H93.0422V26.145H94.8722V28.5H96.3272V30.33Z" fill="white"/>
<path d="M21.8575 303L19.3515 293.2H20.3595L22.4315 301.313L24.4965 293.2H25.3645L27.4365 301.313L29.5015 293.2H30.5095L28.0175 303H26.8555L24.9305 295.475L23.0055 303H21.8575ZM33.7714 303.182C33.1274 303.182 32.5394 303.016 32.0074 302.685C31.48 302.354 31.0577 301.91 30.7404 301.355C30.4277 300.795 30.2714 300.177 30.2714 299.5C30.2714 298.987 30.3624 298.508 30.5444 298.065C30.7264 297.617 30.976 297.225 31.2934 296.889C31.6154 296.548 31.9887 296.282 32.4134 296.091C32.838 295.9 33.2907 295.804 33.7714 295.804C34.2894 295.804 34.7654 295.907 35.1994 296.112C35.638 296.317 36.0137 296.604 36.3264 296.973C36.6437 297.342 36.8817 297.773 37.0404 298.268C37.2037 298.763 37.2714 299.297 37.2434 299.871H31.3074C31.3634 300.314 31.5034 300.711 31.7274 301.061C31.956 301.411 32.2454 301.689 32.5954 301.894C32.95 302.095 33.342 302.197 33.7714 302.202C34.238 302.202 34.658 302.081 35.0314 301.838C35.4094 301.595 35.7127 301.262 35.9414 300.837L36.9354 301.068C36.6554 301.689 36.233 302.197 35.6684 302.594C35.1037 302.986 34.4714 303.182 33.7714 303.182ZM31.2794 299.08H36.2564C36.2237 298.646 36.0907 298.249 35.8574 297.89C35.6287 297.526 35.3324 297.237 34.9684 297.022C34.6044 296.803 34.2054 296.693 33.7714 296.693C33.3374 296.693 32.9407 296.8 32.5814 297.015C32.222 297.225 31.928 297.512 31.6994 297.876C31.4707 298.235 31.3307 298.637 31.2794 299.08ZM41.155 303.182C40.511 303.182 39.923 303.016 39.391 302.685C38.8636 302.354 38.4413 301.91 38.124 301.355C37.8113 300.795 37.655 300.177 37.655 299.5C37.655 298.987 37.746 298.508 37.928 298.065C38.11 297.617 38.3596 297.225 38.677 296.889C38.999 296.548 39.3723 296.282 39.797 296.091C40.2216 295.9 40.6743 295.804 41.155 295.804C41.673 295.804 42.149 295.907 42.583 296.112C43.0216 296.317 43.3973 296.604 43.71 296.973C44.0273 297.342 44.2653 297.773 44.424 298.268C44.5873 298.763 44.655 299.297 44.627 299.871H38.691C38.747 300.314 38.887 300.711 39.111 301.061C39.3396 301.411 39.629 301.689 39.979 301.894C40.3336 302.095 40.7256 302.197 41.155 302.202C41.6216 302.202 42.0416 302.081 42.415 301.838C42.793 301.595 43.0963 301.262 43.325 300.837L44.319 301.068C44.039 301.689 43.6166 302.197 43.052 302.594C42.4873 302.986 41.855 303.182 41.155 303.182ZM38.663 299.08H43.64C43.6073 298.646 43.4743 298.249 43.241 297.89C43.0123 297.526 42.716 297.237 42.352 297.022C41.988 296.803 41.589 296.693 41.155 296.693C40.721 296.693 40.3243 296.8 39.965 297.015C39.6056 297.225 39.3116 297.512 39.083 297.876C38.8543 298.235 38.7143 298.637 38.663 299.08ZM50.9392 303H49.8122L47.8522 299.619L46.4522 301.292V303H45.4722V292.5H46.4522V299.766L49.6092 296H50.8902L48.5172 298.821L50.9392 303ZM55.8825 303V294.18H54.8325L55.1125 293.2H56.8625V303H55.8825Z" fill="#7A7A7A"/>
<path d="M123.896 303L121.39 293.2H122.398L124.47 301.313L126.535 293.2H127.403L129.475 301.313L131.54 293.2H132.548L130.056 303H128.894L126.969 295.475L125.044 303H123.896ZM135.809 303.182C135.165 303.182 134.577 303.016 134.045 302.685C133.518 302.354 133.096 301.91 132.778 301.355C132.466 300.795 132.309 300.177 132.309 299.5C132.309 298.987 132.4 298.508 132.582 298.065C132.764 297.617 133.014 297.225 133.331 296.889C133.653 296.548 134.027 296.282 134.451 296.091C134.876 295.9 135.329 295.804 135.809 295.804C136.327 295.804 136.803 295.907 137.237 296.112C137.676 296.317 138.052 296.604 138.364 296.973C138.682 297.342 138.92 297.773 139.078 298.268C139.242 298.763 139.309 299.297 139.281 299.871H133.345C133.401 300.314 133.541 300.711 133.765 301.061C133.994 301.411 134.283 301.689 134.633 301.894C134.988 302.095 135.38 302.197 135.809 302.202C136.276 302.202 136.696 302.081 137.069 301.838C137.447 301.595 137.751 301.262 137.979 300.837L138.973 301.068C138.693 301.689 138.271 302.197 137.706 302.594C137.142 302.986 136.509 303.182 135.809 303.182ZM133.317 299.08H138.294C138.262 298.646 138.129 298.249 137.895 297.89C137.667 297.526 137.37 297.237 137.006 297.022C136.642 296.803 136.243 296.693 135.809 296.693C135.375 296.693 134.979 296.8 134.619 297.015C134.26 297.225 133.966 297.512 133.737 297.876C133.509 298.235 133.369 298.637 133.317 299.08ZM143.193 303.182C142.549 303.182 141.961 303.016 141.429 302.685C140.902 302.354 140.479 301.91 140.162 301.355C139.849 300.795 139.693 300.177 139.693 299.5C139.693 298.987 139.784 298.508 139.966 298.065C140.148 297.617 140.398 297.225 140.715 296.889C141.037 296.548 141.41 296.282 141.835 296.091C142.26 295.9 142.712 295.804 143.193 295.804C143.711 295.804 144.187 295.907 144.621 296.112C145.06 296.317 145.435 296.604 145.748 296.973C146.065 297.342 146.303 297.773 146.462 298.268C146.625 298.763 146.693 299.297 146.665 299.871H140.729C140.785 300.314 140.925 300.711 141.149 301.061C141.378 301.411 141.667 301.689 142.017 301.894C142.372 302.095 142.764 302.197 143.193 302.202C143.66 302.202 144.08 302.081 144.453 301.838C144.831 301.595 145.134 301.262 145.363 300.837L146.357 301.068C146.077 301.689 145.655 302.197 145.09 302.594C144.525 302.986 143.893 303.182 143.193 303.182ZM140.701 299.08H145.678C145.645 298.646 145.512 298.249 145.279 297.89C145.05 297.526 144.754 297.237 144.39 297.022C144.026 296.803 143.627 296.693 143.193 296.693C142.759 296.693 142.362 296.8 142.003 297.015C141.644 297.225 141.35 297.512 141.121 297.876C140.892 298.235 140.752 298.637 140.701 299.08ZM152.977 303H151.85L149.89 299.619L148.49 301.292V303H147.51V292.5H148.49V299.766L151.647 296H152.928L150.555 298.821L152.977 303ZM156.871 303V302.132C157.253 301.777 157.673 301.39 158.131 300.97C158.588 300.545 159.041 300.109 159.489 299.661C159.941 299.208 160.354 298.763 160.728 298.324C161.101 297.881 161.4 297.463 161.624 297.071C161.852 296.674 161.967 296.324 161.967 296.021C161.967 295.652 161.876 295.316 161.694 295.013C161.516 294.705 161.276 294.46 160.973 294.278C160.674 294.091 160.34 293.998 159.972 293.998C159.603 293.998 159.265 294.091 158.957 294.278C158.653 294.46 158.411 294.705 158.229 295.013C158.047 295.316 157.956 295.652 157.956 296.021H156.976C156.976 295.461 157.111 294.955 157.382 294.502C157.657 294.049 158.021 293.69 158.474 293.424C158.926 293.153 159.426 293.018 159.972 293.018C160.518 293.018 161.015 293.153 161.463 293.424C161.915 293.695 162.275 294.056 162.541 294.509C162.811 294.962 162.947 295.466 162.947 296.021C162.947 296.352 162.858 296.716 162.681 297.113C162.508 297.505 162.272 297.913 161.974 298.338C161.675 298.758 161.339 299.183 160.966 299.612C160.592 300.041 160.203 300.461 159.797 300.872C159.391 301.278 158.996 301.661 158.614 302.02H163.094V303H156.871Z" fill="#7A7A7A"/>
<path d="M228.272 303L225.766 293.2H226.774L228.846 301.313L230.911 293.2H231.779L233.851 301.313L235.916 293.2H236.924L234.432 303H233.27L231.345 295.475L229.42 303H228.272ZM240.185 303.182C239.541 303.182 238.953 303.016 238.421 302.685C237.894 302.354 237.472 301.91 237.154 301.355C236.842 300.795 236.685 300.177 236.685 299.5C236.685 298.987 236.776 298.508 236.958 298.065C237.14 297.617 237.39 297.225 237.707 296.889C238.029 296.548 238.403 296.282 238.827 296.091C239.252 295.9 239.705 295.804 240.185 295.804C240.703 295.804 241.179 295.907 241.613 296.112C242.052 296.317 242.428 296.604 242.74 296.973C243.058 297.342 243.296 297.773 243.454 298.268C243.618 298.763 243.685 299.297 243.657 299.871H237.721C237.777 300.314 237.917 300.711 238.141 301.061C238.37 301.411 238.659 301.689 239.009 301.894C239.364 302.095 239.756 302.197 240.185 302.202C240.652 302.202 241.072 302.081 241.445 301.838C241.823 301.595 242.127 301.262 242.355 300.837L243.349 301.068C243.069 301.689 242.647 302.197 242.082 302.594C241.518 302.986 240.885 303.182 240.185 303.182ZM237.693 299.08H242.67C242.638 298.646 242.505 298.249 242.271 297.89C242.043 297.526 241.746 297.237 241.382 297.022C241.018 296.803 240.619 296.693 240.185 296.693C239.751 296.693 239.355 296.8 238.995 297.015C238.636 297.225 238.342 297.512 238.113 297.876C237.885 298.235 237.745 298.637 237.693 299.08ZM247.569 303.182C246.925 303.182 246.337 303.016 245.805 302.685C245.278 302.354 244.855 301.91 244.538 301.355C244.225 300.795 244.069 300.177 244.069 299.5C244.069 298.987 244.16 298.508 244.342 298.065C244.524 297.617 244.774 297.225 245.091 296.889C245.413 296.548 245.786 296.282 246.211 296.091C246.636 295.9 247.088 295.804 247.569 295.804C248.087 295.804 248.563 295.907 248.997 296.112C249.436 296.317 249.811 296.604 250.124 296.973C250.441 297.342 250.679 297.773 250.838 298.268C251.001 298.763 251.069 299.297 251.041 299.871H245.105C245.161 300.314 245.301 300.711 245.525 301.061C245.754 301.411 246.043 301.689 246.393 301.894C246.748 302.095 247.14 302.197 247.569 302.202C248.036 302.202 248.456 302.081 248.829 301.838C249.207 301.595 249.51 301.262 249.739 300.837L250.733 301.068C250.453 301.689 250.031 302.197 249.466 302.594C248.901 302.986 248.269 303.182 247.569 303.182ZM245.077 299.08H250.054C250.021 298.646 249.888 298.249 249.655 297.89C249.426 297.526 249.13 297.237 248.766 297.022C248.402 296.803 248.003 296.693 247.569 296.693C247.135 296.693 246.738 296.8 246.379 297.015C246.02 297.225 245.726 297.512 245.497 297.876C245.268 298.235 245.128 298.637 245.077 299.08ZM257.353 303H256.226L254.266 299.619L252.866 301.292V303H251.886V292.5H252.866V299.766L256.023 296H257.304L254.931 298.821L257.353 303ZM264.124 303.182C263.526 303.182 263.001 303.051 262.549 302.79C262.096 302.524 261.741 302.169 261.485 301.726C261.233 301.283 261.107 300.793 261.107 300.256H262.087C262.087 300.611 262.168 300.937 262.332 301.236C262.5 301.53 262.735 301.766 263.039 301.943C263.342 302.116 263.704 302.202 264.124 302.202C264.478 302.202 264.81 302.116 265.118 301.943C265.43 301.766 265.682 301.53 265.874 301.236C266.07 300.937 266.168 300.611 266.168 300.256C266.168 299.813 266.056 299.444 265.832 299.15C265.608 298.851 265.3 298.63 264.908 298.485C264.516 298.336 264.068 298.261 263.564 298.261V297.449C264.259 297.449 264.817 297.302 265.237 297.008C265.661 296.709 265.874 296.273 265.874 295.699C265.874 295.386 265.787 295.102 265.615 294.845C265.447 294.588 265.225 294.383 264.95 294.229C264.679 294.07 264.387 293.991 264.075 293.991C263.762 293.991 263.461 294.07 263.172 294.229C262.887 294.383 262.654 294.588 262.472 294.845C262.294 295.102 262.206 295.386 262.206 295.699H261.226C261.226 295.33 261.303 294.985 261.457 294.663C261.611 294.336 261.821 294.049 262.087 293.802C262.353 293.555 262.656 293.361 262.997 293.221C263.337 293.081 263.694 293.011 264.068 293.011C264.558 293.011 265.013 293.132 265.433 293.375C265.857 293.618 266.2 293.942 266.462 294.348C266.723 294.754 266.854 295.204 266.854 295.699C266.854 296.18 266.73 296.614 266.483 297.001C266.235 297.388 265.902 297.661 265.482 297.82C265.846 297.941 266.151 298.126 266.399 298.373C266.646 298.616 266.833 298.898 266.959 299.22C267.085 299.542 267.148 299.887 267.148 300.256C267.148 300.793 267.008 301.283 266.728 301.726C266.448 302.169 266.077 302.524 265.615 302.79C265.157 303.051 264.66 303.182 264.124 303.182Z" fill="#7A7A7A"/>
<path d="M331.889 303L329.383 293.2H330.391L332.463 301.313L334.528 293.2H335.396L337.468 301.313L339.533 293.2H340.541L338.049 303H336.887L334.962 295.475L333.037 303H331.889ZM343.803 303.182C343.159 303.182 342.571 303.016 342.039 302.685C341.511 302.354 341.089 301.91 340.772 301.355C340.459 300.795 340.303 300.177 340.303 299.5C340.303 298.987 340.394 298.508 340.576 298.065C340.758 297.617 341.007 297.225 341.325 296.889C341.647 296.548 342.02 296.282 342.445 296.091C342.869 295.9 343.322 295.804 343.803 295.804C344.321 295.804 344.797 295.907 345.231 296.112C345.669 296.317 346.045 296.604 346.358 296.973C346.675 297.342 346.913 297.773 347.072 298.268C347.235 298.763 347.303 299.297 347.275 299.871H341.339C341.395 300.314 341.535 300.711 341.759 301.061C341.987 301.411 342.277 301.689 342.627 301.894C342.981 302.095 343.373 302.197 343.803 302.202C344.269 302.202 344.689 302.081 345.063 301.838C345.441 301.595 345.744 301.262 345.973 300.837L346.967 301.068C346.687 301.689 346.264 302.197 345.7 302.594C345.135 302.986 344.503 303.182 343.803 303.182ZM341.311 299.08H346.288C346.255 298.646 346.122 298.249 345.889 297.89C345.66 297.526 345.364 297.237 345 297.022C344.636 296.803 344.237 296.693 343.803 296.693C343.369 296.693 342.972 296.8 342.613 297.015C342.253 297.225 341.959 297.512 341.731 297.876C341.502 298.235 341.362 298.637 341.311 299.08ZM351.186 303.182C350.542 303.182 349.954 303.016 349.422 302.685C348.895 302.354 348.473 301.91 348.155 301.355C347.843 300.795 347.686 300.177 347.686 299.5C347.686 298.987 347.777 298.508 347.959 298.065C348.141 297.617 348.391 297.225 348.708 296.889C349.03 296.548 349.404 296.282 349.828 296.091C350.253 295.9 350.706 295.804 351.186 295.804C351.704 295.804 352.18 295.907 352.614 296.112C353.053 296.317 353.429 296.604 353.741 296.973C354.059 297.342 354.297 297.773 354.455 298.268C354.619 298.763 354.686 299.297 354.658 299.871H348.722C348.778 300.314 348.918 300.711 349.142 301.061C349.371 301.411 349.66 301.689 350.01 301.894C350.365 302.095 350.757 302.197 351.186 302.202C351.653 302.202 352.073 302.081 352.446 301.838C352.824 301.595 353.128 301.262 353.356 300.837L354.35 301.068C354.07 301.689 353.648 302.197 353.083 302.594C352.519 302.986 351.886 303.182 351.186 303.182ZM348.694 299.08H353.671C353.639 298.646 353.506 298.249 353.272 297.89C353.044 297.526 352.747 297.237 352.383 297.022C352.019 296.803 351.62 296.693 351.186 296.693C350.752 296.693 350.356 296.8 349.996 297.015C349.637 297.225 349.343 297.512 349.114 297.876C348.886 298.235 348.746 298.637 348.694 299.08ZM360.97 303H359.843L357.883 299.619L356.483 301.292V303H355.503V292.5H356.483V299.766L359.64 296H360.921L358.548 298.821L360.97 303ZM369.092 303V300.249H364.864V299.255L368.84 293.2H370.072V299.269H371.101V300.249H370.072V303H369.092ZM366.026 299.255L369.092 299.269L369.071 294.6L366.026 299.255Z" fill="#7A7A7A"/>
<defs>
<linearGradient id="paint0_linear_2930_5252" x1="160.5" y1="75" x2="164.823" y2="317.45" gradientUnits="userSpaceOnUse">
<stop stop-color="#FEF1CD"/>
<stop offset="1" stop-color="white"/>
</linearGradient>
<linearGradient id="paint1_linear_2930_5252" x1="160.5" y1="66.7429" x2="165.105" y2="316.979" gradientUnits="userSpaceOnUse">
<stop stop-color="#FEF1CD"/>
<stop offset="1" stop-color="white"/>
</linearGradient>
<linearGradient id="paint2_linear_2930_5252" x1="23.9176" y1="165.822" x2="419.115" y2="210.208" gradientUnits="userSpaceOnUse">
<stop stop-color="#F10B2E"/>
<stop offset="0.496031" stop-color="#FFEC40"/>
<stop offset="1" stop-color="#13D16A"/>
</linearGradient>
<linearGradient id="paint3_linear_2930_5252" x1="23.9176" y1="181.823" x2="421.318" y2="215.076" gradientUnits="userSpaceOnUse">
<stop stop-color="#F10B2E"/>
<stop offset="0.496031" stop-color="#FFEC40"/>
<stop offset="1" stop-color="#13D16A"/>
</linearGradient>
</defs>
</svg>
