<svg width="180" height="180" viewBox="0 0 180 180" fill="none" xmlns="http://www.w3.org/2000/svg">
<rect width="180" height="180" fill="white"/>
<path d="M133.921 42.1929H62.0345C53.8701 42.1929 47.2515 48.8266 47.2515 57.0097C47.2515 65.1928 53.8701 71.8265 62.0345 71.8265H133.921C142.085 71.8265 148.704 65.1928 148.704 57.0097C148.704 48.8266 142.085 42.1929 133.921 42.1929Z" fill="#11E372"/>
<path d="M93.3362 79.3784H55.0741C46.9096 79.3784 40.291 86.0121 40.291 94.1952C40.291 102.378 46.9096 109.012 55.0741 109.012H93.3362C101.501 109.012 108.119 102.378 108.119 94.1952C108.119 86.0121 101.501 79.3784 93.3362 79.3784Z" fill="#11E372"/>
<path d="M49.8628 116.567H49.2831C41.1186 116.567 34.5 123.201 34.5 131.384C34.5 139.567 41.1186 146.2 49.2831 146.2H49.8628C58.0272 146.2 64.6458 139.567 64.6458 131.384C64.6458 123.201 58.0272 116.567 49.8628 116.567Z" fill="#11E372"/>
</svg>
