<svg width="390" height="469" viewBox="0 0 390 469" fill="none" xmlns="http://www.w3.org/2000/svg">
<g clip-path="url(#clip0_2934_3843)">
<path opacity="0.38" d="M1 161C102.325 168.5 173.202 325 290 325" stroke="#A1A1A1" stroke-width="2" stroke-dasharray="6 6"/>
<path d="M-0.5 161L15 162.5L29 165.5L49 178.5L68 198L95.199 232.256L110 251.5L127.226 269.889L153.533 294.977L174 309L191 318L208.818 324.08L245.801 325.581H296.891H367.808H389.5V442.308L367.808 443H296.891H-0.5V161Z" fill="url(#paint0_linear_2934_3843)"/>
<path d="M0 161C28 161 46.4953 166.914 86.5 221.5C140 294.5 186.5 325 225.5 325.5" stroke="url(#paint1_linear_2934_3843)" stroke-width="2"/>
<path d="M38.5971 124.504L41.4271 119.604C40.7538 119.731 40.0971 119.704 39.4571 119.524C38.8238 119.337 38.2538 119.034 37.7471 118.614C37.2404 118.187 36.8371 117.671 36.5371 117.064C36.2371 116.457 36.0871 115.791 36.0871 115.064C36.0871 114.404 36.2104 113.784 36.4571 113.204C36.7104 112.617 37.0571 112.104 37.4971 111.664C37.9371 111.217 38.4471 110.871 39.0271 110.624C39.6138 110.371 40.2404 110.244 40.9071 110.244C41.7804 110.244 42.5804 110.461 43.3071 110.894C44.0338 111.327 44.6138 111.911 45.0471 112.644C45.4804 113.371 45.6971 114.177 45.6971 115.064C45.6971 115.524 45.6404 115.944 45.5271 116.324C45.4204 116.704 45.2504 117.104 45.0171 117.524L41.0071 124.504H38.5971ZM40.8871 117.794C41.4204 117.794 41.8938 117.667 42.3071 117.414C42.7204 117.154 43.0438 116.817 43.2771 116.404C43.5171 115.984 43.6371 115.534 43.6371 115.054C43.6371 114.534 43.5104 114.067 43.2571 113.654C43.0038 113.241 42.6671 112.914 42.2471 112.674C41.8338 112.434 41.3871 112.314 40.9071 112.314C40.3738 112.314 39.9004 112.444 39.4871 112.704C39.0738 112.964 38.7471 113.304 38.5071 113.724C38.2671 114.137 38.1471 114.581 38.1471 115.054C38.1471 115.554 38.2671 116.014 38.5071 116.434C38.7538 116.847 39.0838 117.177 39.4971 117.424C39.9104 117.671 40.3738 117.794 40.8871 117.794ZM52.7779 124.504V120.924H46.7879V118.834L52.2779 110.504H54.8579V118.844H56.1379V120.924H54.8579V124.504H52.7779ZM49.2079 118.834L52.7779 118.844L52.7579 113.374L49.2079 118.834ZM66.7855 124.504H64.3855L61.9255 120.264L60.3155 122.184V124.504H58.2355V109.504H60.3155V118.954L64.0355 114.504H66.7555L63.3455 118.574L66.7855 124.504ZM75.233 114.504H77.313V124.764C77.313 125.451 77.1664 126.084 76.873 126.664C76.5864 127.244 76.1964 127.744 75.703 128.164C75.2097 128.591 74.643 128.921 74.003 129.154C73.3697 129.387 72.7064 129.504 72.013 129.504C71.313 129.504 70.6397 129.354 69.993 129.054C69.3464 128.761 68.7764 128.361 68.283 127.854C67.7964 127.347 67.433 126.774 67.193 126.134L69.103 125.274C69.2364 125.687 69.4497 126.054 69.743 126.374C70.043 126.694 70.3897 126.947 70.783 127.134C71.183 127.321 71.593 127.414 72.013 127.414C72.4264 127.414 72.823 127.347 73.203 127.214C73.5897 127.087 73.933 126.907 74.233 126.674C74.5397 126.441 74.783 126.161 74.963 125.834C75.143 125.507 75.233 125.151 75.233 124.764V123.074C74.9064 123.581 74.4864 123.991 73.973 124.304C73.4597 124.611 72.863 124.764 72.183 124.764C71.4764 124.764 70.8097 124.627 70.183 124.354C69.5564 124.081 69.0064 123.704 68.533 123.224C68.0597 122.737 67.6897 122.177 67.423 121.544C67.1564 120.911 67.023 120.231 67.023 119.504C67.023 118.777 67.1564 118.097 67.423 117.464C67.6897 116.824 68.0597 116.264 68.533 115.784C69.0064 115.297 69.5564 114.917 70.183 114.644C70.8097 114.371 71.4764 114.234 72.183 114.234C72.863 114.234 73.4597 114.391 73.973 114.704C74.4864 115.011 74.9064 115.421 75.233 115.934V114.504ZM72.203 122.754C72.783 122.754 73.2897 122.607 73.723 122.314C74.1564 122.014 74.493 121.617 74.733 121.124C74.973 120.631 75.093 120.091 75.093 119.504C75.093 118.904 74.9697 118.361 74.723 117.874C74.483 117.381 74.1464 116.987 73.713 116.694C73.2797 116.394 72.7764 116.244 72.203 116.244C71.643 116.244 71.1297 116.391 70.663 116.684C70.203 116.977 69.8364 117.371 69.563 117.864C69.2897 118.357 69.153 118.904 69.153 119.504C69.153 120.104 69.2897 120.651 69.563 121.144C69.843 121.637 70.213 122.031 70.673 122.324C71.1397 122.611 71.6497 122.754 72.203 122.754Z" fill="white"/>
<path fill-rule="evenodd" clip-rule="evenodd" d="M42 183.496C42.5523 183.496 43 183.944 43 184.496V186.983C43 187.535 42.5523 187.983 42 187.983C41.4477 187.983 41 187.535 41 186.983V184.496C41 183.944 41.4477 183.496 42 183.496ZM42 190.957C42.5523 190.957 43 191.404 43 191.957V196.93C43 197.483 42.5523 197.93 42 197.93C41.4477 197.93 41 197.483 41 196.93V191.957C41 191.404 41.4477 190.957 42 190.957ZM42 200.904C42.5523 200.904 43 201.352 43 201.904V206.878C43 207.43 42.5523 207.878 42 207.878C41.4477 207.878 41 207.43 41 206.878V201.904C41 201.352 41.4477 200.904 42 200.904ZM42 210.851C42.5523 210.851 43 211.299 43 211.851V216.825C43 217.377 42.5523 217.825 42 217.825C41.4477 217.825 41 217.377 41 216.825V211.851C41 211.299 41.4477 210.851 42 210.851ZM42 220.799C42.5523 220.799 43 221.246 43 221.799V226.772C43 227.325 42.5523 227.772 42 227.772C41.4477 227.772 41 227.325 41 226.772V221.799C41 221.246 41.4477 220.799 42 220.799ZM42 230.746C42.5523 230.746 43 231.194 43 231.746V236.72C43 237.272 42.5523 237.72 42 237.72C41.4477 237.72 41 237.272 41 236.72V231.746C41 231.194 41.4477 230.746 42 230.746ZM42 240.693C42.5523 240.693 43 241.141 43 241.693V246.667C43 247.219 42.5523 247.667 42 247.667C41.4477 247.667 41 247.219 41 246.667L41 241.693C41 241.141 41.4477 240.693 42 240.693ZM42 250.641C42.5523 250.641 43 251.089 43 251.641V256.615C43 257.167 42.5523 257.615 42 257.615C41.4477 257.615 41 257.167 41 256.615V251.641C41 251.089 41.4477 250.641 42 250.641ZM42 260.588C42.5523 260.588 43 261.036 43 261.588V266.562C43 267.114 42.5523 267.562 42 267.562C41.4477 267.562 41 267.114 41 266.562V261.588C41 261.036 41.4477 260.588 42 260.588ZM42 270.536C42.5523 270.536 43 270.983 43 271.536V276.509C43 277.062 42.5523 277.509 42 277.509C41.4477 277.509 41 277.062 41 276.509V271.536C41 270.983 41.4477 270.536 42 270.536ZM42 280.483C42.5523 280.483 43 280.931 43 281.483V286.457C43 287.009 42.5523 287.457 42 287.457C41.4477 287.457 41 287.009 41 286.457V281.483C41 280.931 41.4477 280.483 42 280.483ZM42 290.43C42.5523 290.43 43 290.878 43 291.43V296.404C43 296.956 42.5523 297.404 42 297.404C41.4477 297.404 41 296.956 41 296.404V291.43C41 290.878 41.4477 290.43 42 290.43ZM42 300.378C42.5523 300.378 43 300.825 43 301.378V306.351C43 306.904 42.5523 307.351 42 307.351C41.4477 307.351 41 306.904 41 306.351V301.378C41 300.825 41.4477 300.378 42 300.378ZM42 310.325C42.5523 310.325 43 310.773 43 311.325V316.299C43 316.851 42.5523 317.299 42 317.299C41.4477 317.299 41 316.851 41 316.299V311.325C41 310.773 41.4477 310.325 42 310.325ZM42 320.272C42.5523 320.272 43 320.72 43 321.272V326.246C43 326.798 42.5523 327.246 42 327.246C41.4477 327.246 41 326.798 41 326.246V321.272C41 320.72 41.4477 320.272 42 320.272ZM42 330.22C42.5523 330.22 43 330.668 43 331.22V336.193C43 336.746 42.5523 337.193 42 337.193C41.4477 337.193 41 336.746 41 336.193V331.22C41 330.668 41.4477 330.22 42 330.22ZM42 340.167C42.5523 340.167 43 340.615 43 341.167V346.141C43 346.693 42.5523 347.141 42 347.141C41.4477 347.141 41 346.693 41 346.141V341.167C41 340.615 41.4477 340.167 42 340.167ZM42 350.115C42.5523 350.115 43 350.562 43 351.115V356.088C43 356.64 42.5523 357.088 42 357.088C41.4477 357.088 41 356.64 41 356.088L41 351.115C41 350.562 41.4477 350.115 42 350.115ZM42 360.062C42.5523 360.062 43 360.51 43 361.062V366.036C43 366.588 42.5523 367.036 42 367.036C41.4477 367.036 41 366.588 41 366.036V361.062C41 360.51 41.4477 360.062 42 360.062ZM42 370.009C42.5523 370.009 43 370.457 43 371.009V373.496C43 374.048 42.5523 374.496 42 374.496C41.4477 374.496 41 374.048 41 373.496V371.009C41 370.457 41.4477 370.009 42 370.009Z" fill="#F10B2E" fill-opacity="0.3"/>
<path fill-rule="evenodd" clip-rule="evenodd" d="M391 326H226V324H391V326Z" fill="url(#paint2_linear_2934_3843)"/>
<circle cx="42" cy="173" r="8" fill="#F10B2E"/>
<circle cx="42" cy="173" r="12" stroke="#F10B2E" stroke-opacity="0.16" stroke-width="8"/>
<path fill-rule="evenodd" clip-rule="evenodd" d="M289 326H225V324H289V326Z" fill="#AFE34E" fill-opacity="0.3"/>
<rect x="227" y="326" width="62" height="48" fill="#AFE34E" fill-opacity="0.3"/>
<line x1="290" y1="333.496" x2="290" y2="372.505" stroke="#A1A1A1" stroke-opacity="0.5" stroke-width="2" stroke-linecap="round" stroke-dasharray="5 5"/>
<circle cx="290" cy="324.496" r="8" fill="#A1A1A1"/>
<circle cx="290" cy="324.496" r="12" stroke="#A1A1A1" stroke-opacity="0.16" stroke-width="8"/>
<circle cx="290" cy="324.496" r="8" fill="#A1A1A1"/>
<circle cx="290" cy="324.496" r="12" stroke="#A1A1A1" stroke-opacity="0.16" stroke-width="8"/>
<line x1="226" y1="333.496" x2="226" y2="372.505" stroke="#13D16A" stroke-opacity="0.5" stroke-width="2" stroke-linecap="round" stroke-dasharray="5 5"/>
<circle cx="226" cy="324.496" r="8" fill="#13D16A"/>
<circle cx="226" cy="324.496" r="12" stroke="#13D16A" stroke-opacity="0.16" stroke-width="8"/>
</g>
<defs>
<linearGradient id="paint0_linear_2934_3843" x1="123.532" y1="160.502" x2="133.238" y2="443.313" gradientUnits="userSpaceOnUse">
<stop stop-color="#FEF1CD"/>
<stop offset="1" stop-color="white"/>
</linearGradient>
<linearGradient id="paint1_linear_2934_3843" x1="23.2416" y1="281.161" x2="327.212" y2="299.027" gradientUnits="userSpaceOnUse">
<stop stop-color="#F10B2E"/>
<stop offset="0.496031" stop-color="#FFEC40"/>
<stop offset="1" stop-color="#13D16A"/>
</linearGradient>
<linearGradient id="paint2_linear_2934_3843" x1="226" y1="325" x2="391" y2="325" gradientUnits="userSpaceOnUse">
<stop stop-color="#AEE34E"/>
<stop offset="1" stop-color="#13D16A"/>
</linearGradient>
<clipPath id="clip0_2934_3843">
<rect width="391" height="469" fill="white"/>
</clipPath>
</defs>
</svg>
