<svg width="89" height="24" viewBox="0 0 89 24" fill="none" xmlns="http://www.w3.org/2000/svg">
<path d="M50.4189 8.08868C50.4189 5.5109 50.4634 3.1109 50.5969 0.888672L43.7884 2.17756V2.79979L44.4559 2.88867C44.9454 2.93312 45.2569 3.1109 45.4349 3.37756C45.6129 3.68868 45.7464 4.13312 45.8354 4.79979C45.9244 6.08868 46.0134 9.02202 45.9689 13.6442C45.9689 18.222 45.9244 21.1109 45.8354 22.222C48.2829 22.7554 50.1964 22.9776 51.6204 22.9776C54.2904 22.9776 56.3819 22.222 57.8949 20.6665C59.4079 19.1554 60.2089 17.022 60.2089 14.3998C60.2089 12.3109 59.6304 10.5776 58.4734 9.19979C57.3164 7.82201 55.8479 7.15535 54.1124 7.15535C52.9554 7.15535 51.7539 7.46646 50.4189 8.08868ZM50.5524 21.7776C50.4634 20.3554 50.3744 16.0887 50.3744 9.11091C50.7749 8.97757 51.3089 8.88868 51.9764 8.88868C53.0444 8.88868 53.8899 9.42202 54.5129 10.5331C55.1359 11.6442 55.4474 12.9776 55.4474 14.6665C55.4474 16.7554 55.0914 18.4443 54.3794 19.8665C53.6674 21.2443 52.7774 21.9554 51.6649 21.9554C51.3089 21.8665 50.9529 21.822 50.5524 21.7776ZM18.2453 1.33312H0.445312V2.22201L1.37981 2.3109C2.09181 2.44423 2.58132 2.7109 2.89282 3.1109C3.20432 3.55534 3.38232 4.26645 3.42682 5.24423C3.78282 10.0442 3.78282 14.5331 3.42682 18.6665C3.33782 19.6443 3.15982 20.3554 2.89282 20.7998C2.58132 21.2443 2.09181 21.5109 1.37981 21.5998L0.445312 21.7331V22.622H11.9263V21.7331L10.7248 21.6443C10.4316 21.6198 10.1464 21.5362 9.88643 21.3988C9.62641 21.2613 9.39693 21.0727 9.21183 20.8443C8.90032 20.3998 8.72232 19.6887 8.67782 18.7109C8.54432 16.9331 8.45532 14.8887 8.45532 12.622L10.8583 12.6665C12.1488 12.7109 13.0388 13.6887 13.4838 15.6442H14.3738V8.39979H13.4838C13.0388 10.3109 12.1933 11.2887 10.8583 11.3331L8.45532 11.3776C8.45532 7.37757 8.54432 4.53312 8.67782 2.79979H12.1933C14.6853 2.79979 16.3763 4.39979 17.3553 7.59979L18.4233 7.28868L18.2453 1.33312ZM16.1538 15.022C16.1538 17.3331 16.8213 19.2443 18.1118 20.7554C19.4023 22.2665 21.3158 22.9776 23.7188 22.9776C26.1218 22.9776 28.0799 22.222 29.5039 20.6665C30.9279 19.1554 31.5954 17.2442 31.5954 14.9331C31.5954 12.622 30.9279 10.7109 29.6374 9.19979C28.3469 7.68868 26.4333 6.97757 24.0303 6.97757C21.6273 6.97757 19.6693 7.73313 18.2453 9.28868C16.8213 10.7998 16.1538 12.7109 16.1538 15.022ZM26.0773 9.95535C26.6113 11.2442 26.8338 12.9331 26.8338 14.9776C26.8338 19.6887 25.8548 21.9998 23.9413 21.9998C22.9623 21.9998 22.2058 21.3331 21.6718 19.9998C21.1378 18.6665 20.9153 16.9776 20.9153 14.9776C20.9153 10.3109 21.8943 7.99979 23.8078 7.99979C24.7868 7.95535 25.5433 8.62202 26.0773 9.95535ZM63.6799 20.7554C65.1484 22.222 67.0174 22.9776 69.2424 22.9776C70.6219 22.9776 71.8234 22.7109 72.8914 22.1331C73.9594 21.5998 74.8049 20.9331 75.3834 20.1331L74.9384 19.5998C73.9594 20.3554 72.8469 20.7109 71.5564 20.7109C69.7764 20.7109 68.3969 20.1331 67.4624 18.9331C66.4834 17.7331 66.0384 16.222 66.1274 14.2665H75.6504C75.6504 12.1331 75.1164 10.3998 74.0039 9.02202C72.8914 7.68868 71.3339 7.02201 69.3314 7.02201C66.8394 7.02201 64.9259 7.82201 63.5464 9.37757C62.1669 10.9331 61.4994 12.8442 61.4994 15.1109C61.4994 17.422 62.2114 19.2887 63.6799 20.7554ZM66.9729 9.5998C67.4624 8.53313 68.0854 7.99979 68.9309 7.99979C70.2659 7.99979 70.9334 9.68868 70.9334 13.1109L66.2164 13.1998C66.2609 11.8665 66.4834 10.6665 66.9729 9.5998ZM87.6209 7.82201C86.4194 7.28868 84.9064 6.97757 83.0819 6.97757C81.2129 6.97757 79.7444 7.46646 78.6319 8.39979C77.5194 9.33313 76.9409 10.4887 76.9409 11.8665C76.9409 13.0665 77.2969 13.9998 77.9644 14.6665C78.6319 15.3331 79.6999 15.9109 81.0794 16.3998C82.3254 16.8442 83.2154 17.2887 83.6604 17.6887C84.1054 18.1331 84.3724 18.622 84.3724 19.2887C84.3724 19.9109 84.1499 20.4887 83.6604 20.9331C83.2154 21.422 82.5924 21.6443 81.7914 21.6443C79.8334 21.6443 78.3649 20.222 77.3414 17.3776L76.5849 17.5998L76.7629 22.0443C78.3649 22.6665 80.1449 22.9776 82.1029 22.9776C84.1499 22.9776 85.7074 22.5331 86.8644 21.5998C88.0214 20.7109 88.5999 19.422 88.5999 17.822C88.5999 16.7554 88.3329 15.8665 87.7544 15.1998C87.1759 14.5331 86.2414 13.9554 84.9064 13.422C83.4379 12.8887 82.4144 12.3998 81.8804 11.9554C81.3464 11.5109 81.0794 10.9776 81.0794 10.3109C81.0794 9.64424 81.2574 9.11091 81.6579 8.66646C82.0584 8.22201 82.5479 8.04424 83.1709 8.04424C84.9509 8.04424 86.2414 9.33313 87.0424 11.8665L87.7989 11.6442L87.6209 7.82201ZM44.8119 7.42201C44.1889 7.1109 43.5214 6.97757 42.7649 6.97757C42.0084 6.97757 41.2519 7.28868 40.4064 7.9109C39.5609 8.53313 38.9379 9.37757 38.4484 10.5331L38.4929 6.97757L31.7289 8.3109V8.93313L32.3964 8.97757C33.2419 9.06646 33.7314 9.73313 33.8204 10.9331C34.0874 13.6887 34.0874 16.622 33.8204 19.7331C33.7314 20.9331 33.2419 21.5554 32.3964 21.6887L31.7289 21.7776V22.622H41.1629V21.7776L39.9614 21.6887C39.1159 21.5998 38.6264 20.9331 38.5374 19.7331C38.2704 17.1554 38.2259 14.3998 38.4484 11.5554C38.7154 11.1109 39.2939 10.8442 40.1839 10.7554C41.0739 10.6665 42.0974 10.9331 43.1654 11.5554L44.8119 7.42201Z" fill="#C7D0D6"/>
</svg>
