<svg width="390" height="505" viewBox="0 0 390 505" fill="none" xmlns="http://www.w3.org/2000/svg">
<mask id="mask0_2930_5100" style="mask-type:alpha" maskUnits="userSpaceOnUse" x="0" y="197" width="391" height="282">
<path d="M0 197L19.6306 200.516L38.7704 207.541L57.9102 217.577L76.5592 229.619L123.182 268.256L164.406 305.889L198.269 330.977L223.298 345.529L245.873 354.56L269.429 360.08L317.034 361.581H382.796H390H391V479H387H382.796H0V197Z" fill="url(#paint0_linear_2930_5100)"/>
</mask>
<g mask="url(#mask0_2930_5100)">
<rect y="191" width="391" height="288" fill="url(#paint1_linear_2930_5100)"/>
</g>
<mask id="mask1_2930_5100" style="mask-type:alpha" maskUnits="userSpaceOnUse" x="-1" y="196" width="392" height="166">
<path d="M0 197C101.325 204.5 172.202 361 289 361H391" stroke="url(#paint2_linear_2930_5100)" stroke-width="2"/>
</mask>
<g mask="url(#mask1_2930_5100)">
<rect y="191" width="391" height="288" fill="url(#paint3_linear_2930_5100)"/>
</g>
<mask id="mask2_2930_5100" style="mask-type:alpha" maskUnits="userSpaceOnUse" x="289" y="369" width="2" height="42">
<line x1="290" y1="370.496" x2="290" y2="409.505" stroke="#13D16A" stroke-opacity="0.5" stroke-width="2" stroke-linecap="round" stroke-dasharray="5 5"/>
</mask>
<g mask="url(#mask2_2930_5100)">
<rect x="288" y="369" width="4" height="42" fill="#13D16A" fill-opacity="0.5"/>
</g>
<mask id="mask3_2930_5100" style="mask-type:alpha" maskUnits="userSpaceOnUse" x="41" y="219" width="2" height="192">
<path fill-rule="evenodd" clip-rule="evenodd" d="M42 219.496C42.5523 219.496 43 219.944 43 220.496V222.983C43 223.535 42.5523 223.983 42 223.983C41.4477 223.983 41 223.535 41 222.983V220.496C41 219.944 41.4477 219.496 42 219.496ZM42 226.957C42.5523 226.957 43 227.404 43 227.957V232.93C43 233.483 42.5523 233.93 42 233.93C41.4477 233.93 41 233.483 41 232.93V227.957C41 227.404 41.4477 226.957 42 226.957ZM42 236.904C42.5523 236.904 43 237.352 43 237.904V242.878C43 243.43 42.5523 243.878 42 243.878C41.4477 243.878 41 243.43 41 242.878V237.904C41 237.352 41.4477 236.904 42 236.904ZM42 246.851C42.5523 246.851 43 247.299 43 247.851V252.825C43 253.377 42.5523 253.825 42 253.825C41.4477 253.825 41 253.377 41 252.825V247.851C41 247.299 41.4477 246.851 42 246.851ZM42 256.799C42.5523 256.799 43 257.246 43 257.799V262.772C43 263.325 42.5523 263.772 42 263.772C41.4477 263.772 41 263.325 41 262.772V257.799C41 257.246 41.4477 256.799 42 256.799ZM42 266.746C42.5523 266.746 43 267.194 43 267.746V272.72C43 273.272 42.5523 273.72 42 273.72C41.4477 273.72 41 273.272 41 272.72V267.746C41 267.194 41.4477 266.746 42 266.746ZM42 276.693C42.5523 276.693 43 277.141 43 277.693V282.667C43 283.219 42.5523 283.667 42 283.667C41.4477 283.667 41 283.219 41 282.667L41 277.693C41 277.141 41.4477 276.693 42 276.693ZM42 286.641C42.5523 286.641 43 287.089 43 287.641V292.615C43 293.167 42.5523 293.615 42 293.615C41.4477 293.615 41 293.167 41 292.615V287.641C41 287.089 41.4477 286.641 42 286.641ZM42 296.588C42.5523 296.588 43 297.036 43 297.588V302.562C43 303.114 42.5523 303.562 42 303.562C41.4477 303.562 41 303.114 41 302.562V297.588C41 297.036 41.4477 296.588 42 296.588ZM42 306.536C42.5523 306.536 43 306.983 43 307.536V312.509C43 313.062 42.5523 313.509 42 313.509C41.4477 313.509 41 313.062 41 312.509V307.536C41 306.983 41.4477 306.536 42 306.536ZM42 316.483C42.5523 316.483 43 316.931 43 317.483V322.457C43 323.009 42.5523 323.457 42 323.457C41.4477 323.457 41 323.009 41 322.457V317.483C41 316.931 41.4477 316.483 42 316.483ZM42 326.43C42.5523 326.43 43 326.878 43 327.43V332.404C43 332.956 42.5523 333.404 42 333.404C41.4477 333.404 41 332.956 41 332.404V327.43C41 326.878 41.4477 326.43 42 326.43ZM42 336.378C42.5523 336.378 43 336.825 43 337.378V342.351C43 342.904 42.5523 343.351 42 343.351C41.4477 343.351 41 342.904 41 342.351V337.378C41 336.825 41.4477 336.378 42 336.378ZM42 346.325C42.5523 346.325 43 346.773 43 347.325V352.299C43 352.851 42.5523 353.299 42 353.299C41.4477 353.299 41 352.851 41 352.299V347.325C41 346.773 41.4477 346.325 42 346.325ZM42 356.272C42.5523 356.272 43 356.72 43 357.272V362.246C43 362.798 42.5523 363.246 42 363.246C41.4477 363.246 41 362.798 41 362.246V357.272C41 356.72 41.4477 356.272 42 356.272ZM42 366.22C42.5523 366.22 43 366.668 43 367.22V372.193C43 372.746 42.5523 373.193 42 373.193C41.4477 373.193 41 372.746 41 372.193V367.22C41 366.668 41.4477 366.22 42 366.22ZM42 376.167C42.5523 376.167 43 376.615 43 377.167V382.141C43 382.693 42.5523 383.141 42 383.141C41.4477 383.141 41 382.693 41 382.141V377.167C41 376.615 41.4477 376.167 42 376.167ZM42 386.115C42.5523 386.115 43 386.562 43 387.115V392.088C43 392.64 42.5523 393.088 42 393.088C41.4477 393.088 41 392.64 41 392.088L41 387.115C41 386.562 41.4477 386.115 42 386.115ZM42 396.062C42.5523 396.062 43 396.51 43 397.062V402.036C43 402.588 42.5523 403.036 42 403.036C41.4477 403.036 41 402.588 41 402.036V397.062C41 396.51 41.4477 396.062 42 396.062ZM42 406.009C42.5523 406.009 43 406.457 43 407.009V409.496C43 410.048 42.5523 410.496 42 410.496C41.4477 410.496 41 410.048 41 409.496V407.009C41 406.457 41.4477 406.009 42 406.009Z" fill="#F10B2E" fill-opacity="0.3"/>
</mask>
<g mask="url(#mask3_2930_5100)">
<rect x="40" y="219" width="3" height="192" fill="#F10B2E" fill-opacity="0.3"/>
</g>
<defs>
<linearGradient id="paint0_linear_2930_5100" x1="159.007" y1="196.502" x2="166.552" y2="479.445" gradientUnits="userSpaceOnUse">
<stop stop-color="#FEF1CD"/>
<stop offset="1" stop-color="white"/>
</linearGradient>
<linearGradient id="paint1_linear_2930_5100" x1="162.415" y1="190.492" x2="170.119" y2="479.454" gradientUnits="userSpaceOnUse">
<stop stop-color="#FEF1CD"/>
<stop offset="1" stop-color="white"/>
</linearGradient>
<linearGradient id="paint2_linear_2930_5100" x1="29.6961" y1="316.278" x2="418.188" y2="345.499" gradientUnits="userSpaceOnUse">
<stop stop-color="#F10B2E"/>
<stop offset="0.496031" stop-color="#FFEC40"/>
<stop offset="1" stop-color="#13D16A"/>
</linearGradient>
<linearGradient id="paint3_linear_2930_5100" x1="29.6961" y1="400.463" x2="419.671" y2="417.167" gradientUnits="userSpaceOnUse">
<stop stop-color="#F10B2E"/>
<stop offset="0.496031" stop-color="#FFEC40"/>
<stop offset="1" stop-color="#13D16A"/>
</linearGradient>
</defs>
</svg>
