<svg width="120" height="120" viewBox="0 0 120 120" fill="none" xmlns="http://www.w3.org/2000/svg">
<path d="M78.5801 39.731L89.4136 43.4677L105.845 39.3486C105.845 39.3486 109.68 44.5421 104.282 48.1812L89.701 51.8231L78.7252 48.4463" stroke="#13D16A" stroke-width="2.6" stroke-linecap="round" stroke-linejoin="round"/>
<path d="M64.3535 75.1006L65.241 105.874L71.0428 113.199L73.6521 75.7117" stroke="#212121" stroke-width="2.6" stroke-linecap="round" stroke-linejoin="round"/>
<path d="M50.6795 65.4447L12.832 71.8772L18.4525 64.5265L46.3539 56.9219" stroke="#212121" stroke-width="2.6" stroke-linecap="round" stroke-linejoin="round"/>
<path d="M73.5094 32.8486C75.315 35.3268 76.6629 36.9817 77.648 38.3407C78.0052 38.8347 78.315 39.2896 78.5801 39.7361C79.0275 40.453 79.3705 41.2302 79.5987 42.044C80.0835 43.9073 79.9423 45.8781 79.1969 47.6533L78.7252 48.4486L75.0973 54.5714L70.9866 53.5305L61.8164 51.2086L62.5113 41.737" stroke="#13D16A" stroke-width="2.6" stroke-linecap="round" stroke-linejoin="round"/>
<path d="M61.7265 51.2119L45.373 53.9496C54.9256 86.1738 83.4186 73.317 83.4186 73.317L75.1247 54.5775L61.7265 51.2119Z" stroke="#212121" stroke-width="2.6" stroke-linecap="round" stroke-linejoin="round"/>
<path d="M73.5101 32.8492L56.0459 32.8743L40.4459 26.2744C40.4459 26.2744 35.8134 31.1999 40.5855 35.6287L54.4329 41.4724L68.9445 41.9497" stroke="#13D16A" stroke-width="2.6" stroke-linecap="round" stroke-linejoin="round"/>
<path d="M72.249 15.3964C72.0791 15.4065 71.9086 15.4065 71.7383 15.3964C70.847 15.3426 69.9967 15.0031 69.3132 14.4281C68.8684 14.0522 68.5031 13.5911 68.2388 13.072C67.9748 12.5528 67.8171 11.9861 67.775 11.4052C67.7331 10.8242 67.8076 10.2408 67.9943 9.68901C68.181 9.13729 68.476 8.62847 68.8622 8.19242C69.2485 7.75637 69.7179 7.40195 70.2431 7.14993C70.7683 6.89793 71.3384 6.75342 71.9203 6.72496C72.5019 6.69647 73.0835 6.78457 73.6307 6.98407C74.178 7.18358 74.6797 7.49045 75.1067 7.88667C75.3515 8.13956 75.5736 8.41313 75.7709 8.70434C76.233 9.3874 76.5537 10.156 76.7142 10.9648" stroke="#212121" stroke-width="2.6" stroke-linecap="round" stroke-linejoin="round"/>
<path d="M74.9322 26.6287L79.6401 28.5403C80.0068 28.6754 80.4083 28.6798 80.7778 28.5534C81.1476 28.4267 81.4621 28.1767 81.6689 27.8454C82.3191 26.7878 83.1312 24.9543 83.9015 22.7719C87.8419 11.6761 79.4001 10.998 79.4001 10.998C79.4001 10.998 73.8745 9.73101 72.348 15.0836C69.7247 24.2343 74.9322 26.6287 74.9322 26.6287Z" stroke="#212121" stroke-width="2.6" stroke-linecap="round" stroke-linejoin="round"/>
</svg>
