<svg width="48" height="48" viewBox="0 0 48 48" fill="none" xmlns="http://www.w3.org/2000/svg">
<circle cx="24" cy="24" r="24" fill="#F6F7F9"/>
<path fill-rule="evenodd" clip-rule="evenodd" d="M29.5855 15.2976C29.8253 15.5081 29.9721 15.8058 29.9937 16.1252C30.0153 16.4445 29.9098 16.7595 29.7005 17.0007L17.1239 31.4871C17.0113 31.6168 16.8723 31.7206 16.7164 31.7918C16.5605 31.863 16.3913 31.8998 16.2201 31.8998C16.0489 31.8998 15.8797 31.863 15.7238 31.7918C15.5679 31.7206 15.429 31.6168 15.3163 31.4871L10.2854 25.6929C10.0812 25.4511 9.97983 25.1381 10.0033 24.8216C10.0269 24.5052 10.1733 24.2108 10.4111 24.0021C10.6488 23.7934 10.9587 23.6873 11.2737 23.7067C11.5887 23.726 11.8834 23.8693 12.0941 24.1056L16.2206 28.8576L27.8919 15.4133C28.1012 15.1721 28.3972 15.0245 28.7149 15.0028C29.0325 14.9811 29.3456 15.0871 29.5855 15.2976ZM37.6274 15.4334C37.7416 15.5428 37.8333 15.6737 37.8971 15.8187C37.961 15.9636 37.9958 16.1199 37.9996 16.2784C38.0035 16.4369 37.9762 16.5947 37.9193 16.7426C37.8625 16.8905 37.7772 17.0257 37.6684 17.1405L23.9484 31.626C23.8286 31.7523 23.6829 31.851 23.5215 31.9153C23.36 31.9795 23.1867 32.0078 23.0133 31.9982C22.8399 31.9885 22.6707 31.9411 22.5173 31.8593C22.3639 31.7775 22.23 31.6632 22.1248 31.5244L21.4385 30.619C21.2603 30.3832 21.1745 30.0898 21.1974 29.7945C21.2203 29.4992 21.3504 29.2228 21.5629 29.0177C21.7754 28.8126 22.0554 28.6932 22.3498 28.6822C22.6441 28.6713 22.9322 28.7695 23.1591 28.9582L35.9308 15.4746C36.0396 15.3599 36.1699 15.2678 36.3141 15.2037C36.4583 15.1395 36.6137 15.1046 36.7713 15.1009C36.929 15.0971 37.0858 15.1247 37.2329 15.1819C37.3799 15.2391 37.5143 15.3249 37.6284 15.4344L37.6274 15.4334Z" fill="#171717" fill-opacity="0.72"/>
</svg>
