<svg width="120" height="120" viewBox="0 0 120 120" fill="none" xmlns="http://www.w3.org/2000/svg">
<g clip-path="url(#clip0_1777_2910)">
<mask id="mask0_1777_2910" style="mask-type:luminance" maskUnits="userSpaceOnUse" x="0" y="0" width="120" height="120">
<path d="M0 0H120V120H0V0Z" fill="white"/>
</mask>
<g mask="url(#mask0_1777_2910)">
<mask id="mask1_1777_2910" style="mask-type:luminance" maskUnits="userSpaceOnUse" x="0" y="0" width="120" height="120">
<path d="M0 0H120V120H0V0Z" fill="white"/>
</mask>
<g mask="url(#mask1_1777_2910)">
<path d="M55.7717 22.4174C55.1577 21.5076 54.7949 20.3857 54.7949 19.1774C54.7949 16.1076 57.1252 13.6211 59.9996 13.6211C62.874 13.6211 65.2042 16.1104 65.2042 19.1774C65.2042 20.3746 64.8498 21.4797 64.247 22.3839" stroke="#212121" stroke-width="2.6" stroke-linecap="round" stroke-linejoin="round"/>
<path d="M65.7648 38.4166C67.5983 35.9133 67.9137 33.3208 67.9862 31.9757C68.0169 31.398 68.0113 30.7561 67.9583 30.0808C67.7267 27.184 66.6076 23.6817 63.7499 22.0687C62.0448 21.1059 60.2141 21.0947 59.9992 21.0947C59.7844 21.0947 58.0011 21.1226 56.3211 22.0687C53.8988 23.4333 52.682 26.1515 52.2216 28.744C52.0151 29.8882 51.9592 31.0073 52.0095 31.9757C52.1853 35.3301 53.6867 37.6687 54.2337 38.4166C55.6234 40.3143 57.6048 41.8798 59.9992 42.8566C62.3937 41.8798 64.3751 40.3143 65.7648 38.4166Z" stroke="#212121" stroke-width="2.6" stroke-linecap="round" stroke-linejoin="round"/>
<path d="M48.1035 78.6191C47.7463 80.168 47.3109 81.6722 46.8756 83.0229C46.3936 84.5103 45.8612 85.9809 45.2793 87.4322M74.7184 87.5103C74.3137 86.514 73.6998 84.9205 73.0886 83.0229C72.6533 81.6722 72.2179 80.168 71.8607 78.6191" stroke="#212121" stroke-width="2.6" stroke-linecap="round" stroke-linejoin="round"/>
<path d="M107.277 82.111C107.76 82.2393 108.24 81.9212 108.323 81.4272H108.326C109.146 76.5519 106.141 71.7658 101.271 70.4598L87.7614 66.8403L76.2469 53.1156C75.1207 51.7731 73.7141 50.6937 72.1259 49.9531C70.5378 49.2126 68.8067 48.8289 67.0544 48.8291H52.9558C51.2039 48.8289 49.4732 49.2126 47.8855 49.9532C46.2978 50.6938 44.8917 51.7732 43.766 53.1156L32.246 66.8403L18.7362 70.4598C13.8665 71.7658 10.8609 76.5547 11.6814 81.4272C11.7651 81.9184 12.2451 82.2393 12.7279 82.111L36.2255 75.8124V75.8068C37.1967 75.5472 38.0479 74.9975 38.6786 74.2524L47.74 63.4524C48.2758 65.7463 48.9735 69.2933 48.9735 72.1565C48.9735 74.2161 48.6218 76.4626 48.1223 78.6198H71.8795C71.38 76.4626 71.0283 74.2133 71.0283 72.1565C71.0283 69.2933 71.726 65.7463 72.259 63.4524L81.3232 74.2496H81.326C81.9567 74.9975 82.8079 75.5472 83.779 75.8068V75.8124L107.277 82.111Z" stroke="#13D16A" stroke-width="2.6" stroke-linecap="round" stroke-linejoin="round"/>
<path d="M60.0726 104.174L56.5117 93.6478M80.0568 98.7938L87.2847 96.7789C90.6029 95.6989 92.4168 92.138 91.3396 88.8227C90.4717 86.152 87.9964 84.458 85.334 84.458C84.6894 84.458 84.0308 84.5585 83.3833 84.7678L73.0494 88.1278L60.1396 92.3222L40.0195 98.8664C42.9595 106.989 50.4071 107.198 55.4136 105.67L80.0512 98.7938H80.0568Z" stroke="#212121" stroke-width="2.6" stroke-linecap="round" stroke-linejoin="round"/>
</g>
</g>
</g>
<defs>
<clipPath id="clip0_1777_2910">
<rect width="120" height="120" fill="white"/>
</clipPath>
</defs>
</svg>
