<svg width="137" height="24" viewBox="0 0 137 24" fill="none" xmlns="http://www.w3.org/2000/svg">
<path d="M18.8247 0.543945L14.1602 12.6623L9.46797 0.543945H1.44531V22.5071H7.21888V7.98714L12.8881 22.5071H15.4356L21.0738 7.98714V22.5071H26.8474V0.543945H18.8247Z" fill="#C7D0D6"/>
<mask id="mask0_1910_2711" style="mask-type:luminance" maskUnits="userSpaceOnUse" x="27" y="4" width="18" height="19">
<path d="M27.7266 4.7998H44.0361V22.9006H27.7266V4.7998Z" fill="white"/>
</mask>
<g mask="url(#mask0_1910_2711)">
<path d="M38.5582 18.4253V17.0061C38.0233 16.2493 36.8131 15.8861 35.678 15.8861C34.3341 15.8861 33.0913 16.4813 33.0913 17.7309C33.0913 18.9805 34.3341 19.5757 35.678 19.5757C36.8131 19.5757 38.0233 19.1821 38.5582 18.4253ZM38.5582 22.5053V20.9245C37.5519 22.1069 35.6078 22.9005 33.5251 22.9005C31.0412 22.9005 27.957 21.2189 27.957 17.6621C27.957 13.8125 31.0395 12.5309 33.5251 12.5309C35.678 12.5309 37.5894 13.2189 38.5582 14.4061V12.8253C38.5582 11.4429 37.3546 10.4877 35.2702 10.4877C33.6588 10.4877 32.0475 11.1117 30.7411 12.1997L28.8296 8.67485C30.9123 6.93085 33.6964 6.20605 36.1754 6.20605C40.0685 6.20605 43.7316 7.62525 43.7316 12.5629V22.5069L38.5582 22.5053Z" fill="#C7D0D6"/>
</g>
<mask id="mask1_1910_2711" style="mask-type:luminance" maskUnits="userSpaceOnUse" x="44" y="4" width="17" height="19">
<path d="M44.0352 4.7998H60.3447V22.9006H44.0352V4.7998Z" fill="white"/>
</mask>
<g mask="url(#mask1_1910_2711)">
<path d="M44.4297 20.4317L46.5777 16.8125C47.7878 17.8621 50.368 18.9501 52.286 18.9501C53.8272 18.9501 54.4649 18.5181 54.4649 17.8301C54.4649 15.8557 45.0364 17.8941 45.0364 11.4429C45.0364 8.64285 47.5203 6.20605 51.9794 6.20605C54.7324 6.20605 57.0125 7.06205 58.7592 8.31165L56.7842 11.9069C55.8088 10.9805 53.9626 10.1565 52.0185 10.1565C50.8083 10.1565 50.0043 10.6189 50.0043 11.2445C50.0043 12.9885 59.3953 11.1805 59.3953 17.7005C59.3953 20.7245 56.6814 22.9005 52.0495 22.9005C49.1317 22.9005 46.1454 21.9437 44.4297 20.4317Z" fill="#C7D0D6"/>
</g>
<mask id="mask2_1910_2711" style="mask-type:luminance" maskUnits="userSpaceOnUse" x="60" y="0" width="17" height="23">
<path d="M60.3438 0.543945H76.6533V22.9007H60.3438V0.543945Z" fill="white"/>
</mask>
<g mask="url(#mask2_1910_2711)">
<path d="M71.3764 22.5071V13.2479C71.3764 11.3119 70.3375 10.6863 68.6869 10.6863C67.1783 10.6863 66.172 11.5055 65.5718 12.2303V22.5055H60.3984V0.543945H65.5718V8.54394C66.5406 7.42394 68.4586 6.20794 71.1725 6.20794C74.8683 6.20794 76.5432 8.24954 76.5432 11.1807V22.5071H71.3764Z" fill="#C7D0D6"/>
</g>
<mask id="mask3_1910_2711" style="mask-type:luminance" maskUnits="userSpaceOnUse" x="76" y="4" width="19" height="19">
<path d="M76.6562 4.7998H94.5967V22.9006H76.6562V4.7998Z" fill="white"/>
</mask>
<g mask="url(#mask3_1910_2711)">
<path d="M88.1937 18.4253V17.0061C87.6571 16.2493 86.4485 15.8861 85.3069 15.8861C83.963 15.8861 82.7202 16.4813 82.7202 17.7309C82.7202 18.9805 83.963 19.5757 85.3069 19.5757C86.4485 19.5757 87.6571 19.1821 88.1937 18.4253ZM88.1937 22.5053V20.9245C87.1857 22.1069 85.2367 22.9005 83.1605 22.9005C80.675 22.9005 77.5859 21.2189 77.5859 17.6621C77.5859 13.8125 80.675 12.5309 83.1605 12.5309C85.3069 12.5309 87.2183 13.2189 88.1937 14.4061V12.8253C88.1937 11.4429 86.9819 10.4877 84.9057 10.4877C83.2943 10.4877 81.6813 11.1117 80.37 12.1997L78.4585 8.67485C80.5412 6.93085 83.3253 6.20605 85.8108 6.20605C89.7023 6.20605 93.3589 7.62525 93.3589 12.5629V22.5069L88.1937 22.5053Z" fill="#C7D0D6"/>
</g>
<mask id="mask4_1910_2711" style="mask-type:luminance" maskUnits="userSpaceOnUse" x="94" y="0" width="19" height="23">
<path d="M94.5938 0.543945H112.534V22.9007H94.5938V0.543945Z" fill="white"/>
</mask>
<g mask="url(#mask4_1910_2711)">
<path d="M103.287 18.4255C105.332 18.4255 106.88 16.9375 106.88 14.5375C106.88 12.1695 105.332 10.6815 103.287 10.6815C102.178 10.6815 100.841 11.2751 100.198 12.1311V17.0063C100.841 17.8623 102.18 18.4255 103.287 18.4255ZM95.0312 22.5055V0.543945H100.198V8.47995C100.766 7.76329 101.495 7.18525 102.328 6.79109C103.161 6.39692 104.076 6.19733 105.001 6.20795C109.059 6.20795 112.15 9.33755 112.15 14.5375C112.15 19.9375 108.995 22.9007 105.001 22.9007C103.186 22.9007 101.542 22.1759 100.198 20.6623V22.5071H95.0312V22.5055Z" fill="#C7D0D6"/>
</g>
<mask id="mask5_1910_2711" style="mask-type:luminance" maskUnits="userSpaceOnUse" x="112" y="0" width="8" height="23">
<path d="M112.535 0.543945H119.059V22.9007H112.535V0.543945Z" fill="white"/>
</mask>
<g mask="url(#mask5_1910_2711)">
<path d="M113.195 0.543945H118.362V22.5071H113.195V0.543945Z" fill="#C7D0D6"/>
</g>
<mask id="mask6_1910_2711" style="mask-type:luminance" maskUnits="userSpaceOnUse" x="119" y="4" width="18" height="19">
<path d="M119.059 4.7998H136.28V22.9006H119.059V4.7998Z" fill="white"/>
</mask>
<g mask="url(#mask6_1910_2711)">
<path d="M127.994 10.2877C125.743 10.2877 124.872 11.6061 124.666 12.7565H131.35C131.211 11.6365 130.376 10.2877 127.994 10.2877ZM119.398 14.5373C119.398 9.93086 122.921 6.20605 127.994 6.20605C132.79 6.20605 136.282 9.66206 136.282 15.0621V16.2189H124.738C125.107 17.6317 126.451 18.8189 128.796 18.8189C129.938 18.8189 131.817 18.3245 132.759 17.4685L135.002 20.7933C133.395 22.2061 130.707 22.9005 128.228 22.9005C123.228 22.9005 119.398 19.7069 119.398 14.5373Z" fill="#C7D0D6"/>
</g>
</svg>
