<svg width="52" height="52" viewBox="0 0 52 52" fill="none" xmlns="http://www.w3.org/2000/svg">
<path d="M46.2714 7.4218C35.9432 7.4218 27.0825 0.474424 26.9896 0.400121C26.6617 0.140971 26.2559 0 25.8379 0C25.4199 0 25.0142 0.140971 24.6862 0.400121C24.5933 0.474424 15.7698 7.4218 5.40446 7.4218C4.9118 7.4218 4.43931 7.61751 4.09095 7.96587C3.74258 8.31424 3.54688 8.78672 3.54688 9.27938V25.9977C3.54688 38.4621 8.58093 44.5735 25.0763 51.8367C25.3158 51.9443 25.5754 52 25.8379 52C26.1005 52 26.36 51.9443 26.5995 51.8367C43.0949 44.5735 48.1289 38.4621 48.1289 25.9977V9.27938C48.1289 8.78672 47.9332 8.31424 47.5849 7.96587C47.2365 7.61751 46.764 7.4218 46.2714 7.4218ZM25.8379 40.8584C22.8987 40.8584 20.0256 39.9868 17.5818 38.3539C15.1379 36.721 13.2332 34.4 12.1084 31.6846C10.9837 28.9692 10.6894 25.9812 11.2628 23.0985C11.8362 20.2158 13.2515 17.5679 15.3298 15.4896C17.4081 13.4113 20.056 11.9959 22.9387 11.4225C25.8214 10.8491 28.8094 11.1434 31.5249 12.2682C34.2403 13.3929 36.5612 15.2977 38.1941 17.7415C39.827 20.1853 40.6986 23.0585 40.6986 25.9977C40.6986 29.939 39.1329 33.7188 36.346 36.5058C33.5591 39.2927 29.7792 40.8584 25.8379 40.8584Z" fill="#13D16A"/>
<path d="M30.0903 20.9633L23.9788 27.0933L21.5825 24.6785C21.4093 24.5053 21.2037 24.3679 20.9774 24.2741C20.7511 24.1804 20.5086 24.1322 20.2636 24.1322C20.0187 24.1322 19.7761 24.1804 19.5498 24.2741C19.3236 24.3679 19.1179 24.5053 18.9447 24.6785C18.7715 24.8517 18.6341 25.0573 18.5404 25.2836C18.4467 25.5099 18.3984 25.7524 18.3984 25.9974C18.3984 26.2423 18.4467 26.4848 18.5404 26.7111C18.6341 26.9374 18.7715 27.143 18.9447 27.3162L22.6599 31.0314C22.8326 31.2055 23.038 31.3437 23.2644 31.438C23.4908 31.5323 23.7336 31.5809 23.9788 31.5809C24.224 31.5809 24.4668 31.5323 24.6932 31.438C24.9195 31.3437 25.125 31.2055 25.2977 31.0314L32.728 23.6011C32.9012 23.4279 33.0386 23.2223 33.1323 22.996C33.2261 22.7697 33.2743 22.5271 33.2743 22.2822C33.2743 22.0372 33.2261 21.7947 33.1323 21.5684C33.0386 21.3421 32.9012 21.1365 32.728 20.9633C32.5548 20.7901 32.3492 20.6527 32.1229 20.559C31.8966 20.4652 31.6541 20.417 31.4091 20.417C31.1642 20.417 30.9217 20.4652 30.6954 20.559C30.4691 20.6527 30.2635 20.7901 30.0903 20.9633Z" fill="black"/>
</svg>
