<svg width="128" height="20" viewBox="0 0 128 20" fill="none" xmlns="http://www.w3.org/2000/svg">
<g clip-path="url(#clip0_1910_2682)">
<path d="M4.73396 5.01597L0.617188 19.2359H4.45367L6.82372 17.5938L7.07385 19.2359H10.8779L11.471 18.7669L11.8141 18.7967L12.0944 19.2362H19.9231L22.0128 17.7997L21.7627 19.2362H25.5052L28.3125 17.3897L27.845 19.2362H31.65L35.6737 16.3927L40.85 6.42346L41.6931 13.1972L39.8836 19.2362H44.0944L47.182 17.0082C47.182 17.0082 48.0554 18.9727 49.8638 19.2362C50.3627 19.3246 51.2047 19.3542 51.2047 19.3542C51.8291 19.3542 52.2036 19.3483 52.8269 19.2362C53.5826 19.1024 53.9907 18.9337 54.6981 18.6502C55.6903 18.2529 57.0995 17.3602 57.0995 17.3602L56.6948 19.2362H60.6861L62.6828 17.9462L62.3397 19.2362H71.0408L73.162 17.7997L73.6609 19.2362H78.4336L82.2072 16.3927L80.4291 8.56407L85.7624 2.23104H81.2398L78.8697 3.90256L79.2756 2.20155H74.6599L73.8168 2.90559C73.8168 2.90559 73.162 2.55355 72.8817 2.37756C72.6005 2.23116 71.8839 2.23118 71.8839 2.23118H64.305L63.1816 3.05219C63.1816 3.05219 62.4024 2.29018 61.3732 2.08466C59.6568 1.70419 59.3451 1.84953 58.5346 1.84953C57.1309 1.84953 55.54 2.46608 55.54 2.46608L55.5718 2.20168L50.8629 2.23154L48.5231 3.99059L48.4602 2.23154H43.8445L42.2849 3.3171L42.7222 2.23154H38.6985L36.7029 3.58059L36.64 2.23154H32.5232L30.9324 3.34559L30.8078 2.20205H19.2681L18.6751 2.49603L18.8308 2.20205L14.7455 2.23195L13.1546 3.31755L12.9359 2.20246H8.47591L4.73396 5.01597Z" fill="#C7D0D6" stroke="#C7D0D6" stroke-width="0.33" stroke-miterlimit="3.864"/>
<path d="M89.6798 2.20791L86.1865 4.81747L81.9141 19.243H86.0308L89.8988 16.4574L90.4594 14.8448C90.4594 14.8448 91.243 14.8657 91.7386 14.8149C92.1937 14.7686 92.8922 14.6106 92.8922 14.6106C92.8922 14.6106 92.4864 16.4456 93.0177 17.4246C93.7341 18.7463 94.982 19.1257 96.5727 19.2427C98.0077 19.3598 98.8015 19.2188 100.128 18.8032C101.336 18.4248 102.998 17.3372 102.998 17.3372C102.998 17.3372 103.773 18.3057 104.463 18.6862C105.236 19.1099 105.788 19.1605 106.678 19.2427C108.089 19.3733 108.955 19.2128 110.265 18.6862C111.668 18.1287 114.039 16.6036 114.039 16.6036L113.353 19.1257H117.251L121.056 16.3981L123.738 7.57341L126.951 4.99335L127.761 2.20778H118.81L117.905 2.79375C117.905 2.79375 117.226 2.38799 116.752 2.20778C115.782 1.8389 115.146 1.81146 114.1 1.82622C112.749 1.84713 111.928 1.99593 110.733 2.58929C109.995 2.95503 109.017 3.79082 109.017 3.79082C109.017 3.79082 108.424 2.70627 107.738 2.41328C106.522 1.88526 105.719 1.87576 104.402 1.91475C103.221 1.9506 102.531 2.08023 101.438 2.50076C100.489 2.86644 99.1927 3.79082 99.1927 3.79082C99.1927 3.79082 98.7555 3.02877 98.4438 2.70627C98.1635 2.35427 97.3215 2.20778 97.3215 2.20778L89.6798 2.20791Z" fill="#C7D0D6" stroke="#C7D0D6" stroke-width="0.33" stroke-miterlimit="3.864"/>
<path d="M8.80113 2.56641L4.99609 15.8778H7.86503L10.1734 8.43071L11.0468 15.8778H14.2903L18.3454 2.56641H15.4137L13.3552 8.95742L12.6063 2.56641H8.80113Z" fill="white"/>
<path d="M19.575 2.56641L15.707 15.8778H23.1299L24.0033 13.5317H19.8248L20.8226 10.2487H24.6277L25.3755 7.90259H21.5088L22.5066 4.97055H26.6863L25.8747 15.8778H29.1807L32.9231 8.37159L32.1126 15.8778H35.2944L42.1557 2.56645H39.1611L35.6689 9.19256L36.355 2.56645H33.1115L29.8054 9.07577L30.4916 2.56645L19.575 2.56641Z" fill="white"/>
<path d="M19.575 2.56641L15.707 15.8778H23.1299L24.0033 13.5317H19.8248L20.8226 10.2487H24.6277L25.3755 7.90259H21.5088L22.5066 4.97055H26.6863L25.8747 15.8778H29.1807L32.9231 8.37159L32.1126 15.8778H35.2944L42.1557 2.56645H39.1611L35.6689 9.19256L36.355 2.56645H33.1115L29.8054 9.07576L30.4916 2.56645L19.575 2.56641Z" stroke="#C7D0D6" stroke-width="1.39696" stroke-miterlimit="3.864"/>
<path d="M8.80113 2.56641L4.99609 15.8778H7.86503L10.1734 8.43071L11.0468 15.8778H14.2903L18.3454 2.56641H15.4137L13.3552 8.95742L12.6063 2.56641H8.80113Z" stroke="#C7D0D6" stroke-width="1.39696" stroke-miterlimit="3.864"/>
<path d="M53.5804 4.98643L51.0858 13.6068C51.0858 13.6068 50.8446 14.7061 51.2104 15.2488C51.4313 15.5777 51.669 15.6883 52.021 15.8939C52.669 16.2712 53.1376 16.3218 53.8922 16.4208C54.7364 16.5326 55.2353 16.4934 56.075 16.3628C56.7746 16.2544 57.1816 16.1773 57.8217 15.8939C58.3464 15.6608 58.6278 15.4849 59.0696 15.1308C59.6492 14.6681 60.3174 13.7828 60.3174 13.7237C60.3174 13.7237 61.6268 9.32578 61.6268 9.38463L62.6258 6.10039C62.5628 6.10039 63.1549 4.48784 62.9677 3.81331C62.6874 2.58231 61.8141 2.25981 61.2838 2.20077C60.286 2.02481 60.0696 2.03228 59.2882 2.02481C58.7523 2.01883 58.4462 2.01288 57.9159 2.08398C57.176 2.18406 56.7477 2.27487 56.075 2.58247C55.6322 2.78473 55.3934 2.93129 55.0155 3.22747C54.3081 3.77976 53.5804 4.98643 53.5804 4.98643Z" fill="white"/>
<path d="M44.5846 2.56641L45.708 10.4237L44.1484 15.8778H47.4536L49.0759 10.5997L54.8767 2.56641H51.5089L48.3271 7.31662L48.0154 2.56641H44.5846Z" fill="white"/>
<path d="M57.1699 5.25538L54.8615 12.7025C54.8615 12.7025 54.7404 13.0766 54.8297 13.2895C54.9069 13.4696 55.0204 13.5539 55.2042 13.6405C55.4229 13.7439 55.5843 13.7101 55.8287 13.6996C56.129 13.6877 56.3265 13.6817 56.5776 13.5237C56.7559 13.4119 56.8467 13.3193 56.9509 13.1421C57.0148 13.0346 56.9827 12.7617 57.0755 12.8491C57.1072 12.8789 58.885 6.78044 58.885 6.78044L59.1653 5.72438C59.1653 5.72438 59.2997 5.43789 59.2594 5.25538C59.2339 5.14036 59.1853 5.08058 59.1037 4.99185C58.9378 4.81468 58.7606 4.78096 58.5106 4.75676C58.2919 4.73584 58.163 4.76569 57.9489 4.81588C57.7582 4.8601 57.6486 4.89266 57.4814 4.99185C57.3435 5.07311 57.1699 5.25538 57.1699 5.25538Z" fill="#C7D0D6" stroke="#C7D0D6" stroke-width="1.39696" stroke-miterlimit="3.864"/>
<path d="M64.7039 2.56641L60.8359 15.8778H64.2049L65.8889 10.4826H67.3856C67.3856 10.4826 67.8419 10.5626 67.9473 10.7756C68.0191 10.9211 67.9473 11.1867 67.9473 11.1867L66.6378 15.8777H70.1927L71.6906 10.8936C71.6906 10.8936 71.9159 10.2222 71.6906 9.89651C71.5672 9.71934 71.4427 9.65721 71.2533 9.54449C71.0515 9.42319 70.6917 9.3094 70.6917 9.3094C70.6917 9.3094 71.241 9.08708 71.565 8.89934C71.8463 8.73592 72.0168 8.64961 72.2511 8.43035C72.3856 8.30398 72.5629 8.07833 72.5629 8.07833L73.6863 4.50133C73.6863 4.50133 73.766 4.02708 73.6863 3.73935C73.6135 3.47704 73.5328 3.32723 73.3432 3.12384C73.1548 2.91949 73.0046 2.8382 72.7501 2.71278C72.61 2.64437 72.3757 2.56641 72.3757 2.56641" fill="white"/>
<path d="M67.6893 4.98569L66.6602 8.09365H68.4382C68.4382 8.09365 68.7287 7.98193 68.8744 7.85974C69.094 7.67421 69.129 7.49611 69.2488 7.24318C69.4001 6.92593 69.4395 6.72989 69.5291 6.39263C69.6232 6.04272 69.7748 5.84145 69.7163 5.48413C69.6909 5.33027 69.7155 5.20691 69.5917 5.10262C69.5031 5.02793 69.429 5.00552 69.3114 4.98551C69.2037 4.96758 69.0302 4.98551 69.0302 4.98551L67.6893 4.98569Z" fill="#C7D0D6" stroke="#C7D0D6" stroke-width="1.39696" stroke-miterlimit="3.864"/>
<path d="M75.2227 2.56641L71.043 15.8778H74.6923L76.5948 9.98426L77.7485 15.8778H81.585L79.9638 8.48865L84.9539 2.56673H81.6478L77.4055 6.96469L78.7161 2.56673L75.2227 2.56641Z" fill="white"/>
<path d="M75.2227 2.56641L71.043 15.8778H74.6923L76.5948 9.98426L77.7485 15.8778H81.585L79.9638 8.48865L84.9539 2.56673H81.6478L77.4055 6.96469L78.7161 2.56673L75.2227 2.56641Z" stroke="#C7D0D6" stroke-width="1.39696" stroke-miterlimit="3.864"/>
<path d="M64.7039 2.56641L60.8359 15.8778H64.2049L65.8889 10.4826H67.3856C67.3856 10.4826 67.8419 10.5626 67.9473 10.7756C68.0191 10.9211 67.9473 11.1867 67.9473 11.1867L66.6378 15.8777H70.1927L71.6906 10.8936C71.6906 10.8936 71.9159 10.2222 71.6906 9.89651C71.5672 9.71934 71.4427 9.65721 71.2533 9.54449C71.0515 9.42319 70.6917 9.3094 70.6917 9.3094C70.6917 9.3094 71.241 9.08708 71.565 8.89934C71.8463 8.73592 72.0168 8.64961 72.2511 8.43035C72.3856 8.30398 72.5629 8.07833 72.5629 8.07833L73.6863 4.50133C73.6863 4.50133 73.766 4.02708 73.6863 3.73935C73.6135 3.47704 73.5328 3.32723 73.3432 3.12384C73.1548 2.91949 73.0046 2.8382 72.7501 2.71278C72.61 2.64437 72.3757 2.56641 72.3757 2.56641H64.7039Z" stroke="#C7D0D6" stroke-width="1.39696" stroke-miterlimit="3.864"/>
<path d="M53.5804 4.98643L51.0858 13.6068C51.0858 13.6068 50.8446 14.7061 51.2104 15.2488C51.4313 15.5777 51.669 15.6883 52.021 15.8939C52.669 16.2712 53.1377 16.3218 53.8922 16.4208C54.7364 16.5326 55.2353 16.4934 56.075 16.3628C56.7746 16.2544 57.1816 16.1773 57.8217 15.8939C58.3464 15.6608 58.6278 15.4849 59.0696 15.1308C59.6492 14.6681 60.3174 13.7828 60.3174 13.7237C60.3174 13.7237 61.6269 9.32578 61.6269 9.38463L62.6258 6.10039C62.5629 6.10039 63.155 4.48784 62.9677 3.81331C62.6874 2.58231 61.8141 2.25981 61.2838 2.20077C60.286 2.02481 60.0696 2.03228 59.2882 2.02481C58.7523 2.01883 58.4462 2.01288 57.9159 2.08398C57.176 2.18406 56.7477 2.27487 56.075 2.58247C55.6322 2.78473 55.3934 2.93129 55.0156 3.22747C54.3082 3.77976 53.5804 4.98643 53.5804 4.98643Z" stroke="#C7D0D6" stroke-width="1.39696" stroke-miterlimit="3.864"/>
<path d="M44.5846 2.56641L45.7079 10.4237L44.1484 15.8778H47.4536L49.0758 10.5997L54.8766 2.56641H51.5086L48.3267 7.31662L48.015 2.56641H44.5846Z" stroke="#C7D0D6" stroke-width="1.39696" stroke-miterlimit="3.864"/>
<path d="M90.0939 2.56641L86.1328 15.8778H89.4389L90.7484 11.8317C90.7484 11.8317 93.337 11.9489 94.0233 11.8317C94.5536 11.7433 94.8944 11.6379 95.3956 11.3912C95.9505 11.1193 96.297 10.9517 96.6748 10.4827C96.9204 10.1771 96.9706 9.95153 97.1423 9.60375C97.982 7.89528 98.5773 4.97064 98.5773 4.97064C98.5773 4.97064 98.7645 4.41413 98.639 4.0621C98.5773 3.82698 98.6295 3.64899 98.5144 3.4171C98.4022 3.18825 98.2811 3.08197 98.0783 2.91861C97.8542 2.73846 97.7038 2.71302 97.4224 2.56654H97.2978" fill="white"/>
<path d="M92.8888 4.98589L91.5781 9.26707C91.5781 9.26707 91.7799 9.37555 91.9223 9.41349C92.133 9.46936 92.2643 9.44813 92.4829 9.44335C92.753 9.43737 92.9145 9.43737 93.169 9.35491C93.53 9.2369 93.724 9.08811 93.9494 8.79844C94.1356 8.55704 94.1489 8.37266 94.2611 8.0944C94.5211 7.44726 94.7914 6.39333 94.7914 6.39333C94.7914 6.39333 94.9058 6.04026 94.916 5.80732C94.9255 5.56592 95.0145 5.37944 94.8543 5.19185C94.7545 5.07474 94.6535 5.05173 94.5101 4.9863C93.9429 4.72489 92.8888 4.98589 92.8888 4.98589Z" fill="#C7D0D6" stroke="#C7D0D6" stroke-width="1.39696" stroke-miterlimit="3.864"/>
<path d="M99.2798 4.5077L96.5039 13.5379C96.5039 13.5379 96.3885 14.6804 96.7851 15.239C97.0184 15.5689 97.2381 15.7017 97.5957 15.9135C98.237 16.294 98.7157 16.3151 99.4669 16.4121C100.31 16.5205 100.809 16.508 101.65 16.3822C102.349 16.2779 102.757 16.2008 103.396 15.9132C103.926 15.6739 104.212 15.4937 104.644 15.1217C105.182 14.658 105.767 13.7726 105.767 13.7136C105.767 13.7136 107.139 9.40401 107.139 9.46197L108.199 5.94382C108.138 5.94382 108.637 4.74863 108.449 4.00876C108.346 3.60613 108.325 3.21723 107.981 3.04123C107.608 2.8073 107.308 2.61857 106.827 2.45521C106.179 2.23383 105.77 2.22218 105.08 2.19081C104.326 2.15615 103.89 2.17589 103.148 2.30883C102.587 2.40892 102.27 2.48361 101.744 2.6893C101.089 2.94653 100.723 3.13617 100.184 3.5693C99.7854 3.88972 99.2798 4.5077 99.2798 4.5077Z" fill="white"/>
<path d="M102.361 5.61355L100.178 12.6508C100.178 12.6508 99.9905 13.4412 100.458 13.6467C100.708 13.7352 101.026 13.8332 101.394 13.7932C101.704 13.7606 101.955 13.6172 102.142 13.5296C102.548 13.3241 102.548 12.7676 102.641 12.8551C102.673 12.885 104.45 6.7865 104.45 6.7865L104.731 5.73044C104.731 5.73044 104.918 5.37844 104.606 4.96846C104.543 4.85134 104.241 4.77335 103.983 4.73332C103.54 4.6658 103.234 4.79219 102.859 4.96846C102.61 5.08557 102.361 5.61355 102.361 5.61355Z" fill="#C7D0D6" stroke="#C7D0D6" stroke-width="1.39696" stroke-miterlimit="3.864"/>
<path d="M119.141 2.56659L118.487 4.85367H120.701L117.395 15.8778H120.669L123.976 4.97046H126.346L127.095 2.56641L119.141 2.56659Z" fill="white"/>
<path d="M114.121 7.04759H117.427C117.427 7.04759 117.653 6.30035 117.77 5.81657C117.881 5.36127 118.015 5.10939 118.019 4.64354C118.026 4.11868 118.035 3.76771 117.739 3.32403C117.533 3.01625 117.348 2.87504 117.021 2.67903C116.681 2.47468 116.446 2.42385 116.055 2.32696C115.627 2.2215 115.372 2.21195 114.932 2.18058C114.362 2.13935 114.033 2.1047 113.466 2.18058C113.145 2.2239 112.972 2.28903 112.655 2.35655C112.267 2.4387 112.031 2.43154 111.657 2.5621C111.223 2.71297 111.009 2.87196 110.628 3.11862C110.294 3.33581 110.105 3.46537 109.817 3.73518C109.547 3.98613 109.379 4.12616 109.193 4.43812C109.022 4.72583 108.98 4.91351 108.881 5.22969C108.79 5.52277 108.739 5.69025 108.694 5.99167C108.639 6.36583 108.588 6.58925 108.662 6.96025C108.719 7.24795 108.811 7.39761 108.942 7.66324C109.229 8.24498 109.533 8.49794 109.94 9.01228C110.235 9.38433 110.403 9.59404 110.72 9.95027C111.024 10.2918 111.229 10.4572 111.531 10.8008C111.718 11.0138 111.847 11.1202 111.998 11.3573C112.155 11.6041 112.256 11.7494 112.31 12.0318C112.365 12.3133 112.361 12.4892 112.278 12.7654C112.213 12.9868 112.166 13.1269 111.997 13.2923C111.791 13.4958 111.607 13.5737 111.311 13.6159C111.007 13.658 110.8 13.6398 110.532 13.4979C110.343 13.3987 110.228 13.324 110.126 13.1459C110.02 12.9625 110.033 12.8276 110.033 12.6189C110.033 12.385 110.101 12.2595 110.157 12.0319C110.211 11.8138 110.313 11.4754 110.313 11.4754H106.883C106.883 11.4754 106.758 11.7577 106.695 11.9444C106.598 12.2354 106.574 12.4081 106.508 12.7064C106.41 13.1501 106.281 13.3967 106.289 13.8499C106.299 14.2473 106.34 14.4833 106.508 14.8469C106.648 15.1494 106.756 15.3202 107.007 15.551C107.254 15.7766 107.447 15.8482 107.756 15.9905C108.278 16.2298 108.615 16.2919 109.19 16.372C109.84 16.4616 110.221 16.4321 110.875 16.372C111.591 16.3057 112.007 16.2528 112.683 16.02C113.195 15.8428 113.473 15.708 113.931 15.4329C114.376 15.1664 114.631 15.005 114.992 14.6414C115.362 14.2684 115.54 14.0186 115.771 13.5569C116.013 13.0721 116.097 12.7675 116.177 12.2374C116.272 11.6029 116.324 11.214 116.145 10.5953C116.01 10.1263 115.839 9.886 115.553 9.48128C115.21 8.99541 114.915 8.79414 114.492 8.36728C114.041 7.91197 113.739 7.69589 113.307 7.22374C113.012 6.90335 112.766 6.76323 112.59 6.37323C112.439 6.04125 112.34 5.82095 112.403 5.46469C112.439 5.25705 112.467 5.11904 112.621 4.9662C112.759 4.82817 112.895 4.81233 113.089 4.76065C113.289 4.70807 113.412 4.67731 113.619 4.70271C113.861 4.73258 114.007 4.80278 114.181 4.9662C114.319 5.09675 114.385 5.19681 114.43 5.37616C114.482 5.58798 114.423 5.71662 114.398 5.93373C114.376 6.16347 114.361 6.29524 114.305 6.5197C114.251 6.73062 114.118 7.04773 114.118 7.04773" fill="white"/>
<path d="M114.121 7.04759H117.427C117.427 7.04759 117.653 6.30035 117.77 5.81657C117.881 5.36127 118.015 5.10939 118.019 4.64354C118.026 4.11868 118.035 3.76771 117.739 3.32403C117.533 3.01625 117.348 2.87504 117.021 2.67903C116.681 2.47468 116.446 2.42385 116.055 2.32696C115.627 2.2215 115.372 2.21195 114.932 2.18058C114.362 2.13935 114.033 2.1047 113.466 2.18058C113.145 2.2239 112.972 2.28903 112.655 2.35655C112.267 2.4387 112.031 2.43154 111.657 2.5621C111.223 2.71297 111.009 2.87196 110.628 3.11862C110.294 3.33581 110.105 3.46537 109.817 3.73518C109.547 3.98613 109.379 4.12616 109.193 4.43812C109.022 4.72583 108.98 4.91351 108.881 5.22969C108.79 5.52277 108.739 5.69025 108.694 5.99167C108.639 6.36583 108.588 6.58925 108.662 6.96025C108.719 7.24795 108.811 7.39761 108.942 7.66324C109.229 8.24498 109.533 8.49794 109.94 9.01228C110.235 9.38432 110.403 9.59404 110.72 9.95027C111.024 10.2918 111.229 10.4572 111.531 10.8008C111.718 11.0138 111.847 11.1202 111.998 11.3573C112.155 11.6041 112.256 11.7494 112.31 12.0318C112.365 12.3133 112.361 12.4892 112.278 12.7654C112.213 12.9868 112.166 13.1269 111.997 13.2923C111.791 13.4958 111.607 13.5737 111.311 13.6159C111.007 13.658 110.8 13.6398 110.532 13.4979C110.343 13.3987 110.228 13.324 110.126 13.1459C110.02 12.9625 110.033 12.8276 110.033 12.6189C110.033 12.385 110.101 12.2595 110.157 12.0319C110.211 11.8138 110.313 11.4754 110.313 11.4754H106.883C106.883 11.4754 106.758 11.7577 106.695 11.9444C106.598 12.2354 106.574 12.4081 106.508 12.7064C106.41 13.1501 106.281 13.3967 106.289 13.8499C106.299 14.2473 106.34 14.4833 106.508 14.8469C106.648 15.1494 106.756 15.3202 107.007 15.551C107.254 15.7766 107.447 15.8482 107.756 15.9905C108.278 16.2298 108.615 16.2919 109.19 16.372C109.84 16.4616 110.221 16.4321 110.875 16.372C111.591 16.3057 112.007 16.2528 112.683 16.02C113.195 15.8428 113.473 15.708 113.931 15.4329C114.376 15.1664 114.631 15.005 114.992 14.6414C115.362 14.2684 115.54 14.0186 115.771 13.5569C116.013 13.0721 116.097 12.7675 116.177 12.2374C116.272 11.6029 116.324 11.214 116.145 10.5953C116.01 10.1263 115.839 9.886 115.553 9.48128C115.21 8.99541 114.915 8.79414 114.492 8.36728C114.041 7.91197 113.739 7.69589 113.307 7.22374C113.012 6.90335 112.766 6.76323 112.59 6.37323C112.439 6.04125 112.34 5.82095 112.403 5.46469C112.439 5.25705 112.467 5.11904 112.621 4.9662C112.759 4.82817 112.895 4.81233 113.089 4.76065C113.289 4.70807 113.412 4.67731 113.619 4.70271C113.861 4.73258 114.007 4.80278 114.181 4.9662C114.319 5.09675 114.385 5.19681 114.43 5.37616C114.482 5.58798 114.423 5.71662 114.398 5.93373C114.376 6.16347 114.361 6.29524 114.305 6.5197C114.251 6.73062 114.118 7.04773 114.118 7.04773L114.121 7.04759Z" stroke="#C7D0D6" stroke-width="1.39696" stroke-miterlimit="3.864"/>
<path d="M99.2798 4.50771L96.5039 13.5379C96.5039 13.5379 96.3885 14.6804 96.7851 15.239C97.0184 15.5689 97.2381 15.7017 97.5957 15.9135C98.237 16.294 98.7157 16.3151 99.4669 16.4121C100.31 16.5205 100.809 16.508 101.65 16.3822C102.349 16.2779 102.757 16.2008 103.396 15.9132C103.926 15.6739 104.212 15.4937 104.644 15.1217C105.182 14.658 105.767 13.7726 105.767 13.7136C105.767 13.7136 107.139 9.40401 107.139 9.46197L108.199 5.94382C108.138 5.94382 108.637 4.74863 108.449 4.00876C108.346 3.60613 108.325 3.21723 107.981 3.04123C107.608 2.8073 107.308 2.61857 106.827 2.45521C106.179 2.23383 105.77 2.22218 105.08 2.19081C104.326 2.15615 103.89 2.17589 103.148 2.30883C102.587 2.40892 102.27 2.48361 101.744 2.6893C101.089 2.94653 100.723 3.13617 100.184 3.5693C99.7854 3.88972 99.2798 4.50771 99.2798 4.50771Z" stroke="#C7D0D6" stroke-width="1.39696" stroke-miterlimit="3.864"/>
<path d="M90.0939 2.56641L86.1328 15.8778H89.4389L90.7484 11.8317C90.7484 11.8317 93.337 11.9489 94.0233 11.8317C94.5536 11.7433 94.8944 11.6379 95.3956 11.3912C95.9505 11.1193 96.297 10.9517 96.6748 10.4827C96.9204 10.1771 96.9706 9.95153 97.1423 9.60375C97.982 7.89528 98.5773 4.97064 98.5773 4.97064C98.5773 4.97064 98.7645 4.41413 98.639 4.0621C98.5773 3.82698 98.6295 3.64899 98.5144 3.4171C98.4022 3.18825 98.2811 3.08197 98.0783 2.91861C97.8542 2.73846 97.7038 2.71302 97.4224 2.56654H97.2978L90.0939 2.56641Z" stroke="#C7D0D6" stroke-width="1.39696" stroke-miterlimit="3.864"/>
<path d="M119.141 2.56659L118.487 4.85367H120.701L117.395 15.8778H120.669L123.976 4.97046H126.346L127.095 2.56641L119.141 2.56659Z" stroke="#C7D0D6" stroke-width="1.39696" stroke-miterlimit="3.864"/>
</g>
<defs>
<clipPath id="clip0_1910_2682">
<rect width="128" height="20" fill="white"/>
</clipPath>
</defs>
</svg>
