<svg width="157" height="24" viewBox="0 0 157 24" fill="none" xmlns="http://www.w3.org/2000/svg">
<g clip-path="url(#clip0_1910_2750)">
<path d="M23.5059 11.8408C23.5059 18.3803 18.2442 23.6816 11.7523 23.6816C5.26167 23.6816 0 18.3803 0 11.8408C0 5.30129 5.26167 0 11.7523 0C18.2442 0 23.5059 5.30129 23.5059 11.8408Z" fill="#C7D0D6"/>
<path d="M34.4875 16.9227C32.6376 16.9227 31.6052 15.7822 31.6052 13.7704V3.55859H27.0195V13.744C27.0195 18.2163 29.729 20.7719 34.4875 20.7719C39.2461 20.7719 41.9556 18.2163 41.9556 13.744V3.55859H37.3699V13.7704C37.3699 15.7822 36.3375 16.9227 34.4875 16.9227Z" fill="#C7D0D6"/>
<path d="M50.0495 20.7718C54.0692 20.7718 56.7052 18.6122 56.7052 15.4071C56.7052 13.1208 55.3479 11.3572 51.7475 10.3646L50.4898 10.0161C48.6922 9.51973 48.0266 8.97587 48.0266 8.17857C48.0266 7.33374 48.7656 6.86381 50.0705 6.86381C51.6532 6.86381 53.3512 7.75615 54.5356 8.77523L56.8258 5.87113C55.0282 4.22899 52.6122 3.23633 50.0495 3.23633C46.1767 3.23633 43.4672 5.3484 43.4672 8.60099C43.4672 11.1091 45.0918 12.7512 48.1 13.5432L49.1377 13.8178C51.3807 14.4145 52.1458 14.8633 52.1458 15.7556C52.1458 16.6744 51.3545 17.1443 50.0233 17.1443C48.0528 17.1443 46.423 16.4262 45.0918 15.2329L42.875 18.0419C44.725 19.7791 47.3139 20.7718 50.0495 20.7718Z" fill="#C7D0D6"/>
<path d="M69.7948 20.4499H74.459L68.3169 3.55859H62.9923L56.8555 20.4499H61.3887L62.4525 17.2976H68.7362L69.7948 20.4499ZM63.6108 13.8655L65.6075 7.95697L67.578 13.8655H63.6108Z" fill="#C7D0D6"/>
<path d="M83.3068 20.4499H87.8924V7.28639H92.8763V3.55859H78.3281V7.28639H83.3068V20.4499Z" fill="#C7D0D6"/>
<path d="M101.463 20.7718C106.488 20.7718 110.162 17.1707 110.162 12.0278C110.162 6.89021 106.488 3.23633 101.463 3.23633C96.4316 3.23633 92.7578 6.89021 92.7578 12.0278C92.7578 17.1707 96.4316 20.7718 101.463 20.7718ZM101.463 16.9489C99.0729 16.9489 97.4168 14.9583 97.4168 12.0278C97.4168 9.09732 99.0729 7.06446 101.463 7.06446C103.852 7.06446 105.503 9.09732 105.503 12.0278C105.503 14.9583 103.852 16.9489 101.463 16.9489Z" fill="#C7D0D6"/>
<path d="M111.75 20.4499H118.353C123.311 20.4499 126.838 16.9702 126.838 12.0069C126.838 7.03822 123.311 3.55859 118.353 3.55859H111.75V20.4499ZM116.262 16.8013V7.21247H118.353C120.769 7.21247 122.252 9.12389 122.252 12.0069C122.252 14.8846 120.769 16.8013 118.353 16.8013H116.262Z" fill="#C7D0D6"/>
<path d="M138.932 20.4499H143.596L137.454 3.55859H132.129L125.992 20.4499H130.525L131.589 17.2976H137.873L138.932 20.4499ZM132.747 13.8655L134.744 7.95697L136.715 13.8655H132.747Z" fill="#C7D0D6"/>
<path d="M151.063 14.3671L157.001 3.55859H151.828L148.747 10.2644L145.639 3.55859H140.461L146.404 14.3671V20.4499H151.063V14.3671Z" fill="#C7D0D6"/>
</g>
<defs>
<clipPath id="clip0_1910_2750">
<rect width="157" height="23.6816" fill="white"/>
</clipPath>
</defs>
</svg>
