<svg width="38" height="22" viewBox="0 0 38 22" fill="none" xmlns="http://www.w3.org/2000/svg">
<g clip-path="url(#clip0_1910_2744)">
<path fill-rule="evenodd" clip-rule="evenodd" d="M9.20196 3.91543C8.60588 1.08153 8.41961 0.96967 7.07843 0.895094V0.410348H13.0765V0.895094C11.4373 1.04425 11.4 1.04425 11.9961 4.36289L13.9706 14.8409L16.3176 3.57984C16.802 1.26798 16.6157 1.04425 15.0882 0.932382L14.6039 0.895094V0.410348H18.8882V0.895094C17.5843 1.00696 17.5843 1.34255 17.0627 3.80357L13.2255 22.0002H12.8529L9.57451 5.70526L6.1098 22.0002H5.73726L1.82549 2.90865C1.4902 1.23069 1.41569 0.96967 0 0.895094V0.410348H5.84902V0.895094C4.35882 1.04425 4.32157 1.1934 4.91765 4.36289L6.92941 14.7663L9.20196 3.91543ZM24.8118 21.8883C22.6882 21.8883 21.4216 19.912 20.9373 19.912C20.4157 19.912 19.8196 21.0307 19.6333 21.5154H19.1863V14.5053H19.6333C20.9373 18.3459 23.0235 21.3663 24.7373 21.3663C25.7431 21.3663 26.3765 20.4341 26.3765 19.0544C26.3765 13.9832 19.298 10.7019 19.298 4.47476C19.298 1.93916 21.0863 -0.0371094 23.0235 -0.0371094C24.7745 -0.0371094 25.7431 1.37984 26.302 1.37984C26.6 1.37984 26.8235 1.15611 27.1961 0.261196H27.5314V6.5256H27.0843C26.2647 3.50526 24.5882 0.447636 22.949 0.447636C21.9431 0.447636 21.198 1.37984 21.198 2.7595C21.198 7.64425 28.2765 10.7392 28.2765 17.19C28.3137 19.8748 26.6745 21.8883 24.8118 21.8883ZM32.151 21.8883C29.9902 21.8883 29.1333 20.5459 29.1333 19.2409C29.1333 17.9358 29.9157 16.5934 31.1078 16.5934C32.3745 16.5934 32.8961 17.8612 32.3 18.7561C31.8157 19.5392 30.5118 19.6137 30.5118 20.2103C30.5118 21.1426 31.2941 21.3663 31.9275 21.3663C33.7902 21.3663 33.6784 20.2103 33.6784 16.2578V2.27476C33.6784 1.15611 33.4176 0.895094 32.2255 0.895094H31.7784V0.410348H38V0.895094H37.4784C36.8451 0.895094 36.5843 1.15611 36.5843 2.31204V15.9968C36.5843 19.8375 33.8275 21.8883 32.151 21.8883Z" fill="#C7D0D6"/>
</g>
<defs>
<clipPath id="clip0_1910_2744">
<rect width="38" height="22" fill="white"/>
</clipPath>
</defs>
</svg>
