<svg width="24" height="24" viewBox="0 0 24 24" fill="none" xmlns="http://www.w3.org/2000/svg">
<path d="M13.6069 0.190487C13.3937 0.379983 11.7356 3.6705 11.7356 3.6705L10.502 8.64674L15.3025 8.20655C15.3025 8.20655 19.2957 0.780688 19.3767 0.608957C19.5208 0.297078 19.5978 0.168774 19.047 0.168774C18.4963 0.1668 13.8063 0.0128346 13.6069 0.190487Z" fill="#176CC7"/>
<path d="M16.0886 7.89848C15.8497 7.77018 8.81468 7.65964 8.64887 7.89848C8.49885 8.11562 8.52056 9.10849 8.5936 9.2368C8.66663 9.3651 11.0314 10.4646 11.0314 10.4646L11.0294 10.8653C11.0294 10.8653 11.1597 11.1791 12.4783 11.1791C13.7968 11.1791 13.933 10.9127 13.933 10.9127L13.9449 10.508C13.9449 10.508 16.0155 9.47367 16.1241 9.38287C16.2346 9.29009 16.3274 8.02679 16.0886 7.89848ZM13.9212 9.54276C13.9212 9.54276 13.9153 9.26641 13.7791 9.19732C13.6429 9.12823 11.4499 9.14008 11.2643 9.14995C11.0788 9.15982 11.0788 9.49143 11.0788 9.49143L9.57858 8.76109V8.61501L15.1648 8.65449L15.1746 8.8203L13.9212 9.54276Z" fill="#FCC417"/>
<path d="M11.6671 9.4541C11.4816 9.4541 11.375 9.64755 11.375 9.98114C11.375 10.293 11.4816 10.5555 11.7165 10.5358C11.9099 10.52 11.977 10.2239 11.9593 9.9614C11.9415 9.64952 11.902 9.4541 11.6671 9.4541Z" fill="#FDFFFF"/>
<path d="M5.69141 17.2617C5.69141 21.9912 9.96691 24.0974 12.8093 23.9967C15.9439 23.8842 19.6983 21.4405 19.4713 16.9281C19.2561 12.6526 15.6597 10.6254 12.5448 10.6471C8.92468 10.6728 5.69141 13.1303 5.69141 17.2617Z" fill="#FCC417"/>
<path d="M12.707 23.1735C12.6577 23.1735 12.6064 23.1735 12.557 23.1715C11.0766 23.1222 9.61391 22.4984 8.54405 21.4621C7.39918 20.3528 6.77147 18.8526 6.77937 17.2399C6.79714 13.3019 10.2396 11.4761 12.5748 11.4761C12.5807 11.4761 12.5886 11.4761 12.5945 11.4761C15.7587 11.4899 18.3564 13.9494 18.4294 17.2833C18.461 18.7677 17.853 20.3251 16.6608 21.4976C15.5475 22.5892 14.071 23.1735 12.707 23.1735ZM12.5708 12.1314C10.4765 12.1314 7.37944 13.8448 7.37154 17.2399C7.36562 19.7784 9.33164 22.3879 12.6064 22.4984C13.8539 22.5379 15.1389 22.0602 16.1772 21.0397C17.2549 19.9797 17.8609 18.6138 17.8392 17.2912C17.7918 14.4231 15.4468 12.1413 12.6004 12.1294C12.5925 12.1294 12.5768 12.1314 12.5708 12.1314Z" fill="#FA912C"/>
<path d="M11.3799 11.3174C11.2437 11.1299 9.70015 11.1654 8.24142 12.5906C6.83402 13.9664 6.68203 15.2633 6.95246 15.3383C7.25842 15.4232 7.63149 14.0493 8.92045 12.8946C10.1048 11.8366 11.6523 11.6905 11.3799 11.3174Z" fill="#FEFFFA"/>
<path d="M17.3483 16.4236C16.8726 16.4907 17.3661 17.9159 16.2627 19.5108C15.3053 20.8945 14.2197 21.3959 14.346 21.6999C14.5158 22.1065 16.2548 21.0939 17.0601 19.4437C17.7905 17.9494 17.7036 16.3723 17.3483 16.4236Z" fill="#FEFFFA"/>
<path d="M10.9932 14.5573C10.8906 14.7093 10.9833 16.0417 11.0445 16.1009C11.163 16.2194 12.0631 15.795 12.0631 15.795L12.0295 19.3579C12.0295 19.3579 11.3683 19.35 11.2992 19.3757C11.163 19.427 11.1807 20.8008 11.2814 20.8679C11.3821 20.935 14.0804 20.9706 14.1831 20.8344C14.2857 20.6982 14.26 19.4961 14.2127 19.4408C14.1278 19.3381 13.4823 19.3796 13.4823 19.3796C13.4823 19.3796 13.5376 14.1329 13.5198 13.9651C13.5021 13.7974 13.3165 13.6928 13.0954 13.7441C12.8744 13.7954 11.0584 14.4586 10.9932 14.5573Z" fill="#FA912C"/>
<path d="M5.0024 0.0882298C4.87804 0.202717 9.6332 8.67081 9.6332 8.67081C9.6332 8.67081 10.4307 8.77346 12.2111 8.78925C13.9916 8.80504 14.8739 8.6866 14.8739 8.6866C14.8739 8.6866 11.1768 0.173108 10.9557 0.0882298C10.8472 0.0448037 9.38251 0.0290124 7.95143 0.013221C6.51836 -0.00454421 5.12083 -0.0223094 5.0024 0.0882298Z" fill="#2E9DF4"/>
</svg>
