<svg width="24" height="24" viewBox="0 0 24 24" fill="none" xmlns="http://www.w3.org/2000/svg">
<path d="M13.5547 0.188986C13.3428 0.37732 11.6949 3.64766 11.6949 3.64766L10.4688 8.59339L15.2399 8.1559C15.2399 8.1559 19.2086 0.775568 19.2891 0.60489C19.4323 0.294924 19.5088 0.167406 18.9614 0.167406C18.4141 0.165444 13.7528 0.0124231 13.5547 0.188986Z" fill="#176CC7"/>
<path d="M16.0246 7.85026C15.7872 7.72274 8.79532 7.61288 8.63053 7.85026C8.48143 8.06606 8.56579 9.19802 8.62268 9.33339C8.7247 9.56881 10.9827 10.5948 10.9827 10.5948L10.9396 11.0617C10.9396 11.0617 11.124 11.1088 12.4364 11.1088C13.7489 11.1088 14.0079 11.0421 14.0079 11.0421L14.0118 10.6203C14.0118 10.6203 16.0442 9.63158 16.1462 9.49426C16.2326 9.38047 16.262 7.97778 16.0246 7.85026ZM13.9431 9.63943C13.9431 9.63943 14.0079 9.35104 13.8725 9.28434C13.7371 9.21568 11.4143 9.24707 11.2299 9.25688C11.0455 9.26669 11.0455 9.59627 11.0455 9.59627L9.58201 8.84294L9.55454 8.5624L15.1065 8.60163L15.0869 8.86648L13.9431 9.63943Z" fill="#F79429"/>
<path d="M11.6263 9.53711C11.4419 9.53711 11.3359 9.72937 11.3359 10.0609C11.3359 10.3709 11.4419 10.6318 11.6753 10.6122C11.8676 10.5965 11.9343 10.3022 11.9166 10.0413C11.899 9.72937 11.8597 9.53711 11.6263 9.53711Z" fill="#FDFFFF"/>
<path d="M5.74414 17.4255C5.74414 22.126 10.0032 24.0819 12.8302 23.9976C16.1241 23.8995 19.6671 21.4002 19.3748 16.9154C19.1002 12.7074 15.5571 10.7769 12.4614 10.7985C8.86342 10.826 5.74414 13.3194 5.74414 17.4255Z" fill="#F79429"/>
<path d="M12.6824 23.2863C12.6334 23.2863 12.5824 23.2863 12.5333 23.2844C11.062 23.2353 9.60825 22.6154 8.54495 21.5855C7.4071 20.4829 6.78324 18.9919 6.79109 17.3891C6.80875 13.4753 10.2301 11.6606 12.551 11.6606C12.5569 11.6606 12.5647 11.6606 12.5706 11.6606C15.7154 11.6744 18.2971 14.1188 18.3697 17.4323C18.4011 18.9076 17.9303 20.375 16.7453 21.5403C15.6389 22.6233 14.038 23.2863 12.6824 23.2863ZM12.547 12.312C10.4656 12.312 7.38748 14.0148 7.37963 17.3891C7.37375 19.912 9.32771 22.5055 12.5824 22.6154C13.8222 22.6546 15.221 22.1956 16.2509 21.1833C17.3221 20.1298 17.8027 18.7565 17.7812 17.4421C17.7341 14.5916 15.4034 12.3237 12.5745 12.312C12.5686 12.308 12.5529 12.312 12.547 12.312Z" fill="#D25116"/>
<path d="M11.3903 11.4168C11.255 11.2305 9.86796 11.2834 8.37502 12.5684C6.89189 13.8456 6.67021 15.2581 6.93701 15.3326C7.24109 15.417 7.61188 14.0515 8.89294 12.9039C10.07 11.8543 11.6591 11.7876 11.3903 11.4168Z" fill="#FEFFFA"/>
<path d="M17.3533 16.552C16.8805 16.6187 17.371 18.0351 16.2743 19.6203C15.3228 20.9955 14.2438 21.4938 14.3694 21.7959C14.5381 22.2001 16.2665 21.1936 17.0669 19.5536C17.7908 18.0685 17.7045 16.501 17.3533 16.552Z" fill="#FEFFFA"/>
<path d="M5.00238 0.0876889C4.87879 0.201474 9.60479 8.61765 9.60479 8.61765C9.60479 8.61765 10.3974 8.71966 12.1669 8.73536C13.9365 8.75105 14.8134 8.63334 14.8134 8.63334C14.8134 8.63334 11.1389 0.172047 10.9192 0.0876889C10.8113 0.044529 9.35564 0.0288345 7.93333 0.01314C6.50905 -0.00451634 5.12009 -0.0221726 5.00238 0.0876889Z" fill="#2E9DF4"/>
<path d="M14.7029 15.7814C14.4753 13.8098 12.18 13.645 11.2285 14.4022C10.3025 15.1399 10.3908 16.1679 11.0401 16.2875C11.5522 16.3817 11.6856 15.9756 11.8347 15.7892C12.1721 15.3714 12.7097 15.3321 13.0608 15.6676C13.4591 16.0501 13.2138 16.9644 12.6155 17.0016C12.1702 17.0291 11.9445 17.0056 11.8877 17.0821C11.8072 17.19 11.819 18.0394 11.9014 18.1336C11.9956 18.2415 12.3722 18.1748 12.6959 18.1866C13.1413 18.2042 13.614 18.8634 13.3021 19.3578C12.9784 19.8698 12.1172 19.6403 11.8072 19.3303C11.3972 18.9203 10.9872 19.1557 10.8499 19.3166C10.6341 19.5716 10.4045 20.1523 11.201 20.7173C11.9956 21.2823 14.4066 21.3902 14.8931 19.6403C15.3169 18.112 14.3281 17.4842 14.3281 17.4842C14.3281 17.4842 14.8323 16.9055 14.7029 15.7814Z" fill="#D25116"/>
</svg>
