<svg width="24" height="24" viewBox="0 0 24 24" fill="none" xmlns="http://www.w3.org/2000/svg">
<g clip-path="url(#clip0_3931_7149)">
<path d="M8.928 3.22667L10.56 6H7.12533C6.86344 6.02804 6.59857 6.00065 6.34795 5.91962C6.09733 5.83859 5.86657 5.70573 5.67066 5.52968C5.47475 5.35362 5.31808 5.13831 5.21083 4.89774C5.10359 4.65717 5.04816 4.39673 5.04816 4.13333C5.04816 3.86994 5.10359 3.6095 5.21083 3.36893C5.31808 3.12836 5.47475 2.91305 5.67066 2.73699C5.86657 2.56094 6.09733 2.42808 6.34795 2.34705C6.59857 2.26602 6.86344 2.23863 7.12533 2.26667H7.22667C7.56938 2.26421 7.90677 2.35154 8.20526 2.51996C8.50374 2.68839 8.75292 2.93204 8.928 3.22667ZM3.00267 4.12267C3.00528 4.77651 3.16438 5.42023 3.46667 6H1.49867C1.1012 6 0.720004 6.1579 0.438949 6.43895C0.157895 6.72 0 7.1012 0 7.49867V10.5013C0 10.6981 0.0387641 10.893 0.114079 11.0748C0.189394 11.2567 0.299785 11.4219 0.438949 11.5611C0.578113 11.7002 0.743325 11.8106 0.925152 11.8859C1.10698 11.9612 1.30186 12 1.49867 12H22.5013C22.8988 12 23.28 11.8421 23.5611 11.5611C23.8421 11.28 24 10.8988 24 10.5013V7.49867C24 7.1012 23.8421 6.72 23.5611 6.43895C23.28 6.1579 22.8988 6 22.5013 6H20.5333C20.8543 5.3724 21.0091 4.67297 20.9827 3.96853C20.9564 3.26409 20.7498 2.57817 20.3828 1.9763C20.0158 1.37444 19.5006 0.876736 18.8864 0.530739C18.2722 0.184741 17.5796 0.00200987 16.8747 1.24097e-06H16.8C16.0644 -3.20355e-05 15.3415 0.19181 14.7026 0.556583C14.0638 0.921357 13.5312 1.44645 13.1573 2.08L12 4L10.8693 2.08C10.4959 1.44609 9.96335 0.920706 9.32444 0.55588C8.68553 0.191055 7.9624 -0.00056265 7.22667 1.24097e-06H7.12533C6.03193 1.24097e-06 4.98332 0.434352 4.21017 1.2075C3.43702 1.98065 3.00267 3.02927 3.00267 4.12267ZM18.752 4.12267C18.752 4.62057 18.5542 5.09807 18.2021 5.45014C17.8501 5.80221 17.3726 6 16.8747 6H13.44L15.072 3.22667C15.2473 2.92511 15.4998 2.67571 15.8036 2.50417C16.1073 2.33262 16.4512 2.24512 16.8 2.25067H16.9013C17.3937 2.25766 17.8636 2.4578 18.2097 2.80797C18.5559 3.15813 18.7507 3.63028 18.752 4.12267ZM1.49867 13.4987V21.7493C1.49867 22.3462 1.73579 22.9187 2.15787 23.3408C2.57995 23.7629 3.15242 24 3.74933 24H10.5013V13.4987H1.49867ZM13.4987 24H20.2507C20.8476 24 21.42 23.7629 21.8421 23.3408C22.2642 22.9187 22.5013 22.3462 22.5013 21.7493V13.4987H13.4987V24Z" fill="#13D16A"/>
</g>
<defs>
<clipPath id="clip0_3931_7149">
<rect width="24" height="24" fill="white"/>
</clipPath>
</defs>
</svg>
