<svg width="24" height="24" viewBox="0 0 24 24" fill="none" xmlns="http://www.w3.org/2000/svg">
<g clip-path="url(#clip0_1560_3081)">
<path d="M11.9986 23.1284C6.22687 23.1284 0 19.5081 0 11.5642C0 3.62027 6.22687 0 11.9986 0C15.2051 0 18.1634 1.05505 20.3563 2.97897C22.7353 5.08907 23.9972 8.06804 23.9972 11.5642C23.9972 15.0603 22.7353 18.0186 20.3563 20.1287C18.1634 22.0526 15.1845 23.1284 11.9986 23.1284Z" fill="url(#paint0_radial_1560_3081)"/>
<path d="M21.9091 4.68896C23.0117 6.46807 23.5868 8.58645 23.5868 10.9427C23.5868 14.4389 22.3249 17.3972 19.9459 19.5073C17.753 21.4312 14.7741 22.5069 11.5882 22.5069C7.8521 22.5069 3.92566 20.9864 1.62109 17.7613C3.84704 21.4146 8.03208 23.1275 12.002 23.1275C15.1878 23.1275 18.1668 22.0518 20.3596 20.1279C22.7387 18.0178 24.0006 15.0595 24.0006 11.5633C24.0006 8.92779 23.2827 6.58599 21.9091 4.68896Z" fill="#EB8F00"/>
<path opacity="0.8" d="M4.48746 17.0345C6.48688 17.0345 8.10773 15.4136 8.10773 13.4142C8.10773 11.4148 6.48688 9.79395 4.48746 9.79395C2.48804 9.79395 0.867188 11.4148 0.867188 13.4142C0.867188 15.4136 2.48804 17.0345 4.48746 17.0345Z" fill="url(#paint1_radial_1560_3081)"/>
<path opacity="0.8" d="M19.6925 17.0345C21.692 17.0345 23.3128 15.4136 23.3128 13.4142C23.3128 11.4148 21.692 9.79395 19.6925 9.79395C17.6931 9.79395 16.0723 11.4148 16.0723 13.4142C16.0723 15.4136 17.6931 17.0345 19.6925 17.0345Z" fill="url(#paint2_radial_1560_3081)"/>
<path d="M8.96152 10.32C8.96152 10.32 8.95118 10.3055 8.92842 10.2787C8.90773 10.2518 8.87877 10.2145 8.84154 10.1669C8.8105 10.1338 8.77327 10.0945 8.72982 10.049C8.68638 9.99937 8.63259 9.94765 8.57881 9.89387C8.52295 9.84215 8.46503 9.78836 8.40503 9.74492C8.34711 9.69734 8.28298 9.66217 8.23126 9.63321C8.17747 9.60011 8.12782 9.59183 8.09679 9.58149C8.08024 9.57528 8.06576 9.57528 8.05335 9.57321C8.04714 9.57528 8.04094 9.57115 8.03473 9.57321L8.02646 9.57528H8.02232H8.02025C8.04508 9.57528 7.96439 9.57735 8.07611 9.57321L7.96233 9.57735C7.93336 9.57735 7.95198 9.57942 7.95405 9.57942C7.96026 9.57942 7.96439 9.57942 7.96853 9.57735C7.98508 9.57115 7.96853 9.57735 7.96439 9.57735C7.95819 9.57735 7.94991 9.57942 7.94164 9.58356C7.90854 9.5939 7.85889 9.60218 7.80717 9.63528C7.75545 9.66424 7.69132 9.69941 7.6334 9.74699C7.57547 9.7925 7.51548 9.84422 7.45963 9.89594C7.35205 10.0014 7.25689 10.1069 7.19069 10.1835C7.12242 10.2621 7.08519 10.3076 7.08519 10.3076L7.0376 10.3635C6.75419 10.6945 6.23287 10.7503 5.87498 10.4897C5.63087 10.3118 5.52536 10.0345 5.57088 9.76974C5.57088 9.76974 5.58536 9.68493 5.62673 9.53805C5.67018 9.39117 5.74258 9.18223 5.88532 8.93605C6.02807 8.69194 6.23494 8.40438 6.58455 8.14166C6.75626 8.01339 6.9652 7.88513 7.21345 7.79825C7.27344 7.77549 7.33757 7.7548 7.40377 7.73825C7.47204 7.7217 7.52582 7.70309 7.61892 7.69067L7.74718 7.67205C7.78648 7.66792 7.84441 7.66171 7.85268 7.66171L7.96646 7.65344L8.03059 7.65137H8.0368H8.04921L8.07611 7.65344H8.12576L8.23126 7.65964C8.3016 7.66585 8.36987 7.67826 8.43813 7.6886C8.5726 7.71343 8.70707 7.7486 8.82912 7.79411C9.07737 7.881 9.28631 8.00719 9.45802 8.13752C9.80763 8.40025 10.0145 8.6878 10.1572 8.93191C10.2297 9.05396 10.2834 9.16981 10.3227 9.27118C10.3662 9.36841 10.3972 9.47185 10.422 9.54839C10.4448 9.62286 10.4448 9.66217 10.4551 9.69734C10.4613 9.73044 10.4634 9.74906 10.4634 9.74906C10.54 10.1669 10.2317 10.5621 9.77867 10.6303C9.45388 10.6821 9.1415 10.5517 8.96152 10.32Z" fill="#422B0D"/>
<path d="M17.1355 10.32C17.1355 10.32 17.1251 10.3055 17.1024 10.2787C17.0817 10.2518 17.0527 10.2145 17.0155 10.1669C16.9844 10.1338 16.9472 10.0945 16.9038 10.049C16.8603 9.99937 16.8065 9.94765 16.7528 9.89387C16.6969 9.84215 16.639 9.78836 16.579 9.74492C16.5211 9.69734 16.4569 9.66217 16.4052 9.63321C16.3514 9.60011 16.3018 9.59183 16.2707 9.58149C16.2542 9.57528 16.2397 9.57528 16.2273 9.57321C16.2211 9.57528 16.2149 9.57115 16.2087 9.57321L16.2004 9.57528H16.1963H16.1942H16.1921C16.217 9.57528 16.1363 9.57735 16.248 9.57321L16.1342 9.57735C16.1052 9.57735 16.1239 9.57942 16.1259 9.57942C16.1321 9.57942 16.1363 9.57942 16.1404 9.57735C16.157 9.57115 16.1404 9.57735 16.1363 9.57735C16.1301 9.57735 16.1218 9.57942 16.1135 9.58356C16.0804 9.5939 16.0308 9.60218 15.979 9.63528C15.9273 9.66424 15.8632 9.69941 15.8053 9.74699C15.7473 9.7925 15.6874 9.84422 15.6315 9.89594C15.5239 10.0014 15.4288 10.1069 15.3626 10.1835C15.2943 10.2621 15.2571 10.3076 15.2571 10.3076L15.2095 10.3635C14.9261 10.6945 14.4047 10.7503 14.0469 10.4897C13.8027 10.3118 13.6972 10.0345 13.7428 9.76974C13.7428 9.76974 13.7572 9.68493 13.7986 9.53805C13.8421 9.39117 13.9145 9.18223 14.0572 8.93605C14.1999 8.69194 14.4068 8.40438 14.7564 8.14166C14.9281 8.01339 15.1371 7.88513 15.3853 7.79825C15.4453 7.77549 15.5094 7.7548 15.5756 7.73825C15.6439 7.7217 15.6977 7.70309 15.7908 7.69067L15.9191 7.67205C15.9584 7.66792 16.0163 7.66171 16.0246 7.66171L16.1383 7.65344L16.2025 7.65137H16.2087H16.2211L16.248 7.65344H16.2976L16.4031 7.65964C16.4735 7.66585 16.5417 7.67826 16.61 7.6886C16.7445 7.71343 16.8789 7.7486 17.001 7.79411C17.2492 7.881 17.4582 8.00719 17.6299 8.13752C17.9795 8.40025 18.1864 8.6878 18.3291 8.93191C18.4015 9.05396 18.4553 9.16981 18.4946 9.27118C18.5381 9.36841 18.5691 9.47185 18.5939 9.54839C18.6167 9.62286 18.6167 9.66217 18.627 9.69734C18.6332 9.73044 18.6353 9.74906 18.6353 9.74906C18.7118 10.1669 18.4036 10.5621 17.9505 10.6303C17.6258 10.6821 17.3134 10.5517 17.1355 10.32Z" fill="#422B0D"/>
<path d="M12.0883 17.9953C9.48792 17.9953 7.4316 16.7644 6.29794 15.4466C6.18416 15.3142 6.15727 15.1363 6.22967 14.9811C6.30208 14.8218 6.4593 14.7184 6.62894 14.7184C6.70548 14.7184 6.78409 14.7391 6.85236 14.7784C8.02119 15.4528 9.98441 16.2865 12.0821 16.2865H12.1152C14.215 16.2865 16.1761 15.4507 17.3449 14.7784C17.4153 14.7391 17.4918 14.7163 17.5684 14.7184C17.738 14.7184 17.8952 14.8218 17.9676 14.9811C18.038 15.1363 18.0131 15.3163 17.8994 15.4466C16.7657 16.7623 14.7073 17.9953 12.109 17.9953" fill="#422B0D"/>
</g>
<defs>
<radialGradient id="paint0_radial_1560_3081" cx="0" cy="0" r="1" gradientUnits="userSpaceOnUse" gradientTransform="translate(11.9986 11.5642) scale(11.7834 11.7834)">
<stop offset="0.5" stop-color="#FDE030"/>
<stop offset="0.9188" stop-color="#F7C02B"/>
<stop offset="1" stop-color="#F4A223"/>
</radialGradient>
<radialGradient id="paint1_radial_1560_3081" cx="0" cy="0" r="1" gradientUnits="userSpaceOnUse" gradientTransform="translate(4.48758 13.4139) scale(3.93845 3.74134)">
<stop stop-color="#ED7770"/>
<stop offset="0.9" stop-color="#ED7770" stop-opacity="0"/>
</radialGradient>
<radialGradient id="paint2_radial_1560_3081" cx="0" cy="0" r="1" gradientUnits="userSpaceOnUse" gradientTransform="translate(19.693 13.4139) scale(3.93845 3.74134)">
<stop stop-color="#ED7770"/>
<stop offset="0.9" stop-color="#ED7770" stop-opacity="0"/>
</radialGradient>
<clipPath id="clip0_1560_3081">
<rect width="24" height="24" fill="white"/>
</clipPath>
</defs>
</svg>
