<svg width="24" height="24" viewBox="0 0 24 24" fill="none" xmlns="http://www.w3.org/2000/svg">
<g clip-path="url(#clip0_1560_2872)">
<path d="M11.7384 22.6267C6.09181 22.6267 0 19.085 0 11.3134C0 3.54175 6.09181 0 11.7384 0C14.8754 0 17.7695 1.03217 19.9148 2.91436C22.2422 4.97869 23.4768 7.89305 23.4768 11.3134C23.4768 14.7337 22.2422 17.6278 19.9148 19.6921C17.7695 21.5743 14.8551 22.6267 11.7384 22.6267Z" fill="url(#paint0_radial_1560_2872)"/>
<path d="M11.7384 22.6267C6.09181 22.6267 0 19.085 0 11.3134C0 3.54175 6.09181 0 11.7384 0C14.8754 0 17.7695 1.03217 19.9148 2.91436C22.2422 4.97869 23.4768 7.89305 23.4768 11.3134C23.4768 14.7337 22.2422 17.6278 19.9148 19.6921C17.7695 21.5743 14.8551 22.6267 11.7384 22.6267Z" fill="url(#paint1_linear_1560_2872)"/>
<path d="M21.4339 4.58789C22.5126 6.32841 23.0753 8.40084 23.0753 10.706C23.0753 14.1263 21.8407 17.0205 19.5133 19.0848C17.368 20.967 14.4536 22.0194 11.3369 22.0194C7.6818 22.0194 3.84861 20.5318 1.58594 17.3767C3.76361 20.9508 7.8599 22.6265 11.7417 22.6265C14.8584 22.6265 17.7728 21.5741 19.918 19.6919C22.2455 17.6276 23.48 14.7335 23.48 11.3132C23.48 8.73478 22.7778 6.44377 21.4339 4.58789Z" fill="#EB8F00"/>
<path d="M11.5923 20.8547C14.7488 20.8547 17.3077 18.6139 17.3077 15.8497C17.3077 13.0855 14.7488 10.8447 11.5923 10.8447C8.43581 10.8447 5.87695 13.0855 5.87695 15.8497C5.87695 18.6139 8.43581 20.8547 11.5923 20.8547Z" fill="#422B0D"/>
<path d="M18.2578 8.51415C18.2578 8.51415 17.001 6.27374 14.4023 6.75137" stroke="#35220B" stroke-width="1.5" stroke-miterlimit="10" stroke-linecap="round"/>
<path d="M5.29492 8.51415C5.29492 8.51415 6.55781 6.27374 9.15037 6.75137" stroke="#35220B" stroke-width="1.5" stroke-miterlimit="10" stroke-linecap="round"/>
<path d="M15.3566 15.9209C14.9073 15.2773 13.7375 15.935 13.7375 15.935C13.7375 15.935 14.3446 15.4068 14.8506 14.9231C15.1744 14.6135 15.4578 13.9537 15.1926 13.5064C14.9275 13.0591 14.1564 13.0875 13.778 13.3202L12.2945 14.2309C12.2945 14.2309 12.851 13.9881 13.019 13.0328C13.1243 12.6463 12.8976 12.2476 12.511 12.1423C12.4382 12.1221 12.3633 12.114 12.2884 12.118C11.9383 12.1484 11.6043 12.2779 11.323 12.4904C10.2504 13.2514 7.38662 15.1923 6.74505 15.1417C6.49612 15.1214 6.47386 15.083 6.99804 13.9618C7.35019 13.2898 7.38257 12.4945 7.08708 11.7962C6.91506 11.3915 6.1217 11.2802 5.87277 11.6708C5.68455 11.9582 5.54895 12.6625 5.22109 13.3708C4.6706 14.5345 3.40164 16.0969 3.29842 16.2508C2.54352 17.3679 1.13694 19.4505 2.61031 21.786C3.91367 23.8544 6.88875 23.9515 8.41271 23.4051C11.325 22.3729 14.0067 20.3895 14.0573 20.3491C14.5875 19.9281 15.0692 19.3108 14.8506 18.7482C14.5814 18.052 13.6889 18.4649 13.6889 18.4649C14.205 18.1512 14.6685 17.7565 15.0591 17.2951C15.4294 16.8174 15.6581 16.356 15.3566 15.9209Z" fill="url(#paint2_radial_1560_2872)"/>
<path d="M15.3029 17.4797C15.5417 17.1721 16.1003 16.4536 15.6105 15.7473C15.4344 15.4983 15.1896 15.3425 14.9042 15.2939C15.3839 14.8952 15.8979 13.9642 15.3494 13.1992C15.145 12.9139 14.7544 12.6912 14.1331 12.8349C13.6858 12.9381 13.2851 13.268 13.2851 13.268C13.2993 13.2134 13.6514 12.2197 12.4351 11.9728C11.9453 11.8736 11.3888 12.1974 11.069 12.4382C9.2212 13.7497 6.82293 14.9964 6.90388 14.8244C7.68307 13.8792 7.84093 12.4807 7.36128 11.651C7.19127 11.2482 6.15506 10.9467 5.81707 11.5012C5.5398 11.9566 5.35563 13.0454 4.83752 13.9116C4.4368 14.5815 2.60723 16.8867 2.27734 18.0281C2.27734 18.0281 2.72462 17.3623 3.43094 16.4212C4.18179 15.4174 5.20182 14.118 5.50337 13.4967C5.77659 12.9442 5.9041 12.2824 6.13482 11.8331C6.24815 11.6449 6.70757 11.4668 7.00305 12.0456C7.30056 12.6244 7.15687 13.3247 6.74805 14.1079C6.32708 15.0065 6.14089 15.0409 6.33113 15.2393C6.97472 15.9011 10.6885 13.2518 11.5122 12.7337C11.747 12.5556 12.0263 12.4484 12.3076 12.4221C12.8621 12.3431 12.8338 13.1203 12.8338 13.1203C12.678 13.7578 12.5788 13.7578 11.9433 14.2921C11.492 14.6706 9.89515 15.8323 8.85893 16.3544C8.85893 16.3544 8.87715 16.5912 9.3568 16.4556C9.83848 16.32 11.7267 15.132 12.7447 14.3164C12.7447 14.3164 14.0643 13.1891 14.6269 13.347C15.1977 13.5089 15.1471 13.9055 14.9669 14.282C14.7868 14.6584 14.3213 15.1118 13.5806 15.6764C12.2489 16.6883 10.1866 18.0686 10.1866 18.0686C10.1866 18.0686 10.2291 18.271 10.6298 18.1556C11.4454 17.9189 13.9914 16.0326 13.9914 16.0326C14.1898 15.8788 14.8536 15.6663 15.1127 16.1014C15.2523 16.3058 15.2199 16.6398 14.7301 17.2186C14.1473 17.9128 12.3683 19.123 10.8221 20.0014C10.8221 20.0014 10.9395 20.1997 11.3665 20.054C11.7915 19.9083 13.5583 18.8336 13.8376 18.7405C14.1169 18.6474 14.3962 18.5584 14.5824 18.8883C14.803 19.3436 14.5075 19.7039 13.9226 20.1694C13.8983 20.1876 11.1135 22.3653 8.21737 23.3448C6.68733 23.8629 4.97717 23.5958 3.01605 22.3147C4.20608 23.7516 6.80471 24.3932 8.5675 23.7496C11.5324 22.6648 14.2768 20.6632 14.2991 20.645C14.7241 20.307 15.6085 19.6068 15.1207 18.6049C14.9932 18.3803 14.8232 18.2406 14.637 18.1617C14.8718 17.9492 15.0944 17.7246 15.3029 17.4797Z" fill="#EB8F00"/>
<path d="M10.7549 22.5837C11.6373 22.6282 12.465 22.608 12.465 22.608C13.7643 21.8835 14.9584 20.1551 15.096 19.7766C15.2337 19.3982 10.1781 22.5534 10.7549 22.5837Z" fill="#EB8F00"/>
</g>
<defs>
<radialGradient id="paint0_radial_1560_2872" cx="0" cy="0" r="1" gradientUnits="userSpaceOnUse" gradientTransform="translate(11.7384 11.3133) scale(11.5278 11.5278)">
<stop offset="0.5" stop-color="#FDE030"/>
<stop offset="0.92" stop-color="#F7C02B"/>
<stop offset="1" stop-color="#F4A223"/>
</radialGradient>
<linearGradient id="paint1_linear_1560_2872" x1="11.7384" y1="22.6267" x2="11.7384" y2="0" gradientUnits="userSpaceOnUse">
<stop offset="0.16" stop-color="#F4A223"/>
<stop offset="0.33" stop-color="#F7C02B"/>
<stop offset="0.81" stop-color="#FDE030" stop-opacity="0"/>
</linearGradient>
<radialGradient id="paint2_radial_1560_2872" cx="0" cy="0" r="1" gradientUnits="userSpaceOnUse" gradientTransform="translate(8.93286 14.9272) scale(13.1672)">
<stop offset="0.27" stop-color="#FFF176"/>
<stop offset="1" stop-color="#FFC400"/>
</radialGradient>
<clipPath id="clip0_1560_2872">
<rect width="24" height="24" fill="white"/>
</clipPath>
</defs>
</svg>
