<svg width="24" height="24" viewBox="0 0 24 24" fill="none" xmlns="http://www.w3.org/2000/svg">
<g clip-path="url(#clip0_1560_3190)">
<path d="M8.57305 6.28049C8.22572 5.6553 7.5926 4.51608 8.17809 3.75394C8.70007 3.07517 9.5932 3.29349 10.3117 4.03379L10.7324 4.49027C10.7324 4.49027 10.3772 3.18433 11.4152 2.82906C12.1118 2.5909 12.6894 2.84296 13.6242 3.96432C15.3092 5.98477 18.8837 12.1513 18.8837 12.1513C19.0504 12.4252 19.2151 12.6733 19.3362 12.6316C19.4334 12.5978 19.6974 11.6273 19.6974 11.6273C19.6775 10.2896 19.7748 8.73559 20.2412 7.88017C20.7195 7.00293 21.5829 6.68537 22.1842 6.87987C22.7102 7.05056 22.9861 7.46338 22.8194 8.38032C22.6784 9.15833 22.6368 11.1371 22.8055 13.0682C22.9404 14.6183 23.0039 15.6265 22.8908 16.8709C22.6745 19.2347 21.7397 21.5688 19.0484 22.9859C17.5618 23.7698 15.9681 23.9266 14.4855 23.6884C14.4835 23.6904 8.70801 6.52262 8.57305 6.28049Z" fill="#D69513"/>
<path d="M14.5927 10.0913C14.0429 8.87665 13.4157 7.94185 12.7251 6.884C12.2328 6.1298 11.3695 4.86355 11.1016 4.22845C10.917 3.79181 10.9209 3.4425 10.9448 3.25593C10.9507 3.21624 10.8991 3.19639 10.8753 3.22815C10.657 3.54372 10.5419 4.05577 10.7661 4.60554C11.1095 5.43912 11.8478 6.50293 12.348 7.26705C13.0783 8.38444 13.5884 9.19818 14.0548 10.3215L14.8169 10.8971C14.8189 10.8991 14.7971 10.5458 14.5927 10.0913Z" fill="#FFB300"/>
<path d="M9.60785 22.7872C9.07595 22.4458 7.68069 21.4019 6.18223 19.7704C3.95934 17.3491 2.88164 14.8483 2.42913 13.9095C1.99447 13.0065 1.8873 11.9348 2.40729 11.5676C2.99279 11.1548 3.5366 11.5696 3.5366 11.5696C3.03248 10.7816 2.705 10.0056 2.61966 9.37645C2.50256 8.4992 3.03645 8.09234 3.1337 8.03875C3.59416 7.78471 4.01095 8.1102 4.01095 8.1102C4.01095 8.1102 3.46118 7.33814 3.32026 6.5125C3.23294 6.00441 3.42347 5.48045 3.85415 5.18274C4.39995 4.80763 4.91598 4.91679 5.72177 5.62732L6.04925 5.87739C6.04925 5.87739 5.89841 5.45465 5.89643 5.00809C5.89444 4.60122 6.08895 4.14473 6.56528 3.96015C7.17856 3.72199 7.64695 3.87878 8.48847 4.74809C9.24266 5.52808 11.7494 8.11417 13.4761 9.51141C14.6927 10.4978 16.0423 11.4803 16.7409 11.897C16.9632 12.03 17.1518 11.8534 17.0902 11.5398C16.7072 9.60469 16.5583 8.11218 16.9235 6.98288C17.2887 5.85159 17.9853 5.23434 18.7693 5.29587C19.1385 5.32564 19.5056 5.54594 19.6644 5.97464C19.8053 6.35968 19.8093 7.00074 19.8272 7.40761C19.8907 8.98149 21.1887 13.4987 21.4546 14.7411C21.9627 17.099 21.7642 19.6474 19.583 21.8385C16.6596 24.7838 12.0113 24.3273 9.60785 22.7872Z" fill="#FFCA28"/>
<path d="M7.82386 17.4163C7.74249 17.6922 7.59165 18.0018 7.38127 17.8252C7.09349 17.583 7.13318 17.3349 6.81166 17.0035C5.88678 16.0488 4.17 13.5858 3.77504 12.6014C3.50313 11.9226 3.54084 11.5693 3.54084 11.5693C3.54084 11.5693 5.77762 15.0029 7.79806 16.8824C7.97668 17.0491 7.83379 17.3846 7.82386 17.4163Z" fill="#D69513"/>
<path d="M9.01932 15.132C8.71963 15.0169 8.6581 14.5544 8.43581 14.3401C7.3462 13.2961 5.00622 10.4183 4.30958 9.08455C4.02577 8.53875 4.0218 8.28471 4.00195 8.09814C4.00195 8.09814 7.28071 12.2025 9.02924 13.7963C9.14039 13.8975 9.4897 14.0106 9.56512 14.1773C9.71 14.4989 9.26146 15.2233 9.01932 15.132Z" fill="#D69513"/>
<path d="M11.3526 11.5808C9.49093 10.0248 6.01172 5.85889 6.01172 5.85889C6.01172 5.85889 6.08317 6.44438 6.49797 7.08544C7.21843 8.20284 9.30833 10.7949 10.7036 12.1127C10.9715 12.3668 10.9557 12.6784 11.2395 12.7022C11.5431 12.728 11.9123 12.3688 11.9321 12.0949C11.95 11.8607 11.6622 11.8388 11.3526 11.5808Z" fill="#D69513"/>
<path d="M0 17.9272L2.53647 17.7466" stroke="#B0BEC5" stroke-miterlimit="10" stroke-linecap="round" stroke-linejoin="round"/>
<path d="M5.04839 20.8066L4.2168 23.2101" stroke="#B0BEC5" stroke-miterlimit="10" stroke-linecap="round" stroke-linejoin="round"/>
<path d="M0.255859 21.7723L3.5624 19.4521" stroke="#B0BEC5" stroke-miterlimit="10" stroke-linecap="round" stroke-linejoin="round"/>
<path d="M23.0136 2.97705L21.0547 4.59856" stroke="#B0BEC5" stroke-miterlimit="10" stroke-linecap="round" stroke-linejoin="round"/>
<path d="M17.2341 3.57008L16.5137 1.13086" stroke="#B0BEC5" stroke-miterlimit="10" stroke-linecap="round" stroke-linejoin="round"/>
<path d="M20.5662 0L19.2266 3.80867" stroke="#B0BEC5" stroke-miterlimit="10" stroke-linecap="round" stroke-linejoin="round"/>
<path d="M20.5318 10.6517C20.2976 9.69707 20.0634 8.65311 19.988 7.94655C19.9285 7.38884 19.8908 6.48381 19.8372 6.28534C19.6486 5.57084 19.2338 5.4458 19.2338 5.4458C19.2338 5.4458 19.4958 5.72168 19.5018 6.48579C19.5077 7.29556 19.5315 8.88135 19.9959 10.6358C20.3016 11.7909 20.7978 13.4541 21.024 14.7839C21.5023 17.5843 21.0657 19.5552 19.3926 21.6312C18.4221 22.8339 16.3242 23.7211 16.3242 23.7211C16.3242 23.7211 18.0489 23.6119 19.5553 22.1631C21.5559 20.2379 22.2804 17.7411 21.6373 14.7482C21.419 13.734 20.6072 10.9613 20.5318 10.6517Z" fill="#D69513"/>
</g>
<defs>
<clipPath id="clip0_1560_3190">
<rect width="24" height="24" fill="white"/>
</clipPath>
</defs>
</svg>
