<svg width="24" height="24" viewBox="0 0 24 24" fill="none" xmlns="http://www.w3.org/2000/svg">
<g clip-path="url(#clip0_1560_3510)">
<path d="M11.9986 23.1284C6.22687 23.1284 0 19.5081 0 11.5642C0 3.62027 6.22687 0 11.9986 0C15.2051 0 18.1634 1.05505 20.3563 2.97897C22.7353 5.08907 23.9972 8.06804 23.9972 11.5642C23.9972 15.0603 22.7353 18.0186 20.3563 20.1287C18.1634 22.0526 15.1845 23.1284 11.9986 23.1284Z" fill="url(#paint0_radial_1560_3510)"/>
<path d="M21.9091 4.68896C23.0117 6.46807 23.5868 8.58645 23.5868 10.9427C23.5868 14.4389 22.3249 17.3972 19.9459 19.5073C17.753 21.4312 14.7741 22.5069 11.5882 22.5069C7.8521 22.5069 3.92566 20.9864 1.62109 17.7613C3.84704 21.4146 8.03208 23.1275 12.002 23.1275C15.1878 23.1275 18.1668 22.0518 20.3596 20.1279C22.7387 18.0178 24.0006 15.0595 24.0006 11.5633C24.0006 8.92779 23.2827 6.58599 21.9091 4.68896Z" fill="#EB8F00"/>
<path d="M7.95381 7.01904C7.08701 7.01904 6.29883 7.75137 6.29883 8.96778C6.29883 10.1842 7.08701 10.9165 7.95381 10.9165C8.82061 10.9165 9.60879 10.1842 9.60879 8.96778C9.60879 7.75137 8.82268 7.01904 7.95381 7.01904Z" fill="#422B0D"/>
<path d="M7.87118 7.82999C7.6581 7.68104 7.33745 7.72862 7.13058 8.02652C6.9237 8.32649 6.99197 8.64093 7.20505 8.78988C7.41813 8.93883 7.73878 8.89125 7.94565 8.59335C8.15253 8.29546 8.08633 7.97894 7.87118 7.82999Z" fill="#896024"/>
<path d="M15.8933 7.01904C15.0265 7.01904 14.2383 7.75137 14.2383 8.96778C14.2383 10.1842 15.0265 10.9165 15.8933 10.9165C16.7601 10.9165 17.5482 10.1842 17.5482 8.96778C17.5482 7.75137 16.7601 7.01904 15.8933 7.01904Z" fill="#422B0D"/>
<path d="M15.8126 7.82999C15.5995 7.68104 15.2789 7.72862 15.072 8.02652C14.8651 8.32649 14.9334 8.64093 15.1465 8.78988C15.3595 8.93883 15.6802 8.89125 15.8871 8.59335C16.096 8.29339 16.0257 7.97894 15.8126 7.82999Z" fill="#896024"/>
<path d="M6.98967 17.9959H17.3519C18.6594 17.9959 19.7186 16.9368 19.7186 15.6293C19.7186 14.3219 18.6594 13.2627 17.3519 13.2627H6.98967C5.68224 13.2627 4.62305 14.3219 4.62305 15.6293C4.62098 16.9368 5.68224 17.9959 6.98967 17.9959Z" fill="white"/>
<path d="M19.6894 15.2402H4.66212C4.64143 15.3664 4.62695 15.4968 4.62695 15.6292C4.62695 15.7802 4.64143 15.925 4.66833 16.0677H19.6811C19.708 15.925 19.7225 15.7802 19.7225 15.6292C19.7245 15.4947 19.71 15.3664 19.6894 15.2402Z" fill="#B3B3B3"/>
<path d="M17.3462 13.2603H17.2324V17.9956H17.3462C17.5345 17.9956 17.7186 17.9707 17.8944 17.9294V13.3265C17.7186 13.2851 17.5365 13.2603 17.3462 13.2603Z" fill="#B3B3B3"/>
<path d="M12.4471 13.2603H11.7852V17.9956H12.4471V13.2603Z" fill="#B3B3B3"/>
<path d="M6.98747 13.2603C6.76198 13.2603 6.54476 13.2934 6.33789 13.3533V17.9025C6.54476 17.9625 6.76198 17.9956 6.98747 17.9956H6.99988V13.2603H6.98747Z" fill="#B3B3B3"/>
<path d="M9.72449 13.2603H9.0625V17.9956H9.72449V13.2603Z" fill="#B3B3B3"/>
<path d="M15.1718 13.2603H14.5098V17.9956H15.1718V13.2603Z" fill="#B3B3B3"/>
<path d="M19.72 15.6292C19.6497 14.8865 19.2504 14.2142 18.6588 13.8418C18.3691 13.6494 18.0381 13.5294 17.7009 13.4943C17.3782 13.4612 16.9914 13.4963 16.6231 13.5025C15.8825 13.5315 15.1399 13.5377 14.3992 13.5543L12.1712 13.5708L9.94735 13.5543C9.20674 13.5377 8.46407 13.5315 7.72346 13.5025C7.35523 13.4963 6.96838 13.4612 6.64566 13.4943C6.30845 13.5294 5.97539 13.6474 5.68784 13.8418C5.09618 14.2142 4.69485 14.8865 4.62451 15.6292C4.55417 14.8865 4.88724 14.0901 5.50786 13.5956C5.81403 13.3453 6.1864 13.1715 6.58153 13.0929L6.73047 13.064L6.88149 13.0516C6.98493 13.0412 7.07595 13.0412 7.16905 13.0371L7.72553 13.0185C8.46614 12.9895 9.20881 12.9833 9.94942 12.9667L12.1733 12.9502L14.3972 12.9667C15.1378 12.9833 15.8805 12.9895 16.6211 13.0185L17.1776 13.0371C17.2706 13.0412 17.3596 13.0412 17.4651 13.0516L17.6161 13.064L17.7651 13.0929C18.1602 13.1715 18.5326 13.3453 18.8387 13.5956C19.4573 14.0901 19.7904 14.8845 19.72 15.6292Z" fill="#DE7321"/>
</g>
<defs>
<radialGradient id="paint0_radial_1560_3510" cx="0" cy="0" r="1" gradientUnits="userSpaceOnUse" gradientTransform="translate(11.9986 11.5642) scale(11.7834 11.7834)">
<stop offset="0.5" stop-color="#FDE030"/>
<stop offset="0.9188" stop-color="#F7C02B"/>
<stop offset="1" stop-color="#F4A223"/>
</radialGradient>
<clipPath id="clip0_1560_3510">
<rect width="24" height="24" fill="white"/>
</clipPath>
</defs>
</svg>
