<svg width="24" height="24" viewBox="0 0 24 24" fill="none" xmlns="http://www.w3.org/2000/svg">
<path d="M22.6116 15.2637C22.5929 15.1218 22.5184 14.9933 22.4049 14.9064L20.6366 13.5525C20.4001 13.3715 20.0616 13.4164 19.8805 13.6528L16.8346 17.6302C16.7835 17.6969 16.7044 17.7359 16.6205 17.7359H12.9823C12.9079 17.7359 12.8475 17.6756 12.8475 17.6011V9.70065C12.8475 9.55172 12.9682 9.43099 13.1172 9.43099H16.2583H22.0525C22.3501 9.43099 22.5919 9.18859 22.5919 8.89102C22.5914 3.98845 17.9784 0 12.3082 0C6.63793 0 2.0249 3.98845 2.02449 8.89102C2.02447 9.18859 2.26623 9.43099 2.56381 9.43099H8.35808H11.4992C11.6481 9.43099 11.7689 9.55172 11.7689 9.70065V17.6011C11.7689 17.6756 11.7085 17.7359 11.634 17.7359H2.53932C2.24146 17.7359 2 17.9774 2 18.2753V20.5026C2 20.8004 2.24146 21.0419 2.53932 21.0419H2.89526C2.98391 21.0419 3.04844 21.126 3.02549 21.2116L2.46736 23.2945C2.41534 23.4887 2.45824 23.7045 2.60262 23.8444C2.71377 23.952 2.85179 24 2.98147 24C3.21953 24 3.43757 23.8409 3.50209 23.6L4.16077 21.1418C4.17656 21.0829 4.22998 21.0419 4.29101 21.0419H16.3684C16.4294 21.0419 16.4828 21.0829 16.4986 21.1418L17.1573 23.6C17.2218 23.8409 17.4396 24 17.6779 24C17.8076 24 17.9456 23.952 18.0568 23.8444C18.2012 23.7045 18.2441 23.4887 18.192 23.2945L17.6339 21.2116C17.611 21.126 17.6755 21.0419 17.7641 21.0419H18.1198C18.2876 21.0419 18.4459 20.9637 18.548 20.8304L22.5052 15.6624C22.5921 15.5489 22.6306 15.4054 22.6116 15.2637ZM21.1918 8.35235H17.0294C16.8886 8.35235 16.7742 8.24404 16.7626 8.10378C16.5517 5.54968 15.367 3.01935 14.1924 1.48291C14.1182 1.3859 14.2047 1.24642 14.3246 1.26926C18.1211 1.99226 21.0391 4.71031 21.4608 8.05405C21.4808 8.21298 21.352 8.35235 21.1918 8.35235ZM7.587 8.35235H3.4245C3.26431 8.35235 3.13551 8.21298 3.15555 8.05405C3.57726 4.71031 6.49528 1.99226 10.2917 1.26926C10.4117 1.24642 10.4981 1.3859 10.4239 1.48291C9.24939 3.01935 8.06468 5.54968 7.85371 8.10378C7.84212 8.24404 7.72773 8.35235 7.587 8.35235Z" fill="#13D16A"/>
</svg>
