<svg width="24" height="24" viewBox="0 0 24 24" fill="none" xmlns="http://www.w3.org/2000/svg">
<path d="M13.5547 0.188986C13.3428 0.377321 11.6949 3.64767 11.6949 3.64767L10.4688 8.5934L15.2399 8.15592C15.2399 8.15592 19.2086 0.775569 19.2891 0.604891C19.4323 0.294924 19.5088 0.167406 18.9615 0.167406C18.4141 0.165445 13.7528 0.0124229 13.5547 0.188986Z" fill="#176CC7"/>
<path d="M16.0246 7.85026C15.7872 7.72274 8.79532 7.61288 8.63053 7.85026C8.48143 8.06606 8.56579 9.19803 8.62268 9.33339C8.7247 9.56881 10.9827 10.5948 10.9827 10.5948L10.9396 11.0618C10.9396 11.0618 11.124 11.1088 12.4365 11.1088C13.7489 11.1088 14.0079 11.0421 14.0079 11.0421L14.0118 10.6203C14.0118 10.6203 16.0442 9.63159 16.1462 9.49426C16.2326 9.38047 16.262 7.97778 16.0246 7.85026ZM13.9431 9.63943C13.9431 9.63943 14.0079 9.35105 13.8725 9.28435C13.7371 9.21568 11.4143 9.24707 11.2299 9.25688C11.0455 9.26669 11.0455 9.59627 11.0455 9.59627L9.55455 8.70757V8.5624L15.1065 8.60163L15.1163 8.76643L13.9431 9.63943Z" fill="#CECDD2"/>
<path d="M11.6263 9.39648C11.4419 9.39648 11.3359 9.58874 11.3359 9.92029C11.3359 10.2303 11.4419 10.4912 11.6753 10.4716C11.8676 10.4559 11.9343 10.1616 11.9166 9.90067C11.899 9.5907 11.8597 9.39648 11.6263 9.39648Z" fill="#FDFFFF"/>
<path d="M5.67773 17.3863C5.67773 22.0868 10.0035 24.082 12.8305 23.9976C16.1244 23.8995 19.6007 21.4002 19.3751 16.9155C19.1613 12.6662 15.5574 10.7769 12.4617 10.7985C8.86372 10.826 5.67773 13.2802 5.67773 17.3863Z" fill="#CECDD2"/>
<path d="M12.657 23.1238C12.608 23.1238 12.557 23.1238 12.5079 23.1218C11.0366 23.0728 9.58286 22.4528 8.51956 21.4229C7.38171 20.3203 6.75785 18.8294 6.7657 17.2265C6.78335 13.3127 10.2048 11.498 12.5256 11.498C12.5315 11.498 12.5393 11.498 12.5452 11.498C15.69 11.5118 18.2717 13.9562 18.3443 17.2697C18.3757 18.745 17.7715 20.2929 16.5865 21.4582C15.4801 22.5431 14.0126 23.1238 12.657 23.1238ZM12.5217 12.1494C10.4402 12.1494 7.36209 13.8522 7.35424 17.2265C7.34836 19.7494 9.30232 22.343 12.557 22.4528C13.7968 22.4921 15.074 22.0173 16.1059 21.003C17.1771 19.9495 17.7793 18.592 17.7578 17.2776C17.7067 14.427 15.3761 12.1592 12.5472 12.1454C12.5432 12.1454 12.5276 12.1494 12.5217 12.1494Z" fill="#9B9B9D"/>
<path d="M11.3903 11.4173C11.255 11.2309 9.86797 11.2839 8.37503 12.5689C6.89189 13.846 6.67021 15.2586 6.93701 15.3331C7.2411 15.4175 7.61188 14.052 8.89294 12.9044C10.07 11.8548 11.6591 11.7881 11.3903 11.4173Z" fill="#FEFFFA"/>
<path d="M17.2381 16.568C16.7653 16.6347 17.2557 18.0511 16.1591 19.6363C15.2076 21.0115 14.1286 21.5098 14.2542 21.8119C14.4229 22.2161 16.1512 21.2097 16.9516 19.5696C17.6756 18.0865 17.5892 16.519 17.2381 16.568Z" fill="#FEFFFA"/>
<path d="M5.00238 0.087689C4.87879 0.201474 9.6048 8.61766 9.6048 8.61766C9.6048 8.61766 10.3974 8.71968 12.1669 8.73537C13.9365 8.75107 14.8134 8.63336 14.8134 8.63336C14.8134 8.63336 11.1389 0.172047 10.9192 0.087689C10.8113 0.0445291 9.35565 0.0288345 7.93334 0.01314C6.50906 -0.00451635 5.12009 -0.0221727 5.00238 0.087689Z" fill="#2E9DF4"/>
<path d="M11.1495 16.2981C11.3535 16.3001 11.536 16.0235 11.7047 15.8548C12.0637 15.4938 12.4404 15.2074 12.87 15.5958C13.9255 16.5551 11.8067 17.5282 11.0024 18.8583C10.4021 19.851 10.2804 20.6141 10.4472 20.8182C10.6139 21.0222 14.6729 21.0124 14.7279 20.9104C14.7828 20.8084 14.8397 19.4488 14.7455 19.3841C14.6514 19.3193 12.6562 19.3566 12.6562 19.3566C12.6562 19.3566 12.8229 18.9682 13.5076 18.3757C14.259 17.7263 14.8613 16.8337 14.7004 15.7783C14.3669 13.5967 12.1697 13.5163 11.2182 14.2755C10.2902 15.0151 10.4903 16.2903 11.1495 16.2981Z" fill="#9B9B9D"/>
</svg>
