<svg width="24" height="24" viewBox="0 0 24 24" fill="none" xmlns="http://www.w3.org/2000/svg">
<path d="M24 12.1837V9.32672L7.3848 2C1.29456 3.95192 0 9.32672 0 9.32672V21.361C0 21.8456 0.37584 22.2152 0.85104 22.2152C0.87456 22.2152 0.8988 22.2142 0.92304 22.2123L23.0767 20.4762C23.5853 20.4368 24 19.9899 24 19.4811V15.9262C24 15.9262 22.1206 15.4002 22.1206 14.0545C22.1203 12.71 24 12.1837 24 12.1837ZM7.31976 3.58544L8.83056 4.25168C8.35824 4.44176 8.04816 4.74296 8.04816 5.08448C8.04816 5.66024 8.91504 6.12656 9.9852 6.12656C10.758 6.12656 11.4197 5.88224 11.7302 5.53088L16.9903 7.85024H2.23008C3.03336 6.46208 4.56096 4.62056 7.31976 3.58544ZM4.32672 19.5349C3.56856 19.5349 2.95296 18.9543 2.95296 18.2398C2.95296 17.5237 3.56856 16.9431 4.32672 16.9431C5.08656 16.9431 5.7024 17.5237 5.7024 18.2398C5.70288 18.9543 5.08656 19.5349 4.32672 19.5349ZM6.06864 14.8609C4.80648 14.8609 3.78288 13.9376 3.78288 12.799C3.78288 11.6595 4.80672 10.7355 6.06864 10.7355C7.33152 10.7355 8.35536 11.6595 8.35536 12.799C8.35512 13.9378 7.33128 14.8609 6.06864 14.8609ZM9.30984 14.2666C9.30984 13.5502 9.92544 12.9699 10.6836 12.9699C11.4439 12.9699 12.0593 13.5502 12.0593 14.2666C12.0593 14.9816 11.4439 15.5619 10.6836 15.5619C9.92544 15.5622 9.30984 14.9818 9.30984 14.2666ZM13.6999 20.8141C12.4577 20.8141 11.4506 19.7972 11.4506 18.5422C11.4506 17.288 12.4577 16.2694 13.6999 16.2694C14.9431 16.2694 15.9499 17.288 15.9499 18.5422C15.9499 19.797 14.9431 20.8141 13.6999 20.8141ZM15.0775 11.9818C13.9723 11.9818 13.075 11.1363 13.075 10.0942C13.075 9.81992 13.14 9.5624 13.2504 9.3272H16.9042C17.0153 9.5624 17.0796 9.82064 17.0796 10.0942C17.0803 11.1358 16.1834 11.9818 15.0775 11.9818ZM19.1419 17.7183C18.3838 17.7183 17.7682 17.138 17.7682 16.4233C17.7682 15.7066 18.3835 15.1263 19.1419 15.1263C19.902 15.1263 20.5176 15.7066 20.5176 16.4233C20.5178 17.138 19.9018 17.7183 19.1419 17.7183Z" fill="#13D16A"/>
</svg>
