<svg width="24" height="24" viewBox="0 0 24 24" fill="none" xmlns="http://www.w3.org/2000/svg">
<g clip-path="url(#clip0_3931_7061)">
<path d="M15.1846 9.12C15.1846 8.76632 15.0583 8.38737 14.8562 8.10947L13.3151 6.06316C13.1383 5.81053 13.1888 5.48211 13.4162 5.30526C13.6688 5.12842 13.9972 5.17895 14.1741 5.40632L15.7151 7.45263C16.0688 7.93263 16.2709 8.51368 16.2709 9.12V13.1116L18.1151 14.9558V9.12C18.1151 8.13474 17.7867 7.14947 17.2056 6.34105L15.6646 4.29474C15.1846 3.66316 14.9067 2.90526 14.7804 2.12211C15.2351 1.99579 15.5888 1.59158 15.5888 1.08632C15.5888 0.505263 15.1088 0 14.5025 0H10.2835C9.70248 0 9.19722 0.48 9.19722 1.08632C9.19722 1.59158 9.5509 2.02105 10.0056 2.12211C9.90459 2.93053 9.60143 3.66316 9.12143 4.29474L8.41406 5.25474L15.1846 12V9.12Z" fill="#13D16A"/>
<path d="M22.5579 20.9682L3.43368 1.84397C3.10526 1.51555 2.57474 1.51555 2.24632 1.84397C1.91789 2.17239 1.91789 2.70292 2.24632 3.03134L6.92 7.70502C6.76842 8.15976 6.69263 8.63976 6.69263 9.11976V20.8924C6.69263 22.6103 8.08211 23.9998 9.8 23.9998H15.0042C16.7221 23.9998 18.1116 22.6103 18.1116 20.8924V18.8966L21.3705 22.1556C21.5221 22.3071 21.7495 22.4082 21.9516 22.4082C22.1537 22.4082 22.3811 22.3324 22.5326 22.1556C22.8611 21.8271 22.8611 21.2966 22.5579 20.9682ZM16.2674 20.8924C16.2674 21.1956 16.0147 21.4482 15.7116 21.4482C15.4084 21.4482 15.1558 21.1956 15.1558 20.8924V15.9661L16.2421 17.0524V20.8924H16.2674Z" fill="#13D16A"/>
</g>
<defs>
<clipPath id="clip0_3931_7061">
<rect width="24" height="24" fill="white"/>
</clipPath>
</defs>
</svg>
