<svg width="24" height="24" viewBox="0 0 24 24" fill="none" xmlns="http://www.w3.org/2000/svg">
<g clip-path="url(#clip0_1560_2748)">
<path d="M20.2553 2H3.76074C3.38305 2 3.07617 2.30688 3.07617 2.68457V14.0134C3.07617 14.3911 3.38305 14.698 3.76074 14.698H20.2553C20.633 14.698 20.9399 14.3911 20.9399 14.0134V2.68457C20.9399 2.30688 20.635 2 20.2553 2Z" fill="#B7D5E5"/>
<path d="M20.0125 13.4893H4.00977L4.19861 3.20703H19.8237L20.0125 13.4893Z" fill="url(#paint0_radial_1560_2748)"/>
<path d="M23.2238 21.4801H0.896595C0.812007 21.4801 0.733321 21.4742 0.660537 21.4624C0.0939971 21.3759 -0.167634 20.6402 0.168749 20.1366L0.245468 20.0205H23.7706L23.8493 20.1385C24.2152 20.6854 23.8729 21.4683 23.2513 21.4782C23.2434 21.4801 23.2336 21.4801 23.2238 21.4801Z" fill="#2F7889"/>
<path d="M20.4242 14.9082H3.45947C3.20964 14.9082 2.95982 15.0597 2.82015 15.2997L0.0661354 20.312C-0.0499265 20.4851 0.0641683 20.729 0.260883 20.729H23.7605C23.9572 20.729 24.0713 20.4851 23.9552 20.312L21.0615 15.2702C20.9238 15.0577 20.674 14.9082 20.4242 14.9082Z" fill="#EEEEEE"/>
<path d="M16.3906 19.8471H7.625L8.18564 18.2773H15.8713L16.3906 19.8471Z" fill="#B7D5E5"/>
<g opacity="0.57">
<path d="M13.7083 15.7804L13.6552 15.3477H12.9785L13.0041 15.7804H13.7083Z" fill="#69A1BA"/>
<path d="M12.6203 15.7804L12.5927 15.3477H11.9141V15.7804H12.6203Z" fill="#69A1BA"/>
<path d="M17.828 15.7804L17.6686 15.3477H17.0273L17.1611 15.7804H17.828Z" fill="#69A1BA"/>
<path d="M16.7908 15.7804L16.657 15.3477H16.0039L16.1101 15.7804H16.7908Z" fill="#69A1BA"/>
<path d="M15.7731 15.7804L15.6668 15.3477H15.0039L15.0846 15.7804H15.7731Z" fill="#69A1BA"/>
<path d="M19.4932 15.7804L19.3063 15.3477H17.9863L18.1476 15.7804H19.4932Z" fill="#69A1BA"/>
<path d="M14.6811 15.7804L14.6005 15.3477H13.9297L13.9848 15.7804H14.6811Z" fill="#69A1BA"/>
<path d="M6.04772 15.7804L6.18149 15.3477H5.5402L5.38086 15.7804H6.04772Z" fill="#69A1BA"/>
<path d="M9.34676 15.7804L9.39987 15.3477H8.72908L8.65039 15.7804H9.34676Z" fill="#69A1BA"/>
<path d="M7.14937 15.7804L7.2556 15.3477H6.6025L6.4707 15.7804H7.14937Z" fill="#69A1BA"/>
<path d="M4.95192 15.7804L5.11126 15.3477H4.48571L4.29883 15.7804H4.95192Z" fill="#69A1BA"/>
<path d="M8.24905 15.7804L8.3297 15.3477H7.66677L7.56055 15.7804H8.24905Z" fill="#69A1BA"/>
<path d="M10.4445 15.7804L10.472 15.3477H9.7953L9.74219 15.7804H10.4445Z" fill="#69A1BA"/>
<path d="M11.5382 15.7804V15.3477H10.8596L10.832 15.7804H11.5382Z" fill="#69A1BA"/>
<path d="M15.8923 17.5303H8.13777L7.99023 17.963H16.0713L15.8923 17.5303Z" fill="#69A1BA"/>
<path d="M19.5076 17.963L19.2695 17.5303H20.556L20.7429 17.963H19.5076Z" fill="#69A1BA"/>
<path d="M16.4816 17.963L16.3184 17.5303H17.5557L17.7445 17.963H16.4816Z" fill="#69A1BA"/>
<path d="M18.1791 17.963L17.9902 17.5303H18.8381L19.0545 17.963H18.1791Z" fill="#69A1BA"/>
<path d="M4.46389 17.963L4.70191 17.5303H3.4154L3.22852 17.963H4.46389Z" fill="#69A1BA"/>
<path d="M7.49143 17.963L7.6547 17.5303H6.41736L6.22852 17.963H7.49143Z" fill="#69A1BA"/>
<path d="M5.7914 17.963L5.98221 17.5303H5.13437L4.91602 17.963H5.7914Z" fill="#69A1BA"/>
<path d="M5.25563 16.5021L5.41694 16.0713H4.10485L3.91797 16.5021H5.25563Z" fill="#69A1BA"/>
<path d="M18.6828 16.5021L18.5234 16.0713H19.8336L20.0204 16.5021H18.6828Z" fill="#69A1BA"/>
<path d="M18.3485 16.5031L18.1597 16.0723H17.4023L17.5637 16.5031H18.3485Z" fill="#69A1BA"/>
<path d="M16.374 16.5031L16.2461 16.0723H17.0034L17.1569 16.5031H16.374Z" fill="#69A1BA"/>
<path d="M15.1921 16.5031L15.0996 16.0723H15.857L15.975 16.5031H15.1921Z" fill="#69A1BA"/>
<path d="M13.9984 16.5031L13.9434 16.0723H14.6987L14.7833 16.5031H13.9984Z" fill="#69A1BA"/>
<path d="M12.8166 16.5031L12.7949 16.0723H13.5523L13.5995 16.5031H12.8166Z" fill="#69A1BA"/>
<path d="M11.623 16.5031L11.6368 16.0723H12.3942L12.406 16.5031H11.623Z" fill="#69A1BA"/>
<path d="M10.4355 16.5031L10.4847 16.0723H11.2421L11.2204 16.5031H10.4355Z" fill="#69A1BA"/>
<path d="M9.25586 16.5031L9.33848 16.0723H10.0958L10.0388 16.5031H9.25586Z" fill="#69A1BA"/>
<path d="M8.06641 16.5031L8.18444 16.0723H8.94179L8.84933 16.5031H8.06641Z" fill="#69A1BA"/>
<path d="M6.87891 16.5031L7.03234 16.0723H7.7897L7.6638 16.5031H6.87891Z" fill="#69A1BA"/>
<path d="M5.68945 16.5031L5.87633 16.0723H6.63369L6.47238 16.5031H5.68945Z" fill="#69A1BA"/>
<path d="M5.2527 17.2306L5.41204 16.7979H3.69079L3.50391 17.2306H5.2527Z" fill="#69A1BA"/>
<path d="M18.2686 17.2306L18.1172 16.7979H17.2969L17.4228 17.2306H18.2686Z" fill="#69A1BA"/>
<path d="M16.112 17.2306L16.0176 16.7979H16.8359L16.9579 17.2306H16.112Z" fill="#69A1BA"/>
<path d="M14.8032 17.2306L14.7402 16.7979H15.5605L15.6491 17.2306H14.8032Z" fill="#69A1BA"/>
<path d="M13.5022 17.2306L13.4688 16.7979H14.2891L14.3481 17.2306H13.5022Z" fill="#69A1BA"/>
<path d="M12.1934 17.2306L12.1914 16.7979H13.0097L13.0392 17.2306H12.1934Z" fill="#69A1BA"/>
<path d="M10.8867 17.2306L10.9143 16.7979H11.7346L11.7326 17.2306H10.8867Z" fill="#69A1BA"/>
<path d="M9.57617 17.2306L9.63519 16.7979H10.4555L10.422 17.2306H9.57617Z" fill="#69A1BA"/>
<path d="M8.27344 17.2306L8.36393 16.7979H9.18226L9.11931 17.2306H8.27344Z" fill="#69A1BA"/>
<path d="M6.96875 17.2306L7.08875 16.7979H7.90905L7.81462 17.2306H6.96875Z" fill="#69A1BA"/>
<path d="M5.6582 17.2306L5.80967 16.7979H6.62998L6.50605 17.2306H5.6582Z" fill="#69A1BA"/>
<path d="M18.5832 17.2306L18.4219 16.7979H20.1431L20.33 17.2306H18.5832Z" fill="#69A1BA"/>
</g>
<path d="M23.9377 20.3127L21.1168 15.3004C20.9771 15.0899 20.7273 14.9385 20.4774 14.9385C20.4774 14.9385 20.7174 15.1549 20.7902 15.2591L23.2669 19.8996C23.377 20.1003 23.2314 20.3442 23.0033 20.3442H0.967231C0.741009 20.3442 0.595439 20.1022 0.701666 19.9036L3.05241 15.3437C3.12126 15.2257 3.42224 14.9522 3.42224 14.9522H3.33371C3.08389 14.9522 2.83406 15.1037 2.69439 15.3437L0.0466042 20.3127C-0.0694578 20.4858 0.044637 20.7298 0.241352 20.7298H23.7409C23.9396 20.7298 24.0537 20.4858 23.9377 20.3127Z" fill="#B7D5E5"/>
<path d="M20.9196 3.04629C20.9196 2.84171 20.7209 2.82597 20.7209 3.06793C20.7209 3.30989 20.7209 14.0446 20.7209 14.0446C20.7209 14.3082 20.5065 14.5227 20.2429 14.5227H3.74834C3.48475 14.5227 3.27033 14.3082 3.27033 14.0446C3.27033 14.0446 3.27033 3.30989 3.27033 3.06793C3.27033 2.82597 3.07164 2.84171 3.07164 3.04629L2.88477 14.0446C2.88477 14.5207 3.12869 14.9082 3.74834 14.9082H20.2429C20.7799 14.9082 21.1065 14.5207 21.1065 14.0446L20.9196 3.04629Z" fill="#75A7BC"/>
</g>
<defs>
<radialGradient id="paint0_radial_1560_2748" cx="0" cy="0" r="1" gradientUnits="userSpaceOnUse" gradientTransform="translate(8.92932 -2.10368) scale(14.8451 16.0965)">
<stop stop-color="#2F7889"/>
<stop offset="1" stop-color="#424242"/>
</radialGradient>
<clipPath id="clip0_1560_2748">
<rect width="24" height="24" fill="white"/>
</clipPath>
</defs>
</svg>
