<svg width="24" height="24" viewBox="0 0 24 24" fill="none" xmlns="http://www.w3.org/2000/svg">
<path d="M12 24C18.6274 24 24 18.6274 24 12C24 5.37258 18.6274 0 12 0C5.37258 0 0 5.37258 0 12C0 18.6274 5.37258 24 12 24Z" fill="#CC3333"/>
<path d="M11.22 23.0401C17.4166 23.0401 22.44 18.0167 22.44 11.8201C22.44 5.62346 17.4166 0.600098 11.22 0.600098C5.02336 0.600098 0 5.62346 0 11.8201C0 18.0167 5.02336 23.0401 11.22 23.0401Z" fill="#F44336"/>
<path d="M4.00261 5.14035C4.90261 3.72035 6.82261 2.54035 8.82261 2.18035C9.32261 2.10035 9.82261 2.06035 10.2426 2.22035C10.5626 2.34035 10.8226 2.64035 10.6426 2.98035C10.5026 3.26035 10.1226 3.38035 9.82261 3.48035C7.94661 4.10035 6.32861 5.32235 5.22261 6.96035C4.82261 7.56035 4.22261 9.22035 3.48261 8.80035C2.70261 8.34035 2.86261 6.90035 4.00261 5.14035Z" fill="#FF8A80"/>
<path d="M19.9992 13.5999H3.99922C3.55722 13.5999 3.19922 13.2419 3.19922 12.7999V11.1999C3.19922 10.7579 3.55722 10.3999 3.99922 10.3999H19.9992C20.4412 10.3999 20.7992 10.7579 20.7992 11.1999V12.7999C20.7992 13.2419 20.4412 13.5999 19.9992 13.5999Z" fill="#FAFAFA"/>
</svg>
