<svg width="17" height="24" viewBox="0 0 17 24" fill="none" xmlns="http://www.w3.org/2000/svg">
<path d="M15.2965 12.2417C14.5765 8.68972 12.5026 5.58379 10.7786 3.10384C10.2426 2.32985 8.73864 0.243898 8.43064 0.1079C7.80466 -0.168094 7.09267 0.0999006 6.86268 0.745887C6.63468 1.39187 6.71468 1.65187 6.71468 1.65187C6.71468 1.65187 5.8267 1.76387 5.7527 2.76385C5.7247 3.13984 5.8247 3.90782 5.8247 3.90782C5.8247 3.90782 5.08671 3.90582 5.08671 5.1038C5.08671 6.16578 5.6267 8.23973 6.12269 9.49571C5.7707 9.53571 5.4767 9.6037 5.20671 9.6637C3.90474 9.9577 2.53076 11.9497 1.08879 12.6036C-0.0251828 13.1076 0.214812 13.9996 0.918798 14.3996C0.204812 14.4456 -0.291178 15.0456 0.192812 16.0556C0.828799 17.3835 0.882799 18.6355 1.38879 19.9215C2.81676 23.5474 6.17869 24.2434 8.62864 23.9154C9.54062 23.7934 10.3606 23.5734 11.0866 23.2434C11.5206 23.0474 11.9206 22.8094 12.2846 22.5314C14.3105 21.1735 16.5845 18.5995 15.2965 12.2417ZM9.71862 16.8416C9.41262 18.7355 7.62866 20.0255 5.7347 19.7195C4.81472 19.5715 3.61474 18.7355 3.41475 17.4735C3.12275 15.6416 2.38277 15.0416 2.23877 14.9096C2.11277 14.7936 1.97878 14.6976 1.84078 14.6216C3.10475 14.6676 3.95074 13.7796 4.39673 13.4976C5.08671 13.0596 5.93269 12.8636 6.80268 13.0036C8.69664 13.3096 10.0246 14.9456 9.71862 16.8416Z" fill="#FFCA28"/>
<path d="M7.96574 9.48633C9.10772 9.68033 9.9077 10.0703 9.9077 10.0703C9.8617 9.36634 9.52771 8.68035 9.20971 8.03436C8.49973 6.59639 7.84574 5.50242 7.22375 4.02445C6.94776 3.37046 6.66576 2.32448 6.66776 1.6145C6.19377 1.5265 5.78378 2.41448 5.75778 2.76047C5.72978 3.13646 5.82978 3.90445 5.82978 3.90445C5.82978 3.90445 5.0918 3.90245 5.0918 5.10042C5.0918 6.1564 5.62579 8.21436 6.11978 9.47033C6.11778 9.47233 6.82376 9.29034 7.96574 9.48633Z" fill="#FFB300"/>
<path d="M10.5812 16.247C10.7192 13.3271 8.33322 12.1631 6.24526 12.1631C4.4033 12.1631 3.54332 13.5371 2.76133 14.011C2.40534 14.227 1.99535 14.363 1.72735 14.437C1.64536 14.459 1.65335 14.577 1.73735 14.591C2.90733 14.803 4.0913 13.6911 4.3933 13.4991C4.93529 13.1551 5.57327 12.9611 6.24326 12.9611C8.47122 12.9611 10.0692 14.955 9.71719 16.841C9.3772 18.663 7.78323 19.4229 7.78323 19.4229C8.88321 19.1989 10.4852 18.271 10.5812 16.247Z" fill="#EDA600"/>
<path d="M15.6129 12.3737C14.647 8.88173 12.507 5.5858 10.783 3.10585C10.247 2.33187 8.74308 0.245908 8.43508 0.109911C8.35109 0.0739116 9.07507 1.85787 10.129 3.56184C11.841 6.33178 13.991 9.36372 14.801 12.6117C15.8309 16.7456 15.2749 19.7675 12.165 22.2115C9.90505 23.9874 6.45312 23.9074 6.45312 23.9074C6.45312 23.9074 9.78306 24.4634 12.537 22.8794C15.3289 21.2735 17.1389 17.9015 15.6129 12.3737Z" fill="#EDA600"/>
<path d="M10.4403 10.402C10.5943 10.474 10.7603 10.328 10.7083 10.166C10.4763 9.45804 9.93227 8.00607 9.01629 6.6701C8.34231 5.68812 7.20633 3.55217 6.75634 1.7262C6.73234 1.6322 6.59234 1.6482 6.59634 1.7462C6.63834 2.74618 6.91634 4.26015 7.90631 6.26211C8.5463 7.55608 9.27629 8.47606 9.29029 8.92006C9.30629 9.36405 8.08431 9.24405 7.80832 8.95005C7.40233 8.51806 6.34035 5.84412 5.85436 3.97816C5.83636 3.90616 5.77236 3.89416 5.73636 4.08215C5.70036 4.27015 5.68836 4.48415 5.79836 5.19013C6.02435 6.6381 6.83234 8.65006 6.90434 8.84406C7.01633 9.14605 6.28835 9.15805 6.12635 9.49204C6.12635 9.49204 7.22633 9.43404 8.4163 9.68404C9.19029 9.84604 9.98027 10.184 10.4403 10.402Z" fill="#EDA600"/>
</svg>
