<svg width="24" height="22" viewBox="0 0 24 22" fill="none" xmlns="http://www.w3.org/2000/svg">
<path d="M22.8366 6.56533C21.6262 3.95502 18.0109 1.64879 13.9454 0.286377C10.9125 -0.730497 10.3853 1.28746 10.3853 1.28746L10.1227 2.45439C9.17891 2.51955 8.20547 2.64987 7.18267 2.86509C4.91988 3.34292 1.24136 5.66693 0.228436 6.71342C-0.29481 7.25444 0.0527043 8.47469 1.56321 8.58921C3.3225 8.7215 5.33453 7.49138 7.22019 6.93062C7.90535 6.72724 8.6833 6.58903 9.45534 6.4982C9.45534 6.4982 9.39018 7.12609 9.7061 7.59405C10.022 8.06201 10.8 8.12915 10.8 8.12915C11.7537 10.2774 9.69425 11.0751 8.44636 11.0751C7.18267 11.0751 4.97912 9.24672 2.58995 9.24672C1.579 9.24672 0.339009 9.58634 0.502893 11.1008C0.589772 11.9103 2.31352 12.4119 2.31352 12.4119C6.79369 13.9263 6.47975 15.5731 8.05146 17.6424C10.2195 20.4975 14.7924 21.8481 18.5638 20.2151C20.2224 19.4964 22.1929 17.8892 23.1367 16.0193C24.4537 13.4011 24.0648 9.21118 22.8366 6.56533Z" fill="#FFCA28"/>
<path d="M15.56 11.3977C15.5165 11.2417 15.2974 10.908 15.171 10.8073C15.0269 10.6928 14.0534 11.143 12.9892 10.2979C12.2685 9.7233 12.1974 8.5307 11.992 8.48528C11.8716 8.45764 11.0778 8.30758 10.8843 8.26611C11.5695 10.1557 9.90299 10.9653 8.76172 11.0601C8.78936 11.0877 11.2753 12.073 11.8084 12.7601C12.381 13.4986 12.3672 14.5194 12.7265 15.3823C12.92 15.8463 13.4216 16.4821 13.9211 16.4288C14.2449 16.3952 14.4562 16.1188 14.6734 15.8779C15.4316 15.0426 16.2372 14.0475 16.9935 13.2123C17.183 13.003 17.3745 12.7917 17.5167 12.5469C16.7052 12.7463 15.7831 12.2053 15.56 11.3977Z" fill="#FFB300"/>
<path d="M13.1252 3.00179C13.4549 2.72536 13.9703 2.71549 14.6416 2.76288C16.474 2.8932 19.4239 3.84096 19.4239 3.84096L19.2521 3.61784C19.2324 3.59217 18.7644 2.99982 17.088 2.48052C16.3614 2.25543 15.5519 2.09549 14.7877 1.95925C13.8814 1.79537 13.1252 1.93951 12.6019 2.37587C12.1063 2.78855 11.8457 3.44014 11.8457 4.25561C11.8457 4.25561 11.8437 8.54425 11.9879 9.25311C12.1399 9.99552 12.6434 10.6609 13.3384 11.0321C13.5951 11.1704 14.689 11.3955 15.7217 10.9334C15.7217 10.9334 15.3208 10.0745 15.2873 10.0863C14.8351 10.2641 14.3316 10.2799 13.8498 10.2206C12.8823 10.1021 12.7066 8.63311 12.6908 7.9519L12.6612 4.25759C12.6632 3.85873 12.7441 3.32167 13.1252 3.00179Z" fill="#EDA600"/>
<path d="M10.1874 1.0329C9.98006 1.39424 9.51605 3.24633 9.46669 3.45563C9.41733 3.66493 8.93949 5.90995 8.92567 6.27129C8.87828 7.58039 9.74904 8.62293 10.9989 8.75128L12.6615 8.91121L12.6575 8.79867C12.6476 8.49854 12.6002 8.20039 12.5173 7.91211L12.4956 7.83708C12.4956 7.83708 10.9535 8.07599 10.2012 7.533C9.84974 7.28026 9.72732 6.78071 9.74509 6.30288C9.75497 6.0225 10.298 3.31741 10.3908 2.93238C10.7481 1.4357 10.9436 1.00723 11.2438 0.636025C11.5024 0.318128 12.0158 0.0239258 12.0158 0.0239258C12.0158 0.0239258 11.5616 0.0772376 11.1312 0.258893C10.7521 0.414879 10.3947 0.673541 10.1874 1.0329Z" fill="#EDA600"/>
<path d="M20.7497 9.90624C20.3509 9.58637 19.0516 8.60504 18.8167 8.61886C18.7041 8.62478 18.6054 8.68204 18.5205 8.78867C18.4869 8.83013 18.0901 10.0504 18.0901 10.0504C18.0901 10.0504 18.8601 9.86675 19.4367 10.4255C19.6993 10.6803 19.8908 10.9903 19.8908 11.3595C19.8908 11.8867 19.2412 11.9163 19.2412 11.9163C18.1137 12.0407 16.4097 12.2283 16.1748 11.6379C15.7266 10.5104 15.6397 8.94663 15.5686 7.68886C15.5133 6.7174 16.1452 6.18823 17.1344 5.98881C18.2046 5.77359 21.1999 5.70053 21.1999 5.70053L20.963 5.57021C19.879 4.97193 18.7535 5.05289 17.5609 5.13977C17.4029 5.15161 17.243 5.16346 17.0831 5.17333C15.6298 5.26219 14.6722 6.31658 14.7512 7.73625C14.8005 8.62084 14.9091 9.50147 15.0651 10.3722C15.1421 10.8007 15.3672 11.8788 15.4027 11.9834C15.5015 12.2757 15.7147 12.5323 15.9832 12.6824C16.2696 12.8443 16.5914 12.8739 16.9093 12.9272C16.8185 12.9391 16.2774 13.4248 16.1353 13.5472C15.849 13.7941 14.3918 15.5119 14.1292 16.2148C14.1272 16.2227 14.1233 16.2286 14.1213 16.2365C14.1055 16.28 14.0897 16.3293 14.1075 16.3728C14.1568 16.4893 14.3326 16.4083 14.4175 16.3155C15.8707 14.7635 17.6754 13.4011 19.7783 13.0813C19.9481 13.0556 20.1297 13.0339 20.2679 12.9312C20.42 12.8187 20.4022 12.6587 20.4338 12.4909C20.7122 10.9389 20.9274 10.7197 21.0084 10.4354C21.0834 10.1708 20.9235 10.0464 20.7497 9.90624Z" fill="#EDA600"/>
<path d="M11.66 12.086C11.0222 11.393 10.2205 11.0257 9.34188 11.0257C9.31029 11.0257 8.31316 11.1659 6.97641 10.6367C6.94877 10.7354 7.22718 11.1777 8.63106 11.4877C9.43468 11.6654 10.1475 11.5726 11.3835 13.0654C11.8278 13.6005 12.3017 14.5719 12.5169 15.1268C12.5386 15.184 12.59 15.2196 12.6492 15.2196C12.6551 15.2196 12.663 15.2196 12.6689 15.2176C12.738 15.2077 12.7914 15.1505 12.7973 15.0794C12.8703 14.2856 12.5051 13.0022 11.66 12.086Z" fill="#EDA600"/>
<path d="M15.2272 21.3733C11.0965 21.2055 8.67773 18.3622 8.67773 18.3622C8.67773 18.3622 13.5429 22.2974 19.1802 19.3455C24.7463 16.4311 23.6228 9.01088 22.835 6.56445C22.835 6.56445 23.451 7.47076 23.7689 9.05629C23.9802 10.1107 25.0682 17.1281 19.6679 20.2044C18.1416 21.0752 16.6094 21.3733 15.2272 21.3733Z" fill="#EDA600"/>
<path d="M6.73484 6.4145C8.45859 5.93864 9.36094 6.04922 9.36094 6.04922L9.19113 6.85679C9.19113 6.85679 8.04592 6.73832 6.11682 7.39781C5.07032 7.75717 4.3674 8.08692 3.4374 8.3357C2.92995 8.47392 5.46128 6.76597 6.73484 6.4145Z" fill="#EDA600"/>
</svg>
