<svg width="23" height="24" viewBox="0 0 23 24" fill="none" xmlns="http://www.w3.org/2000/svg">
<path d="M19.3115 12.9714C17.7875 13.3275 16.4514 14.2235 16.2474 14.5275C16.1974 14.6015 16.0774 14.5375 15.9094 14.3795C15.9394 10.8033 15.9534 5.17106 15.7954 2.39892C15.6854 0.468824 14.9673 0.0548034 14.3293 0.00680104C13.3192 -0.0712029 12.9432 0.510826 12.7992 2.32092C12.5732 5.17506 12.5872 8.19521 12.4632 8.80124C12.4632 8.80124 12.0332 7.24516 10.4591 7.01515C8.75501 6.76714 8.467 9.00725 8.467 9.00725C8.467 9.00725 7.44494 7.45717 5.84086 8.0692C4.5048 8.57923 4.4908 10.4113 4.4908 10.4113C3.90277 10.6713 3.20673 7.50118 2.6127 4.25501C2.27869 2.42292 0.0185722 3.04095 0.00057134 4.75704C-0.0274301 7.34117 0.98262 14.9335 1.09663 15.7596C1.57865 19.2178 2.96672 24 8.94302 24C12.0072 24 13.3852 23.442 15.0913 21.5279C16.4254 20.0298 16.9974 18.2077 19.5236 16.5236C21.3596 15.2996 22.5997 15.5316 22.5977 14.3315C22.5977 13.4335 21.5797 12.4414 19.3115 12.9714Z" fill="#FFCA28"/>
<path d="M8.36669 12.5771C8.40269 12.5111 8.92672 12.1471 9.05872 12.3611C9.94877 13.7892 11.6789 13.5432 12.1369 12.0831C12.1909 11.9111 12.5369 14.7852 10.7908 15.4833C10.2688 15.6913 9.56675 15.7013 9.19273 15.2813C8.87872 14.9292 8.5487 14.9872 7.84466 15.4133C7.35864 15.7073 6.38459 15.4913 5.99457 15.0792C5.60455 14.6672 5.33454 14.2072 5.16653 13.6632C5.11453 13.4972 5.10053 13.2351 5.29054 13.1471C5.36054 13.1171 7.27663 14.5992 8.36669 12.5771Z" fill="#FFB300"/>
<path d="M15.9213 2.18326C15.7913 -0.176856 14.2752 0.00315327 14.2752 0.00315327C14.2752 0.00315327 15.2693 0.483177 15.3313 2.20326C15.3913 3.86935 15.4833 9.82364 15.5533 13.5158C15.5533 14.5679 14.0872 14.5639 12.6052 15.0579C12.4291 15.1159 12.2951 14.9399 12.3671 14.7699C12.6152 14.1859 13.1972 12.9778 12.8092 10.2177C12.6732 9.24562 12.4111 8.54958 12.2171 8.19556C11.5311 6.9415 10.191 6.9955 10.191 6.9955C10.191 6.9955 11.1531 7.22951 11.5831 8.32357C11.8751 9.06361 12.5831 11.2377 11.8431 13.8318C11.6711 14.4359 11.2371 15.1499 10.191 15.0599C9.94302 15.0379 9.30299 14.8839 9.25498 14.3099C9.22098 13.8978 9.24898 13.3618 9.22698 12.8718C9.19298 12.0958 8.91897 10.1237 8.63495 9.20961C8.45494 8.62958 7.83891 7.92755 6.51285 7.90955C6.51285 7.90955 7.10888 7.99155 7.70691 9.08561C7.83891 9.32762 8.04492 9.86165 8.19493 10.6637C8.29494 11.3997 8.58295 13.5778 8.20693 14.3559C7.87691 15.0359 6.49285 15.3059 5.94682 14.6459C4.95477 13.4458 4.60275 9.60163 4.60275 9.60163C4.60275 9.60163 4.47874 9.86565 4.40674 10.3157C3.91272 9.77764 3.44069 7.07751 2.80066 4.33137C2.62265 3.56533 2.13463 2.9053 1.14258 3.18731C1.14258 3.18731 2.02662 3.27732 2.21663 4.43937C2.48865 6.09546 3.03667 8.39557 3.31869 9.60163C3.5767 10.7017 3.94272 11.0577 4.36074 11.1657C4.36074 11.1717 4.36074 11.1777 4.36074 11.1817C4.39674 11.8437 4.48475 12.9378 4.73076 13.7858C5.16278 15.2659 5.5428 15.4539 5.92282 15.6839C6.78886 16.206 8.29494 15.8559 8.76496 15.2739C9.04497 15.6119 9.46499 15.8319 9.94902 15.8779C9.98102 15.8819 10.253 15.8759 10.529 15.8619C10.6991 15.8539 10.7831 16.062 10.6571 16.176C10.073 16.71 9.595 17.41 9.27298 18.4321C9.03097 19.1981 8.95497 19.7921 8.94497 20.2162C8.94097 20.3882 9.18098 20.4282 9.23098 20.2642C9.30299 20.0242 9.38499 19.7641 9.46699 19.5441C9.75701 18.7641 10.349 16.38 13.5892 15.5779C14.1992 15.4259 14.9593 15.3559 15.5813 15.0439C15.5813 15.0479 15.5813 15.0539 15.5813 15.0579C15.5813 15.0579 15.6273 15.0299 15.6973 14.9839C15.9033 14.8659 16.0913 14.7179 16.2493 14.5239C16.2613 14.5079 16.2713 14.4879 16.2793 14.4639C16.2953 14.4439 16.3113 14.4259 16.3273 14.4059C16.3273 14.4059 16.0773 4.9794 15.9213 2.18326Z" fill="#EDA600"/>
<path d="M21.4221 15.114C20.752 15.304 19.748 15.636 18.996 16.138C17.2259 17.3181 16.4418 18.4681 15.7458 19.5802C15.3998 20.1342 15.0718 20.6562 14.6497 21.1303C13.0597 22.9164 11.8816 23.5424 8.99346 23.6144C8.25342 23.6324 7.35938 23.8724 7.35938 23.8724C7.8474 23.9544 8.37543 23.9984 8.94345 23.9984C12.0076 23.9984 13.3857 23.4404 15.0918 21.5263C16.4258 20.0282 16.9979 18.2061 19.524 16.522C21.2761 15.354 22.4821 15.508 22.5881 14.4819C22.5921 14.4819 22.3721 14.846 21.4221 15.114Z" fill="#EDA600"/>
</svg>
