<svg width="24" height="24" viewBox="0 0 24 24" fill="none" xmlns="http://www.w3.org/2000/svg">
<path d="M18.6436 7.24572C18.6436 7.24572 19.7911 5.55104 20.5725 5.2617C21.3558 4.97237 22.1687 5.16132 22.5289 4.6909C22.8931 4.21458 23.082 3.40168 22.9659 2.88009C22.8498 2.3585 22.5526 1.96288 22.2927 1.9058C22.0329 1.84872 21.344 2.21285 21.344 2.21285C21.344 2.21285 21.3736 1.32909 21.287 1.01023C21.2004 0.691373 20.8362 0.358735 20.6492 0.242606C20.043 -0.135302 19.7222 0.156002 19.7222 0.156002C19.7222 0.156002 19.9544 2.18529 19.2006 3.08282C18.4467 3.98036 15.4609 7.08235 16.0415 7.11188C16.6202 7.13943 18.6436 7.24572 18.6436 7.24572Z" fill="#DDBCA8"/>
<path d="M18.5878 5.91481C18.5878 5.91481 19.8691 4.7122 20.2726 4.5016C20.6761 4.29099 21.5146 4.39924 21.8079 4.24572C22.2035 4.03905 22.6326 3.59619 22.668 2.87777C22.7034 2.15935 22.5027 1.80703 21.7921 1.77357C21.2134 1.74601 20.8631 1.96646 20.7056 1.809C20.5482 1.65154 20.6879 0.59851 20.6013 0.423334C20.5127 0.248157 20.2687 -0.0844808 19.6191 0.0198376C18.9696 0.124156 18.6901 0.724479 18.6547 0.879973C18.509 1.51179 18.6153 2.69866 18.4559 2.98012C18.204 3.42298 16.4994 5.31646 16.4994 5.31646C16.4994 5.31646 18.572 5.87939 18.5878 5.91481Z" fill="#FFEBCA"/>
<path d="M18.6431 5.48082C21.4104 7.43334 22.3454 10.1397 22.247 12.1493C22.1623 13.8775 21.5482 14.8085 20.5424 15.641C19.5366 16.4736 18.9088 16.7059 18.4915 17.2688C18.0742 17.8317 17.4896 20.1602 16.1906 21.3845C14.8915 22.6087 10.7424 25.0769 5.90833 20.7428C0.932533 16.2807 2.46385 11.8049 4.30222 10.1378C6.0776 8.5277 7.62072 8.41748 8.41197 7.45499C9.31934 6.35276 8.9749 5.90596 10.4472 4.70138C12.1832 3.28029 15.236 3.07952 18.6431 5.48082Z" fill="#CF701E"/>
<path d="M13.126 11.94C16.043 14.2822 18.0506 19.1183 14.5471 21.3778C11.9234 23.0686 8.17971 21.7931 6.04807 19.819C4.38094 18.2758 2.27686 14.1838 4.27662 11.7549C6.05594 9.59378 10.0122 9.44026 13.126 11.94Z" fill="#FBD5B2"/>
<path d="M13.6056 5.8539C13.7925 5.66692 14.0898 5.68267 14.3319 5.96806C14.574 6.25346 14.6074 6.61563 14.4027 6.77899C14.1035 7.02109 13.7906 6.71798 13.6331 6.50934C13.4638 6.28102 13.393 6.06648 13.6056 5.8539Z" fill="#AB5931"/>
<path d="M18.9838 8.17405C19.3538 8.11697 19.468 8.47322 19.4817 8.7724C19.4955 9.07158 19.5388 9.41406 19.1393 9.44161C18.7397 9.46917 18.6551 9.0578 18.6551 8.78618C18.657 8.51456 18.6177 8.22916 18.9838 8.17405Z" fill="#AB5931"/>
<path d="M18.8779 11.6481C19.2342 11.6323 19.3483 11.9334 19.3326 12.3743C19.3168 12.8152 19.1751 13.0869 18.933 13.0711C18.6909 13.0573 18.559 12.7857 18.5335 12.4157C18.5059 11.9886 18.5354 11.6618 18.8779 11.6481Z" fill="#AB5931"/>
<path d="M17.6117 13.0723C17.8262 12.9187 18.1392 13.0289 18.2533 13.4718C18.3754 13.9442 18.1904 14.0938 18.0388 14.1548C17.7967 14.2552 17.6117 13.9973 17.5271 13.7139C17.4405 13.4285 17.4109 13.214 17.6117 13.0723Z" fill="#AB5931"/>
<path d="M9.22904 11.3451C9.46327 11.1856 11.1816 11.5478 12.831 13.1145C14.4804 14.6813 15.0276 15.9843 14.8642 16.4311C14.7008 16.8779 13.5829 16.8582 13.1341 16.8582C12.6853 16.8582 11.53 16.8484 11.1599 16.8385C10.4277 16.8188 10.4277 17.5294 11.1796 17.6317C11.7878 17.7144 13.4589 17.7734 14.13 18.0175C14.7205 18.232 15.248 18.4033 15.2894 18.8717C15.3307 19.3402 14.5985 20.4995 13.3762 20.9266C12.1539 21.3537 10.7112 21.2317 10.4474 21.029C10.1837 20.8262 10.0006 19.3815 9.95927 18.7103C9.91794 18.0392 9.93959 17.0826 9.4298 17.0826C8.92002 17.0826 9.06371 18.2832 9.04402 18.7714C9.02434 19.2595 9.06371 20.1137 8.79996 20.3184C8.53621 20.5211 7.48318 19.9976 6.56203 19.0764C5.72748 18.2419 5.0563 17.3463 5.30037 17.0412C5.54443 16.7362 7.55798 16.6948 8.04611 16.7165C8.53424 16.7362 8.61494 15.9036 7.92408 15.8819C7.23321 15.8622 5.56412 16.004 5.03465 15.7186C4.50519 15.4332 3.85565 14.1321 4.74925 12.6677C5.64285 11.2033 6.6821 11.162 7.12889 11.2033C7.57569 11.2447 7.78039 12.4237 7.94179 12.9945C8.10516 13.5633 8.26656 14.6222 8.32757 14.8663C8.38859 15.1104 8.91805 15.3131 8.95742 14.7856C8.99875 14.2561 8.91609 13.3212 8.8964 12.7917C8.87672 12.2623 8.84326 11.6108 9.22904 11.3451Z" fill="#FF605E"/>
<path d="M8.07415 17.4506C8.07415 17.4506 9.66058 16.0865 9.78261 16.2499C9.90464 16.4133 10.1487 16.6967 10.19 17.1455C10.2314 17.5923 10.0818 17.732 10.0818 17.732C10.0818 17.732 8.60362 19.6885 8.27885 20.0546C7.95409 20.4207 7.49351 21.0978 7.45218 21.4225C7.41084 21.7473 7.57027 22.8318 7.42462 23.1684C7.24157 23.5955 6.87941 23.8789 6.33026 23.9833C6.05273 24.0364 5.05285 23.9695 4.78714 23.7038C4.52142 23.438 4.40726 22.9479 4.40726 22.7039C4.40726 22.4598 4.52142 22.2827 4.25767 22.1606C3.99392 22.0386 3.21055 22.1331 2.84445 21.9303C2.47835 21.7276 2.19295 21.2907 2.21263 20.7809C2.23232 20.2731 2.94877 19.9286 3.00978 19.9286C3.0708 19.9286 8.07415 17.4506 8.07415 17.4506Z" fill="#DFBBAA"/>
<path d="M7.86886 15.5446C7.95743 15.4836 8.00861 15.462 8.07553 15.4561C8.36683 15.4324 8.74474 15.458 9.17382 15.7277C9.62456 16.0091 9.93555 16.454 9.93555 16.454C9.93555 16.454 7.44174 19.5245 7.21736 19.8512C6.99298 20.176 6.58751 20.7054 6.58751 20.9692C6.58751 21.2329 6.74104 22.3155 6.64853 22.5556C6.50681 22.9217 5.97735 23.4295 5.48922 23.4295C4.79639 23.4295 4.52673 23.0516 4.42438 22.7859C4.32203 22.5202 4.32794 21.7191 4.16654 21.3136C3.96381 20.8058 2.31833 21.2428 2.21598 20.918C2.11363 20.5932 1.96601 19.7134 2.68049 19.3001C3.20996 18.995 4.53264 19.1584 4.53264 19.1584C4.53264 19.1584 7.60905 15.7198 7.86886 15.5446Z" fill="#FFEBCA"/>
</svg>
