<svg width="24" height="24" viewBox="0 0 24 24" fill="none" xmlns="http://www.w3.org/2000/svg">
<g clip-path="url(#clip0_3931_7157)">
<path d="M12 0C5.37264 0 0 5.37264 0 12C0 18.6276 5.37264 24 12 24C18.6274 24 24 18.6276 24 12C23.9997 5.37264 18.6274 0 12 0ZM17.7552 15.7271C18.997 16.9465 17.0894 18.8524 15.8483 17.6337C14.6014 16.4098 13.3542 15.1853 12.1071 13.9613C10.86 15.1855 9.6128 16.41 8.36565 17.6342C7.1243 18.8524 5.21666 16.9465 6.45902 15.7273C7.68802 14.5208 8.91753 13.3142 10.1468 12.1074C10.143 12.0814 10.1405 12.0542 10.1375 12.0277C8.91073 10.8237 7.6845 9.61961 6.45751 8.41555C5.21515 7.19612 7.12304 5.29075 8.36464 6.50917C9.61205 7.73364 10.8597 8.95836 12.1074 10.1828C13.355 8.95836 14.6024 7.73364 15.8498 6.50917C17.0907 5.29075 18.9986 7.19612 17.7562 8.4158C16.5146 9.63447 15.273 10.8531 14.0319 12.0721C15.273 13.2905 16.5138 14.5087 17.7552 15.7271Z" fill="#13D16A"/>
</g>
<defs>
<clipPath id="clip0_3931_7157">
<rect width="24" height="24" fill="white"/>
</clipPath>
</defs>
</svg>
