<svg width="24" height="24" viewBox="0 0 24 24" fill="none" xmlns="http://www.w3.org/2000/svg">
<path d="M21.7881 16.5562C22.736 16.3042 23.042 14.8444 23 14.1264C22.952 13.3345 22.4441 12.0607 21.7002 11.9447C21.9721 11.6947 22.2901 10.9808 22.1041 9.86094C21.9121 8.69907 21.0102 7.77518 20.0543 7.91717C19.9344 7.93516 17.9246 8.14914 16.4848 8.37711C15.0449 8.60509 14.9749 8.42711 14.9749 8.42711C16.1508 5.88141 17.0107 -0.179882 12.8412 0.00409659C11.8053 0.216072 13.3231 3.43969 11.2194 6.26736C10.6455 7.03927 9.79955 7.78318 8.5597 8.42711C7.90177 8.84506 7.27785 9.43899 6.91589 9.93293C6.46794 10.5429 6.31596 11.0348 5.71003 11.2868C4.18421 11.9187 2.76238 11.7567 2.09845 11.6187C1.86648 11.5707 1.64251 11.7107 1.57652 11.9387C0.380657 16.0402 1.35654 19.4318 1.7325 20.4917C1.80249 20.6917 2.00647 20.8117 2.21644 20.7837C3.23232 20.6457 4.03223 20.6417 5.26808 20.7597C6.45594 20.8716 7.11787 21.7575 8.00976 22.3455C10.0235 23.8253 12.9612 23.7173 15.7169 23.6473C16.3108 23.6333 16.8867 23.7193 17.4447 23.7913C17.7266 23.8633 18.0266 23.9213 18.3525 23.9653C19.6024 24.1353 20.1983 23.6673 20.5143 22.8634C20.7903 22.1595 20.6763 21.4096 20.0583 20.7317C20.1903 20.7617 20.3123 20.7877 20.4163 20.8057C21.6262 21.0256 22.3301 19.9797 22.5001 18.8859C22.642 17.972 22.3521 16.9081 21.7881 16.5562Z" fill="#FFCA28"/>
<path d="M17.2344 16.1423C17.2344 16.1423 16.5684 15.7584 16.4584 15.2364C16.3485 14.7145 16.3305 14.4545 16.3145 14.0606C16.2905 13.4066 16.8984 12.9887 16.8984 12.9887L16.9404 12.2148C16.9404 12.2148 16.3265 11.8248 16.1745 11.7028C15.9385 11.5129 15.7985 10.8049 15.8325 10.443C15.8565 10.189 16.1545 9.70508 16.1545 9.70508C14.7146 9.79107 14.6487 11.4689 14.6627 12.0288C14.6827 12.6907 14.3927 13.5886 13.9767 14.2885C13.4408 15.1884 11.553 16.3863 11.457 16.4383C12.5569 16.8902 13.2188 18.2001 13.4748 19.186C13.6008 19.6699 14.1427 21.9256 14.5027 22.2736C14.5967 22.4076 15.4966 22.9995 16.1085 23.0975C16.1085 23.0975 15.5206 22.4536 15.8305 21.4057C16.0765 20.5738 16.8604 20.3798 16.8604 20.3798L17.2084 19.7859C17.2084 19.7859 16.7104 19.3239 16.6004 18.882C16.5064 18.504 16.4304 17.6401 16.7324 17.2522C16.8684 17.0762 17.2743 16.8622 17.2743 16.8622L17.2344 16.1423Z" fill="#FFB300"/>
<path d="M9.22079 8.14972C8.89483 8.59567 7.74897 9.90152 7.497 10.2135C7.24503 10.5254 6.26914 11.9173 5.94918 12.3652L5.86719 12.3592C5.88519 11.8813 6.12116 10.7934 6.86107 9.70354C7.62898 8.68966 8.74285 8.23971 9.1888 8.07373L9.22079 8.14972Z" fill="#EDA600"/>
<path d="M20.762 16.2635C18.0423 16.1935 15.7666 16.0535 15.7666 16.0535C15.7666 16.0535 14.9587 16.0255 14.8787 14.6117C14.8167 13.5118 15.5926 13.2059 16.0006 13.1199C16.8505 13.0459 19.5721 12.6339 20.438 12.4999C21.3479 12.358 21.6999 11.948 21.6999 11.948C21.6999 11.948 21.2879 11.732 20.558 11.834C19.8261 11.936 17.6944 12.134 16.3125 12.272C16.0966 12.294 15.6046 12.122 15.3946 11.3801C15.1967 10.6862 15.5246 10.1502 15.7126 9.98624C16.0386 9.70427 17.7944 8.93636 19.1462 8.58241C20.752 8.16046 21.7199 8.87237 21.7199 8.87237C21.4079 7.89449 20.3321 7.7445 19.3382 7.8165C18.5983 7.86849 15.7206 8.38243 15.3586 8.31444C15.2347 8.31044 15.1467 8.26044 15.1887 8.15446C15.5026 7.11858 15.8566 5.46277 15.8646 5.06882C15.8686 4.85084 15.7046 5.03482 15.6386 5.2148C15.1747 6.46465 13.9748 8.11046 14.0688 9.81826C14.1048 10.4782 14.2908 11.994 13.8688 13.1539C13.0709 15.3396 11.3951 16.1135 11.3531 16.1975C11.3111 16.2815 11.3331 16.4055 11.4211 16.4375C11.7031 16.4555 11.989 16.3415 12.251 16.2435C12.8649 15.9075 13.4609 15.5276 14.0328 15.1176C14.1188 15.9355 14.4827 16.4155 14.9087 16.6495C14.3308 17.3754 14.4308 19.3931 15.1247 19.8891C14.6947 20.137 14.4767 20.567 14.3628 21.0209C14.1348 21.9328 14.4048 22.3408 14.7667 22.7627C14.7667 22.7627 12.699 23.1687 10.1433 22.6788C7.77753 22.2268 7.76753 20.305 5.16784 20.305C2.56815 20.305 1.2343 20.869 2.52215 20.739C3.99198 20.589 4.97386 20.811 5.68778 20.875C6.90964 20.983 7.2376 22.5028 9.95928 23.3007C11.8871 23.8646 15.9286 23.6166 15.9286 23.6166C15.9286 23.6166 17.8044 23.9966 18.0983 23.9166C18.0983 23.9166 15.8626 23.1187 15.3626 22.5308C15.2667 22.4188 14.8127 21.8968 15.3586 20.797C15.5046 20.503 16.1226 20.305 16.5465 20.333C16.6965 20.343 17.6324 20.557 19.3122 20.891C20.448 21.1189 20.65 22.0848 20.65 22.0848C20.65 22.0848 20.826 20.605 19.6241 20.325C18.4823 20.0591 16.8405 19.6931 16.3885 19.5771C15.9366 19.4611 15.4106 19.0192 15.4286 18.0413C15.4426 17.1914 15.9466 16.8974 16.2405 16.8794C16.5345 16.8614 18.9402 16.9414 20.674 16.9694C21.4119 16.9694 21.8099 16.5675 21.8099 16.5675C21.8099 16.5675 21.5159 16.2835 20.762 16.2635Z" fill="#EDA600"/>
</svg>
