<svg width="24" height="24" viewBox="0 0 24 24" fill="none" xmlns="http://www.w3.org/2000/svg">
<g clip-path="url(#clip0_3931_7151)">
<path d="M11.0786 2.35787C10.9745 1.11387 10.0319 0.131893 8.83853 0.0489286C8.12045 -0.000287545 7.13472 -0.0237238 5.78432 0.0334606C4.43392 0.0906451 3.44492 0.197983 2.7198 0.307665C1.51939 0.492811 0.494293 1.51838 0.309147 2.71832C0.199466 3.44343 0.0949399 4.43291 0.0349431 5.78284C-0.0250536 7.13277 0.000257495 8.11849 0.050411 8.83705C0.133844 10.0304 1.11535 10.973 2.35935 11.0771C3.10931 11.138 4.133 11.1811 5.53683 11.1769C6.94066 11.1727 7.96717 11.124 8.71526 11.0565C9.31876 11.0028 9.88417 10.7386 10.3126 10.3102C10.741 9.88175 11.0052 9.31634 11.0589 8.71284C11.1264 7.96522 11.1756 6.93871 11.1793 5.53441C11.1831 4.13012 11.1395 3.10548 11.0786 2.35787Z" fill="#13D16A"/>
<path d="M23.6918 2.7198C23.5067 1.51986 22.4811 0.494293 21.2812 0.309147C20.556 0.199466 19.5666 0.0949399 18.2166 0.0349431C16.8667 -0.0250536 15.881 0.000257495 15.1624 0.050411C13.9691 0.133375 13.0264 1.11535 12.9224 2.35935C12.8615 3.10931 12.8183 4.133 12.8226 5.53683C12.8268 6.94067 12.8755 7.96717 12.943 8.71526C12.9966 9.31879 13.2608 9.88425 13.6892 10.3127C14.1176 10.7411 14.6831 11.0053 15.2866 11.0589C16.0366 11.1264 17.0608 11.1756 18.4651 11.1793C19.8694 11.1831 20.8949 11.1404 21.6425 11.0795C22.8861 10.9754 23.868 10.0324 23.9515 8.83947C24.0016 8.12091 24.0241 7.13565 23.9669 5.78526C23.9098 4.43486 23.8015 3.44492 23.6918 2.7198Z" fill="#13D16A"/>
<path d="M11.0565 15.2846C11.0029 14.6811 10.7387 14.1156 10.3103 13.6872C9.88183 13.2587 9.31637 12.9946 8.71284 12.941C7.96288 12.8735 6.93871 12.8243 5.53441 12.8205C4.13012 12.8168 3.10455 12.8594 2.35693 12.9204C1.11434 13.0254 0.131893 13.968 0.0489286 15.1614C-0.000287545 15.8799 -0.0237238 16.8652 0.0334606 18.2156C0.0906451 19.566 0.197983 20.555 0.307665 21.2801C0.492811 22.48 1.51838 23.5056 2.71832 23.6907C3.44203 23.8004 4.43151 23.9064 5.78143 23.9649C7.13136 24.0235 8.11709 23.9996 8.83564 23.9495C10.0281 23.8665 10.9716 22.8841 11.0757 21.6405C11.1366 20.8929 11.1797 19.8669 11.1755 18.4631C11.1713 17.0592 11.124 16.0304 11.0565 15.2846Z" fill="#13D16A"/>
<path d="M23.9514 15.1605C23.8685 13.968 22.886 13.0245 21.6425 12.9204C20.8949 12.8595 19.8688 12.8164 18.465 12.8206C17.0612 12.8248 16.0342 12.8736 15.2866 12.9411C14.683 12.9947 14.1176 13.2588 13.6891 13.6872C13.2607 14.1157 12.9966 14.6811 12.943 15.2847C12.8755 16.0346 12.8262 17.0588 12.8225 18.4631C12.8187 19.8674 12.8614 20.893 12.9223 21.6406C13.0264 22.8841 13.9699 23.8666 15.1624 23.9495C15.8809 23.9997 16.8662 24.0222 18.2166 23.965C19.567 23.9078 20.556 23.8005 21.2797 23.6908C22.4815 23.5056 23.5066 22.4801 23.6918 21.2787C23.8014 20.555 23.9074 19.5655 23.966 18.2156C24.0245 16.8657 23.9983 15.879 23.9514 15.1605Z" fill="#13D16A"/>
</g>
<defs>
<clipPath id="clip0_3931_7151">
<rect width="24" height="24" fill="white"/>
</clipPath>
</defs>
</svg>
