<svg width="24" height="24" viewBox="0 0 24 24" fill="none" xmlns="http://www.w3.org/2000/svg">
<g clip-path="url(#clip0_3931_7048)">
<path d="M13.3333 0C11.4133 0 9.725 1.00833 8.79167 2.54167C8.525 2.98167 8.35467 3.469 8.16667 3.95833C7.436 5.86233 5.86233 7.436 3.95833 8.16667C3.469 8.35467 2.98167 8.525 2.54167 8.79167C1.28833 9.55167 0.405 10.8117 0.125 12.2917C0.085 12.465 0.0283333 12.6467 0.0416667 12.8333C0.055 13.0733 0.26 13.3333 0.5 13.3333H0.833333C5.46 13.3333 7.29333 12.715 9 11.875C10.9867 10.9017 13.0383 8.025 13.2917 4.95833C13.3183 5.17167 13.3333 5.10667 13.3333 5.33333C13.3333 8.16 12.335 11.2967 9.70833 12.75C8.90833 13.19 6.89333 14.3867 1.33333 14.6667H0.666667C0.506667 14.6667 0.37 14.74 0.25 14.8333C0.103333 14.9533 0 15.12 0 15.3333C0 15.4653 0.0756667 15.556 0.125 15.6667C0.994333 17.5947 3.468 18.6667 5.33333 18.6667C12.6933 18.6667 18.6667 12.6933 18.6667 5.33333C18.6667 2.38667 16.28 0 13.3333 0ZM18.5833 12.5833C17.6953 14.366 16.4283 15.9467 14.875 17.1667C14.9177 17.1893 14.9573 17.187 15 17.2083C16.7067 18.0483 18.54 18.6667 23.1667 18.6667H23.5C23.74 18.6667 23.945 18.4067 23.9583 18.1667C23.9717 17.98 23.915 17.7983 23.875 17.625C23.595 16.145 22.7117 14.885 21.4583 14.125C21.0183 13.8583 20.531 13.688 20.0417 13.5C19.503 13.2933 19.038 12.93 18.5833 12.5833ZM13.9167 17.8333C12.438 18.796 10.7637 19.477 8.95833 19.7917C11.3917 22.3783 14.8387 24 18.6667 24C20.532 24 23.0057 22.928 23.875 21C23.9243 20.8893 24 20.7987 24 20.6667C24 20.4533 23.8967 20.2867 23.75 20.1667C23.63 20.0733 23.4933 20 23.3333 20H22.6667C17.1067 19.72 15.0917 18.5233 14.2917 18.0833C14.1637 18.0127 14.0367 17.912 13.9167 17.8333Z" fill="#13D16A"/>
</g>
<defs>
<clipPath id="clip0_3931_7048">
<rect width="24" height="24" fill="white"/>
</clipPath>
</defs>
</svg>
