<svg width="24" height="24" viewBox="0 0 24 24" fill="none" xmlns="http://www.w3.org/2000/svg">
<g clip-path="url(#clip0_4539_12080)">
<path d="M11.763 23.3031C6.10459 23.3031 0 19.7539 0 11.966C0 4.17808 6.10459 0.628906 11.763 0.628906C14.9065 0.628906 17.8067 1.66324 19.9565 3.54937C22.2888 5.61804 23.526 8.5385 23.526 11.966C23.526 15.3935 22.2888 18.2937 19.9565 20.3623C17.8067 22.2485 14.8863 23.3031 11.763 23.3031Z" fill="url(#paint0_radial_4539_12080)"/>
<path d="M21.4814 5.22266C22.5624 6.96682 23.1262 9.0436 23.1262 11.3536C23.1262 14.7811 21.889 17.6813 19.5567 19.7499C17.4069 21.6361 14.4865 22.6907 11.3632 22.6907C7.70044 22.6907 3.85921 21.2 1.5918 18.0382C3.77403 21.6199 7.87891 23.2991 11.7688 23.2991C14.8921 23.2991 17.8126 22.2445 19.9623 20.3584C22.2947 18.2897 23.5318 15.3895 23.5318 11.962C23.5318 9.37824 22.828 7.08243 21.4814 5.22266Z" fill="#EB8F00"/>
<path d="M8.73111 10.3023L8.69055 10.3429L8.58914 10.4443C8.54858 10.4848 8.50802 10.5051 8.44718 10.566C8.38228 10.6187 8.31535 10.6653 8.24437 10.7079C8.16324 10.7485 8.08212 10.8093 8.00099 10.8499C7.91987 10.8905 7.81846 10.931 7.71706 10.9716C7.61768 11.0081 7.51628 11.0345 7.41284 11.0527C7.30535 11.071 7.19787 11.077 7.08835 11.073H6.90582C6.85714 11.077 6.80847 11.0689 6.76385 11.0527C6.66042 11.0345 6.55901 11.0081 6.45964 10.9716C6.36229 10.9391 6.26697 10.8986 6.1757 10.8499C6.09458 10.8093 6.01345 10.7485 5.93233 10.7079C5.79036 10.6065 5.66868 10.5051 5.58755 10.4443L5.46587 10.3226L5.4253 10.282C5.16368 10.0468 4.77226 10.0305 4.49238 10.2415C4.29565 10.3956 4.22873 10.6633 4.33013 10.8905L4.37069 10.9513C4.393 11.0081 4.42139 11.0608 4.45182 11.1135C4.57553 11.3224 4.72561 11.5131 4.898 11.6814C5.01766 11.799 5.14746 11.9086 5.28334 12.0059C5.44356 12.1175 5.61189 12.2128 5.79036 12.2898C5.98506 12.3791 6.1899 12.446 6.39879 12.4927L6.74357 12.5535C6.80441 12.5535 6.88554 12.5738 6.90582 12.5738H7.06807C7.29319 12.5738 7.51628 12.5535 7.73734 12.5129C7.94826 12.4703 8.15107 12.4014 8.34577 12.3101C8.52424 12.2331 8.69258 12.1377 8.8528 12.0262C8.99476 11.9349 9.12456 11.8254 9.23814 11.7017C9.33751 11.6104 9.42675 11.509 9.50179 11.3975C9.54235 11.3569 9.56263 11.2961 9.60319 11.2555C9.64376 11.215 9.66404 11.1744 9.68432 11.1338C9.7188 11.0852 9.74719 11.0304 9.76544 10.9716L9.78572 10.931C9.91147 10.6471 9.78167 10.3124 9.49773 10.1867C9.4734 10.1766 9.44703 10.1664 9.42066 10.1603C9.18338 10.0569 8.90755 10.1137 8.73111 10.3023Z" fill="#422B0D"/>
<path d="M17.8405 10.3023L17.7999 10.3429L17.6985 10.4443C17.658 10.4848 17.6174 10.5051 17.5566 10.566C17.4917 10.6187 17.4247 10.6653 17.3537 10.7079C17.2726 10.7485 17.1915 10.8093 17.1104 10.8499C17.0292 10.8905 16.9278 10.931 16.8264 10.9716C16.7271 11.0081 16.6257 11.0345 16.5222 11.0527C16.4147 11.071 16.3072 11.077 16.1977 11.073H16.0152C15.9665 11.075 15.9199 11.0669 15.8732 11.0527C15.7698 11.0345 15.6684 11.0081 15.569 10.9716C15.4717 10.9391 15.3763 10.8986 15.2851 10.8499C15.204 10.8093 15.1228 10.7485 15.0417 10.7079C14.8997 10.6065 14.7781 10.5051 14.6969 10.4443L14.5752 10.3226L14.5347 10.282C14.2731 10.0468 13.8816 10.0305 13.6018 10.2415C13.405 10.3956 13.3381 10.6633 13.4395 10.8905L13.4801 10.9513C13.5024 11.0081 13.5308 11.0608 13.5612 11.1135C13.6849 11.3224 13.835 11.5131 14.0074 11.6814C14.127 11.799 14.2568 11.9086 14.3927 12.0059C14.5529 12.1175 14.7213 12.2128 14.8997 12.2898C15.0944 12.3791 15.2993 12.446 15.5082 12.4927L15.8529 12.5535C15.9138 12.5535 15.9949 12.5738 16.0152 12.5738H16.1774C16.4026 12.5738 16.6257 12.5535 16.8467 12.5129C17.0576 12.4703 17.2604 12.4014 17.4551 12.3101C17.6336 12.2331 17.802 12.1377 17.9622 12.0262C18.1082 11.939 18.238 11.8295 18.3475 11.7017C18.4469 11.6104 18.5361 11.509 18.6112 11.3975C18.6517 11.3569 18.672 11.2961 18.7126 11.2555C18.7531 11.215 18.7734 11.1744 18.7937 11.1338C18.8282 11.0852 18.8566 11.0304 18.8748 10.9716L18.8951 10.931C19.0208 10.6471 18.891 10.3124 18.6071 10.1867C18.5828 10.1766 18.5564 10.1664 18.53 10.1603C18.2928 10.0569 18.0169 10.1137 17.8405 10.3023Z" fill="#422B0D"/>
<path d="M14.5324 3.58981C14.4634 3.55127 14.3884 3.52288 14.3093 3.50868C14.2282 3.46812 14.1268 3.44784 14.0456 3.40728L13.6197 3.28559C13.4575 3.22475 13.2749 3.18419 13.1127 3.12335C12.7882 3.02194 12.3826 2.75829 12.1798 3.22475C12.125 3.32413 12.0966 3.43567 12.0986 3.54925C12.0986 3.71149 12.2203 3.79262 12.3623 3.85346C12.5124 3.92039 12.6685 3.97312 12.8288 4.01571C12.8795 4.04208 12.9342 4.05424 12.991 4.05627C13.0316 4.05627 13.0721 4.07655 13.0721 4.11712C13.0721 4.15768 13.0316 4.15768 13.0113 4.17796C12.991 4.19824 12.9302 4.2388 12.8896 4.25908L12.8288 4.29964C12.7192 4.38077 12.6036 4.45581 12.484 4.52274C12.4029 4.58358 12.3015 4.64442 12.2203 4.70526C12.1757 4.72555 12.1352 4.75191 12.0986 4.78639C11.979 4.86751 11.8634 4.95675 11.7539 5.05004L11.7133 5.0906C11.6038 5.17781 11.5247 5.2995 11.4902 5.43538C11.4699 5.61791 11.6119 5.69903 11.7742 5.78016L11.9567 5.841C12.1696 5.9201 12.3866 5.98905 12.6057 6.04381C12.7679 6.10465 12.9505 6.14522 13.1127 6.20606C13.4372 6.30746 13.8428 6.57112 14.0456 6.10465C14.1004 6.00528 14.1288 5.89373 14.1267 5.78016C14.1065 5.63616 14.003 5.5165 13.8631 5.47594C13.713 5.40902 13.5569 5.35628 13.3966 5.31369C13.3561 5.31369 13.3358 5.29341 13.2952 5.27313C13.2547 5.25285 13.2344 5.25285 13.2141 5.25285C13.1735 5.21229 13.2547 5.17173 13.2749 5.15145C13.3601 5.1048 13.4413 5.05004 13.5183 4.9892C13.6035 4.93444 13.6846 4.8736 13.7617 4.80667C13.8023 4.78639 13.8428 4.74583 13.8834 4.72555C13.9645 4.6647 14.0659 4.60386 14.147 4.54302C14.3701 4.36049 14.8771 4.1374 14.7149 3.79262C14.6723 3.71149 14.6094 3.64051 14.5324 3.58981Z" fill="#5F7AFF"/>
<path d="M18.5689 1.66153C18.4918 1.62503 18.4087 1.59866 18.3255 1.58041C18.2241 1.56013 18.1227 1.51957 18.0213 1.49928C17.859 1.45872 17.6968 1.43844 17.5548 1.39788C17.3723 1.35732 17.1695 1.29647 16.987 1.25591C16.6219 1.17479 16.1554 0.931416 15.9729 1.45872C15.9242 1.57432 15.9019 1.69804 15.9121 1.82378C15.9324 2.00631 16.0743 2.08743 16.2366 2.128C16.4029 2.18478 16.5712 2.23143 16.7436 2.26996C16.8044 2.29024 16.8653 2.29024 16.9261 2.31052C16.987 2.33081 17.0072 2.33081 17.0072 2.37137C17.0072 2.41193 16.9667 2.43221 16.9464 2.45249C16.9261 2.47277 16.8653 2.51333 16.8247 2.5539C16.7842 2.59446 16.7842 2.57418 16.7639 2.59446C16.6422 2.69586 16.5205 2.77699 16.3988 2.87839L16.1149 3.10148C16.0743 3.12177 16.0338 3.16233 15.9932 3.18261C15.8715 3.28401 15.7498 3.38542 15.6484 3.48682C15.6281 3.5071 15.6079 3.5071 15.6079 3.52739C15.4841 3.62879 15.405 3.77481 15.3848 3.93301C15.3848 4.13582 15.547 4.21694 15.7295 4.29806L15.9324 4.35891C16.1656 4.43192 16.4029 4.49276 16.6422 4.54144C16.8247 4.582 17.0275 4.64284 17.2101 4.6834C17.5751 4.76453 18.0416 5.0079 18.2241 4.48059C18.2728 4.36499 18.2951 4.24128 18.2849 4.11554C18.2647 3.93301 18.1227 3.85188 17.9605 3.81132C17.7881 3.7525 17.6116 3.70383 17.4331 3.66935C17.3926 3.66935 17.352 3.64907 17.3115 3.64907C17.2709 3.64907 17.2303 3.64907 17.2101 3.62879C17.1898 3.60851 17.2506 3.54767 17.2709 3.52739C17.352 3.46654 17.4331 3.4057 17.5346 3.32458L17.7982 3.12176C17.8428 3.08323 17.8895 3.04875 17.9402 3.02036C18.0395 2.9514 18.1328 2.87636 18.2241 2.79727C18.4472 2.57418 18.9948 2.31052 18.7717 1.92519C18.7453 1.81161 18.6703 1.71629 18.5689 1.66153Z" fill="#5F7AFF"/>
<path d="M23.9414 1.03221C23.8643 0.902408 23.7528 0.794919 23.6169 0.727991C23.5114 0.685401 23.4039 0.650924 23.2924 0.626586C23.1606 0.583996 23.0247 0.549518 22.8868 0.525181C22.684 0.464338 22.4609 0.423776 22.2581 0.383214C22.0147 0.322371 21.751 0.241247 21.5077 0.180404C21.0209 0.058718 20.4125 -0.265778 20.1488 0.444057C20.0819 0.598193 20.0555 0.764497 20.0677 0.930802C20.1042 1.14578 20.2786 1.31006 20.4936 1.33642C20.7208 1.40943 20.9499 1.47028 21.1832 1.51895C21.2643 1.53923 21.3454 1.55951 21.4063 1.57979C21.4671 1.60007 21.5279 1.60008 21.5279 1.66092C21.5198 1.70554 21.4894 1.74407 21.4468 1.76232C21.386 1.80289 21.3454 1.84345 21.2846 1.88401C21.2623 1.90835 21.2339 1.93066 21.2034 1.94485C21.0412 2.06654 20.879 2.18822 20.737 2.30991L20.3719 2.61413C20.3212 2.65874 20.2665 2.69931 20.2097 2.73581C20.0474 2.8575 19.9055 2.99946 19.7432 3.14143L19.6824 3.20228C19.5201 3.33207 19.4167 3.52271 19.3984 3.72958C19.3984 3.99323 19.6215 4.11492 19.8649 4.21633C19.9501 4.25283 20.0373 4.2792 20.1286 4.29745H20.1488C20.4531 4.39885 20.7775 4.4597 21.102 4.54082L21.8524 4.72335C22.3392 4.84504 22.9679 5.16953 23.2113 4.4597C23.2782 4.30556 23.3046 4.13926 23.2924 3.97295C23.2559 3.75797 23.0815 3.5937 22.8665 3.56733C22.6434 3.48215 22.4122 3.4132 22.1769 3.36452C22.1161 3.34424 22.0755 3.34424 22.0147 3.32396C21.9701 3.32396 21.9295 3.30976 21.893 3.2834C21.8322 3.22256 21.9336 3.16171 21.9741 3.14143C22.0938 3.06031 22.2094 2.97107 22.3189 2.87778C22.4406 2.77637 22.5623 2.69525 22.6637 2.59384C22.7286 2.55328 22.7915 2.50461 22.8462 2.45188C22.976 2.36264 23.0997 2.25921 23.2113 2.14766C23.5155 1.88401 24.2253 1.51895 23.9414 1.03221Z" fill="#5F7AFF"/>
<path d="M10.1646 19.3459C9.38782 19.3317 8.76925 18.6888 8.78344 17.912C8.7875 17.6504 8.86659 17.3949 9.00856 17.1758C9.63727 16.2023 10.631 15.6953 11.8479 15.6953C13.0648 15.6953 14.0585 16.2023 14.6872 17.1758C14.9692 17.6017 14.9915 18.1473 14.7481 18.5955C14.5067 19.0457 14.0423 19.3337 13.5312 19.3459C13.371 19.35 13.2128 19.3236 13.0648 19.2648C12.6733 19.1289 12.2616 19.0599 11.8479 19.062C11.4342 19.0579 11.0225 19.1269 10.631 19.2648C10.481 19.3195 10.3228 19.3479 10.1646 19.3459Z" fill="#422B0D"/>
</g>
<defs>
<radialGradient id="paint0_radial_4539_12080" cx="0" cy="0" r="1" gradientUnits="userSpaceOnUse" gradientTransform="translate(11.763 11.966) scale(11.552 11.552)">
<stop offset="0.5" stop-color="#FDE030"/>
<stop offset="0.92" stop-color="#F7C02B"/>
<stop offset="1" stop-color="#F4A223"/>
</radialGradient>
<clipPath id="clip0_4539_12080">
<rect width="24" height="24" fill="white"/>
</clipPath>
</defs>
</svg>
