<svg width="24" height="24" viewBox="0 0 24 24" fill="none" xmlns="http://www.w3.org/2000/svg">
<g clip-path="url(#clip0_4539_12062)">
<path d="M11.7384 22.6267C6.09181 22.6267 0 19.085 0 11.3134C0 3.54175 6.09181 0 11.7384 0C14.8754 0 17.7695 1.03217 19.9148 2.91436C22.2422 4.97869 23.4768 7.89305 23.4768 11.3134C23.4768 14.7337 22.2422 17.6278 19.9148 19.6921C17.7695 21.5743 14.8551 22.6267 11.7384 22.6267Z" fill="url(#paint0_radial_4539_12062)"/>
<path d="M11.7384 22.6267C6.09181 22.6267 0 19.085 0 11.3134C0 3.54175 6.09181 0 11.7384 0C14.8754 0 17.7695 1.03217 19.9148 2.91436C22.2422 4.97869 23.4768 7.89305 23.4768 11.3134C23.4768 14.7337 22.2422 17.6278 19.9148 19.6921C17.7695 21.5743 14.8551 22.6267 11.7384 22.6267Z" fill="url(#paint1_linear_4539_12062)"/>
<path d="M21.4339 4.58594C22.5126 6.32646 23.0753 8.39889 23.0753 10.7041C23.0753 14.1244 21.8407 17.0185 19.5133 19.0828C17.368 20.965 14.4536 22.0174 11.3369 22.0174C7.6818 22.0174 3.84861 20.5299 1.58594 17.3747C3.76361 20.9488 7.8599 22.6246 11.7417 22.6246C14.8584 22.6246 17.7728 21.5722 19.918 19.69C22.2455 17.6257 23.48 14.7315 23.48 11.3112C23.48 8.73282 22.7778 6.44182 21.4339 4.58594Z" fill="#EB8F00"/>
<path d="M11.5923 20.8538C14.7488 20.8538 17.3077 18.6129 17.3077 15.8488C17.3077 13.0846 14.7488 10.8438 11.5923 10.8438C8.43581 10.8438 5.87695 13.0846 5.87695 15.8488C5.87695 18.6129 8.43581 20.8538 11.5923 20.8538Z" fill="#422B0D"/>
<path d="M18.2578 8.51317C18.2578 8.51317 17.001 6.27276 14.4023 6.75039" stroke="#35220B" stroke-width="1.5" stroke-miterlimit="10" stroke-linecap="round"/>
<path d="M5.29492 8.51317C5.29492 8.51317 6.55781 6.27276 9.15037 6.75039" stroke="#35220B" stroke-width="1.5" stroke-miterlimit="10" stroke-linecap="round"/>
<path d="M15.3566 15.9218C14.9073 15.2783 13.7375 15.936 13.7375 15.936C13.7375 15.936 14.3446 15.4078 14.8506 14.9241C15.1744 14.6144 15.4578 13.9547 15.1926 13.5074C14.9275 13.0601 14.1564 13.0884 13.778 13.3212L12.2945 14.2319C12.2945 14.2319 12.851 13.9891 13.019 13.0338C13.1243 12.6472 12.8976 12.2485 12.511 12.1433C12.4382 12.1231 12.3633 12.115 12.2884 12.119C11.9383 12.1494 11.6043 12.2789 11.323 12.4914C10.2504 13.2524 7.38662 15.1933 6.74505 15.1427C6.49612 15.1224 6.47386 15.084 6.99804 13.9627C7.35019 13.2908 7.38257 12.4954 7.08708 11.7972C6.91506 11.3924 6.1217 11.2811 5.87277 11.6717C5.68455 11.9591 5.54895 12.6634 5.22109 13.3718C4.6706 14.5355 3.40164 16.0979 3.29842 16.2517C2.54352 17.3689 1.13694 19.4515 2.61031 21.787C3.91367 23.8554 6.88875 23.9525 8.41271 23.4061C11.325 22.3739 14.0067 20.3905 14.0573 20.35C14.5875 19.9291 15.0692 19.3118 14.8506 18.7492C14.5814 18.053 13.6889 18.4658 13.6889 18.4658C14.205 18.1521 14.6685 17.7575 15.0591 17.296C15.4294 16.8184 15.6581 16.357 15.3566 15.9218Z" fill="url(#paint2_radial_4539_12062)"/>
<path d="M15.3029 17.4807C15.5417 17.173 16.1003 16.4546 15.6105 15.7482C15.4344 15.4993 15.1896 15.3435 14.9042 15.2949C15.3839 14.8962 15.8979 13.9652 15.3494 13.2002C15.145 12.9148 14.7544 12.6922 14.1331 12.8359C13.6858 12.9391 13.2851 13.269 13.2851 13.269C13.2993 13.2144 13.6514 12.2206 12.4351 11.9737C11.9453 11.8746 11.3888 12.1984 11.069 12.4392C9.2212 13.7507 6.82293 14.9974 6.90388 14.8254C7.68307 13.8802 7.84093 12.4817 7.36128 11.6519C7.19127 11.2492 6.15506 10.9476 5.81707 11.5022C5.5398 11.9575 5.35563 13.0464 4.83752 13.9126C4.4368 14.5825 2.60723 16.8877 2.27734 18.0291C2.27734 18.0291 2.72462 17.3633 3.43094 16.4222C4.18179 15.4183 5.20182 14.119 5.50337 13.4977C5.77659 12.9452 5.9041 12.2834 6.13482 11.8341C6.24815 11.6459 6.70757 11.4678 7.00305 12.0466C7.30056 12.6254 7.15687 13.3257 6.74805 14.1089C6.32708 15.0075 6.14089 15.0419 6.33113 15.2402C6.97472 15.902 10.6885 13.2528 11.5122 12.7347C11.747 12.5566 12.0263 12.4493 12.3076 12.423C12.8621 12.3441 12.8338 13.1213 12.8338 13.1213C12.678 13.7588 12.5788 13.7588 11.9433 14.2931C11.492 14.6715 9.89515 15.8332 8.85893 16.3554C8.85893 16.3554 8.87715 16.5922 9.3568 16.4566C9.83848 16.321 11.7267 15.133 12.7447 14.3174C12.7447 14.3174 14.0643 13.1901 14.6269 13.3479C15.1977 13.5098 15.1471 13.9065 14.9669 14.283C14.7868 14.6594 14.3213 15.1127 13.5806 15.6774C12.2489 16.6893 10.1866 18.0696 10.1866 18.0696C10.1866 18.0696 10.2291 18.272 10.6298 18.1566C11.4454 17.9198 13.9914 16.0336 13.9914 16.0336C14.1898 15.8798 14.8536 15.6673 15.1127 16.1024C15.2523 16.3068 15.2199 16.6408 14.7301 17.2196C14.1473 17.9138 12.3683 19.124 10.8221 20.0024C10.8221 20.0024 10.9395 20.2007 11.3665 20.055C11.7915 19.9093 13.5583 18.8346 13.8376 18.7415C14.1169 18.6484 14.3962 18.5594 14.5824 18.8893C14.803 19.3446 14.5075 19.7049 13.9226 20.1704C13.8983 20.1886 11.1135 22.3662 8.21737 23.3458C6.68733 23.8639 4.97717 23.5968 3.01605 22.3157C4.20608 23.7526 6.80471 24.3942 8.5675 23.7506C11.5324 22.6658 14.2768 20.6642 14.2991 20.646C14.7241 20.308 15.6085 19.6077 15.1207 18.6059C14.9932 18.3813 14.8232 18.2416 14.637 18.1627C14.8718 17.9502 15.0944 17.7255 15.3029 17.4807Z" fill="#EB8F00"/>
<path d="M10.7549 22.5847C11.6373 22.6292 12.465 22.609 12.465 22.609C13.7643 21.8844 14.9584 20.1561 15.096 19.7776C15.2337 19.3991 10.1781 22.5543 10.7549 22.5847Z" fill="#EB8F00"/>
</g>
<defs>
<radialGradient id="paint0_radial_4539_12062" cx="0" cy="0" r="1" gradientUnits="userSpaceOnUse" gradientTransform="translate(11.7384 11.3133) scale(11.5278 11.5278)">
<stop offset="0.5" stop-color="#FDE030"/>
<stop offset="0.92" stop-color="#F7C02B"/>
<stop offset="1" stop-color="#F4A223"/>
</radialGradient>
<linearGradient id="paint1_linear_4539_12062" x1="11.7384" y1="22.6267" x2="11.7384" y2="0" gradientUnits="userSpaceOnUse">
<stop offset="0.16" stop-color="#F4A223"/>
<stop offset="0.33" stop-color="#F7C02B"/>
<stop offset="0.81" stop-color="#FDE030" stop-opacity="0"/>
</linearGradient>
<radialGradient id="paint2_radial_4539_12062" cx="0" cy="0" r="1" gradientUnits="userSpaceOnUse" gradientTransform="translate(8.93286 14.9282) scale(13.1672)">
<stop offset="0.27" stop-color="#FFF176"/>
<stop offset="1" stop-color="#FFC400"/>
</radialGradient>
<clipPath id="clip0_4539_12062">
<rect width="24" height="24" fill="white"/>
</clipPath>
</defs>
</svg>
