<svg width="24" height="24" viewBox="0 0 24 24" fill="none" xmlns="http://www.w3.org/2000/svg">
<g clip-path="url(#clip0_1560_3271)">
<path d="M14.2461 4.37364L16.1532 1.7373" stroke="#B0BEC5" stroke-miterlimit="10" stroke-linecap="round" stroke-linejoin="round"/>
<path d="M9.63815 4.37354L7.84766 2.0791" stroke="#B0BEC5" stroke-miterlimit="10" stroke-linecap="round" stroke-linejoin="round"/>
<path d="M11.9648 3.60075L11.9727 0" stroke="#B0BEC5" stroke-miterlimit="10" stroke-linecap="round" stroke-linejoin="round"/>
<path d="M23.8513 14.8007C24.1833 12.4153 23.8493 8.82048 23.8197 8.33432C23.7801 7.70982 23.4422 7.59125 23.1477 7.58532C22.8592 7.57939 22.6379 7.75528 22.5944 8.37385C22.543 9.10902 22.4244 11.7098 22.4244 11.7098C22.3908 11.939 22.2367 11.9865 22.1853 11.9845C22.0845 11.9805 21.8691 11.9291 21.879 11.6703C21.879 11.6703 21.8731 7.65844 21.8177 6.96873C21.7663 6.31261 21.4462 6.05767 21.0371 6.05767C20.5549 6.05767 20.4146 6.39561 20.3711 7.02011L20.0865 11.5418C20.0845 11.5912 20.047 11.8343 19.8513 11.8284C19.5865 11.8204 19.5826 11.6643 19.5845 11.5616C19.5845 11.5616 19.6339 6.76122 19.5984 6.0715C19.5549 5.27705 19.2762 4.89167 18.7683 4.88772C18.545 4.88575 18.0391 4.99049 18.0016 6.11498C18.0016 6.11498 17.7545 11.358 17.7407 11.4608C17.7249 11.5616 17.6913 11.7355 17.5312 11.7216C17.3296 11.7038 17.3178 11.4568 17.3178 11.4568C17.3178 11.4568 17.1992 7.91733 17.1715 7.34619C17.1439 6.77505 16.9601 6.37189 16.5806 6.31261C16.0075 6.2217 15.6953 6.61695 15.6458 7.37188C15.6043 8.00824 15.4996 12.1979 15.4739 12.9015C15.4482 13.603 15.215 13.9153 15.1044 13.7196C14.7625 13.1208 14.4403 12.2948 13.4166 11.939C12.5155 11.6268 12.0411 11.9291 11.9799 12.3422C11.8989 12.8857 12.5174 13.1406 12.9147 13.6564C13.8 14.8086 14.4384 16.7117 14.9324 17.3145C15.8435 18.4251 16.3257 18.6366 16.5055 18.8302C16.6854 19.0239 16.7802 19.3955 16.7802 19.6899C16.7802 20.2788 16.7802 23.3302 16.7802 23.3302H21.879C21.879 23.3302 21.879 20.18 21.879 19.6188C21.879 19.0555 22.0806 18.7927 22.3513 18.4805C23.3256 17.3619 23.6734 16.0694 23.8513 14.8007Z" fill="#FFCA28"/>
<path d="M12.0134 12.3422C11.9522 11.9291 11.4779 11.6228 10.5767 11.939C9.68343 12.2513 9.2447 13.2671 8.90478 13.8204C8.78818 14.0101 8.5451 13.603 8.51941 12.9015C8.49372 12.1999 8.38898 8.01022 8.34747 7.37188C8.29807 6.61695 7.98582 6.22367 7.4127 6.31261C7.03326 6.37189 6.84749 6.77308 6.8218 7.34619C6.79611 7.91931 6.67556 11.4568 6.67556 11.4568C6.67556 11.4568 6.6637 11.7038 6.46212 11.7216C6.30204 11.7355 6.26845 11.5616 6.25264 11.4608C6.23683 11.36 5.99177 6.11498 5.99177 6.11498C5.95422 4.99049 5.4483 4.88575 5.22498 4.88772C4.71906 4.89167 4.43843 5.27705 4.39495 6.0715C4.3574 6.76122 4.40878 11.5616 4.40878 11.5616C4.41076 11.6643 4.40681 11.8204 4.14199 11.8284C3.94634 11.8343 3.90879 11.5912 3.90681 11.5418L3.62421 7.02011C3.58073 6.39561 3.44042 6.05767 2.95821 6.05767C2.54912 6.05767 2.22897 6.31261 2.17759 6.96873C2.12423 7.65844 2.1183 11.6703 2.1183 11.6703C2.12818 11.9291 1.91474 11.9825 1.81198 11.9845C1.76059 11.9865 1.60645 11.939 1.57285 11.7098C1.57285 11.7098 1.45427 9.10902 1.40289 8.37385C1.35941 7.75528 1.13807 7.57939 0.849538 7.58532C0.557051 7.59125 0.217134 7.70982 0.177609 8.33432C0.147965 8.82048 -0.186023 12.4153 0.145988 14.8007C0.321876 16.0674 0.713176 17.2611 1.64202 18.4805C1.75664 18.6188 2.11434 19.0575 2.11434 19.6188C2.11434 20.182 2.11434 23.3302 2.11434 23.3302H7.2131C7.2131 23.3302 7.2131 20.2788 7.2131 19.6899C7.2131 19.3955 7.35144 19.0753 7.4878 18.8302C8.44233 18.3263 8.82968 17.6425 9.06091 17.3145C9.50952 16.6761 10.1953 14.8086 11.0787 13.6564C11.4759 13.1406 12.0945 12.8876 12.0134 12.3422Z" fill="#FFCA28"/>
<path d="M17.7457 14.5433C18.2634 14.8713 18.7002 15.316 19.0164 15.8417C19.2595 16.2468 19.4334 16.6954 19.5302 17.1578C19.5539 17.2744 19.5737 17.391 19.5875 17.5096C19.6152 17.7488 19.4334 17.8021 19.3583 17.5748C19.2279 17.1855 19.0954 16.8001 18.8958 16.4385C18.6211 15.9444 18.2437 15.5156 17.7812 15.1875C17.4868 14.978 17.1627 14.8081 16.8267 14.6737C16.6291 14.5946 15.3821 14.3713 15.1133 13.7172C15.1133 13.7172 15.2002 13.7448 15.2753 13.6776C15.3682 13.5927 15.4097 13.4346 15.4097 13.4346C15.9453 14.0176 17.0223 14.0848 17.7457 14.5433Z" fill="#EDA600"/>
<path d="M22.0887 11.4738C22.0769 11.0904 21.978 7.7505 21.9049 6.83154C21.8318 5.91257 21.0176 6.05882 21.0176 6.05882C21.0176 6.05882 21.5433 6.15368 21.569 6.71296C21.6026 7.41058 21.7271 11.0667 21.7607 11.5252C21.7923 11.9856 22.0769 12.0054 22.1954 11.9836C22.1935 11.9856 22.0986 11.8572 22.0887 11.4738Z" fill="#EDA600"/>
<path d="M23.9251 8.37427C23.852 7.45531 23.1504 7.58377 23.1504 7.58377C23.1504 7.58377 23.5634 7.69642 23.5891 8.2557C23.6227 8.95332 23.8263 12.9276 23.9369 12.9276C24.0476 12.9276 23.9982 9.29521 23.9251 8.37427Z" fill="#EDA600"/>
<path d="M17.3525 11.1344C17.3288 10.672 17.1489 7.06334 17.1489 7.06334C17.1035 6.11474 16.2734 6.32817 16.2734 6.32817C16.2734 6.32817 16.7734 6.25308 16.8169 6.99615C16.8169 6.99615 16.9058 10.5831 16.9651 11.2056C17.0264 11.8538 17.5382 11.7194 17.5382 11.7194C17.5382 11.7194 17.3762 11.5949 17.3525 11.1344Z" fill="#EDA600"/>
<path d="M19.6429 11.3507C19.6133 10.9811 19.7161 7.55823 19.6726 5.912C19.641 4.74403 18.7773 4.88632 18.7773 4.88632C18.7773 4.88632 19.2714 5.02664 19.309 5.66299C19.3346 6.10963 19.3584 11.3349 19.3584 11.3349C19.3584 11.3349 19.3366 11.8803 19.8327 11.827C19.8327 11.827 19.6726 11.7183 19.6429 11.3507Z" fill="#EDA600"/>
<path d="M23.7991 15.2319C23.7991 15.2319 23.141 16.888 22.2853 17.8979C21.3822 18.9631 20.7695 19.1528 20.7695 19.1528C20.7695 19.1528 21.0225 19.3109 21.4494 19.1746C21.6114 19.3485 21.6272 19.5777 21.6272 19.805C21.6272 19.9651 21.6272 20.1252 21.6292 20.2833C21.6292 20.7161 21.6292 21.1469 21.6292 21.5797C21.6292 21.9848 21.6292 22.39 21.6292 22.7931C21.6292 22.9749 21.6391 23.1587 21.6272 23.3405L21.983 23.3425L22.0363 19.4789C22.0916 18.9967 22.3604 18.5837 22.558 18.3228C22.5916 18.2813 22.6252 18.2398 22.6608 18.1963C22.6727 18.1825 22.6826 18.1667 22.6924 18.1528C22.7023 18.141 22.7142 18.1252 22.7221 18.1153C22.726 18.1113 22.7241 18.1113 22.7201 18.1133C23.6371 16.8703 23.7991 15.2319 23.7991 15.2319Z" fill="#EDA600"/>
<path d="M17.9663 19.2808C17.9663 19.2808 17.5572 18.9429 17.0177 18.7018C15.3517 17.9567 14.7332 16.3461 14.5217 15.937C14.1363 15.188 13.7273 14.1524 13.1205 13.4627C12.6285 12.9014 12 12.603 12 12.603C12.0593 12.9765 12.7945 13.4074 13.1798 14.0457C13.9308 15.2888 14.4703 16.6761 14.9189 17.3144C15.1383 17.6247 15.494 18.3006 16.3893 18.7887C16.5217 18.9389 16.6185 19.1267 16.6778 19.3184C16.7727 19.6247 16.7885 19.9468 16.8043 20.267C16.9031 19.8678 16.9604 19.4567 16.9723 19.0437C17.2608 19.1464 17.5889 19.2294 17.9663 19.2808Z" fill="#EDA600"/>
<path d="M1.6559 11.9817C1.47606 11.9421 1.39306 11.8157 1.3812 11.5745L1.22112 8.34336C1.19741 7.87894 1.11638 7.69515 0.851562 7.58448C0.851562 7.58448 1.49582 7.541 1.5314 8.27024C1.5314 8.27024 1.72705 11.3947 1.73495 11.5172C1.74286 11.6398 1.75471 11.9105 1.95629 11.952C1.95629 11.952 1.84167 12.0212 1.6559 11.9817Z" fill="#EDA600"/>
<path d="M3.68981 11.4422L3.4408 6.98374C3.42894 6.29008 3.10681 6.13988 2.99219 6.05885C2.99219 6.05885 3.76095 5.96597 3.8321 6.98374C3.8321 6.98374 4.03368 11.1952 4.04949 11.3849C4.08308 11.7703 4.25502 11.8137 4.25502 11.8137C4.10285 11.873 3.73724 11.9382 3.68981 11.4422Z" fill="#EDA600"/>
<path d="M8.79825 13.4388C8.79825 13.1582 8.53343 7.24519 8.53343 7.24519C8.49984 6.30251 7.73305 6.32623 7.73305 6.32623C7.73305 6.32623 8.09668 6.52188 8.12237 7.1523L8.403 13.508C8.40102 13.589 8.42276 13.7056 8.44648 13.8163C5.26667 14.1898 4.53545 16.4783 4.41885 17.5099C4.39119 17.749 4.573 17.8024 4.6481 17.5751C4.95442 16.6482 5.34967 14.8301 8.37335 14.3202C8.59074 14.2827 8.88125 14.1641 9.03343 13.5969C8.92078 13.6443 8.79825 13.674 8.79825 13.4388Z" fill="#EDA600"/>
<path d="M6.13162 11.3765C6.05059 10.837 5.8589 7.43387 5.78182 5.78962C5.75416 5.19477 5.59803 5.00109 5.23242 4.88647C5.23242 4.88647 6.04467 4.73034 6.12174 5.6829C6.2917 7.82517 6.41027 11.084 6.42213 11.256C6.43794 11.4931 6.48932 11.6907 6.54071 11.7026C6.54268 11.7026 6.20474 11.8528 6.13162 11.3765Z" fill="#EDA600"/>
<path d="M1.35908 18.1943C0.34723 16.977 0.216797 15.2319 0.216797 15.2319C0.216797 15.2319 0.689123 16.7754 1.54484 17.7833C2.448 18.8485 3.29976 19.2813 3.29976 19.2813C3.29976 19.2813 2.40057 19.4473 1.35908 18.1943Z" fill="#EDA600"/>
<path d="M10.8595 13.4627C10.2528 14.1544 9.84169 15.188 9.4583 15.937C9.24684 16.348 8.62827 17.9587 6.96228 18.7018C6.42473 18.9429 6.01367 19.2808 6.01367 19.2808C6.48205 19.2156 6.87532 19.103 7.20931 18.9646C7.15793 19.1385 7.09666 19.4172 7.03935 19.8717C6.88125 21.1385 7.00971 23.2531 7.01564 23.342L7.41089 23.3183C7.40891 23.2966 7.27848 21.1523 7.43263 19.9211C7.51365 19.2709 7.67373 18.8658 7.75476 18.6919C8.52945 18.2156 8.85751 17.6069 9.06107 17.3144C9.50968 16.6761 10.0512 15.2888 10.8002 14.0457C11.1855 13.4074 11.9385 12.9765 11.9978 12.603C11.9998 12.603 11.3516 12.9014 10.8595 13.4627Z" fill="#EDA600"/>
</g>
<defs>
<clipPath id="clip0_1560_3271">
<rect width="24" height="24" fill="white"/>
</clipPath>
</defs>
</svg>
