<svg width="24" height="24" viewBox="0 0 24 24" fill="none" xmlns="http://www.w3.org/2000/svg">
<path d="M12 21.5731C12 22.0445 11.6143 22.4302 11.1429 22.4302H0.857143C0.385714 22.4302 0 22.0445 0 21.5731C0 19.6788 1.53429 18.1445 3.42857 18.1445H8.57143C10.4657 18.1445 12 19.6788 12 21.5731Z" fill="#13D16A"/>
<path d="M5.99498 16.4275C7.88853 16.4275 9.42355 14.8924 9.42355 12.9989C9.42355 11.1053 7.88853 9.57031 5.99498 9.57031C4.10143 9.57031 2.56641 11.1053 2.56641 12.9989C2.56641 14.8924 4.10143 16.4275 5.99498 16.4275Z" fill="#13D16A"/>
<path d="M23.998 12.9989C23.998 13.4703 23.6123 13.856 23.1409 13.856H12.8552C12.3838 13.856 11.998 13.4703 11.998 12.9989C11.998 11.1046 13.5323 9.57031 15.4266 9.57031H20.5695C22.4638 9.57031 23.998 11.1046 23.998 12.9989Z" fill="#13D16A"/>
<path d="M18.0047 7.85714C19.8983 7.85714 21.4333 6.32212 21.4333 4.42857C21.4333 2.53502 19.8983 1 18.0047 1C16.1112 1 14.5762 2.53502 14.5762 4.42857C14.5762 6.32212 16.1112 7.85714 18.0047 7.85714Z" fill="#13D16A"/>
<path d="M17.1454 19.856H14.5739C14.1025 19.856 13.7168 19.4703 13.7168 18.9989C13.7168 18.5275 14.1025 18.1417 14.5739 18.1417H17.1454C17.6168 18.1417 18.0025 17.756 18.0025 17.2846V16.4275C18.0025 15.956 18.3882 15.5703 18.8597 15.5703C19.3311 15.5703 19.7168 15.956 19.7168 16.4275V17.2846C19.7168 18.6989 18.5597 19.856 17.1454 19.856Z" fill="#13D16A"/>
<path d="M6.00167 7.85826C5.53025 7.85826 5.14453 7.47254 5.14453 7.00112C5.14453 5.58683 6.30167 4.42969 7.71596 4.42969H11.1445C11.616 4.42969 12.0017 4.8154 12.0017 5.28683C12.0017 5.75826 11.616 6.14397 11.1445 6.14397H7.71596C7.24453 6.14397 6.85882 6.52969 6.85882 7.00112C6.85882 7.47254 6.4731 7.85826 6.00167 7.85826Z" fill="#13D16A"/>
</svg>
