<svg width="24" height="24" viewBox="0 0 24 24" fill="none" xmlns="http://www.w3.org/2000/svg">
<path d="M20.7717 13.2579C19.5998 11.9473 16.6692 11.5123 14.1792 9.98041C13.4929 9.55853 12.0229 8.35853 11.826 7.55041C11.6798 6.94853 12.6829 4.00853 12.2779 3.78916C11.5954 3.41791 10.7123 4.24478 10.7123 4.24478C10.7123 4.24478 10.3898 2.71291 8.86167 2.42416C7.49292 2.16541 6.16542 3.02416 2.07792 3.21541C1.31667 3.25103 0.966046 3.80041 1.0598 4.51478C1.13667 5.09228 1.69355 5.22166 1.69355 5.22166C1.69355 5.22166 1.10667 5.58541 1.1573 6.23041C1.20792 6.87541 1.8323 7.01603 1.8323 7.01603C1.8323 7.01603 1.2548 7.34978 1.28667 8.03416C1.32042 8.71853 1.90167 8.98103 1.90167 8.98103C1.90167 8.98103 1.6298 10.8467 1.47792 11.8404C1.19292 13.7248 1.35792 15.4723 2.7698 16.7848H20.7304C21.6173 16.0779 21.7785 14.3848 20.7717 13.2579Z" fill="#039BE5"/>
<path d="M6.76562 2.59689C7.17063 2.45627 7.6 2.38127 8.03687 2.35877C8.47187 2.34189 8.92188 2.38689 9.34375 2.55939C9.76938 2.71877 10.1425 3.06002 10.3656 3.45564C10.5944 3.85127 10.7219 4.28439 10.81 4.71189C10.8906 5.14314 10.9356 5.57252 10.9787 5.99627C10.9994 6.20814 11.02 6.42002 11.0444 6.62814L11.0912 6.93377L11.155 7.23752C11.3594 8.04189 11.74 8.81065 12.265 9.48565C11.6238 8.91377 11.1475 8.15065 10.8756 7.31627L10.7856 6.9994L10.72 6.67502C10.6844 6.46127 10.6544 6.24752 10.6262 6.03564C10.5719 5.61189 10.525 5.19002 10.4425 4.78314C10.2906 3.97877 9.97375 3.15939 9.22562 2.82564C8.86375 2.65314 8.45125 2.56877 8.035 2.54252C7.615 2.51439 7.18937 2.53689 6.76562 2.59689Z" fill="#81D4FA"/>
<path d="M10.0247 8.16754C10.3706 8.16754 10.6509 7.88716 10.6509 7.54129C10.6509 7.19542 10.3706 6.91504 10.0247 6.91504C9.67882 6.91504 9.39844 7.19542 9.39844 7.54129C9.39844 7.88716 9.67882 8.16754 10.0247 8.16754Z" fill="#EEEEEE"/>
<path d="M11.0501 10.0552C11.3959 10.0552 11.6763 9.77485 11.6763 9.42898C11.6763 9.08312 11.3959 8.80273 11.0501 8.80273C10.7042 8.80273 10.4238 9.08312 10.4238 9.42898C10.4238 9.77485 10.7042 10.0552 11.0501 10.0552Z" fill="#EEEEEE"/>
<path d="M12.4153 11.3609C12.7612 11.3609 13.0416 11.0805 13.0416 10.7346C13.0416 10.3888 12.7612 10.1084 12.4153 10.1084C12.0694 10.1084 11.7891 10.3888 11.7891 10.7346C11.7891 11.0805 12.0694 11.3609 12.4153 11.3609Z" fill="#EEEEEE"/>
<path d="M14.1712 12.3824C14.517 12.3824 14.7974 12.102 14.7974 11.7561C14.7974 11.4103 14.517 11.1299 14.1712 11.1299C13.8253 11.1299 13.5449 11.4103 13.5449 11.7561C13.5449 12.102 13.8253 12.3824 14.1712 12.3824Z" fill="#EEEEEE"/>
<path d="M16.1907 13.2056C16.5366 13.2056 16.817 12.9252 16.817 12.5794C16.817 12.2335 16.5366 11.9531 16.1907 11.9531C15.8448 11.9531 15.5645 12.2335 15.5645 12.5794C15.5645 12.9252 15.8448 13.2056 16.1907 13.2056Z" fill="#EEEEEE"/>
<path d="M10.0254 7.54145L11.7523 7.15332" stroke="#F6BF26" stroke-miterlimit="10" stroke-linecap="round"/>
<path d="M11.1152 9.38672L12.4146 8.49609" stroke="#F6BF26" stroke-miterlimit="10" stroke-linecap="round"/>
<path d="M12.416 10.7342L13.5054 9.58105" stroke="#F6BF26" stroke-miterlimit="10" stroke-linecap="round"/>
<path d="M14.1133 11.7564L14.9364 10.4102" stroke="#F6BF26" stroke-miterlimit="10" stroke-linecap="round"/>
<path d="M16.1914 12.5794L16.6939 11.2031" stroke="#F6BF26" stroke-miterlimit="10" stroke-linecap="round"/>
<path d="M11.7905 6.88331C6.76552 7.03144 8.95927 2.82769 11.7905 6.88331ZM11.7905 6.88331C12.3211 7.64456 12.9924 7.92019 13.3318 8.01769C15.0286 8.51269 15.8499 5.10956 11.2543 7.11956" stroke="#F6BF26" stroke-miterlimit="10" stroke-linecap="round"/>
<path d="M5.46262 10.3655C4.15761 10.118 2.84137 9.82922 1.84387 9.38672C1.75574 9.99234 1.58699 11.1361 1.48012 11.8411C1.36012 12.6286 1.32074 13.3917 1.41824 14.1098C4.09762 15.0248 8.21511 12.278 10.0282 16.7836H11.6764C11.172 12.0286 8.96887 11.0311 5.46262 10.3655Z" fill="#F6BF26"/>
<path d="M5.09129 11.378C3.85754 11.2599 2.62191 11.0762 1.64879 10.7012C1.58879 11.1118 1.52691 11.5224 1.47816 11.8412C1.35816 12.6287 1.31879 13.3918 1.41629 14.1099C4.09566 15.0249 8.21316 12.278 10.0263 16.7837H11.2225C10.5869 12.5199 7.56066 11.6143 5.09129 11.378Z" fill="#F4511E"/>
<path d="M4.01008 12.7296C3.11946 12.7689 2.17821 12.7314 1.40946 12.4033C1.34946 12.9921 1.34383 13.5639 1.41696 14.1114C4.09633 15.0264 8.21383 12.2796 10.027 16.7852H10.5163C9.84508 12.9696 6.42696 12.6227 4.01008 12.7296Z" fill="#9CCC65"/>
<path d="M20.3641 19.5939L21.4235 18.7596L20.771 17.3889L21.0916 16.3858C21.0916 16.3858 4.67602 16.1908 3.82289 16.1177C3.27914 16.0708 2.68477 15.9546 2.68477 15.9546C2.26102 15.8664 1.96289 15.7783 1.96289 15.7783L3.76664 19.5377L4.78477 19.1664L3.99727 17.3889H6.38039L5.93789 18.7614C5.83664 19.0746 6.00914 19.4102 6.32227 19.5114L7.55977 19.9108C7.87289 20.0121 8.20852 19.8396 8.30977 19.5264L8.99977 17.3889H12.2998L12.9898 19.5283C13.091 19.8414 13.4266 20.0139 13.7398 19.9127L14.9773 19.5133C15.2904 19.4121 15.4629 19.0764 15.3616 18.7633L14.9191 17.3908H17.516L16.5166 19.1683L17.6791 19.5396L18.8154 17.3908L20.3641 19.5939Z" fill="#616161"/>
<path d="M5.27977 23.248C6.77508 23.248 7.98727 22.0358 7.98727 20.5405C7.98727 19.0452 6.77508 17.833 5.27977 17.833C3.78445 17.833 2.57227 19.0452 2.57227 20.5405C2.57227 22.0358 3.78445 23.248 5.27977 23.248Z" fill="url(#paint0_radial_1560_2817)"/>
<g opacity="0.76">
<path d="M5.27961 21.8454C6.00034 21.8454 6.58461 21.2611 6.58461 20.5404C6.58461 19.8196 6.00034 19.2354 5.27961 19.2354C4.55888 19.2354 3.97461 19.8196 3.97461 20.5404C3.97461 21.2611 4.55888 21.8454 5.27961 21.8454Z" fill="url(#paint1_linear_1560_2817)"/>
</g>
<path d="M5.28031 21.2188C5.65518 21.2188 5.95906 20.9149 5.95906 20.5401C5.95906 20.1652 5.65518 19.8613 5.28031 19.8613C4.90545 19.8613 4.60156 20.1652 4.60156 20.5401C4.60156 20.9149 4.90545 21.2188 5.28031 21.2188Z" fill="#757575"/>
<path d="M19.4162 17.9813L20.4194 17.2557C20.6781 17.0682 21.0344 17.0888 21.2687 17.3063L22.7762 18.6994C23.0369 18.9413 23.0125 19.3613 22.7237 19.5694L20.8937 20.8932C20.605 21.1013 20.1981 20.9944 20.0519 20.67L19.2006 18.8025C19.0656 18.5138 19.1575 18.1688 19.4162 17.9813Z" fill="url(#paint2_linear_1560_2817)"/>
<path d="M16.022 23.248C17.5173 23.248 18.7295 22.0358 18.7295 20.5405C18.7295 19.0452 17.5173 17.833 16.022 17.833C14.5266 17.833 13.3145 19.0452 13.3145 20.5405C13.3145 22.0358 14.5266 23.248 16.022 23.248Z" fill="url(#paint3_radial_1560_2817)"/>
<g opacity="0.76">
<path d="M16.0218 21.8454C16.7425 21.8454 17.3268 21.2611 17.3268 20.5404C17.3268 19.8196 16.7425 19.2354 16.0218 19.2354C15.3011 19.2354 14.7168 19.8196 14.7168 20.5404C14.7168 21.2611 15.3011 21.8454 16.0218 21.8454Z" fill="url(#paint4_linear_1560_2817)"/>
</g>
<path d="M16.0225 21.2188C16.3974 21.2188 16.7012 20.9149 16.7012 20.5401C16.7012 20.1652 16.3974 19.8613 16.0225 19.8613C15.6476 19.8613 15.3438 20.1652 15.3438 20.5401C15.3438 20.9149 15.6476 21.2188 16.0225 21.2188Z" fill="#757575"/>
<g opacity="0.57">
<path d="M2.56352 5.75203C4.15914 5.75203 5.97602 5.49703 7.71977 5.02078C7.86977 4.97953 7.95789 4.82578 7.91664 4.67578C7.87539 4.52578 7.71977 4.43766 7.57164 4.47891C3.95664 5.46516 1.69352 5.22328 1.69352 5.22328C1.69352 5.22328 1.43477 5.38453 1.27539 5.68266C1.29602 5.68828 2.13789 5.75203 2.56352 5.75203Z" fill="#01579B"/>
<path d="M2.84125 7.60861C4.50063 7.60861 6.39062 7.33299 8.19812 6.81736C8.34812 6.77424 8.43437 6.61861 8.39125 6.47049C8.34812 6.32049 8.1925 6.23799 8.04437 6.27736C4.495 7.22236 1.8325 7.01799 1.8325 7.01799C1.8325 7.01799 1.58312 7.16236 1.42188 7.45674C1.46687 7.50924 2.08 7.60861 2.84125 7.60861Z" fill="#01579B"/>
<path d="M8.48695 8.64136C8.63508 8.59636 8.72133 8.44073 8.67633 8.29073C8.63133 8.14261 8.47195 8.04698 8.3257 8.10136C5.60508 9.12698 1.90195 8.98261 1.90195 8.98261L1.8457 9.37448C1.8457 9.37448 2.68008 9.49636 3.19008 9.48698C4.97508 9.45136 6.61383 9.19636 8.48695 8.64136Z" fill="#01579B"/>
</g>
<defs>
<radialGradient id="paint0_radial_1560_2817" cx="0" cy="0" r="1" gradientUnits="userSpaceOnUse" gradientTransform="translate(5.27945 20.541) scale(2.84591)">
<stop offset="0.703" stop-color="#FFD740"/>
<stop offset="0.9986" stop-color="#F6BF26"/>
</radialGradient>
<linearGradient id="paint1_linear_1560_2817" x1="5.27929" y1="21.4774" x2="5.27929" y2="19.0997" gradientUnits="userSpaceOnUse">
<stop stop-color="#BF360C" stop-opacity="0"/>
<stop offset="1" stop-color="#BF360C"/>
</linearGradient>
<linearGradient id="paint2_linear_1560_2817" x1="19.7886" y1="19.7934" x2="22.8569" y2="17.3553" gradientUnits="userSpaceOnUse">
<stop offset="0.2394" stop-color="#757575"/>
<stop offset="0.8222" stop-color="#9D9D9D"/>
</linearGradient>
<radialGradient id="paint3_radial_1560_2817" cx="0" cy="0" r="1" gradientUnits="userSpaceOnUse" gradientTransform="translate(16.021 20.541) scale(2.84591)">
<stop offset="0.703" stop-color="#FFD740"/>
<stop offset="0.9986" stop-color="#F6BF26"/>
</radialGradient>
<linearGradient id="paint4_linear_1560_2817" x1="16.0209" y1="21.4774" x2="16.0209" y2="19.0997" gradientUnits="userSpaceOnUse">
<stop stop-color="#BF360C" stop-opacity="0"/>
<stop offset="1" stop-color="#BF360C"/>
</linearGradient>
</defs>
</svg>
