<svg width="24" height="24" viewBox="0 0 24 24" fill="none" xmlns="http://www.w3.org/2000/svg">
<g clip-path="url(#clip0_1560_2886)">
<path d="M11.763 23.3021C6.10459 23.3021 0 19.7529 0 11.965C0 4.17711 6.10459 0.62793 11.763 0.62793C14.9065 0.62793 17.8067 1.66226 19.9565 3.5484C22.2888 5.61706 23.526 8.53753 23.526 11.965C23.526 15.3925 22.2888 18.2927 19.9565 20.3614C17.8067 22.2475 14.8863 23.3021 11.763 23.3021Z" fill="url(#paint0_radial_1560_2886)"/>
<path d="M21.4814 5.22461C22.5624 6.96878 23.1262 9.04555 23.1262 11.3556C23.1262 14.7831 21.889 17.6832 19.5567 19.7519C17.4069 21.638 14.4865 22.6926 11.3632 22.6926C7.70044 22.6926 3.85921 21.202 1.5918 18.0402C3.77403 21.6218 7.87891 23.3011 11.7688 23.3011C14.8921 23.3011 17.8126 22.2465 19.9623 20.3603C22.2947 18.2917 23.5318 15.3915 23.5318 11.964C23.5318 9.38019 22.828 7.08438 21.4814 5.22461Z" fill="#EB8F00"/>
<path d="M8.73111 10.3004L8.69055 10.3409L8.58914 10.4423C8.54858 10.4829 8.50802 10.5032 8.44718 10.564C8.38228 10.6167 8.31535 10.6634 8.24437 10.706C8.16324 10.7465 8.08212 10.8074 8.00099 10.8479C7.91987 10.8885 7.81846 10.9291 7.71706 10.9696C7.61768 11.0061 7.51628 11.0325 7.41284 11.0508C7.30535 11.069 7.19787 11.0751 7.08835 11.071H6.90582C6.85714 11.0751 6.80847 11.067 6.76385 11.0508C6.66042 11.0325 6.55901 11.0061 6.45964 10.9696C6.36229 10.9372 6.26697 10.8966 6.1757 10.8479C6.09458 10.8074 6.01345 10.7465 5.93233 10.706C5.79036 10.6046 5.66868 10.5032 5.58755 10.4423L5.46587 10.3206L5.4253 10.2801C5.16368 10.0448 4.77226 10.0286 4.49238 10.2395C4.29565 10.3936 4.22873 10.6614 4.33013 10.8885L4.37069 10.9493C4.393 11.0061 4.42139 11.0589 4.45182 11.1116C4.57553 11.3205 4.72561 11.5111 4.898 11.6795C5.01766 11.7971 5.14746 11.9066 5.28334 12.004C5.44356 12.1155 5.61189 12.2108 5.79036 12.2879C5.98506 12.3771 6.1899 12.4441 6.39879 12.4907L6.74357 12.5515C6.80441 12.5515 6.88554 12.5718 6.90582 12.5718H7.06807C7.29319 12.5718 7.51628 12.5515 7.73734 12.511C7.94826 12.4684 8.15107 12.3994 8.34577 12.3082C8.52424 12.2311 8.69258 12.1358 8.8528 12.0242C8.99476 11.933 9.12456 11.8235 9.23814 11.6997C9.33751 11.6085 9.42675 11.5071 9.50179 11.3955C9.54235 11.355 9.56263 11.2941 9.60319 11.2536C9.64376 11.213 9.66404 11.1724 9.68432 11.1319C9.7188 11.0832 9.74719 11.0284 9.76544 10.9696L9.78572 10.9291C9.91147 10.6451 9.78167 10.3105 9.49773 10.1848C9.4734 10.1746 9.44703 10.1645 9.42066 10.1584C9.18338 10.055 8.90755 10.1117 8.73111 10.3004Z" fill="#422B0D"/>
<path d="M17.8405 10.3004L17.7999 10.3409L17.6985 10.4423C17.658 10.4829 17.6174 10.5032 17.5566 10.564C17.4917 10.6167 17.4247 10.6634 17.3537 10.706C17.2726 10.7465 17.1915 10.8074 17.1104 10.8479C17.0292 10.8885 16.9278 10.9291 16.8264 10.9696C16.7271 11.0061 16.6257 11.0325 16.5222 11.0508C16.4147 11.069 16.3072 11.0751 16.1977 11.071H16.0152C15.9665 11.0731 15.9199 11.0649 15.8732 11.0508C15.7698 11.0325 15.6684 11.0061 15.569 10.9696C15.4717 10.9372 15.3763 10.8966 15.2851 10.8479C15.204 10.8074 15.1228 10.7465 15.0417 10.706C14.8997 10.6046 14.7781 10.5032 14.6969 10.4423L14.5752 10.3206L14.5347 10.2801C14.2731 10.0448 13.8816 10.0286 13.6018 10.2395C13.405 10.3936 13.3381 10.6614 13.4395 10.8885L13.4801 10.9493C13.5024 11.0061 13.5308 11.0589 13.5612 11.1116C13.6849 11.3205 13.835 11.5111 14.0074 11.6795C14.127 11.7971 14.2568 11.9066 14.3927 12.004C14.5529 12.1155 14.7213 12.2108 14.8997 12.2879C15.0944 12.3771 15.2993 12.4441 15.5082 12.4907L15.8529 12.5515C15.9138 12.5515 15.9949 12.5718 16.0152 12.5718H16.1774C16.4026 12.5718 16.6257 12.5515 16.8467 12.511C17.0576 12.4684 17.2604 12.3994 17.4551 12.3082C17.6336 12.2311 17.802 12.1358 17.9622 12.0242C18.1082 11.937 18.238 11.8275 18.3475 11.6997C18.4469 11.6085 18.5361 11.5071 18.6112 11.3955C18.6517 11.355 18.672 11.2941 18.7126 11.2536C18.7531 11.213 18.7734 11.1724 18.7937 11.1319C18.8282 11.0832 18.8566 11.0284 18.8748 10.9696L18.8951 10.9291C19.0208 10.6451 18.891 10.3105 18.6071 10.1848C18.5828 10.1746 18.5564 10.1645 18.53 10.1584C18.2928 10.055 18.0169 10.1117 17.8405 10.3004Z" fill="#422B0D"/>
<path d="M14.5324 3.58786C14.4634 3.54932 14.3884 3.52093 14.3093 3.50673C14.2282 3.46617 14.1268 3.44589 14.0456 3.40533L13.6197 3.28364C13.4575 3.2228 13.2749 3.18223 13.1127 3.12139C12.7882 3.01999 12.3826 2.75633 12.1798 3.2228C12.125 3.32217 12.0966 3.43372 12.0986 3.54729C12.0986 3.70954 12.2203 3.79067 12.3623 3.85151C12.5124 3.91844 12.6685 3.97117 12.8288 4.01376C12.8795 4.04012 12.9342 4.05229 12.991 4.05432C13.0316 4.05432 13.0721 4.0746 13.0721 4.11516C13.0721 4.15572 13.0316 4.15572 13.0113 4.176C12.991 4.19629 12.9302 4.23685 12.8896 4.25713L12.8288 4.29769C12.7192 4.37882 12.6036 4.45385 12.484 4.52078C12.4029 4.58163 12.3015 4.64247 12.2203 4.70331C12.1757 4.72359 12.1352 4.74996 12.0986 4.78444C11.979 4.86556 11.8634 4.9548 11.7539 5.04809L11.7133 5.08865C11.6038 5.17586 11.5247 5.29754 11.4902 5.43343C11.4699 5.61596 11.6119 5.69708 11.7742 5.77821L11.9567 5.83905C12.1696 5.91814 12.3866 5.9871 12.6057 6.04186C12.7679 6.1027 12.9505 6.14326 13.1127 6.20411C13.4372 6.30551 13.8428 6.56916 14.0456 6.1027C14.1004 6.00332 14.1288 5.89178 14.1267 5.77821C14.1065 5.63421 14.003 5.51455 13.8631 5.47399C13.713 5.40706 13.5569 5.35433 13.3966 5.31174C13.3561 5.31174 13.3358 5.29146 13.2952 5.27118C13.2547 5.2509 13.2344 5.2509 13.2141 5.2509C13.1735 5.21034 13.2547 5.16977 13.2749 5.14949C13.3601 5.10285 13.4413 5.04809 13.5183 4.98725C13.6035 4.93249 13.6846 4.87164 13.7617 4.80472C13.8023 4.78444 13.8428 4.74387 13.8834 4.72359C13.9645 4.66275 14.0659 4.60191 14.147 4.54106C14.3701 4.35853 14.8771 4.13544 14.7149 3.79067C14.6723 3.70954 14.6094 3.63856 14.5324 3.58786Z" fill="#5F7AFF"/>
<path d="M18.5689 1.66056C18.4918 1.62405 18.4087 1.59768 18.3255 1.57943C18.2241 1.55915 18.1227 1.51859 18.0213 1.49831C17.859 1.45775 17.6968 1.43746 17.5548 1.3969C17.3723 1.35634 17.1695 1.2955 16.987 1.25494C16.6219 1.17381 16.1554 0.930439 15.9729 1.45775C15.9242 1.57335 15.9019 1.69706 15.9121 1.8228C15.9324 2.00533 16.0743 2.08646 16.2366 2.12702C16.4029 2.18381 16.5712 2.23045 16.7436 2.26899C16.8044 2.28927 16.8653 2.28927 16.9261 2.30955C16.987 2.32983 17.0072 2.32983 17.0072 2.37039C17.0072 2.41095 16.9667 2.43123 16.9464 2.45152C16.9261 2.4718 16.8653 2.51236 16.8247 2.55292C16.7842 2.59348 16.7842 2.5732 16.7639 2.59348C16.6422 2.69489 16.5205 2.77601 16.3988 2.87742L16.1149 3.10051C16.0743 3.12079 16.0338 3.16135 15.9932 3.18163C15.8715 3.28304 15.7498 3.38444 15.6484 3.48585C15.6281 3.50613 15.6079 3.50613 15.6079 3.52641C15.4841 3.62781 15.405 3.77384 15.3848 3.93203C15.3848 4.13484 15.547 4.21596 15.7295 4.29709L15.9324 4.35793C16.1656 4.43094 16.4029 4.49179 16.6422 4.54046C16.8247 4.58102 17.0275 4.64186 17.2101 4.68243C17.5751 4.76355 18.0416 5.00692 18.2241 4.47962C18.2728 4.36401 18.2951 4.2403 18.2849 4.11456C18.2647 3.93203 18.1227 3.85091 17.9605 3.81034C17.7881 3.75153 17.6116 3.70285 17.4331 3.66838C17.3926 3.66838 17.352 3.64809 17.3115 3.64809C17.2709 3.64809 17.2303 3.64809 17.2101 3.62781C17.1898 3.60753 17.2506 3.54669 17.2709 3.52641C17.352 3.46557 17.4331 3.40472 17.5346 3.3236L17.7982 3.12079C17.8428 3.08225 17.8895 3.04778 17.9402 3.01938C18.0395 2.95043 18.1328 2.87539 18.2241 2.79629C18.4472 2.5732 18.9948 2.30955 18.7717 1.92421C18.7453 1.81064 18.6703 1.71531 18.5689 1.66056Z" fill="#5F7AFF"/>
<path d="M23.9414 1.03221C23.8643 0.902408 23.7528 0.794919 23.6169 0.727991C23.5114 0.685401 23.4039 0.650924 23.2924 0.626586C23.1606 0.583996 23.0247 0.549518 22.8868 0.525181C22.684 0.464338 22.4609 0.423776 22.2581 0.383214C22.0147 0.322371 21.751 0.241247 21.5077 0.180404C21.0209 0.058718 20.4125 -0.265778 20.1488 0.444057C20.0819 0.598193 20.0555 0.764497 20.0677 0.930802C20.1042 1.14578 20.2786 1.31006 20.4936 1.33642C20.7208 1.40943 20.9499 1.47028 21.1832 1.51895C21.2643 1.53923 21.3454 1.55951 21.4063 1.57979C21.4671 1.60007 21.5279 1.60008 21.5279 1.66092C21.5198 1.70554 21.4894 1.74407 21.4468 1.76232C21.386 1.80289 21.3454 1.84345 21.2846 1.88401C21.2623 1.90835 21.2339 1.93066 21.2034 1.94485C21.0412 2.06654 20.879 2.18822 20.737 2.30991L20.3719 2.61413C20.3212 2.65874 20.2665 2.69931 20.2097 2.73581C20.0474 2.8575 19.9055 2.99946 19.7432 3.14143L19.6824 3.20228C19.5201 3.33207 19.4167 3.52271 19.3984 3.72958C19.3984 3.99323 19.6215 4.11492 19.8649 4.21633C19.9501 4.25283 20.0373 4.2792 20.1286 4.29745H20.1488C20.4531 4.39885 20.7775 4.4597 21.102 4.54082L21.8524 4.72335C22.3392 4.84504 22.9679 5.16953 23.2113 4.4597C23.2782 4.30556 23.3046 4.13926 23.2924 3.97295C23.2559 3.75797 23.0815 3.5937 22.8665 3.56733C22.6434 3.48215 22.4122 3.4132 22.1769 3.36452C22.1161 3.34424 22.0755 3.34424 22.0147 3.32396C21.9701 3.32396 21.9295 3.30976 21.893 3.2834C21.8322 3.22256 21.9336 3.16171 21.9741 3.14143C22.0938 3.06031 22.2094 2.97107 22.3189 2.87778C22.4406 2.77637 22.5623 2.69525 22.6637 2.59384C22.7286 2.55328 22.7915 2.50461 22.8462 2.45188C22.976 2.36264 23.0997 2.25921 23.2113 2.14766C23.5155 1.88401 24.2253 1.51895 23.9414 1.03221Z" fill="#5F7AFF"/>
<path d="M10.1646 19.3449C9.38782 19.3307 8.76925 18.6878 8.78344 17.9111C8.7875 17.6494 8.86659 17.3939 9.00856 17.1748C9.63727 16.2014 10.631 15.6943 11.8479 15.6943C13.0648 15.6943 14.0585 16.2014 14.6872 17.1748C14.9692 17.6008 14.9915 18.1463 14.7481 18.5945C14.5067 19.0448 14.0423 19.3327 13.5312 19.3449C13.371 19.349 13.2128 19.3226 13.0648 19.2638C12.6733 19.1279 12.2616 19.059 11.8479 19.061C11.4342 19.0569 11.0225 19.1259 10.631 19.2638C10.481 19.3186 10.3228 19.3469 10.1646 19.3449Z" fill="#422B0D"/>
</g>
<defs>
<radialGradient id="paint0_radial_1560_2886" cx="0" cy="0" r="1" gradientUnits="userSpaceOnUse" gradientTransform="translate(11.763 11.965) scale(11.552 11.552)">
<stop offset="0.5" stop-color="#FDE030"/>
<stop offset="0.92" stop-color="#F7C02B"/>
<stop offset="1" stop-color="#F4A223"/>
</radialGradient>
<clipPath id="clip0_1560_2886">
<rect width="24" height="24" fill="white"/>
</clipPath>
</defs>
</svg>
