<svg width="24" height="24" viewBox="0 0 24 24" fill="none" xmlns="http://www.w3.org/2000/svg">
<g clip-path="url(#clip0_3931_7131)">
<path d="M16.3435 15.2754C14.8776 18.1448 14.5889 21.2728 15.47 23.4886C18.0906 22.6988 20.4487 21.0154 22.0448 18.5671L16.3435 15.2754Z" fill="#13D16A"/>
<path d="M12.2488 12.9141L6.59375 22.7106C9.01196 23.9366 11.6662 24.2653 14.1645 23.8079C13.1623 21.1297 13.5797 17.7116 15.1881 14.6125L12.2488 12.9141Z" fill="#13D16A"/>
<path d="M8.19513 10.5684C6.30931 13.5215 3.54624 15.5986 0.716797 16.0609C1.57286 18.4416 3.18124 20.5648 5.44214 22.0397L11.0972 12.2432L8.19513 10.5684Z" fill="#13D16A"/>
<path d="M23.6727 9.24805C21.312 9.59798 18.7474 11.4151 16.998 14.1218L22.7017 17.4149C24.0252 14.8042 24.3026 11.9159 23.6727 9.24805Z" fill="#13D16A"/>
<path d="M1.29379 6.58984C-0.0321553 9.20552 -0.30835 12.0987 0.325269 14.7704C2.69348 14.4367 5.27296 12.6196 7.03385 9.9027L1.29379 6.58984Z" fill="#13D16A"/>
<path d="M18.5626 1.961L12.9062 11.7588L15.8456 13.4547C17.7227 10.5104 20.4721 8.43213 23.2926 7.95576C22.4378 5.5688 20.827 3.43939 18.5626 1.961Z" fill="#13D16A"/>
<path d="M8.56736 0.501953C5.93169 1.28802 3.55984 2.97641 1.95508 5.43589L7.69492 8.74875C9.17209 5.8669 9.45839 2.72258 8.56736 0.501953Z" fill="#13D16A"/>
<path d="M11.7418 0.00286282C11.1169 0.0166095 10.4958 0.081594 9.88343 0.191569C10.8945 2.87721 10.4758 6.3102 8.85742 9.41831L11.758 11.0929L17.4131 1.29641C15.601 0.377864 13.6552 -0.0395468 11.743 0.00293971L11.7418 0.00286282Z" fill="#13D16A"/>
</g>
<defs>
<clipPath id="clip0_3931_7131">
<rect width="24" height="24" fill="white"/>
</clipPath>
</defs>
</svg>
