<svg width="24" height="24" viewBox="0 0 24 24" fill="none" xmlns="http://www.w3.org/2000/svg">
<g clip-path="url(#clip0_1560_3059)">
<path d="M11.9986 23.1284C6.22687 23.1284 0 19.5081 0 11.5642C0 3.62027 6.22687 0 11.9986 0C15.2051 0 18.1634 1.05505 20.3563 2.97897C22.7353 5.08907 23.9972 8.06804 23.9972 11.5642C23.9972 15.0603 22.7353 18.0186 20.3563 20.1287C18.1634 22.0526 15.1845 23.1284 11.9986 23.1284Z" fill="url(#paint0_radial_1560_3059)"/>
<path d="M21.9072 4.68848C23.0098 6.46758 23.5849 8.58596 23.5849 10.9422C23.5849 14.4384 22.323 17.3967 19.9439 19.5068C17.7511 21.4307 14.7721 22.5064 11.5863 22.5064C7.85015 22.5064 3.93198 20.9859 1.61914 17.7608C3.84509 21.4141 8.0322 23.127 12 23.127C15.1859 23.127 18.1648 22.0513 20.3577 20.1274C22.7367 18.0173 23.9986 15.059 23.9986 11.5629C23.9986 8.9273 23.2808 6.5855 21.9072 4.68848Z" fill="#EB8F00"/>
<path d="M18.6883 2.09525L17.0209 4.30879C16.9382 4.41636 16.8099 4.47843 16.6734 4.47222L13.9054 4.3543C13.6779 4.34396 13.4834 4.52187 13.4731 4.74943C13.4689 4.84045 13.4958 4.92941 13.5475 5.00388L15.1384 7.27948C15.2149 7.38913 15.2336 7.52773 15.188 7.65392L14.2199 10.2522C14.1413 10.4674 14.2509 10.7053 14.464 10.7839C14.5488 10.8149 14.6398 10.817 14.7267 10.7922L17.3768 9.98124C17.5071 9.94194 17.6478 9.96883 17.7553 10.0536L19.9254 11.7769C20.1054 11.9176 20.364 11.8886 20.5067 11.7086C20.5626 11.6362 20.5936 11.5493 20.5957 11.4583L20.6433 8.68829C20.6454 8.55175 20.7157 8.42556 20.8295 8.35108L23.1382 6.82643C23.3285 6.70024 23.3823 6.44372 23.2561 6.25339C23.2064 6.17685 23.132 6.11893 23.0451 6.08996L20.424 5.188C20.2916 5.14456 20.1902 5.03698 20.153 4.90251L19.4165 2.23179C19.3545 2.0125 19.1248 1.88424 18.9056 1.9463C18.8187 1.97113 18.7421 2.02285 18.6883 2.09525Z" fill="url(#paint1_radial_1560_3059)"/>
<path d="M19.4895 2.04718L20.1101 4.92685C20.1577 5.14821 20.3211 5.32612 20.5383 5.39025L23.3063 6.21774C23.5131 6.29221 23.6207 6.51977 23.5462 6.72665C23.5173 6.8094 23.4614 6.87767 23.387 6.92525L20.9045 8.27406C20.6955 8.37956 20.5631 8.59471 20.5631 8.82847L20.588 11.8467C20.5818 12.064 20.3997 12.2357 20.1804 12.2295C20.0935 12.2274 20.0087 12.1964 19.9425 12.1405L17.7745 10.1938C17.6069 10.0407 17.369 9.99317 17.1539 10.0676L14.4025 11.0048C14.1915 11.0648 13.9722 10.9427 13.9101 10.7317C13.8853 10.649 13.8894 10.56 13.9225 10.4793L15.1348 7.71343C15.2258 7.50242 15.1948 7.26038 15.0521 7.0804L13.2916 4.86065C13.1695 4.67654 13.2192 4.43036 13.4012 4.30624C13.4715 4.25866 13.5564 4.2359 13.6432 4.24004L16.5167 4.5669C16.7422 4.59172 16.9615 4.49242 17.0918 4.3083L18.7923 1.90444C18.9268 1.73067 19.1771 1.69964 19.3488 1.83617C19.4191 1.88996 19.4667 1.96237 19.4895 2.04718Z" fill="#F44336"/>
<path d="M18.8327 4.83024L19.0395 2.84426C19.054 2.73462 19.0706 2.5443 19.2464 2.57947C19.385 2.60843 19.3995 2.90839 19.3995 2.90839L19.6684 4.59234C19.7677 5.23158 19.6353 5.41983 19.3954 5.4943C19.1161 5.5874 18.7747 5.39914 18.8327 4.83024Z" fill="#FF847A"/>
<path d="M20.6965 8.06881L22.6555 7.09857C22.7528 7.04479 22.9265 6.96411 22.8335 6.81309C22.7569 6.69517 22.4694 6.78413 22.4694 6.78413L20.8744 7.05927C20.4027 7.12133 20.0634 7.28683 19.9786 7.56611C19.869 7.92606 20.1482 8.28809 20.6965 8.06881Z" fill="#C62828"/>
<path d="M5.56496 1.55303L7.21994 3.98172C7.3482 4.16791 7.56542 4.26927 7.79091 4.24859L10.6706 3.96517C10.8899 3.95897 11.074 4.13067 11.0802 4.34995C11.0823 4.43477 11.0595 4.51752 11.0119 4.58579L9.22661 6.78485C9.0818 6.96276 9.04663 7.2048 9.13559 7.41581L10.3044 10.1982C10.381 10.4031 10.2775 10.6327 10.0727 10.7092C9.98997 10.7403 9.90102 10.7423 9.8162 10.7175L7.07099 9.73899C6.85792 9.66245 6.62001 9.70589 6.45038 9.85484L4.26166 11.7684C4.09203 11.9049 3.84378 11.8781 3.70517 11.7084C3.64932 11.6402 3.61829 11.5533 3.61829 11.4664L3.68656 8.4481C3.69276 8.21848 3.57071 8.00747 3.37211 7.89369L0.910324 6.50764C0.724138 6.39593 0.662077 6.15182 0.775857 5.96563C0.823437 5.88495 0.89998 5.82289 0.988936 5.79393L3.77137 5.00367C3.98652 4.94368 4.15202 4.76991 4.20581 4.55269L4.86573 1.68336C4.92572 1.47235 5.14501 1.3503 5.35602 1.41029C5.43877 1.43305 5.51324 1.48477 5.56496 1.55303Z" fill="#F44336"/>
<path d="M6.01409 4.37695L5.44725 2.4613C5.42036 2.35373 5.36244 2.17168 5.53621 2.13858C5.67481 2.11169 5.80514 2.38476 5.80514 2.38476L6.69056 3.83287C7.02776 4.38729 6.97398 4.60864 6.78158 4.77C6.58919 4.93136 6.17545 4.92516 6.01409 4.37695Z" fill="#FF847A"/>
<path d="M8.96384 6.65477L10.412 5.0122C10.4823 4.92738 10.6188 4.78671 10.4657 4.68327C10.352 4.60052 10.1203 4.79291 10.1203 4.79291L8.7487 5.6535C8.33495 5.88934 8.08463 6.17069 8.1136 6.46238C8.14877 6.84716 8.54182 7.07472 8.96384 6.65477Z" fill="#C62828"/>
<path d="M19.9579 13.3688C19.6683 12.8454 19.0394 12.6158 18.4808 12.8268C16.3583 13.4454 14.1572 13.7536 11.9457 13.7433C9.73425 13.7536 7.53312 13.4454 5.41061 12.8268C4.85412 12.6158 4.22523 12.8434 3.9356 13.3647C3.65426 13.8839 3.85699 14.4859 4.0949 15.0052C5.42302 17.9221 8.35027 19.6681 11.9292 19.6785H11.9623C15.5412 19.6785 18.4684 17.9221 19.7986 15.0052C20.0344 14.4818 20.2392 13.8881 19.9579 13.3688Z" fill="#422B0D"/>
<path d="M15.2581 18.8563C15.1816 18.7859 15.103 18.7218 15.0244 18.6494C14.1803 17.9067 13.088 17.5075 11.9626 17.5302C10.8041 17.5116 9.67669 17.8964 8.77266 18.6204C8.69405 18.6846 8.6113 18.7466 8.53475 18.8273C8.45821 18.908 8.41684 18.9659 8.36719 19.0342C9.50499 19.479 10.7173 19.7065 11.9399 19.7003H11.973C13.1439 19.7003 14.3044 19.4914 15.4009 19.0797C15.3595 19.0011 15.3119 18.9266 15.2581 18.8563Z" fill="#ED7770"/>
<path d="M18.4763 12.8277C16.3538 13.4462 14.1527 13.7545 11.9412 13.7441C9.72974 13.7545 7.52862 13.4462 5.4061 12.8277C4.84961 12.6167 4.22072 12.8442 3.9311 13.3656C3.88972 13.4442 3.85662 13.5269 3.83594 13.6117C3.90421 13.6469 3.98282 13.6821 4.07591 13.7193C6.56666 14.9668 9.32013 15.5998 12.1046 15.5667C14.7754 15.5977 17.4151 15.0164 19.8272 13.8703C19.9244 13.829 20.0051 13.7897 20.0775 13.7524C20.061 13.618 20.0175 13.4856 19.9534 13.3656C19.6638 12.8442 19.0349 12.6146 18.4763 12.8277Z" fill="white"/>
<path d="M19.9662 13.3709C19.6724 12.8475 19.0415 12.6158 18.4788 12.8268C16.3562 13.4454 14.1551 13.7536 11.9457 13.7433C9.73425 13.7536 7.53312 13.4454 5.41061 12.8268C4.85412 12.6158 4.22523 12.8434 3.9356 13.3647C3.65426 13.8839 3.85699 14.4859 4.0949 15.0052C4.2004 15.239 4.31832 15.4686 4.44865 15.6899C4.44865 15.6899 4.01422 14.0805 4.39072 13.6129C4.51898 13.4143 4.73413 13.2902 4.96997 13.2778C5.0672 13.2778 5.16236 13.2944 5.25545 13.3233C7.4152 13.9584 9.65564 14.2791 11.9085 14.2749H11.9809C14.2337 14.2791 16.4742 13.9584 18.6339 13.3233C18.727 13.2944 18.8222 13.2778 18.9194 13.2778C19.1552 13.2902 19.3725 13.4143 19.5007 13.6129C19.8834 14.0805 19.4428 15.6962 19.4428 15.6962C19.571 15.4748 19.6993 15.2472 19.8069 15.0114C20.0427 14.4921 20.2475 13.8922 19.9662 13.3709Z" fill="#EB8F00"/>
</g>
<defs>
<radialGradient id="paint0_radial_1560_3059" cx="0" cy="0" r="1" gradientUnits="userSpaceOnUse" gradientTransform="translate(11.9986 11.5642) scale(11.7834 11.7834)">
<stop offset="0.5" stop-color="#FDE030"/>
<stop offset="0.92" stop-color="#F7C02B"/>
<stop offset="1" stop-color="#F4A223"/>
</radialGradient>
<radialGradient id="paint1_radial_1560_3059" cx="0" cy="0" r="1" gradientUnits="userSpaceOnUse" gradientTransform="translate(18.3988 6.89842) scale(4.94651)">
<stop offset="0.2" stop-color="#FF4081"/>
<stop offset="0.88" stop-color="#CC1775"/>
</radialGradient>
<clipPath id="clip0_1560_3059">
<rect width="24" height="24" fill="white"/>
</clipPath>
</defs>
</svg>
