<svg width="24" height="24" viewBox="0 0 24 24" fill="none" xmlns="http://www.w3.org/2000/svg">
<g clip-path="url(#clip0_1560_3161)">
<path d="M11.9672 23.0679C6.21058 23.0679 0 19.4571 0 11.5339C0 3.6108 6.21058 0 11.9672 0C15.1654 0 18.1159 1.05229 20.303 2.97118C22.6758 5.07576 23.9345 8.04693 23.9345 11.5339C23.9345 15.0209 22.6758 17.9715 20.303 20.0761C18.1159 21.995 15.1447 23.0679 11.9672 23.0679Z" fill="url(#paint0_radial_1560_3161)"/>
<path d="M21.8521 4.67676C22.9519 6.45121 23.5255 8.56405 23.5255 10.9142C23.5255 14.4012 22.2669 17.3517 19.894 19.4563C17.7069 21.3752 14.7358 22.4481 11.5582 22.4481C7.8319 22.4481 3.92398 20.9316 1.61719 17.7149C3.83732 21.3587 8.01347 23.0671 11.9709 23.0671C15.1484 23.0671 18.1196 21.9942 20.3067 20.0753C22.6795 17.9707 23.9381 15.0202 23.9381 11.5332C23.9381 8.90449 23.2222 6.56882 21.8521 4.67676Z" fill="#EB8F00"/>
<path d="M21.6502 9.40988C20.309 9.40988 19.2773 8.10999 19.2773 6.9958C19.2773 6.21174 19.6281 5.30388 20.1233 4.04526C20.1852 3.85956 20.2677 3.67386 20.3503 3.46753C20.5628 2.85679 20.8166 2.26256 21.1116 1.68689C21.2623 1.41866 21.6006 1.32375 21.8709 1.47437C21.9597 1.52389 22.0339 1.59817 22.0835 1.68689C22.3723 2.23573 22.5786 2.82378 22.8881 3.50674C23.7547 5.44625 24.0023 6.23031 24.0023 7.01437C24.023 8.10999 22.9707 9.40988 21.6502 9.40988Z" fill="url(#paint1_radial_1560_3161)"/>
<path d="M23.1037 7.92337C22.8004 8.39174 22.1133 8.30302 22.1133 7.52515C22.1133 7.02789 22.2144 4.4735 22.6415 4.83046C23.3368 5.41231 23.5349 7.26104 23.1037 7.92337Z" fill="#81D4FA"/>
<path d="M8.963 10.2932L8.93205 10.2519L8.84333 10.1384L8.73397 10.0208C8.68858 9.96924 8.63493 9.91972 8.58335 9.86608C8.53177 9.81243 8.4678 9.76085 8.41003 9.71752C8.35638 9.67625 8.29861 9.63705 8.23671 9.6061C8.19545 9.5834 8.15005 9.56483 8.1026 9.55452C8.08815 9.55245 8.07371 9.55245 8.05927 9.55452C8.05927 9.55452 8.04689 9.55452 8.0407 9.55452H8.02419C8.04895 9.55452 7.96848 9.55452 8.0799 9.55452H7.96642C7.93547 9.55452 7.9561 9.55452 7.96642 9.55452H7.98292H7.96023C7.91277 9.56483 7.86738 9.58134 7.82405 9.6061C7.76421 9.63911 7.70438 9.67625 7.65073 9.71752C7.59089 9.76291 7.53312 9.81243 7.47947 9.86608C7.37012 9.97131 7.27314 10.0724 7.21124 10.1529L7.10395 10.2767L7.05649 10.3324C6.75938 10.6646 6.25799 10.7182 5.89691 10.4582C5.66582 10.2973 5.54821 10.0188 5.5936 9.74021C5.5936 9.74021 5.60805 9.65768 5.64725 9.51119C5.70915 9.30279 5.79581 9.10059 5.90516 8.91076C6.08055 8.60126 6.31783 8.33097 6.60257 8.11638C6.79033 7.97195 6.99872 7.85641 7.22156 7.77594C7.28346 7.75118 7.34742 7.73261 7.41139 7.7161C7.47947 7.69547 7.54756 7.68102 7.61772 7.66864L7.74358 7.65008L7.84881 7.6377H7.96229H8.12529H8.23052C8.30067 7.6377 8.36876 7.65627 8.43685 7.66658C8.56891 7.68928 8.70096 7.72435 8.82682 7.77181C9.04966 7.85228 9.25805 7.96783 9.44582 8.11226C9.73055 8.32684 9.96783 8.59714 10.1432 8.90663C10.2072 9.01393 10.2629 9.12741 10.3083 9.24296C10.3475 9.3358 10.3805 9.42865 10.4073 9.52563C10.4218 9.57515 10.4341 9.62467 10.4403 9.67419V9.72577C10.5022 10.1467 10.2092 10.5387 9.78833 10.6006C9.77801 10.6027 9.76769 10.6027 9.75738 10.6047C9.45613 10.6481 9.15489 10.5284 8.963 10.2932Z" fill="#422B0D"/>
<path d="M17.1057 10.2932L17.0727 10.2519L16.984 10.1384L16.8746 10.0208C16.8292 9.96924 16.7756 9.91972 16.724 9.86608C16.6724 9.81243 16.6084 9.76085 16.5507 9.71752C16.497 9.67625 16.4392 9.63705 16.3773 9.6061C16.3361 9.5834 16.2907 9.56483 16.2432 9.55452C16.2288 9.55245 16.2143 9.55245 16.1999 9.55452C16.1999 9.55452 16.1875 9.55452 16.1813 9.55452H16.1648C16.1896 9.55452 16.1091 9.55452 16.2205 9.55452H16.107C16.0761 9.55452 16.0967 9.55452 16.107 9.55452H16.1235H16.1009C16.0534 9.56483 16.008 9.58134 15.9647 9.6061C15.9048 9.63705 15.8471 9.67625 15.7934 9.71752C15.7315 9.76291 15.6737 9.81243 15.6201 9.86608C15.5107 9.97131 15.4138 10.0724 15.3519 10.1529L15.2446 10.2767L15.1992 10.3324C14.9 10.6646 14.4007 10.7182 14.0375 10.4582C13.8064 10.2973 13.6888 10.0188 13.7342 9.74021C13.7342 9.74021 13.7487 9.65768 13.7899 9.51119C13.8518 9.30073 13.9364 9.09852 14.0479 8.91076C14.2232 8.60126 14.4585 8.33097 14.7432 8.11638C14.931 7.97195 15.1393 7.85641 15.3622 7.77594C15.4241 7.75118 15.488 7.73261 15.552 7.7161C15.6201 7.69547 15.6882 7.68102 15.7583 7.66864L15.8863 7.65008L15.9894 7.6377H16.1029H16.2659H16.3711C16.4413 7.6377 16.5094 7.65627 16.5775 7.66658C16.7116 7.68928 16.8416 7.72435 16.9674 7.77181C17.1903 7.85228 17.3987 7.96783 17.5864 8.11226C17.8712 8.32684 18.1085 8.59714 18.2838 8.90663C18.3478 9.01393 18.4035 9.12741 18.4489 9.24296C18.4881 9.33374 18.5211 9.42659 18.5479 9.5215C18.5624 9.57102 18.5748 9.62054 18.581 9.67006V9.72164C18.647 10.1426 18.3581 10.5367 17.9372 10.6027C17.931 10.6027 17.9248 10.6047 17.9186 10.6047C17.6112 10.6563 17.2996 10.5367 17.1057 10.2932Z" fill="#422B0D"/>
<path d="M19.9098 13.333C19.6209 12.811 18.9937 12.582 18.4366 12.7924C16.3196 13.4094 14.1242 13.7168 11.9185 13.7065C9.71286 13.7168 7.51749 13.4094 5.40053 12.7924C4.8455 12.582 4.21825 12.8089 3.92939 13.3289C3.64878 13.8468 3.85098 14.4472 4.08826 14.9651C5.41291 17.8744 8.3325 19.6158 11.902 19.6261H11.9351C15.5046 19.6261 18.4242 17.8744 19.7509 14.9651C19.9861 14.4431 20.1904 13.8509 19.9098 13.333Z" fill="#422B0D"/>
<path d="M15.2225 18.8049C15.1462 18.7348 15.0678 18.6708 14.9894 18.5986C14.1475 17.8579 13.0581 17.4597 11.9357 17.4824C10.7802 17.4638 9.65569 17.8476 8.75402 18.5697C8.67561 18.6337 8.59308 18.6956 8.51674 18.7761C8.44039 18.8565 8.39913 18.9143 8.34961 18.9824C9.48443 19.426 10.6935 19.653 11.913 19.6468H11.946C13.1138 19.6468 14.2713 19.4384 15.3649 19.0278C15.3236 18.9494 15.2762 18.8751 15.2225 18.8049Z" fill="#ED7770"/>
<path d="M18.438 12.7914C16.3211 13.4083 14.1257 13.7157 11.92 13.7054C9.71433 13.7157 7.51896 13.4083 5.40199 12.7914C4.84696 12.5809 4.21971 12.8079 3.93085 13.3278C3.88958 13.4062 3.85657 13.4888 3.83594 13.5734C3.90403 13.6084 3.98243 13.6435 4.07528 13.6806C6.55951 14.9248 9.30579 15.5562 12.083 15.5232C14.7468 15.5541 17.3795 14.9743 19.7854 13.8313C19.8823 13.79 19.9628 13.7508 20.035 13.7137C20.0185 13.5795 19.9752 13.4475 19.9112 13.3278C19.6224 12.8079 18.9951 12.5788 18.438 12.7914Z" fill="white"/>
<path d="M19.918 13.3351C19.625 12.8131 18.9957 12.582 18.4345 12.7924C16.3175 13.4094 14.1222 13.7168 11.9185 13.7065C9.71286 13.7168 7.51749 13.4094 5.40053 12.7924C4.8455 12.582 4.21825 12.8089 3.92939 13.3289C3.64878 13.8468 3.85098 14.4472 4.08826 14.9651C4.19349 15.1983 4.3111 15.4273 4.44109 15.6481C4.44109 15.6481 4.00779 14.0428 4.38332 13.5765C4.51124 13.3784 4.72583 13.2546 4.96105 13.2422C5.05802 13.2422 5.15293 13.2588 5.24578 13.2876C7.39988 13.9211 9.63446 14.2409 11.8814 14.2368H11.9536C14.2006 14.2409 16.4351 13.9211 18.5892 13.2876C18.6821 13.2588 18.777 13.2422 18.874 13.2422C19.1092 13.2546 19.3259 13.3784 19.4538 13.5765C19.8355 14.0428 19.396 15.6543 19.396 15.6543C19.5239 15.4335 19.6519 15.2065 19.7591 14.9713C19.9944 14.4534 20.1986 13.855 19.918 13.3351Z" fill="#EB8F00"/>
</g>
<defs>
<radialGradient id="paint0_radial_1560_3161" cx="0" cy="0" r="1" gradientUnits="userSpaceOnUse" gradientTransform="translate(11.9672 11.5339) scale(11.7526 11.7526)">
<stop offset="0.5" stop-color="#FDE030"/>
<stop offset="0.92" stop-color="#F7C02B"/>
<stop offset="1" stop-color="#F4A223"/>
</radialGradient>
<radialGradient id="paint1_radial_1560_3161" cx="0" cy="0" r="1" gradientUnits="userSpaceOnUse" gradientTransform="translate(21.8193 2.42299) scale(5.29447 8.15348)">
<stop offset="0.46" stop-color="#29B6F6"/>
<stop offset="1" stop-color="#1E88E5"/>
</radialGradient>
<clipPath id="clip0_1560_3161">
<rect width="24" height="24" fill="white"/>
</clipPath>
</defs>
</svg>
