<svg width="24" height="24" viewBox="0 0 24 24" fill="none" xmlns="http://www.w3.org/2000/svg">
<path d="M23.451 6.447C23.1209 5.95565 22.6622 5.51877 22.0848 5.14398C20.9409 4.41186 19.4352 4.00658 17.8413 4.00003C16.4304 3.99676 15.0522 4.30727 13.9584 4.88142C12.554 5.62007 10.7956 6.01882 9.00781 6.00686H8.92174C6.59244 6.00686 4.38954 6.58318 2.72587 7.62908C1.88916 8.15529 1.22676 8.7763 0.760461 9.47029C0.256034 10.2209 0 11.0228 0 11.8573V14.4971C0 16.1106 0.96964 17.5999 2.7324 18.6938C4.37423 19.7146 6.57069 20.304 8.91293 20.3509C9.06872 20.3541 9.22343 20.3574 9.37597 20.3574C11.4013 20.3574 13.3406 20.0818 15.1415 19.5392C16.8912 19.0097 18.4719 18.246 19.8447 17.26C21.0899 16.3667 22.1325 15.3012 22.8593 14.1857C23.5729 13.0864 23.9684 11.9544 24 10.9183V10.8834V8.15429C23.9956 7.55944 23.8084 6.98629 23.451 6.447ZM3.41672 8.7327C4.87771 7.81318 6.8333 7.30984 8.92174 7.30984H8.92828H8.99473H8.998H9.07427C11.0429 7.30984 12.9887 6.85662 14.5575 6.03625C15.4672 5.56125 16.6308 5.2976 17.8313 5.30413C19.1812 5.3074 20.4428 5.64294 21.3776 6.24217C22.2208 6.78146 22.686 7.46564 22.6959 8.16616V8.23589C22.6861 8.53114 22.6359 8.84164 22.5466 9.16411C22.0618 10.8887 20.5028 12.7104 18.3795 14.0352C16.5568 15.1693 13.442 16.5072 8.93494 16.4124C7.09372 16.3743 5.31894 15.9624 3.93975 15.2488C2.6313 14.5734 1.73685 13.6615 1.42635 12.6788C1.34028 12.413 1.29997 12.1373 1.29997 11.8606C1.29997 10.7036 2.05053 9.59126 3.41672 8.7327Z" fill="#13D16A"/>
<path d="M4.43992 14.2793C5.67321 14.9166 7.27694 15.2871 8.95371 15.3219C9.09316 15.3252 9.22935 15.3252 9.36881 15.3252C10.4332 15.3252 11.4094 15.2424 12.3037 15.0975C12.6524 15.0441 12.7406 14.5811 12.4366 14.4002C10.8896 13.484 9.75218 11.9914 9.75218 10.5937C9.75218 9.95968 9.49506 9.41492 8.98845 8.97369C8.69973 8.72311 8.3424 8.53682 8.22146 8.47579C8.19314 8.46272 8.16481 8.45727 8.13322 8.45945C7.88591 8.48124 6.72888 8.5989 6.14602 8.7547C5.34091 8.96715 4.59896 9.28091 3.99759 9.66114C3.45286 10.0032 3.01816 10.3998 2.74252 10.8116C2.50828 11.1603 2.39062 11.5121 2.39062 11.8608C2.39062 12.0253 2.41568 12.1844 2.46689 12.3489C2.68696 13.0407 3.40602 13.7444 4.43992 14.2793Z" fill="#13D16A"/>
<path d="M20.1769 10.6364C20.0789 10.668 19.9743 10.6996 19.8697 10.7279C19.1593 10.9306 18.4686 11.0482 17.8128 11.0798C17.6984 11.0864 17.5872 11.0864 17.4772 11.0864C16.7734 11.0864 16.111 10.9818 15.5085 10.7726C14.1238 10.291 12.7859 10.3641 11.9045 10.51C11.5428 10.5699 11.2258 10.6462 10.973 10.7192C10.7105 10.7955 10.5645 11.0744 10.6527 11.3304C10.8488 11.8947 11.2585 12.4809 11.8413 13.0104C12.5571 13.6629 13.4418 14.1391 14.3297 14.3635C14.6653 14.4496 15.0204 14.4267 15.344 14.3036C16.3964 13.9103 17.2484 13.457 17.9075 13.0322C18.3891 12.7249 18.8423 12.3861 19.2541 12.0276C19.6659 11.6692 20.0342 11.2923 20.3512 10.9022C20.4623 10.7726 20.336 10.5852 20.1769 10.6364Z" fill="#13D16A"/>
<path d="M10.2853 9.42524C10.4313 9.74882 10.8398 9.94492 11.1852 9.86537C11.3628 9.82397 11.5556 9.78257 11.7615 9.74771C12.7377 9.5832 14.2237 9.5004 15.7708 10.0397C17.1403 10.5147 18.6329 10.2739 19.6439 9.98849C20.2017 9.83052 20.6768 9.64312 21.0167 9.49059C21.2226 9.39908 21.3817 9.22476 21.4514 9.01233C21.4677 8.96439 21.483 8.91754 21.4961 8.86634C21.4961 8.86307 21.4961 8.8598 21.4993 8.8598C21.617 8.43492 21.5309 7.98169 21.2684 7.62977C21.142 7.45873 20.9796 7.28114 20.7966 7.16347C20.0427 6.68192 18.9652 6.40301 17.8366 6.39648H17.8115C16.794 6.39648 15.8211 6.6122 15.0737 7.0055C13.8404 7.65156 12.3991 8.08952 10.8965 8.28562C10.3671 8.35534 10.0598 8.91968 10.2821 9.4045C10.2788 9.41213 10.282 9.4187 10.2853 9.42524Z" fill="#13D16A"/>
</svg>
