<svg width="24" height="24" viewBox="0 0 24 24" fill="none" xmlns="http://www.w3.org/2000/svg">
<g clip-path="url(#clip0_1560_2904)">
<path d="M11.9986 0C17.7704 0 23.9972 3.62027 23.9972 11.5642C23.9972 19.5081 17.7704 23.1284 11.9986 23.1284C8.79209 23.1284 5.83381 22.0733 3.64096 20.1494C1.26192 18.0393 0 15.0603 0 11.5642C0 8.06804 1.26192 5.10976 3.64096 2.99966C5.83381 1.07574 8.81278 0 11.9986 0Z" fill="url(#paint0_radial_1560_2904)"/>
<path d="M16.0534 16.1084C16.9202 16.1084 17.7084 15.3761 17.7084 14.1597C17.7084 12.9453 16.9202 12.2109 16.0534 12.2109C15.1866 12.2109 14.3984 12.9433 14.3984 14.1597C14.3984 15.3761 15.1846 16.1084 16.0534 16.1084Z" fill="#422B0D"/>
<path d="M16.1315 15.2967C16.3445 15.4457 16.6652 15.3981 16.8721 15.1002C17.0789 14.8002 17.0107 14.4858 16.7976 14.3368C16.5845 14.1879 16.2639 14.2355 16.057 14.5334C15.8501 14.8313 15.9163 15.1478 16.1315 15.2967Z" fill="#896024"/>
<path d="M8.11397 16.1084C8.98076 16.1084 9.76895 15.3761 9.76895 14.1597C9.76895 12.9453 8.98076 12.2109 8.11397 12.2109C7.24717 12.2109 6.45898 12.9433 6.45898 14.1597C6.45898 15.3761 7.24717 16.1084 8.11397 16.1084Z" fill="#422B0D"/>
<path d="M8.18942 15.2967C8.4025 15.4457 8.72316 15.3981 8.93003 15.1002C9.1369 14.8023 9.06863 14.4858 8.85556 14.3368C8.64248 14.1879 8.32182 14.2355 8.11495 14.5334C7.90808 14.8313 7.97635 15.1478 8.18942 15.2967Z" fill="#896024"/>
<path d="M12.1254 5.62402C14.3369 5.62402 16.087 6.67287 17.0531 7.79205C17.1503 7.90376 17.1731 8.05685 17.111 8.18925C17.049 8.32371 16.9166 8.41267 16.7697 8.41267C16.7035 8.41267 16.6394 8.39405 16.5794 8.36095C15.5843 7.78791 13.9148 7.07627 12.1295 7.07627H12.1006C10.3153 7.07627 8.64579 7.78584 7.65073 8.36095C7.59074 8.39405 7.52661 8.41267 7.46041 8.41267C7.3156 8.41267 7.18113 8.32371 7.11907 8.18925C7.05908 8.05685 7.08183 7.90376 7.17699 7.79205C8.14309 6.6708 9.89323 5.62402 12.1047 5.62402" fill="#422B0D"/>
<path d="M21.9091 4.68945C23.0117 6.46856 23.5868 8.58694 23.5868 10.9432C23.5868 14.4394 22.3249 17.3976 19.9459 19.5078C17.753 21.4317 14.7741 22.5074 11.5882 22.5074C7.8521 22.5074 3.92566 20.9869 1.62109 17.7617C3.84704 21.4151 8.03208 23.128 12.002 23.128C15.1878 23.128 18.1668 22.0523 20.3596 20.1284C22.7387 18.0183 24.0006 15.06 24.0006 11.5638C24.0006 8.92828 23.2827 6.58648 21.9091 4.68945Z" fill="#EB8F00"/>
</g>
<defs>
<radialGradient id="paint0_radial_1560_2904" cx="0" cy="0" r="1" gradientUnits="userSpaceOnUse" gradientTransform="translate(11.9986 11.5642) rotate(180) scale(11.7834 11.7834)">
<stop offset="0.5" stop-color="#FDE030"/>
<stop offset="0.9188" stop-color="#F7C02B"/>
<stop offset="1" stop-color="#F4A223"/>
</radialGradient>
<clipPath id="clip0_1560_2904">
<rect width="24" height="24" fill="white"/>
</clipPath>
</defs>
</svg>
