<svg width="24" height="24" viewBox="0 0 24 24" fill="none" xmlns="http://www.w3.org/2000/svg">
<g clip-path="url(#clip0_1560_3496)">
<path d="M18.9659 1.46151C18.1558 1.3415 17.5518 2.14555 17.0337 3.36163C16.6617 4.23368 14.6176 9.76402 14.6176 9.76402C14.5536 9.94604 14.2496 9.92003 14.2196 9.73002C13.9816 8.18793 13.3515 4.67971 12.9715 2.64558C12.5715 0.509451 11.8434 -0.0585837 11.1094 0.0314218C9.84529 0.187431 10.0173 2.14155 10.1493 3.54164C10.2813 4.94173 10.5873 9.306 11.0234 12.4442C11.1014 13.0022 17.4418 13.6003 17.4418 13.6003C17.4438 12.3622 18.9899 7.06786 19.5639 4.74171C19.9419 3.20162 20.1199 1.63352 18.9659 1.46151Z" fill="#FFCA28"/>
<path d="M10.5114 23.5268C8.73327 23.5208 5.9951 23.1428 4.249 19.9406C3.17893 17.9785 2.84291 15.5143 3.06492 13.3122C3.20893 11.8761 3.67896 10.74 4.56101 10.322C5.81909 9.72595 6.74515 10.522 6.74515 10.522C6.74515 10.522 6.42313 8.53787 7.93522 8.05384C9.87934 7.4298 10.4454 9.47793 10.4454 9.47793L17.2998 12.4021C17.2998 12.4021 17.2978 15.9083 17.0758 17.9605C16.4678 23.6148 12.2895 23.5328 10.5114 23.5268Z" fill="#FFCA28"/>
<path d="M7.74367 12.2776L7.42966 13.0736C7.59767 14.4157 5.99557 15.2778 5.18552 14.7418C5.10151 15.1358 5.01351 15.9258 5.81356 16.9519C6.33959 17.6279 7.44766 18.27 8.2257 18.628C9.15776 19.056 9.8398 19.472 10.0498 20.3021C10.1078 19.118 10.7059 17.97 11.6439 17.2419C11.8979 17.0439 12.1779 16.8759 12.412 16.6559L12.2 16.0058C11.0419 16.3238 9.01175 16.0158 8.51172 14.9258C8.39171 14.6637 8.04169 13.1697 9.27577 13.1377C11.4359 13.0816 13.032 12.1836 13.032 12.1836C11.7279 11.8676 11.2739 11.2955 11.1959 11.1715C11.1399 11.0815 10.5398 11.1195 10.4498 11.1695C10.4498 11.1695 10.3818 11.9776 9.32177 12.3316C8.43372 12.6296 7.87568 12.2936 7.74367 12.2776Z" fill="#FFB300"/>
<path d="M10.5599 12.9863L11.342 12.8523C11.342 9.5701 9.83789 8.54004 9.83789 8.54004C10.2379 9.65211 10.5779 11.3762 10.5599 12.9863Z" fill="#EDA600"/>
<path d="M8.39405 14.7427C8.29604 13.8947 7.84201 11.8525 7.19797 11.0105C6.55394 10.1684 5.80989 10.1484 5.80989 10.1484C7.47799 12.2426 7.558 13.2986 7.576 14.4167C7.586 14.9787 7.46599 15.6748 6.81195 15.8728C6.37992 16.0028 5.81589 16.0628 4.49581 13.5626C4.3318 13.2526 4.09178 13.0826 3.89777 12.9966C3.77976 12.9446 3.65376 13.0566 3.69576 13.1786C4.3538 15.0667 5.28386 16.7048 6.48193 16.7068C6.66194 16.7068 6.84195 16.6348 7.04797 16.6128C8.37605 16.4728 8.39405 14.7427 8.39405 14.7427Z" fill="#EDA600"/>
<path d="M13.8088 9.00506C13.5628 8.055 13.1267 5.95087 12.7907 3.44671C12.5667 1.77261 12.3627 0.990562 12.0027 0.536533C11.6426 0.0825054 11.0766 0.0345024 11.1066 0.0345024C12.5347 -0.223514 13.0747 1.00256 13.3268 2.47665C13.7508 4.96081 14.3848 9.44308 14.5068 9.87111C14.5068 9.86911 14.0888 10.0831 13.8088 9.00506Z" fill="#EDA600"/>
<path d="M19.2977 1.57715C19.7938 2.25719 19.5758 3.48127 19.4097 4.18331C19.2697 4.77335 17.8356 9.53764 17.2936 11.6018C17.1896 11.9938 17.0576 12.4558 17.0336 13.1399C17.0096 13.8259 16.9596 15.314 16.9596 15.314C16.7216 14.798 16.2315 14.1879 15.9075 13.7619C13.6754 10.8737 12.9253 12.5938 9.58714 12.7398C7.07498 12.7578 7.59101 16.2701 10.7432 16.4741C10.7432 16.4741 11.5873 16.5761 11.9153 16.4341C10.2912 17.1301 9.53513 18.9642 9.74115 21.6444C9.87315 22.0264 10.2912 17.9182 12.6153 16.9921C12.7733 16.9281 12.9053 17.2181 13.3334 17.6181C13.4574 17.7341 13.7994 17.9622 14.0134 17.9902C14.2274 18.0182 14.1174 17.7902 14.0874 17.7561C13.7214 17.3381 12.9133 16.012 12.8373 15.85C12.7533 15.668 12.4633 15.53 12.2153 15.58C8.68708 16.3001 8.71108 14.1139 8.86909 13.8159C9.0271 13.5159 9.27912 13.5219 9.61914 13.5079C11.2092 13.4399 12.1613 13.1079 12.7413 12.9258C13.8714 12.4498 15.1575 13.8019 16.0875 15.31C16.3456 15.712 16.6656 16.2981 16.7276 17.7922C16.7876 19.2462 16.0055 23.0305 11.1372 23.3665C8.85909 23.5245 7.69902 23.0025 6.46894 22.3124C5.98891 22.0424 5.58889 21.6724 5.51288 21.6024C5.43688 21.5324 5.39688 21.5504 5.43888 21.6184C5.48088 21.6864 6.85697 23.9925 10.8992 24.0005C13.1994 24.0045 15.0535 23.2325 16.1935 21.7164C16.9896 20.6583 17.4236 19.6743 17.5536 17.8682C17.5956 17.2781 17.7196 14.744 17.7496 13.4819C17.7616 12.9539 17.9457 12.1418 17.9457 12.1418C18.0177 11.6818 19.7018 5.38538 19.7018 5.38538C19.7018 5.38538 19.9698 4.44933 20.0778 3.65528C20.3058 2.02118 19.2977 1.57715 19.2977 1.57715Z" fill="#EDA600"/>
</g>
<defs>
<clipPath id="clip0_1560_3496">
<rect width="24" height="24" fill="white"/>
</clipPath>
</defs>
</svg>
