<svg width="24" height="24" viewBox="0 0 24 24" fill="none" xmlns="http://www.w3.org/2000/svg">
<path d="M16 1.71429C16.4736 1.71429 16.8571 1.33072 16.8571 0.857143C16.8571 0.383561 16.4736 0 16 0H7.42857C6.95499 0 6.57143 0.383561 6.57143 0.857143C6.57143 1.33072 6.95499 1.71429 7.42857 1.71429H8.0007V6H6.57143C5.15392 6 4 7.15392 4 8.57143V18.8571C4 20.0036 4.75963 20.9668 5.79786 21.2968C5.74857 21.4768 5.71429 21.6621 5.71429 21.8571C5.71429 23.0379 6.67643 24 7.85715 24C9.03786 24 10 23.0379 10 21.8571C10 21.7104 9.985 21.5679 9.95607 21.4286H13.4713C13.4435 21.5679 13.4285 21.7103 13.4285 21.8571C13.4285 23.0379 14.3906 24 15.5713 24C16.752 24 17.7142 23.0379 17.7142 21.8571C17.7142 21.6621 17.6799 21.4768 17.6306 21.2968C18.6688 20.9668 19.4285 20.0036 19.4285 18.8571V8.57143C19.4285 7.15392 18.2745 6 16.857 6H15.4278V1.71429H16ZM9.71502 1.71429H13.7157V6H9.71502V1.71429ZM10 17.1429C10 17.6164 9.61647 18 9.14288 18C8.6693 18 8.28574 17.6164 8.28574 17.1429V10.2857C8.28574 9.81213 8.6693 9.42857 9.14288 9.42857C9.61647 9.42857 10 9.81213 10 10.2857V17.1429ZM15.1429 17.1429C15.1429 17.6164 14.7593 18 14.2857 18C13.8122 18 13.4286 17.6164 13.4286 17.1429V10.2857C13.4286 9.81213 13.8122 9.42857 14.2857 9.42857C14.7593 9.42857 15.1429 9.81213 15.1429 10.2857V17.1429Z" fill="#13D16A"/>
</svg>
