<svg width="24" height="24" viewBox="0 0 24 24" fill="none" xmlns="http://www.w3.org/2000/svg">
<path d="M10.9689 13.6619C11.07 11.1343 11.3986 8.27804 12.2328 5.47235C12.258 7.01422 11.6767 10.8562 11.98 15.2543C12.1569 15.5829 12.3086 15.8863 12.4602 16.2148C12.8394 15.3807 13.3449 14.5213 13.9516 13.6619C14.7099 12.6256 15.544 11.7662 16.4034 11.0585C16.4539 10.5782 16.5045 10.0979 16.5045 9.59242C16.555 4.76461 14.1032 1.4534 12.9911 0.189573C12.7636 -0.0631912 12.3844 -0.0631912 12.1822 0.189573C11.0448 1.4534 8.44129 4.84044 8.41602 9.79463C8.41602 10.2243 8.44129 10.6288 8.46657 11.0332C9.35124 11.7409 10.1854 12.6003 10.9689 13.6619Z" fill="#13D16A"/>
<path d="M23.8358 9.23725C23.8105 8.95921 23.5577 8.78227 23.2797 8.83283C21.7126 9.16142 17.6683 10.3241 14.7868 14.2673C13.978 15.3794 13.3966 16.4916 12.9922 17.5785C13.2955 18.4632 13.4977 19.2973 13.6241 20.1061C15.2671 17.7807 17.4661 15.1772 20.2213 13.054C19.286 14.4189 16.177 17.5279 13.801 21.7238C13.8263 21.9513 13.8263 22.1788 13.8263 22.381L13.8516 23.7207C15.7979 23.1899 18.9069 21.8755 21.2576 18.7159C24.1138 14.8992 24.0127 10.8044 23.8358 9.23725Z" fill="#13D16A"/>
<path d="M12.8157 22.4063C12.7652 20.46 12.3355 17.3004 10.1364 14.2673C7.22964 10.3241 3.18541 9.16142 1.61827 8.83283C1.34022 8.78227 1.08746 8.95921 1.06218 9.23725C0.910525 10.8044 0.809419 14.8992 3.64038 18.7159C6.57245 22.6843 10.6925 23.7207 12.2344 23.9987C9.83312 18.6401 5.76361 14.6464 4.65144 13.054C8.39236 15.9355 11.1222 19.6764 12.8157 22.4063Z" fill="#13D16A"/>
</svg>
