<svg width="24" height="24" viewBox="0 0 24 24" fill="none" xmlns="http://www.w3.org/2000/svg">
<path d="M21.9905 6.417C21.3885 5.14636 20.6533 3.94365 19.717 2.87266C18.8812 1.93633 17.7451 1 16.4405 1C15.0693 1 13.9332 1.96896 13.0974 2.93925C12.1284 4.00877 11.3919 5.31338 10.7912 6.61664C10.7573 6.6506 10.7573 6.68325 10.7246 6.7172C11.8607 7.65353 12.8636 8.72305 13.7673 9.89313C14.9714 11.4315 15.9404 13.1356 16.2747 15.0749C16.6756 17.6162 15.9743 20.1902 14.402 22.0954C14.368 22.1293 14.5692 22.1293 14.7024 22.162C17.3429 22.5303 19.9848 21.9948 21.8235 20.0556C25.3009 16.3116 24.0303 10.6286 21.9905 6.417ZM19.6843 8.82375C19.384 7.15221 18.2139 5.31351 16.8088 4.34469C16.2067 3.94378 16.7748 2.94086 17.3768 3.37573C19.0144 4.51184 20.3856 6.55166 20.754 8.52341C20.9211 9.22468 19.8175 9.52501 19.6843 8.82375Z" fill="#13D16A"/>
<path d="M14.8067 14.1061C14.2713 12.4006 13.1691 10.9302 11.9651 9.59295C11.5968 9.15808 11.1633 8.75718 10.761 8.35628C9.6915 7.31939 8.48746 6.41702 7.18426 5.68181C5.67987 4.84604 3.50687 4.01027 2.00248 5.28091C0.598652 6.48495 0.19775 8.69052 0.0632239 10.4286C-0.10393 12.4684 0.0632237 14.5733 0.53072 16.5792C0.931623 18.2507 1.56761 19.8883 2.73769 21.1589C4.8441 23.499 8.25377 24.4354 11.1619 23.0981C12.332 22.5301 13.2683 21.6603 13.9369 20.6574C15.1749 18.8187 15.5092 16.3779 14.8067 14.1056V14.1061ZM11.4308 14.2393C10.8628 12.5338 9.42499 11.13 7.9206 10.2276C7.28595 9.85934 7.854 8.89038 8.48866 9.25865C9.79193 10.0278 10.996 11.1639 11.8317 12.4685C12.1321 12.936 12.3672 13.4375 12.5343 13.939C12.6009 14.1727 12.5343 14.3738 12.3672 14.507C12.0655 14.7408 11.5641 14.6742 11.4308 14.2393Z" fill="#13D16A"/>
</svg>
