<svg width="24" height="24" viewBox="0 0 24 24" fill="none" xmlns="http://www.w3.org/2000/svg">
<g clip-path="url(#clip0_1560_3101)">
<path d="M12 23.131C6.22759 23.131 0 19.5103 0 11.5655C0 3.62069 6.22759 0 12 0C15.2069 0 18.1655 1.05517 20.3586 2.97931C22.7379 5.08966 24 8.06897 24 11.5655C24 15.0621 22.7379 18.0207 20.3586 20.131C18.1655 22.0552 15.1862 23.131 12 23.131Z" fill="url(#paint0_radial_1560_3101)"/>
<path d="M4.05191 13.1526C4.40157 13.9326 4.86295 14.6609 5.4195 15.3105C5.96985 15.9519 6.60916 16.5085 7.31881 16.9657C8.02433 17.425 8.78984 17.7829 9.59467 18.0271C11.2167 18.5009 12.9381 18.5009 14.5602 18.0271C15.365 17.7829 16.1305 17.425 16.8361 16.9657C17.554 16.5105 18.2036 15.9519 18.7602 15.3105C19.3167 14.6629 19.7761 13.9409 20.1278 13.1629C20.2519 12.9374 20.5333 12.8547 20.7588 12.9788C20.945 13.0823 21.0402 13.2974 20.9864 13.5043C20.6533 14.3981 20.1836 15.236 19.5961 15.9871C17.7836 18.2878 15.0174 19.6305 12.0898 19.6305C9.16019 19.6285 6.39398 18.2857 4.58364 15.9829C3.99605 15.2319 3.5264 14.394 3.19329 13.5002C3.09605 13.2643 3.20778 12.9912 3.44364 12.894C3.6795 12.7967 3.9526 12.9085 4.04985 13.1443L4.05191 13.1526Z" fill="#422B0D"/>
<path d="M21.9153 4.68994C23.0181 6.46925 23.5933 8.58787 23.5933 10.9444C23.5933 14.441 22.3312 17.3996 19.9519 19.5099C17.7588 21.4341 14.7795 22.5099 11.5933 22.5099C7.85672 22.5099 3.9381 20.9893 1.625 17.7637C3.85121 21.4175 8.03879 23.1306 12.0071 23.1306C15.1933 23.1306 18.1726 22.0548 20.3657 20.1306C22.745 18.0203 24.0071 15.0617 24.0071 11.5651C24.0071 8.92925 23.2891 6.58718 21.9153 4.68994Z" fill="#EB8F00"/>
<path d="M9.22355 10.16L9.19251 10.1145L9.14907 10.0586C9.13251 10.0359 9.11596 10.0172 9.09527 9.99862L8.967 9.87035C8.91527 9.81862 8.8532 9.76276 8.78907 9.7069C8.65251 9.58897 8.49941 9.4938 8.33389 9.41931C8.17251 9.3469 7.99665 9.31173 7.82079 9.31173H7.74424C7.72355 9.30759 7.70493 9.30759 7.68424 9.31173C7.647 9.31587 7.60975 9.32207 7.57251 9.33035C7.48562 9.35104 7.40286 9.37793 7.3201 9.41104C7.15458 9.48552 7.00148 9.58069 6.86493 9.69862C6.7532 9.7938 6.64976 9.89518 6.55251 10.0028L6.43458 10.1352L6.37251 10.2055C6.12631 10.4952 5.69182 10.5324 5.40217 10.2862C5.18079 10.0979 5.1001 9.79173 5.20148 9.51862L5.22424 9.45242C5.24493 9.38828 5.26975 9.32621 5.29665 9.26414C5.39596 9.03862 5.52217 8.82759 5.67527 8.63518C6.03734 8.15724 6.54631 7.80966 7.12355 7.64414C7.24148 7.61311 7.36148 7.59035 7.48355 7.5738C7.54562 7.5738 7.63665 7.55518 7.66355 7.55518H7.82079C8.05665 7.55931 8.29044 7.59242 8.51803 7.65242C8.73527 7.71242 8.94424 7.79931 9.13872 7.91104C9.45941 8.09724 9.74079 8.34759 9.96631 8.64345C10.0532 8.75518 10.1318 8.87104 10.2001 8.99518C10.256 9.09242 10.3056 9.19173 10.3491 9.29311C10.3656 9.32621 10.3801 9.36138 10.3904 9.39656C10.3904 9.42345 10.407 9.44621 10.4132 9.46483L10.4339 9.51862C10.5518 9.88483 10.3511 10.2779 9.98493 10.3959C9.70769 10.4828 9.40355 10.3876 9.22355 10.16Z" fill="#422B0D"/>
<path d="M18.1934 10.1595L18.1562 10.114L18.1127 10.0581C18.0962 10.0354 18.0796 10.0167 18.0589 9.99811L17.9307 9.86983C17.8789 9.81811 17.8169 9.76225 17.7527 9.70639C17.6162 9.58846 17.4631 9.49328 17.2975 9.4188C17.1382 9.34846 16.9644 9.31121 16.7907 9.31121H16.7058C16.6851 9.30708 16.6665 9.30708 16.6458 9.31121C16.6086 9.31535 16.5713 9.32156 16.5341 9.32983C16.4472 9.35052 16.3644 9.37742 16.2817 9.41052C16.1141 9.48708 15.9569 9.58639 15.8182 9.70639C15.7065 9.80156 15.6031 9.90294 15.5038 10.0105L15.4044 10.1388L15.3424 10.2091C15.1107 10.5112 14.6782 10.5671 14.3762 10.3333C14.1279 10.1429 14.0389 9.80777 14.1631 9.51811L14.1858 9.4519C14.2065 9.38777 14.2313 9.3257 14.2582 9.26363C14.3555 9.03604 14.4838 8.82294 14.6348 8.62639C14.9969 8.14846 15.5058 7.80087 16.0831 7.63535C16.201 7.60432 16.321 7.58156 16.4431 7.56501C16.5051 7.56501 16.5941 7.54639 16.6231 7.54639H16.7803C17.0162 7.55052 17.25 7.58363 17.4775 7.64363C17.6948 7.70363 17.9038 7.79052 18.0982 7.90225C18.4189 8.08846 18.7003 8.3388 18.9258 8.63466C19.0127 8.74639 19.0913 8.86225 19.1596 8.98639C19.2155 9.08363 19.2651 9.18294 19.3086 9.28432C19.3251 9.31742 19.3396 9.35259 19.35 9.38777L19.3727 9.45604L19.3913 9.5119C19.5093 9.87811 19.3086 10.2691 18.9424 10.3871C18.6672 10.476 18.3672 10.385 18.1872 10.1595H18.1934Z" fill="#422B0D"/>
<path d="M16.7774 17.0218C16.6056 17.1294 16.4318 17.2287 16.2539 17.328C16.4608 17.2163 16.6677 17.0984 16.858 16.9722L16.7774 17.0218Z" fill="#FF4081"/>
<path d="M14.1602 18.1399C14.2988 18.1068 14.4374 18.0717 14.5739 18.0303C14.4415 18.0737 14.3029 18.1048 14.1602 18.1399Z" fill="#FF4081"/>
<path d="M14.5742 18.0331C14.7666 17.9773 14.9528 17.9131 15.139 17.8428C14.957 17.9131 14.7811 17.9773 14.5742 18.0331Z" fill="#FF4081"/>
<path d="M17.9291 16.1577C17.8029 16.2694 17.6726 16.377 17.5381 16.4784C17.4719 16.5322 17.4036 16.5819 17.3312 16.6336C17.176 16.7515 17.0188 16.8653 16.8574 16.9708C17.0643 16.8405 17.2505 16.6998 17.4409 16.557C17.6312 16.4143 17.774 16.2963 17.9291 16.1577Z" fill="#FF4081"/>
<path opacity="0.3" d="M18.3292 15.7676C18.3147 15.7821 18.3023 15.7965 18.2879 15.809C18.172 15.931 18.0499 16.0469 17.9258 16.1586C18.0561 16.0428 18.1823 15.9228 18.3023 15.7965L18.3292 15.7676Z" fill="#AB3F2E"/>
<path d="M12.9863 18.3389L13.7539 19.154L13.8284 19.2306L12.9863 18.3389Z" fill="#FF4081"/>
<path opacity="0.3" d="M13.832 19.231L14.0162 19.4296L14.0182 19.4275V19.4254L13.832 19.231Z" fill="#AB3F2E"/>
<path d="M21.5264 16.9888L20.0782 15.4743L20.0202 15.4143L19.4657 14.835L19.3023 14.6633L19.2816 14.6426C19.1182 14.8743 18.9444 15.0978 18.7582 15.3109C18.2078 15.9522 17.5685 16.5088 16.8589 16.966C16.1533 17.4253 15.3878 17.7833 14.583 18.0274C14.0657 18.1805 13.534 18.2819 12.9961 18.3336L13.8299 19.2419L14.0161 19.4364L14.1651 19.5915L14.2499 19.6805L16.3892 21.915C17.6285 23.2102 19.683 23.2557 20.9782 22.0164L21.4251 21.5881C22.7223 20.3488 22.772 18.2943 21.5326 16.995C21.5306 16.9929 21.5285 16.9909 21.5264 16.9888Z" fill="#FF4081"/>
<path d="M18.6426 18.5439L17.0267 16.8535C16.9709 16.8928 16.9171 16.9342 16.8612 16.9714C16.6895 17.0811 16.5157 17.1783 16.3398 17.2839L18.0695 19.0921C18.1419 19.1687 18.2412 19.2121 18.3467 19.2142C18.4523 19.2183 18.5536 19.179 18.6302 19.1045C18.7874 18.9556 18.7957 18.7073 18.6467 18.548C18.6467 18.548 18.6447 18.5459 18.6426 18.5439Z" fill="#E62B6B"/>
<path opacity="0.3" d="M19.4554 14.8262L19.292 14.6545L19.2713 14.6338C19.112 14.8676 18.9402 15.0931 18.7582 15.3103C18.2078 15.9517 17.5685 16.5083 16.8589 16.9655C16.1533 17.4248 15.3878 17.7828 14.583 18.0269C14.0657 18.18 13.534 18.2814 12.9961 18.3331L13.8299 19.2414L14.0161 19.4359C17.8664 18.0393 19.2009 15.4572 19.4554 14.8262Z" fill="#AB3F2E"/>
</g>
<defs>
<radialGradient id="paint0_radial_1560_3101" cx="0" cy="0" r="1" gradientUnits="userSpaceOnUse" gradientTransform="translate(12 11.5655) scale(11.7848 11.7848)">
<stop offset="0.5" stop-color="#FDE030"/>
<stop offset="0.92" stop-color="#F7C02B"/>
<stop offset="1" stop-color="#F4A223"/>
</radialGradient>
<clipPath id="clip0_1560_3101">
<rect width="24" height="24" fill="white"/>
</clipPath>
</defs>
</svg>
