<svg width="24" height="24" viewBox="0 0 24 24" fill="none" xmlns="http://www.w3.org/2000/svg">
<g clip-path="url(#clip0_1910_2532)">
<path d="M16.6737 14.972C16.4393 14.5463 16.6362 13.9932 17.2475 13.577C19.2593 12.2063 17.4818 9.87383 17.1575 8.96445C17.1631 8.9532 16.9962 8.6157 17.0018 8.60445L16.6643 8.58758C16.5575 8.57258 13.8256 8.34758 10.1318 8.3457C6.43621 8.3457 3.62558 8.5707 3.51683 8.58758C3.51683 8.58758 3.01996 8.9532 3.02371 8.96445C2.83433 9.7257 1.19371 11.5838 3.01433 13.577C3.51308 14.1226 3.82058 14.5463 3.58808 14.972C3.36121 15.3863 2.68621 15.4463 2.68621 15.4463C2.68621 15.4463 2.84183 15.8701 3.21683 16.0988C3.56371 16.3107 3.99121 16.3595 4.28558 16.367C4.28558 16.367 5.43871 17.9626 8.45371 17.9626H10.1318H11.81C14.825 17.9626 15.9781 16.367 15.9781 16.367C16.2725 16.3595 16.7 16.3107 17.0468 16.0988C17.4218 15.8701 17.5775 15.4463 17.5775 15.4463C17.5775 15.4463 16.9006 15.3863 16.6737 14.972Z" fill="#543930"/>
<path d="M10.1328 17.9613V16.1913L15.4897 15.7676L15.9772 16.3676C15.9772 16.3676 14.8241 17.9632 11.8091 17.9632L10.1328 17.9613Z" fill="url(#paint0_radial_1910_2532)"/>
<path d="M15.9657 15.5933C15.1632 14.3746 16.9426 13.9189 16.9426 13.9189L16.9445 13.9208C16.6351 14.3052 16.4945 14.6408 16.6764 14.9727C16.9032 15.3871 17.5782 15.4471 17.5782 15.4471C17.5782 15.4471 16.6595 16.2646 15.9657 15.5933Z" fill="url(#paint1_radial_1910_2532)"/>
<path d="M17.1642 8.96512C17.1661 9.72637 19.1948 11.172 17.2992 13.5307C17.1998 13.6545 16.7348 14.0951 16.6298 14.4532C16.6298 14.4532 14.8411 11.9576 14.3067 10.4914C14.1998 10.1951 14.1005 9.89137 14.0873 9.57637C14.078 9.34012 14.1136 9.05887 14.2505 8.85825C14.4173 8.61262 17.0705 8.757 17.0705 8.757C17.0686 8.76075 17.1642 8.96512 17.1642 8.96512Z" fill="url(#paint2_radial_1910_2532)"/>
<path d="M3.02654 8.96476C2.83717 9.72601 1.21717 11.5616 2.97404 13.5304C3.07904 13.6485 3.53842 14.0948 3.64342 14.4529C3.64342 14.4529 5.43217 11.9573 5.96654 10.491C6.07529 10.1948 6.17279 9.89101 6.18592 9.57601C6.19529 9.33976 6.15967 9.05851 6.02279 8.85788C5.85592 8.61226 5.66092 8.67788 5.37779 8.67788C4.83779 8.67788 3.35467 8.75663 3.17092 8.75663C3.17092 8.76038 3.02654 8.96476 3.02654 8.96476Z" fill="url(#paint3_radial_1910_2532)"/>
<path d="M10.1413 17.9613V16.1913L4.78438 15.7676L4.29688 16.3676C4.29688 16.3676 5.45 17.9632 8.465 17.9632L10.1413 17.9613Z" fill="url(#paint4_radial_1910_2532)"/>
<path d="M4.30781 15.5933C5.11031 14.3746 3.33094 13.9189 3.33094 13.9189L3.32906 13.9208C3.63844 14.3052 3.77906 14.6408 3.59719 14.9727C3.37031 15.3871 2.69531 15.4471 2.69531 15.4471C2.69531 15.4471 3.61406 16.2646 4.30781 15.5933Z" fill="url(#paint5_radial_1910_2532)"/>
<path d="M19.3183 22.6066C19.3183 20.3528 16.6389 18.8697 13.277 18.3503V17.7428C13.1645 17.7428 11.6252 18.0597 11.6252 18.0597H8.70766L7.03141 17.7109L7.03328 18.4216C3.72766 18.9278 1.03516 20.2759 1.03516 22.6066V23.2497H19.3164V22.6066H19.3183Z" fill="url(#paint6_radial_1910_2532)"/>
<path d="M10.1713 16.7021H8.46875V18.0184C8.46875 18.0184 9.96688 18.1909 9.96688 20.1071H10.4731C10.5294 17.9996 11.8756 17.9996 11.8756 17.9996V16.704L10.1713 16.7021Z" fill="#E59600"/>
<path d="M10.1123 20.2617C10.1048 20.1942 10.0542 19.658 10.0448 19.5698C9.94359 18.6586 9.42609 18.1017 8.80547 17.9611L6.97734 17.4961C6.85922 17.4961 6.76172 17.6198 6.76172 17.7717L7.04297 20.0011L9.58734 20.6705L10.1123 20.2617Z" fill="#F8F8F7"/>
<path d="M8.35531 22.8317C8.59038 22.8317 8.78094 22.6412 8.78094 22.4061C8.78094 22.171 8.59038 21.9805 8.35531 21.9805C8.12025 21.9805 7.92969 22.171 7.92969 22.4061C7.92969 22.6412 8.12025 22.8317 8.35531 22.8317Z" fill="#9E9E9E"/>
<path d="M13.3163 22.8317C13.5513 22.8317 13.7419 22.6412 13.7419 22.4061C13.7419 22.171 13.5513 21.9805 13.3163 21.9805C13.0812 21.9805 12.8906 22.171 12.8906 22.4061C12.8906 22.6412 13.0812 22.8317 13.3163 22.8317Z" fill="#9E9E9E"/>
<path d="M10.1992 20.2539C10.2067 20.1864 10.2573 19.6502 10.2667 19.562C10.368 18.6508 10.8855 18.0939 11.5061 17.9533L13.3342 17.4883C13.4523 17.4883 13.548 17.612 13.548 17.7639L13.2667 19.9933L10.7223 20.6627L10.1992 20.2539Z" fill="#F8F8F7"/>
<path d="M10.5197 19.568C10.1091 19.553 9.35719 19.4142 8.55469 19.5642C6.49781 19.9523 5.26406 21.5255 5.53781 22.8867C5.56406 23.0142 5.60719 23.1342 5.65969 23.2505H6.72281L6.94969 21.3886C7.21219 21.1036 10.5422 20.3123 10.5422 20.3123L10.5197 19.568Z" fill="url(#paint7_radial_1910_2532)"/>
<path d="M10.2664 19.5619C10.257 19.6425 10.2308 19.935 10.2214 20.0269L10.2383 20.2031L7.23266 21.0637C6.92703 21.1762 6.72266 21.4669 6.72266 21.7931V23.25H6.91578C6.91578 23.25 7.13891 21.8887 7.17266 21.7069C7.20641 21.525 7.35078 21.4931 7.43516 21.4612L10.7108 20.4806C10.7108 18.1144 11.5077 17.9531 11.5077 17.9531C10.8852 18.0938 10.3677 18.6506 10.2664 19.5619Z" fill="url(#paint8_linear_1910_2532)"/>
<path d="M15.2394 9.46484H13.8575H6.37438H4.9925C3.88813 9.46484 2.98438 10.4267 2.98438 11.6042C2.98438 12.7817 3.88813 13.7436 4.9925 13.7436H6.37438H13.8575H15.2394C16.3438 13.7436 17.2475 12.7798 17.2475 11.6042C17.2475 10.4286 16.3438 9.46484 15.2394 9.46484Z" fill="#E59600"/>
<path d="M10.1131 2.08301C6.85062 2.08301 3.82812 5.57238 3.82812 10.5955C3.82812 15.5905 6.9425 18.0599 10.1131 18.0599C13.2837 18.0599 16.3981 15.5905 16.3981 10.5955C16.3981 5.57238 13.3775 2.08301 10.1131 2.08301Z" fill="#FFCA28"/>
<path d="M3.03828 8.97707C3.11516 9.7252 3.62516 9.83957 3.62516 9.83957C3.53891 11.3414 3.81828 12.2658 3.96641 12.6408C3.99266 12.7064 4.08453 12.7008 4.10141 12.6333C4.28703 11.8889 4.91891 9.29582 4.85703 8.84395C4.85703 8.84395 6.98328 8.42207 9.01391 6.9277C9.42641 6.62395 9.87453 6.3652 10.3508 6.17582C12.8989 5.16145 13.4314 6.89207 13.4314 6.89207C13.4314 6.89207 15.1977 6.5527 15.7302 9.0052C15.9308 9.92394 16.0658 11.3958 16.1802 12.4252C16.1877 12.4983 16.287 12.5133 16.3152 12.4458C16.4933 12.0371 16.8495 11.2271 16.9339 10.4002C16.9639 10.1096 17.3633 9.7252 17.1439 8.88332C16.8945 7.92145 15.8877 3.34082 10.092 3.34082C4.29641 3.34082 2.91828 7.80145 3.03828 8.97707Z" fill="#543930"/>
<path d="M7.19391 11.9926C7.70442 11.9926 8.11828 11.5645 8.11828 11.0363C8.11828 10.5082 7.70442 10.0801 7.19391 10.0801C6.68339 10.0801 6.26953 10.5082 6.26953 11.0363C6.26953 11.5645 6.68339 11.9926 7.19391 11.9926Z" fill="#404040"/>
<path d="M13.0338 11.9926C13.5443 11.9926 13.9581 11.5645 13.9581 11.0363C13.9581 10.5082 13.5443 10.0801 13.0338 10.0801C12.5232 10.0801 12.1094 10.5082 12.1094 11.0363C12.1094 11.5645 12.5232 11.9926 13.0338 11.9926Z" fill="#404040"/>
<path d="M11.7123 14.2852C11.1142 14.6396 9.15665 14.6396 8.5604 14.2852C8.21728 14.0809 7.86665 14.394 8.00915 14.7052C8.14978 15.0109 9.21665 15.7215 10.141 15.7215C11.0654 15.7215 12.1192 15.0109 12.2598 14.7052C12.4023 14.3921 12.0554 14.0809 11.7123 14.2852Z" fill="#795548"/>
<path d="M8.56719 9.34172C8.39282 9.11109 7.99157 8.77734 7.21157 8.77734C6.43157 8.77734 6.02844 9.11297 5.85594 9.34172C5.77907 9.44297 5.79782 9.56109 5.85219 9.63234C5.90094 9.69797 6.04719 9.75984 6.20844 9.70547C6.36969 9.65109 6.68469 9.48797 7.21157 9.48422C7.73844 9.48797 8.05344 9.65109 8.21469 9.70547C8.37594 9.75984 8.52219 9.69984 8.57094 9.63234C8.62344 9.56109 8.64407 9.44297 8.56719 9.34172Z" fill="#6D4C41"/>
<path d="M14.3758 9.34172C14.2014 9.11109 13.8002 8.77734 13.0202 8.77734C12.2402 8.77734 11.837 9.11297 11.6645 9.34172C11.5877 9.44297 11.6064 9.56109 11.6608 9.63234C11.7095 9.69797 11.8558 9.75984 12.017 9.70547C12.1783 9.65109 12.4933 9.48797 13.0202 9.48422C13.547 9.48797 13.862 9.65109 14.0233 9.70547C14.1845 9.75984 14.3308 9.69984 14.3795 9.63234C14.4339 9.56109 14.4527 9.44297 14.3758 9.34172Z" fill="#6D4C41"/>
<path d="M10.8355 12.7689C10.8149 12.7614 10.7962 12.7558 10.7755 12.7539H9.44805C9.42742 12.7558 9.4068 12.7614 9.38805 12.7689C9.26805 12.8177 9.20242 12.9414 9.25867 13.0745C9.31492 13.2077 9.5793 13.5789 10.1118 13.5789C10.6443 13.5789 10.9087 13.2058 10.9649 13.0745C11.023 12.9433 10.9555 12.8177 10.8355 12.7689Z" fill="#E59600"/>
<path d="M19.9857 10.0533C18.0638 9.89955 16.3801 11.332 16.2263 13.2539C16.0857 14.9939 17.2501 16.5352 18.8982 16.9252L18.6638 18.7589C18.6657 18.7589 19.9895 18.9089 20.0063 18.9127L20.1582 16.9945C21.7595 16.7864 23.0532 15.4852 23.1863 13.8127C23.3401 11.8908 21.9076 10.207 19.9857 10.0533Z" fill="url(#paint9_linear_1910_2532)"/>
<path d="M19.7398 16.6125C21.3242 16.6125 22.6086 15.3281 22.6086 13.7438C22.6086 12.1594 21.3242 10.875 19.7398 10.875C18.1555 10.875 16.8711 12.1594 16.8711 13.7438C16.8711 15.3281 18.1555 16.6125 19.7398 16.6125Z" fill="url(#paint10_linear_1910_2532)"/>
<path d="M21.7708 13.4976C22.1646 14.8982 21.1539 16.3588 19.8189 15.4795C18.4839 14.6001 17.3046 14.8213 17.7283 13.567C18.1521 12.3126 18.4858 11.2101 19.4702 11.4332C20.4564 11.6545 21.3771 12.097 21.7708 13.4976Z" fill="white"/>
<path d="M19.7019 14.4311C20.2362 14.4311 20.6694 13.9979 20.6694 13.4636C20.6694 12.9293 20.2362 12.4961 19.7019 12.4961C19.1675 12.4961 18.7344 12.9293 18.7344 13.4636C18.7344 13.9979 19.1675 14.4311 19.7019 14.4311Z" fill="url(#paint11_linear_1910_2532)"/>
<path d="M21.7724 13.498C21.958 14.0455 21.9412 14.6887 21.6299 15.2137C21.478 15.4743 21.2305 15.6955 20.9268 15.7874C20.623 15.8812 20.2949 15.8249 20.0174 15.6993C19.7418 15.5512 19.5205 15.3937 19.2618 15.2643C19.0087 15.1312 18.7424 15.0243 18.478 14.9062C18.2174 14.7862 17.9287 14.6755 17.7299 14.4299C17.6418 14.3005 17.608 14.143 17.6193 13.9949C17.6268 13.9218 17.6418 13.8487 17.6568 13.7774L17.7299 13.5712L17.6849 13.783C17.6774 13.8543 17.668 13.9255 17.668 13.9968C17.6718 14.1374 17.7168 14.2724 17.8012 14.3755C17.9849 14.5762 18.2643 14.6737 18.5324 14.7749C18.8043 14.8743 19.0762 14.9812 19.3424 15.1087C19.6049 15.2343 19.8618 15.4105 20.098 15.5324C20.3455 15.6468 20.6212 15.6937 20.878 15.6205C21.1349 15.553 21.3543 15.3674 21.5099 15.1405C21.6655 14.9118 21.7593 14.638 21.7987 14.3568C21.8418 14.0737 21.8268 13.783 21.7724 13.498Z" fill="#F7CB4D"/>
<path d="M18.6016 19.0533C18.6016 18.9839 18.8997 16.9251 18.8997 16.9251L18.9391 16.9045C19.3028 16.7226 19.7341 16.7376 20.0828 16.9476L20.1578 16.9926L20.0059 19.2164L18.6016 19.0533Z" fill="#757575"/>
<path d="M17.7709 2.71883C15.9615 1.51883 13.1809 0.751953 10.1115 0.751953C7.04215 0.751953 4.2184 1.51883 2.40903 2.71883C1.2709 3.47258 0.785277 4.55445 1.05903 5.56508C1.26528 6.31695 2.97903 7.54133 2.97903 7.54133C5.07153 8.52383 5.27028 6.84945 10.089 6.84383C14.9078 6.84945 15.1065 8.52383 17.199 7.54133C17.199 7.54133 18.9147 6.31695 19.119 5.5632C19.3928 4.55445 18.909 3.47258 17.7709 2.71883Z" fill="url(#paint12_radial_1910_2532)"/>
<path d="M3.03281 8.97746L2.83594 7.43621C2.83594 7.43621 4.13531 5.31934 10.1972 5.31934C16.2591 5.31934 17.3597 7.42309 17.3597 7.42309L17.1422 8.88184C12.5128 7.85809 7.64906 7.95371 3.03281 8.97746Z" fill="url(#paint13_radial_1910_2532)"/>
<path d="M5.92273 1.97461C5.92273 1.97461 6.40085 3.80086 7.55398 5.50336C5.42585 5.43586 4.99648 3.14086 5.92273 1.97461Z" fill="url(#paint14_linear_1910_2532)"/>
<path d="M3.18586 2.92285C3.28711 3.89223 3.20461 4.8916 4.95586 6.09723C2.58024 6.81348 1.59586 4.57848 3.18586 2.92285Z" fill="url(#paint15_linear_1910_2532)"/>
<path d="M14.3422 1.97461C14.3422 1.97461 13.8641 3.80086 12.7109 5.50336C14.8391 5.43586 15.2684 3.14086 14.3422 1.97461Z" fill="url(#paint16_linear_1910_2532)"/>
<path d="M17.0825 2.92285C16.9813 3.89223 17.0638 4.8916 15.3125 6.09723C17.6881 6.81348 18.6725 4.57848 17.0825 2.92285Z" fill="url(#paint17_linear_1910_2532)"/>
<path d="M10.1328 1.39355C10.4047 1.71793 10.5453 2.0423 10.6466 2.36668C10.7459 2.69105 10.7872 3.01543 10.7891 3.3398C10.7891 3.66418 10.7478 3.98855 10.6484 4.31293C10.5472 4.6373 10.4066 4.96168 10.1328 5.28605C9.85906 4.96168 9.71844 4.6373 9.61719 4.31293C9.51781 3.98855 9.47656 3.66418 9.47656 3.3398C9.47844 3.01543 9.51969 2.69105 9.61906 2.36668C9.71844 2.0423 9.85906 1.71793 10.1328 1.39355Z" fill="url(#paint18_linear_1910_2532)"/>
<path d="M18.1801 19.2018C17.9719 19.2336 17.7694 19.2843 17.5801 19.3686C17.3063 19.4886 16.0051 19.093 15.9113 20.3493C15.9001 20.6961 15.8569 21.7911 16.1457 22.3311C16.7494 23.458 19.0632 23.2049 19.2376 23.2349C20.3382 23.4168 19.8807 19.8693 19.2638 19.4118C19.1869 19.3611 19.0613 19.2955 18.9507 19.2336C18.7351 19.1155 18.3957 19.1699 18.1801 19.2018Z" fill="url(#paint19_radial_1910_2532)"/>
<path d="M19.6925 22.4853L18.4475 22.4459C18.2881 22.4365 18.155 22.5434 18.1269 22.6915C18.0931 22.8528 18.2112 23.0065 18.3819 23.0403L19.6119 23.2353C19.8087 23.2709 19.9981 23.1434 20.0206 22.9521L20.0319 22.8546C20.0506 22.6596 19.8969 22.4909 19.6925 22.4853Z" fill="url(#paint20_radial_1910_2532)"/>
<path d="M18.107 19.7344C18.0752 19.7344 16.2227 21.2606 16.2227 21.2606C16.2227 21.2606 16.2639 22.0069 16.9802 22.6163C17.1827 22.7869 17.7658 23.0306 18.0395 23.04C19.9108 23.1094 19.6802 19.7269 18.107 19.7344Z" fill="url(#paint21_radial_1910_2532)"/>
<path d="M15.9038 21.1762C15.9038 21.1762 16.1606 21.3787 16.5431 21.5343C17.7056 22.0087 17.8631 20.5818 17.8913 20.3605C18.0431 19.2262 19.0463 19.4887 19.8975 19.4418C20.0738 19.4324 20.6794 19.3462 20.8481 18.9487C21.0263 18.2868 20.3456 18.2887 18.9113 18.1874C18.5213 18.1593 18.1313 18.163 17.7431 18.2137C15.8906 18.4518 15.8475 20.323 15.9038 21.1762Z" fill="url(#paint22_radial_1910_2532)"/>
<path d="M20.102 20.4695L18.3207 20.6026C18.0807 20.6176 18.0751 20.7995 18.0601 21.0264C18.0395 21.272 18.0676 21.4839 18.3282 21.5026L20.117 21.6057C20.4188 21.6245 20.6776 21.3976 20.6776 21.107V20.9589C20.6701 20.6645 20.4095 20.4395 20.102 20.4695Z" fill="url(#paint23_radial_1910_2532)"/>
<path d="M20.086 19.4193L18.556 19.6181C18.3272 19.6443 18.1641 19.8281 18.1604 20.0456C18.1529 20.2818 18.3591 20.4731 18.6085 20.4787L20.1554 20.5068C20.4441 20.5106 20.6822 20.2799 20.6672 20.0024L20.6597 19.8618C20.6391 19.5787 20.3785 19.3743 20.086 19.4193Z" fill="url(#paint24_radial_1910_2532)"/>
<path d="M19.9273 21.5478L18.5155 21.6116C18.3055 21.6172 18.1405 21.771 18.1198 21.9678C18.0936 22.1816 18.2661 22.3747 18.493 22.3991L19.9011 22.5416C20.1636 22.5678 20.3998 22.3766 20.4073 22.1235L20.4111 21.9941C20.4167 21.7372 20.1973 21.531 19.9273 21.5478Z" fill="url(#paint25_radial_1910_2532)"/>
<path d="M20.1671 21.6073C20.1896 21.4067 18.5715 21.5961 18.3746 21.4292C18.1496 21.2379 18.1777 20.8686 18.4571 20.7467C18.7721 20.6079 20.3002 20.5686 20.2984 20.4823C20.2984 20.3229 18.2377 20.7073 18.2959 20.0567C18.3352 19.6161 18.7609 19.6198 19.0759 19.5673C19.2634 19.5354 20.0865 19.4811 20.0865 19.4229C20.0865 19.3648 19.884 19.3817 19.8615 19.3798C19.7115 19.3648 18.7459 19.4098 18.4927 19.4867C18.1609 19.5879 17.8909 19.8823 17.9846 20.2573C17.9996 20.3211 18.0277 20.3773 18.0615 20.4317C18.1271 20.5329 17.979 20.8086 17.9602 20.9511C17.9134 21.3186 18.114 21.5154 18.1102 21.6486C18.1084 21.7498 18.009 21.8211 17.9809 21.9767C17.9509 22.1492 18.0952 22.3442 18.0596 22.5486C18.0465 22.6179 18.0409 22.6742 18.054 22.7454C18.0746 22.8523 18.129 22.9461 18.2059 23.0229C18.384 23.2029 18.6296 23.2254 18.8696 23.2386C19.0309 23.2479 19.6927 23.2873 19.8427 23.2029C19.4884 23.1954 18.414 23.1692 18.2696 22.7642C18.2602 22.4886 18.5546 22.5711 18.7384 22.5898C18.9465 22.6104 19.3365 22.6198 19.5465 22.6011C19.6046 22.5954 19.8484 22.5692 19.8484 22.5261C19.8484 22.4604 19.2709 22.4811 19.1996 22.4773C18.9409 22.4661 18.3952 22.5036 18.279 22.1942C18.2359 22.0817 18.2546 21.9411 18.3315 21.8454C18.5152 21.6111 20.154 21.7104 20.1671 21.6073Z" fill="#EDA600"/>
</g>
<defs>
<radialGradient id="paint0_radial_1910_2532" cx="0" cy="0" r="1" gradientUnits="userSpaceOnUse" gradientTransform="translate(12.8699 15.4038) scale(4.39106 2.15689)">
<stop offset="0.7275" stop-color="#6D4C41" stop-opacity="0"/>
<stop offset="1" stop-color="#6D4C41"/>
</radialGradient>
<radialGradient id="paint1_radial_1910_2532" cx="0" cy="0" r="1" gradientUnits="userSpaceOnUse" gradientTransform="translate(17.1951 14.7505) rotate(154.924) scale(1.2976 0.962637)">
<stop offset="0.6628" stop-color="#6D4C41"/>
<stop offset="1" stop-color="#6D4C41" stop-opacity="0"/>
</radialGradient>
<radialGradient id="paint2_radial_1910_2532" cx="0" cy="0" r="1" gradientUnits="userSpaceOnUse" gradientTransform="translate(13.8503 11.1803) rotate(-94.2783) scale(5.52939 4.60839)">
<stop offset="0.7247" stop-color="#6D4C41" stop-opacity="0"/>
<stop offset="1" stop-color="#6D4C41"/>
</radialGradient>
<radialGradient id="paint3_radial_1910_2532" cx="0" cy="0" r="1" gradientUnits="userSpaceOnUse" gradientTransform="translate(6.42171 11.154) rotate(-85.7217) scale(5.57261 4.64441)">
<stop offset="0.7247" stop-color="#6D4C41" stop-opacity="0"/>
<stop offset="1" stop-color="#6D4C41"/>
</radialGradient>
<radialGradient id="paint4_radial_1910_2532" cx="0" cy="0" r="1" gradientUnits="userSpaceOnUse" gradientTransform="translate(7.40448 15.4038) rotate(180) scale(4.39106 2.15689)">
<stop offset="0.7275" stop-color="#6D4C41" stop-opacity="0"/>
<stop offset="1" stop-color="#6D4C41"/>
</radialGradient>
<radialGradient id="paint5_radial_1910_2532" cx="0" cy="0" r="1" gradientUnits="userSpaceOnUse" gradientTransform="translate(3.07939 14.7508) rotate(25.0761) scale(1.2976 0.962637)">
<stop offset="0.6628" stop-color="#6D4C41"/>
<stop offset="1" stop-color="#6D4C41" stop-opacity="0"/>
</radialGradient>
<radialGradient id="paint6_radial_1910_2532" cx="0" cy="0" r="1" gradientUnits="userSpaceOnUse" gradientTransform="translate(10.2697 23.5949) scale(12.6282 7.40515)">
<stop offset="0.5595" stop-color="#F8F8F7"/>
<stop offset="1" stop-color="#C6C6C6"/>
</radialGradient>
<radialGradient id="paint7_radial_1910_2532" cx="0" cy="0" r="1" gradientUnits="userSpaceOnUse" gradientTransform="translate(9.19913 22.3313) rotate(-15.6164) scale(3.74055 2.82557)">
<stop offset="0.1531" stop-color="#BDBDBD"/>
<stop offset="1" stop-color="#BDBDBD" stop-opacity="0"/>
</radialGradient>
<linearGradient id="paint8_linear_1910_2532" x1="9.11469" y1="23.2425" x2="9.11469" y2="19.1068" gradientUnits="userSpaceOnUse">
<stop offset="0.2987" stop-color="#BDBDBD"/>
<stop offset="0.6566" stop-color="#CDCDCD"/>
<stop offset="1" stop-color="#E0E0E0"/>
</linearGradient>
<linearGradient id="paint9_linear_1910_2532" x1="20.0346" y1="10.0362" x2="19.2294" y2="18.5953" gradientUnits="userSpaceOnUse">
<stop offset="0.1194" stop-color="#757575"/>
<stop offset="0.2256" stop-color="#7A7A7A"/>
<stop offset="0.3593" stop-color="#8A8A8A"/>
<stop offset="0.4788" stop-color="#9E9E9E"/>
<stop offset="0.488" stop-color="#969696"/>
<stop offset="0.5244" stop-color="#7B7B7B"/>
<stop offset="0.5662" stop-color="#656565"/>
<stop offset="0.6151" stop-color="#545454"/>
<stop offset="0.6756" stop-color="#494949"/>
<stop offset="0.7604" stop-color="#424242"/>
<stop offset="0.9959" stop-color="#404040"/>
</linearGradient>
<linearGradient id="paint10_linear_1910_2532" x1="19.2969" y1="16.1369" x2="20.3279" y2="10.5697" gradientUnits="userSpaceOnUse">
<stop stop-color="#212121"/>
<stop offset="0.9959" stop-color="#404040"/>
</linearGradient>
<linearGradient id="paint11_linear_1910_2532" x1="19.6442" y1="12.5071" x2="19.7506" y2="14.296" gradientUnits="userSpaceOnUse">
<stop stop-color="#FFCA28"/>
<stop offset="0.3408" stop-color="#FFC825"/>
<stop offset="0.6293" stop-color="#FFC21A"/>
<stop offset="0.898" stop-color="#FFB809"/>
<stop offset="1" stop-color="#FFB300"/>
</linearGradient>
<radialGradient id="paint12_radial_1910_2532" cx="0" cy="0" r="1" gradientUnits="userSpaceOnUse" gradientTransform="translate(10.182 4.0294) scale(10.2582 4.32894)">
<stop offset="0.462" stop-color="#FAFAFA"/>
<stop offset="0.6345" stop-color="#EAEAEA"/>
<stop offset="0.9693" stop-color="#C1C1C1"/>
<stop offset="1" stop-color="#BDBDBD"/>
</radialGradient>
<radialGradient id="paint13_radial_1910_2532" cx="0" cy="0" r="1" gradientUnits="userSpaceOnUse" gradientTransform="translate(10.1053 6.30369) rotate(0.372417) scale(7.62269 7.44204)">
<stop offset="0.3031" stop-color="#F8F8F7"/>
<stop offset="0.5045" stop-color="#E8E8E7"/>
<stop offset="0.8953" stop-color="#BFBFBF"/>
<stop offset="1" stop-color="#B3B3B3"/>
</radialGradient>
<linearGradient id="paint14_linear_1910_2532" x1="5.48756" y1="1.71393" x2="6.89381" y2="5.74518" gradientUnits="userSpaceOnUse">
<stop stop-color="#757575" stop-opacity="0"/>
<stop offset="1" stop-color="#757575" stop-opacity="0.9"/>
</linearGradient>
<linearGradient id="paint15_linear_1910_2532" x1="2.04305" y1="3.32943" x2="4.7618" y2="6.16536" gradientUnits="userSpaceOnUse">
<stop stop-color="#757575" stop-opacity="0"/>
<stop offset="1" stop-color="#757575" stop-opacity="0.9"/>
</linearGradient>
<linearGradient id="paint16_linear_1910_2532" x1="14.7775" y1="1.71393" x2="13.3712" y2="5.74518" gradientUnits="userSpaceOnUse">
<stop stop-color="#757575" stop-opacity="0"/>
<stop offset="1" stop-color="#757575" stop-opacity="0.9"/>
</linearGradient>
<linearGradient id="paint17_linear_1910_2532" x1="18.2236" y1="3.32948" x2="15.5048" y2="6.16542" gradientUnits="userSpaceOnUse">
<stop stop-color="#757575" stop-opacity="0"/>
<stop offset="1" stop-color="#757575" stop-opacity="0.9"/>
</linearGradient>
<linearGradient id="paint18_linear_1910_2532" x1="10.1321" y1="1.39299" x2="10.1321" y2="5.28774" gradientUnits="userSpaceOnUse">
<stop stop-color="#757575" stop-opacity="0"/>
<stop offset="1" stop-color="#757575" stop-opacity="0.9"/>
</linearGradient>
<radialGradient id="paint19_radial_1910_2532" cx="0" cy="0" r="1" gradientUnits="userSpaceOnUse" gradientTransform="translate(16.2568 21.5384) rotate(-91.4153) scale(3.79494 4.01208)">
<stop offset="0.3074" stop-color="#FFCA28"/>
<stop offset="1" stop-color="#FFB300"/>
</radialGradient>
<radialGradient id="paint20_radial_1910_2532" cx="0" cy="0" r="1" gradientUnits="userSpaceOnUse" gradientTransform="translate(20.7408 20.6454) rotate(-20.035) scale(2.78067 2.78067)">
<stop stop-color="#FFB300"/>
<stop offset="1" stop-color="#FFCA28"/>
</radialGradient>
<radialGradient id="paint21_radial_1910_2532" cx="0" cy="0" r="1" gradientUnits="userSpaceOnUse" gradientTransform="translate(18.6439 20.5494) rotate(-0.269288) scale(2.53945)">
<stop stop-color="#FFB300"/>
<stop offset="1" stop-color="#FFCA28"/>
</radialGradient>
<radialGradient id="paint22_radial_1910_2532" cx="0" cy="0" r="1" gradientUnits="userSpaceOnUse" gradientTransform="translate(20.0127 19.2022) rotate(9.96603) scale(2.85736 2.77863)">
<stop stop-color="#FFB300"/>
<stop offset="1" stop-color="#FFCA28"/>
</radialGradient>
<radialGradient id="paint23_radial_1910_2532" cx="0" cy="0" r="1" gradientUnits="userSpaceOnUse" gradientTransform="translate(21.4474 20.8557) rotate(-3.19318) scale(3.16046 3.16047)">
<stop stop-color="#FFB300"/>
<stop offset="1" stop-color="#FFCA28"/>
</radialGradient>
<radialGradient id="paint24_radial_1910_2532" cx="0" cy="0" r="1" gradientUnits="userSpaceOnUse" gradientTransform="translate(21.3405 20.944) rotate(4.95634) scale(3.02046 3.02046)">
<stop stop-color="#FFB300"/>
<stop offset="1" stop-color="#FFCA28"/>
</radialGradient>
<radialGradient id="paint25_radial_1910_2532" cx="0" cy="0" r="1" gradientUnits="userSpaceOnUse" gradientTransform="translate(21.1277 20.669) rotate(-12.3685) scale(3.02144 3.02144)">
<stop stop-color="#FFB300"/>
<stop offset="1" stop-color="#FFCA28"/>
</radialGradient>
<clipPath id="clip0_1910_2532">
<rect width="24" height="24" fill="white"/>
</clipPath>
</defs>
</svg>
