<svg width="24" height="24" viewBox="0 0 24 24" fill="none" xmlns="http://www.w3.org/2000/svg">
<path d="M11.8215 1.41925C6.8865 1.30675 1.44337 5.39988 1.54837 12.0299C1.64025 17.8593 6.02025 22.2711 11.6959 22.363C17.3715 22.4549 22.4002 18.703 22.4302 11.9999C22.4621 5.24425 17.2496 1.543 11.8215 1.41925Z" fill="#FF2A23"/>
<path d="M11.8339 3.78529C7.91888 3.91842 3.96826 6.83967 3.87638 11.9903C3.78451 17.1409 8.28638 20.0097 11.8339 20.0097C16.3376 20.0097 20.1008 16.4622 20.007 11.7428C19.9151 7.02529 16.3676 3.63154 11.8339 3.78529Z" fill="#FFFDFE"/>
<path d="M11.9275 5.79156C8.38003 5.71094 5.75879 8.84594 5.72691 11.8366C5.69691 14.8909 7.60753 18.0053 11.8657 18.1591C16.1238 18.3128 18.1263 14.9209 18.1882 12.0522C18.2519 9.18344 15.9682 5.88344 11.9275 5.79156Z" fill="#FF2A23"/>
<path d="M7.87144 11.949C7.84144 14.6322 9.75207 16.1753 12.0658 16.1753C14.1677 16.1753 16.2302 14.8497 16.2302 12.0428C16.2302 9.51342 14.3177 8.00217 12.1896 7.91029C10.0614 7.81654 7.90144 9.35967 7.87144 11.949Z" fill="white"/>
<path d="M9.76875 11.9284C9.65438 13.5277 10.9556 14.2927 12.1275 14.2927C13.2375 14.2927 14.3325 13.5634 14.3644 12.0821C14.3925 10.6909 13.3013 9.84148 12.1275 9.80023C10.9163 9.75898 9.86063 10.629 9.76875 11.9284Z" fill="#FB2B22"/>
<path d="M12.5109 12.0547L11.8828 12.4034L13.0809 14.1078C13.0809 14.1078 14.0072 14.1791 14.2209 13.9372C14.4347 13.6953 14.1928 12.9828 14.1928 12.9828L12.5109 12.0547Z" fill="#CC1935"/>
<path d="M16.3915 10.2022C16.2228 9.85344 16.0503 9.57407 15.5928 9.66032C15.1371 9.74657 14.2953 10.2303 14.1378 10.4591C13.9934 10.6691 13.8528 10.9297 13.8528 10.9297C13.8528 10.9297 12.2403 11.8109 11.9853 11.9553C11.5859 12.1841 11.8615 12.6491 12.1428 12.5966C12.5271 12.5253 14.2446 11.8259 14.2446 11.8259C14.2446 11.8259 14.6084 11.9122 14.8221 11.9122C15.0359 11.9122 16.2546 11.3103 16.4196 11.1997C16.6915 11.0141 16.5621 10.5584 16.3915 10.2022Z" fill="#ACB1B5"/>
<path d="M14.1881 12.9785C14.1881 12.9785 14.0981 13.2973 13.77 13.6273C13.4287 13.9685 13.0781 14.1035 13.0781 14.1035L14.16 15.6898C14.16 15.6898 14.9644 15.7479 15.5494 15.1779C16.1344 14.6079 15.8794 13.8616 15.8794 13.8616L14.1881 12.9785Z" fill="#C8C8C8"/>
<path d="M15.2627 17.3572L14.1602 15.6885C14.1602 15.6885 14.3439 15.591 14.5858 15.426C15.0302 15.1222 15.2777 14.8804 15.5945 14.3854C15.767 14.1191 15.8777 13.8604 15.8777 13.8604L17.582 14.7022C17.582 14.7022 17.5445 16.0185 16.9877 16.6597C16.4308 17.301 15.2627 17.3572 15.2627 17.3572Z" fill="#CC1935"/>
<path d="M15.2617 17.3571L16.2086 18.7764C16.2086 18.7764 17.4442 18.8983 18.4567 17.6852C19.4692 16.4721 19.1992 15.4746 19.1992 15.4746L17.5811 14.7002C17.5811 14.7002 17.2661 15.4577 16.6398 16.1852C16.0136 16.9127 15.2617 17.3571 15.2617 17.3571Z" fill="#C8C8C8"/>
<path d="M17.6116 20.8748L16.2109 18.7785C16.2109 18.7785 17.2666 18.1616 18.0166 17.2748C18.7947 16.3541 19.2016 15.4785 19.2016 15.4785L21.4684 16.6054C21.4684 16.6054 20.9584 17.9235 19.8278 19.1141C18.7216 20.2748 17.6116 20.8748 17.6116 20.8748Z" fill="#CC1935"/>
<path d="M15.3012 10.7566C15.5131 11.1522 15.8637 11.1559 16.2349 10.9984C16.6062 10.8409 18.3593 9.60156 18.3593 9.60156C18.3593 9.60156 20.7406 10.7997 22.2799 10.1997C23.8193 9.60156 23.7762 7.97594 23.7762 7.97594L22.8649 7.39844C22.8649 7.39844 23.5287 7.05344 23.7424 6.92594C23.8474 6.86219 24.0031 6.62594 23.9168 6.41406C23.8493 6.24906 23.5906 6.19281 23.3768 6.27906C23.1631 6.36531 22.5462 6.55844 22.5462 6.55844C22.5462 6.55844 22.7918 5.53656 22.7487 5.48031C22.7056 5.42406 22.2631 5.19531 22.2631 5.19531C22.2631 5.19531 20.8231 5.19531 20.6374 5.26656C20.4518 5.33781 19.0268 6.74969 19.0268 6.74969L18.3424 8.14656L18.0499 8.76906C18.0499 8.76906 16.0531 9.66344 15.7531 9.79094C15.4549 9.92031 15.0406 10.2747 15.3012 10.7566Z" fill="#006CA9"/>
<path d="M18.4776 8.59682C18.4776 8.59682 19.3176 7.98932 19.9157 7.68932C20.5138 7.38932 21.6238 7.02369 21.952 6.98432C22.2801 6.94494 22.4151 7.03307 22.4732 7.18682C22.5313 7.34057 22.3382 7.53369 22.1732 7.62182C22.0101 7.70807 21.1401 8.10369 20.1763 8.61557C19.2126 9.12744 18.7551 9.50244 18.3651 9.59057C18.1682 9.63557 17.9151 9.45932 17.9001 9.16494C17.8888 8.93619 17.9338 8.74494 18.0838 8.30619C18.2676 7.76619 18.6707 6.95432 19.0101 6.42557C19.5126 5.64369 20.2363 5.11307 21.037 4.96869C21.8376 4.82432 22.4938 5.02682 22.6588 5.16182C22.822 5.29682 22.8126 5.43557 22.7545 5.48244C22.6963 5.52932 22.6101 5.56682 22.1751 5.41307C21.8732 5.30619 20.9113 5.30619 20.2363 5.80869C19.5538 6.31494 19.387 6.62807 19.0888 7.17932C18.7907 7.73057 18.4776 8.59682 18.4776 8.59682Z" fill="#1F87FD"/>
</svg>
