<svg width="24" height="24" viewBox="0 0 24 24" fill="none" xmlns="http://www.w3.org/2000/svg">
<path d="M13.7889 4.23922V0.873594C13.7889 0.802344 13.7326 0.746094 13.6614 0.746094H11.9964H10.3314C10.2601 0.746094 10.2039 0.802344 10.2039 0.873594V4.23922C10.2039 4.31047 10.1458 4.36672 10.0764 4.36672L8.35888 4.36297C8.25013 4.36297 8.19013 4.48859 8.26138 4.57297L11.8989 8.23297C11.9495 8.29484 12.0433 8.29484 12.0958 8.23297L15.7333 4.57297C15.8026 4.49047 15.7426 4.36297 15.6358 4.36297L13.9183 4.36672C13.8451 4.36672 13.7889 4.30859 13.7889 4.23922Z" fill="#F44336"/>
<path d="M22.0558 23.2558H1.94078C1.42703 23.2558 1.22266 22.9352 1.22266 22.5377V9.60582C1.22266 9.20832 1.54328 8.8877 1.94078 8.8877H22.0539C22.4514 8.8877 22.772 9.20832 22.772 9.60582V22.5358C22.7739 22.9333 22.4514 23.2558 22.0558 23.2558Z" fill="white"/>
<path d="M22.0239 9.6377V22.5039H1.97266V9.6377H22.0239ZM22.0558 8.8877H1.94078C1.54328 8.8877 1.22266 9.20832 1.22266 9.60582V22.5358C1.22266 22.9333 1.42703 23.2539 1.94078 23.2539H22.0539C22.4514 23.2539 22.772 22.9333 22.772 22.5358V9.60582C22.7739 9.21019 22.4514 8.8877 22.0558 8.8877Z" fill="#6FBFF0"/>
<path d="M16.4991 14.7056L21.9666 9.79689C22.0772 9.70502 22.2909 9.65627 22.2909 9.65627C22.2909 9.65627 22.0397 9.38439 21.7116 9.63939L13.1259 16.4531C12.7959 16.7156 12.4003 16.8506 12.0009 16.8638C11.6016 16.8506 11.2059 16.7156 10.8759 16.4531L2.29031 9.64127C1.96219 9.38439 1.71094 9.65814 1.71094 9.65814C1.71094 9.65814 1.92469 9.70877 2.03531 9.79877L7.43906 14.6494L1.89469 22.4119C1.79906 22.5188 2.05969 22.6894 2.17969 22.5731L8.23406 15.3638L10.4578 17.3606C10.8966 17.7544 11.4459 17.9588 12.0009 17.9719C12.5541 17.9588 13.1034 17.7563 13.5441 17.3606L15.7547 15.375L21.6909 22.5731C21.8109 22.6894 22.0716 22.5169 21.9759 22.4119L16.4991 14.7056Z" fill="#6FBFF0" stroke="#6FBFF0" stroke-width="0.5" stroke-miterlimit="10"/>
</svg>
