<svg width="24" height="24" viewBox="0 0 24 24" fill="none" xmlns="http://www.w3.org/2000/svg">
<path d="M6.23922 3.8623C3.45484 3.8623 1.19922 6.1198 1.19922 8.9023C1.19922 11.6867 3.45672 13.9423 6.23922 13.9423C9.02359 13.9423 11.2792 11.6848 11.2792 8.9023C11.2792 6.1198 9.02359 3.8623 6.23922 3.8623ZM7.63047 5.14293L6.41172 7.1548C6.28234 7.36668 5.98234 7.3873 5.82672 7.19605L4.33797 5.37168C4.23859 5.24793 4.28359 5.06605 4.42797 5.00043C5.40859 4.5448 6.49984 4.48855 7.48984 4.78855C7.64172 4.83355 7.71297 5.00793 7.63047 5.14293ZM8.34672 5.49168C8.40297 5.34355 8.58297 5.29105 8.71234 5.38105C9.13234 5.67355 9.50734 6.0448 9.80922 6.49293C10.113 6.94293 10.3155 7.42855 10.4298 7.9273C10.4655 8.08105 10.3492 8.2273 10.1917 8.22543L7.84047 8.17668C7.59297 8.17105 7.42422 7.92168 7.51234 7.69105L8.34672 5.49168ZM4.81234 7.88043C4.93234 8.09793 4.79922 8.36793 4.55547 8.4073L2.23234 8.78418C2.07672 8.81043 1.93984 8.67918 1.95484 8.52168C2.04859 7.49043 2.50984 6.49855 3.29922 5.76168C3.41547 5.65293 3.60109 5.67918 3.67797 5.81793L4.81234 7.88043ZM2.28859 9.57918L4.63984 9.62793C4.88734 9.63355 5.05609 9.88293 4.96797 10.1136L4.13359 12.3129C4.07734 12.4611 3.89734 12.5136 3.76797 12.4236C3.34797 12.1311 2.97297 11.7598 2.67109 11.3117C2.36734 10.8617 2.16484 10.3761 2.05047 9.8773C2.01484 9.72355 2.13109 9.57543 2.28859 9.57918ZM4.84984 12.6636L6.06859 10.6517C6.19797 10.4398 6.49797 10.4192 6.65359 10.6104L8.14234 12.4348C8.24172 12.5586 8.19672 12.7404 8.05234 12.8061C7.07172 13.2617 5.98047 13.3179 4.99047 13.0179C4.83859 12.9729 4.76734 12.7986 4.84984 12.6636ZM7.66797 9.92605C7.54797 9.70855 7.68109 9.43855 7.92484 9.39918L10.2461 9.0223C10.4017 8.99605 10.5386 9.1273 10.5236 9.2848C10.4298 10.3161 9.96859 11.3079 9.17922 12.0448C9.06297 12.1536 8.87734 12.1273 8.80047 11.9886L7.66797 9.92605Z" fill="#424242"/>
<path d="M5.86406 11.8502C7.38112 11.8502 8.61094 10.6204 8.61094 9.10332C8.61094 7.58626 7.38112 6.35645 5.86406 6.35645C4.34701 6.35645 3.11719 7.58626 3.11719 9.10332C3.11719 10.6204 4.34701 11.8502 5.86406 11.8502Z" fill="#B2947C"/>
<path d="M5.97359 3.8623C3.18922 3.8623 0.933594 6.1198 0.933594 8.9023C0.933594 11.6867 3.19109 13.9423 5.97359 13.9423C8.75797 13.9423 11.0136 11.6848 11.0136 8.9023C11.0136 6.1198 8.75797 3.8623 5.97359 3.8623ZM7.36297 5.14293L6.14422 7.1548C6.01484 7.36668 5.71484 7.3873 5.55922 7.19605L4.07047 5.37168C3.97109 5.24793 4.01609 5.06605 4.16047 5.00043C5.14109 4.5448 6.23234 4.48855 7.22234 4.78855C7.37609 4.83355 7.44547 5.00793 7.36297 5.14293ZM8.07922 5.49168C8.13547 5.34355 8.31547 5.29105 8.44484 5.38105C8.86484 5.67355 9.23984 6.0448 9.54172 6.49293C9.84547 6.94293 10.048 7.42855 10.1623 7.9273C10.198 8.08105 10.0817 8.2273 9.92422 8.22543L7.57297 8.17668C7.32547 8.17105 7.15672 7.92168 7.24484 7.69105L8.07922 5.49168ZM4.54484 7.88043C4.66484 8.09793 4.53172 8.36793 4.28797 8.4073L1.96672 8.78418C1.81109 8.81043 1.67422 8.67918 1.68922 8.52168C1.78297 7.49043 2.24422 6.49855 3.03359 5.76168C3.14984 5.65293 3.33547 5.67918 3.41234 5.81793L4.54484 7.88043ZM2.02109 9.57918L4.37234 9.62793C4.61984 9.63355 4.78859 9.88293 4.70047 10.1136L3.86609 12.3129C3.80984 12.4611 3.62984 12.5136 3.50047 12.4236C3.08047 12.1311 2.70547 11.7598 2.40359 11.3117C2.09984 10.8617 1.89734 10.3761 1.78297 9.8773C1.74734 9.72355 1.86359 9.57543 2.02109 9.57918ZM4.58234 12.6636L5.80109 10.6517C5.93047 10.4398 6.23047 10.4192 6.38609 10.6104L7.87484 12.4348C7.97422 12.5586 7.92922 12.7404 7.78484 12.8061C6.80422 13.2617 5.71297 13.3179 4.72297 13.0179C4.57109 12.9729 4.50172 12.7986 4.58234 12.6636ZM7.40047 9.92605C7.28047 9.70855 7.41359 9.43855 7.65734 9.39918L9.97859 9.0223C10.1342 8.99605 10.2711 9.1273 10.2561 9.2848C10.1623 10.3161 9.70109 11.3079 8.91172 12.0448C8.79547 12.1536 8.60984 12.1273 8.53297 11.9886L7.40047 9.92605Z" fill="#424242"/>
<path d="M5.62984 3.8623C2.84547 3.8623 0.589844 6.1198 0.589844 8.9023C0.589844 11.6867 2.84734 13.9423 5.62984 13.9423C8.41422 13.9423 10.6698 11.6848 10.6698 8.9023C10.6698 6.1198 8.41234 3.8623 5.62984 3.8623ZM7.01922 5.14293L5.80047 7.1548C5.67109 7.36668 5.37109 7.3873 5.21547 7.19605L3.72672 5.37168C3.62734 5.24793 3.67234 5.06605 3.81672 5.00043C4.79734 4.5448 5.88859 4.48855 6.87859 4.78855C7.03234 4.83355 7.10172 5.00793 7.01922 5.14293ZM7.73547 5.49168C7.79172 5.34355 7.97172 5.29105 8.10109 5.38105C8.52109 5.67355 8.89609 6.0448 9.19797 6.49293C9.50172 6.94293 9.70422 7.42855 9.81859 7.9273C9.85422 8.08105 9.73797 8.2273 9.58047 8.22543L7.22922 8.17668C6.98172 8.17105 6.81297 7.92168 6.90109 7.69105L7.73547 5.49168ZM4.20109 7.88043C4.32109 8.09793 4.18797 8.36793 3.94422 8.4073L1.62297 8.78418C1.46734 8.81043 1.33047 8.67918 1.34547 8.52168C1.43922 7.49043 1.90047 6.49855 2.68984 5.76168C2.80609 5.65293 2.99172 5.67918 3.06859 5.81793L4.20109 7.88043ZM1.67734 9.57918L4.02859 9.62793C4.27609 9.63355 4.44484 9.88293 4.35672 10.1136L3.52234 12.3129C3.46609 12.4611 3.28609 12.5136 3.15672 12.4236C2.73672 12.1311 2.36172 11.7598 2.05984 11.3117C1.75609 10.8617 1.55359 10.3761 1.43922 9.8773C1.40359 9.72355 1.51984 9.57543 1.67734 9.57918ZM4.23859 12.6636L5.45734 10.6517C5.58672 10.4398 5.88672 10.4192 6.04234 10.6104L7.53109 12.4348C7.63047 12.5586 7.58547 12.7404 7.44109 12.8061C6.46047 13.2617 5.36922 13.3179 4.37922 13.0179C4.22734 12.9729 4.15797 12.7986 4.23859 12.6636ZM7.05672 9.92605C6.93672 9.70855 7.06984 9.43855 7.31359 9.39918L9.63484 9.0223C9.79047 8.99605 9.92734 9.1273 9.91234 9.2848C9.81859 10.3161 9.35734 11.3079 8.56797 12.0448C8.45172 12.1536 8.26609 12.1273 8.18922 11.9886L7.05672 9.92605Z" fill="#757575"/>
<path d="M18.3095 1.28223C15.5252 1.28223 13.2695 3.53973 13.2695 6.32223C13.2695 9.1066 15.527 11.3622 18.3095 11.3622C21.0939 11.3622 23.3495 9.10473 23.3495 6.32223C23.3495 3.53973 21.0939 1.28223 18.3095 1.28223ZM19.6989 2.56285L18.4802 4.57473C18.3508 4.7866 18.0508 4.80723 17.8952 4.61598L16.4064 2.7916C16.307 2.66785 16.352 2.48598 16.4964 2.42035C17.477 1.96473 18.5683 1.90848 19.5583 2.20848C19.712 2.25348 19.7814 2.42785 19.6989 2.56285ZM20.4152 2.91348C20.4714 2.76535 20.6514 2.71285 20.7808 2.80285C21.2008 3.09535 21.5758 3.4666 21.8777 3.91473C22.1814 4.36473 22.3839 4.85035 22.4983 5.3491C22.5339 5.50285 22.4177 5.6491 22.2602 5.64723L19.9089 5.59848C19.6614 5.59285 19.4927 5.34348 19.5808 5.11285L20.4152 2.91348ZM16.8808 5.30035C17.0008 5.51785 16.8677 5.78785 16.6239 5.82723L14.3027 6.2041C14.147 6.23035 14.0102 6.0991 14.0252 5.9416C14.1189 4.91035 14.5802 3.91848 15.3695 3.1816C15.4858 3.07285 15.6714 3.0991 15.7483 3.23785L16.8808 5.30035ZM14.3589 6.9991L16.7102 7.04785C16.9577 7.05348 17.1264 7.30285 17.0383 7.53348L16.2039 9.73285C16.1477 9.88098 15.9677 9.93348 15.8383 9.84348C15.4183 9.55098 15.0433 9.17973 14.7414 8.7316C14.4377 8.2816 14.2352 7.79598 14.1208 7.29723C14.0852 7.14348 14.1995 6.99535 14.3589 6.9991ZM16.9202 10.0835L18.1389 8.0716C18.2683 7.85973 18.5683 7.8391 18.7239 8.03035L20.2127 9.85473C20.312 9.97848 20.267 10.1604 20.1227 10.226C19.142 10.6816 18.0508 10.7379 17.0608 10.4379C16.907 10.3929 16.8377 10.2185 16.9202 10.0835ZM19.7383 7.34598C19.6183 7.12848 19.7514 6.85848 19.9952 6.8191L22.3164 6.44223C22.472 6.41598 22.6089 6.54723 22.5939 6.70473C22.5002 7.73598 22.0389 8.72785 21.2495 9.46473C21.1333 9.57348 20.9477 9.54723 20.8708 9.40848L19.7383 7.34598Z" fill="#424242"/>
<path d="M23.9734 19.344L19.7734 18.1665V15.1046L23.9734 14.0059V19.344Z" fill="url(#paint0_linear_1910_2593)"/>
<path d="M17.9309 9.82086C19.7524 9.82086 21.2291 8.34424 21.2291 6.52273C21.2291 4.70123 19.7524 3.22461 17.9309 3.22461C16.1094 3.22461 14.6328 4.70123 14.6328 6.52273C14.6328 8.34424 16.1094 9.82086 17.9309 9.82086Z" fill="#B2947C"/>
<path d="M18.04 1.28223C15.2556 1.28223 13 3.53973 13 6.32223C13 9.1066 15.2575 11.3622 18.04 11.3622C20.8244 11.3622 23.08 9.10473 23.08 6.32223C23.0819 3.53973 20.8244 1.28223 18.04 1.28223ZM19.4313 2.56285L18.2125 4.57473C18.0831 4.7866 17.7831 4.80723 17.6275 4.61598L16.1387 2.7916C16.0394 2.66785 16.0844 2.48598 16.2288 2.42035C17.2094 1.96473 18.3006 1.90848 19.2906 2.20848C19.4425 2.25348 19.5138 2.42785 19.4313 2.56285ZM20.1475 2.91348C20.2038 2.76535 20.3837 2.71285 20.5131 2.80285C20.9331 3.09535 21.3081 3.4666 21.61 3.91473C21.9137 4.36473 22.1163 4.85035 22.2306 5.3491C22.2663 5.50285 22.15 5.6491 21.9925 5.64723L19.6412 5.59848C19.3937 5.59285 19.225 5.34348 19.3131 5.11285L20.1475 2.91348ZM16.6131 5.30035C16.7331 5.51785 16.6 5.78785 16.3563 5.82723L14.035 6.2041C13.8794 6.23035 13.7425 6.0991 13.7575 5.9416C13.8513 4.91035 14.3125 3.91848 15.1019 3.1816C15.2181 3.07285 15.4038 3.0991 15.4806 3.23785L16.6131 5.30035ZM14.0894 6.9991L16.4406 7.04785C16.6881 7.05348 16.8569 7.30285 16.7687 7.53348L15.9344 9.73473C15.8781 9.88285 15.6981 9.93535 15.5688 9.84535C15.1488 9.55285 14.7737 9.1816 14.4719 8.73348C14.1681 8.28348 13.9656 7.79785 13.8513 7.2991C13.8156 7.14348 13.9319 6.99535 14.0894 6.9991ZM16.6506 10.0835L17.8694 8.0716C17.9988 7.85973 18.2988 7.8391 18.4544 8.03035L19.9431 9.85473C20.0425 9.97848 19.9975 10.1604 19.8531 10.226C18.8725 10.6816 17.7813 10.7379 16.7913 10.4379C16.6394 10.3929 16.5681 10.2185 16.6506 10.0835ZM19.4688 7.34598C19.3488 7.12848 19.4819 6.85848 19.7256 6.8191L22.0469 6.44223C22.2025 6.41598 22.3394 6.54723 22.3244 6.70473C22.2306 7.73598 21.7694 8.72785 20.98 9.46473C20.8638 9.57348 20.6781 9.54723 20.6013 9.40848L19.4688 7.34598Z" fill="#424242"/>
<path d="M17.7002 1.28223C14.9158 1.28223 12.6602 3.53973 12.6602 6.32223C12.6602 9.1066 14.9177 11.3622 17.7002 11.3622C20.4845 11.3622 22.7402 9.10473 22.7402 6.32223C22.742 3.53973 20.4845 1.28223 17.7002 1.28223ZM19.0914 2.56285L17.8727 4.57473C17.7433 4.7866 17.4433 4.80723 17.2877 4.61598L15.7989 2.7916C15.6995 2.66785 15.7445 2.48598 15.8889 2.42035C16.8695 1.96473 17.9608 1.90848 18.9508 2.20848C19.1027 2.25348 19.1739 2.42785 19.0914 2.56285ZM19.8077 2.91348C19.8639 2.76535 20.0439 2.71285 20.1733 2.80285C20.5933 3.09535 20.9683 3.4666 21.2702 3.91473C21.5739 4.36473 21.7764 4.85035 21.8908 5.3491C21.9264 5.50285 21.8102 5.6491 21.6527 5.64723L19.3014 5.59848C19.0539 5.59285 18.8852 5.34348 18.9733 5.11285L19.8077 2.91348ZM16.2733 5.30035C16.3933 5.51785 16.2602 5.78785 16.0164 5.82723L13.6952 6.2041C13.5395 6.23035 13.4027 6.0991 13.4177 5.9416C13.5114 4.91035 13.9727 3.91848 14.762 3.1816C14.8783 3.07285 15.0639 3.0991 15.1408 3.23785L16.2733 5.30035ZM13.7495 6.9991L16.1008 7.04785C16.3483 7.05348 16.517 7.30285 16.4289 7.53348L15.5945 9.73285C15.5383 9.88098 15.3583 9.93348 15.2289 9.84348C14.8089 9.55098 14.4339 9.17973 14.132 8.7316C13.8283 8.2816 13.6258 7.79598 13.5114 7.29723C13.4758 7.14348 13.592 6.99535 13.7495 6.9991ZM16.3108 10.0835L17.5295 8.0716C17.6589 7.85973 17.9589 7.8391 18.1145 8.03035L19.6033 9.85473C19.7027 9.97848 19.6577 10.1604 19.5133 10.226C18.5327 10.6816 17.4414 10.7379 16.4514 10.4379C16.2995 10.3929 16.2283 10.2185 16.3108 10.0835ZM19.1289 7.34598C19.0089 7.12848 19.142 6.85848 19.3858 6.8191L21.707 6.44223C21.8627 6.41598 21.9995 6.54723 21.9845 6.70473C21.8908 7.73598 21.4295 8.72785 20.6402 9.46473C20.5239 9.57348 20.3383 9.54723 20.2614 9.40848L19.1289 7.34598Z" fill="#757575"/>
<path d="M16.4491 6.70465C16.6572 6.12152 16.9122 5.50465 17.5591 5.46902C18.2059 5.43527 18.7853 5.7784 18.6222 6.95027C18.5772 7.2709 17.7841 10.074 17.0003 12.7946L13.9141 12.6578C15.0672 9.9634 16.3891 6.86965 16.4491 6.70465Z" fill="#546E7A"/>
<path d="M18.1509 5.57617C18.3403 5.8068 18.4416 6.09555 18.3084 6.6393L17.0934 10.3387L14.9241 10.303L14.5078 11.2762L17.3259 11.6699L18.6234 6.95055C18.8541 5.9643 18.5072 5.75055 18.1509 5.57617Z" fill="#37474F"/>
<path d="M17.57 6.82262C17.8071 6.82262 17.9994 6.63038 17.9994 6.39324C17.9994 6.1561 17.8071 5.96387 17.57 5.96387C17.3329 5.96387 17.1406 6.1561 17.1406 6.39324C17.1406 6.63038 17.3329 6.82262 17.57 6.82262Z" fill="#B9E4EA"/>
<path d="M5.46845 10.4358C5.02032 10.0102 4.5572 9.52833 4.78782 8.9227C5.01845 8.31708 5.56595 7.9252 6.57095 8.5477C6.85407 8.72395 9.22595 10.6908 11.4591 12.5583L9.17345 14.3921C7.37907 12.4665 5.58095 10.5408 5.46845 10.4358Z" fill="#546E7A"/>
<path d="M5.125 8.424C5.41188 8.34338 5.79625 8.30213 6.24062 8.64338L8.47938 10.7509C7.51563 10.9121 6.91 11.9621 6.91 11.9621L8.86562 14.0584L10.3656 11.6415C8.50937 10.0946 6.7 8.59088 6.7 8.59088C5.89562 7.97213 5.42875 8.169 5.125 8.424Z" fill="#37474F"/>
<path d="M5.63641 9.66539C5.87354 9.66539 6.06578 9.47315 6.06578 9.23602C6.06578 8.99888 5.87354 8.80664 5.63641 8.80664C5.39927 8.80664 5.20703 8.99888 5.20703 9.23602C5.20703 9.47315 5.39927 9.66539 5.63641 9.66539Z" fill="#B9E4EA"/>
<path d="M18.2384 22.6272H7.35969C6.76906 22.6272 6.28906 22.1135 6.28906 21.4797V15.1029C6.28906 11.6191 8.95906 10.751 10.4703 10.751H15.9378C17.4491 10.751 19.3072 11.9491 19.3072 14.5216V21.4797C19.3091 22.1135 18.8291 22.6272 18.2384 22.6272Z" fill="#546E7A"/>
<path d="M19.3061 16.9443H15.7305V18.9843H19.3061V16.9443Z" fill="#37474F"/>
<path d="M9.46375 12.3594H15.4956C16.3131 12.3594 16.975 13.0212 16.975 13.8387V20.105C16.975 20.9225 16.3131 21.5844 15.4956 21.5844H9.46375C8.64625 21.5844 7.98438 20.9225 7.98438 20.105V13.8387C7.98438 13.0212 8.64625 12.3594 9.46375 12.3594Z" fill="#37474F"/>
<path d="M15.3316 15.0088H19.7191V18.2694H15.3316C15.3316 18.2694 15.0859 18.0688 15.0859 16.64C15.0859 15.2113 15.3316 15.0088 15.3316 15.0088Z" fill="#9E9E9E"/>
<path d="M19.1172 16.1113H15.3672V15.3613H19.0909C19.0909 15.3613 19.1059 15.6838 19.1172 16.1113Z" fill="#E0E0E0"/>
<path d="M9.46375 12.3281H14.8581C15.6756 12.3281 16.3375 12.99 16.3375 13.8075V19.5694C16.3375 20.3869 15.6756 21.0487 14.8581 21.0487H9.46375C8.64625 21.0487 7.98438 20.3869 7.98438 19.5694V13.8094C7.98438 12.9919 8.64625 12.3281 9.46375 12.3281Z" fill="#78909C"/>
<path d="M14.8567 12.3301H9.46234C8.97672 12.3301 8.54734 12.5645 8.27734 12.9263C8.54922 12.9338 12.0067 12.9901 13.2311 12.9901C14.7105 12.9901 14.8567 12.3301 14.8567 12.3301Z" fill="#B9E4EA"/>
<path d="M19.9431 15.0107H18.625C18.625 15.0107 18.7169 15.6651 18.7169 16.6589C18.7169 17.6526 18.625 18.2714 18.625 18.2714H19.9487C20.0425 18.2714 20.1212 18.2057 20.1381 18.1139C20.1737 17.9057 20.2263 17.4726 20.2263 16.7039C20.2263 15.9032 20.17 15.4101 20.1344 15.1757C20.1194 15.0782 20.0387 15.0107 19.9431 15.0107Z" fill="#424242"/>
<path d="M18.7039 16.1172C18.7095 16.2822 18.7039 16.4641 18.7039 16.6572C18.7039 17.6509 18.6289 18.2697 18.6289 18.2697H19.7464C19.8289 18.2697 19.8889 18.2022 19.9114 18.1122C19.9714 17.8853 20.0145 17.5947 20.0202 16.8484C20.022 16.7247 20.007 16.4847 19.9845 16.3553C19.962 16.2241 19.8739 16.1172 19.7408 16.1172H18.7039Z" fill="#212121"/>
<defs>
<linearGradient id="paint0_linear_1910_2593" x1="19.7743" y1="16.6753" x2="23.9729" y2="16.6753" gradientUnits="userSpaceOnUse">
<stop stop-color="white" stop-opacity="0.6"/>
<stop offset="1" stop-color="white" stop-opacity="0"/>
</linearGradient>
</defs>
</svg>
