<svg width="24" height="24" viewBox="0 0 24 24" fill="none" xmlns="http://www.w3.org/2000/svg">
<path d="M12.4621 0C8.48779 0 8.51954 3.67467 8.51954 3.73221C8.51954 6.11123 8.70208 9.47438 9.65448 10.7958C10.0315 11.3197 10.7616 11.3494 10.7616 11.3494L12.4065 11.3474L14.0514 11.3494C14.0514 11.3494 14.7816 11.3197 15.1586 10.7958C16.111 9.4724 16.2935 6.11123 16.2935 3.73221C16.2935 3.67467 16.4364 0 12.4621 0Z" fill="#543930"/>
<path d="M12.4621 0C8.48779 0 8.51954 3.67467 8.51954 3.73221C8.51954 6.11123 8.70208 9.47438 9.65448 10.7958C10.0315 11.3197 10.7616 11.3494 10.7616 11.3494L12.4065 11.3474L14.0514 11.3494C14.0514 11.3494 14.7816 11.3197 15.1586 10.7958C16.111 9.4724 16.2935 6.11123 16.2935 3.73221C16.2935 3.67467 16.4364 0 12.4621 0Z" fill="url(#paint0_radial_1910_2460)"/>
<path d="M15.043 12.1908L16.9557 11.917C16.9557 11.917 17.2593 15.8734 17.4894 16.3397C17.7196 16.806 20.2256 19.6751 20.2256 19.6751L19.6978 20.818L16.297 17.5977C15.9319 17.2524 15.6958 16.7941 15.6243 16.296L15.043 12.1908Z" fill="url(#paint1_linear_1910_2460)"/>
<path d="M9.67483 12.1908L7.76209 11.917C7.76209 11.917 7.45851 15.8734 7.22835 16.3397C6.99819 16.808 4.49219 19.6751 4.49219 19.6751L5.01998 20.818L8.41885 17.5977C8.78394 17.2524 9.02005 16.7941 9.09148 16.296L9.67483 12.1908Z" fill="url(#paint2_linear_1910_2460)"/>
<path d="M17.2795 13.0952L17.1148 11.2221C17.093 10.9662 16.6347 8.88281 12.4481 8.88281C8.26149 8.88281 7.71782 10.9225 7.69203 11.2202L7.52734 13.0932L9.34087 13.2539V18.7798H15.5275V13.25L17.2795 13.0952Z" fill="url(#paint3_linear_1910_2460)"/>
<path d="M17.0323 21.4608C15.7108 21.6889 14.566 22.0362 13.2783 22.4191C12.6989 22.5917 12.0897 22.7703 11.4211 22.9489C10.1195 23.2961 8.59166 23.6434 6.6194 23.933C5.45073 24.1057 4.22452 23.933 3.60347 23.5501C3.14116 23.2644 2.73441 22.6989 2.89513 22.2187C3.07172 21.687 3.59951 21.0957 4.34357 20.7405C4.65111 20.5937 4.98445 20.4548 5.32771 20.3278C6.18289 20.0084 7.09163 19.7484 7.7722 19.5699C8.42102 19.4012 8.86548 19.308 8.86548 19.308C9.67899 19.1294 10.429 19.1254 11.0242 19.3814C12.06 19.8238 17.3954 21.3993 17.0323 21.4608Z" fill="url(#paint4_linear_1910_2460)"/>
<path d="M6.49286 19.967L5.52658 20.9056L4.68728 21.481C4.66743 21.4968 4.64164 21.5048 4.61585 21.5028L4.40354 21.4829C4.28251 21.5484 4.14957 21.5841 4.01464 21.5841C3.95313 21.5841 3.88766 21.5762 3.82615 21.5643C3.68527 21.5326 3.55829 21.4651 3.45312 21.3679C3.68329 21.1417 3.96702 20.9393 4.29243 20.7806C4.94522 20.4631 5.71706 20.1794 6.43731 19.9512L6.49286 19.967Z" fill="url(#paint5_linear_1910_2460)"/>
<path d="M21.1831 23.5504C20.562 23.9333 19.3398 24.0901 18.1671 23.9333C15.931 23.6357 13.177 22.727 11.2027 21.7646C10.0817 21.219 9.10943 20.5662 8.54791 20.2428C8.15306 20.0146 7.83956 19.8876 7.34352 19.9412C7.14907 19.963 7.08558 19.9769 6.94867 19.971C6.67089 19.9591 6.91692 19.5166 6.91692 19.5166C7.05185 19.2031 7.50225 18.844 7.94472 19.0027C8.38719 19.1614 8.91895 19.4809 8.91895 19.4809C9.92888 19.7944 9.97452 19.1674 10.5658 19.3757C10.8614 19.4789 10.9289 19.8321 10.9368 20.0305C10.9468 20.2448 11.2722 20.4432 11.4865 20.473L12.8734 20.6376L13.0639 20.6595L13.5599 20.719L15.0679 19.6475L15.2762 19.4987L15.8219 19.1118C15.8219 19.1118 15.9707 19.1614 16.2207 19.2487C16.2981 19.2745 16.3854 19.3063 16.4826 19.34C16.8913 19.4829 17.4509 19.6813 18.0501 19.9035C18.1175 19.9293 18.187 19.9551 18.2564 19.9809C19.0322 20.2726 19.8537 20.598 20.4846 20.8896C21.2327 21.2349 21.7148 21.6873 21.8934 22.219C22.0521 22.6992 21.6454 23.2647 21.1831 23.5504Z" fill="url(#paint6_linear_1910_2460)"/>
<path d="M15.5517 18.871L15.522 18.1904C15.522 18.1904 14.7065 18.5635 12.4862 18.5635C10.2659 18.5635 9.33733 18.1904 9.33733 18.1904V18.871L7.875 19.744L12.4227 21.8175L17.2224 19.7262L15.5517 18.871Z" fill="#7C7C7C"/>
<path d="M13.2826 22.4196C12.7032 22.5922 12.0941 22.7708 11.4254 22.9493C11.1575 22.8303 10.8996 22.7093 10.6496 22.5882C9.67338 22.11 8.77852 21.5644 8.12772 21.1656L8.07811 21.1378C7.82811 20.983 7.61184 20.8501 7.43128 20.7449C7.06818 20.5346 6.92333 20.4989 6.73285 20.4989C6.68325 20.4989 6.63364 20.5029 6.58007 20.5108L6.4392 20.5247C6.338 20.5366 6.22094 20.5525 6.07411 20.5525C6.03641 20.5525 6.00069 20.5505 5.95903 20.5485C5.72291 20.5386 5.50664 20.4632 5.33203 20.3283C6.18721 20.0088 7.09595 19.7489 7.77652 19.5703C7.85986 19.61 7.94319 19.6576 8.03049 19.7072C8.21304 19.8144 8.43923 19.9513 8.69321 20.108C9.33806 20.5029 10.219 21.0445 11.1754 21.5108C11.8044 21.8184 12.4969 22.118 13.231 22.3997L13.2826 22.4196Z" fill="url(#paint7_linear_1910_2460)"/>
<path d="M6.125 21.7202C6.14087 21.5178 6.26588 21.3392 6.41469 21.2142C6.5635 21.0833 6.73811 20.994 6.92263 20.9265C7.01192 20.8948 7.12105 20.869 7.21034 20.859L7.48614 20.8213C7.67066 20.7995 7.85519 20.7757 8.03972 20.7579C8.40877 20.7182 8.77981 20.6963 9.15085 20.6844C9.52189 20.6725 9.89293 20.6725 10.2679 20.6983C10.3235 20.7023 10.3652 20.7499 10.3612 20.8055C10.3572 20.859 10.3136 20.9007 10.26 20.8987H10.256C9.89293 20.8928 9.52387 20.9047 9.15879 20.9186C8.79172 20.9344 8.42663 20.9622 8.06154 20.99C7.879 21.0059 7.69646 21.0237 7.51392 21.0436L7.2401 21.0773C7.14486 21.0872 7.07343 21.0991 6.98613 21.1229C6.82144 21.1706 6.65874 21.246 6.51588 21.3412C6.37302 21.4384 6.25199 21.5654 6.19841 21.7301V21.7321C6.19246 21.7519 6.17064 21.7618 6.15079 21.7559C6.13492 21.7519 6.125 21.736 6.125 21.7202Z" fill="#EDA600"/>
<path d="M21.1831 23.5504C20.562 23.9333 19.3398 24.0901 18.1671 23.9333C16.5262 23.7151 14.6075 23.1675 12.921 22.5107C12.3099 22.2726 11.7285 22.0206 11.2027 21.7646C10.0817 21.219 9.10943 20.5662 8.54791 20.2428C8.15306 20.0146 7.83956 19.8876 7.34352 19.9412C7.14907 19.963 7.08558 19.9769 6.94867 19.971C6.67089 19.9591 6.91692 19.5166 6.91692 19.5166C7.05185 19.2031 7.50225 18.844 7.94472 19.0027C8.38719 19.1614 8.91895 19.4809 8.91895 19.4809C9.92888 19.7944 9.97452 19.1674 10.5658 19.3757C10.8614 19.4789 10.9289 19.8321 10.9368 20.0305C10.9468 20.2448 11.2722 20.4432 11.4865 20.473C11.4865 20.473 12.0519 20.5742 12.667 20.6555H12.669L12.7702 20.6674C12.8139 20.6734 12.8575 20.6793 12.9012 20.6833C13.048 20.7011 13.1928 20.715 13.3297 20.7269L13.3674 20.7309H13.3774C13.3793 20.7329 13.3813 20.7329 13.3833 20.7309C13.3833 20.7309 13.3833 20.7309 13.3853 20.7309C13.5341 20.7428 13.673 20.7488 13.7921 20.7488C13.9805 20.7488 14.1631 20.7428 14.3417 20.7309C14.9568 20.6932 15.5242 20.5999 16.0738 20.5206C16.2286 20.4968 16.3814 20.4749 16.5342 20.4551C16.5362 20.4551 16.5362 20.4551 16.5362 20.4551C17.0818 20.3857 17.6175 20.348 18.1771 20.4114C19.2326 20.5325 20.5283 20.8916 21.7863 21.9789C21.8279 22.0563 21.8656 22.1377 21.8934 22.219C22.0521 22.6992 21.6454 23.2647 21.1831 23.5504Z" fill="url(#paint8_linear_1910_2460)"/>
<path d="M18.6027 20.8221C18.2515 20.6951 17.2336 20.5582 16.6463 20.4887C16.6463 20.4887 17.1185 20.201 17.8705 20.2883C18.3388 20.3439 17.8864 19.5244 17.8864 19.5244C17.8864 19.5244 16.7257 20.1574 16.3308 20.3855C16.3129 20.3955 16.2733 20.4173 16.2217 20.4431C16.2137 20.4471 16.2058 20.451 16.1979 20.455C16.1602 20.4748 16.1185 20.4967 16.0768 20.5205C15.9637 20.578 15.8447 20.6395 15.7852 20.6732C15.9181 20.6772 16.0491 20.6832 16.182 20.6891C17.4915 20.7546 18.7634 20.9292 19.3586 21.4352C19.3765 21.4491 19.4063 21.4431 19.4003 21.4233C19.3408 21.2407 19.0987 21.0026 18.6027 20.8221Z" fill="#EDA600"/>
<path d="M17.9262 20.1137C17.7913 20.1196 17.7278 20.1058 17.5314 20.0819C17.0373 20.0304 16.7238 20.1573 16.329 20.3855C16.3111 20.3954 16.2715 20.4173 16.2199 20.4431C16.2119 20.447 16.204 20.451 16.1961 20.455C16.1584 20.4748 16.1167 20.4966 16.075 20.5204C15.9619 20.578 15.8429 20.6395 15.7833 20.6732C15.7714 20.6792 15.7595 20.6851 15.7536 20.6891C15.7536 20.6891 15.0234 20.6871 14.7179 20.7149C14.6563 20.7208 14.5988 20.7248 14.5472 20.7288C14.2833 20.7486 14.1206 20.7486 13.7932 20.7486C13.6742 20.7486 13.5353 20.7427 13.3865 20.7308C13.3845 20.7308 13.3845 20.7308 13.3845 20.7308H13.3686L13.3309 20.7268C13.194 20.7149 13.0492 20.701 12.9023 20.6831L12.9142 20.6812H12.9162L13.325 20.6236L13.3904 20.6137C13.5274 20.5958 13.7079 20.5085 13.825 20.3915C13.827 20.3895 13.8289 20.3875 13.8289 20.3855C13.8448 20.3716 13.8567 20.3577 13.8686 20.3419C13.9083 20.2903 13.9341 20.2327 13.9381 20.1712C13.9381 20.1613 13.9401 20.1514 13.942 20.1415C13.9559 19.9391 14.0293 19.6137 14.3111 19.5165C14.9024 19.3101 14.946 19.9351 15.956 19.6236C15.956 19.6236 16.4877 19.3042 16.9302 19.1454C17.3727 18.9867 17.8251 19.3438 17.958 19.6573C17.958 19.6573 17.9917 19.7169 18.0195 19.7903C18.0671 19.9212 18.1048 20.1058 17.9262 20.1137Z" fill="url(#paint9_linear_1910_2460)"/>
<path d="M22.8009 19.1748C22.8009 19.1431 22.7851 19.1114 22.7573 19.0935C22.7295 19.0756 22.6977 19.0697 22.666 19.0816C22.6541 19.0856 22.3981 19.1768 22.2811 19.4249C22.2751 19.4368 22.2712 19.4506 22.2712 19.4645L22.2533 19.9467C22.2295 19.9804 22.1938 20.028 22.1541 20.0836L22.0866 19.4804L22.1025 18.6669C22.1025 18.6391 22.0926 18.6113 22.0727 18.5915C22.0529 18.5717 22.0231 18.5617 21.9973 18.5637C21.9914 18.5637 21.918 18.5697 21.8287 18.5994C21.8207 18.5994 21.8148 18.5994 21.8069 18.5994C21.8009 18.5994 21.795 18.6014 21.787 18.6014C21.7731 18.6014 21.7612 18.6034 21.7473 18.6054C21.7334 18.6074 21.7176 18.6094 21.7037 18.6133C21.6918 18.6153 21.6819 18.6193 21.6699 18.6213C21.6561 18.6252 21.6442 18.6292 21.6303 18.6352C21.6203 18.6391 21.6104 18.6431 21.6005 18.649C21.5886 18.655 21.5787 18.6609 21.5668 18.6689C21.5569 18.6748 21.5489 18.6808 21.539 18.6867C21.5291 18.6947 21.5192 18.7026 21.5112 18.7106C21.5033 18.7185 21.4934 18.7264 21.4854 18.7344C21.4775 18.7423 21.4695 18.7502 21.4616 18.7582C21.4537 18.7681 21.4438 18.778 21.4358 18.7879C21.4299 18.7959 21.4239 18.8038 21.418 18.8098C21.408 18.8217 21.3981 18.8356 21.3902 18.8475C21.3862 18.8514 21.3842 18.8574 21.3803 18.8614C21.2592 19.0379 21.168 19.2502 20.9854 19.3197C20.9537 19.3316 20.9199 19.3415 20.8842 19.3495C20.5529 19.4189 20.1203 19.2899 19.8703 19.5776L19.8723 19.5816C19.8644 19.5895 19.8544 19.5975 19.8465 19.6074C19.779 19.6887 19.5112 19.536 19.5112 19.536L19.0092 19.8872L18.9516 19.8336L18.777 19.6689L18.5469 19.7245L19.5211 20.655L20.3664 21.2245C20.3862 21.2404 20.412 21.2483 20.4378 21.2443L20.6481 21.2225C20.7691 21.288 20.9041 21.3217 21.039 21.3217C21.1025 21.3217 21.166 21.3138 21.2275 21.2999C21.3922 21.2622 21.539 21.1729 21.6481 21.0439L21.6739 21.0142L21.7156 21.03C21.7255 21.034 21.7354 21.036 21.7453 21.038C21.9418 21.0519 22.1719 20.9467 22.3089 20.78L22.787 20.1788C22.8009 20.161 22.8089 20.1372 22.8089 20.1153L22.8009 19.1748Z" fill="url(#paint10_linear_1910_2460)"/>
<path d="M22.1022 18.5994C22.1022 18.5994 22.1022 18.6331 22.1022 18.6351L22.0982 18.766C21.9911 18.7621 21.8661 18.7819 21.7828 18.8375C21.6935 18.8911 21.6578 18.9784 21.6578 19.1053L21.6339 19.8792L21.6201 20.2681C21.628 20.3375 21.5863 20.4208 21.5427 20.4625L21.4216 20.6133L20.9375 21.2205L21.38 20.5835L21.4931 20.4228C21.5347 20.3693 21.5506 20.3296 21.5447 20.2661L21.5327 19.8772L21.507 19.0994C21.503 19.0379 21.507 18.9506 21.5347 18.8772C21.5605 18.8057 21.6697 18.5815 22.0486 18.5518C22.0764 18.5537 22.0982 18.5696 22.1022 18.5994Z" fill="#EDA600"/>
<path d="M22.8035 19.0956V19.1095L22.8015 19.2404C22.7301 19.2384 22.6447 19.2563 22.5773 19.292C22.5098 19.3277 22.4582 19.3833 22.4304 19.4547C22.4185 19.4904 22.4106 19.5321 22.4066 19.5737L22.3927 19.7186C22.3789 19.8158 22.367 19.9071 22.3332 20.0122L22.3312 20.0202L22.3253 20.0281L22.2082 20.167L21.7578 20.8714L22.1328 20.1174L22.1348 20.1134L22.232 19.9726C22.2479 19.8932 22.2539 19.798 22.2578 19.7067V19.5678C22.2598 19.5142 22.2658 19.4587 22.2796 19.4051C22.3114 19.294 22.3908 19.1948 22.486 19.1352C22.5634 19.0916 22.6408 19.0599 22.7261 19.046C22.732 19.044 22.74 19.042 22.7479 19.042H22.7499C22.7777 19.044 22.7995 19.0658 22.8035 19.0956Z" fill="#EDA600"/>
<path d="M19.7852 20.1234C19.7852 20.1234 20.5252 19.3952 21.5193 19.4726C21.5193 19.4726 21.0987 19.4527 21.1721 20.1829C21.1721 20.1829 20.8784 19.8872 20.4677 20.6571C20.4657 20.6591 20.2296 20.0301 19.7852 20.1234Z" fill="url(#paint11_linear_1910_2460)"/>
<path d="M21.5547 19.6094C21.4952 19.5975 21.4158 19.6054 21.3662 19.6352C21.3146 19.6649 21.2829 19.7225 21.271 19.7979C21.2591 19.8753 21.2551 19.9705 21.2472 20.0558L21.2372 20.1868C21.2313 20.2304 21.2353 20.2721 21.2214 20.3296C21.2055 20.3852 21.1678 20.4269 21.142 20.4566L21.0587 20.5598L20.89 20.7642L20.5547 21.1749L20.8503 20.7344L20.9991 20.5142L21.0726 20.403C21.0983 20.3634 21.1202 20.3356 21.1241 20.3038C21.1301 20.2761 21.1241 20.2284 21.1241 20.1828L21.1222 20.0499C21.1222 19.9586 21.1162 19.8753 21.1202 19.778C21.1241 19.6788 21.1678 19.5598 21.265 19.4883C21.3642 19.4189 21.4694 19.401 21.5845 19.409L21.5547 19.6094Z" fill="#EDA600"/>
<path d="M21.1253 20.2815C21.0796 20.2597 21.0082 20.2458 20.9546 20.2577C20.8971 20.2656 20.8455 20.3014 20.8038 20.351L20.5023 20.724L20.4308 20.8133L20.3951 20.7061C20.3237 20.4879 20.1709 20.2716 19.9507 20.1744C19.7284 20.0732 19.4626 20.1129 19.2344 20.2101C19.4546 20.097 19.7205 20.0295 19.9725 20.1188C20.0955 20.1625 20.2066 20.2399 20.2959 20.3351C20.3852 20.4323 20.4566 20.5414 20.5082 20.6684L20.4011 20.6506L20.6729 20.2537C20.7265 20.1783 20.8098 20.1069 20.911 20.0831C21.0122 20.0573 21.1074 20.0633 21.2086 20.101L21.1253 20.2815Z" fill="#EDA600"/>
<path d="M2.00794 19.1016C2.00794 19.0699 2.02381 19.0381 2.05159 19.0203C2.07738 19.0024 2.11111 18.9964 2.14286 19.0084C2.15476 19.0123 2.41072 19.1036 2.52779 19.3516C2.53374 19.3635 2.53771 19.3774 2.53771 19.3913L2.55557 19.8734C2.57938 19.9072 2.61509 19.9548 2.65477 20.0104L2.72224 19.4072L2.70636 18.5937C2.70636 18.5659 2.71628 18.5381 2.73811 18.5183C2.75795 18.4984 2.78771 18.4885 2.81351 18.4905C2.81946 18.4905 2.89287 18.4964 2.98216 18.5262C2.9901 18.5262 2.99605 18.5262 3.00399 18.5262C3.00994 18.5262 3.01589 18.5282 3.02383 18.5282C3.03772 18.5282 3.04962 18.5302 3.06351 18.5322C3.07939 18.5341 3.09327 18.5361 3.10716 18.5401C3.11907 18.5421 3.12899 18.546 3.14089 18.548C3.15478 18.552 3.16669 18.556 3.18058 18.5619C3.1905 18.5659 3.20042 18.5699 3.21034 18.5758C3.22225 18.5818 3.23217 18.5877 3.24407 18.5956C3.25399 18.6016 3.26193 18.6075 3.27185 18.6135C3.28177 18.6214 3.29169 18.6294 3.30161 18.6373C3.31153 18.6452 3.31947 18.6532 3.32741 18.6611C3.33534 18.6691 3.34328 18.677 3.35122 18.6849C3.36114 18.6949 3.36907 18.7048 3.37701 18.7147C3.38296 18.7226 3.38892 18.7306 3.39487 18.7365C3.40479 18.7484 3.41471 18.7623 3.42265 18.7742C3.42661 18.7782 3.4286 18.7841 3.43257 18.7881C3.5536 18.9647 3.64487 19.177 3.82742 19.2464C3.85916 19.2584 3.89289 19.2683 3.92861 19.2762C4.25996 19.3457 4.69251 19.2167 4.94252 19.5044L4.94053 19.5084C4.94847 19.5163 4.95839 19.5242 4.96633 19.5342C5.03379 19.6155 5.30165 19.4627 5.30165 19.4627L5.80166 19.8139L5.85722 19.7603L6.03182 19.5957L6.26199 19.6512L5.28776 20.5818L4.44251 21.1512C4.42267 21.1671 4.39687 21.1751 4.37108 21.1711L4.16076 21.1493C4.03972 21.2147 3.9048 21.2485 3.76987 21.2485C3.70638 21.2485 3.64289 21.2405 3.58138 21.2266C3.41669 21.1889 3.26987 21.0997 3.16074 20.9707L3.13494 20.9409L3.09327 20.9568C3.08335 20.9608 3.07343 20.9628 3.06351 20.9647C2.86906 20.9786 2.63692 20.8735 2.50001 20.7068L2.02183 20.1056C2.00794 20.0877 2 20.0639 2 20.0421L2.00794 19.1016Z" fill="url(#paint12_linear_1910_2460)"/>
<path d="M2.00781 19.0223V19.0362L2.0098 19.1672C2.08123 19.1652 2.16655 19.183 2.23401 19.2188C2.30147 19.2545 2.35306 19.31 2.38084 19.3815C2.39274 19.4172 2.40068 19.4588 2.40465 19.5005L2.41853 19.6453C2.43242 19.7426 2.44433 19.8338 2.47806 19.939L2.48004 19.9469L2.486 19.9549L2.60306 20.0938L3.05347 20.7981L2.67846 20.0442L2.67648 20.0402L2.57925 19.8993C2.56338 19.82 2.55743 19.7247 2.55346 19.6334V19.4946C2.55147 19.441 2.54552 19.3854 2.53163 19.3319C2.49989 19.2207 2.42052 19.1215 2.32329 19.062C2.24591 19.0184 2.16853 18.9866 2.08321 18.9727C2.07726 18.9707 2.06932 18.9688 2.06138 18.9688H2.0594C2.03162 18.9707 2.0098 18.9926 2.00781 19.0223Z" fill="#EDA600"/>
<path d="M5.01932 20.0501C5.01932 20.0501 4.27922 19.3219 3.28516 19.3993C3.28516 19.3993 3.7058 19.3795 3.63239 20.1096C3.63239 20.1096 3.92604 19.814 4.33676 20.5839C4.33676 20.5858 4.57486 19.9569 5.01932 20.0501Z" fill="url(#paint13_linear_1910_2460)"/>
<path d="M3.25632 19.5342C3.31585 19.5223 3.39522 19.5302 3.44482 19.56C3.49641 19.5897 3.52816 19.6473 3.54006 19.7227C3.55197 19.8001 3.55593 19.8953 3.56387 19.9806L3.57379 20.1116C3.57974 20.1552 3.57578 20.1969 3.58966 20.2544C3.60554 20.31 3.64324 20.3517 3.66903 20.3814L3.75237 20.4846L3.92102 20.689L4.25634 21.0997L3.9607 20.6592L3.81189 20.439L3.73848 20.3278C3.71268 20.2882 3.69086 20.2604 3.68689 20.2286C3.68094 20.2009 3.68689 20.1532 3.68689 20.1076L3.68887 19.9747C3.68887 19.8834 3.69483 19.8001 3.69086 19.7028C3.68689 19.6036 3.64324 19.4846 3.54601 19.4131C3.4468 19.3437 3.34164 19.3258 3.22656 19.3338L3.25632 19.5342Z" fill="#EDA600"/>
<path d="M3.68298 20.2063C3.72861 20.1845 3.80004 20.1706 3.85361 20.1825C3.91115 20.1904 3.96274 20.2262 4.00441 20.2758L4.306 20.6488L4.37743 20.7381L4.41315 20.6309C4.48458 20.4127 4.63736 20.1964 4.8576 20.0992C5.07983 19.998 5.3457 20.0377 5.57388 20.1349C5.35364 20.0218 5.08776 19.9543 4.83577 20.0436C4.71276 20.0873 4.60164 20.1647 4.51236 20.2599C4.42307 20.3571 4.35164 20.4662 4.29807 20.5932L4.40521 20.5754L4.13338 20.1785C4.07981 20.1031 3.99647 20.0317 3.89528 20.0079C3.79409 19.9821 3.69885 19.9881 3.59766 20.0258L3.68298 20.2063Z" fill="#EDA600"/>
<path d="M2.70703 18.5339C2.70703 18.5339 2.70703 18.5677 2.70703 18.5697L2.711 18.7006C2.81814 18.6966 2.94315 18.7165 3.02648 18.772C3.11577 18.8256 3.15148 18.9129 3.15148 19.0399L3.17529 19.8137L3.18918 20.2026C3.18125 20.2721 3.22291 20.3554 3.26657 20.3971L3.3876 20.5479L3.87174 21.155L3.42927 20.5181L3.31617 20.3574C3.2745 20.3038 3.25863 20.2641 3.26458 20.2006L3.27649 19.8118L3.30228 19.034C3.30625 18.9724 3.30228 18.8851 3.2745 18.8117C3.24871 18.7403 3.13958 18.5161 2.7606 18.4863C2.73283 18.4883 2.711 18.5062 2.70703 18.5339Z" fill="#EDA600"/>
<path d="M12.4035 8.1748H11.457V9.17681C11.457 9.6292 11.842 9.99825 12.3182 9.99825H12.4908C12.965 9.99825 13.3519 9.63118 13.3519 9.17681V8.1748H12.4035Z" fill="#E59600"/>
<path d="M12.4018 1.03613C10.7351 1.03613 9.19141 2.27425 9.19141 4.90327C9.19141 7.01442 10.499 8.26246 11.6359 8.66524C11.9077 8.76048 12.1696 8.81009 12.4018 8.81009C12.6319 8.81009 12.8919 8.76247 13.1617 8.66723C14.3006 8.26643 15.6122 7.0164 15.6122 4.90327C15.6122 2.27624 14.0685 1.03613 12.4018 1.03613Z" fill="#FFCA28"/>
<path d="M13.2117 6.85885C12.9062 7.03941 11.9062 7.03941 11.6026 6.85885C11.428 6.75369 11.2494 6.91441 11.3208 7.07314C11.3923 7.22989 11.9379 7.59299 12.4101 7.59299C12.8824 7.59299 13.4201 7.22989 13.4915 7.07314C13.5629 6.91441 13.3863 6.75568 13.2117 6.85885Z" fill="#795548"/>
<path d="M12.7735 6.08118C12.7636 6.07721 12.7537 6.07523 12.7438 6.07324H12.0672C12.0572 6.07523 12.0473 6.07721 12.0374 6.08118C11.9759 6.10499 11.9422 6.17047 11.9719 6.23793C12.0017 6.30539 12.1366 6.49587 12.4064 6.49587C12.6783 6.49587 12.8132 6.30539 12.841 6.23793C12.8688 6.16848 12.835 6.10499 12.7735 6.08118Z" fill="#E59600"/>
<path d="M10.8248 5.32583C10.6263 5.32583 10.4478 5.27821 10.3228 5.20082C10.2692 5.16709 10.2394 5.18693 10.2474 5.25043C10.2831 5.49051 10.5291 5.67702 10.8248 5.67702C11.1204 5.67702 11.3644 5.49051 11.4021 5.25043C11.4121 5.18892 11.3803 5.16908 11.3267 5.20082C11.2017 5.27622 11.0232 5.32583 10.8248 5.32583Z" fill="#404040"/>
<path d="M13.9854 5.32583C13.787 5.32583 13.6085 5.27821 13.4835 5.20082C13.4299 5.16709 13.3981 5.18693 13.4081 5.25043C13.4438 5.49051 13.6898 5.67702 13.9854 5.67702C14.2811 5.67702 14.5251 5.49051 14.5628 5.25043C14.5728 5.18892 14.541 5.16908 14.4874 5.20082C14.3644 5.27622 14.1858 5.32583 13.9854 5.32583Z" fill="#404040"/>
<path d="M11.5327 4.30925C11.4434 4.1902 11.235 4.01758 10.8323 4.01758C10.4295 4.01758 10.2211 4.1902 10.1318 4.30925C10.0922 4.36084 10.1021 4.42235 10.1299 4.46005C10.1557 4.49378 10.2311 4.52552 10.3144 4.49775C10.3977 4.46997 10.5604 4.38465 10.8323 4.38266C11.1041 4.38465 11.2668 4.46798 11.3501 4.49775C11.4335 4.52751 11.5089 4.49378 11.5347 4.46005C11.5624 4.42235 11.5723 4.36084 11.5327 4.30925Z" fill="#6D4C41"/>
<path d="M14.685 4.30925C14.5957 4.1902 14.3874 4.01758 13.9846 4.01758C13.5818 4.01758 13.3735 4.1902 13.2842 4.30925C13.2445 4.36084 13.2544 4.42235 13.2822 4.46005C13.308 4.49378 13.3834 4.52552 13.4667 4.49775C13.5501 4.46997 13.7128 4.38465 13.9846 4.38266C14.2564 4.38465 14.4191 4.46798 14.5025 4.49775C14.5858 4.52751 14.6612 4.49378 14.687 4.46005C14.7148 4.42235 14.7247 4.36084 14.685 4.30925Z" fill="#6D4C41"/>
<path d="M12.4621 0C8.48779 0 8.51954 3.67467 8.51954 3.73221C8.51954 4.48421 8.5374 5.33343 8.59295 6.18662L9.24376 6.18464C9.23781 5.90289 9.43622 4.15286 10.0275 4.01992C12.1942 3.5338 13.4204 2.38298 13.4204 2.38298C13.7399 3.07942 14.7359 3.75801 15.0931 4.01595C15.3867 4.22825 15.476 5.8136 15.4721 6.18464H16.2181C16.2181 6.17869 16.2201 6.17472 16.2201 6.16877C16.2737 5.32153 16.2915 4.47627 16.2915 3.73023C16.2935 3.67467 16.4364 0 12.4621 0Z" fill="#543930"/>
<path d="M12.4621 0C8.48779 0 8.51954 3.67467 8.51954 3.73221C8.51954 4.48421 8.5374 5.33343 8.59295 6.18662L9.24376 6.18464C9.23781 5.90289 9.43622 4.15286 10.0275 4.01992C12.1942 3.5338 13.4204 2.38298 13.4204 2.38298C13.7399 3.07942 14.7359 3.75801 15.0931 4.01595C15.3867 4.22825 15.476 5.8136 15.4721 6.18464H16.2181C16.2181 6.17869 16.2201 6.17472 16.2201 6.16877C16.2737 5.32153 16.2915 4.47627 16.2915 3.73023C16.2935 3.67467 16.4364 0 12.4621 0Z" fill="url(#paint14_radial_1910_2460)"/>
<defs>
<radialGradient id="paint0_radial_1910_2460" cx="0" cy="0" r="1" gradientUnits="userSpaceOnUse" gradientTransform="translate(12.4065 5.38425) scale(4.60588 5.48146)">
<stop offset="0.7936" stop-color="#6D4C41" stop-opacity="0"/>
<stop offset="1" stop-color="#6D4C41"/>
</radialGradient>
<linearGradient id="paint1_linear_1910_2460" x1="17.6334" y1="11.9182" x2="17.6334" y2="20.8195" gradientUnits="userSpaceOnUse">
<stop stop-color="#FFB300"/>
<stop offset="0.5" stop-color="#FFCA28"/>
</linearGradient>
<linearGradient id="paint2_linear_1910_2460" x1="7.08519" y1="11.9182" x2="7.08519" y2="20.8195" gradientUnits="userSpaceOnUse">
<stop stop-color="#FFB300"/>
<stop offset="0.5" stop-color="#FFCA28"/>
</linearGradient>
<linearGradient id="paint3_linear_1910_2460" x1="12.4025" y1="8.83821" x2="12.4025" y2="18.4519" gradientUnits="userSpaceOnUse">
<stop stop-color="#651FFF"/>
<stop offset="0.7047" stop-color="#5914F2"/>
<stop offset="1" stop-color="#530EEB"/>
</linearGradient>
<linearGradient id="paint4_linear_1910_2460" x1="9.95468" y1="23.3936" x2="9.95468" y2="18.5742" gradientUnits="userSpaceOnUse">
<stop stop-color="#FFB300"/>
<stop offset="0.3773" stop-color="#FFCA28"/>
</linearGradient>
<linearGradient id="paint5_linear_1910_2460" x1="4.95342" y1="20.6457" x2="5.95029" y2="21.876" gradientUnits="userSpaceOnUse">
<stop stop-color="#FFB300"/>
<stop offset="0.5" stop-color="#FFCA28" stop-opacity="0"/>
</linearGradient>
<linearGradient id="paint6_linear_1910_2460" x1="6.81641" y1="21.4787" x2="21.9284" y2="21.4787" gradientUnits="userSpaceOnUse">
<stop offset="0.7779" stop-color="#FFCA28"/>
<stop offset="1" stop-color="#FFB300"/>
</linearGradient>
<linearGradient id="paint7_linear_1910_2460" x1="9.33133" y1="21.3288" x2="8.72585" y2="22.4648" gradientUnits="userSpaceOnUse">
<stop stop-color="#FFB300"/>
<stop offset="0.5" stop-color="#FFCA28" stop-opacity="0"/>
</linearGradient>
<linearGradient id="paint8_linear_1910_2460" x1="21.6148" y1="22.9121" x2="7.63172" y2="19.9358" gradientUnits="userSpaceOnUse">
<stop stop-color="#FFB300"/>
<stop offset="0.3379" stop-color="#FFCA28"/>
</linearGradient>
<linearGradient id="paint9_linear_1910_2460" x1="15.5434" y1="20.7277" x2="15.1793" y2="18.3364" gradientUnits="userSpaceOnUse">
<stop offset="0.078" stop-color="#FFB300"/>
<stop offset="0.6927" stop-color="#FFCA28"/>
</linearGradient>
<linearGradient id="paint10_linear_1910_2460" x1="22.1936" y1="20.5822" x2="20.1532" y2="19.1782" gradientUnits="userSpaceOnUse">
<stop stop-color="#FFB300"/>
<stop offset="0.5" stop-color="#FFCA28"/>
</linearGradient>
<linearGradient id="paint11_linear_1910_2460" x1="20.9231" y1="20.2354" x2="20.6002" y2="19.7159" gradientUnits="userSpaceOnUse">
<stop stop-color="#FFB300"/>
<stop offset="1" stop-color="#FFCA28" stop-opacity="0"/>
</linearGradient>
<linearGradient id="paint12_linear_1910_2460" x1="2.4809" y1="20.2649" x2="5.40118" y2="19.123" gradientUnits="userSpaceOnUse">
<stop stop-color="#FFB300"/>
<stop offset="0.5" stop-color="#FFCA28"/>
</linearGradient>
<linearGradient id="paint13_linear_1910_2460" x1="3.84967" y1="20.1005" x2="4.2919" y2="19.5529" gradientUnits="userSpaceOnUse">
<stop stop-color="#FFB300"/>
<stop offset="1" stop-color="#FFCA28" stop-opacity="0"/>
</linearGradient>
<radialGradient id="paint14_radial_1910_2460" cx="0" cy="0" r="1" gradientUnits="userSpaceOnUse" gradientTransform="translate(12.4388 5.77478) scale(4.8245 5.85453)">
<stop offset="0.7945" stop-color="#6D4C41" stop-opacity="0"/>
<stop offset="1" stop-color="#6D4C41"/>
</radialGradient>
</defs>
</svg>
