<svg width="24" height="24" viewBox="0 0 24 24" fill="none" xmlns="http://www.w3.org/2000/svg">
<g clip-path="url(#clip0_1786_3151)">
<path d="M22.725 8.33619L23.488 7.57319C23.818 7.24319 24 6.80319 24 6.33619C24 5.86819 23.818 5.42919 23.487 5.09919L21.901 3.51319L22.707 2.70719C23.098 2.31619 23.098 1.68419 22.707 1.29319C22.316 0.902191 21.684 0.902191 21.293 1.29319L20.487 2.09919L18.902 0.514191C18.241 -0.146809 17.089 -0.147809 16.427 0.514191L15.664 1.27719L15.402 1.01519C14.742 0.354191 13.589 0.353191 12.927 1.01519L12.341 1.60119C11.659 2.28319 11.659 3.39319 12.341 4.07619L15.427 7.16219L7.159 15.4302L4.073 12.3402C3.392 11.6582 2.281 11.6602 1.599 12.3402L1.013 12.9262C0.682 13.2572 0.5 13.6972 0.5 14.1642C0.5 14.6322 0.682 15.0712 1.013 15.4012L1.276 15.6642L0.513 16.4272C0.182 16.7572 0 17.1972 0 17.6642C0 18.1322 0.182 18.5712 0.513 18.9012L2.099 20.4872L1.293 21.2932C0.902 21.6842 0.902 22.3162 1.293 22.7072C1.488 22.9022 1.744 23.0002 2 23.0002C2.256 23.0002 2.512 22.9022 2.707 22.7072L3.513 21.9012L5.098 23.4862C5.429 23.8182 5.868 24.0002 6.336 24.0002C6.803 24.0002 7.243 23.8182 7.573 23.4872L8.336 22.7242L8.598 22.9862C8.929 23.3172 9.368 23.4992 9.836 23.4992C10.303 23.4992 10.743 23.3172 11.073 22.9862L11.659 22.4002C12.341 21.7182 12.341 20.6082 11.659 19.9252L8.573 16.8392L16.841 8.57119L19.927 11.6572C20.268 11.9982 20.716 12.1682 21.164 12.1682C21.612 12.1682 22.06 11.9972 22.401 11.6562L22.987 11.0702C23.318 10.7392 23.5 10.3002 23.5 9.83319C23.5 9.36519 23.318 8.92619 22.987 8.59619L22.725 8.33619Z" fill="#13D16A"/>
</g>
<defs>
<clipPath id="clip0_1786_3151">
<rect width="24" height="24" fill="white"/>
</clipPath>
</defs>
</svg>
