<svg width="24" height="24" viewBox="0 0 24 24" fill="none" xmlns="http://www.w3.org/2000/svg">
<g clip-path="url(#clip0_1786_3176)">
<path d="M21.3333 5.33333H18.6667V4C18.6667 2.93913 18.2452 1.92172 17.4951 1.17157C16.7449 0.421427 15.7275 0 14.6667 0H9.33333C8.27247 0 7.25505 0.421427 6.50491 1.17157C5.75476 1.92172 5.33333 2.93913 5.33333 4V5.33333H2.66667C1.96007 5.33544 1.28302 5.61707 0.78338 6.11671C0.28374 6.61635 0.0021103 7.29341 0 8V21.3333C0.0021103 22.0399 0.28374 22.717 0.78338 23.2166C1.28302 23.7163 1.96007 23.9979 2.66667 24H21.3333C22.0399 23.9979 22.717 23.7163 23.2166 23.2166C23.7163 22.717 23.9979 22.0399 24 21.3333V8C23.9979 7.29341 23.7163 6.61635 23.2166 6.11671C22.717 5.61707 22.0399 5.33544 21.3333 5.33333ZM8 4C8 3.64638 8.14048 3.30724 8.39052 3.05719C8.64057 2.80714 8.97971 2.66667 9.33333 2.66667H14.6667C15.0203 2.66667 15.3594 2.80714 15.6095 3.05719C15.8595 3.30724 16 3.64638 16 4V5.33333H8V4ZM16 16H13.3333V18.6667H10.6667V16H8V13.3333H10.6667V10.6667H13.3333V13.3333H16V16Z" fill="#13D16A"/>
</g>
<defs>
<clipPath id="clip0_1786_3176">
<rect width="24" height="24" fill="white"/>
</clipPath>
</defs>
</svg>
