<svg width="24" height="24" viewBox="0 0 24 24" fill="none" xmlns="http://www.w3.org/2000/svg">
<g clip-path="url(#clip0_1786_3169)">
<path d="M8.63008 7.36547C8.53714 7.20386 8.53714 7.007 8.63008 6.84594L11.5497 1.78808C11.7351 1.46647 12.264 1.46647 12.4495 1.78808L15.3695 6.84594C15.4625 7.00696 15.4625 7.20386 15.3695 7.36547C15.2766 7.52649 15.1052 7.62524 14.9196 7.62524H9.08C8.89447 7.62524 8.7231 7.52649 8.63008 7.36547ZM4.98575 14.7164H19.0144C19.2004 14.7164 19.3718 14.6177 19.4643 14.4567C19.5573 14.2957 19.5573 14.0982 19.4643 13.9371L16.9167 9.52454C16.8238 9.36352 16.6523 9.26477 16.4668 9.26477H7.53447C7.34901 9.26477 7.17701 9.36352 7.08454 9.52454L4.53638 13.9371C4.4434 14.0982 4.4434 14.2957 4.53638 14.4567C4.62838 14.6171 4.79983 14.7164 4.98575 14.7164ZM23.9306 21.6736L21.0105 16.6162C20.9175 16.4551 20.7461 16.3564 20.5605 16.3564H3.43975C3.25429 16.3564 3.08229 16.4551 2.98982 16.6162L0.0697355 21.6736C-0.0232452 21.8346 -0.0232452 22.0321 0.0697355 22.1931C0.162716 22.3541 0.334129 22.4529 0.519659 22.4529H23.4806C23.666 22.4529 23.838 22.3541 23.9306 22.1931C24.0229 22.0321 24.0235 21.8341 23.9306 21.6736Z" fill="#13D16A"/>
</g>
<defs>
<clipPath id="clip0_1786_3169">
<rect width="24" height="24" fill="white"/>
</clipPath>
</defs>
</svg>
