<svg width="24" height="24" viewBox="0 0 24 24" fill="none" xmlns="http://www.w3.org/2000/svg">
<g clip-path="url(#clip0_1786_3163)">
<path d="M22.9919 22.5873L20.4438 8.37145C20.3413 7.79915 19.8434 7.38255 19.2619 7.38255H15.0242C15.8187 6.59994 16.3125 5.51273 16.3125 4.31201C16.3125 1.93434 14.3782 0 12.0005 0C9.62284 0 7.68842 1.93434 7.68842 4.31201C7.68842 5.51273 8.18219 6.59994 8.97672 7.38255H4.73908C4.15758 7.38255 3.65972 7.79915 3.55709 8.37145L1.00907 22.5873C0.946384 22.9373 1.04189 23.2971 1.27012 23.5697C1.49827 23.8424 1.83554 23.9999 2.19106 23.9999H21.8099C22.1654 23.9999 22.5027 23.8424 22.7308 23.5697C22.959 23.2971 23.0546 22.9373 22.9919 22.5873ZM12.0005 2.40161C13.0539 2.40161 13.9109 3.25858 13.9109 4.31201C13.9109 5.36543 13.0539 6.22249 12.0005 6.22249C10.9471 6.22249 10.09 5.36543 10.09 4.31201C10.09 3.25858 10.9471 2.40161 12.0005 2.40161ZM11.6867 18.5825C11.6242 18.6978 11.5035 18.7696 11.3723 18.7696H10.8059C10.6789 18.7696 10.5614 18.7023 10.4972 18.5927L9.09528 16.1995L8.19876 17.1147V18.2168C8.19876 18.5221 7.95124 18.7696 7.64591 18.7696C7.34059 18.7696 7.09306 18.5221 7.09306 18.2168V13.8461C7.09306 13.5408 7.34059 13.2932 7.64591 13.2932C7.95124 13.2932 8.19876 13.5408 8.19876 13.8461V15.725L10.3265 13.4089C10.3942 13.3352 10.4898 13.2932 10.5899 13.2932H11.0761C11.2197 13.2932 11.3493 13.379 11.4054 13.5112C11.4614 13.6434 11.433 13.7963 11.3333 13.8995L9.85739 15.4261L11.6722 18.2168C11.7437 18.3269 11.7493 18.4672 11.6867 18.5825ZM17.1338 17.8532C17.1338 17.962 17.0842 18.0652 16.9992 18.133C16.7786 18.3091 16.4879 18.4671 16.1272 18.607C15.6875 18.7776 15.2424 18.8629 14.7917 18.8629C14.2188 18.8629 13.7197 18.7428 13.2936 18.5024C12.8679 18.2622 12.5478 17.9185 12.3336 17.4714C12.1194 17.0244 12.0124 16.5382 12.0124 16.0126C12.0124 15.4424 12.1319 14.9355 12.371 14.4923C12.61 14.049 12.96 13.7092 13.4207 13.4725C13.7717 13.2907 14.2089 13.1997 14.7319 13.1997C15.4118 13.1997 15.9428 13.3424 16.3251 13.6275C16.4907 13.7511 16.6307 13.8951 16.7451 14.0595C16.8545 14.2166 16.8767 14.4185 16.8041 14.5955C16.7316 14.7727 16.5743 14.9012 16.3861 14.9364L16.3848 14.9366C16.1643 14.9779 15.9408 14.8802 15.8215 14.6903C15.7451 14.5688 15.6477 14.4648 15.5294 14.3783C15.3164 14.2226 15.0506 14.1448 14.7319 14.1448C14.2487 14.1448 13.8645 14.2981 13.5795 14.6043C13.2943 14.9107 13.1518 15.3652 13.1518 15.9678C13.1518 16.6179 13.2961 17.1053 13.5851 17.4303C13.8739 17.7553 14.2524 17.9178 14.7207 17.9178C14.9522 17.9178 15.1845 17.8724 15.4174 17.7814C15.6501 17.6905 15.85 17.5803 16.0169 17.4509V16.7559H15.2119C14.9571 16.7559 14.7507 16.5494 14.7507 16.2947C14.7507 16.0399 14.9572 15.8334 15.2119 15.8334H16.7761C16.9737 15.8334 17.1338 15.9936 17.1338 16.1911V17.8532Z" fill="#13D16A"/>
</g>
<defs>
<clipPath id="clip0_1786_3163">
<rect width="24" height="24" fill="white"/>
</clipPath>
</defs>
</svg>
